<svg width="41" height="30" viewBox="0 0 41 30" fill="none" xmlns="http://www.w3.org/2000/svg">
<ellipse cx="20.317" cy="11.8937" rx="1.90298" ry="1.90298" fill="#0075FF"/>
<ellipse cx="13.6566" cy="11.8937" rx="1.90298" ry="1.90298" fill="#0075FF"/>
<ellipse cx="26.9777" cy="11.8937" rx="1.90298" ry="1.90298" fill="#0075FF"/>
<path opacity="0.35" fill-rule="evenodd" clip-rule="evenodd" d="M1.28731 26.6417H0C0 28.4971 1.5028 29.9999 3.35821 29.9999H36.9403C38.7957 29.9999 40.2985 28.4971 40.2985 26.6417H37.444V26.6697H1.28731V26.6417Z" fill="#0075FF"/>
<path opacity="0.35" fill-rule="evenodd" clip-rule="evenodd" d="M36.9234 21.8283C36.9234 23.6838 35.4374 25.1866 33.582 25.1866C55.9783 25.1866 -6.56819 25.1866 6.71636 25.1866C4.86095 25.1866 3.35815 23.6838 3.35815 21.8283V3.35822C3.35815 1.50279 4.86095 0 6.71636 0H33.582C35.4374 0 36.9402 1.50279 36.9402 3.35822L36.9234 21.8283Z" fill="#0075FF"/>
</svg>
