<svg width="30" height="30" viewBox="0 0 30 30" fill="none" xmlns="http://www.w3.org/2000/svg">
<circle cx="15" cy="16.5" r="2" fill="#0075FF"/>
<circle cx="8" cy="16.5" r="2" fill="#0075FF"/>
<circle cx="22" cy="16.5" r="2" fill="#0075FF"/>
<circle cx="15" cy="23" r="2" fill="#0075FF"/>
<circle cx="8" cy="23" r="2" fill="#0075FF"/>
<circle cx="22" cy="23" r="2" fill="#0075FF"/>
<path opacity="0.35" d="M25.5 3H24V1.5C24 0.6 23.4 0 22.5 0C21.6 0 21 0.6 21 1.5V3H9V1.5C9 0.6 8.4 0 7.5 0C6.6 0 6 0.6 6 1.5V3H4.5C1.95 3 0 4.95 0 7.5V9H30V7.5C30 4.95 28.05 3 25.5 3ZM0 25.5C0 28.05 1.95 30 4.5 30H25.5C28.05 30 30 28.05 30 25.5V12H0V25.5Z" fill="#0075FF"/>
</svg>
