<svg width="30" height="30" viewBox="0 0 30 30" fill="none" xmlns="http://www.w3.org/2000/svg">
<path opacity="0.35" d="M14.9992 0C18.9725 0 22.7973 1.57492 25.6022 4.39478C28.4221 7.21614 29.9985 11.0244 29.9985 15.0142C29.9985 20.264 27.2371 25.1387 22.7374 27.8536C18.2376 30.5685 12.6429 30.7184 7.9946 28.2436H7.9481C7.49962 28.0636 7.13814 27.7486 6.71816 27.5386C6.25468 27.3436 5.72821 27.3136 5.24973 27.4651C4.13829 27.8536 3.01335 28.1686 1.85841 28.4386C1.25844 28.4536 1.07845 28.0936 1.07845 27.5086C1.34843 26.3237 1.70841 25.1522 2.12989 24.0138C2.29338 23.5188 2.24989 22.9938 1.9949 22.5274L1.69491 21.9439C0.583471 19.829 0 17.4741 0 15.0907V14.9992C0 11.0244 1.57342 7.19964 4.39328 4.39478C7.21313 1.57492 11.0229 0 14.9992 0Z" fill="#0075FF"/>
<circle cx="8" cy="15" r="2" fill="#0075FF"/>
<circle cx="15" cy="15" r="2" fill="#0075FF"/>
<circle cx="22" cy="15" r="2" fill="#0075FF"/>
</svg>
