<svg width="30" height="30" viewBox="0 0 30 30" fill="none" xmlns="http://www.w3.org/2000/svg">
<rect width="30" height="30" rx="15" fill="#DADADA"/>
<path d="M8.92259 14.8208C8.59715 14.4828 8.06951 14.4828 7.74408 14.8208C7.41864 15.1587 7.41864 15.7067 7.74408 16.0446L11.9107 20.3715C12.2362 20.7095 12.7638 20.7095 13.0893 20.3715L22.2559 10.8523C22.5814 10.5144 22.5814 9.96642 22.2559 9.62847C21.9305 9.29051 21.4028 9.29051 21.0774 9.62847L12.5 18.5358L8.92259 14.8208Z" fill="white"/>
<mask id="mask0_6_1349" style="mask-type:alpha" maskUnits="userSpaceOnUse" x="7" y="9" width="16" height="12">
<path d="M8.92259 14.8208C8.59715 14.4828 8.06951 14.4828 7.74408 14.8208C7.41864 15.1587 7.41864 15.7067 7.74408 16.0446L11.9107 20.3715C12.2362 20.7095 12.7638 20.7095 13.0893 20.3715L22.2559 10.8523C22.5814 10.5144 22.5814 9.96642 22.2559 9.62847C21.9305 9.29051 21.4028 9.29051 21.0774 9.62847L12.5 18.5358L8.92259 14.8208Z" fill="white"/>
</mask>
<g mask="url(#mask0_6_1349)">
</g>
<rect width="30" height="30" rx="15" fill="#0075FF"/>
<path d="M8.92259 14.8208C8.59715 14.4828 8.06951 14.4828 7.74408 14.8208C7.41864 15.1587 7.41864 15.7067 7.74408 16.0446L11.9107 20.3715C12.2362 20.7095 12.7638 20.7095 13.0893 20.3715L22.2559 10.8523C22.5814 10.5144 22.5814 9.96642 22.2559 9.62847C21.9305 9.29051 21.4028 9.29051 21.0774 9.62847L12.5 18.5358L8.92259 14.8208Z" fill="white"/>
<mask id="mask1_6_1349" style="mask-type:alpha" maskUnits="userSpaceOnUse" x="7" y="9" width="16" height="12">
<path d="M8.92259 14.8208C8.59715 14.4828 8.06951 14.4828 7.74408 14.8208C7.41864 15.1587 7.41864 15.7067 7.74408 16.0446L11.9107 20.3715C12.2362 20.7095 12.7638 20.7095 13.0893 20.3715L22.2559 10.8523C22.5814 10.5144 22.5814 9.96642 22.2559 9.62847C21.9305 9.29051 21.4028 9.29051 21.0774 9.62847L12.5 18.5358L8.92259 14.8208Z" fill="white"/>
</mask>
<g mask="url(#mask1_6_1349)">
</g>
</svg>
