<svg width="144" height="32" viewBox="0 0 144 32" fill="none" xmlns="http://www.w3.org/2000/svg">
<path fill-rule="evenodd" clip-rule="evenodd" d="M20.0668 22.8095C20.0668 27.8353 16.0643 31.4801 9.70668 31.4801C6.02022 31.378 2.52668 29.81 0 27.1238L2.12624 24.7722C4.11633 26.6671 6.45792 28.5087 9.6646 28.5087C13.2265 28.5087 17.0668 26.5111 17.0668 22.9245C17.0668 19.9456 14.6992 18.0025 9.724 16.4703C4.05446 14.7376 1.1745 12.3861 1.1745 7.96534C1.1745 3.59034 4.87747 0 10.1535 0C14.0941 0 16.5594 1.67945 18.9591 3.8255L16.8688 6.14604C14.7648 4.28217 12.7599 3.01856 10.2995 3.01856C7.24752 3.01856 4.23514 4.98639 4.23514 7.8193C4.23514 10.3861 5.71039 12.021 10.9183 13.6151C15.6881 15.0841 20.0668 17.3601 20.0668 22.8081V22.8095ZM45.8007 2.89869C45.8007 4.27708 46.9178 5.39449 48.2959 5.39449C48.9577 5.39481 49.5924 5.13197 50.0604 4.66384C50.5284 4.19572 50.7911 3.56071 50.7908 2.89869C50.7908 1.52031 49.6737 0.402902 48.2959 0.402902C46.9178 0.402902 45.8007 1.52031 45.8007 2.89869ZM69.9456 0.914435H66.938V30.9872H69.9456V0.914435ZM76.9645 29.9862C76.9645 29.9862 78.816 31.4899 84.9843 31.4899L84.9805 31.4887C91.0697 31.4887 96.0115 27.0356 96.0115 20.9516C96.0115 14.8673 91.0733 10.4318 84.9843 10.4318C83.257 10.3855 81.5423 10.7361 79.9719 11.4565V0.914435H76.9645V29.9862ZM99.5228 20.9779C99.5223 27.0647 104.456 31.9994 110.544 32.0001C116.631 32.0001 121.567 27.0659 121.567 20.9788C121.567 14.8919 116.633 9.95761 110.545 9.95738C104.458 9.95716 99.5232 14.8912 99.5228 20.9779ZM139.804 30.9965H143.729L135.05 20.6586L143.144 10.9631H139.241L133.093 18.327L126.915 10.9631H122.989L131.142 20.6721L122.523 30.9965H126.425L133.097 23.0039L139.804 30.9965ZM110.563 12.933C107.316 12.9325 104.389 14.8879 103.147 17.887C101.904 20.8863 102.591 24.3386 104.886 26.6342C107.182 28.9297 110.634 29.6164 113.633 28.3738C116.633 27.1312 118.588 24.2042 118.587 20.9578C118.587 16.5261 114.994 12.9337 110.563 12.933ZM84.9838 13.4454C83.1879 13.4707 81.4412 14.0366 79.9715 15.0694V27.4817C81.5292 28.2388 83.255 28.584 84.9838 28.4844C89.4121 28.4844 93.0036 25.39 93.0036 20.9649C93.0036 16.5399 89.4084 13.4442 84.9802 13.4442L84.9838 13.4454ZM56.9148 0.914772H59.9222V30.9875H56.9148V0.914772ZM38.3664 30.9898L27.8465 20.47L37.37 10.9403H41.6225L32.0991 20.47L42.6189 30.9898H38.3664ZM24.8297 0.914435V30.9872H27.8371V0.914435H24.8297ZM46.8977 30.9898H49.9052V10.9403H46.8977V30.9898Z" fill="black"/>
</svg>
