<svg width="203" height="45" viewBox="0 0 203 45" fill="none" xmlns="http://www.w3.org/2000/svg">
<g clip-path="url(#clip0_47:14774)">
<path fill-rule="evenodd" clip-rule="evenodd" d="M28.2189 32.0758C28.2189 39.1435 22.5904 44.269 13.65 44.269C8.46593 44.1254 3.55314 41.9204 0 38.1428L2.99002 34.8359C5.78859 37.5005 9.08145 40.0903 13.5908 40.0903C18.5997 40.0903 24.0001 37.2813 24.0001 32.2376C24.0001 28.0485 20.6707 25.316 13.6744 23.1613C5.70158 20.7248 1.65164 17.418 1.65164 11.2013C1.65164 5.04892 6.85894 0 14.2783 0C19.8198 0 23.2867 2.36172 26.6613 5.37961L23.7217 8.64286C20.763 6.0218 17.9436 4.24485 14.4837 4.24485C10.1918 4.24485 5.95567 7.0121 5.95567 10.9959C5.95567 14.6055 8.03023 16.9046 15.3539 19.1462C22.0614 21.212 28.2189 24.4127 28.2189 32.074V32.0758ZM64.4073 4.07628C64.4073 6.01464 65.9782 7.586 67.916 7.586C68.8467 7.58645 69.7393 7.21683 70.3974 6.55852C71.0556 5.90024 71.425 5.00725 71.4246 4.07628C71.4246 2.13793 69.8537 0.566581 67.916 0.566581C65.9782 0.566581 64.4073 2.13793 64.4073 4.07628ZM98.361 1.28592H94.1316V43.5757H98.361V1.28592ZM108.231 42.1681C108.231 42.1681 110.835 44.2827 119.509 44.2827L119.504 44.281C128.067 44.281 135.016 38.0189 135.016 29.4631C135.016 20.9072 128.072 14.6697 119.509 14.6697C117.08 14.6046 114.669 15.0976 112.46 16.1107V1.28592H108.231V42.1681ZM139.954 29.5002C139.953 38.0598 146.892 44.9992 155.452 45.0002C164.013 45.0002 170.953 38.0614 170.954 29.5014C170.954 20.9418 164.015 14.0029 155.454 14.0026C146.894 14.0023 139.954 20.9408 139.954 29.5002ZM196.599 43.5888H202.119L189.914 29.0512L201.296 15.4168H195.807L187.162 25.7723L178.474 15.4168H172.954L184.418 29.0702L172.298 43.5888H177.785L187.168 32.3493L196.599 43.5888ZM155.479 18.1871C150.913 18.1864 146.797 20.936 145.05 25.1536C143.302 29.3713 144.268 34.2262 147.496 37.4543C150.724 40.6825 155.579 41.6481 159.797 39.9007C164.015 38.1532 166.764 34.0372 166.763 29.4719C166.762 23.2398 161.711 18.188 155.479 18.1871ZM119.509 18.9076C116.983 18.9432 114.527 19.739 112.46 21.1913V38.6462C114.65 39.7109 117.077 40.1963 119.509 40.0561C125.736 40.0561 130.786 35.7046 130.786 29.482C130.786 23.2593 125.731 18.9059 119.503 18.9059L119.509 18.9076ZM80.0364 1.2864H84.2655V43.5762H80.0364V1.2864ZM53.9527 43.5794L39.1592 28.7859L52.5516 15.3848H58.5317L45.1393 28.7859L59.9328 43.5794H53.9527ZM34.9167 1.28592V43.5757H39.1459V1.28592H34.9167ZM65.9499 43.5794H70.1791V15.3848H65.9499V43.5794Z" fill="white"/>
</g>
<defs>
<clipPath id="clip0_47:14774">
<rect width="202.5" height="45" fill="white"/>
</clipPath>
</defs>
</svg>
