<svg width="393" height="254" viewBox="0 0 393 254" fill="none" xmlns="http://www.w3.org/2000/svg">
<path d="M307.24 83.2538C265.222 87.3965 240.129 87.6332 198.229 83.2538C196.335 83.0171 194.915 81.4784 194.915 79.5846V8.33082C194.915 6.08194 196.927 4.30652 199.176 4.66161C238.591 9.86952 265.695 9.86952 306.412 4.66161C308.661 4.42488 310.673 6.08194 310.673 8.33082V79.5846C310.673 81.4784 309.134 83.1355 307.24 83.2538Z" fill="#BABABA"/>
<path d="M313.159 78.6376C271.14 82.7803 246.047 83.017 204.147 78.6376C202.254 78.4009 200.833 76.8622 200.833 74.9684V3.71461C200.833 1.46573 202.845 -0.309691 205.094 0.0453945C244.509 5.25331 271.614 5.25331 312.33 0.0453945C314.579 -0.191329 316.591 1.46573 316.591 3.71461V74.9684C316.473 76.7438 315.052 78.4009 313.159 78.6376Z" fill="#DCDCDC"/>
<path d="M224.979 15.6691H212.551C211.722 15.6691 211.131 14.9589 211.131 14.2487C211.131 13.5385 211.841 12.8284 212.551 12.8284H224.979C225.807 12.8284 226.399 13.5385 226.399 14.2487C226.399 14.9589 225.807 15.6691 224.979 15.6691Z" fill="white"/>
<path d="M250.308 15.6691H237.88C237.052 15.6691 236.46 14.9589 236.46 14.2487C236.46 13.5385 237.17 12.8284 237.88 12.8284H250.308C251.137 12.8284 251.729 13.5385 251.729 14.2487C251.729 14.9589 251.137 15.6691 250.308 15.6691Z" fill="white"/>
<path d="M275.638 15.6691H263.21C262.381 15.6691 261.79 14.9589 261.79 14.2487C261.79 13.5385 262.5 12.8284 263.21 12.8284H275.638C276.466 12.8284 277.058 13.5385 277.058 14.2487C277.058 14.9589 276.466 15.6691 275.638 15.6691Z" fill="white"/>
<path d="M300.967 15.6691H288.539C287.711 15.6691 287.119 14.9589 287.119 14.2487C287.119 13.5385 287.829 12.8284 288.539 12.8284H300.967C301.796 12.8284 302.388 13.5385 302.388 14.2487C302.388 14.9589 301.796 15.6691 300.967 15.6691Z" fill="white"/>
<path d="M224.979 28.8072H212.551C211.722 28.8072 211.131 28.0971 211.131 27.3869C211.131 26.5584 211.841 25.9666 212.551 25.9666H224.979C225.807 25.9666 226.399 26.6767 226.399 27.3869C226.518 28.0971 225.807 28.8072 224.979 28.8072Z" fill="white"/>
<path d="M250.308 28.8072H237.88C237.052 28.8072 236.46 28.0971 236.46 27.3869C236.46 26.5584 237.17 25.9666 237.88 25.9666H250.308C251.137 25.9666 251.729 26.6767 251.729 27.3869C251.847 28.0971 251.137 28.8072 250.308 28.8072Z" fill="white"/>
<path d="M275.638 28.8072H263.21C262.381 28.8072 261.79 28.0971 261.79 27.3869C261.79 26.5584 262.5 25.9666 263.21 25.9666H275.638C276.466 25.9666 277.058 26.6767 277.058 27.3869C277.058 28.0971 276.466 28.8072 275.638 28.8072Z" fill="white"/>
<path d="M300.967 28.8072H288.539C287.711 28.8072 287.119 28.0971 287.119 27.3869C287.119 26.5584 287.829 25.9666 288.539 25.9666H300.967C301.796 25.9666 302.388 26.6767 302.388 27.3869C302.388 28.0971 301.796 28.8072 300.967 28.8072Z" fill="white"/>
<path d="M224.979 42.3004H212.551C211.722 42.3004 211.131 41.5902 211.131 40.8801C211.131 40.0515 211.841 39.4597 212.551 39.4597H224.979C225.807 39.4597 226.399 40.1699 226.399 40.8801C226.518 41.5902 225.807 42.3004 224.979 42.3004Z" fill="white"/>
<path d="M250.308 42.3004H237.88C237.052 42.3004 236.46 41.5902 236.46 40.8801C236.46 40.0515 237.17 39.4597 237.88 39.4597H250.308C251.137 39.4597 251.729 40.1699 251.729 40.8801C251.847 41.5902 251.137 42.3004 250.308 42.3004Z" fill="white"/>
<path d="M275.638 42.3004H263.21C262.381 42.3004 261.79 41.5902 261.79 40.8801C261.79 40.0515 262.5 39.4597 263.21 39.4597H275.638C276.466 39.4597 277.058 40.1699 277.058 40.8801C277.058 41.5902 276.466 42.3004 275.638 42.3004Z" fill="white"/>
<path d="M300.967 42.3004H288.539C287.711 42.3004 287.119 41.5902 287.119 40.8801C287.119 40.0515 287.829 39.4597 288.539 39.4597H300.967C301.796 39.4597 302.388 40.1699 302.388 40.8801C302.388 41.5902 301.796 42.3004 300.967 42.3004Z" fill="white"/>
<path d="M224.979 55.2018H212.551C211.722 55.2018 211.131 54.4916 211.131 53.7814C211.131 52.9529 211.841 52.3611 212.551 52.3611H224.979C225.807 52.3611 226.399 53.0713 226.399 53.7814C226.518 54.4916 225.807 55.2018 224.979 55.2018Z" fill="white"/>
<path d="M250.308 55.2018H237.88C237.052 55.2018 236.46 54.4916 236.46 53.7814C236.46 52.9529 237.17 52.3611 237.88 52.3611H250.308C251.137 52.3611 251.729 53.0713 251.729 53.7814C251.847 54.4916 251.137 55.2018 250.308 55.2018Z" fill="white"/>
<path d="M275.638 55.2018H263.21C262.381 55.2018 261.79 54.4916 261.79 53.7814C261.79 52.9529 262.5 52.3611 263.21 52.3611H275.638C276.466 52.3611 277.058 53.0713 277.058 53.7814C277.058 54.4916 276.466 55.2018 275.638 55.2018Z" fill="white"/>
<path d="M300.967 55.2018H288.539C287.711 55.2018 287.119 54.4916 287.119 53.7814C287.119 52.9529 287.829 52.3611 288.539 52.3611H300.967C301.796 52.3611 302.388 53.0713 302.388 53.7814C302.388 54.4916 301.796 55.2018 300.967 55.2018Z" fill="white"/>
<path d="M224.979 66.5646H212.551C211.722 66.5646 211.131 65.8544 211.131 65.1442C211.131 64.3157 211.841 63.7239 212.551 63.7239H224.979C225.807 63.7239 226.399 64.4341 226.399 65.1442C226.518 65.8544 225.807 66.5646 224.979 66.5646Z" fill="white"/>
<path d="M250.308 66.5646H237.88C237.052 66.5646 236.46 65.8544 236.46 65.1442C236.46 64.3157 237.17 63.7239 237.88 63.7239H250.308C251.137 63.7239 251.729 64.4341 251.729 65.1442C251.847 65.8544 251.137 66.5646 250.308 66.5646Z" fill="white"/>
<path d="M275.638 66.5646H263.21C262.381 66.5646 261.79 65.8544 261.79 65.1442C261.79 64.3157 262.5 63.7239 263.21 63.7239H275.638C276.466 63.7239 277.058 64.4341 277.058 65.1442C277.058 65.8544 276.466 66.5646 275.638 66.5646Z" fill="white"/>
<path d="M300.967 66.5646H288.539C287.711 66.5646 287.119 65.8544 287.119 65.1442C287.119 64.3157 287.829 63.7239 288.539 63.7239H300.967C301.796 63.7239 302.388 64.4341 302.388 65.1442C302.388 65.8544 301.796 66.5646 300.967 66.5646Z" fill="white"/>
<path d="M264.54 156.555C232.582 160.224 212.106 160.579 182.634 156.673C180.74 156.437 179.438 154.78 179.438 153.004V101.635C179.438 99.3862 181.332 97.7292 183.462 97.9659C214.473 100.57 234.358 101.517 263.711 98.0842C265.96 97.8475 267.854 99.5046 267.854 101.753V152.886C267.854 154.78 266.315 156.318 264.54 156.555Z" fill="#BABABA"/>
<path d="M259.687 160.698C227.729 164.367 207.253 164.722 177.781 160.816C175.887 160.579 174.585 158.922 174.585 157.147V105.778C174.585 103.529 176.479 101.872 178.609 102.108C209.62 104.712 229.505 105.659 258.859 102.227C261.107 101.99 263.001 103.647 263.001 105.896V157.028C263.001 158.804 261.581 160.461 259.687 160.698Z" fill="#DCDCDC"/>
<path d="M202.163 125.189H183.58C181.923 125.189 180.621 123.887 180.621 122.23C180.621 120.573 181.923 119.271 183.58 119.271H202.163C203.82 119.271 205.122 120.573 205.122 122.23C205.004 123.887 203.702 125.189 202.163 125.189Z" fill="white"/>
<path d="M228.084 125.189H209.502C207.844 125.189 206.542 123.887 206.542 122.23C206.542 120.573 207.844 119.271 209.502 119.271H228.084C229.741 119.271 231.043 120.573 231.043 122.23C230.925 123.887 229.623 125.189 228.084 125.189Z" fill="white"/>
<path d="M254.006 125.189H235.423C233.766 125.189 232.464 123.887 232.464 122.23C232.464 120.573 233.766 119.271 235.423 119.271H254.006C255.663 119.271 256.965 120.573 256.965 122.23C256.846 123.887 255.544 125.189 254.006 125.189Z" fill="white"/>
<path d="M202.163 135.723H183.58C181.923 135.723 180.621 134.421 180.621 132.764C180.621 131.107 181.923 129.805 183.58 129.805H202.163C203.82 129.805 205.122 131.107 205.122 132.764C205.004 134.421 203.702 135.723 202.163 135.723Z" fill="white"/>
<path d="M228.084 135.723H209.502C207.844 135.723 206.542 134.421 206.542 132.764C206.542 131.107 207.844 129.805 209.502 129.805H228.084C229.741 129.805 231.043 131.107 231.043 132.764C230.925 134.421 229.623 135.723 228.084 135.723Z" fill="white"/>
<path d="M254.006 135.723H235.423C233.766 135.723 232.464 134.421 232.464 132.764C232.464 131.107 233.766 129.805 235.423 129.805H254.006C255.663 129.805 256.965 131.107 256.965 132.764C256.846 134.421 255.544 135.723 254.006 135.723Z" fill="white"/>
<path d="M202.163 146.139H183.58C181.923 146.139 180.621 144.837 180.621 143.18C180.621 141.523 181.923 140.221 183.58 140.221H202.163C203.82 140.221 205.122 141.523 205.122 143.18C205.004 144.837 203.702 146.139 202.163 146.139Z" fill="white"/>
<path d="M228.084 146.139H209.502C207.844 146.139 206.542 144.837 206.542 143.18C206.542 141.523 207.844 140.221 209.502 140.221H228.084C229.741 140.221 231.043 141.523 231.043 143.18C230.925 144.837 229.623 146.139 228.084 146.139Z" fill="white"/>
<path d="M254.006 146.139H235.423C233.766 146.139 232.464 144.837 232.464 143.18C232.464 141.523 233.766 140.221 235.423 140.221H254.006C255.663 140.221 256.965 141.523 256.965 143.18C256.846 144.837 255.544 146.139 254.006 146.139Z" fill="white"/>
<path d="M132.017 91.0359C98.7575 105.476 81.595 87.7218 50.1108 91.1543C48.217 91.391 46.915 89.2605 46.915 87.4851V36.1161C46.915 33.8672 48.9272 31.6183 50.9393 32.4469C81.9501 43.8096 102.782 29.0144 131.189 32.5652C133.437 32.8019 135.331 33.9856 135.331 36.2344V87.3667C135.45 89.2605 133.793 90.3258 132.017 91.0359Z" fill="#9BD6C4"/>
<path d="M135.805 97.7825C102.545 112.223 85.3826 94.4684 53.8984 97.9009C52.0046 98.1376 50.7026 96.0071 50.7026 94.2317V42.8626C50.7026 40.6138 52.7148 38.3649 54.7269 39.1934C85.7377 50.5562 106.569 35.7609 134.976 39.3118C137.225 39.5485 139.119 40.7321 139.119 42.981V94.1133C139.237 96.0071 137.58 97.0723 135.805 97.7825Z" fill="#43C59E"/>
<path d="M96.745 54.5805H58.6325C57.9224 54.5805 57.3306 53.9887 57.3306 53.2785C57.3306 52.5684 57.9224 51.9766 58.6325 51.9766H96.8634C97.5736 51.9766 98.1654 52.5684 98.1654 53.2785C98.1654 53.9887 97.4552 54.5805 96.745 54.5805Z" fill="white"/>
<path d="M131.307 54.5805H106.332C105.622 54.5805 105.031 53.9887 105.031 53.2785C105.031 52.5684 105.622 51.9766 106.332 51.9766H131.307C132.017 51.9766 132.609 52.5684 132.609 53.2785C132.609 53.9887 132.017 54.5805 131.307 54.5805Z" fill="white"/>
<path d="M93.0761 59.6699H131.307C132.017 59.6699 132.609 59.0781 132.609 58.3679C132.609 57.6577 132.017 57.0659 131.307 57.0659H93.0761C92.366 57.0659 91.7742 57.6577 91.7742 58.3679C91.7742 59.0781 92.366 59.6699 93.0761 59.6699Z" fill="white"/>
<path d="M58.6328 59.6699H83.6072C84.3174 59.6699 84.9092 59.0781 84.9092 58.3679C84.9092 57.6577 84.3174 57.0659 83.6072 57.0659H58.6328C57.9227 57.0659 57.3309 57.6577 57.3309 58.3679C57.2125 59.0781 57.9227 59.6699 58.6328 59.6699Z" fill="white"/>
<path d="M96.7453 64.7595H58.6328C57.9226 64.7595 57.3308 64.1677 57.3308 63.4575C57.3308 62.7473 57.9226 62.1555 58.6328 62.1555H96.8636C97.5738 62.1555 98.1656 62.7473 98.1656 63.4575C98.1656 64.1677 97.4554 64.7595 96.7453 64.7595Z" fill="white"/>
<path d="M131.307 64.7595H106.332C105.622 64.7595 105.031 64.1677 105.031 63.4575C105.031 62.7473 105.622 62.1555 106.332 62.1555H131.307C132.017 62.1555 132.609 62.7473 132.609 63.4575C132.609 64.1677 132.017 64.7595 131.307 64.7595Z" fill="white"/>
<path d="M93.0761 69.8491H131.307C132.017 69.8491 132.609 69.2573 132.609 68.5471C132.609 67.8369 132.017 67.2451 131.307 67.2451H93.0761C92.366 67.2451 91.7742 67.8369 91.7742 68.5471C91.7742 69.2573 92.366 69.8491 93.0761 69.8491Z" fill="white"/>
<path d="M58.6328 69.8491H83.6072C84.3174 69.8491 84.9092 69.2573 84.9092 68.5471C84.9092 67.8369 84.3174 67.2451 83.6072 67.2451H58.6328C57.9227 67.2451 57.3309 67.8369 57.3309 68.5471C57.2125 69.2573 57.9227 69.8491 58.6328 69.8491Z" fill="white"/>
<path d="M96.7453 75.0571H58.6328C57.9226 75.0571 57.3308 74.4653 57.3308 73.7551C57.3308 73.0449 57.9226 72.4531 58.6328 72.4531H96.8636C97.5738 72.4531 98.1656 73.0449 98.1656 73.7551C98.1656 74.3469 97.4554 75.0571 96.7453 75.0571Z" fill="white"/>
<path d="M131.307 75.0571H106.332C105.622 75.0571 105.031 74.4653 105.031 73.7551C105.031 73.0449 105.622 72.4531 106.332 72.4531H131.307C132.017 72.4531 132.609 73.0449 132.609 73.7551C132.609 74.3469 132.017 75.0571 131.307 75.0571Z" fill="white"/>
<path d="M93.0761 80.1467H131.307C132.017 80.1467 132.609 79.5549 132.609 78.8447C132.609 78.1345 132.017 77.5427 131.307 77.5427H93.0761C92.366 77.5427 91.7742 78.1345 91.7742 78.8447C91.7742 79.5549 92.366 80.1467 93.0761 80.1467Z" fill="white"/>
<path d="M58.6328 80.1467H83.6072C84.3174 80.1467 84.9092 79.5549 84.9092 78.8447C84.9092 78.1345 84.3174 77.5427 83.6072 77.5427H58.6328C57.9227 77.5427 57.3309 78.1345 57.3309 78.8447C57.2125 79.5549 57.9227 80.1467 58.6328 80.1467Z" fill="white"/>
<path d="M96.7453 85.2363H58.6328C57.9226 85.2363 57.3308 84.6445 57.3308 83.9343C57.3308 83.2241 57.9226 82.6323 58.6328 82.6323H96.8636C97.5738 82.6323 98.1656 83.2241 98.1656 83.9343C98.1656 84.6445 97.4554 85.2363 96.7453 85.2363Z" fill="white"/>
<path d="M131.307 85.2363H106.332C105.622 85.2363 105.031 84.6445 105.031 83.9343C105.031 83.2241 105.622 82.6323 106.332 82.6323H131.307C132.017 82.6323 132.609 83.2241 132.609 83.9343C132.609 84.6445 132.017 85.2363 131.307 85.2363Z" fill="white"/>
<path d="M93.0761 90.3256H131.307C132.017 90.3256 132.609 89.7338 132.609 89.0236C132.609 88.3135 132.017 87.7217 131.307 87.7217H93.0761C92.366 87.7217 91.7742 88.3135 91.7742 89.0236C91.7742 89.7338 92.366 90.3256 93.0761 90.3256Z" fill="white"/>
<path d="M58.6328 90.3256H83.6072C84.3174 90.3256 84.9092 89.7338 84.9092 89.0236C84.9092 88.3135 84.3174 87.7217 83.6072 87.7217H58.6328C57.9227 87.7217 57.3309 88.3135 57.3309 89.0236C57.2125 89.7338 57.9227 90.3256 58.6328 90.3256Z" fill="white"/>
<path d="M364.764 98.6288C332.451 103.482 310.909 91.2904 276.111 98.6288C274.335 98.9839 272.915 96.735 272.915 94.9596V52.4677C272.915 50.2188 274.927 48.4434 277.176 48.7985C310.672 53.6513 325.704 42.8804 363.462 48.9169C365.711 49.2719 367.841 50.3372 367.841 52.5861V94.8412C367.96 96.735 366.539 98.2737 364.764 98.6288Z" fill="#9BD6C4"/>
<path d="M368.906 94.6044C336.594 99.4572 315.052 87.266 280.253 94.6044C278.478 94.9595 277.058 92.7106 277.058 90.9352V48.4433C277.058 46.1944 279.07 44.419 281.319 44.7741C314.815 49.6269 329.847 38.856 367.604 44.8924C369.853 45.2475 371.984 46.3128 371.984 48.5617V90.8168C372.102 92.7106 370.8 94.3677 368.906 94.6044Z" fill="#43C59E"/>
<path d="M289.722 58.2675C290.834 58.2675 291.734 57.3666 291.734 56.2553C291.734 55.144 290.834 54.2432 289.722 54.2432C288.611 54.2432 287.71 55.144 287.71 56.2553C287.71 57.3666 288.611 58.2675 289.722 58.2675Z" fill="white"/>
<path d="M306.056 58.2675H298.126C297.061 58.2675 296.114 57.3206 296.114 56.2553C296.114 55.1901 297.061 54.2432 298.126 54.2432H306.056C307.122 54.2432 308.069 55.1901 308.069 56.2553C308.069 57.3206 307.122 58.2675 306.056 58.2675Z" fill="white"/>
<path d="M359.556 58.2675H351.626C350.56 58.2675 349.614 57.3206 349.614 56.2553C349.614 55.1901 350.56 54.2432 351.626 54.2432H359.556C360.621 54.2432 361.568 55.1901 361.568 56.2553C361.568 57.3206 360.621 58.2675 359.556 58.2675Z" fill="white"/>
<path d="M342.748 58.2675H315.289C314.223 58.2675 313.276 57.3206 313.276 56.2553C313.276 55.1901 314.223 54.2432 315.289 54.2432H342.748C343.814 54.2432 344.761 55.1901 344.761 56.2553C344.761 57.3206 343.932 58.2675 342.748 58.2675Z" fill="white"/>
<path d="M289.722 64.7775C290.834 64.7775 291.734 63.8766 291.734 62.7653C291.734 61.6541 290.834 60.7532 289.722 60.7532C288.611 60.7532 287.71 61.6541 287.71 62.7653C287.71 63.8766 288.611 64.7775 289.722 64.7775Z" fill="white"/>
<path d="M306.056 64.7775H298.126C297.061 64.7775 296.114 63.8306 296.114 62.7653C296.114 61.7001 297.061 60.7532 298.126 60.7532H306.056C307.122 60.7532 308.069 61.7001 308.069 62.7653C307.95 63.949 307.122 64.7775 306.056 64.7775Z" fill="white"/>
<path d="M359.556 64.7775H351.626C350.56 64.7775 349.614 63.8306 349.614 62.7653C349.614 61.7001 350.56 60.7532 351.626 60.7532H359.556C360.621 60.7532 361.568 61.7001 361.568 62.7653C361.45 63.949 360.621 64.7775 359.556 64.7775Z" fill="white"/>
<path d="M342.748 64.7775H315.289C314.223 64.7775 313.276 63.8306 313.276 62.7653C313.276 61.7001 314.223 60.7532 315.289 60.7532H342.748C343.814 60.7532 344.761 61.7001 344.761 62.7653C344.761 63.949 343.932 64.7775 342.748 64.7775Z" fill="white"/>
<path d="M289.722 71.4056C290.834 71.4056 291.734 70.5048 291.734 69.3935C291.734 68.2822 290.834 67.3813 289.722 67.3813C288.611 67.3813 287.71 68.2822 287.71 69.3935C287.71 70.5048 288.611 71.4056 289.722 71.4056Z" fill="white"/>
<path d="M306.056 71.4056H298.126C297.061 71.4056 296.114 70.4588 296.114 69.3935C296.114 68.3282 297.061 67.3813 298.126 67.3813H306.056C307.122 67.3813 308.069 68.3282 308.069 69.3935C307.95 70.4588 307.122 71.4056 306.056 71.4056Z" fill="white"/>
<path d="M359.556 71.4056H351.626C350.56 71.4056 349.614 70.4588 349.614 69.3935C349.614 68.3282 350.56 67.3813 351.626 67.3813H359.556C360.621 67.3813 361.568 68.3282 361.568 69.3935C361.45 70.4588 360.621 71.4056 359.556 71.4056Z" fill="white"/>
<path d="M342.748 71.4056H315.289C314.223 71.4056 313.276 70.4588 313.276 69.3935C313.276 68.3282 314.223 67.3813 315.289 67.3813H342.748C343.814 67.3813 344.761 68.3282 344.761 69.3935C344.761 70.4588 343.932 71.4056 342.748 71.4056Z" fill="white"/>
<path d="M289.722 77.9154C290.834 77.9154 291.734 77.0145 291.734 75.9033C291.734 74.792 290.834 73.8911 289.722 73.8911C288.611 73.8911 287.71 74.792 287.71 75.9033C287.71 77.0145 288.611 77.9154 289.722 77.9154Z" fill="white"/>
<path d="M306.056 77.9154H298.126C297.061 77.9154 296.114 76.9685 296.114 75.9033C296.114 74.838 297.061 73.8911 298.126 73.8911H306.056C307.122 73.8911 308.069 74.838 308.069 75.9033C307.95 76.9685 307.122 77.9154 306.056 77.9154Z" fill="white"/>
<path d="M359.556 77.9154H351.626C350.56 77.9154 349.614 76.9685 349.614 75.9033C349.614 74.838 350.56 73.8911 351.626 73.8911H359.556C360.621 73.8911 361.568 74.838 361.568 75.9033C361.45 76.9685 360.621 77.9154 359.556 77.9154Z" fill="white"/>
<path d="M342.748 77.9154H315.289C314.223 77.9154 313.276 76.9685 313.276 75.9033C313.276 74.838 314.223 73.8911 315.289 73.8911H342.748C343.814 73.8911 344.761 74.838 344.761 75.9033C344.761 76.9685 343.932 77.9154 342.748 77.9154Z" fill="white"/>
<path d="M289.722 84.4254C290.834 84.4254 291.734 83.5245 291.734 82.4133C291.734 81.302 290.834 80.4011 289.722 80.4011C288.611 80.4011 287.71 81.302 287.71 82.4133C287.71 83.5245 288.611 84.4254 289.722 84.4254Z" fill="white"/>
<path d="M306.056 84.4254H298.126C297.061 84.4254 296.114 83.4785 296.114 82.4133C296.114 81.348 297.061 80.4011 298.126 80.4011H306.056C307.122 80.4011 308.069 81.348 308.069 82.4133C307.95 83.5969 307.122 84.4254 306.056 84.4254Z" fill="white"/>
<path d="M359.556 84.4254H351.626C350.56 84.4254 349.614 83.4785 349.614 82.4133C349.614 81.348 350.56 80.4011 351.626 80.4011H359.556C360.621 80.4011 361.568 81.348 361.568 82.4133C361.45 83.5969 360.621 84.4254 359.556 84.4254Z" fill="white"/>
<path d="M342.748 84.4254H315.289C314.223 84.4254 313.276 83.4785 313.276 82.4133C313.276 81.348 314.223 80.4011 315.289 80.4011H342.748C343.814 80.4011 344.761 81.348 344.761 82.4133C344.761 83.5969 343.932 84.4254 342.748 84.4254Z" fill="white"/>
<path d="M388.894 177.296C354.806 173.982 334.329 175.402 303.082 177.414C300.951 177.533 299.058 175.876 299.058 173.627V134.449C299.058 132.2 301.07 130.425 303.2 130.78C336.342 134.804 359.067 136.461 388.539 131.135C390.788 130.661 392.919 132.437 392.919 134.804V173.508C393.037 175.757 391.025 177.533 388.894 177.296Z" fill="#9DC4F2"/>
<path d="M384.752 172.562C350.663 169.247 330.187 170.668 298.939 172.68C296.809 172.798 294.915 171.141 294.915 168.892V129.715C294.915 127.466 296.927 125.69 299.058 126.045C332.199 130.07 354.924 131.727 384.397 126.4C386.645 125.927 388.776 127.702 388.776 130.07V168.774C388.776 171.023 386.882 172.798 384.752 172.562Z" fill="#0075FF"/>
<path d="M316.22 142.616H305.094C304.147 142.616 303.319 141.788 303.319 140.841C303.319 139.894 304.147 139.065 305.094 139.065H316.22C317.167 139.065 317.996 139.894 317.996 140.841C318.114 141.788 317.286 142.616 316.22 142.616Z" fill="white"/>
<path d="M337.052 142.616H325.926C324.979 142.616 324.151 141.788 324.151 140.841C324.151 139.894 324.979 139.065 325.926 139.065H337.052C337.999 139.065 338.827 139.894 338.827 140.841C338.827 141.788 337.999 142.616 337.052 142.616Z" fill="white"/>
<path d="M357.765 142.616H346.639C345.692 142.616 344.864 141.788 344.864 140.841C344.864 139.894 345.692 139.065 346.639 139.065H357.765C358.712 139.065 359.541 139.894 359.541 140.841C359.659 141.788 358.83 142.616 357.765 142.616Z" fill="white"/>
<path d="M378.597 142.616H367.471C366.524 142.616 365.696 141.788 365.696 140.841C365.696 139.894 366.524 139.065 367.471 139.065H378.597C379.544 139.065 380.372 139.894 380.372 140.841C380.372 141.788 379.544 142.616 378.597 142.616Z" fill="white"/>
<path d="M316.22 151.256H305.094C304.147 151.256 303.319 150.428 303.319 149.481C303.319 148.534 304.147 147.706 305.094 147.706H316.22C317.167 147.706 317.996 148.534 317.996 149.481C318.114 150.428 317.286 151.256 316.22 151.256Z" fill="white"/>
<path d="M337.052 151.256H325.926C324.979 151.256 324.151 150.428 324.151 149.481C324.151 148.534 324.979 147.706 325.926 147.706H337.052C337.999 147.706 338.827 148.534 338.827 149.481C338.827 150.428 337.999 151.256 337.052 151.256Z" fill="white"/>
<path d="M357.765 151.256H346.639C345.692 151.256 344.864 150.428 344.864 149.481C344.864 148.534 345.692 147.706 346.639 147.706H357.765C358.712 147.706 359.541 148.534 359.541 149.481C359.659 150.428 358.83 151.256 357.765 151.256Z" fill="white"/>
<path d="M378.597 151.256H367.471C366.524 151.256 365.696 150.428 365.696 149.481C365.696 148.534 366.524 147.706 367.471 147.706H378.597C379.544 147.706 380.372 148.534 380.372 149.481C380.372 150.428 379.544 151.256 378.597 151.256Z" fill="white"/>
<path d="M316.22 159.778H305.094C304.147 159.778 303.319 158.95 303.319 158.003C303.319 157.056 304.147 156.228 305.094 156.228H316.22C317.167 156.228 317.996 157.056 317.996 158.003C318.114 158.95 317.286 159.778 316.22 159.778Z" fill="white"/>
<path d="M337.052 159.778H325.926C324.979 159.778 324.151 158.95 324.151 158.003C324.151 157.056 324.979 156.228 325.926 156.228H337.052C337.999 156.228 338.827 157.056 338.827 158.003C338.827 158.95 337.999 159.778 337.052 159.778Z" fill="white"/>
<path d="M357.765 159.778H346.639C345.692 159.778 344.864 158.95 344.864 158.003C344.864 157.056 345.692 156.228 346.639 156.228H357.765C358.712 156.228 359.541 157.056 359.541 158.003C359.659 158.95 358.83 159.778 357.765 159.778Z" fill="white"/>
<path d="M378.597 159.778H367.471C366.524 159.778 365.696 158.95 365.696 158.003C365.696 157.056 366.524 156.228 367.471 156.228H378.597C379.544 156.228 380.372 157.056 380.372 158.003C380.372 158.95 379.544 159.778 378.597 159.778Z" fill="white"/>
<path d="M89.8366 138.562C51.9608 157.026 35.2718 136.668 4.0243 138.68C1.89379 138.798 0 137.141 0 134.892V95.7146C0 93.4657 2.01215 91.6903 4.14266 92.0454C37.284 96.0697 57.5238 109.445 89.4815 92.4005C91.4936 91.3352 93.8609 93.7025 93.8609 96.0697V134.774C93.9792 137.023 91.8487 137.615 89.8366 138.562Z" fill="#9DC4F2"/>
<path d="M93.6242 144.125C55.7484 162.589 39.0594 142.231 7.8119 144.243C5.68139 144.361 3.7876 142.704 3.7876 140.455V101.278C3.7876 99.0287 5.79975 97.2533 7.93026 97.6084C41.0716 101.633 61.3114 115.008 93.2691 97.9635C95.2812 96.8982 97.6485 99.2654 97.6485 101.633V140.337C97.7668 142.704 95.6363 143.178 93.6242 144.125Z" fill="#0075FF"/>
<path d="M31.4841 119.387H11.8361C10.6525 119.387 9.70557 118.44 9.70557 117.256C9.70557 116.073 10.6525 115.126 11.8361 115.126H31.4841C32.6678 115.126 33.6146 116.073 33.6146 117.256C33.6146 118.44 32.6678 119.387 31.4841 119.387Z" fill="white"/>
<path d="M75.7513 119.387H40.2428C39.0592 119.387 38.1123 118.44 38.1123 117.256C38.1123 116.073 39.0592 115.126 40.2428 115.126H75.7513C76.935 115.126 77.8819 116.073 77.8819 117.256C77.8819 118.44 76.935 119.387 75.7513 119.387Z" fill="white"/>
<path d="M89.718 119.387H83.7999C82.6163 119.387 81.6694 118.44 81.6694 117.256C81.6694 116.073 82.6163 115.126 83.7999 115.126H89.718C90.9017 115.126 91.8486 116.073 91.8486 117.256C91.8486 118.44 90.9017 119.387 89.718 119.387Z" fill="white"/>
<path d="M70.0702 126.962H89.7183C90.9019 126.962 91.8488 126.015 91.8488 124.832C91.8488 123.648 90.9019 122.701 89.7183 122.701H70.0702C68.8866 122.701 67.9397 123.648 67.9397 124.832C68.0581 126.015 68.8866 126.962 70.0702 126.962Z" fill="white"/>
<path d="M25.8029 126.962H61.3114C62.495 126.962 63.4419 126.015 63.4419 124.832C63.4419 123.648 62.495 122.701 61.3114 122.701H25.8029C24.6193 122.701 23.6724 123.648 23.6724 124.832C23.7907 126.015 24.7376 126.962 25.8029 126.962Z" fill="white"/>
<path d="M11.8361 126.962H17.7542C18.9378 126.962 19.8847 126.015 19.8847 124.832C19.8847 123.648 18.9378 122.701 17.7542 122.701H11.8361C10.6525 122.701 9.70557 123.648 9.70557 124.832C9.70557 126.015 10.6525 126.962 11.8361 126.962Z" fill="white"/>
<path d="M31.4841 134.537H11.8361C10.6525 134.537 9.70557 133.591 9.70557 132.407C9.70557 131.223 10.6525 130.276 11.8361 130.276H31.4841C32.6678 130.276 33.6146 131.223 33.6146 132.407C33.6146 133.591 32.6678 134.537 31.4841 134.537Z" fill="white"/>
<path d="M75.7513 134.537H40.2428C39.0592 134.537 38.1123 133.591 38.1123 132.407C38.1123 131.223 39.0592 130.276 40.2428 130.276H75.7513C76.935 130.276 77.8819 131.223 77.8819 132.407C77.8819 133.591 76.935 134.537 75.7513 134.537Z" fill="white"/>
<path d="M89.718 134.537H83.7999C82.6163 134.537 81.6694 133.591 81.6694 132.407C81.6694 131.223 82.6163 130.276 83.7999 130.276H89.718C90.9017 130.276 91.8486 131.223 91.8486 132.407C91.8486 133.591 90.9017 134.537 89.718 134.537Z" fill="white"/>
<path d="M167.01 253.138C57.7619 253.138 56.9334 230.058 167.01 230.058C276.139 230.058 277.086 253.138 167.01 253.138Z" fill="#DCDCDC"/>
<path d="M169.732 196.916C192.694 204.137 182.279 233.372 160.382 230.768C148.19 229.348 88.7727 208.279 82.3812 199.402C80.1323 196.325 79.7772 191.945 81.7894 188.749C84.7484 183.897 89.6013 184.844 94.2174 185.554C94.9276 185.79 151.268 190.998 169.732 196.916Z" fill="#263238"/>
<path d="M163.104 231.123C162.275 231.123 161.329 231.123 160.382 231.005C147.717 229.584 88.5361 208.397 82.2629 199.52C79.8957 196.325 79.659 191.827 81.6711 188.631C84.6302 183.897 89.2463 184.607 93.8624 185.317L94.3358 185.435C94.3358 185.435 94.9276 185.554 95.7562 185.554C117.18 187.684 155.292 192.064 169.969 196.68C181.568 200.349 184.054 209.344 182.752 215.973C180.977 223.666 173.638 231.123 163.104 231.123ZM89.0096 185.317C86.2872 185.317 83.8016 186.027 82.1446 188.986C80.2508 192.064 80.4875 196.325 82.7364 199.402C89.0095 208.161 147.954 229.111 160.618 230.649C172.336 232.07 180.503 224.14 182.279 215.973C183.699 209.226 181.213 200.822 169.851 197.271C155.174 192.655 117.061 188.394 95.7562 186.145C94.8093 186.027 94.4542 186.027 94.3358 186.027L93.8624 185.909C92.0869 185.554 90.5483 185.317 89.0096 185.317Z" fill="#463C3A"/>
<path d="M164.288 195.496C141.325 202.716 151.741 231.952 173.638 229.348C185.829 227.927 245.247 206.859 251.639 197.982C253.887 194.904 254.243 190.525 252.23 187.329C249.271 182.476 244.419 183.423 239.802 184.134C239.211 184.37 182.87 189.697 164.288 195.496Z" fill="#263238"/>
<path d="M171.034 229.821C160.5 229.821 153.162 222.364 151.504 214.552C150.084 207.924 152.57 198.929 164.288 195.259C179.083 190.643 217.077 186.264 238.5 184.133C239.329 184.015 239.802 184.015 239.921 184.015L240.394 183.897C244.892 183.187 249.626 182.476 252.585 187.211C254.479 190.407 254.242 194.904 251.994 198.1C245.72 206.859 186.421 228.046 173.875 229.584C172.81 229.703 171.863 229.821 171.034 229.821ZM164.288 195.496L164.406 195.733C153.043 199.284 150.558 207.806 151.978 214.434C153.753 222.601 161.92 230.531 173.638 229.111C186.184 227.691 245.247 206.622 251.52 197.863C253.769 194.786 254.006 190.525 252.112 187.448C249.39 182.95 244.774 183.66 240.394 184.37L239.921 184.489C239.802 184.489 239.447 184.489 238.5 184.607C217.077 186.737 179.083 191.117 164.406 195.733L164.288 195.496Z" fill="#463C3A"/>
<path d="M201.572 223.548C174.112 230.65 158.014 230.768 131.383 223.548C133.395 201.651 133.277 187.803 138.84 167.445L193.523 169.93C199.915 190.525 200.033 203.071 201.572 223.548Z" fill="#263238"/>
<path d="M166.063 229.111C155.292 229.111 144.64 227.335 131.265 223.666H131.028V223.43C131.502 218.34 131.857 213.724 132.212 209.345C133.395 194.549 134.224 182.95 138.485 167.326V167.089H138.722L193.523 169.575V169.693C199.086 187.566 199.915 199.284 201.098 215.499C201.335 217.985 201.453 220.707 201.69 223.43V223.666H201.453C187.723 227.335 176.834 229.111 166.063 229.111ZM131.62 223.311C158.015 230.413 173.757 230.413 201.335 223.311C201.098 220.589 200.98 217.985 200.743 215.499C199.56 199.402 198.849 187.803 193.286 170.048L138.958 167.563C134.816 183.068 133.869 194.668 132.804 209.345C132.448 213.724 132.093 218.34 131.62 223.311Z" fill="#463C3A"/>
<path d="M169.851 206.859C169.732 206.859 169.614 206.74 169.614 206.622C167.365 193.602 164.761 178.807 167.957 164.959C167.957 164.84 168.075 164.722 168.194 164.722C168.312 164.722 168.43 164.84 168.43 164.959C165.234 178.689 167.838 193.365 170.087 206.385C170.087 206.622 169.969 206.74 169.851 206.859Z" fill="#323D4E"/>
<path d="M167.72 194.076H167.602C159.553 187.329 159.79 185.08 161.92 163.657C161.92 163.538 162.039 163.42 162.157 163.42C162.275 163.42 162.394 163.538 162.394 163.657C160.263 184.843 160.026 187.092 167.838 193.721C167.957 193.839 167.957 193.957 167.838 194.076C167.957 194.076 167.838 194.076 167.72 194.076Z" fill="#323D4E"/>
<path d="M135.052 184.843C134.934 184.843 134.815 184.725 134.815 184.725C134.815 184.607 134.815 184.488 134.934 184.37C142.746 181.766 144.403 181.174 148.19 164.959C148.19 164.84 148.309 164.722 148.427 164.722C148.545 164.722 148.664 164.84 148.664 164.959C144.876 181.529 143.219 182.121 135.052 184.843C135.171 184.843 135.052 184.843 135.052 184.843Z" fill="#323D4E"/>
<path d="M135.052 184.843C134.934 184.843 134.815 184.725 134.815 184.725C134.815 184.607 134.815 184.488 134.934 184.37C142.746 181.766 144.403 181.174 148.19 164.959C148.19 164.84 148.309 164.722 148.427 164.722C148.545 164.722 148.664 164.84 148.664 164.959C144.876 181.529 143.219 182.121 135.052 184.843C135.171 184.843 135.052 184.843 135.052 184.843Z" fill="#323D4E"/>
<path d="M197.429 185.317L197.074 185.199C189.262 182.595 187.723 182.003 183.817 165.787C183.817 165.669 183.817 165.551 184.054 165.551C184.172 165.551 184.291 165.551 184.291 165.787C188.078 181.766 189.499 182.24 197.192 184.844L197.547 184.962C197.665 184.962 197.784 185.199 197.665 185.317C197.665 185.199 197.547 185.317 197.429 185.317Z" fill="#323D4E"/>
<path d="M178.373 227.572C177.308 231.833 177.544 236.331 178.846 240.592C162.276 241.539 124.755 249.587 123.69 243.078C123.453 241.776 123.216 242.249 151.741 227.454C156.594 224.968 159.317 226.27 159.908 231.123C160.263 232.898 176.716 228.164 178.373 227.572Z" fill="#FFFFF6"/>
<path d="M132.212 245.8C127.24 245.8 123.926 245.09 123.571 243.078C123.334 241.894 123.335 241.894 136.354 235.147C140.26 233.135 145.231 230.531 151.741 227.099C154.227 225.797 156.239 225.442 157.778 226.27C159.08 226.98 160.027 228.519 160.382 231.005C160.382 231.005 160.382 231.005 160.5 231.123C162.039 232.07 176.005 228.164 178.491 227.335L178.846 227.217L178.728 227.691C177.663 231.952 177.899 236.331 179.201 240.592L179.32 240.829H178.965C173.875 241.065 166.892 242.131 159.553 243.078C149.374 244.38 139.195 245.8 132.212 245.8ZM155.884 226.389C154.819 226.389 153.398 226.744 151.86 227.572C145.35 231.005 140.379 233.609 136.473 235.621C124.045 242.012 123.808 242.249 123.926 242.959C124.636 247.22 143.101 244.735 159.316 242.486C166.537 241.539 173.402 240.592 178.491 240.237C177.189 236.213 177.071 231.952 177.899 227.809C175.177 228.637 161.684 232.543 159.908 231.478C159.672 231.36 159.672 231.241 159.672 231.123C159.316 228.874 158.606 227.335 157.304 226.744C157.068 226.507 156.476 226.389 155.884 226.389Z" fill="#EDE3D7"/>
<path d="M135.763 243.432C135.644 243.432 135.526 243.314 135.526 243.196C135.526 243.077 135.644 242.959 135.763 242.959C142.983 242.959 150.321 242.13 157.423 240.592C157.541 240.592 157.66 240.592 157.66 240.828C157.66 240.947 157.66 241.065 157.423 241.065C150.439 242.604 143.101 243.432 135.763 243.432Z" fill="#EDE3D7"/>
<path d="M253.532 218.222C276.613 207.687 261.936 178.452 239.447 184.015C226.901 187.092 167.483 216.683 161.92 226.862C160.027 230.295 160.145 234.911 162.631 238.106C166.3 242.723 171.271 241.184 176.005 239.882C176.716 239.527 234.95 226.744 253.532 218.222Z" fill="black"/>
<path d="M169.022 241.42C166.655 241.42 164.406 240.592 162.512 238.225C160.026 235.147 159.79 230.413 161.802 226.744C167.247 216.683 226.427 186.974 239.447 183.778C251.757 180.819 261.581 188.158 264.54 196.68C266.907 203.426 265.487 213.132 253.769 218.458C238.974 225.205 199.678 234.674 177.662 239.645C176.834 239.882 176.242 240 176.242 240L175.769 240.119C173.401 240.71 171.152 241.42 169.022 241.42ZM244.892 183.66C243.116 183.66 241.341 183.897 239.447 184.37C226.546 187.566 167.602 217.156 162.157 227.099C160.263 230.65 160.5 235.147 162.867 237.988C166.3 242.367 171.034 241.065 175.532 239.763L176.005 239.645C176.124 239.645 176.479 239.527 177.426 239.29C199.441 234.319 238.737 224.85 253.532 218.103L253.651 218.34L253.532 218.103C264.895 212.895 266.434 203.781 264.066 196.916C261.581 189.815 254.361 183.66 244.892 183.66Z" fill="#DCDCDC"/>
<path d="M157.422 226.862C158.488 231.123 158.251 235.621 156.949 239.882C173.52 240.711 211.159 248.641 212.106 242.131C212.342 240.829 212.579 241.302 184.054 226.626C179.201 224.14 176.479 225.442 175.887 230.413C175.532 232.189 159.198 227.454 157.422 226.862Z" fill="#FFFFF6"/>
<path d="M203.465 244.853C196.482 244.853 186.421 243.551 176.479 242.249C169.022 241.302 162.039 240.355 156.949 240.119H156.594L156.712 239.763C158.014 235.621 158.251 231.123 157.186 226.862L157.067 226.389L157.423 226.507C159.908 227.336 173.875 231.241 175.414 230.176C175.414 230.176 175.414 230.176 175.532 230.058C175.887 227.572 176.715 226.034 178.136 225.323C179.556 224.613 181.568 224.85 184.172 226.152C190.682 229.584 195.772 232.07 199.559 234.082C212.579 240.71 212.579 240.71 212.342 241.894C212.106 244.143 208.673 244.853 203.465 244.853ZM157.304 239.645C162.394 239.882 169.259 240.829 176.479 241.776C192.813 243.906 211.277 246.392 211.869 242.131C211.987 241.302 211.751 241.184 199.323 234.792C195.417 232.78 190.445 230.295 183.936 226.862C181.568 225.678 179.675 225.323 178.373 226.034C177.189 226.625 176.36 228.164 176.124 230.413C176.124 230.531 176.005 230.65 175.887 230.768C174.112 231.833 160.618 228.046 157.896 227.217C158.725 231.36 158.488 235.621 157.304 239.645Z" fill="#EDE3D7"/>
<path d="M200.151 242.486C192.813 242.486 185.474 241.657 178.372 240.237C178.254 240.237 178.136 240.119 178.136 240C178.136 239.882 178.254 239.763 178.372 239.763C185.474 241.302 192.813 242.012 200.033 242.012C200.151 242.012 200.269 242.131 200.269 242.249C200.388 242.367 200.269 242.486 200.151 242.486Z" fill="#EDE3D7"/>
<path d="M82.3812 219.879C59.3007 209.463 73.8592 180.227 96.3479 185.554C108.894 188.513 168.43 217.985 173.993 228.046C175.887 231.478 175.769 236.094 173.283 239.29C169.614 243.906 164.643 242.367 159.908 241.065C159.316 240.947 100.964 228.282 82.3812 219.879Z" fill="black"/>
<path d="M166.892 242.722C164.761 242.722 162.512 242.131 160.382 241.539L159.908 241.42C159.908 241.42 159.316 241.302 158.488 241.065C136.354 236.094 97.0581 226.862 82.2629 220.115C70.5451 214.789 69.1248 205.083 71.3736 198.337C74.3327 189.815 84.0383 182.358 96.4663 185.317C109.486 188.394 168.785 217.985 174.23 227.927C176.242 231.596 176.005 236.331 173.52 239.408C171.508 241.894 169.259 242.722 166.892 242.722ZM90.9033 185.199C81.4344 185.199 74.2143 191.472 71.7287 198.455C69.3615 205.32 70.9002 214.434 82.3813 219.642C97.1765 226.27 136.473 235.621 158.488 240.474C159.435 240.71 159.908 240.829 159.908 240.829L160.382 240.947C164.879 242.249 169.496 243.551 173.046 239.172C175.414 236.213 175.65 231.715 173.757 228.282C168.312 218.34 109.249 188.986 96.2296 185.909C94.4542 185.317 92.6787 185.199 90.9033 185.199Z" fill="#DCDCDC"/>
<path d="M156.713 85.3013C156.831 93.4682 159.553 99.5047 144.521 106.606C153.517 118.916 162.276 123.414 162.276 123.414C162.276 123.414 181.095 114.892 187.605 109.329C184.291 106.843 180.74 105.068 177.663 102.819C171.508 98.5578 175.177 88.9705 173.993 85.4196L156.713 85.3013Z" fill="#F9A587"/>
<path d="M175.532 100.807C173.875 98.3211 173.757 95.5988 173.875 91.6929C165.945 97.2559 162.157 94.6519 157.186 91.1011C164.406 101.399 168.667 97.611 175.532 100.807Z" fill="#EA795C"/>
<path d="M171.508 94.0599C175.769 92.6396 182.752 80.2116 180.148 64.8246C177.544 49.3192 160.263 47.4254 153.398 57.9596C146.888 67.902 151.15 100.57 171.508 94.0599Z" fill="#F9A587"/>
<path d="M159.553 62.4575C162.394 61.8657 165.708 58.0781 168.785 59.9719C173.993 63.286 179.556 65.7716 179.793 80.3301C182.87 68.0205 182.16 70.8612 184.764 68.6123C188.907 65.0614 182.989 58.6699 182.042 55.4741C181.095 52.3967 181.923 48.3724 175.414 46.2419C173.401 45.5317 172.81 46.0052 171.389 46.3603C163.814 48.4908 155.529 37.7199 149.729 49.6744C148.427 52.2784 149.137 52.5151 149.492 54.5272C150.439 58.7883 146.297 62.5758 145.705 66.8369C145.468 68.7307 151.505 79.8567 151.505 79.8567C151.505 79.8567 151.505 74.7671 151.623 73.7019C153.517 61.0371 157.068 62.9309 159.553 62.4575Z" fill="#30323E"/>
<path d="M182.278 71.5715C179.319 70.8613 179.319 77.0161 179.438 80.0935C179.675 86.2483 186.895 72.7551 182.278 71.5715Z" fill="#F9A587"/>
<path d="M149.256 72.8733C152.215 71.9264 152.57 78.0813 152.806 81.1587C153.043 87.1951 144.639 74.412 149.256 72.8733Z" fill="#F9A587"/>
<path d="M169.14 69.2042C169.377 69.3226 176.834 69.9144 176.952 69.796C178.728 69.2042 172.336 66.6003 169.259 68.0206C168.785 68.2573 168.785 68.9675 169.14 69.2042Z" fill="#30323E"/>
<path d="M161.92 67.7839C158.725 66.4819 152.806 69.4409 154.345 69.9144C156.357 69.9144 164.761 68.9675 161.92 67.7839Z" fill="#30323E"/>
<path d="M165.708 81.6323C165.471 81.6323 165.234 81.6323 164.998 81.5139C163.933 81.1588 164.288 79.7385 164.643 77.9631C164.879 76.7795 165.116 75.4775 165.116 74.2939C165.116 74.1755 165.234 74.0571 165.353 74.0571C165.471 74.0571 165.59 74.1755 165.59 74.2939C165.708 75.5958 165.353 76.8978 165.116 78.0814C164.761 79.6201 164.524 80.9221 165.116 81.0405C165.59 81.2772 165.945 81.1588 166.3 81.0405C166.536 80.9221 166.892 80.8038 167.247 80.8038C167.365 80.8038 167.483 80.9221 167.483 81.0405C167.483 81.1588 167.365 81.2772 167.247 81.2772C166.892 81.2772 166.655 81.3956 166.418 81.3956C166.3 81.6323 166.063 81.6323 165.708 81.6323Z" fill="#EA795C"/>
<path d="M168.904 85.6565C169.14 85.5382 169.377 85.6565 169.377 85.8933C169.259 87.5503 168.075 89.4441 167.247 89.9176C164.761 91.3379 162.157 86.3667 163.932 86.3667C164.879 86.2484 167.01 86.7218 168.904 85.6565Z" fill="white"/>
<path d="M180.858 79.0281H180.74C180.622 78.9097 180.622 78.7914 180.622 78.673C181.45 77.371 181.568 75.714 181.095 74.412C181.095 74.2936 181.095 74.1752 181.213 74.0569C181.332 74.0569 181.45 74.0569 181.568 74.1753C182.16 75.714 181.924 77.4894 180.977 78.9097C180.977 78.9097 180.977 79.0281 180.858 79.0281Z" fill="#EA795C"/>
<path d="M151.268 80.0933C151.15 80.0933 151.15 80.0933 151.031 79.9749C149.966 78.7913 149.492 77.0159 149.729 75.3588C149.729 75.2404 149.848 75.1221 149.966 75.1221C150.084 75.1221 150.203 75.2404 150.203 75.3588C149.966 76.7791 150.439 78.4362 151.386 79.5015C151.505 79.6198 151.505 79.7382 151.386 79.8565C151.386 80.0933 151.268 80.0933 151.268 80.0933Z" fill="#EA795C"/>
<path d="M167.365 57.9597C167.247 57.9597 167.247 57.9597 167.365 57.9597C167.128 57.8413 167.128 57.7229 167.128 57.6046C168.312 55.119 168.785 51.9232 168.312 48.1356C168.312 48.0173 168.43 47.8989 168.549 47.8989C168.667 47.8989 168.785 48.0173 168.785 48.1356C169.259 52.0416 168.904 55.2373 167.602 57.8413C167.483 57.8413 167.365 57.9597 167.365 57.9597Z" fill="#353B4A"/>
<path d="M176.715 49.0828H176.597C173.875 46.9522 171.389 48.1359 170.206 49.0828C170.087 49.2011 169.969 49.0828 169.85 49.0828C169.732 48.9644 169.85 48.846 169.85 48.7277C172.099 47.0706 174.703 47.0706 176.834 48.7277C176.952 48.846 176.952 48.9644 176.834 49.0828C176.834 49.0828 176.834 49.0828 176.715 49.0828Z" fill="#353B4A"/>
<path d="M174.822 53.6986C173.993 53.6986 171.508 53.5802 170.087 52.1599C169.969 52.0415 169.969 51.9232 170.087 51.8048C170.206 51.6865 170.324 51.6865 170.442 51.8048C171.863 53.3435 174.94 53.2252 174.94 53.2252C175.058 53.2252 175.177 53.3435 175.177 53.4619C175.177 53.5803 175.058 53.6986 174.94 53.6986C175.058 53.6986 174.94 53.6986 174.822 53.6986Z" fill="#353B4A"/>
<path d="M175.058 62.3393H174.94C173.046 61.0373 172.454 59.7353 171.863 58.6701C171.271 57.4864 170.797 56.7763 169.14 56.4212C169.022 56.4212 168.904 56.3028 168.904 56.1845C168.904 56.0661 169.022 55.9478 169.14 55.9478C171.034 56.3028 171.508 57.2497 172.218 58.4333C172.691 59.3802 173.401 60.6822 175.177 61.8658C175.295 61.9842 175.295 62.1026 175.177 62.2209C175.177 62.3393 175.177 62.3393 175.058 62.3393Z" fill="#353B4A"/>
<path d="M165.826 48.3725C164.406 48.3725 162.867 47.899 161.565 47.4256C159.553 46.7154 157.778 46.1236 156.831 47.3072C156.712 47.4256 156.594 47.4256 156.476 47.3072C156.357 47.1888 156.357 47.0705 156.476 46.9521C157.778 45.5318 159.672 46.2419 161.802 46.9521C163.577 47.5439 165.59 48.2541 167.483 47.6623C167.602 47.6623 167.72 47.6623 167.838 47.7806C167.838 47.899 167.838 48.0174 167.72 48.1357C167.01 48.2541 166.418 48.3725 165.826 48.3725Z" fill="#353B4A"/>
<path d="M163.104 52.8701H162.986C162.867 52.7517 162.867 52.6334 162.867 52.515C163.814 51.0947 165.59 51.5681 166.891 52.0416C167.01 52.0416 167.128 52.2783 167.01 52.3967C167.01 52.515 166.773 52.6334 166.655 52.515C164.879 51.8048 163.696 51.9232 163.104 52.7517C163.222 52.7517 163.222 52.8701 163.104 52.8701Z" fill="#353B4A"/>
<path d="M158.961 60.0903C158.843 60.0903 158.843 60.0903 158.725 59.972C158.606 59.8536 158.725 59.7352 158.843 59.6169C160.5 58.4332 161.329 58.4333 162.039 58.3149C162.867 58.1965 163.696 58.1965 165.945 55.9477C166.063 55.8293 166.181 55.8293 166.3 55.9477C166.418 56.066 166.418 56.1844 166.3 56.3027C163.932 58.5516 162.986 58.67 162.157 58.7883C161.447 58.9067 160.737 58.9067 159.198 59.972C158.961 60.0903 158.961 60.0903 158.961 60.0903Z" fill="#353B4A"/>
<path d="M151.268 72.6367C151.149 72.6367 151.031 72.5184 151.031 72.5184C150.676 71.5715 149.847 70.8613 148.901 70.6246C148.782 70.6246 148.664 70.5062 148.664 70.3878C148.664 70.2695 148.782 70.1511 148.901 70.1511C150.084 70.3878 151.031 71.2164 151.386 72.2816C151.505 72.4 151.504 72.5183 151.268 72.6367Z" fill="#353B4A"/>
<path d="M179.556 71.453C179.438 71.453 179.32 71.3346 179.32 71.2162C179.438 69.9143 180.977 69.4408 181.687 69.2041C181.805 69.2041 181.924 69.2041 182.042 69.3225C182.042 69.4408 182.042 69.5592 181.924 69.6775C180.977 70.0326 180.03 70.3877 179.911 71.3346C179.793 71.3346 179.675 71.453 179.556 71.453Z" fill="#353B4A"/>
<path d="M149.137 64.7064C149.137 64.7064 149.019 64.7064 149.137 64.7064C148.901 64.7064 148.901 64.588 148.901 64.4696C149.256 62.8126 150.084 61.7473 150.676 60.9188C151.741 59.3801 152.688 58.3148 151.623 54.0538C151.268 52.5151 151.031 50.9764 152.688 49.5561C152.807 49.4377 152.925 49.4377 153.043 49.5561C153.162 49.6744 153.162 49.7928 153.043 49.9111C151.741 50.9764 151.741 52.16 152.096 53.9354C153.162 58.4332 152.215 59.7352 151.031 61.2739C150.439 62.1024 149.729 63.0493 149.374 64.588C149.256 64.7064 149.256 64.7064 149.137 64.7064Z" fill="#353B4A"/>
<path d="M184.054 65.7716C183.936 65.7716 183.936 65.7716 184.054 65.7716C183.817 65.6533 183.817 65.5349 183.817 65.4165C184.527 63.8778 184.172 61.984 183.107 60.8004C182.634 60.2086 182.16 59.8535 181.568 59.4985C180.266 58.5516 179.083 57.6047 179.201 54.5272C179.201 54.4089 179.319 54.2905 179.438 54.2905C179.556 54.2905 179.674 54.4089 179.674 54.5272C179.556 57.3679 180.503 58.0781 181.805 59.025C182.278 59.3801 182.87 59.8535 183.344 60.327C184.527 61.7473 184.882 63.7595 184.054 65.4165C184.172 65.6533 184.054 65.7716 184.054 65.7716Z" fill="#353B4A"/>
<path d="M158.133 76.3059C157.186 76.1875 156.713 72.755 158.961 72.8734C160.145 72.8734 159.553 76.3059 158.133 76.3059Z" fill="#382823"/>
<path d="M172.336 76.3059C171.389 76.1875 170.916 72.755 173.165 72.8734C174.348 72.8734 173.875 76.3059 172.336 76.3059Z" fill="#382823"/>
<path d="M152.688 102.464C158.488 108.974 169.496 113.353 177.071 103.411C177.663 102.582 176.952 102.345 193.76 108.5C201.217 172.06 204.294 188.394 198.258 188.986C175.65 191.235 148.546 201.059 134.342 190.17C126.057 183.778 132.448 113.945 134.934 108.5C152.57 101.754 151.978 101.635 152.688 102.464Z" fill="#0075FF"/>
<path d="M152.925 195.614C145.587 195.614 139.077 194.312 134.224 190.525C129.371 186.856 129.726 163.065 130.436 149.217C131.265 130.16 133.514 111.341 134.816 108.619V108.5H134.934C138.84 106.961 141.799 105.896 144.048 104.949C152.333 101.754 152.333 101.754 152.925 102.464C155.884 105.896 161.21 109.447 166.773 109.21C170.679 109.092 174.112 107.198 176.834 103.529L176.952 103.411C177.544 102.582 177.544 102.582 193.168 108.263L193.996 108.619V108.737C195.18 118.561 196.245 127.32 197.074 135.013C201.453 171.35 203.11 184.843 200.151 188.513C199.678 189.105 198.968 189.46 198.139 189.578C191.984 190.17 185.474 191.353 179.201 192.537C170.206 193.957 161.092 195.614 152.925 195.614ZM135.052 108.737C133.869 111.814 131.62 130.752 130.791 149.098C129.726 172.534 131.028 187.447 134.46 190.051C144.758 197.982 162.276 194.786 179.201 191.827C185.474 190.643 192.103 189.46 198.257 188.868C198.968 188.749 199.441 188.513 199.915 188.039C202.755 184.607 200.98 170.048 196.719 134.895C195.772 127.201 194.707 118.561 193.641 108.737L193.05 108.5C178.609 103.292 177.781 102.937 177.426 103.529L177.307 103.647C174.467 107.435 170.916 109.447 166.892 109.565C161.092 109.802 155.766 106.133 152.688 102.7C152.215 102.227 152.096 102.227 144.285 105.304C141.799 106.133 138.84 107.317 135.052 108.737Z" fill="black"/>
<path d="M161.92 185.909C161.092 184.962 162.986 183.778 163.578 185.199C163.814 185.672 163.696 186.264 163.341 186.738C164.524 186.974 164.879 184.725 166.063 184.844C168.312 185.08 166.537 195.97 160.027 194.786C158.606 194.549 159.435 193.366 159.79 192.419C161.684 186.264 157.659 182.713 161.92 185.909Z" fill="#EA795C"/>
<path d="M133.75 189.223L135.762 182.121L150.558 187.093C156.712 186.501 160.145 183.778 164.406 187.211C164.761 187.448 164.761 188.039 164.406 188.158C162.867 188.986 161.447 188.394 160.737 188.276C158.014 187.921 154.227 192.182 159.198 193.839C166.3 196.088 166.536 187.566 168.667 186.737C170.561 186.027 169.969 189.696 166.773 194.904C164.998 197.863 164.524 196.325 160.5 197.745C159.316 198.219 159.08 198.219 157.896 197.745C147.48 192.656 150.913 193.958 133.75 189.223Z" fill="#F9A587"/>
<path d="M93.2706 168.036C85.9322 179.281 94.4542 183.778 101.319 185.79C110.315 188.513 148.072 197.745 149.492 193.721C152.215 186.501 152.57 185.317 151.031 184.37C113.866 163.657 108.894 176.558 130.673 154.78C133.159 152.294 134.697 149.098 135.289 145.666C137.301 132.528 138.84 106.843 134.934 108.382C125.11 112.288 113.51 137.38 93.2706 168.036Z" fill="#0075FF"/>
<path d="M145.705 195.023C135.052 195.023 106.882 187.803 101.201 186.146C95.4011 184.37 91.8503 181.885 90.6667 178.57C89.6014 175.611 90.4299 172.061 93.0339 168.036C99.5438 158.212 105.107 148.862 110.078 140.695C120.494 123.414 128.069 110.986 134.697 108.382C135.052 108.264 135.407 108.264 135.763 108.5C138.84 110.986 137.183 134.54 135.407 145.903C134.934 149.453 133.277 152.649 130.791 155.135C127.951 157.976 125.583 160.224 123.69 162C119.665 165.787 117.653 167.681 117.89 168.865C118.127 169.93 120.375 170.759 124.518 172.297C129.844 174.191 138.722 177.505 151.031 184.37C152.807 185.317 152.215 186.856 149.611 193.958C149.492 194.668 147.954 195.023 145.705 195.023ZM93.5073 168.155C90.9034 172.061 90.0749 175.493 91.1401 178.334C92.3237 181.53 95.7562 183.897 101.319 185.672C113.155 189.223 147.954 197.272 149.256 193.839C151.86 186.737 152.215 185.554 150.913 184.844C138.603 177.979 129.726 174.783 124.4 172.771C120.02 171.232 117.772 170.404 117.535 168.983C117.18 167.444 119.192 165.669 123.453 161.645C125.347 159.869 127.714 157.62 130.555 154.78C133.04 152.294 134.579 149.217 135.052 145.903C137.064 132.764 138.13 110.986 135.526 108.974C135.407 108.855 135.171 108.855 134.934 108.855C128.424 111.341 120.849 123.769 110.551 140.931C105.58 149.098 100.017 158.331 93.5073 168.155Z" fill="black"/>
<path d="M166.181 185.435C167.01 184.488 164.998 183.305 164.524 184.843C164.288 185.317 164.524 185.909 164.879 186.382C163.696 186.737 163.222 184.488 162.039 184.725C159.79 185.08 162.157 195.851 168.549 194.312C169.969 193.957 169.022 192.892 168.667 191.945C166.418 185.672 170.206 182.003 166.181 185.435Z" fill="#EA795C"/>
<path d="M194.47 187.329L192.103 180.346L177.663 186.027C171.508 185.79 167.839 183.186 163.814 186.856C163.459 187.092 163.578 187.684 163.933 187.802C165.471 188.631 166.892 187.802 167.602 187.684C170.324 187.092 174.23 191.235 169.377 193.129C162.394 195.733 161.684 187.211 159.553 186.5C157.659 185.909 158.37 189.46 161.802 194.549C163.696 197.39 164.051 195.851 168.194 197.153C169.377 197.508 169.732 197.626 170.798 197.035C180.977 191.353 177.663 192.892 194.47 187.329Z" fill="#F9A587"/>
<path d="M207.608 169.457C189.736 176.322 180.148 181.175 176.834 182.95C174.822 184.015 176.479 186.146 178.136 192.419C178.373 193.366 179.32 193.958 180.267 193.839C237.79 184.844 240.513 180.109 235.423 168.865C231.872 161.053 202.045 111.696 193.76 108.737C190.682 107.672 190.209 132.646 192.221 143.062C193.997 152.531 212.224 167.681 207.608 169.457Z" fill="#0075FF"/>
<path d="M180.03 194.076C179.083 194.076 178.254 193.484 178.018 192.537C177.544 190.762 177.071 189.341 176.597 188.158C175.532 185.08 175.059 183.66 176.716 182.831C180.03 181.056 189.617 176.203 207.49 169.338C207.845 169.22 207.963 169.102 208.082 168.746C208.437 167.208 205.359 163.42 202.045 159.277C197.784 153.951 192.813 147.796 191.984 142.944C190.209 133.238 190.446 110.749 193.05 108.5C193.405 108.264 193.641 108.264 193.878 108.382C202.4 111.459 232.464 161.408 235.66 168.628C237.317 172.297 238.145 175.256 236.725 177.86C233.529 183.66 218.852 187.921 180.385 193.958C180.267 194.076 180.148 194.076 180.03 194.076ZM207.726 169.693C189.854 176.558 180.267 181.411 176.952 183.187C175.769 183.897 176.006 184.844 177.071 187.921C177.426 189.105 177.899 190.525 178.491 192.3C178.728 193.129 179.556 193.602 180.385 193.484C218.734 187.448 233.293 183.305 236.37 177.624C237.672 175.138 236.962 172.416 235.305 168.746C231.28 159.869 201.808 111.696 193.76 108.737C193.641 108.737 193.523 108.737 193.405 108.855C191.156 110.749 190.564 132.646 192.458 142.825C193.405 147.56 198.376 153.833 202.519 158.922C206.188 163.42 209.028 167.089 208.555 168.746C208.437 169.22 208.082 169.575 207.726 169.693Z" fill="black"/>
<path d="M216.13 170.404C214.236 170.404 212.224 169.93 210.567 168.865C210.449 168.746 210.449 168.628 210.449 168.51C210.567 168.391 210.685 168.391 210.804 168.391C213.171 169.812 216.012 170.167 218.616 169.457C218.734 169.457 218.852 169.457 218.852 169.575C218.852 169.693 218.852 169.812 218.734 169.812C217.906 170.285 216.959 170.404 216.13 170.404Z" fill="black"/>
<path d="M115.996 169.575C113.155 169.575 110.551 168.036 109.131 165.551C109.013 165.432 109.131 165.314 109.249 165.196C109.368 165.077 109.486 165.196 109.605 165.314C110.906 167.563 113.392 169.101 116.114 169.101C116.233 169.101 116.351 169.22 116.351 169.338C116.233 169.457 116.114 169.575 115.996 169.575Z" fill="black"/>
<path d="M162.749 175.966C162.631 175.966 162.512 175.848 162.512 175.73C162.512 175.611 162.631 175.493 162.749 175.493C175.65 173.481 182.397 159.988 186.895 150.992C187.013 150.874 187.131 150.874 187.25 150.874C187.368 150.992 187.368 151.111 187.368 151.229C182.752 160.343 176.005 173.954 162.749 175.966Z" fill="black"/>
<path d="M163.814 113.471C157.423 113.471 150.558 109.921 149.137 105.778C149.137 105.66 149.137 105.541 149.256 105.423C149.374 105.423 149.493 105.423 149.611 105.541C151.031 109.566 157.778 112.998 164.169 112.88C164.288 112.88 164.406 112.998 164.406 113.116C164.406 113.235 164.288 113.353 164.169 113.353C164.051 113.471 163.933 113.471 163.814 113.471Z" fill="black"/>
<path d="M132.685 157.265C132.567 157.265 132.567 157.265 132.567 157.147C132.448 157.029 132.448 156.91 132.567 156.792C135.526 153.714 137.538 149.69 138.011 145.429C138.011 145.311 138.13 145.192 138.248 145.192C138.367 145.192 138.485 145.311 138.485 145.429C138.011 149.808 135.999 153.951 132.922 157.029C132.804 157.265 132.685 157.265 132.685 157.265Z" fill="black"/>
<path d="M199.204 206.504H131.975C128.306 206.504 125.465 203.544 125.465 199.994V151.702C125.465 148.033 128.424 145.192 131.975 145.192H199.204C202.874 145.192 205.714 148.151 205.714 151.702V199.994C205.714 203.544 202.874 206.504 199.204 206.504Z" fill="#858789"/>
<path d="M199.204 206.74H131.975C128.187 206.74 125.228 203.663 125.228 199.994V151.702C125.228 147.915 128.306 144.956 131.975 144.956H199.204C202.992 144.956 205.951 148.033 205.951 151.702V199.994C206.069 203.663 202.992 206.74 199.204 206.74ZM131.975 145.311C128.542 145.311 125.702 148.151 125.702 151.584V199.875C125.702 203.308 128.542 206.149 131.975 206.149H199.204C202.637 206.149 205.478 203.308 205.478 199.875V151.584C205.478 148.151 202.637 145.311 199.204 145.311H131.975Z" fill="#D2D4D5"/>
<path d="M171.153 175.73C171.153 178.807 168.667 181.293 165.59 181.293C162.512 181.293 160.027 178.807 160.027 175.73C160.027 172.652 162.512 170.167 165.59 170.167C168.667 170.167 171.153 172.652 171.153 175.73Z" fill="#D2D4D5"/>
<path d="M165.59 181.529C162.394 181.529 159.79 178.925 159.79 175.73C159.79 172.534 162.394 169.93 165.59 169.93C168.786 169.93 171.389 172.534 171.389 175.73C171.389 178.925 168.786 181.529 165.59 181.529ZM165.59 170.403C162.631 170.403 160.263 172.771 160.263 175.73C160.263 178.689 162.631 181.056 165.59 181.056C168.549 181.056 170.916 178.689 170.916 175.73C170.916 172.889 168.549 170.403 165.59 170.403Z" fill="#858789"/>
<path d="M145.705 167.799L145.231 167.563V167.444L145.705 167.681V167.799Z" fill="white"/>
</svg>
