<svg width="269" height="253" viewBox="0 0 269 253" fill="none" xmlns="http://www.w3.org/2000/svg">
<path d="M185.314 43.4596V185.809C185.314 193.196 180.915 199.184 175.488 199.186L10.7357 199.233C5.30753 199.234 0.906827 193.247 0.905374 185.859L0.887207 43.4618C0.885754 36.0738 5.28645 30.0838 10.7147 30.0838H175.486C180.914 30.0838 185.314 36.0723 185.314 43.4596Z" fill="#D3E8E2"/>
<path d="M10.7154 30.9707C8.3792 30.9707 6.16505 32.2344 4.4799 34.5278C2.73518 36.9033 1.7738 40.0766 1.77452 43.4629L1.79269 185.859C1.79342 189.245 2.7548 192.417 4.50025 194.792C6.18467 197.084 8.39883 198.346 10.7343 198.346L175.488 198.299C180.416 198.297 184.427 192.695 184.427 185.81V43.46C184.427 36.5733 180.415 30.9707 175.486 30.9707H10.7154ZM10.7343 200.121C7.81967 200.121 5.0983 198.601 3.0709 195.843C1.10308 193.166 0.0188944 189.62 0.0188944 185.859L3.65287e-07 43.4629C-0.000726302 39.7017 1.08274 36.1555 3.04983 33.4777C5.07796 30.7171 7.80005 29.1969 10.7154 29.1969H175.486C181.394 29.1969 186.2 35.5953 186.2 43.46V185.81C186.2 193.673 181.395 200.072 175.489 200.074L10.7358 200.121H10.7343Z" fill="#43C59E"/>
<path d="M185.313 43.2539H0.907715C0.907715 35.98 5.2401 30.0838 10.5847 30.0838H175.636C180.98 30.0838 185.313 35.98 185.313 43.2539Z" fill="#43C59E"/>
<path d="M1.81731 42.3673H184.403C184.076 36.0061 180.269 30.9703 175.635 30.9703H10.5846C5.95132 30.9703 2.14358 36.0061 1.81731 42.3673ZM186.2 44.1411H0.0202637V43.2538C0.0202637 35.5025 4.75959 29.1965 10.5846 29.1965H175.635C181.46 29.1965 186.2 35.5025 186.2 43.2538V44.1411Z" fill="#43C59E"/>
<path d="M13.3553 36.8237C13.3553 37.724 12.6257 38.4536 11.7254 38.4536C10.825 38.4536 10.0955 37.724 10.0955 36.8237C10.0955 35.9233 10.825 35.1938 11.7254 35.1938C12.6257 35.1938 13.3553 35.9233 13.3553 36.8237Z" fill="#FEFFFF"/>
<path d="M18.4451 36.8237C18.4451 37.724 17.7156 38.4536 16.8152 38.4536C15.9156 38.4536 15.1853 37.724 15.1853 36.8237C15.1853 35.9233 15.9156 35.1938 16.8152 35.1938C17.7156 35.1938 18.4451 35.9233 18.4451 36.8237Z" fill="#FEFFFF"/>
<path d="M23.5355 36.8237C23.5355 37.724 22.8052 38.4536 21.9056 38.4536C21.0052 38.4536 20.2756 37.724 20.2756 36.8237C20.2756 35.9233 21.0052 35.1938 21.9056 35.1938C22.8052 35.1938 23.5355 35.9233 23.5355 36.8237Z" fill="#FEFFFF"/>
<path d="M135.071 62.3726H10.3426C9.06946 62.3726 8.0376 61.3407 8.0376 60.0676V59.3562C8.0376 58.083 9.06946 57.0512 10.3426 57.0512H135.071C136.344 57.0512 137.376 58.083 137.376 59.3562V60.0676C137.376 61.3407 136.344 62.3726 135.071 62.3726Z" fill="#FEFFFF"/>
<path d="M157.247 83.0933H32.5186C31.2455 83.0933 30.2136 82.0614 30.2136 80.7883V80.0769C30.2136 78.8037 31.2455 77.7719 32.5186 77.7719H157.247C158.52 77.7719 159.552 78.8037 159.552 80.0769V80.7883C159.552 82.0614 158.52 83.0933 157.247 83.0933Z" fill="#FEFFFF"/>
<path d="M157.247 91.4229H32.5186C31.2455 91.4229 30.2136 90.391 30.2136 89.1179V88.4065C30.2136 87.1333 31.2455 86.1015 32.5186 86.1015H157.247C158.52 86.1015 159.552 87.1333 159.552 88.4065V89.1179C159.552 90.391 158.52 91.4229 157.247 91.4229Z" fill="#FEFFFF"/>
<path d="M157.247 102.133H32.5186C31.2455 102.133 30.2136 101.101 30.2136 99.8278V99.1164C30.2136 97.8433 31.2455 96.8114 32.5186 96.8114H157.247C158.52 96.8114 159.552 97.8433 159.552 99.1164V99.8278C159.552 101.101 158.52 102.133 157.247 102.133Z" fill="#FEFFFF"/>
<path d="M157.247 110.463H32.5186C31.2455 110.463 30.2136 109.431 30.2136 108.158V107.446C30.2136 106.173 31.2455 105.142 32.5186 105.142H157.247C158.52 105.142 159.552 106.173 159.552 107.446V108.158C159.552 109.431 158.52 110.463 157.247 110.463Z" fill="#FEFFFF"/>
<path d="M157.247 129.503H32.5186C31.2455 129.503 30.2136 128.471 30.2136 127.198V126.487C30.2136 125.213 31.2455 124.182 32.5186 124.182H157.247C158.52 124.182 159.552 125.213 159.552 126.487V127.198C159.552 128.471 158.52 129.503 157.247 129.503Z" fill="#FEFFFF"/>
<path d="M157.247 137.833H32.5186C31.2455 137.833 30.2136 136.801 30.2136 135.528V134.817C30.2136 133.543 31.2455 132.512 32.5186 132.512H157.247C158.52 132.512 159.552 133.543 159.552 134.817V135.528C159.552 136.801 158.52 137.833 157.247 137.833Z" fill="#FEFFFF"/>
<path d="M157.247 148.543H32.5186C31.2455 148.543 30.2136 147.511 30.2136 146.238V145.527C30.2136 144.253 31.2455 143.222 32.5186 143.222H157.247C158.52 143.222 159.552 144.253 159.552 145.527V146.238C159.552 147.511 158.52 148.543 157.247 148.543Z" fill="#FEFFFF"/>
<path d="M157.247 156.873H32.5186C31.2455 156.873 30.2136 155.841 30.2136 154.568V153.857C30.2136 152.584 31.2455 151.552 32.5186 151.552H157.247C158.52 151.552 159.552 152.584 159.552 153.857V154.568C159.552 155.841 158.52 156.873 157.247 156.873Z" fill="#FEFFFF"/>
<path d="M157.247 175.913H32.5186C31.2455 175.913 30.2136 174.881 30.2136 173.608V172.897C30.2136 171.624 31.2455 170.592 32.5186 170.592H157.247C158.52 170.592 159.552 171.624 159.552 172.897V173.608C159.552 174.881 158.52 175.913 157.247 175.913Z" fill="#FEFFFF"/>
<path d="M157.247 184.243H32.5186C31.2455 184.243 30.2136 183.211 30.2136 181.938V181.226C30.2136 179.953 31.2455 178.921 32.5186 178.921H157.247C158.52 178.921 159.552 179.953 159.552 181.226V181.938C159.552 183.211 158.52 184.243 157.247 184.243Z" fill="#FEFFFF"/>
<path d="M157.247 194.953H32.5186C31.2455 194.953 30.2136 193.921 30.2136 192.648V191.936C30.2136 190.663 31.2455 189.631 32.5186 189.631H157.247C158.52 189.631 159.552 190.663 159.552 191.936V192.648C159.552 193.921 158.52 194.953 157.247 194.953Z" fill="#FEFFFF"/>
<path d="M166.442 62.3726H153.44C152.072 62.3726 150.963 61.2637 150.963 59.8961V59.5277C150.963 58.1601 152.072 57.0512 153.44 57.0512H166.442C167.81 57.0512 168.919 58.1601 168.919 59.5277V59.8961C168.919 61.2637 167.81 62.3726 166.442 62.3726Z" fill="#FEFFFF"/>
<path d="M146.741 101.802H111.847C110.853 101.802 110.047 100.997 110.047 100.003V98.2803C110.047 97.2862 110.853 96.4804 111.847 96.4804H146.741C147.734 96.4804 148.541 97.2862 148.541 98.2803V100.003C148.541 100.997 147.734 101.802 146.741 101.802Z" fill="#F7F1E9"/>
<path d="M162.403 101.802H152.761C152.096 101.802 151.557 101.263 151.557 100.599V97.6845C151.557 97.0196 152.096 96.4804 152.761 96.4804H162.403V101.802Z" fill="#F7F1E9"/>
<path d="M167.566 139.009H152.761C152.096 139.009 151.557 138.47 151.557 137.805V134.891C151.557 134.226 152.096 133.687 152.761 133.687H167.566C168.23 133.687 168.769 134.226 168.769 134.891V137.805C168.769 138.47 168.23 139.009 167.566 139.009Z" fill="#F7F1E9"/>
<path d="M23.6878 83.1982H10.3426C9.06946 83.1982 8.0376 82.1671 8.0376 80.894V80.1826C8.0376 78.9095 9.06946 77.8769 10.3426 77.8769H23.6878C24.9609 77.8769 25.9935 78.9095 25.9935 80.1826V80.894C25.9935 82.1671 24.9609 83.1982 23.6878 83.1982Z" fill="white"/>
<path d="M23.6878 101.802H10.3426C9.06946 101.802 8.0376 100.77 8.0376 99.4972V98.7859C8.0376 97.5127 9.06946 96.4801 10.3426 96.4801H23.6878C24.9609 96.4801 25.9935 97.5127 25.9935 98.7859V99.4972C25.9935 100.77 24.9609 101.802 23.6878 101.802Z" fill="white"/>
<path d="M23.6878 129.707H10.3426C9.06946 129.707 8.0376 128.675 8.0376 127.402V126.691C8.0376 125.418 9.06946 124.386 10.3426 124.386H23.6878C24.9609 124.386 25.9935 125.418 25.9935 126.691V127.402C25.9935 128.675 24.9609 129.707 23.6878 129.707Z" fill="white"/>
<path d="M23.6878 148.311H10.3426C9.06946 148.311 8.0376 147.279 8.0376 146.006V145.294C8.0376 144.021 9.06946 142.988 10.3426 142.988H23.6878C24.9609 142.988 25.9935 144.021 25.9935 145.294V146.006C25.9935 147.279 24.9609 148.311 23.6878 148.311Z" fill="white"/>
<path d="M23.6878 176.355H10.3426C9.06946 176.355 8.0376 175.323 8.0376 174.05V173.339C8.0376 172.065 9.06946 171.034 10.3426 171.034H23.6878C24.9609 171.034 25.9935 172.065 25.9935 173.339V174.05C25.9935 175.323 24.9609 176.355 23.6878 176.355Z" fill="white"/>
<path d="M166.428 72.7856H153.899C152.522 72.7856 151.407 71.6702 151.407 70.2939V69.956C151.407 68.5797 152.522 67.4643 153.899 67.4643H166.428C167.804 67.4643 168.919 68.5797 168.919 69.956V70.2939C168.919 71.6702 167.804 72.7856 166.428 72.7856Z" fill="#71635F"/>
<path d="M254.366 -0.000118256H172.336C162.483 -0.000118256 154.496 7.98668 154.496 17.8396V27.534C154.496 36.5403 161.796 43.8404 170.802 43.8404C171.528 43.8404 172.012 44.5802 171.725 45.2465C170.418 48.2876 169.152 51.3832 167.692 54.2252C167.272 55.0435 168.048 55.9562 168.931 55.6975C173.517 54.3546 178.06 51.9348 182.488 49.3893C188.771 45.7785 195.862 43.8404 203.109 43.8404C216.569 43.8404 239.547 43.8404 254.366 43.8404C262.162 43.8404 268.481 37.5206 268.481 29.7242V14.1168C268.481 6.31971 262.161 -0.000118256 254.366 -0.000118256Z" fill="#9DC4F2"/>
<path d="M167.271 11.3716H165.65C165.378 11.3716 165.158 11.1514 165.158 10.8804V9.25917C165.158 8.98813 165.378 8.76795 165.65 8.76795H167.271C167.542 8.76795 167.762 8.98813 167.762 9.25917V10.8804C167.762 11.1514 167.542 11.3716 167.271 11.3716Z" fill="white"/>
<path d="M186.463 11.3716H175.438C174.719 11.3716 174.135 10.7888 174.135 10.0701C174.135 9.35073 174.719 8.76795 175.438 8.76795H186.463C187.182 8.76795 187.764 9.35073 187.764 10.0701C187.764 10.7888 187.182 11.3716 186.463 11.3716Z" fill="white"/>
<path d="M226.799 11.3716H195.307C194.588 11.3716 194.006 10.7888 194.006 10.0701C194.006 9.35073 194.588 8.76795 195.307 8.76795H226.799C227.519 8.76795 228.102 9.35073 228.102 10.0701C228.102 10.7888 227.519 11.3716 226.799 11.3716Z" fill="white"/>
<path d="M236.962 11.3716H234.994C234.818 11.3716 234.677 11.2299 234.677 11.054V9.08622C234.677 8.91036 234.818 8.76795 234.994 8.76795H236.962C237.138 8.76795 237.28 8.91036 237.28 9.08622V11.054C237.28 11.2299 237.138 11.3716 236.962 11.3716Z" fill="white"/>
<path d="M254.321 11.3716H244.082C243.362 11.3716 242.78 10.7888 242.78 10.0701C242.78 9.35073 243.362 8.76795 244.082 8.76795H254.321C255.04 8.76795 255.623 9.35073 255.623 10.0701C255.623 10.7888 255.04 11.3716 254.321 11.3716Z" fill="white"/>
<path d="M167.933 17.6885H166.312C166.041 17.6885 165.821 17.4683 165.821 17.1972V15.5761C165.821 15.305 166.041 15.0848 166.312 15.0848H167.933C168.205 15.0848 168.425 15.305 168.425 15.5761V17.1972C168.425 17.4683 168.205 17.6885 167.933 17.6885Z" fill="white"/>
<path d="M187.126 17.6885H176.101C175.382 17.6885 174.799 17.1057 174.799 16.3863C174.799 15.6676 175.382 15.0848 176.101 15.0848H187.126C187.845 15.0848 188.427 15.6676 188.427 16.3863C188.427 17.1057 187.845 17.6885 187.126 17.6885Z" fill="white"/>
<path d="M227.462 17.6885H195.97C195.251 17.6885 194.668 17.1057 194.668 16.3863C194.668 15.6676 195.251 15.0848 195.97 15.0848H227.462C228.181 15.0848 228.764 15.6676 228.764 16.3863C228.764 17.1057 228.181 17.6885 227.462 17.6885Z" fill="white"/>
<path d="M237.625 17.6885H235.656C235.481 17.6885 235.339 17.546 235.339 17.3709V15.4024C235.339 15.2273 235.481 15.0848 235.656 15.0848H237.625C237.8 15.0848 237.943 15.2273 237.943 15.4024V17.3709C237.943 17.546 237.8 17.6885 237.625 17.6885Z" fill="white"/>
<path d="M254.984 17.6885H244.744C244.025 17.6885 243.442 17.1057 243.442 16.3863C243.442 15.6676 244.025 15.0848 244.744 15.0848H254.984C255.702 15.0848 256.285 15.6676 256.285 16.3863C256.285 17.1057 255.702 17.6885 254.984 17.6885Z" fill="white"/>
<path d="M168.596 24.0051H166.975C166.704 24.0051 166.484 23.7849 166.484 23.5139V21.8927C166.484 21.6217 166.704 21.4015 166.975 21.4015H168.596C168.867 21.4015 169.087 21.6217 169.087 21.8927V23.5139C169.087 23.7849 168.867 24.0051 168.596 24.0051Z" fill="white"/>
<path d="M187.788 24.0051H176.764C176.044 24.0051 175.461 23.4223 175.461 22.7029C175.461 21.9843 176.044 21.4015 176.764 21.4015H187.788C188.507 21.4015 189.09 21.9843 189.09 22.7029C189.09 23.4223 188.507 24.0051 187.788 24.0051Z" fill="white"/>
<path d="M228.125 24.0051H196.633C195.914 24.0051 195.33 23.4223 195.33 22.7029C195.33 21.9843 195.914 21.4015 196.633 21.4015H228.125C228.843 21.4015 229.427 21.9843 229.427 22.7029C229.427 23.4223 228.843 24.0051 228.125 24.0051Z" fill="white"/>
<path d="M238.288 24.0051H236.319C236.143 24.0051 236.002 23.8627 236.002 23.6876V21.719C236.002 21.5439 236.143 21.4015 236.319 21.4015H238.288C238.463 21.4015 238.605 21.5439 238.605 21.719V23.6876C238.605 23.8627 238.463 24.0051 238.288 24.0051Z" fill="white"/>
<path d="M255.647 24.0051H245.406C244.688 24.0051 244.105 23.4223 244.105 22.7029C244.105 21.9843 244.688 21.4015 245.406 21.4015H255.647C256.365 21.4015 256.948 21.9843 256.948 22.7029C256.948 23.4223 256.365 24.0051 255.647 24.0051Z" fill="white"/>
<path d="M169.258 30.3223H167.638C167.367 30.3223 167.146 30.1021 167.146 29.831V28.2099C167.146 27.9388 167.367 27.7186 167.638 27.7186H169.258C169.53 27.7186 169.75 27.9388 169.75 28.2099V29.831C169.75 30.1021 169.53 30.3223 169.258 30.3223Z" fill="white"/>
<path d="M188.452 30.3223H177.427C176.707 30.3223 176.125 29.7395 176.125 29.0208C176.125 28.3014 176.707 27.7186 177.427 27.7186H188.452C189.17 27.7186 189.753 28.3014 189.753 29.0201C189.753 29.7395 189.17 30.3223 188.452 30.3223Z" fill="white"/>
<path d="M228.788 30.3223H197.295C196.577 30.3223 195.993 29.7395 195.993 29.0208C195.993 28.3014 196.577 27.7186 197.295 27.7186H228.788C229.507 27.7186 230.09 28.3014 230.09 29.0201C230.09 29.7395 229.507 30.3223 228.788 30.3223Z" fill="white"/>
<path d="M238.95 30.3223H236.982C236.806 30.3223 236.664 30.1798 236.664 30.0047V28.0362C236.664 27.861 236.806 27.7186 236.982 27.7186H238.95C239.126 27.7186 239.267 27.861 239.267 28.0362V30.0047C239.267 30.1798 239.126 30.3223 238.95 30.3223Z" fill="white"/>
<path d="M256.309 30.3223H246.07C245.35 30.3223 244.768 29.7395 244.768 29.0208C244.768 28.3014 245.35 27.7186 246.07 27.7186H256.309C257.028 27.7186 257.61 28.3014 257.61 29.0201C257.61 29.7395 257.028 30.3223 256.309 30.3223Z" fill="white"/>
<path d="M169.922 36.6392H168.3C168.029 36.6392 167.809 36.419 167.809 36.1479V34.5267C167.809 34.2557 168.029 34.0355 168.3 34.0355H169.922C170.193 34.0355 170.413 34.2557 170.413 34.5267V36.1479C170.413 36.419 170.193 36.6392 169.922 36.6392Z" fill="white"/>
<path d="M189.114 36.6392H178.089C177.371 36.6392 176.787 36.0564 176.787 35.3377C176.787 34.6183 177.371 34.0355 178.089 34.0355H189.114C189.833 34.0355 190.416 34.6183 190.416 35.3377C190.416 36.0564 189.833 36.6392 189.114 36.6392Z" fill="white"/>
<path d="M229.45 36.6392H197.958C197.239 36.6392 196.656 36.0564 196.656 35.3377C196.656 34.6183 197.239 34.0355 197.958 34.0355H229.45C230.169 34.0355 230.752 34.6183 230.752 35.3377C230.752 36.0564 230.169 36.6392 229.45 36.6392Z" fill="white"/>
<path d="M239.613 36.6392H237.645C237.47 36.6392 237.327 36.4967 237.327 36.3216V34.3531C237.327 34.1779 237.47 34.0355 237.645 34.0355H239.613C239.789 34.0355 239.93 34.1779 239.93 34.3531V36.3216C239.93 36.4967 239.789 36.6392 239.613 36.6392Z" fill="white"/>
<path d="M256.972 36.6392H246.733C246.013 36.6392 245.431 36.0564 245.431 35.3377C245.431 34.6183 246.013 34.0355 246.733 34.0355H256.972C257.691 34.0355 258.274 34.6183 258.274 35.3377C258.274 36.0564 257.691 36.6392 256.972 36.6392Z" fill="white"/>
<path d="M53.1636 0.602062H90.5528C95.0436 0.602062 98.6835 5.37991 98.6835 11.2732V17.0727C98.6835 22.4588 95.3561 26.826 91.2512 26.826C90.9213 26.826 90.7003 27.2686 90.8304 27.6668C91.427 29.4863 92.004 31.3379 92.6696 33.0376C92.8607 33.5274 92.5068 34.0731 92.1043 33.9183C90.0144 33.1153 87.9434 31.6678 85.9254 30.1454C83.0616 27.9851 79.8294 26.826 76.526 26.826C70.3907 26.826 59.918 26.826 53.1636 26.826C49.6102 26.826 46.729 23.0452 46.729 18.3821V9.04666C46.729 4.38291 49.6102 0.602062 53.1636 0.602062Z" fill="#43C59E"/>
<path d="M56.3552 9.22192H53.7283C53.4405 9.22192 53.2073 8.98865 53.2073 8.70089V6.074C53.2073 5.78624 53.4405 5.55371 53.7283 5.55371H56.3552C56.643 5.55371 56.8762 5.78624 56.8762 6.074V8.70089C56.8762 8.98865 56.643 9.22192 56.3552 9.22192Z" fill="white"/>
<path d="M74.1985 9.22192H62.8676C61.8546 9.22192 61.0334 8.40079 61.0334 7.38782C61.0334 6.37484 61.8546 5.55371 62.8676 5.55371H74.1985C75.2115 5.55371 76.0326 6.37484 76.0326 7.38782C76.0326 8.40079 75.2115 9.22192 74.1985 9.22192Z" fill="white"/>
<path d="M89.1985 9.22192H83.0844C82.0714 9.22192 81.2502 8.40079 81.2502 7.38782C81.2502 6.37484 82.0714 5.55371 83.0844 5.55371H89.1985C90.2115 5.55371 91.0326 6.37484 91.0326 7.38782C91.0326 8.40079 90.2115 9.22192 89.1985 9.22192Z" fill="white"/>
<path d="M54.1374 14.4385H51.5105C51.2228 14.4385 50.9895 14.2059 50.9895 13.9182V11.2913C50.9895 11.0035 51.2228 10.7702 51.5105 10.7702H54.1374C54.4252 10.7702 54.6577 11.0035 54.6577 11.2913V13.9182C54.6577 14.2059 54.4252 14.4385 54.1374 14.4385Z" fill="white"/>
<path d="M71.9807 14.4385H60.6498C59.6361 14.4385 58.8157 13.6181 58.8157 12.6044C58.8157 11.5914 59.6361 10.7702 60.6498 10.7702H71.9807C72.9937 10.7702 73.8148 11.5914 73.8148 12.6044C73.8148 13.6181 72.9937 14.4385 71.9807 14.4385Z" fill="white"/>
<path d="M86.9798 14.4385H80.8663C79.8534 14.4385 79.0322 13.6181 79.0322 12.6044C79.0322 11.5914 79.8534 10.7702 80.8663 10.7702H86.9798C87.9927 10.7702 88.8146 11.5914 88.8146 12.6044C88.8146 13.6181 87.9927 14.4385 86.9798 14.4385Z" fill="white"/>
<path d="M56.3552 19.6562H53.7283C53.4405 19.6562 53.2073 19.423 53.2073 19.136V16.5083C53.2073 16.2206 53.4405 15.988 53.7283 15.988H56.3552C56.643 15.988 56.8762 16.2206 56.8762 16.5083V19.136C56.8762 19.423 56.643 19.6562 56.3552 19.6562Z" fill="white"/>
<path d="M74.1985 19.6562H62.8676C61.8546 19.6562 61.0334 18.8351 61.0334 17.8221C61.0334 16.8092 61.8546 15.988 62.8676 15.988H74.1985C75.2115 15.988 76.0326 16.8092 76.0326 17.8221C76.0326 18.8351 75.2115 19.6562 74.1985 19.6562Z" fill="white"/>
<path d="M89.1985 19.6562H83.0844C82.0714 19.6562 81.2502 18.8351 81.2502 17.8221C81.2502 16.8092 82.0714 15.988 83.0844 15.988H89.1985C90.2115 15.988 91.0326 16.8092 91.0326 17.8221C91.0326 18.8351 90.2115 19.6562 89.1985 19.6562Z" fill="white"/>
<path d="M92.4312 239.666C89.1474 243.163 85.7946 240.037 85.7946 240.037L84.6733 226.865L92.4327 227.559C92.4327 227.559 92.4879 237.449 92.4312 239.666Z" fill="#F99889"/>
<path d="M93.3679 245.727C93.3744 246.218 92.9871 246.621 92.4966 246.634C88.6082 246.745 73.1455 247.188 73.1171 247.187C72.5452 247.172 72.0874 246.714 72.0649 246.143C72.0155 244.909 72.9202 243.605 74.0495 242.938C76.5608 241.456 81.6787 241.903 84.5098 235.362C84.6929 234.939 85.23 234.797 85.5882 235.086C86.6077 235.91 87.3961 237.044 88.4702 237.816C90.2505 239.095 91.7467 237.657 92.9537 239.457C93.2611 239.918 93.3454 243.918 93.3679 245.727Z" fill="#514342"/>
<path d="M85.1591 235.157L85.0443 235.171C84.8953 235.208 84.7747 235.309 84.7136 235.449C82.583 240.373 79.2302 241.399 76.5357 242.223C75.6034 242.508 74.7975 242.755 74.1624 243.13C73.0325 243.797 72.244 245.061 72.2869 246.134C72.3051 246.589 72.672 246.954 73.1233 246.965C73.2664 246.962 88.3935 246.531 92.4904 246.413C92.8567 246.403 93.151 246.097 93.1466 245.73C93.095 241.537 92.9112 239.797 92.7695 239.581C92.1758 238.695 91.5319 238.678 90.7174 238.658C90.0089 238.639 89.2066 238.618 88.3411 237.996C87.7387 237.564 87.2228 237.02 86.7243 236.494C86.3203 236.067 85.9017 235.625 85.449 235.26C85.3662 235.192 85.2644 235.157 85.1591 235.157ZM73.1109 247.408C72.4286 247.391 71.8712 246.839 71.8436 246.152C71.7935 244.905 72.6546 243.505 73.9371 242.747C74.6173 242.347 75.4864 242.08 76.4064 241.799C79.0129 241.001 82.2575 240.009 84.3067 235.274C84.423 235.005 84.6533 234.811 84.9382 234.74C85.2179 234.671 85.5057 234.734 85.728 234.915C86.204 235.298 86.632 235.751 87.047 236.189C87.5309 236.699 88.0316 237.228 88.5998 237.636C89.3548 238.178 90.0532 238.196 90.729 238.214C91.5588 238.235 92.4156 238.258 93.1379 239.334C93.39 239.711 93.5426 241.861 93.5906 245.725C93.5979 246.331 93.1103 246.839 92.5035 246.857C92.3102 246.863 73.2039 247.408 73.1109 247.408Z" fill="#463C3A"/>
<path d="M73.0321 246.727C72.9129 246.727 72.8141 246.632 72.8104 246.512C72.8061 246.389 72.902 246.288 73.0241 246.283L92.5286 245.63C92.6688 245.626 92.7538 245.722 92.7582 245.844C92.7618 245.966 92.6659 246.07 92.5438 246.074L73.0394 246.727H73.0321Z" fill="white"/>
<path d="M85.0352 240.564L84.985 240.558C83.983 240.326 82.9497 240.039 82.3 239.299C82.2194 239.207 82.2281 239.067 82.3204 238.987C82.4126 238.905 82.5529 238.914 82.6328 239.006C83.196 239.647 84.153 239.911 85.0853 240.126C85.2045 240.154 85.2786 240.273 85.2517 240.392C85.2277 240.494 85.1362 240.564 85.0352 240.564Z" fill="white"/>
<path d="M82.6676 242.294L82.5935 242.282C81.5754 241.923 80.6337 241.532 80.2936 240.707C80.2471 240.594 80.3009 240.464 80.4135 240.417C80.5269 240.37 80.6569 240.424 80.7034 240.538C80.9738 241.193 81.8218 241.538 82.741 241.864C82.8566 241.904 82.9176 242.031 82.8769 242.146C82.8449 242.237 82.7592 242.294 82.6676 242.294Z" fill="white"/>
<path d="M80.1445 243.272L80.0602 243.256C79.6453 243.086 78.2763 242.48 78.112 241.792C78.0837 241.673 78.1571 241.553 78.2763 241.525C78.3947 241.496 78.5154 241.57 78.5437 241.688C78.6142 241.986 79.3387 242.482 80.2281 242.845C80.3415 242.891 80.396 243.02 80.3494 243.134C80.3146 243.22 80.2317 243.272 80.1445 243.272Z" fill="white"/>
<path d="M132.403 244.592C129.119 248.089 125.766 244.963 125.766 244.963L124.644 231.791L132.405 232.484C132.405 232.484 132.46 242.375 132.403 244.592Z" fill="#F99889"/>
<path d="M133.34 250.653C133.346 251.143 132.958 251.547 132.469 251.56C128.58 251.672 113.117 252.113 113.089 252.113C112.517 252.098 112.06 251.641 112.036 251.069C111.987 249.835 112.892 248.531 114.021 247.865C116.533 246.382 121.651 246.831 124.481 240.288C124.664 239.865 125.202 239.723 125.56 240.013C126.58 240.837 127.367 241.97 128.442 242.742C130.222 244.021 131.718 242.582 132.925 244.384C133.233 244.843 133.318 248.844 133.34 250.653Z" fill="#514342"/>
<path d="M125.131 240.082L125.017 240.096C124.868 240.133 124.746 240.235 124.685 240.376C122.555 245.298 119.202 246.325 116.508 247.149C115.575 247.434 114.769 247.681 114.134 248.056C113.003 248.723 112.215 249.986 112.258 251.06C112.277 251.515 112.644 251.879 113.095 251.891C113.223 251.889 128.462 251.454 132.462 251.339C132.829 251.328 133.122 251.022 133.118 250.656C133.066 246.463 132.883 244.723 132.742 244.507C132.147 243.621 131.503 243.604 130.688 243.583C129.98 243.564 129.177 243.544 128.312 242.922C127.71 242.49 127.196 241.946 126.697 241.42C126.293 240.993 125.873 240.551 125.421 240.185C125.337 240.118 125.235 240.082 125.131 240.082ZM113.085 252.335C112.399 252.316 111.843 251.765 111.815 251.078C111.764 249.831 112.625 248.431 113.909 247.674C114.589 247.272 115.457 247.006 116.378 246.724C118.984 245.926 122.229 244.935 124.277 240.2C124.394 239.93 124.626 239.736 124.91 239.665C125.189 239.596 125.477 239.66 125.7 239.84C126.175 240.225 126.604 240.677 127.019 241.115C127.503 241.625 128.003 242.154 128.571 242.563C129.326 243.104 130.025 243.122 130.7 243.139C131.53 243.161 132.387 243.183 133.109 244.26C133.362 244.637 133.513 246.787 133.561 250.651C133.569 251.257 133.081 251.765 132.474 251.782C132.282 251.788 113.151 252.335 113.085 252.335Z" fill="#463C3A"/>
<path d="M113.003 251.652C112.884 251.652 112.787 251.558 112.782 251.438C112.778 251.315 112.874 251.214 112.997 251.209L132.5 250.556C132.627 250.556 132.726 250.649 132.73 250.77C132.734 250.892 132.638 250.995 132.515 250.999L113.011 251.652H113.003Z" fill="white"/>
<path d="M125.007 245.489L124.958 245.484C123.954 245.253 122.921 244.965 122.271 244.226C122.191 244.133 122.201 243.993 122.292 243.912C122.385 243.832 122.524 243.84 122.605 243.932C123.168 244.573 124.124 244.836 125.057 245.051C125.176 245.079 125.251 245.198 125.223 245.318C125.2 245.42 125.108 245.489 125.007 245.489Z" fill="white"/>
<path d="M122.64 247.221L122.566 247.208C121.547 246.848 120.606 246.457 120.266 245.632C120.219 245.52 120.272 245.39 120.386 245.344C120.5 245.296 120.63 245.35 120.675 245.464C120.946 246.118 121.794 246.464 122.714 246.789C122.829 246.83 122.89 246.956 122.849 247.072C122.816 247.164 122.731 247.221 122.64 247.221Z" fill="white"/>
<path d="M120.117 248.198L120.032 248.182C119.617 248.013 118.248 247.405 118.084 246.718C118.056 246.599 118.129 246.48 118.248 246.451C118.368 246.42 118.487 246.496 118.515 246.615C118.586 246.911 119.31 247.408 120.201 247.772C120.314 247.817 120.368 247.948 120.322 248.061C120.287 248.147 120.205 248.198 120.117 248.198Z" fill="white"/>
<path d="M87.0073 36.1702C85.1833 36.0728 85.7334 33.2941 89.8827 34.8223C91.0614 35.2561 92.0315 36.2167 92.4958 37.3809C90.3965 34.6886 87.8713 36.216 87.0073 36.1702Z" fill="#F99889"/>
<path d="M86.2292 34.0063C83.4308 33.255 86.3535 30.8105 90.0595 33.7186C90.9613 34.4263 91.8391 35.8579 92.2584 36.9333C90.5187 34.9386 88.4441 34.6007 86.2292 34.0063Z" fill="#F99889"/>
<path d="M86.5803 32.2239C86.1363 32.0343 84.4577 31.4391 84.7469 30.206C85.0659 30.0817 85.422 30.2074 85.741 30.3317C89.7885 31.9158 90.8124 31.9216 92.3885 34.7157C93.1748 36.1101 93.9051 38.5517 93.3339 40.1846C92.257 37.7023 92.2752 34.6619 86.5803 32.2239Z" fill="#F99889"/>
<path d="M89.3291 26.7244C88.9992 26.4671 88.5364 26.7789 88.6635 27.1771C92.3528 38.6802 92.3092 38.298 92.2104 39.008C92.1086 39.7455 91.6181 40.1844 89.7593 39.0516C88.9062 38.5313 88.3816 37.458 87.4689 37.1571C86.9987 37.0024 86.5482 37.4304 86.6601 37.9121C87.2284 40.369 89.7361 42.1196 91.2207 43.7153C91.4016 43.9101 92.0171 44.7145 92.8462 45.4855C93.062 45.6853 93.2154 45.9433 93.2989 46.2252L95.2326 52.7769L101.486 50.8505C100.508 49.0287 97.9278 44.3257 96.3887 40.9482L89.3291 26.7244Z" fill="#F99889"/>
<path d="M139.408 83.1717C140.949 90.067 143.843 102.365 126.803 94.3049C112.314 87.4517 105.452 83.1877 102.685 81.2874C101.655 80.5797 100.859 79.5819 100.376 78.4287C96.8698 70.0561 94.8242 61.6812 92.557 48.1507C92.5091 47.8658 92.658 47.5795 92.9218 47.4618C95.375 46.3653 96.8698 46.0063 99.8564 45.7004C100.146 45.6706 100.419 45.8413 100.518 46.116C102.723 52.2418 106.502 61.8738 109.444 68.6928C110.158 70.3482 111.529 71.6278 113.227 72.2331C115.813 73.1546 119.65 74.5432 121.655 75.3673C129.462 78.5777 139.408 83.1717 139.408 83.1717Z" fill="#0075FF"/>
<path d="M99.9219 45.9196L99.879 45.9218C96.8568 46.2314 95.3809 46.6063 93.0127 47.6651C92.8412 47.7414 92.7446 47.9267 92.7758 48.1149C95.1367 62.2006 97.2514 70.3931 100.58 78.3435C101.053 79.472 101.824 80.4269 102.812 81.1056C105.616 83.032 112.475 87.283 126.898 94.1049C132.732 96.8648 136.71 97.4469 138.725 95.8366C141.516 93.605 140.144 87.4712 139.235 83.4127L139.216 83.3284C138.155 82.8394 128.869 78.5739 121.57 75.5727C119.605 74.7647 115.909 73.4247 113.153 72.4423C111.4 71.8173 109.974 70.4832 109.241 68.7813C106.485 62.3932 102.645 52.6813 100.309 46.1921C100.25 46.0265 100.094 45.9196 99.9219 45.9196ZM135.705 97.1802C133.463 97.1802 130.483 96.2915 126.708 94.506C112.257 87.671 105.375 83.4055 102.56 81.4711C101.502 80.7444 100.677 79.722 100.171 78.515C96.8277 70.5304 94.7044 62.3111 92.3384 48.1883C92.273 47.801 92.4757 47.4187 92.8318 47.2596C95.2508 46.1783 96.7565 45.7961 99.8332 45.48C100.226 45.44 100.593 45.6711 100.727 46.041C103.06 52.5236 106.895 62.2246 109.648 68.6054C110.334 70.1947 111.666 71.4409 113.302 72.0244C116.061 73.0083 119.766 74.3512 121.739 75.1622C129.462 78.3377 139.402 82.9251 139.502 82.9709L139.601 83.0174L139.668 83.3161C140.656 87.7313 142.008 93.7786 139.003 96.1832C138.171 96.8474 137.076 97.1802 135.705 97.1802Z" fill="#103560"/>
<path d="M136.167 74.059C137.754 75.0748 140.483 79.2859 135.763 82.2616C134.66 82.9563 133.187 82.582 131.892 82.4381C128.278 82.037 124.69 81.4056 121.155 80.5495C119.548 80.1608 117.802 76.3865 120.743 74.5277C124.781 71.9749 125.702 62.518 123.9 61.7972L135.603 60.7435C134.499 65.4952 131.844 71.2911 136.167 74.059Z" fill="#F99889"/>
<path d="M118.446 56.6472C118.868 54.5333 119.228 52.2625 119.65 50.1486C119.842 49.1865 120.244 47.2354 120.265 45.6317C120.274 44.8483 119.146 44.7241 118.976 45.4892C118.082 49.5244 115.602 53.6672 115.144 54.497C114.595 55.4904 118.446 56.6472 118.446 56.6472Z" fill="#F99889"/>
<path d="M118.238 47.2394C115.521 56.5902 117.846 68.0635 123.837 67.2257C128.54 66.5681 137.07 65.045 139.785 55.6935C142.502 46.3427 140.612 39.0681 134.803 37.3807C128.995 35.6942 120.954 37.888 118.238 47.2394Z" fill="#F99889"/>
<path d="M124.607 66.918C128.588 65.4988 132.5 62.752 132.944 62.5362C130.834 65.1035 125.714 68.8953 123.743 70.2817C124.219 68.981 124.4 68.1642 124.607 66.918Z" fill="#B17A72"/>
<path d="M129.87 117.572C139.705 117.7 142.165 119.528 141.234 133.496C136.081 210.822 133.971 232.795 133.535 236.978C133.483 237.479 133.114 237.883 132.622 237.988C129.941 238.553 125.634 238.856 121.855 237.604C121.427 237.462 121.117 237.092 121.063 236.645C120.302 230.39 114.678 183.381 110.892 131.151C110.636 127.621 108.186 123.158 111.763 120.759C115.051 118.555 125.935 117.521 129.87 117.572Z" fill="#637690"/>
<path d="M129.576 117.792C125.458 117.792 115.076 118.806 111.887 120.943C109.376 122.628 109.972 125.324 110.602 128.178C110.82 129.168 111.046 130.19 111.114 131.136C114.917 183.598 120.643 231.346 121.283 236.617C121.327 236.98 121.573 237.277 121.925 237.393C126.415 238.881 131.212 238.058 132.575 237.77C132.976 237.686 133.273 237.358 133.316 236.955C133.689 233.365 135.813 211.51 141.013 133.481C141.518 125.899 140.99 122.16 139.13 120.146C137.386 118.258 134.413 117.854 129.867 117.794C129.775 117.793 129.677 117.792 129.576 117.792ZM127.742 238.701C125.918 238.701 123.823 238.49 121.785 237.815C121.276 237.646 120.907 237.197 120.843 236.671C120.202 231.398 114.475 183.641 110.671 131.168C110.606 130.255 110.393 129.293 110.168 128.274C109.533 125.399 108.878 122.427 111.64 120.575C114.982 118.335 125.936 117.29 129.873 117.351C134.54 117.412 137.604 117.839 139.455 119.845C141.409 121.96 141.97 125.792 141.456 133.511C136.255 211.548 134.13 233.41 133.756 237.001C133.694 237.597 133.257 238.08 132.668 238.204C131.893 238.368 130.032 238.701 127.742 238.701Z" fill="#3B3348"/>
<path d="M129.986 236.256C129.863 236.256 129.763 236.158 129.763 236.035C129.763 217.166 130.05 203.999 130.303 192.382C130.672 175.49 130.962 162.148 130.243 139.362C130.239 139.24 130.335 139.137 130.458 139.134C130.581 139.14 130.683 139.227 130.686 139.348C131.406 162.146 131.115 175.493 130.746 192.393C130.494 204.007 130.206 217.171 130.206 236.035C130.206 236.158 130.108 236.256 129.986 236.256Z" fill="#3B3348"/>
<path d="M104.148 194.672C105.569 188.581 108.435 182.93 112.468 178.15C127.522 160.307 146.837 141.93 143.015 127.366C140.439 117.546 119.687 115.505 109.534 115.431C110.137 119.858 112.963 125.814 110.195 131.049C103.15 144.378 95.0415 161.265 90.3189 171.756C84.6073 184.445 84.9881 197.262 82.7884 232.459C82.7485 233.097 83.2332 233.65 83.8712 233.69L93.9137 234.305C94.4769 234.339 94.9826 233.963 95.1105 233.414L104.148 194.672Z" fill="#637690"/>
<path d="M109.791 115.655C109.951 116.701 110.225 117.831 110.514 119.023C111.442 122.845 112.493 127.177 110.392 131.152C103.211 144.737 95.0567 161.77 90.5209 171.848C85.8513 182.22 85.27 192.666 83.9954 215.552C83.7186 220.521 83.4046 226.154 83.01 232.474C82.9948 232.724 83.0769 232.966 83.244 233.154C83.409 233.341 83.6364 233.452 83.8842 233.468L93.9275 234.083C94.3918 234.114 94.79 233.809 94.894 233.363L103.932 194.622C105.344 188.566 108.238 182.821 112.299 178.007C114.721 175.135 117.293 172.206 119.781 169.373C132.66 154.701 145.977 139.53 142.801 127.422C140.579 118.95 123.691 115.793 109.791 115.655ZM93.9871 234.529L93.9006 234.526L83.8573 233.91C83.4911 233.888 83.1546 233.724 82.9112 233.448C82.6663 233.171 82.5442 232.815 82.5675 232.446C82.9621 226.128 83.2753 220.496 83.5521 215.527C84.8296 192.584 85.4131 182.114 90.1161 171.666C94.6549 161.582 102.814 144.538 110 130.945C112.022 127.118 110.993 122.873 110.083 119.127C109.767 117.827 109.47 116.6 109.315 115.461L109.28 115.208L109.536 115.21C114.642 115.246 140.264 116.004 143.23 127.31C146.466 139.646 133.069 154.907 120.114 169.666C117.628 172.498 115.058 175.425 112.638 178.293C108.621 183.053 105.761 188.734 104.364 194.722L104.148 194.672L104.364 194.722L95.3263 233.464C95.1803 234.092 94.6244 234.529 93.9871 234.529Z" fill="#3B3348"/>
<path d="M92.4518 232.013C92.305 231.998 92.2171 231.889 92.2309 231.767C93.6799 218.544 99.5143 191.941 103.727 181.808C105.966 176.421 111.473 170.314 117.303 163.848C128.419 151.522 141.018 137.552 136.824 122.97C136.79 122.853 136.858 122.73 136.976 122.696C137.095 122.662 137.216 122.73 137.251 122.847C141.513 137.666 128.826 151.734 117.633 164.145C111.828 170.582 106.346 176.661 104.136 181.978C99.9372 192.082 94.1173 218.62 92.6713 231.816C92.6589 231.93 92.563 232.013 92.4518 232.013Z" fill="#3B3348"/>
<path d="M136.775 135.683L136.682 135.662C132.52 133.751 132.251 128.223 132.122 125.567L132.106 125.256C132.101 125.134 132.194 125.03 132.317 125.024C132.448 125.014 132.543 125.113 132.55 125.234L132.565 125.545C132.69 128.114 132.95 133.46 136.868 135.259C136.979 135.31 137.027 135.441 136.977 135.553C136.939 135.634 136.859 135.683 136.775 135.683Z" fill="#3B3348"/>
<path d="M113.335 81.8045C113.93 80.1586 120.574 74.6192 122.048 74.6279C127.574 74.6613 136.012 72.7582 136.012 72.7582C141.964 78.7118 144.108 102.501 144.31 129.284L116.201 129.911C111.771 130.009 108.1 126.497 108.008 122.067C107.807 112.362 108.346 95.6046 113.335 81.8045Z" fill="#FFFFF7"/>
<path d="M113.544 81.8799C108.486 95.8712 108.044 113.061 108.23 122.062C108.274 124.145 109.126 126.085 110.63 127.526C112.134 128.967 114.104 129.734 116.196 129.689L144.087 129.068C143.836 97.6399 141.021 78.2641 135.939 73.0015C134.893 73.2312 127.318 74.8502 122.19 74.8502L122.044 74.8494C120.703 74.8494 114.116 80.2958 113.544 81.8799ZM116.017 130.134C113.883 130.134 111.868 129.325 110.323 127.845C108.733 126.324 107.832 124.272 107.787 122.072C107.599 113.039 108.044 95.7884 113.127 81.7288C113.703 80.1338 120.361 74.4062 122.045 74.4062H122.191C127.631 74.4062 135.879 72.5612 135.962 72.5423L136.081 72.5154L136.168 72.6019C142.777 79.2102 144.365 107.072 144.533 129.283L144.534 129.501L116.206 130.133L116.017 130.134Z" fill="#0075FF"/>
<path d="M82.6145 86.3333L87.7252 90.2544L82.3318 95.0605C74.6306 84.2572 74.6662 84.7397 73.6533 82.2131C70.7095 74.873 69.4618 72.4154 69.7707 70.7404C69.8768 70.1678 70.6325 70.0189 70.9762 70.489C72.4332 72.4794 72.6977 78.2934 76.6856 80.4654C77.2444 80.7692 77.9181 80.3056 77.8461 79.6726C77.6688 78.1212 76.7212 76.4506 76.8862 75.0605C76.9392 74.6165 77.514 74.4421 77.8069 74.7785C79.3765 76.5756 80.8821 81.6782 81.5361 84.6452C81.6844 85.3174 82.0673 85.914 82.6145 86.3333Z" fill="#F99889"/>
<path d="M67.1047 61.0653C66.8024 60.6402 66.1353 60.9199 66.2283 61.433C66.4986 62.9154 68.4003 65.8504 69.0063 66.8982C71.5817 71.3462 73.2537 76.6254 76.1618 80.8212C76.4743 81.2724 77.4488 80.7943 77.2947 80.2682C75.8406 75.2956 69.2549 64.0918 67.1047 61.0653Z" fill="#514342"/>
<path d="M121.565 73.3228C119.673 74.3634 115.987 81.2798 116.62 84.4713C120.744 105.273 112.778 120.995 118.38 141.448C120.796 150.272 122.899 150.94 125.317 164.605C125.963 168.26 129.612 170.473 133.197 169.516C141.76 167.233 154.296 173.667 158.262 172.072C163.364 170.019 169.682 142.759 153.82 113.89C147.487 102.363 143.195 95.7303 140.841 75.9032C139.259 62.587 129.829 68.7746 121.565 73.3228Z" fill="#0075FF"/>
<path d="M137.363 168.803C141.341 168.803 145.671 169.866 149.345 170.768C153.198 171.714 156.524 172.532 158.178 171.866C159.305 171.412 160.508 169.592 161.479 166.873C164.367 158.784 166.442 137.324 153.626 113.998C153.2 113.222 152.783 112.468 152.376 111.732C146.622 101.334 142.822 94.4653 140.619 75.9295C140.151 71.9757 138.982 69.574 137.05 68.5872C133.641 66.8461 128.336 69.8044 123.206 72.6645C122.692 72.9516 122.18 73.2372 121.672 73.5169C119.793 74.551 116.235 81.3911 116.837 84.4286C118.793 94.2923 118.031 103.101 117.295 111.62C116.449 121.402 115.65 130.642 118.594 141.389C119.5 144.699 120.372 146.881 121.215 148.991C122.66 152.608 124.023 156.023 125.535 164.568C125.83 166.232 126.776 167.648 128.199 168.556C129.65 169.481 131.451 169.753 133.14 169.302C134.465 168.949 135.89 168.803 137.363 168.803ZM156.619 172.548C154.735 172.548 152.133 171.909 149.24 171.199C144.255 169.975 138.051 168.452 133.255 169.731C131.446 170.213 129.515 169.921 127.96 168.929C126.431 167.955 125.415 166.433 125.099 164.645C123.595 156.146 122.238 152.751 120.803 149.156C119.955 147.035 119.079 144.84 118.166 141.506C115.201 130.683 116.041 120.972 116.852 111.582C117.587 103.094 118.346 94.3163 116.403 84.5143C115.757 81.2654 119.442 74.2378 121.457 73.1282C121.965 72.8491 122.478 72.5635 122.991 72.2772C128.222 69.3604 133.63 66.3433 137.252 68.1926C139.326 69.2514 140.572 71.7649 141.06 75.8771C143.251 94.3265 147.035 101.166 152.764 111.517C153.171 112.254 153.588 113.008 154.015 113.784C159.447 123.671 162.842 134.52 163.834 145.157C164.606 153.442 163.9 161.412 161.897 167.022C160.869 169.903 159.607 171.769 158.344 172.277C157.873 172.466 157.292 172.548 156.619 172.548Z" fill="#103560"/>
<path d="M133.277 164.485C133.197 164.485 133.12 164.442 133.08 164.365C121.414 141.552 121.412 135.223 121.41 124.739C121.41 123.577 121.409 122.361 121.393 121.063C121.374 119.409 121.178 116.474 120.931 112.758C120.051 99.5395 118.719 79.5634 122.187 76.2433C122.776 75.6801 124.087 75.316 125.748 74.8553C129.345 73.8569 134.27 72.4908 135.19 68.1097C135.215 67.9898 135.334 67.912 135.452 67.9382C135.572 67.9636 135.649 68.0813 135.624 68.2012C134.649 72.8454 129.573 74.2544 125.867 75.2826C124.329 75.7092 123.001 76.0783 122.494 76.5637C119.176 79.74 120.551 100.39 121.373 112.729C121.622 116.452 121.817 119.392 121.837 121.058C121.853 122.358 121.853 123.575 121.853 124.739C121.856 135.511 121.857 141.444 133.475 164.163C133.53 164.272 133.487 164.405 133.378 164.461L133.277 164.485Z" fill="#103560"/>
<path d="M125.052 88.6142C124.073 92.8194 121.101 96.2333 118.231 99.459C112.171 106.269 106.795 113.168 104.259 115.797C101.909 118.232 97.9868 118.155 95.7363 115.629L78.1067 91.6204C77.8952 91.3334 77.8567 90.9482 78.0253 90.6343C79.1487 88.5408 82.0052 86.2518 83.4302 85.4859C83.8088 85.2831 84.2732 85.3623 84.5645 85.6784C85.858 87.0824 90.1592 91.7643 97.9534 100.389C98.6009 101.105 99.7599 100.981 100.242 100.144C121.568 63.1307 126.572 82.0902 125.052 88.6142Z" fill="#0075FF"/>
<path d="M83.8727 85.597C83.7579 85.597 83.6417 85.6247 83.5356 85.6813C82.0423 86.4829 79.2904 88.7457 78.2207 90.7389C78.0957 90.9715 78.1212 91.2665 78.2847 91.4896L95.9151 115.497C96.9484 116.656 98.3908 117.32 99.9626 117.352C101.552 117.387 103.005 116.776 104.1 115.643C105.326 114.371 107.191 112.132 109.551 109.297C111.956 106.409 114.948 102.815 118.065 99.3114C120.774 96.2674 123.845 92.8165 124.836 88.5633C125.591 85.3267 124.682 79.6246 121.593 78.4059C118.986 77.3763 112.769 78.8463 100.435 100.255C100.168 100.716 99.7119 101.013 99.1822 101.069C98.6539 101.124 98.1452 100.932 97.7884 100.538C90.1315 92.0644 85.8762 87.429 84.4018 85.8289C84.2615 85.677 84.0689 85.597 83.8727 85.597ZM100.073 117.796L99.9532 117.795C98.2564 117.761 96.6999 117.044 95.5706 115.776L77.9272 91.7519C77.6627 91.3915 77.6241 90.9119 77.8298 90.5289C78.9401 88.4601 81.7843 86.1188 83.3256 85.2911C83.7921 85.0404 84.3683 85.1378 84.728 85.528C86.2024 87.1289 90.46 91.7657 98.1183 100.24C98.3785 100.529 98.7498 100.669 99.1349 100.628C99.523 100.587 99.8558 100.37 100.049 100.033C111.926 79.4226 118.41 76.6736 121.755 77.9932C125.363 79.4167 125.96 85.6966 125.268 88.6643C124.251 93.0272 121.141 96.5225 118.396 99.6065C115.284 103.105 112.295 106.695 109.892 109.581C107.526 112.423 105.657 114.668 104.418 115.951C103.283 117.128 101.705 117.796 100.073 117.796Z" fill="#103560"/>
<path d="M127.837 142.951C128.04 143.673 128.306 143.764 128.896 143.613C133.904 142.332 138.867 140.871 143.77 139.234C145.708 138.588 143.138 131.104 142.505 129.534C142.188 128.745 129.746 132.33 126.049 134.951C126.049 134.951 126.364 137.725 127.837 142.951Z" fill="#0075FF"/>
<path d="M128.05 142.891C128.218 143.488 128.358 143.523 128.84 143.398C133.824 142.125 138.823 140.652 143.701 139.024C143.862 138.97 143.985 138.847 144.078 138.648C144.83 137.018 143.068 131.541 142.317 129.661C141.323 129.314 130.051 132.482 126.286 135.056C126.368 135.663 126.776 138.368 128.05 142.891ZM128.497 143.894C128.045 143.894 127.797 143.627 127.623 143.011C126.163 137.829 125.833 135.005 125.829 134.977L125.814 134.846L125.921 134.771C129.43 132.283 140.999 128.816 142.451 129.24C142.615 129.289 142.683 129.382 142.711 129.451C142.739 129.522 145.491 136.644 144.48 138.833C144.336 139.145 144.121 139.351 143.841 139.445C138.953 141.077 133.944 142.551 128.951 143.828C128.779 143.872 128.629 143.894 128.497 143.894Z" fill="#103560"/>
<path d="M125.924 134.554L125.242 132.382C125.098 131.925 141.682 126.669 141.916 127.481L142.396 129.153C142.52 129.586 126.178 135.362 125.924 134.554Z" fill="#FFFFF7"/>
<path d="M125.736 132.542L126.261 134.213C128.123 134.158 140.126 129.967 141.911 128.996L141.57 127.814C139.743 127.826 127.555 131.644 125.736 132.542ZM126.139 135.058C125.683 135.058 125.588 134.896 125.521 134.681L124.763 132.274L124.949 132.052C125.651 131.301 140.33 126.621 141.913 127.002C142.209 127.073 142.298 127.279 142.322 127.365L142.802 129.037C142.928 129.475 142.976 129.637 138.153 131.408C135.403 132.416 132.279 133.469 130.001 134.153C127.781 134.82 126.693 135.058 126.139 135.058Z" fill="#FFFFF7"/>
<path d="M157.623 172.471L157.522 172.446C157.414 172.39 157.369 172.257 157.425 172.148C163.196 160.788 162.752 147.136 156.029 129.185C151.999 118.423 149.566 113.396 147.957 110.069C144.539 103.006 144.335 102.583 139.586 71.5882C139.567 71.4676 139.65 71.3543 139.771 71.3361C139.896 71.3179 140.006 71.4 140.024 71.5214C144.763 102.45 144.966 102.869 148.356 109.875C149.97 113.21 152.407 118.248 156.445 129.029C163.215 147.105 163.652 160.871 157.82 172.349C157.781 172.426 157.703 172.471 157.623 172.471Z" fill="#103560"/>
<path d="M118.684 101.955C118.832 102.103 119.138 102.276 119.267 102.052C119.5 101.588 119.419 100.987 119.085 100.593C119.019 100.515 118.902 100.49 118.809 100.533C118.354 100.745 118.395 101.667 118.684 101.955Z" fill="#103560"/>
<path d="M118.216 110.484C118.365 110.633 118.671 110.806 118.8 110.581C119.033 110.116 118.952 109.517 118.618 109.122C118.552 109.044 118.435 109.02 118.343 109.063C117.888 109.275 117.929 110.196 118.216 110.484Z" fill="#103560"/>
<path d="M117.751 119.013C117.9 119.162 118.206 119.335 118.333 119.11C118.567 118.646 118.486 118.046 118.152 117.651C118.086 117.574 117.969 117.548 117.876 117.591C117.422 117.803 117.463 118.725 117.751 119.013Z" fill="#103560"/>
<path d="M117.727 127.542C117.876 127.691 118.182 127.864 118.311 127.639C118.544 127.175 118.463 126.575 118.129 126.181C118.063 126.103 117.946 126.078 117.854 126.121C117.399 126.333 117.44 127.254 117.727 127.542Z" fill="#103560"/>
<path d="M118.149 136.072C118.298 136.221 118.603 136.393 118.732 136.168C118.966 135.704 118.884 135.105 118.55 134.71C118.484 134.632 118.367 134.607 118.275 134.651C117.82 134.863 117.861 135.783 118.149 136.072Z" fill="#103560"/>
<path d="M101.513 105.745L101.403 105.716C99.7866 104.788 98.8478 102.853 99.1195 101.01C99.1377 100.888 99.2496 100.805 99.3724 100.823C99.4938 100.84 99.5766 100.954 99.5584 101.075C99.3128 102.741 100.162 104.492 101.624 105.33C101.73 105.391 101.767 105.527 101.706 105.633C101.664 105.705 101.589 105.745 101.513 105.745Z" fill="#103560"/>
<path d="M110.743 74.7666L110.576 74.6903C109.57 73.5378 109.304 71.82 109.912 70.4168C109.961 70.3041 110.09 70.2518 110.204 70.3012C110.316 70.3499 110.368 70.4807 110.319 70.5933C109.777 71.8425 110.014 73.3721 110.91 74.3989C110.991 74.4912 110.982 74.6314 110.889 74.7121L110.743 74.7666Z" fill="#103560"/>
<path d="M119.718 52.394C119.088 52.3445 118.784 49.9109 120.311 50.0308C121.127 50.0955 120.749 52.4753 119.718 52.394Z" fill="#382823"/>
<path d="M117.474 59.6526C118.33 59.6126 119.485 59.5886 120.957 59.5523C121.794 59.532 120.477 62.2679 117.903 61.5434C117.676 60.8494 117.598 60.3684 117.474 59.6526Z" fill="white"/>
<path d="M127.421 45.8678C132.561 53.4048 125.307 56.8201 127.204 62.9866C130.071 72.301 136.847 65.2676 136.895 85.8068C136.921 96.8333 141.382 102.331 153.486 103.49C168.042 104.884 177.605 84.1973 172.56 82.4881C163.06 79.269 175.733 68.6001 163.646 60.5951C157.498 56.5236 154.303 52.9288 149.363 40.2121C147.545 35.5345 140.62 29.2125 130.268 31.5502C126.896 32.3118 121.506 34.1568 120.16 37.381C118.452 41.4721 125.382 42.8768 127.421 45.8678Z" fill="#4D3930"/>
<path d="M118.932 48.6529C118.655 48.6943 118.363 48.6456 118.169 48.4909C117.681 48.1043 118.182 47.5687 118.695 47.3071C119.737 46.7774 121.198 46.9707 122.379 47.4161C122.629 47.5106 122.617 47.8725 122.362 47.9531C121.812 48.1268 120.793 48.3724 118.932 48.6529Z" fill="#4D3930"/>
<path d="M138.405 81.2246C138.257 81.2086 138.17 81.0982 138.184 80.9768C138.818 75.5501 135.316 72.4051 131.93 69.3632C128.017 65.8476 123.969 62.2128 127.125 55.1794C129.9 48.9904 126.455 46.1215 123.417 43.5898C121.334 41.8545 119.367 40.2159 120.051 37.7903C120.085 37.6725 120.207 37.6021 120.325 37.6377C120.443 37.6704 120.511 37.7932 120.478 37.9109C119.872 40.0589 121.646 41.537 123.7 43.249C126.704 45.7509 130.442 48.8647 127.529 55.3604C124.507 62.0987 128.257 65.4676 132.226 69.0333C135.697 72.15 139.285 75.3735 138.625 81.0284C138.612 81.141 138.516 81.2246 138.405 81.2246Z" fill="#4D3930"/>
<path d="M154.692 103.501C152.575 103.501 150.298 103.15 147.897 102.285C147.782 102.243 147.722 102.116 147.763 102C147.805 101.885 147.932 101.825 148.047 101.867C155.285 104.476 161.388 102.303 165.235 100.02C171.086 96.5482 175.151 90.801 175.7 87.2505C176.281 83.4995 174.435 82.1602 172.65 80.8653C171.925 80.3385 171.24 79.8407 170.769 79.2005C169.217 77.0954 169.838 74.5549 170.439 72.0995C170.829 70.5088 171.231 68.8644 171.014 67.3929C170.519 64.0168 167.935 62.4087 164.663 60.3718C161.082 58.1424 156.624 55.368 153.931 49.1397C153.668 48.533 153.407 47.8913 153.136 47.2264C150.509 40.7736 146.912 31.9366 132.277 31.9366C132.154 31.9366 132.055 31.8371 132.055 31.715C132.055 31.5922 132.154 31.4926 132.277 31.4926C147.21 31.4926 150.873 40.4895 153.547 47.0586C153.816 47.7206 154.077 48.36 154.338 48.9639C156.976 55.065 161.185 57.6839 164.897 59.9954C168.133 62.0097 170.927 63.7486 171.454 67.3289C171.682 68.8862 171.27 70.5728 170.871 72.2049C170.267 74.6697 169.696 76.9987 171.126 78.9382C171.557 79.5224 172.214 80.0006 172.911 80.5063C174.715 81.8158 176.761 83.2989 176.138 87.3181C175.574 90.9703 171.425 96.8629 165.461 100.402C162.807 101.977 159.1 103.501 154.692 103.501Z" fill="#4D3930"/>
<path d="M127.4 42.0322L127.299 42.0075C125.586 41.1297 123.942 40.0906 122.412 38.9177C121.908 38.5304 121.698 38.0683 121.789 37.5436C122.138 35.5453 127.045 33.3471 128.332 32.9358C128.448 32.8987 128.573 32.9627 128.611 33.0789C128.648 33.1959 128.584 33.3202 128.467 33.3573C126.726 33.9146 122.503 36.0358 122.227 37.6192C122.165 37.9738 122.314 38.2833 122.683 38.5653C124.19 39.7221 125.812 40.7475 127.502 41.6129C127.61 41.6689 127.654 41.8026 127.598 41.9116C127.558 41.9879 127.481 42.0322 127.4 42.0322Z" fill="#382823"/>
<path d="M169.095 86.292L169.019 86.2789C165.341 84.9578 162.624 81.456 162.259 77.5647C162.131 76.2088 162.27 74.8048 162.404 73.4474C162.632 71.1323 162.848 68.9457 161.853 66.9954C160.745 64.8241 158.706 63.8118 156.346 62.639C153.285 61.1188 149.815 59.3951 147.686 54.6028C146.711 52.409 146.319 50.1112 145.939 47.8884C145.335 44.343 144.708 40.6762 141.738 37.1221C140.79 35.9877 138.249 33.4052 135.167 33.9087C135.05 33.9276 134.933 33.8463 134.913 33.7256C134.893 33.605 134.975 33.4909 135.095 33.4706C138.408 32.9314 141.082 35.6448 142.079 36.8372C145.126 40.4836 145.762 44.21 146.377 47.8135C146.769 50.1105 147.139 52.2796 148.091 54.4226C150.156 59.0689 153.549 60.7547 156.543 62.2422C158.873 63.3991 161.074 64.492 162.248 66.7941C163.302 68.86 163.07 71.2144 162.845 73.491C162.714 74.8274 162.577 76.2102 162.701 77.5226C163.05 81.246 165.65 84.5974 169.169 85.8618C169.285 85.9025 169.345 86.0297 169.303 86.1452C169.271 86.236 169.186 86.292 169.095 86.292Z" fill="#382823"/>
<path d="M149.568 96.8628C141.44 95.8346 141.15 84.9149 141.041 80.8042C141.03 80.3798 141.02 80.0201 141.004 79.7411C140.532 71.2274 137.5 68.7066 134.824 66.4823C133.082 65.0341 131.438 63.6665 130.835 60.8543C130.391 58.7789 131.077 56.596 131.741 54.485C132.747 51.2819 133.699 48.2575 130.938 45.6604C130.849 45.5761 130.844 45.4358 130.928 45.3465C131.013 45.2571 131.153 45.2535 131.242 45.337C134.204 48.1252 133.167 51.4258 132.164 54.618C131.518 56.6738 130.849 58.8007 131.269 60.7613C131.839 63.4238 133.353 64.6831 135.108 66.1408C137.853 68.4232 140.964 71.0102 141.447 79.7164C141.462 79.999 141.472 80.3631 141.484 80.7926C141.6 85.1765 141.874 95.4422 149.596 96.421C149.717 96.4363 149.803 96.5474 149.788 96.6695C149.773 96.7807 149.678 96.8628 149.568 96.8628Z" fill="#382823"/>
<path d="M161.452 94.3154C161.348 94.3154 161.255 94.242 161.234 94.1367C160.72 91.5272 158.31 90.419 155.757 89.2455C154.13 88.497 152.448 87.7238 151.33 86.5227C149.54 84.5984 149.059 81.1882 148.501 77.2395C147.736 71.8185 146.784 65.0707 141.944 59.8104C141.861 59.7203 141.866 59.58 141.956 59.4972C142.047 59.4143 142.188 59.4202 142.27 59.5103C147.203 64.8723 148.167 71.695 148.94 77.1777C149.487 81.0523 149.959 84.3986 151.655 86.2196C152.713 87.3576 154.355 88.1119 155.943 88.8422C158.484 90.0106 161.113 91.2198 161.67 94.0509C161.693 94.1708 161.615 94.2878 161.495 94.3111L161.452 94.3154Z" fill="#382823"/>
</svg>
