<svg width="218" height="234" viewBox="0 0 218 234" fill="none" xmlns="http://www.w3.org/2000/svg">
<path d="M90.2414 18.1271L0.000244141 18.1004V82.1686C30.2127 83.782 60.4121 85.0267 90.2414 82.6409V18.1271Z" fill="#C9DCF3"/>
<path d="M0.000244141 91.5066C33.8912 91.4464 65.4747 90.7776 90.2414 89.9747V61.2607C87.5661 61.231 84.8916 60.8935 82.208 60.1287C67.1764 55.8424 54.2359 35.7673 41.7478 35.8473C33.5674 35.8999 28.6397 44.4779 23.4682 50.8164C17.4877 58.1459 9.11385 63.4058 0.000244141 65.9104V91.5066Z" fill="#43C59E"/>
<path d="M90.2414 61.7149C56.6301 63.1295 20.4144 70.6738 0 75.5269L0.000306856 103.855C33.8912 103.795 65.4748 103.126 90.2414 102.324V61.7149Z" fill="#43C59E"/>
<path d="M0.000244141 108.044H90.2414V86.4289C88.1702 86.1585 86.1104 85.6443 84.0598 84.8186C29.0556 62.6845 40.8505 91.48 0.000244141 92.6485V108.044Z" fill="#43C59E"/>
<path d="M46.1104 22.6616C46.1234 23.7958 47.413 23.0592 47.4176 22.5382C47.4244 21.7962 46.099 21.6165 46.1104 22.6616Z" fill="#FFFFF8"/>
<path d="M46.7471 22.171C46.6732 22.171 46.6016 22.1885 46.5422 22.2235C46.383 22.3165 46.351 22.5115 46.3525 22.6592C46.3563 23.0165 46.4866 23.0249 46.549 23.0165C46.8293 23.0165 47.1737 22.6943 47.1752 22.5358C47.1767 22.3766 47.0784 22.286 46.9954 22.238C46.9192 22.1938 46.8316 22.171 46.7471 22.171ZM46.549 23.501C46.2245 23.501 45.8749 23.2816 45.868 22.6646C45.8619 22.1382 46.1346 21.8998 46.2976 21.8053C46.5757 21.6438 46.9444 21.6484 47.2384 21.819C47.5088 21.976 47.6627 22.2388 47.6596 22.5404C47.6558 23.0256 47.0205 23.501 46.5498 23.501H46.549Z" fill="#FFFFF8"/>
<path d="M16.7235 66.6563C16.5118 67.8035 17.9576 67.3145 18.0657 66.7904C18.2189 66.0439 16.9178 65.6005 16.7235 66.6563Z" fill="#FFFFF8"/>
<path d="M17.3735 66.2732C17.3278 66.2732 17.2836 66.2801 17.2432 66.2938C17.0604 66.357 16.9896 66.5497 16.9614 66.6998C16.8936 67.0692 17.0399 67.0974 17.0947 67.1081C17.3788 67.1637 17.7947 66.9032 17.8283 66.7417C17.8633 66.5703 17.765 66.4538 17.7033 66.3997C17.6104 66.3182 17.4885 66.2732 17.3735 66.2732ZM17.1625 67.5979C17.1069 67.5979 17.0528 67.5933 17.0025 67.5834C16.8449 67.553 16.3413 67.3922 16.4853 66.613C16.5828 66.0851 16.902 65.9 17.0833 65.8367C17.3933 65.7286 17.762 65.807 18.0225 66.0348C18.2625 66.245 18.3645 66.5383 18.3028 66.8392C18.2145 67.2719 17.6241 67.5979 17.1625 67.5979Z" fill="#FFFFF8"/>
<path d="M67.6045 55.5806C67.1634 56.7148 68.7418 56.4977 68.9551 55.9812C69.259 55.2454 68.012 54.5354 67.6045 55.5806Z" fill="#FFFFF8"/>
<path d="M67.6046 55.5805L67.8308 55.6681C67.6846 56.0421 67.8362 56.103 67.8933 56.1259C68.1607 56.2341 68.6581 56.0665 68.7312 55.889C68.8028 55.7146 68.7236 55.5721 68.6687 55.502C68.5568 55.3573 68.3724 55.2758 68.2079 55.3002C68.003 55.3299 67.8902 55.5165 67.8308 55.6681L67.6046 55.5805ZM68.0959 56.6416C67.9565 56.6416 67.8247 56.621 67.7128 56.5753C67.5596 56.5144 67.082 56.2546 67.3791 55.4921C67.581 54.9749 67.9405 54.8492 68.137 54.8203C68.473 54.7715 68.831 54.9224 69.0511 55.205C69.2538 55.464 69.3002 55.7808 69.1791 56.0733C69.0313 56.4321 68.5301 56.6416 68.0959 56.6416Z" fill="#FFFFF8"/>
<path d="M74.3535 30.1974C73.8591 31.4665 75.6249 31.2228 75.864 30.6453C76.2038 29.8227 74.809 29.0289 74.3535 30.1974Z" fill="#FFFFF8"/>
<path d="M74.5789 30.2853C74.406 30.7309 74.5942 30.8064 74.665 30.8345C74.9834 30.9625 75.5517 30.7675 75.64 30.5534C75.7261 30.3447 75.6309 30.1756 75.5661 30.0926C75.4336 29.9227 75.2173 29.8275 75.023 29.8549C74.8311 29.8831 74.6779 30.0324 74.5789 30.2853ZM74.9088 31.3594C74.7595 31.3594 74.614 31.3358 74.4852 31.284C74.3192 31.2177 73.805 30.9374 74.1272 30.1094C74.3481 29.5441 74.7389 29.407 74.9529 29.3758C75.3186 29.3217 75.7086 29.487 75.9485 29.7947C76.1679 30.0766 76.219 30.4209 76.0879 30.7378C75.9363 31.1034 75.4001 31.3594 74.9088 31.3594Z" fill="#FFFFF8"/>
<path d="M83.7596 20.4655C83.1197 22.1093 85.408 21.7947 85.7165 21.0459C86.1568 19.9795 84.3492 18.9511 83.7596 20.4655Z" fill="#FFFFF8"/>
<path d="M83.9858 20.553C83.7352 21.1959 84.0376 21.317 84.1374 21.3574C84.5883 21.5387 85.3653 21.2629 85.4925 20.9536C85.6182 20.6497 85.4803 20.4044 85.3874 20.2848C85.2 20.0457 84.8907 19.9101 84.6165 19.9512C84.3415 19.9916 84.1237 20.1995 83.9858 20.553ZM84.471 21.8975C84.2874 21.8975 84.1115 21.8685 83.9568 21.8061C83.758 21.7268 83.141 21.3886 83.5341 20.377C83.7359 19.8598 84.0955 19.5376 84.5464 19.4721C84.9928 19.4065 85.4742 19.6084 85.7698 19.987C86.0379 20.3313 86.1004 20.751 85.9404 21.138C85.7576 21.5806 85.0797 21.8975 84.471 21.8975Z" fill="#FFFFF8"/>
<path d="M88.1236 37.8919C88.9904 39.2357 86.9017 39.3713 86.4911 38.7619C85.9069 37.895 87.326 36.6541 88.1236 37.8919Z" fill="#FFFFF8"/>
<path d="M87.3025 37.6116C87.2926 37.6116 87.282 37.6124 87.2713 37.6132C87.0291 37.6269 86.7853 37.7967 86.6657 38.0374C86.6078 38.1555 86.5324 38.3894 86.6924 38.6263C86.8569 38.8708 87.5798 38.9698 87.9378 38.7329C88.0148 38.6826 88.2471 38.5295 87.9203 38.023C87.7466 37.7533 87.5341 37.6116 87.3025 37.6116ZM87.3924 39.3545C86.9407 39.3545 86.489 39.1915 86.2902 38.8974C86.0738 38.5752 86.0525 38.1829 86.233 37.8211C86.4296 37.4242 86.8264 37.1523 87.2446 37.1294C87.4884 37.1142 87.9538 37.1797 88.3278 37.7602C88.8717 38.6042 88.3713 39.0277 88.2044 39.1374C87.9813 39.2852 87.6865 39.3545 87.3924 39.3545Z" fill="#FFFFF8"/>
<path d="M24.9154 21.743C25.575 22.766 23.9845 22.8689 23.6722 22.4057C23.2273 21.7453 24.3083 20.8007 24.9154 21.743Z" fill="#FFFFF8"/>
<path d="M24.2902 21.5875C24.2833 21.5875 24.2765 21.5882 24.2689 21.5882C24.1051 21.5981 23.939 21.7147 23.8575 21.8792C23.8187 21.9585 23.7684 22.1138 23.8735 22.27C23.9809 22.43 24.5012 22.494 24.7419 22.3355C24.7929 22.3012 24.9301 22.2114 24.7122 21.8739C24.6269 21.7421 24.486 21.5875 24.2902 21.5875ZM24.3511 22.9106C23.9992 22.9106 23.6404 22.791 23.4713 22.5404C23.2946 22.2784 23.2771 21.9585 23.4233 21.6637C23.5825 21.343 23.904 21.1236 24.2422 21.1045C24.4403 21.0946 24.8181 21.1449 25.119 21.6119C25.5623 22.299 25.1464 22.6486 25.0093 22.7393C24.8379 22.852 24.5964 22.9106 24.3511 22.9106Z" fill="#FFFFF8"/>
<path d="M84.9723 55.463C85.632 56.486 84.0415 56.5888 83.7291 56.1257C83.2843 55.4653 84.3644 54.5207 84.9723 55.463Z" fill="#FFFFF8"/>
<path d="M84.3468 55.3077C84.34 55.3077 84.3331 55.3077 84.3263 55.3085C84.161 55.3176 83.9957 55.4342 83.9142 55.5995C83.8745 55.6779 83.8243 55.8341 83.9301 55.9903C84.0383 56.1502 84.5578 56.2142 84.7985 56.055C84.8503 56.0215 84.9859 55.9316 84.7688 55.5941C84.6835 55.4624 84.5418 55.3077 84.3468 55.3077ZM84.4078 56.6301C84.0558 56.6301 83.6963 56.5105 83.5279 56.2607C83.3512 55.9979 83.3337 55.6787 83.48 55.3839C83.6399 55.0632 83.9614 54.8438 84.2996 54.8248C84.4961 54.8149 84.8747 54.8652 85.1756 55.3321C85.6189 56.0184 85.2038 56.3688 85.0651 56.4595C84.8945 56.5722 84.653 56.6301 84.4078 56.6301Z" fill="#FFFFF8"/>
<path d="M67.4127 21.3202C67.3235 20.2294 66.1337 21.0254 66.1641 21.5266C66.2083 22.2404 67.4942 22.3234 67.4127 21.3202Z" fill="#FFFFF8"/>
<path d="M66.9868 21.0153C66.9792 21.0153 66.9724 21.0161 66.967 21.0169C66.708 21.0344 66.3972 21.3657 66.4056 21.5112C66.4148 21.6605 66.513 21.739 66.5945 21.7786C66.7347 21.8479 66.9061 21.8411 67.0219 21.7626C67.1658 21.6643 67.1818 21.4785 67.1712 21.3391C67.1468 21.0428 67.044 21.0153 66.9868 21.0153ZM66.8002 22.3103C66.657 22.3103 66.513 22.2783 66.3812 22.2136C66.1078 22.0795 65.9402 21.8342 65.9227 21.541C65.8937 21.0702 66.4765 20.5659 66.9327 20.5331C67.2496 20.5095 67.6046 20.7 67.6534 21.3002C67.6952 21.8098 67.4469 22.0589 67.2946 22.1633C67.1514 22.26 66.9769 22.3103 66.8002 22.3103Z" fill="#FFFFF8"/>
<path d="M74.5012 45.1711C74.3146 46.1858 75.5936 45.7531 75.6888 45.29C75.8252 44.6288 74.6734 44.2372 74.5012 45.1711Z" fill="#FFFFF8"/>
<path d="M74.7399 45.2146C74.6843 45.514 74.7901 45.5346 74.8358 45.5437C75.0674 45.5886 75.4247 45.3715 75.4521 45.2413C75.4788 45.1095 75.4125 45.0181 75.35 44.9648C75.2441 44.8718 75.088 44.836 74.9707 44.8772C74.8221 44.9282 74.7627 45.0889 74.7399 45.2146ZM74.8884 46.032C74.8381 46.032 74.7894 46.0274 74.7429 46.019C74.4428 45.9604 74.1586 45.6953 74.2638 45.1278C74.3521 44.6464 74.6446 44.4772 74.8107 44.4194C75.0948 44.3211 75.4315 44.3919 75.6692 44.6007C75.8893 44.7934 75.9838 45.0623 75.9267 45.3388C75.8452 45.7341 75.3081 46.032 74.8884 46.032Z" fill="#FFFFF8"/>
<path d="M57.3834 34.2409C57.1625 35.4376 58.6722 34.928 58.785 34.3803C58.945 33.6003 57.5868 33.1387 57.3834 34.2409Z" fill="#FFFFF8"/>
<path d="M57.6217 34.2843C57.5486 34.6797 57.7086 34.7109 57.7688 34.7223C58.0506 34.7779 58.5092 34.5205 58.5473 34.3315C58.5854 34.1472 58.4802 34.0223 58.414 33.9636C58.2753 33.8433 58.078 33.7976 57.9226 33.8516C57.7269 33.9194 57.6507 34.1243 57.6217 34.2843ZM57.8427 35.2129C57.7848 35.2129 57.7292 35.2083 57.6766 35.1976C57.5143 35.1664 56.9971 35.0011 57.1449 34.1967C57.2454 33.6505 57.5753 33.4593 57.7634 33.3938C58.0841 33.2834 58.4635 33.3641 58.7331 33.5995C58.9799 33.8166 59.0858 34.119 59.0218 34.4291C58.9304 34.8762 58.3203 35.2129 57.8427 35.2129Z" fill="#FFFFF8"/>
<path d="M36.9954 29.3627C36.7112 30.9045 38.656 30.2478 38.8007 29.5425C39.0071 28.5385 37.2574 27.942 36.9954 29.3627Z" fill="#FFFFF8"/>
<path d="M37.233 29.4063C37.1271 29.9837 37.3922 30.0355 37.479 30.0522C37.8926 30.1322 38.5058 29.7749 38.5637 29.4939C38.6193 29.2219 38.4655 29.0391 38.3687 28.9538C38.1722 28.7816 37.8903 28.7192 37.6664 28.7961C37.4424 28.8738 37.2931 29.0848 37.233 29.4063ZM37.6039 30.5474C37.5293 30.5474 37.4569 30.5413 37.3868 30.5276C37.1934 30.4902 36.5779 30.2914 36.7569 29.3187C36.881 28.6506 37.2802 28.4183 37.5072 28.3383C37.8949 28.2035 38.3588 28.3017 38.6879 28.5897C38.9873 28.8517 39.1152 29.2166 39.0383 29.5914C38.9347 30.0964 38.2217 30.5474 37.6039 30.5474Z" fill="#FFFFF8"/>
<path d="M37.6412 62.6433C38.745 63.8004 36.7187 64.3268 36.2015 63.8057C35.4649 63.0638 36.625 61.5784 37.6412 62.6433Z" fill="#FFFFF8"/>
<path d="M36.8871 62.5139C36.8414 62.5139 36.7957 62.5192 36.7507 62.5307C36.5153 62.5893 36.3082 62.8026 36.2365 63.0609C36.2007 63.1881 36.171 63.4318 36.3729 63.6352C36.5801 63.8439 37.3091 63.8051 37.6168 63.5049C37.6823 63.4417 37.8819 63.2475 37.466 62.811C37.2786 62.6145 37.0813 62.5139 36.8871 62.5139ZM36.8475 64.2515C36.5207 64.2515 36.2137 64.1616 36.0294 63.9757C35.7559 63.7007 35.6614 63.3198 35.7696 62.9306C35.8892 62.5033 36.2282 62.162 36.6334 62.0607C36.8696 62.0013 37.3388 61.9754 37.8164 62.4766C38.5096 63.2033 38.0975 63.7137 37.9551 63.8523C37.6854 64.1144 37.2512 64.2515 36.8475 64.2515Z" fill="#FFFFF8"/>
<path d="M56.1173 59.6231C56.9575 60.5037 55.415 60.9043 55.0212 60.5075C54.4606 59.9423 55.3434 58.8118 56.1173 59.6231Z" fill="#FFFFF8"/>
<path d="M55.5431 59.582C55.5134 59.582 55.4837 59.585 55.454 59.5926C55.294 59.633 55.1531 59.7785 55.1035 59.9552C55.0799 60.0405 55.0609 60.2028 55.1934 60.3361C55.329 60.4732 55.8516 60.4382 56.058 60.2371C56.1022 60.1944 56.2195 60.0809 55.9415 59.7899C55.8463 59.6901 55.7053 59.582 55.5431 59.582ZM55.5004 60.9028C55.246 60.9028 55.0045 60.8343 54.8491 60.6781C54.6259 60.4534 54.549 60.1426 54.6374 59.8257C54.7333 59.4807 55.0076 59.2049 55.3366 59.1226C55.5286 59.0746 55.9095 59.0541 56.2926 59.4555C56.8571 60.0474 56.5143 60.4694 56.397 60.5844C56.1936 60.7817 55.8363 60.9028 55.5004 60.9028Z" fill="#FFFFF8"/>
<path d="M46.0532 46.3581C45.5779 47.5784 47.2773 47.3454 47.5074 46.7893C47.8334 45.9978 46.492 45.2338 46.0532 46.3581Z" fill="#FFFFF8"/>
<path d="M46.2794 46.4456C46.1156 46.8653 46.2915 46.9362 46.3571 46.9621C46.6602 47.0847 47.1995 46.8996 47.2826 46.697C47.3641 46.5005 47.2742 46.3405 47.2133 46.2628C47.0876 46.1013 46.8827 46.0099 46.6991 46.0373C46.4706 46.0708 46.3449 46.278 46.2794 46.4456ZM46.5871 47.4846C46.4424 47.4846 46.3014 47.4618 46.1773 47.4123C46.0158 47.3475 45.5146 47.074 45.8276 46.2704C46.0417 45.7212 46.4218 45.5886 46.629 45.5589C46.9847 45.5064 47.3626 45.6663 47.5957 45.9649C47.8089 46.2384 47.8585 46.5728 47.7305 46.8813C47.5842 47.2363 47.0632 47.4846 46.5871 47.4846Z" fill="#FFFFF8"/>
<path d="M19.5939 35.7149C19.0287 37.1661 21.0489 36.8888 21.3223 36.2276C21.7108 35.2861 20.115 34.3781 19.5939 35.7149Z" fill="#FFFFF8"/>
<path d="M19.82 35.8027C19.609 36.3443 19.8558 36.4433 19.9373 36.476C20.3243 36.6307 20.9893 36.3976 21.0975 36.1348C21.2033 35.8803 21.0876 35.6739 21.0091 35.5734C20.8499 35.3692 20.5871 35.255 20.3548 35.2892C20.1224 35.3228 19.9373 35.5002 19.82 35.8027ZM20.2329 37.01C20.0653 37.01 19.9015 36.9841 19.7576 36.9262C19.5755 36.8531 19.011 36.5438 19.3683 35.6267C19.6136 34.9967 20.0478 34.8444 20.2847 34.8093C20.6892 34.7507 21.1241 34.9327 21.3915 35.2755C21.6345 35.5878 21.6909 35.9687 21.5454 36.3199C21.3778 36.7259 20.7806 37.01 20.2329 37.01Z" fill="#FFFFF8"/>
<path d="M5.9035 21.5312C5.52888 22.4918 6.86673 22.3082 7.04765 21.8702C7.30497 21.2471 6.24835 20.6461 5.9035 21.5312Z" fill="#FFFFF8"/>
<path d="M6.46131 21.3263C6.44737 21.3263 6.43275 21.3278 6.41881 21.3293C6.26349 21.3522 6.17566 21.4992 6.12927 21.6187C6.01889 21.9014 6.11883 21.9417 6.16111 21.9585C6.38453 22.0484 6.77317 21.9014 6.82345 21.778C6.87464 21.6538 6.82581 21.5517 6.77553 21.4877C6.69852 21.3887 6.57443 21.3263 6.46131 21.3263ZM6.31521 22.4658C6.19409 22.4658 6.07869 22.4475 5.98111 22.4087C5.6969 22.2944 5.46807 21.9814 5.67755 21.4428C5.85488 20.9873 6.17421 20.8753 6.34857 20.8502C6.64703 20.8075 6.96361 20.9393 7.15763 21.1891C7.33763 21.4199 7.37899 21.7018 7.27158 21.9631C7.14033 22.2799 6.69791 22.4658 6.31521 22.4658Z" fill="#FFFFF8"/>
<path d="M5.49309 62.3791C4.99887 63.6482 6.7649 63.4059 7.00348 62.8278C7.34329 62.0043 5.94808 61.2106 5.49309 62.3791Z" fill="#FFFFF8"/>
<path d="M6.23101 62.0325C6.20808 62.0325 6.18484 62.0332 6.16252 62.0371C5.97064 62.0652 5.81707 62.2138 5.71888 62.4674C5.54513 62.9123 5.73404 62.9877 5.80488 63.0167C6.12238 63.1439 6.69194 62.9496 6.77969 62.7348C6.866 62.5269 6.77077 62.357 6.70587 62.274C6.58834 62.1239 6.40476 62.0325 6.23101 62.0325ZM6.04826 63.5415C5.89888 63.5415 5.75339 63.5179 5.62458 63.4661C5.45943 63.3998 4.94495 63.1187 5.26694 62.2915C5.48708 61.7263 5.879 61.5891 6.09229 61.5579C6.458 61.5046 6.84779 61.6684 7.08797 61.9761C7.30758 62.258 7.35869 62.6023 7.22752 62.9199C7.07631 63.2856 6.53981 63.5415 6.04826 63.5415Z" fill="#FFFFF8"/>
<path d="M27.5449 50.8469C27.0018 52.2409 28.942 51.9743 29.2032 51.3398C29.5773 50.4356 28.0446 49.5634 27.5449 50.8469Z" fill="#FFFFF8"/>
<path d="M27.7706 50.9354C27.5718 51.4465 27.8026 51.5387 27.8788 51.5691C28.2383 51.7139 28.8797 51.4907 28.9803 51.2469C29.0793 51.007 28.9696 50.8119 28.8957 50.7175C28.7449 50.524 28.4927 50.4151 28.2772 50.4478C28.057 50.4798 27.8826 50.6482 27.7706 50.9354ZM28.1568 52.1008C27.9946 52.1008 27.8376 52.0749 27.6982 52.0193C27.5215 51.9485 26.9731 51.6483 27.3189 50.7594C27.5566 50.1492 27.977 50.0022 28.2063 49.9687C28.5986 49.9116 29.0191 50.0875 29.2781 50.4189C29.5142 50.7221 29.5683 51.0908 29.4282 51.432C29.2652 51.8251 28.687 52.1008 28.1568 52.1008Z" fill="#FFFFF8"/>
<path d="M7.8127 34.8464C7.33752 36.0675 9.0366 35.8336 9.26603 35.2775C9.59305 34.4853 8.251 33.722 7.8127 34.8464Z" fill="#FFFFF8"/>
<path d="M8.03884 34.9341C7.87522 35.3546 8.0505 35.4246 8.11685 35.4513C8.42063 35.5732 8.95835 35.3881 9.04252 35.1855C9.12349 34.9889 9.03361 34.829 8.9732 34.7513C8.84706 34.5898 8.64116 34.4991 8.45902 34.5266C8.23019 34.5601 8.10405 34.7665 8.03884 34.9341ZM8.34682 35.9739C8.20193 35.9739 8.06086 35.9503 7.93624 35.9008C7.77521 35.836 7.27443 35.5633 7.58743 34.7589C7.8011 34.2104 8.18137 34.0771 8.38848 34.0467C8.74407 33.9956 9.12258 34.1548 9.35499 34.4534C9.56828 34.7269 9.61802 35.0613 9.49035 35.3706C9.34425 35.7248 8.82291 35.9739 8.34682 35.9739Z" fill="#FFFFF8"/>
<path d="M11.8783 48.712C12.5767 49.7959 10.8921 49.9049 10.5615 49.4143C10.0902 48.715 11.2346 47.7141 11.8783 48.712Z" fill="#FFFFF8"/>
<path d="M11.2155 48.5334C11.2084 48.5334 11.2003 48.5334 11.1923 48.5342C11.0132 48.5441 10.8329 48.6713 10.7442 48.8495C10.7013 48.9364 10.6466 49.107 10.7623 49.2784C10.8789 49.4521 11.4416 49.5221 11.702 49.3515C11.7598 49.3134 11.9127 49.2121 11.6747 48.8434C11.5821 48.7002 11.4289 48.5334 11.2155 48.5334ZM11.2911 49.9365C10.9103 49.9365 10.5285 49.7979 10.3603 49.5488C10.1759 49.2753 10.1574 48.9417 10.3104 48.6347C10.4767 48.2995 10.8123 48.0703 11.1655 48.0505C11.3681 48.039 11.7663 48.0916 12.0814 48.5806C12.5438 49.2974 12.1124 49.6608 11.9689 49.7552C11.7827 49.8786 11.5369 49.9365 11.2911 49.9365Z" fill="#FFFFF8"/>
<path d="M158.594 71.609C152.735 73.2514 148.347 72.6793 125.512 71.5336C133.872 63.1369 138.989 51.5873 139.59 39.7528C139.756 36.5009 140.53 35.9936 142.483 35.468C166.593 28.9748 162.056 27.8619 158.133 41.0744C153.108 57.9959 153.469 60.5637 158.594 71.609Z" fill="#FF9A85"/>
<path d="M142.484 49.0621C139.325 50.674 138.706 50.1629 137.792 50.5262C137.536 51.4403 137.164 52.9409 134.89 58.1703C134.007 60.2027 135.532 61.1282 138.442 58.4103C142.408 54.7082 146.589 56.7367 148.926 53.8086C149.758 52.7657 149.943 51.358 150.543 50.1674C151.524 48.2212 153.536 46.9909 154.692 45.1437C155.538 43.7908 155.881 42.1798 156.667 40.7911C157.251 39.7582 159.314 37.61 158.805 36.3684C158.805 36.3684 146.001 47.2682 142.484 49.0621Z" fill="#EE795C"/>
<path d="M143.873 49.9594C164.548 41.8369 176.166 10.1604 152.129 9.03992C141.547 8.54707 141.407 7.68096 136.208 17.3186C126.38 35.5357 125.772 57.0711 143.873 49.9594Z" fill="#FF9A85"/>
<path d="M145.349 32.5437C146.335 32.7997 148.079 29.2491 145.687 28.6291C144.409 28.2977 143.734 32.1255 145.349 32.5437Z" fill="#382823"/>
<path d="M134.506 29.1051C135.493 29.3602 137.237 25.8098 134.844 25.1897C133.568 24.8583 132.892 28.6861 134.506 29.1051Z" fill="#382823"/>
<path d="M134.59 20.5219C135.521 20.5424 136.529 20.7184 137.529 21.1404C139.041 21.7788 138.536 22.9892 137.291 22.8917C136.032 22.7926 135.616 22.0796 133.931 21.9631L134.59 20.5219Z" fill="#92563A"/>
<path d="M145.469 23.8659C143.865 23.5147 143.578 24.7944 144.651 25.4328C146.087 26.2882 146.937 25.4122 149.58 27.9184C152.485 30.6728 150.481 24.9651 145.469 23.8659Z" fill="#92563A"/>
<path d="M136.035 36.9854C136.025 36.9854 136.017 36.9846 136.007 36.9838C134.943 36.865 134.024 36.2967 133.561 35.8465C133.425 35.7147 133.348 35.5319 133.349 35.3461C133.349 35.1625 133.423 34.9911 133.557 34.8631C134.321 34.1303 136.154 32.1033 136.655 29.1119C136.677 28.9794 136.801 28.891 136.934 28.9123C137.066 28.9344 137.155 29.0594 137.132 29.1919C136.608 32.3265 134.691 34.4464 133.892 35.2128C133.843 35.2592 133.832 35.3118 133.832 35.3484C133.832 35.404 133.856 35.4573 133.898 35.4992C134.307 35.8961 135.119 36.3973 136.06 36.5024C136.194 36.5169 136.29 36.6372 136.275 36.7698C136.261 36.8939 136.156 36.9854 136.035 36.9854Z" fill="#EE795C"/>
<path d="M132.117 40.9535C131.986 40.7951 131.785 40.8842 131.718 41.08C129.983 46.2172 134.264 46.7237 136.589 43.3066C136.66 43.1999 136.563 43.0544 136.44 43.0194C135.663 42.8 132.968 41.9811 132.117 40.9535Z" fill="white"/>
<path d="M189.566 185.432C186.967 164.908 186.794 158.255 170.929 136.314C167.777 131.956 166.199 131.461 161.547 132.078C121.091 137.438 123.369 136.061 122.213 140.456C119.523 150.68 111.241 201.436 109.14 232.869H147.21C149.638 225.036 149.329 213.457 151.402 205.135C151.492 204.773 152.015 204.809 152.059 205.179C153.647 218.714 157.044 224.496 159.264 232.869H194.592C194.742 219.084 193.069 213.081 189.566 185.432Z" fill="#637690"/>
<path d="M159.45 232.628H194.352C194.443 222.986 193.642 217.221 191.903 204.713C191.206 199.694 190.338 193.449 189.326 185.463C189.203 184.483 189.084 183.535 188.968 182.615C186.666 164.193 185.803 157.3 170.732 136.457C167.617 132.148 166.073 131.724 161.579 132.318C153.318 133.413 146.904 134.218 141.748 134.865C123.255 137.188 123.255 137.188 122.594 139.926C122.55 140.111 122.502 140.307 122.447 140.517C119.85 150.39 111.556 200.75 109.399 232.628H147.031C148.284 228.487 148.8 223.226 149.299 218.135C149.741 213.627 150.198 208.965 151.167 205.076C151.235 204.802 151.474 204.626 151.762 204.64C152.046 204.659 152.267 204.868 152.3 205.151C153.382 214.38 155.287 219.93 157.129 225.297C157.966 227.737 158.757 230.044 159.45 232.628ZM194.831 233.112H159.078L159.03 232.932C158.331 230.292 157.524 227.942 156.671 225.454C154.821 220.064 152.907 214.487 151.819 205.208C151.811 205.143 151.766 205.126 151.731 205.124C151.682 205.126 151.649 205.145 151.637 205.194C150.678 209.048 150.221 213.691 149.782 218.183C149.273 223.367 148.747 228.729 147.442 232.942L147.388 233.112H108.881L108.899 232.854C111.029 200.964 119.371 150.305 121.979 140.394C122.033 140.188 122.079 139.994 122.123 139.813C122.862 136.748 122.862 136.748 141.688 134.385C146.841 133.737 153.256 132.932 161.515 131.837C166.166 131.222 167.885 131.692 171.124 136.172C186.269 157.117 187.135 164.044 189.45 182.555C189.564 183.475 189.684 184.422 189.807 185.402C190.819 193.385 191.686 199.628 192.383 204.646C194.139 217.282 194.941 223.05 194.833 232.872L194.831 233.112Z" fill="#3B3348"/>
<path d="M151.87 199.987C151.77 199.987 151.675 199.924 151.641 199.823C143.203 175.204 141.171 147.861 140.951 129.259C140.95 129.125 141.057 129.016 141.191 129.014C141.336 129.007 141.434 129.119 141.436 129.254C141.655 147.821 143.682 175.108 152.1 199.666C152.142 199.792 152.075 199.931 151.949 199.974C151.923 199.983 151.896 199.987 151.87 199.987Z" fill="#3B3348"/>
<path d="M151.916 203.738C151.907 203.738 151.897 203.738 151.888 203.737C151.705 203.726 151.544 203.615 151.468 203.446C148.649 197.216 138.671 186.313 129.659 187.685C129.52 187.705 129.402 187.614 129.383 187.482C129.362 187.35 129.453 187.226 129.585 187.206C138.844 185.797 149.037 196.9 151.909 203.246C154.087 199.627 158.024 195.661 161.487 193.607C161.602 193.54 161.751 193.578 161.819 193.692C161.887 193.808 161.85 193.956 161.734 194.024C158.333 196.041 154.466 199.938 152.331 203.501C152.241 203.65 152.085 203.738 151.916 203.738Z" fill="#3B3348"/>
<path d="M143.211 229.915C143.181 229.915 143.151 229.91 143.122 229.899C142.998 229.849 142.937 229.709 142.986 229.585C144.383 226.055 144.81 222.142 145.223 218.356C145.739 213.634 146.271 208.752 148.7 204.605C148.768 204.489 148.916 204.45 149.032 204.518C149.147 204.586 149.186 204.734 149.119 204.849C146.742 208.907 146.214 213.738 145.704 218.41C145.288 222.225 144.857 226.173 143.437 229.763C143.398 229.857 143.308 229.915 143.211 229.915Z" fill="#3B3348"/>
<path d="M190.281 229.818C190.14 229.812 190.037 229.703 190.039 229.572C190.027 228.809 186.372 159.098 160.973 131.13C160.883 131.031 160.891 130.878 160.99 130.788C161.089 130.699 161.242 130.705 161.332 130.804C174.604 145.418 181.833 171.428 185.559 190.673C189.683 211.965 190.527 229.473 190.523 229.585C190.518 229.715 190.411 229.818 190.281 229.818Z" fill="#3B3348"/>
<path d="M174.358 150.161C174.347 150.161 174.337 150.161 174.326 150.159C173.654 150.071 173.11 150.036 172.63 150.007C169.47 149.809 169.47 149.809 159.608 137.041C158.799 135.993 157.921 134.858 156.97 133.629C156.889 133.523 156.908 133.372 157.014 133.289C157.12 133.207 157.272 133.227 157.354 133.333C158.304 134.561 159.182 135.697 159.991 136.745C169.719 149.339 169.719 149.339 172.659 149.523C173.148 149.553 173.701 149.588 174.389 149.679C174.521 149.697 174.615 149.819 174.597 149.951C174.582 150.073 174.478 150.161 174.358 150.161Z" fill="#3B3348"/>
<path d="M145.293 174.271C145.259 174.271 145.226 174.264 145.194 174.251L144.674 174.019C138.947 171.483 138.947 171.483 137.054 144.892C136.698 139.906 136.296 134.254 135.774 127.408C135.764 127.274 135.864 127.158 135.997 127.147C136.124 127.141 136.247 127.237 136.257 127.371C136.779 134.218 137.182 139.871 137.537 144.858C139.41 171.158 139.41 171.158 144.87 173.576L145.392 173.809C145.514 173.863 145.568 174.006 145.514 174.129C145.474 174.219 145.385 174.271 145.293 174.271Z" fill="#3B3348"/>
<path d="M64.0426 44.8795C68.3053 53.6838 74.1472 62.2526 76.5634 72.2216C76.6944 72.7594 76.0736 73.0923 75.7087 72.6756C68.6161 64.5722 65.6278 55.6475 60.5119 47.1594C60.1851 46.6163 64.134 45.2893 64.0426 44.8795Z" fill="#373535"/>
<path d="M54.9063 36.8582C55.259 44.4101 63.236 42.5735 61.3797 38.3839C60.5044 36.4064 58.3433 36.785 56.8343 27.7728C56.8046 27.5938 56.5601 27.5534 56.4793 27.7164C55.2705 30.154 54.7898 34.3627 54.9063 36.8582Z" fill="#373535"/>
<path d="M58.7378 34.6377C58.0811 33.2803 57.4215 31.2007 56.8471 27.7698C56.8174 27.5908 56.5729 27.5504 56.4921 27.7135C55.4744 29.7664 54.9595 33.0784 54.8955 35.5625C55.2436 35.0963 55.1705 33.9727 55.4996 33.8928C55.8721 33.8021 55.773 34.5402 56.2415 34.8472C56.7146 35.1565 56.8768 34.3041 57.2493 34.1761C57.5738 34.0641 58.3066 35.0422 58.7378 34.6377Z" fill="#EEE4D9"/>
<path d="M59.3547 46.3084C59.5749 46.8698 59.8521 47.4769 60.4029 47.723C61.4945 48.2113 63.6213 46.8622 64.5308 46.1005C65.1158 45.6107 65.1615 45.2488 64.6824 44.4414C62.5906 40.9183 62.5579 39.8252 59.9893 40.9419C57.1045 42.195 58.3363 43.7055 59.3547 46.3084Z" fill="white"/>
<path d="M73.3366 58.7959C72.9618 57.1071 72.3562 56.2174 68.6199 49.7661C68.3921 49.3731 67.884 49.2344 67.4932 49.4652C66.1373 50.2674 65.6422 52.3279 66.0413 53.9634C66.5106 55.8807 67.7652 57.5184 68.3708 59.3977C66.5525 58.0341 65.595 54.3343 63.2777 53.6404C62.6462 53.4515 61.9767 53.7958 61.7291 54.4075C61.5966 54.7343 61.4846 55.0702 61.3947 55.4114C61.1182 54.8935 59.6107 54.297 58.9449 56.9852C55.7593 69.858 63.5786 63.454 65.3421 77.7611C66.0109 83.1878 67.1299 88.5581 68.6838 93.8004C68.7288 93.9528 77.1004 91.2668 77.8027 90.8029C79.5151 89.6695 78.7777 89.9665 76.4955 82.8823C71.3088 66.7782 74.256 62.9443 73.3366 58.7959Z" fill="#FF9A85"/>
<path d="M63.8241 68.3C63.7646 68.3 63.706 68.2787 63.6595 68.2353C63.4676 68.0593 63.3076 67.8582 63.1537 67.664C63.0288 67.5078 62.9115 67.3601 62.7797 67.226C62.4803 66.9213 62.1155 66.6943 61.7285 66.4536C61.3377 66.2113 60.9348 65.96 60.5973 65.6202C59.8706 64.8874 59.6108 63.9078 59.5217 63.2146C59.4097 62.3493 59.4874 61.4809 59.5629 60.6422C59.575 60.5089 59.687 60.4114 59.8264 60.4228C59.959 60.435 60.0572 60.5523 60.0458 60.6856C59.9719 61.4984 59.8965 62.3394 60.0024 63.1529C60.0816 63.7715 60.3094 64.6421 60.9416 65.279C61.2387 65.5791 61.6013 65.8038 61.9844 66.0422C62.3783 66.2868 62.7858 66.5404 63.1255 66.8863C63.2748 67.0386 63.4051 67.2031 63.5323 67.3623C63.6824 67.5505 63.8233 67.728 63.9878 67.8796C64.0861 67.9695 64.0922 68.1233 64.0023 68.2224C63.9543 68.2734 63.8888 68.3 63.8241 68.3Z" fill="#EE795C"/>
<path d="M72.901 72.1406C72.7936 72.1406 72.6961 72.0683 72.6672 71.9601C71.7721 68.552 71.6335 64.9185 72.2665 61.4518C72.2909 61.32 72.4158 61.2347 72.5483 61.2568C72.6801 61.2812 72.767 61.4076 72.7433 61.5394C72.1233 64.9368 72.2581 68.4972 73.1357 71.8367C73.1699 71.9662 73.0922 72.098 72.9627 72.1322C72.9422 72.1376 72.9216 72.1406 72.901 72.1406Z" fill="#EE795C"/>
<path d="M65.9332 60.6582C65.4708 60.6582 64.3678 60.1882 61.5661 56.1982C61.5143 56.1243 61.4785 56.074 61.4625 56.0519C61.3833 55.9445 61.4046 55.7929 61.512 55.713C61.6202 55.633 61.771 55.6558 61.851 55.7625C61.8685 55.7861 61.9074 55.8402 61.963 55.9201C64.9582 60.1859 65.8624 60.1996 66.0117 60.1593C66.1404 60.125 66.2326 59.9041 66.2646 59.5529C66.3248 58.894 66.1267 58.2168 65.7215 57.6943C65.6392 57.5884 65.659 57.436 65.7649 57.3538C65.8715 57.2722 66.0231 57.2913 66.1046 57.3972C66.5838 58.0157 66.8176 58.8171 66.7475 59.5963C66.6942 60.1867 66.4885 60.5333 66.1366 60.6277C66.0879 60.6407 66.0224 60.6582 65.9332 60.6582Z" fill="#EE795C"/>
<path d="M63.1065 62.0112C62.4468 62.0112 61.6531 61.5161 61.5548 61.4331C61.3072 61.2259 61.1435 60.9623 60.9843 60.7064C60.9287 60.618 60.8738 60.5289 60.8152 60.4443C60.5836 60.1061 60.2934 59.8128 59.9864 59.502C59.5423 59.0518 59.0822 58.5864 58.8202 57.9793C58.7668 57.8559 58.8232 57.7135 58.9466 57.6609C59.0685 57.6076 59.2117 57.6639 59.2642 57.7866C59.4905 58.3107 59.8988 58.7235 60.3307 59.1608C60.6392 59.4739 60.9591 59.7968 61.2151 60.1701C61.2775 60.2615 61.3362 60.3559 61.3956 60.4504C61.5411 60.6843 61.6775 60.9044 61.8664 61.0629C62.0675 61.232 63.0539 61.6997 63.3556 61.462C63.5399 61.3173 63.5148 60.7163 62.8932 59.4678C62.833 59.3482 62.8818 59.2027 63.0021 59.1433C63.1217 59.0838 63.2665 59.1318 63.3266 59.2522C64.0221 60.6485 64.1265 61.4712 63.655 61.8429C63.5011 61.964 63.3099 62.0112 63.1065 62.0112Z" fill="#EE795C"/>
<path d="M132.796 84.4857C131.197 94.9833 109.284 121.416 102.685 129.03C98.3974 133.976 92.9106 139.219 86.4022 138.513C71.2206 136.869 64.3329 88.6296 63.4416 78.5281C63.3693 77.7099 63.7029 76.9071 64.339 76.3868C66.5617 74.5708 70.7422 73.3588 73.8357 73.0907C74.9029 72.9978 75.9038 73.6201 76.3205 74.6073L88.6981 103.884C88.8969 104.353 89.5513 104.384 89.7897 103.934C94.4721 95.0922 109.279 73.2591 116.291 69.0321C125.696 63.3617 134.59 72.6992 132.796 84.4857Z" fill="#0075FF"/>
<path d="M74.0473 73.3237C73.9841 73.3237 73.9209 73.3259 73.8569 73.332C70.8571 73.591 66.6774 74.7893 64.492 76.574C63.9199 77.0425 63.6175 77.7646 63.683 78.5066C64.0784 82.9864 65.9477 97.6714 69.796 111.627C74.4168 128.38 80.1687 137.594 86.4288 138.272C92.8099 138.967 98.1353 133.908 102.502 128.87C103.656 127.539 130.778 96.1372 132.557 84.449L132.796 84.4855L132.557 84.449C133.517 78.1417 131.305 71.9929 127.052 69.1462C123.848 67.0027 120.071 67.0354 116.416 69.2392C109.643 73.3229 95.0312 94.5512 90.0036 104.047C89.849 104.338 89.5527 104.513 89.2206 104.496C88.89 104.481 88.6043 104.283 88.4748 103.978L76.0979 74.7009C75.7422 73.8592 74.9332 73.3237 74.0473 73.3237ZM87.5676 138.819C87.1737 138.819 86.7776 138.797 86.3762 138.754C71.4025 137.131 64.2863 90.853 63.2001 78.5492C63.1208 77.6473 63.4888 76.769 64.1858 76.1992C66.5517 74.2659 70.8358 73.1073 73.815 72.8491C74.9835 72.7501 76.0804 73.4166 76.5436 74.5127L88.9212 103.789C88.9776 103.922 89.0972 104.005 89.2411 104.012C89.3836 104.021 89.5085 103.947 89.5755 103.821C93.9541 95.5507 108.922 73.1919 116.165 68.8248C119.991 66.5182 123.953 66.49 127.322 68.744C131.797 71.7385 134.039 77.9322 133.035 84.5221C131.235 96.3467 104.025 127.853 102.867 129.188C98.9328 133.729 93.6973 138.819 87.5676 138.819Z" fill="#113763"/>
<path d="M169.253 70.9524C164.836 68.0547 163.548 65.7786 154.911 61.7551C144.985 68.4409 129.02 74.4641 132.003 63.3921C125.305 65.3833 116.885 68.425 116.291 69.0321C105.978 108.595 111.593 131.861 120.021 150.984C141.268 157.574 158.363 153.184 176.736 144.737C176.306 114.922 170.47 77.4745 169.253 70.9524Z" fill="#FFFFF7"/>
<path d="M120.198 150.784C142.633 157.709 160.515 151.914 176.491 144.584C176.041 114.625 170.219 77.5149 169.033 71.0979C167.682 70.2051 166.599 69.3535 165.551 68.5293C163.19 66.6722 160.748 64.7526 154.933 62.0324C148.643 66.2486 140.828 69.7687 135.978 69.7687C134.674 69.7687 133.585 69.515 132.797 68.9513C131.456 67.9923 131.075 66.2425 131.664 63.7463C125.11 65.7154 117.314 68.5544 116.506 69.1654C105.965 109.661 112.442 133.155 120.198 150.784ZM140.235 154.409C133.533 154.409 126.831 153.349 119.949 151.215L119.843 151.182L119.799 151.081C114.648 139.394 111.899 129.098 110.886 117.695C109.599 103.194 111.29 87.2568 116.056 68.9711L116.072 68.9086L116.118 68.8622C116.816 68.1492 125.765 64.994 131.934 63.1597L132.35 63.0356L132.238 63.4545C131.562 65.9592 131.846 67.6754 133.079 68.5567C136.51 71.0103 146.806 66.922 154.776 61.554L154.889 61.4778L155.013 61.5349C160.969 64.31 163.45 66.2608 165.851 68.1484C166.961 69.0221 168.011 69.8471 169.385 70.7498L169.471 70.8062L169.491 70.9075C170.636 77.0426 176.543 114.552 176.978 144.733L176.981 144.891L176.837 144.958C166.23 149.834 157.795 152.543 149.491 153.739C146.396 154.185 143.314 154.409 140.235 154.409Z" fill="#EEE4D9"/>
<path d="M88.5169 133.733C86.7679 133.733 85.169 133.159 83.8489 132.047C83.7461 131.961 83.7331 131.808 83.82 131.705C83.906 131.603 84.0592 131.59 84.1612 131.676C85.6009 132.89 87.4017 133.416 89.3663 133.202C92.7156 132.837 96.2463 130.432 99.3055 126.432C99.9705 125.562 100.617 124.757 101.301 123.905C104.562 119.843 108.258 115.239 116.682 100.491C116.748 100.375 116.895 100.334 117.012 100.401C117.128 100.467 117.168 100.615 117.102 100.73C108.66 115.512 104.951 120.132 101.679 124.208C100.997 125.058 100.352 125.861 99.691 126.726C96.5495 130.832 92.9015 133.304 89.4196 133.684C89.1149 133.717 88.8132 133.733 88.5169 133.733Z" fill="#113763"/>
<path d="M123.39 129.257C126.098 152.443 117.187 174.03 123.428 194.74C117.677 196.146 110.889 195.762 103.727 193.434C102.886 176.286 106.422 159.263 107.992 142.166C111.186 107.376 109.14 85.8614 116.291 69.0321C119.514 66.3455 124.968 63.0235 132.725 62.2221C125.934 93.2275 120.149 101.501 123.39 129.257Z" fill="#0075FF"/>
<path d="M103.962 193.256C110.795 195.45 117.41 195.902 123.123 194.565C119.699 182.981 120.944 171.287 122.262 158.91C123.282 149.337 124.336 139.439 123.15 129.285C120.74 108.646 123.312 98.7477 127.572 82.3481C129.035 76.7165 130.69 70.3445 132.416 62.4985C124.892 63.3539 119.617 66.5845 116.491 69.1805C111.722 80.4414 111.08 93.6585 110.194 111.94C109.766 120.77 109.28 130.778 108.233 142.187C107.745 147.496 107.058 152.883 106.393 158.094C104.923 169.603 103.405 181.502 103.962 193.256ZM116.339 195.801C112.309 195.801 108.023 195.085 103.653 193.665L103.493 193.614L103.486 193.446C102.905 181.597 104.434 169.618 105.913 158.032C106.577 152.826 107.264 147.444 107.751 142.144C108.797 130.744 109.283 120.742 109.71 111.917C110.6 93.5549 111.244 80.2891 116.068 68.9368L116.09 68.8834L116.135 68.8461C119.354 66.1625 124.841 62.7933 132.699 61.9812L133.033 61.9462L132.962 62.2737C131.208 70.2797 129.525 76.7561 128.041 82.4707C123.795 98.8147 121.231 108.68 123.632 129.228C124.823 139.436 123.766 149.362 122.744 158.962C121.422 171.376 120.173 183.1 123.66 194.671L123.734 194.915L123.485 194.975C121.229 195.527 118.834 195.801 116.339 195.801Z" fill="#113763"/>
<path d="M118.223 188.279C118.105 188.279 118 188.192 117.984 188.07C116.8 179.656 117.794 171.058 118.755 162.744C119.374 157.391 120.014 151.856 120.07 146.413C120.129 140.554 119.53 134.907 118.895 128.931C117.33 114.188 115.711 98.9445 123.913 78.778C123.963 78.6538 124.106 78.5944 124.228 78.6447C124.352 78.695 124.412 78.8359 124.361 78.9601C116.206 99.0138 117.818 114.197 119.377 128.879C120.013 134.871 120.614 140.53 120.554 146.418C120.498 151.887 119.857 157.434 119.236 162.8C118.278 171.084 117.289 179.65 118.464 188.003C118.482 188.135 118.39 188.258 118.258 188.277C118.245 188.278 118.235 188.279 118.223 188.279Z" fill="#113763"/>
<path d="M136.213 72.9565C134.327 72.9565 132.502 72.6465 130.773 72.0188C130.647 71.9731 130.582 71.8345 130.627 71.7088C130.673 71.5831 130.814 71.5184 130.939 71.5633C136.353 73.5294 142.765 72.2816 148.991 68.0494C149.102 67.9732 149.253 68.0029 149.327 68.1134C149.403 68.2238 149.374 68.3754 149.263 68.4501C144.88 71.4285 140.398 72.9565 136.213 72.9565Z" fill="#D0AB9E"/>
<path d="M122.384 156.839C101.629 162.921 100.96 155.561 97.4817 149.588C97.2143 149.129 97.4481 148.523 97.9638 148.396C98.9899 148.146 100.225 148.593 101.08 149.305C103.83 151.59 104.462 155.846 113.625 153.84C122.131 151.977 118.315 147.017 111.622 147.086C110.861 147.094 110.054 146.47 109.461 145.838C109.186 145.544 109.153 145.112 109.357 144.766C109.655 144.261 110.153 144.585 114.597 143.638C119.447 142.606 118.149 147.676 128.949 146.592C138.605 145.623 148.248 144.527 157.876 143.305C157.315 143.376 158.256 152.33 158.363 153.184C158.604 155.106 158.811 155.402 156.778 155.537C153.608 155.747 129.528 154.747 122.384 156.839Z" fill="#FF9A85"/>
<path d="M167.076 183.214C167.819 185.761 168.832 185.868 170.865 185.006C183.947 179.457 198.467 189.879 212.652 189.016C230.47 187.932 192.839 152.521 182.463 126.501C175.687 109.51 173.052 75.3828 169.253 70.9525C166.936 68.2498 160.042 62.2221 154.911 61.7552C152.01 70.4848 151.734 74.9341 151.26 78.9965C147.113 114.509 156.983 148.652 167.076 183.214Z" fill="#0075FF"/>
<path d="M179.374 183.116C184.387 183.116 189.539 184.502 194.879 185.94C200.714 187.509 206.75 189.131 212.637 188.773C214.853 188.639 216.214 187.978 216.798 186.753C218.845 182.46 211.25 171.821 202.455 159.504C194.925 148.957 186.389 137.003 182.237 126.591C178.65 117.593 176.271 104.092 174.171 92.1808C172.373 81.9689 170.818 73.1494 169.069 71.1102C166.565 68.1896 159.943 62.5878 155.08 62.0164C152.533 69.7215 152.06 73.9972 151.641 77.7732C151.595 78.1967 151.548 78.6126 151.501 79.024C147.33 114.73 157.486 149.511 167.308 183.146C167.636 184.269 168.017 184.9 168.507 185.133C168.989 185.361 169.644 185.26 170.77 184.783C173.597 183.584 176.461 183.116 179.374 183.116ZM210.952 189.309C205.538 189.309 200.065 187.836 194.754 186.406C186.392 184.157 178.496 182.033 170.959 185.229C170.033 185.622 169.069 185.936 168.3 185.571C167.667 185.272 167.218 184.565 166.843 183.281C157.008 149.6 146.838 114.772 151.02 78.9683C151.067 78.557 151.113 78.1426 151.16 77.7198C151.584 73.8898 152.065 69.5486 154.681 61.6782L154.742 61.4962L154.933 61.5137C159.951 61.9707 166.855 67.7836 169.437 70.794C171.273 72.9353 172.763 81.3915 174.649 92.0963C176.744 103.986 179.118 117.46 182.688 126.411C186.818 136.769 195.335 148.698 202.85 159.222C211.733 171.665 219.405 182.411 217.235 186.962C216.569 188.36 215.074 189.112 212.667 189.258C212.096 189.292 211.524 189.309 210.952 189.309Z" fill="#113763"/>
<path d="M210.78 183.615C210.688 183.615 210.6 183.563 210.56 183.474C205.779 172.992 199.317 162.765 193.07 152.874C187.154 143.51 181.036 133.828 176.218 123.776C170.477 111.799 164.884 98.8071 162.853 84.9616C162.834 84.8291 162.925 84.7057 163.058 84.6866C163.189 84.6676 163.314 84.759 163.333 84.8908C165.354 98.6723 170.93 111.624 176.655 123.566C181.462 133.593 187.571 143.263 193.479 152.616C199.736 162.521 206.205 172.761 211 183.273C211.056 183.394 211.003 183.538 210.881 183.594C210.848 183.609 210.814 183.615 210.78 183.615Z" fill="#113763"/>
<path d="M129.04 157.367C129.283 158 129.85 158.454 130.519 158.559C145.334 160.879 160.459 160.013 175.439 159.141C203.887 157.483 194.687 141.791 182.768 91.3575C181.326 85.2552 173.727 75.3448 169.253 70.9526C165.563 67.329 159.24 71.6092 159.531 90.8342C159.614 96.3241 161.216 108.216 169.835 134.545C170.047 135.193 169.602 135.866 168.924 135.93C155.712 137.188 143.591 140.006 129.22 144.46C128.498 144.683 127.976 145.31 127.882 146.059C127.436 149.636 127.846 154.256 129.04 157.367Z" fill="#0075FF"/>
<path d="M166.67 70.0231C166.269 70.0231 165.866 70.1069 165.468 70.2783C162.583 71.5146 159.572 77.5621 159.773 90.8302C159.861 96.6652 161.719 108.973 170.066 134.469C170.189 134.847 170.136 135.254 169.918 135.587C169.699 135.92 169.345 136.134 168.947 136.172C156.643 137.342 144.782 139.89 129.291 144.69C128.663 144.885 128.205 145.435 128.122 146.089C127.668 149.736 128.138 154.338 129.266 157.28C129.477 157.829 129.972 158.228 130.557 158.319C145.419 160.647 160.674 159.759 175.425 158.898C184.095 158.393 189.118 156.586 191.711 153.041C196.449 146.565 193.332 134.342 187.676 112.155C186.118 106.042 184.352 99.1119 182.532 91.4129C181.128 85.4728 173.689 75.6471 169.084 71.1246C168.341 70.3956 167.512 70.0231 166.67 70.0231ZM151.959 160.292C144.779 160.292 137.589 159.912 130.482 158.798C129.727 158.68 129.087 158.165 128.814 157.453C127.641 154.396 127.17 149.806 127.642 146.029C127.747 145.186 128.338 144.478 129.148 144.228C144.673 139.417 156.562 136.863 168.901 135.689C169.152 135.666 169.375 135.531 169.513 135.321C169.649 135.113 169.683 134.857 169.605 134.621C161.24 109.066 159.377 96.7063 159.288 90.8378C159.115 79.3659 161.353 71.5138 165.277 69.8327C166.706 69.2202 168.177 69.5562 169.423 70.7788C174.069 75.3409 181.579 85.2733 183.003 91.3002C184.822 98.9969 186.588 105.923 188.146 112.035C193.838 134.366 196.973 146.666 192.102 153.327C189.415 157 184.281 158.868 175.453 159.382C167.719 159.833 159.845 160.292 151.959 160.292Z" fill="#113763"/>
<path d="M88.7583 117.146C88.7271 117.146 88.6966 117.14 88.6669 117.129C88.5435 117.078 88.4834 116.938 88.5336 116.813C89.9878 113.199 90.1394 108.999 88.9495 105.291C88.9084 105.164 88.9793 105.027 89.1065 104.986C89.2329 104.945 89.37 105.015 89.4104 105.143C90.6345 108.957 90.4784 113.277 88.9823 116.994C88.945 117.088 88.8543 117.146 88.7583 117.146Z" fill="#113763"/>
<path d="M179.632 141.461C175.91 141.461 172.261 139.347 170.481 136.051C170.418 135.934 170.462 135.787 170.58 135.724C170.697 135.66 170.844 135.704 170.907 135.821C172.774 139.281 176.805 141.377 180.71 140.913C180.84 140.901 180.964 140.992 180.98 141.126C180.995 141.258 180.9 141.38 180.767 141.395C180.39 141.44 180.01 141.461 179.632 141.461Z" fill="#113763"/>
<path d="M178.779 95.4236C178.67 95.4236 178.571 95.3489 178.545 95.2385C175.916 84.376 172.18 77.1005 167.432 73.5973C167.389 73.5828 167.351 73.5546 167.323 73.5188C167.184 73.4175 167.043 73.3192 166.9 73.2248L166.245 72.7868L167.034 72.7814C167.235 72.7814 167.499 72.8553 167.692 73.1874C172.548 76.7539 176.356 84.1284 179.015 95.1242C179.047 95.2545 178.967 95.3855 178.836 95.4167C178.818 95.4213 178.799 95.4236 178.779 95.4236Z" fill="#113763"/>
<path d="M154.967 19.2603C155.077 16.8943 155.273 11.4395 159.505 10.4164C161.063 10.0401 162.501 10.5482 163.921 11.3176C167.703 13.3636 169.433 17.8625 168.037 21.9295C166.397 26.7056 163.045 33.5926 156.341 47.3855C155.151 37.8995 154.572 28.853 154.967 19.2603Z" fill="#92563A"/>
<path d="M158.064 29.0146C155.358 27.5719 153.93 33.5683 153.304 36.562C152.071 42.4632 162.328 31.2861 158.064 29.0146Z" fill="#FF9A85"/>
<path d="M156.84 31.8375C156.812 31.5442 156.372 31.5884 156.399 31.8786C156.564 33.6429 155.859 34.5112 155.099 34.7451C154.983 34.7817 154.917 34.9051 154.954 35.0224C155.192 35.7986 157.076 34.3597 156.84 31.8375Z" fill="#EE795C"/>
<path d="M139.06 12.8174C141.862 13.7582 145.635 11.959 147.535 14.2244C148.558 15.447 149.318 20.8013 155.388 22.4863C157.252 23.0035 157.654 22.2303 158.447 21.2073C160.627 18.3942 164.74 17.215 166.093 13.922C167.622 10.2001 164.18 5.51305 160.054 5.59227C159.04 5.61208 158.024 5.44298 157.126 4.97069C136.399 -5.92838 138.117 4.39176 138.462 5.08419C139.917 7.99787 135.242 11.5347 139.06 12.8174Z" fill="#92563A"/>
<path d="M156.287 20.5745C156.192 20.5745 156.103 20.5189 156.063 20.4259C156.012 20.3025 156.07 20.1608 156.193 20.109C159.093 18.8963 163.064 17.235 164.9 13.753C164.962 13.635 165.109 13.5893 165.227 13.6517C165.345 13.7142 165.39 13.8604 165.328 13.9793C163.411 17.6151 159.347 19.3145 156.38 20.5562C156.35 20.5684 156.318 20.5745 156.287 20.5745Z" fill="#7D3B1A"/>
<path d="M155.854 28.5652C155.818 28.5652 155.781 28.5568 155.746 28.54C155.627 28.4806 155.577 28.3351 155.636 28.2155C156.033 27.4119 156.965 26.9008 157.857 27.0059C157.99 27.0211 158.085 27.1415 158.07 27.274C158.055 27.4066 157.938 27.5018 157.801 27.4873C157.113 27.4088 156.38 27.8034 156.071 28.4296C156.029 28.5149 155.943 28.5652 155.854 28.5652Z" fill="#7D3B1A"/>
<path d="M156.475 38.3337C156.42 38.3337 156.363 38.3147 156.317 38.2751C156.216 38.1875 156.205 38.0351 156.292 37.9338C156.48 37.7152 156.666 37.5027 156.846 37.2939C158.47 35.4307 159.753 33.9583 159.959 32.1522C159.974 32.0189 160.09 31.9229 160.227 31.9389C160.36 31.9541 160.455 32.0737 160.44 32.207C160.217 34.1624 158.892 35.6852 157.213 37.6124C157.031 37.8203 156.846 38.0321 156.659 38.2499C156.611 38.3055 156.543 38.3337 156.475 38.3337Z" fill="#7D3B1A"/>
<path d="M156.805 44.3958C156.786 44.3958 156.769 44.3942 156.749 44.3897C156.618 44.36 156.538 44.2297 156.568 44.0994C156.887 42.7268 157.627 41.508 158.344 40.3296L158.553 39.9837C161.259 35.5024 163.375 30.6828 164.842 25.6576C164.88 25.5288 165.014 25.4557 165.143 25.493C165.271 25.5303 165.345 25.6644 165.308 25.7931C163.828 30.8588 161.696 35.7172 158.968 40.2336L158.757 40.5809C158.061 41.7274 157.341 42.9119 157.04 44.2084C157.015 44.3203 156.915 44.3958 156.805 44.3958Z" fill="#7D3B1A"/>
<path d="M167.025 20.5942C167.002 20.5942 166.98 20.5912 166.958 20.5843C166.829 20.5478 166.755 20.4137 166.792 20.285C167.13 19.0989 166.897 17.7385 166.181 16.733C166.104 16.624 166.129 16.4724 166.238 16.3947C166.347 16.3178 166.499 16.3429 166.577 16.4519C167.387 17.5914 167.642 19.0746 167.258 20.4183C167.227 20.5249 167.13 20.5942 167.025 20.5942Z" fill="#7D3B1A"/>
<path d="M161.285 10.7236C161.266 10.7236 161.246 10.7221 161.226 10.7168C161.096 10.684 161.017 10.553 161.05 10.4235C161.184 9.88646 161.379 8.02399 158.304 6.57896C158.184 6.52183 158.132 6.3771 158.188 6.25598C158.245 6.13562 158.389 6.08382 158.511 6.14019C161.919 7.74367 161.676 9.91312 161.519 10.54C161.493 10.6497 161.394 10.7236 161.285 10.7236Z" fill="#7D3B1A"/>
<path d="M158.993 16.3909C158.888 16.3909 158.784 16.3657 158.69 16.3177C156.576 15.2307 156.194 14.6876 155.747 13.8923C155.681 13.7758 155.723 13.628 155.839 13.5625C155.956 13.497 156.103 13.5389 156.169 13.6554C156.584 14.3928 156.915 14.8605 158.912 15.8873C158.953 15.9087 159.001 15.9117 159.045 15.8988C159.071 15.8896 159.106 15.8714 159.126 15.8317C159.807 14.501 158.478 12.9249 156.274 10.3144C155.873 9.83909 155.444 9.331 154.997 8.78559C154.91 8.68275 154.926 8.5304 155.029 8.44585C155.132 8.36053 155.285 8.375 155.371 8.4786C155.818 9.02173 156.244 9.52753 156.645 10.0021C158.977 12.7657 160.385 14.4339 159.558 16.0527C159.482 16.1989 159.354 16.3078 159.194 16.3596C159.129 16.3802 159.061 16.3909 158.993 16.3909Z" fill="#7D3B1A"/>
<path d="M140.982 10.8872C140.125 10.8872 139.655 10.7455 139.434 10.4294C139.159 10.0386 139.36 9.53511 139.594 8.95238C139.907 8.17083 140.261 7.28566 139.677 6.40432C139.603 6.29311 139.634 6.14229 139.745 6.0684C139.858 5.99451 140.008 6.02573 140.081 6.13695C140.805 7.23082 140.365 8.33002 140.044 9.13214C139.87 9.56557 139.706 9.9754 139.83 10.1514C139.922 10.2816 140.242 10.4294 141.267 10.3974L144.333 10.2969C144.47 10.29 144.578 10.3974 144.583 10.5315C144.588 10.6648 144.482 10.7768 144.348 10.7813L141.283 10.8819C141.178 10.8857 141.077 10.8872 140.982 10.8872Z" fill="#7D3B1A"/>
<path d="M148.065 4.30127C147.985 4.30127 147.908 4.26166 147.861 4.1893C146.291 1.738 143.702 1.44777 142.347 1.85074C141.645 2.05869 141.211 2.44413 141.215 2.85548C141.216 2.98878 141.108 3.09847 140.974 3.09923C140.839 3.09923 140.731 2.99259 140.73 2.85929C140.725 2.21333 141.278 1.66258 142.208 1.38607C144.059 0.836084 146.734 1.53307 148.27 3.928C148.341 4.04074 148.308 4.19005 148.196 4.26318C148.155 4.28908 148.11 4.30127 148.065 4.30127Z" fill="#7D3B1A"/>
<path d="M151.433 16.0137C151.3 16.0137 151.191 15.9047 151.191 15.7714L151.192 15.4462C151.203 13.0634 151.222 9.46264 146.768 8.29108C146.639 8.2568 146.561 8.12426 146.596 7.99477C146.63 7.86603 146.765 7.78833 146.891 7.82261C151.707 9.09016 151.688 13.0703 151.676 15.4484L151.676 15.7714C151.676 15.9047 151.567 16.0137 151.433 16.0137Z" fill="#7D3B1A"/>
<path d="M162.722 24.438C162.7 24.438 162.679 24.4357 162.657 24.4296C162.527 24.3938 162.453 24.2598 162.488 24.1318C162.974 22.3729 162.717 20.3809 161.798 18.8041C161.73 18.6883 161.77 18.5398 161.886 18.4728C162.002 18.405 162.149 18.4446 162.217 18.5596C163.215 20.2728 163.483 22.3508 162.955 24.2605C162.925 24.3679 162.827 24.438 162.722 24.438Z" fill="#7D3B1A"/>
<path d="M112.773 158.411C96.6782 164.927 73.4853 155.221 81.4502 145.662C85.1492 141.222 94.1713 140.246 102.86 142.67C106.988 143.822 110.913 145.574 114.777 147.406C121.175 150.44 119.422 155.72 112.773 158.411Z" fill="#514342"/>
<path d="M93.7233 141.61C88.4033 141.61 83.9204 143.075 81.6367 145.816C79.682 148.161 79.5632 150.652 81.2908 153.02C85.8232 159.231 101.198 162.836 112.682 158.186C116.221 156.754 118.46 154.488 118.524 152.272C118.577 150.478 117.208 148.827 114.672 147.625C111.183 145.97 107.1 144.105 102.794 142.903C99.671 142.031 96.576 141.61 93.7233 141.61ZM101.153 160.772C92.4428 160.772 84.0773 157.661 80.8993 153.305C79.0262 150.738 79.1526 148.041 81.2642 145.506C84.8916 141.153 93.7995 139.891 102.924 142.436C107.266 143.648 111.372 145.524 114.88 147.187C117.6 148.477 119.067 150.288 119.008 152.287C118.938 154.733 116.64 157.107 112.864 158.636C109.199 160.119 105.139 160.772 101.153 160.772Z" fill="#463C3A"/>
<path d="M94.1383 145.593C94.1383 146.813 93.1488 147.801 91.9292 147.801C90.7097 147.801 89.7209 146.813 89.7209 145.593C89.7209 144.373 90.7097 143.384 91.9292 143.384C93.1488 143.384 94.1383 144.373 94.1383 145.593Z" fill="#43C59E"/>
<path d="M104.884 146.697C104.884 147.917 103.896 148.905 102.675 148.905C101.455 148.905 100.467 147.917 100.467 146.697C100.467 145.477 101.455 144.489 102.675 144.489C103.896 144.489 104.884 145.477 104.884 146.697Z" fill="#C9DCF3"/>
<path d="M93.4796 155.048C93.4796 156.268 92.4909 157.257 91.2706 157.257C90.051 157.257 89.0623 156.268 89.0623 155.048C89.0623 153.828 90.051 152.84 91.2706 152.84C92.4909 152.84 93.4796 153.828 93.4796 155.048Z" fill="#43C59E"/>
<path d="M86.4759 149.43C86.4759 150.65 85.4879 151.639 84.2676 151.639C83.0481 151.639 82.0593 150.65 82.0593 149.43C82.0593 148.21 83.0481 147.222 84.2676 147.222C85.4879 147.222 86.4759 148.21 86.4759 149.43Z" fill="#43C59E"/>
<path d="M104.238 156.379C104.238 157.599 103.249 158.587 102.029 158.587C100.81 158.587 99.8203 157.599 99.8203 156.379C99.8203 155.16 100.81 154.171 102.029 154.171C103.249 154.171 104.238 155.16 104.238 156.379Z" fill="#FFFFF8"/>
<path d="M114.222 153.162C114.222 154.383 113.232 155.371 112.014 155.371C110.793 155.371 109.804 154.383 109.804 153.162C109.804 151.943 110.793 150.954 112.014 150.954C113.232 150.954 114.222 151.943 114.222 153.162Z" fill="#EEE4D9"/>
<path d="M118.418 149.962C117.9 148.421 114.498 146.752 111.33 147.127C110.575 147.218 109.762 146.512 109.169 145.88C108.894 145.586 108.862 145.154 109.066 144.808C109.363 144.302 109.862 144.626 114.306 143.68C118.491 142.789 118.097 146.442 124.848 146.764L118.418 149.962Z" fill="#FF9A85"/>
</svg>
