<svg width="313" height="253" viewBox="0 0 313 253" fill="none" xmlns="http://www.w3.org/2000/svg">
<path d="M198.441 94.4593C146.073 101.043 112.617 98.4344 62.9628 94.3145C60.8105 94.1357 59.1707 92.6643 59.1707 90.9081V3.4233C59.1707 1.34919 61.4266 -0.246048 63.9596 0.0314178C115.331 5.66241 151.174 5.57264 197.176 0.0872498C199.726 -0.216911 202.015 1.38235 202.015 3.47344V91.0747C202.015 92.763 200.497 94.2004 198.441 94.4593Z" fill="#0075FF"/>
<path d="M152.447 19.4028H72.6601C71.2097 19.4028 70.0349 18.227 70.0349 16.7776V16.3797C70.0349 14.9303 71.2097 13.7545 72.6601 13.7545H152.447C153.897 13.7545 155.072 14.9303 155.072 16.3797V16.7776C155.072 18.227 153.897 19.4028 152.447 19.4028Z" fill="white"/>
<path d="M188.535 19.2043H164.428C162.978 19.2043 161.802 18.0286 161.802 16.5792C161.802 15.1288 162.978 13.953 164.428 13.953H188.535C189.985 13.953 191.161 15.1288 191.161 16.5792C191.161 18.0286 189.985 19.2043 188.535 19.2043Z" fill="white"/>
<path d="M152.447 29.4275H72.6601C71.2097 29.4275 70.0349 28.2527 70.0349 26.8023V26.4054C70.0349 24.955 71.2097 23.7802 72.6601 23.7802H152.447C153.897 23.7802 155.072 24.955 155.072 26.4054V26.8023C155.072 28.2527 153.897 29.4275 152.447 29.4275Z" fill="white"/>
<path d="M188.535 29.2302H164.428C162.978 29.2302 161.802 28.0545 161.802 26.604C161.802 25.1536 162.978 23.9789 164.428 23.9789H188.535C189.985 23.9789 191.161 25.1536 191.161 26.604C191.161 28.0545 189.985 29.2302 188.535 29.2302Z" fill="white"/>
<path d="M152.447 39.9302H72.6601C71.2097 39.9302 70.0349 38.7544 70.0349 37.305V36.9071C70.0349 35.4577 71.2097 34.2819 72.6601 34.2819H152.447C153.897 34.2819 155.072 35.4577 155.072 36.9071V37.305C155.072 38.7544 153.897 39.9302 152.447 39.9302Z" fill="white"/>
<path d="M188.535 39.7317H164.428C162.978 39.7317 161.802 38.5559 161.802 37.1055C161.802 35.6561 162.978 34.4803 164.428 34.4803H188.535C189.985 34.4803 191.161 35.6561 191.161 37.1055C191.161 38.5559 189.985 39.7317 188.535 39.7317Z" fill="white"/>
<path d="M152.447 51.8645H72.6601C71.2097 51.8645 70.0349 50.6897 70.0349 49.2393V48.8414C70.0349 47.392 71.2097 46.2162 72.6601 46.2162H152.447C153.897 46.2162 155.072 47.392 155.072 48.8414V49.2393C155.072 50.6897 153.897 51.8645 152.447 51.8645Z" fill="white"/>
<path d="M188.535 51.666H164.428C162.978 51.666 161.802 50.4903 161.802 49.0408C161.802 47.5904 162.978 46.4147 164.428 46.4147H188.535C189.985 46.4147 191.161 47.5904 191.161 49.0408C191.161 50.4903 189.985 51.666 188.535 51.666Z" fill="white"/>
<path d="M152.447 62.6057H72.6601C71.2097 62.6057 70.0349 61.4299 70.0349 59.9795V59.5826C70.0349 58.1322 71.2097 56.9574 72.6601 56.9574H152.447C153.897 56.9574 155.072 58.1322 155.072 59.5826V59.9795C155.072 61.4299 153.897 62.6057 152.447 62.6057Z" fill="white"/>
<path d="M188.535 62.407H164.428C162.978 62.407 161.802 61.2312 161.802 59.7808C161.802 58.3314 162.978 57.1556 164.428 57.1556H188.535C189.985 57.1556 191.161 58.3314 191.161 59.7808C191.161 61.2312 189.985 62.407 188.535 62.407Z" fill="white"/>
<path d="M152.447 73.1074H72.6601C71.2097 73.1074 70.0349 71.9326 70.0349 70.4822V70.0853C70.0349 68.6349 71.2097 67.4591 72.6601 67.4591H152.447C153.897 67.4591 155.072 68.6349 155.072 70.0853V70.4822C155.072 71.9326 153.897 73.1074 152.447 73.1074Z" fill="white"/>
<path d="M188.535 72.9092H164.428C162.978 72.9092 161.802 71.7334 161.802 70.284C161.802 68.8336 162.978 67.6578 164.428 67.6578H188.535C189.985 67.6578 191.161 68.8336 191.161 70.284C191.161 71.7334 189.985 72.9092 188.535 72.9092Z" fill="white"/>
<path d="M152.447 83.5317H72.6601C71.2097 83.5317 70.0349 82.357 70.0349 80.9066V80.5096C70.0349 79.0592 71.2097 77.8844 72.6601 77.8844H152.447C153.897 77.8844 155.072 79.0592 155.072 80.5096V80.9066C155.072 82.357 153.897 83.5317 152.447 83.5317Z" fill="white"/>
<path d="M188.535 83.3345H164.428C162.978 83.3345 161.802 82.1587 161.802 80.7083C161.802 79.2579 162.978 78.0831 164.428 78.0831H188.535C189.985 78.0831 191.161 79.2579 191.161 80.7083C191.161 82.1587 189.985 83.3345 188.535 83.3345Z" fill="white"/>
<path d="M274.974 174.337C223.15 161.357 189.656 176.988 142.094 173.929C139.428 173.758 137.031 172.441 137.031 169.769V48.3202C137.031 46.1711 138.644 43.8266 140.774 44.1062C188.734 50.4021 224.364 29.8527 276.041 44.0952C278.107 44.6635 279.77 46.1631 279.77 48.3061V170.13C279.77 172.692 277.461 174.959 274.974 174.337Z" fill="#BABABA"/>
<path d="M269.549 179.2C217.724 166.222 184.231 181.852 136.668 178.794C134.001 178.622 131.604 177.305 131.604 174.633V53.1842C131.604 51.0352 133.218 48.6907 135.349 48.9703C183.308 55.2662 218.937 34.7168 270.614 48.9583C272.681 49.5276 274.344 51.0272 274.344 53.1702V174.994C274.344 177.557 272.034 179.822 269.549 179.2Z" fill="#DCDCDC"/>
<path d="M174.142 74.8787H144.895C142.303 74.8787 140.201 72.7767 140.201 70.1836C140.201 67.5915 142.303 65.4906 144.895 65.4906H174.142C176.735 65.4906 178.837 67.5915 178.837 70.1836C178.837 72.7767 176.735 74.8787 174.142 74.8787Z" fill="white"/>
<path d="M218.377 74.9026H189.13C186.538 74.9026 184.436 72.8016 184.436 70.2085C184.436 67.6164 186.538 65.5145 189.13 65.5145H218.377C220.97 65.5145 223.072 67.6164 223.072 70.2085C223.072 72.8016 220.97 74.9026 218.377 74.9026Z" fill="white"/>
<path d="M261.899 74.9026H232.652C230.06 74.9026 227.958 72.8016 227.958 70.2085C227.958 67.6164 230.06 65.5145 232.652 65.5145H261.899C264.492 65.5145 266.594 67.6164 266.594 70.2085C266.594 72.8016 264.492 74.9026 261.899 74.9026Z" fill="white"/>
<path d="M174.142 92.7476H144.895C142.303 92.7476 140.201 90.6456 140.201 88.0535C140.201 85.4604 142.303 83.3585 144.895 83.3585H174.142C176.735 83.3585 178.837 85.4604 178.837 88.0535C178.837 90.6456 176.735 92.7476 174.142 92.7476Z" fill="white"/>
<path d="M218.377 92.7727H189.13C186.538 92.7727 184.436 90.6708 184.436 88.0777C184.436 85.4855 186.538 83.3836 189.13 83.3836H218.377C220.97 83.3836 223.072 85.4855 223.072 88.0777C223.072 90.6708 220.97 92.7727 218.377 92.7727Z" fill="white"/>
<path d="M261.899 92.7727H232.652C230.06 92.7727 227.958 90.6708 227.958 88.0777C227.958 85.4855 230.06 83.3836 232.652 83.3836H261.899C264.492 83.3836 266.594 85.4855 266.594 88.0777C266.594 90.6708 264.492 92.7727 261.899 92.7727Z" fill="white"/>
<path d="M174.142 108.919H144.895C142.303 108.919 140.201 106.817 140.201 104.225C140.201 101.632 142.303 99.5306 144.895 99.5306H174.142C176.735 99.5306 178.837 101.632 178.837 104.225C178.837 106.817 176.735 108.919 174.142 108.919Z" fill="white"/>
<path d="M218.377 108.943H189.13C186.538 108.943 184.436 106.843 184.436 104.25C184.436 101.658 186.538 99.5558 189.13 99.5558H218.377C220.97 99.5558 223.072 101.658 223.072 104.25C223.072 106.843 220.97 108.943 218.377 108.943Z" fill="white"/>
<path d="M261.899 108.943H232.652C230.06 108.943 227.958 106.843 227.958 104.25C227.958 101.658 230.06 99.5558 232.652 99.5558H261.899C264.492 99.5558 266.594 101.658 266.594 104.25C266.594 106.843 264.492 108.943 261.899 108.943Z" fill="white"/>
<path d="M174.142 126.788H144.895C142.303 126.788 140.201 124.686 140.201 122.094C140.201 119.502 142.303 117.4 144.895 117.4H174.142C176.735 117.4 178.837 119.502 178.837 122.094C178.837 124.686 176.735 126.788 174.142 126.788Z" fill="white"/>
<path d="M218.377 126.813H189.13C186.538 126.813 184.436 124.711 184.436 122.119C184.436 119.527 186.538 117.425 189.13 117.425H218.377C220.97 117.425 223.072 119.527 223.072 122.119C223.072 124.711 220.97 126.813 218.377 126.813Z" fill="white"/>
<path d="M261.899 126.813H232.652C230.06 126.813 227.958 124.711 227.958 122.119C227.958 119.527 230.06 117.425 232.652 117.425H261.899C264.492 117.425 266.594 119.527 266.594 122.119C266.594 124.711 264.492 126.813 261.899 126.813Z" fill="white"/>
<path d="M174.142 143.167H144.895C142.303 143.167 140.201 141.065 140.201 138.471C140.201 135.879 142.303 133.778 144.895 133.778H174.142C176.735 133.778 178.837 135.879 178.837 138.471C178.837 141.065 176.735 143.167 174.142 143.167Z" fill="white"/>
<path d="M218.377 143.19H189.13C186.538 143.19 184.436 141.089 184.436 138.497C184.436 135.904 186.538 133.802 189.13 133.802H218.377C220.97 133.802 223.072 135.904 223.072 138.497C223.072 141.089 220.97 143.19 218.377 143.19Z" fill="white"/>
<path d="M261.899 143.19H232.652C230.06 143.19 227.958 141.089 227.958 138.497C227.958 135.904 230.06 133.802 232.652 133.802H261.899C264.492 133.802 266.594 135.904 266.594 138.497C266.594 141.089 264.492 143.19 261.899 143.19Z" fill="white"/>
<path d="M174.142 161.035H144.895C142.303 161.035 140.201 158.933 140.201 156.341C140.201 153.749 142.303 151.647 144.895 151.647H174.142C176.735 151.647 178.837 153.749 178.837 156.341C178.837 158.933 176.735 161.035 174.142 161.035Z" fill="white"/>
<path d="M218.377 161.061H189.13C186.538 161.061 184.436 158.959 184.436 156.367C184.436 153.773 186.538 151.672 189.13 151.672H218.377C220.97 151.672 223.072 153.773 223.072 156.367C223.072 158.959 220.97 161.061 218.377 161.061Z" fill="white"/>
<path d="M261.899 161.061H232.652C230.06 161.061 227.958 158.959 227.958 156.367C227.958 153.773 230.06 151.672 232.652 151.672H261.899C264.492 151.672 266.594 153.773 266.594 156.367C266.594 158.959 264.492 161.061 261.899 161.061Z" fill="white"/>
<path d="M40.1385 10.2542C40.1385 13.4588 37.5407 16.0569 34.3362 16.0569C31.1318 16.0569 28.5347 13.4588 28.5347 10.2542C28.5347 7.05069 31.1318 4.45256 34.3362 4.45256C37.5407 4.45256 40.1385 7.05069 40.1385 10.2542Z" fill="#ECF9FF"/>
<path d="M34.3363 2.99007C30.3307 2.99007 27.0719 6.24876 27.0719 10.2542C27.0719 14.2596 30.3307 17.5193 34.3363 17.5193C38.3418 17.5193 41.601 14.2596 41.601 10.2542C41.601 6.24876 38.3418 2.99007 34.3363 2.99007ZM34.3363 17.8982C30.1216 17.8982 26.6929 14.4691 26.6929 10.2542C26.6929 6.04027 30.1216 2.6112 34.3363 2.6112C38.5513 2.6112 41.9801 6.04027 41.9801 10.2542C41.9801 14.4691 38.5513 17.8982 34.3363 17.8982Z" fill="#ECF9FF"/>
<path d="M34.3364 1.99606C29.7826 1.99606 26.0782 5.70079 26.0782 10.2545C26.0782 14.8082 29.7826 18.513 34.3364 18.513C38.89 18.513 42.5948 14.8082 42.5948 10.2545C42.5948 5.70079 38.89 1.99606 34.3364 1.99606ZM34.3364 18.8918C29.5735 18.8918 25.6992 15.0177 25.6992 10.2545C25.6992 5.4923 29.5735 1.61716 34.3364 1.61716C39.0995 1.61716 42.9743 5.4923 42.9743 10.2545C42.9743 15.0177 39.0995 18.8918 34.3364 18.8918Z" fill="#ECF9FF"/>
<path d="M102.658 117.311C67.4518 113.095 44.9221 113.491 10.6516 117.354C8.13744 117.636 5.93335 115.669 5.93335 113.139V26.5958C5.93335 24.0208 8.21141 22.0411 10.7615 22.3939C46.2709 27.3175 68.5484 28.9895 102.38 22.6936C104.993 22.2085 107.408 24.2052 107.408 26.8625V113.101C107.408 115.644 105.184 117.613 102.658 117.311Z" fill="#BABABA"/>
<path d="M96.7248 122.849C61.519 118.632 38.9887 119.031 4.71811 122.891C2.20399 123.175 0 121.208 0 118.677V32.1341C0 29.559 2.27806 27.5783 4.82857 27.9322C40.338 32.8558 62.6155 34.5277 96.4472 28.2319C99.0593 27.7467 101.475 29.7434 101.475 32.4007V118.638C101.475 121.181 99.2498 123.151 96.7248 122.849Z" fill="#DCDCDC"/>
<path d="M40.9029 55.4165H13.4841C11.8403 55.4165 10.5083 54.0844 10.5083 52.4415C10.5083 50.7976 11.8403 49.4655 13.4841 49.4655H40.9029C42.5466 49.4655 43.8787 50.7976 43.8787 52.4415C43.8787 54.0844 42.5466 55.4165 40.9029 55.4165Z" fill="white"/>
<path d="M77.0364 55.4165H49.6178C47.9741 55.4165 46.6421 54.0844 46.6421 52.4415C46.6421 50.7976 47.9741 49.4655 49.6178 49.4655H77.0364C78.6802 49.4655 80.0124 50.7976 80.0124 52.4415C80.0124 54.0844 78.6802 55.4165 77.0364 55.4165Z" fill="white"/>
<path d="M88.4324 55.4165H85.6218C83.9779 55.4165 82.6458 54.0844 82.6458 52.4415C82.6458 50.7976 83.9779 49.4655 85.6218 49.4655H88.4324C90.0752 49.4655 91.4074 50.7976 91.4074 52.4415C91.4074 54.0844 90.0752 55.4165 88.4324 55.4165Z" fill="white"/>
<path d="M40.6956 64.5383H13.2763C11.6331 64.5383 10.301 63.2052 10.301 61.5623C10.301 59.9184 11.6331 58.5863 13.2763 58.5863H40.6956C42.3394 58.5863 43.6714 59.9184 43.6714 61.5623C43.6714 63.2052 42.3394 64.5383 40.6956 64.5383Z" fill="white"/>
<path d="M76.8299 64.5383H49.4104C47.7667 64.5383 46.4351 63.2052 46.4351 61.5623C46.4351 59.9184 47.7667 58.5863 49.4104 58.5863H76.8299C78.4738 58.5863 79.8059 59.9184 79.8059 61.5623C79.8059 63.2052 78.4738 64.5383 76.8299 64.5383Z" fill="white"/>
<path d="M88.2249 64.5383H85.4142C83.7704 64.5383 82.4382 63.2052 82.4382 61.5623C82.4382 59.9184 83.7704 58.5863 85.4142 58.5863H88.2249C89.8677 58.5863 91.1999 59.9184 91.1999 61.5623C91.1999 63.2052 89.8677 64.5383 88.2249 64.5383Z" fill="white"/>
<path d="M40.6956 74.0725H13.2763C11.6331 74.0725 10.301 72.7404 10.301 71.0975C10.301 69.4536 11.6331 68.1215 13.2763 68.1215H40.6956C42.3394 68.1215 43.6714 69.4536 43.6714 71.0975C43.6714 72.7404 42.3394 74.0725 40.6956 74.0725Z" fill="white"/>
<path d="M76.8299 74.0725H49.4104C47.7667 74.0725 46.4351 72.7404 46.4351 71.0975C46.4351 69.4536 47.7667 68.1215 49.4104 68.1215H76.8299C78.4738 68.1215 79.8059 69.4536 79.8059 71.0975C79.8059 72.7404 78.4738 74.0725 76.8299 74.0725Z" fill="white"/>
<path d="M88.2249 74.0725H85.4142C83.7704 74.0725 82.4382 72.7404 82.4382 71.0975C82.4382 69.4536 83.7704 68.1215 85.4142 68.1215H88.2249C89.8677 68.1215 91.1999 69.4536 91.1999 71.0975C91.1999 72.7404 89.8677 74.0725 88.2249 74.0725Z" fill="white"/>
<path d="M40.6695 82.689H13.2502C11.6069 82.689 10.2749 81.3568 10.2749 79.713C10.2749 78.0701 11.6069 76.7369 13.2502 76.7369H40.6695C42.3132 76.7369 43.6453 78.0701 43.6453 79.713C43.6453 81.3568 42.3132 82.689 40.6695 82.689Z" fill="white"/>
<path d="M76.8037 82.689H49.3841C47.7406 82.689 46.4082 81.3568 46.4082 79.713C46.4082 78.0701 47.7406 76.7369 49.3841 76.7369H76.8037C78.4465 76.7369 79.7787 78.0701 79.7787 79.713C79.7787 81.3568 78.4465 82.689 76.8037 82.689Z" fill="white"/>
<path d="M88.1987 82.689H85.3871C83.7443 82.689 82.4121 81.3568 82.4121 79.713C82.4121 78.0701 83.7443 76.7369 85.3871 76.7369H88.1987C89.8416 76.7369 91.1737 78.0701 91.1737 79.713C91.1737 81.3568 89.8416 82.689 88.1987 82.689Z" fill="white"/>
<path d="M40.462 91.8096H13.0424C11.3991 91.8096 10.0667 90.4774 10.0667 88.8336C10.0667 87.1907 11.3991 85.8586 13.0424 85.8586H40.462C42.105 85.8586 43.4377 87.1907 43.4377 88.8336C43.4377 90.4774 42.105 91.8096 40.462 91.8096Z" fill="white"/>
<path d="M76.5965 91.8096H49.1769C47.5335 91.8096 46.2014 90.4774 46.2014 88.8336C46.2014 87.1907 47.5335 85.8586 49.1769 85.8586H76.5965C78.2404 85.8586 79.5725 87.1907 79.5725 88.8336C79.5725 90.4774 78.2404 91.8096 76.5965 91.8096Z" fill="white"/>
<path d="M87.9912 91.8096H85.1806C83.5367 91.8096 82.2046 90.4774 82.2046 88.8336C82.2046 87.1907 83.5367 85.8586 85.1806 85.8586H87.9912C89.6341 85.8586 90.9662 87.1907 90.9662 88.8336C90.9662 90.4774 89.6341 91.8096 87.9912 91.8096Z" fill="white"/>
<path d="M40.462 101.344H13.0424C11.3991 101.344 10.0667 100.012 10.0667 98.369C10.0667 96.7251 11.3991 95.393 13.0424 95.393H40.462C42.105 95.393 43.4377 96.7251 43.4377 98.369C43.4377 100.012 42.105 101.344 40.462 101.344Z" fill="white"/>
<path d="M76.5965 101.344H49.1769C47.5335 101.344 46.2014 100.012 46.2014 98.369C46.2014 96.7251 47.5335 95.393 49.1769 95.393H76.5965C78.2404 95.393 79.5725 96.7251 79.5725 98.369C79.5725 100.012 78.2404 101.344 76.5965 101.344Z" fill="white"/>
<path d="M87.9912 101.344H85.1806C83.5367 101.344 82.2046 100.012 82.2046 98.369C82.2046 96.7251 83.5367 95.393 85.1806 95.393H87.9912C89.6341 95.393 90.9662 96.7251 90.9662 98.369C90.9662 100.012 89.6341 101.344 87.9912 101.344Z" fill="white"/>
<path d="M220.057 253C179.815 253 147.191 249.894 147.191 246.061C147.191 244.242 154.536 242.586 166.554 241.349C186.011 245.851 207.957 248.209 230.793 248.209C235.018 248.209 239.278 248.128 243.554 247.965C259.118 247.372 273.907 245.71 286.628 243.235C290.673 244.098 292.922 245.054 292.922 246.061C292.922 249.894 260.3 253 220.057 253ZM230.782 247.072C209.355 247.071 188.717 244.988 170.205 240.999C183.238 239.834 200.774 239.12 220.057 239.12C247.311 239.12 271.069 240.546 283.567 242.656C271.571 244.822 257.877 246.281 243.51 246.828C239.242 246.991 234.999 247.072 230.782 247.072Z" fill="#DCDCDC"/>
<path d="M196.026 61.6253C194.442 63.4285 192.201 64.492 190.026 65.5074C194.29 71.1376 201.229 74.6449 208.291 74.7411C209.369 74.7552 209.536 74.3081 209.32 73.403C207.312 65.0263 215.276 57.7842 218.021 50.6584C206.93 55.139 205.019 50.2886 202.651 49.8315C198.335 48.9965 200.366 56.6886 196.026 61.6253Z" fill="#FBA584"/>
<path d="M201.853 59.9131C205.192 59.8219 206.862 59.9973 214.202 57.0855C209.517 63.1648 210.123 59.878 205.797 62.8731C201.353 65.9493 198.329 65.5344 194.306 66.5828C191.68 67.2664 193.792 63.5266 193.893 63.4535C196.079 61.8757 196.371 61.3345 197.397 59.6234C198.466 59.7026 197.992 60.0194 201.853 59.9131Z" fill="#EA7957"/>
<path d="M194.101 53.3387C192.873 64.7787 211.948 65.0192 220.945 49.1649C228.531 35.7964 218.574 24.7033 206.185 32.1869C201.934 34.754 194.612 48.5685 194.101 53.3387Z" fill="#FBA584"/>
<path d="M295.122 192.676C294.898 187.565 291.939 186.035 291.939 186.035L274.757 185.035L277.259 195.366C277.259 195.366 291.464 193.591 295.122 192.676Z" fill="#FBA584"/>
<path d="M295.442 179.971C295.815 179.604 296.411 179.604 296.784 179.972C299.739 182.881 311.493 194.456 311.514 194.478C311.923 194.93 311.91 195.62 311.487 196.059C310.574 197.008 308.902 197.274 307.556 196.896C304.562 196.059 301.128 191.789 294.004 194.439C293.543 194.61 293.037 194.302 292.996 193.811C292.877 192.42 293.168 190.975 292.969 189.579C292.639 187.265 290.428 187.175 290.923 184.916C291.049 184.341 294.066 181.323 295.442 179.971Z" fill="#514342"/>
<path d="M298.416 193.386C301.269 193.386 303.358 194.553 305.147 195.554C306.058 196.061 306.844 196.501 307.607 196.714C308.969 197.096 310.544 196.766 311.35 195.928C311.704 195.56 311.713 194.981 311.374 194.607C311.272 194.504 299.533 182.945 296.65 180.106C296.353 179.814 295.872 179.813 295.575 180.105C292.376 183.251 291.17 184.675 291.108 184.958C290.86 186.094 291.329 186.608 291.922 187.261C292.426 187.815 292.999 188.442 293.156 189.553C293.267 190.333 293.229 191.128 293.192 191.898C293.162 192.526 293.131 193.175 293.184 193.796C293.199 193.967 293.29 194.116 293.436 194.208C293.586 194.305 293.77 194.324 293.937 194.262C295.623 193.635 297.1 193.386 298.416 193.386ZM308.791 197.255C308.363 197.255 307.927 197.198 307.505 197.079C306.699 196.854 305.855 196.383 304.962 195.885C302.415 194.461 299.246 192.691 294.069 194.616C293.79 194.722 293.485 194.689 293.233 194.53C292.987 194.373 292.831 194.117 292.806 193.829C292.751 193.182 292.783 192.52 292.813 191.88C292.849 191.128 292.887 190.349 292.781 189.607C292.639 188.611 292.132 188.054 291.642 187.516C291.028 186.841 290.447 186.203 290.738 184.877C290.839 184.415 292.376 182.719 295.308 179.835C295.752 179.399 296.473 179.399 296.916 179.837C297.062 179.98 311.626 194.319 311.655 194.351C312.129 194.872 312.115 195.68 311.625 196.19C310.966 196.874 309.902 197.255 308.791 197.255Z" fill="#463C3A"/>
<path d="M311.051 195.617C310.908 195.617 310.765 195.563 310.655 195.455L295.755 180.926C295.53 180.707 295.525 180.347 295.744 180.121C295.965 179.897 296.325 179.893 296.549 180.111L311.449 194.639C311.674 194.86 311.678 195.22 311.459 195.444C311.347 195.559 311.2 195.617 311.051 195.617Z" fill="white"/>
<path d="M298.43 193.403C298.308 193.394 298.231 193.302 298.24 193.197C298.318 192.278 297.811 191.34 297.285 190.457L297.35 190.197C297.439 190.143 297.557 190.171 297.611 190.262C298.169 191.198 298.706 192.198 298.618 193.229C298.609 193.329 298.527 193.403 298.43 193.403Z" fill="white"/>
<path d="M301.013 193.834L300.937 193.816C300.84 193.775 300.797 193.663 300.839 193.567C301.151 192.857 300.788 191.939 300.354 190.982C300.311 190.886 300.353 190.773 300.45 190.732C300.544 190.688 300.657 190.73 300.7 190.826C301.171 191.864 301.562 192.867 301.187 193.721L301.013 193.834Z" fill="white"/>
<path d="M303.476 194.679L303.374 194.648L303.318 194.386C303.527 194.058 303.3 193.035 302.967 192.194C302.929 192.096 302.977 191.986 303.073 191.947C303.17 191.908 303.28 191.956 303.319 192.053C303.444 192.367 304.041 193.961 303.635 194.591L303.476 194.679Z" fill="white"/>
<path d="M236.443 226.181C237.777 221.243 235.42 218.89 235.42 218.89L219.35 212.731L218.605 223.335C218.605 223.335 232.681 225.946 236.443 226.181Z" fill="#FBA584"/>
<path d="M240.597 214.171C241.064 213.934 241.631 214.115 241.876 214.578C243.81 218.247 251.506 232.838 251.519 232.866C251.774 233.42 251.55 234.073 251.015 234.364C249.857 234.992 248.183 234.739 247.015 233.972C244.415 232.266 242.436 227.157 234.843 227.524C234.353 227.548 233.964 227.1 234.071 226.622C234.381 225.258 235.096 223.971 235.329 222.58C235.716 220.274 233.635 219.519 234.792 217.518C235.087 217.006 238.875 215.044 240.597 214.171Z" fill="#514342"/>
<path d="M235.62 227.316C240.766 227.316 243.174 229.881 245.126 231.961C245.84 232.722 246.456 233.379 247.119 233.814C248.303 234.59 249.902 234.752 250.924 234.198C251.372 233.955 251.557 233.404 251.347 232.945C251.289 232.833 245.106 221.111 242.466 216.105L241.707 214.667C241.513 214.299 241.055 214.152 240.683 214.34C236.682 216.367 235.102 217.36 234.955 217.611C234.374 218.618 234.666 219.251 235.033 220.053C235.347 220.734 235.701 221.504 235.517 222.611C235.385 223.387 235.109 224.134 234.84 224.857C234.62 225.446 234.395 226.054 234.257 226.663C234.22 226.829 234.262 227.001 234.372 227.132C234.487 227.269 234.661 227.339 234.834 227.336C235.103 227.321 235.366 227.316 235.62 227.316ZM249.482 234.908C248.617 234.908 247.691 234.644 246.91 234.13C246.211 233.672 245.549 232.967 244.849 232.221C242.853 230.094 240.373 227.445 234.852 227.713C234.546 227.726 234.274 227.605 234.082 227.377C233.895 227.152 233.823 226.863 233.888 226.58C234.03 225.947 234.262 225.326 234.485 224.725C234.747 224.019 235.018 223.29 235.142 222.548C235.308 221.557 234.993 220.872 234.69 220.211C234.309 219.382 233.948 218.599 234.627 217.422C234.922 216.911 237.99 215.28 240.511 214.002C241.066 213.721 241.753 213.939 242.043 214.489L242.801 215.927C251.01 231.491 251.684 232.77 251.692 232.786C251.985 233.427 251.728 234.193 251.105 234.531C250.636 234.785 250.073 234.908 249.482 234.908Z" fill="#463C3A"/>
<path d="M250.906 233.837C250.702 233.837 250.506 233.728 250.404 233.536L240.606 215.177C240.457 214.899 240.561 214.554 240.839 214.407C241.116 214.259 241.462 214.364 241.609 214.642L251.407 233.001C251.555 233.278 251.45 233.622 251.173 233.771L250.906 233.837Z" fill="white"/>
<path d="M239.432 227.885L239.36 227.871C239.263 227.831 239.216 227.72 239.257 227.624C239.61 226.771 239.412 225.723 239.176 224.722C239.153 224.621 239.216 224.519 239.319 224.495C239.422 224.47 239.522 224.535 239.546 224.636C239.794 225.698 240.003 226.812 239.607 227.769L239.432 227.885Z" fill="white"/>
<path d="M241.763 229.079L241.638 229.032L241.622 228.764C242.134 228.181 242.066 227.198 241.944 226.153C241.931 226.049 242.006 225.956 242.109 225.942C242.212 225.925 242.307 226.005 242.319 226.109C242.454 227.241 242.522 228.315 241.905 229.015L241.763 229.079Z" fill="white"/>
<path d="M243.855 230.63L243.709 230.561L243.734 230.295C244.035 230.046 244.128 229.002 244.065 228.098C244.058 227.995 244.137 227.904 244.241 227.896C244.353 227.884 244.436 227.967 244.444 228.072C244.467 228.409 244.555 230.108 243.976 230.587L243.855 230.63Z" fill="white"/>
<path d="M204.857 129.068C208.893 139.556 230.749 170.953 233.634 173.325C244.124 181.948 268.075 179.652 283.522 181.331C284.296 181.415 285.001 181.834 285.425 182.488C287.081 185.041 287.265 187.038 287.409 192.821C287.443 194.142 286.478 195.281 285.169 195.47C226.582 203.936 224.591 205.765 214.876 193.39L189.641 161.238C189.004 160.426 187.705 160.889 187.72 161.921C187.88 172.942 186.807 183.98 184.524 194.764C184.324 195.708 184.857 196.654 185.771 196.963C217.584 207.711 222.938 209.829 230.779 214.394C231.54 214.838 232.025 215.637 232.078 216.516C232.257 219.554 231.506 222.751 230.536 225.35C230.19 226.275 229.339 226.921 228.355 227.014C221.174 227.699 213.495 226.758 206.418 225.656C173.019 220.448 170.107 218.671 167.973 217.44C158.942 212.231 160.485 190.582 160.425 185.408C160.102 158.031 157.536 149.597 159.081 139.565C160.471 130.54 169.375 104.297 169.924 103.903C171.44 102.82 181.617 106.154 186.781 107.269C192.453 108.493 197.539 108.24 202.947 106.242C203.792 111.541 199.671 115.591 204.857 129.068Z" fill="#514342"/>
<path d="M170.981 103.873C170.54 103.873 170.213 103.93 170.035 104.057C169.383 104.863 160.629 130.762 159.268 139.593C158.439 144.973 158.805 149.985 159.357 157.571C159.825 163.983 160.465 172.763 160.614 185.405C160.621 185.996 160.607 186.817 160.59 187.767C160.462 195.233 160.161 212.716 168.068 217.276L168.111 217.301C170.18 218.495 173.308 220.3 206.447 225.467C213.566 226.578 221.148 227.509 228.338 226.825C229.248 226.739 230.042 226.132 230.357 225.283C231.164 223.124 232.084 219.852 231.889 216.526C231.841 215.705 231.391 214.97 230.684 214.558C222.776 209.954 216.892 207.675 185.71 197.143C184.708 196.804 184.119 195.765 184.338 194.722C186.617 183.962 187.691 172.927 187.531 161.924C187.522 161.37 187.853 160.893 188.376 160.709C188.893 160.524 189.449 160.686 189.79 161.12L215.026 193.272C223.699 204.322 226.267 203.944 269.183 197.617C273.978 196.911 279.277 196.13 285.142 195.282C286.357 195.106 287.25 194.051 287.219 192.826C287.071 186.834 286.859 185.047 285.267 182.591C284.876 181.989 284.232 181.599 283.501 181.52C279.299 181.063 274.507 180.902 269.436 180.731C256.198 180.289 241.194 179.785 233.514 173.471C230.874 171.299 208.766 139.753 204.68 129.135C201.156 119.975 201.902 115.182 202.503 111.33C202.772 109.603 203.006 108.101 202.793 106.501C197.571 108.386 192.464 108.688 186.741 107.454C185.211 107.124 183.262 106.604 181.197 106.056C177.478 105.063 173.01 103.873 170.981 103.873ZM223.176 227.438C217.558 227.438 211.84 226.692 206.388 225.841C173.179 220.663 170.14 218.909 167.92 217.628L167.877 217.604C159.778 212.931 160.082 195.293 160.211 187.76C160.228 186.814 160.241 185.995 160.234 185.41C160.086 172.779 159.446 164.005 158.979 157.598C158.424 149.987 158.058 144.958 158.893 139.535C160.271 130.596 169.153 104.221 169.815 103.748C170.957 102.933 176.212 104.335 181.294 105.688C183.355 106.237 185.3 106.755 186.821 107.084C192.551 108.319 197.653 107.995 202.881 106.064L203.097 105.984L203.133 106.212C203.413 107.958 203.164 109.548 202.877 111.389C202.284 115.196 201.546 119.934 205.034 128.999C209.106 139.585 231.127 171.017 233.754 173.178C241.336 179.41 256.271 179.911 269.448 180.354C274.527 180.523 279.325 180.684 283.542 181.143C284.388 181.234 285.132 181.688 285.584 182.385C287.267 184.979 287.455 187.058 287.599 192.816C287.634 194.232 286.601 195.454 285.196 195.658C279.331 196.504 274.033 197.286 269.238 197.992C226.117 204.349 223.536 204.73 214.728 193.506L189.491 161.354C189.202 160.985 188.79 160.964 188.502 161.065C188.211 161.168 187.902 161.446 187.909 161.918C188.071 172.95 186.994 184.014 184.709 194.802C184.53 195.654 185.012 196.506 185.833 196.783C217.044 207.327 222.937 209.61 230.875 214.23C231.691 214.706 232.212 215.556 232.268 216.503C232.466 219.897 231.532 223.224 230.713 225.417C230.346 226.401 229.428 227.102 228.374 227.203C226.659 227.366 224.923 227.438 223.176 227.438Z" fill="#463C3A"/>
<path d="M186.599 155.878L186.417 155.74C181.657 139.134 181.998 120.947 187.376 104.53C187.409 104.43 187.516 104.378 187.616 104.409C187.715 104.441 187.769 104.549 187.737 104.648C182.381 120.994 182.042 139.101 186.782 155.635C186.811 155.736 186.752 155.84 186.651 155.87L186.599 155.878Z" fill="#463C3A"/>
<path d="M264.161 183.736C253.313 183.736 245.371 182.836 239.716 181.004C232.184 178.564 229.381 174.683 226.414 170.576C226.007 170.01 225.593 169.44 225.164 168.866C217.775 158.98 215.592 154.813 213.837 151.465C212.795 149.475 211.895 147.757 210.133 145.284C209.096 143.831 208.059 142.566 207.055 141.344C201.865 135.014 197.766 130.014 199.132 106.932C199.139 106.828 199.232 106.742 199.332 106.754C199.438 106.761 199.517 106.85 199.511 106.954C198.153 129.888 202.211 134.837 207.349 141.103C208.357 142.331 209.397 143.6 210.44 145.065C212.22 147.559 213.125 149.287 214.174 151.288C215.921 154.625 218.097 158.776 225.468 168.637C225.899 169.215 226.312 169.788 226.721 170.353C229.651 174.41 232.417 178.241 239.835 180.644C248.093 183.319 261.297 183.993 281.385 182.767C281.475 182.756 281.579 182.839 281.586 182.944C281.592 183.048 281.513 183.139 281.408 183.146C274.978 183.538 269.249 183.736 264.161 183.736Z" fill="#463C3A"/>
<path d="M228.06 214.78L227.989 214.766C219.615 211.362 211.376 209.24 203.41 207.187C197.927 205.775 192.748 204.441 187.563 202.728C178.804 199.832 179.217 197.337 181.508 183.492C182.365 178.314 183.433 171.871 184.443 163.177C184.455 163.072 184.548 163.001 184.653 163.011C184.758 163.023 184.832 163.116 184.821 163.222C183.808 171.923 182.741 178.372 181.883 183.554C179.585 197.439 179.232 199.573 187.683 202.367C192.854 204.078 198.027 205.41 203.504 206.82C211.483 208.876 219.734 211.001 228.132 214.415C228.229 214.454 228.275 214.564 228.236 214.662L228.06 214.78Z" fill="#463C3A"/>
<path d="M183.606 139.977L183.448 139.891C182.989 139.196 182.482 138.486 181.991 137.8C180.07 135.114 178.085 132.335 177.9 129.088C177.696 125.496 180.416 111.098 182.594 104.239C182.625 104.139 182.73 104.085 182.832 104.116C182.932 104.147 182.987 104.254 182.955 104.354C180.786 111.185 178.076 125.504 178.279 129.067C178.457 132.203 180.411 134.937 182.3 137.581C182.791 138.269 183.301 138.98 183.765 139.682L183.711 139.944L183.606 139.977Z" fill="#463C3A"/>
<path d="M164.666 119.265C164.575 119.265 164.495 119.201 164.479 119.109C164.461 119.005 164.531 118.907 164.634 118.889C170.621 117.843 172.78 106.804 174.07 100.208L174.231 99.3853C174.252 99.2821 174.353 99.2129 174.454 99.236C174.556 99.256 174.624 99.3563 174.603 99.4575L174.442 100.28C173.134 106.972 170.943 118.172 164.699 119.262L164.666 119.265Z" fill="#463C3A"/>
<path d="M199.421 125.773C198.831 125.773 198.299 125.54 197.837 125.079C195.275 122.516 195.396 113.227 195.567 109.352C195.572 109.248 195.648 109.169 195.766 109.17C195.869 109.175 195.95 109.264 195.946 109.368C195.777 113.194 195.649 122.354 198.106 124.809C198.521 125.226 198.977 125.414 199.504 125.394C199.618 125.377 199.697 125.47 199.701 125.573C199.706 125.678 199.625 125.767 199.521 125.77L199.421 125.773Z" fill="#463C3A"/>
<path d="M231.063 200.045C227.019 200.045 222.966 198.74 219.752 196.289L219.717 196.024L219.983 195.987C224.454 199.399 230.588 200.543 235.989 198.976C236.09 198.945 236.195 199.006 236.224 199.106C236.252 199.206 236.195 199.312 236.094 199.341C234.461 199.814 232.763 200.045 231.063 200.045Z" fill="#463C3A"/>
<path d="M187.767 159.664L187.518 159.584C186.279 158.702 185.385 158.218 183.949 158.013C183.845 157.999 183.773 157.903 183.787 157.8C183.803 157.696 183.897 157.628 184.002 157.638C185.517 157.853 186.449 158.357 187.739 159.274L187.787 159.281L187.812 159.245C188.082 157.233 189.946 155.223 191.563 154.354C191.655 154.306 191.77 154.339 191.82 154.431C191.87 154.524 191.836 154.638 191.742 154.689C190.186 155.524 188.432 157.476 188.188 159.297C188.169 159.445 188.075 159.569 187.937 159.629L187.767 159.664Z" fill="#463C3A"/>
<path d="M263.778 157.029C252.072 148.43 249.014 144.083 245.066 141.695C246.93 139.947 248.793 138.198 250.656 136.45C259.286 148.201 263.326 148.04 272.962 145.903C274.581 145.544 274.87 147.264 272.686 147.786C271.517 148.067 270.345 148.336 269.173 148.598C271.368 150.642 281.917 149.838 281.85 152.004C281.801 153.554 276.585 152.581 275.339 152.315C273.89 152.004 272.251 151.595 271.026 152.429C278.984 155.616 282.217 156.382 281.007 157.859C278.328 158.312 271.413 154.486 270.182 155.354C277.937 160.079 279.191 160.551 278.619 161.461C277.614 162.696 274.377 159.696 268.372 157.17C268.259 157.736 268.778 158.21 269.229 158.57C270.759 159.791 274.525 163.096 272.551 163.762C267.837 160.178 265.989 158.653 263.778 157.029Z" fill="#FBA584"/>
<path d="M201.947 95.8579C213.766 118.61 231.117 138.876 253.695 151.447C254.409 151.844 255.297 151.754 255.927 151.233C258.34 149.237 259.664 147.442 260.744 145.411C261.174 144.604 260.976 143.607 260.292 143.001C228.674 114.964 219.435 85.0083 215.111 75.524C210.056 64.4389 194.499 81.5231 201.947 95.8579Z" fill="#43C59E"/>
<path d="M210.5 72.1571C208.128 72.1571 205.404 74.0666 203.308 77.2291C200.375 81.6575 198.521 88.8534 202.115 95.7707C214.901 120.383 232.769 139.578 253.786 151.281C254.425 151.635 255.237 151.558 255.805 151.087C257.94 149.322 259.366 147.597 260.576 145.321C260.962 144.596 260.794 143.7 260.165 143.143C232.616 118.714 222.003 92.7506 216.904 80.2722C216.15 78.4249 215.497 76.8301 214.938 75.6022C213.976 73.4933 212.558 72.3065 210.838 72.1702C210.726 72.1621 210.614 72.1571 210.5 72.1571ZM254.647 151.881C254.287 151.881 253.926 151.793 253.602 151.612C232.519 139.874 214.599 120.624 201.778 95.9451C198.108 88.8825 199.999 81.5382 202.993 77.0196C205.264 73.5915 208.285 71.5848 210.868 71.7923C212.733 71.9396 214.26 73.2026 215.282 75.4449C215.845 76.6788 216.499 78.2785 217.255 80.1289C222.344 92.5802 232.935 118.489 260.417 142.859C261.177 143.532 261.38 144.618 260.911 145.5C259.676 147.821 258.222 149.579 256.047 151.379C255.648 151.71 255.148 151.881 254.647 151.881Z" fill="#467265"/>
<path d="M218.298 87.5953C218.298 88.4172 217.976 89.0828 217.578 89.0828C217.181 89.0828 216.86 88.4172 216.86 87.5953C216.86 86.7733 217.181 86.1078 217.578 86.1078C217.976 86.1078 218.298 86.7733 218.298 87.5953Z" fill="white"/>
<path d="M223.312 120.951C223.312 121.772 222.989 122.439 222.591 122.439C222.194 122.439 221.872 121.772 221.872 120.951C221.872 120.129 222.194 119.463 222.591 119.463C222.989 119.463 223.312 120.129 223.312 120.951Z" fill="white"/>
<path d="M240.962 137.467C240.962 138.29 240.639 138.956 240.242 138.956C239.844 138.956 239.522 138.29 239.522 137.467C239.522 136.646 239.844 135.98 240.242 135.98C240.639 135.98 240.962 136.646 240.962 137.467Z" fill="white"/>
<path d="M255 147.79C255 148.613 254.679 149.279 254.282 149.279C253.884 149.279 253.561 148.613 253.561 147.79C253.561 146.969 253.884 146.304 254.282 146.304C254.679 146.304 255 146.969 255 147.79Z" fill="white"/>
<path d="M225.064 107.943C225.064 108.765 224.741 109.432 224.343 109.432C223.946 109.432 223.625 108.765 223.625 107.943C223.625 107.121 223.946 106.456 224.343 106.456C224.741 106.456 225.064 107.121 225.064 107.943Z" fill="white"/>
<path d="M236.212 121.157C236.212 121.978 235.89 122.644 235.492 122.644C235.095 122.644 234.774 121.978 234.774 121.157C234.774 120.335 235.095 119.67 235.492 119.67C235.89 119.67 236.212 120.335 236.212 121.157Z" fill="white"/>
<path d="M251.597 137.881C251.597 138.703 251.275 139.368 250.877 139.368C250.48 139.368 250.157 138.703 250.157 137.881C250.157 137.059 250.48 136.392 250.877 136.392C251.275 136.392 251.597 137.059 251.597 137.881Z" fill="white"/>
<path d="M214.328 101.956C214.328 102.777 214.005 103.444 213.607 103.444C213.21 103.444 212.888 102.777 212.888 101.956C212.888 101.134 213.21 100.468 213.607 100.468C214.005 100.468 214.328 101.134 214.328 101.956Z" fill="white"/>
<path d="M128.098 9.65291C126.762 4.06976 122.959 0.336964 128.179 20.6478C128.647 22.4671 129.772 22.1443 130.038 21.3414C130.302 20.5495 127.904 8.844 128.098 9.65291Z" fill="#373535"/>
<path d="M128.877 13.7377C128.358 16.1403 129.768 18.8227 129.449 18.8477C129.15 18.8718 127.293 14.4313 126.809 14.9646C125.222 16.7147 128.439 20.9567 129.957 20.1087C131.748 19.1103 129.644 14.9906 129.462 14.285C129.343 13.8279 129.015 13.0982 128.877 13.7377Z" fill="#EA7957"/>
<path d="M132.364 29.6181L137.204 38.1703L130.684 41.6194C128.036 35.3697 127.192 33.403 125.349 28.1106C125.218 27.7327 122.516 24.1111 121.515 21.5591C120.365 18.6222 122.865 20.5097 122.797 17.4244C122.786 16.8881 123.05 16.2136 123.586 16.2286C123.851 16.2366 124.089 16.4251 124.354 16.416C125.221 16.388 125.215 13.7798 126.73 14.9035C127.185 15.2403 127.381 15.6943 129.26 18.954C129.374 19.1505 129.683 19.0502 129.646 18.8257C129.387 17.249 128.121 13.6595 129.422 12.1229C129.641 11.8633 130.062 11.9124 130.226 12.2101C135.12 21.1462 131.436 21.4459 132.007 28.4865C132.039 28.8844 132.166 29.2693 132.364 29.6181Z" fill="#FBA584"/>
<path d="M129.306 21.8745L129.166 21.8134L129.178 21.5447C129.811 20.9684 129.994 20.5664 129.79 20.2016C129.74 20.1094 129.773 19.9941 129.866 19.943C129.956 19.8918 130.072 19.9259 130.122 20.0171C130.557 20.801 129.741 21.5457 129.434 21.8254L129.306 21.8745Z" fill="#EA7957"/>
<path d="M127.645 22.8792L127.496 22.808L127.526 22.5413C128.28 21.9349 127.719 21.0077 125.983 18.4156C125.671 17.9505 125.328 17.4373 124.958 16.871L125.013 16.6084L125.275 16.6635C125.645 17.2288 125.987 17.741 126.299 18.2051C128.035 20.7982 128.828 21.981 127.763 22.8361L127.645 22.8792Z" fill="#EA7957"/>
<path d="M125.683 24.0349C124.816 24.0349 123.383 22.7088 122.297 21.5491L122.306 21.2804L122.574 21.2894C124.862 23.7312 125.636 23.6791 125.77 23.646C125.824 23.6309 125.891 23.5969 125.924 23.4596C126.076 22.8291 125.269 21.0408 123.612 19.5604L123.597 19.2927L123.865 19.2777C125.566 20.7973 126.493 22.7128 126.293 23.5488C126.235 23.7893 126.084 23.9547 125.867 24.0119L125.683 24.0349Z" fill="#EA7957"/>
<path d="M134.353 29.1748C139.387 36.7386 145.64 47.929 148.821 53.7366C149.806 55.5329 151.727 56.6034 153.774 56.5072C175.71 55.4828 182.432 57.7601 187.073 58.8497C191.402 59.8671 193.523 74.269 188.836 77.3903C184.708 80.1398 177.086 82.4402 173.299 81.4629C159.249 77.8384 144.129 74.0505 140.07 70.2485C134.596 65.1215 127.695 41.2482 125.801 33.3456C125.626 32.6139 125.882 31.8541 126.453 31.363C128.069 29.9707 130.048 28.9453 132.176 28.3619C133.001 28.1364 133.879 28.4621 134.353 29.1748Z" fill="#43C59E"/>
<path d="M132.704 28.4802C132.545 28.4802 132.385 28.5012 132.226 28.5453C130.104 29.1267 128.152 30.1501 126.576 31.5063C126.054 31.9564 125.828 32.644 125.986 33.3015C128.261 42.7939 135 65.2397 140.2 70.1102C144.069 73.7347 158.138 77.3613 171.744 80.8665L173.345 81.2795C177.123 82.2538 184.718 79.9043 188.73 77.233C191.331 75.5009 191.704 70.2094 190.951 66.0256C190.256 62.1755 188.716 59.431 187.03 59.0341C186.625 58.9399 186.206 58.8356 185.761 58.7264C180.992 57.5456 173.785 55.7614 153.782 56.6966C151.633 56.8019 149.679 55.6973 148.655 53.8279C145.39 47.8688 139.171 36.7556 134.196 29.28C133.857 28.7718 133.294 28.4802 132.704 28.4802ZM175.362 81.8789C174.581 81.8789 173.867 81.8057 173.251 81.6474L171.649 81.2344C157.997 77.7161 143.881 74.0785 139.94 70.3878C134.159 64.9711 127.063 39.4239 125.617 33.3907C125.425 32.5938 125.699 31.7619 126.328 31.2186C127.946 29.8263 129.951 28.7749 132.126 28.1795C133.031 27.9309 133.991 28.2887 134.512 29.0696C139.494 36.5572 145.72 47.6814 148.988 53.6454C149.942 55.3875 151.783 56.4129 153.765 56.3177C173.824 55.3805 181.063 57.1727 185.854 58.3575C186.296 58.4668 186.714 58.571 187.117 58.6652C189.342 59.1885 190.75 62.7759 191.323 65.9594C192.098 70.2605 191.684 75.7214 188.941 77.5487C185.512 79.8311 179.493 81.8789 175.362 81.8789Z" fill="#467265"/>
<path d="M180.543 62.2625C180.543 63.0844 180.221 63.75 179.823 63.75C179.425 63.75 179.104 63.0844 179.104 62.2625C179.104 61.4406 179.425 60.775 179.823 60.775C180.221 60.775 180.543 61.4406 180.543 62.2625Z" fill="white"/>
<path d="M156.438 72.7796C156.438 73.6015 156.116 74.2681 155.718 74.2681C155.322 74.2681 154.999 73.6015 154.999 72.7796C154.999 71.9586 155.322 71.2921 155.718 71.2921C156.116 71.2921 156.438 71.9586 156.438 72.7796Z" fill="white"/>
<path d="M138.652 60.3873C138.652 61.2082 138.329 61.8748 137.931 61.8748C137.534 61.8748 137.211 61.2082 137.211 60.3873C137.211 59.5653 137.534 58.8998 137.931 58.8998C138.329 58.8998 138.652 59.5653 138.652 60.3873Z" fill="white"/>
<path d="M162.541 61.1692C162.541 61.9912 162.22 62.6567 161.822 62.6567C161.424 62.6567 161.102 61.9912 161.102 61.1692C161.102 60.3473 161.424 59.6817 161.822 59.6817C162.22 59.6817 162.541 60.3473 162.541 61.1692Z" fill="white"/>
<path d="M142.844 48.6971C142.844 49.519 142.522 50.1855 142.125 50.1855C141.728 50.1855 141.405 49.519 141.405 48.6971C141.405 47.8761 141.728 47.2095 142.125 47.2095C142.522 47.2095 142.844 47.8761 142.844 48.6971Z" fill="white"/>
<path d="M133.738 32.2264C133.738 33.0483 133.416 33.7148 133.018 33.7148C132.62 33.7148 132.299 33.0483 132.299 32.2264C132.299 31.4044 132.62 30.7388 133.018 30.7388C133.416 30.7388 133.738 31.4044 133.738 32.2264Z" fill="white"/>
<path d="M134.246 46.6641C134.246 47.4861 133.923 48.1516 133.526 48.1516C133.128 48.1516 132.806 47.4861 132.806 46.6641C132.806 45.8422 133.128 45.1766 133.526 45.1766C133.923 45.1766 134.246 45.8422 134.246 46.6641Z" fill="white"/>
<path d="M147.547 62.1485C147.547 62.9704 147.225 63.636 146.828 63.636C146.43 63.636 146.108 62.9704 146.108 62.1485C146.108 61.3265 146.43 60.661 146.828 60.661C147.225 60.661 147.547 61.3265 147.547 62.1485Z" fill="white"/>
<path d="M170.167 72.3145C170.167 73.1364 169.844 73.802 169.447 73.802C169.049 73.802 168.726 73.1364 168.726 72.3145C168.726 71.4926 169.049 70.827 169.447 70.827C169.844 70.827 170.167 71.4926 170.167 72.3145Z" fill="white"/>
<path d="M204.698 114.795C206.181 113.797 206.805 111.955 207.319 110.242C212.747 92.1503 216.114 86.075 216.114 80.6452C216.114 76.3401 213.93 71.5789 209.447 67.6466C202.621 71.2631 194.212 67.827 196.026 61.6254C191.816 60.594 192.177 59.7801 187.073 58.8499C170.411 86.5702 159.143 101.262 168.121 108.038C179.535 116.653 201.369 117.032 204.698 114.795Z" fill="#43C59E"/>
<path d="M187.169 59.0603C184.771 63.0477 182.527 66.6983 180.355 70.2296C167.681 90.8441 160.7 102.2 168.234 107.886C179.502 116.39 201.343 116.819 204.591 114.637L204.697 114.795L204.591 114.637C205.993 113.697 206.594 111.995 207.137 110.189C209.316 102.926 211.133 97.6842 212.593 93.4733C214.74 87.2777 215.924 83.8647 215.924 80.6451C215.924 76.1906 213.556 71.5427 209.42 67.8751C205.428 69.9359 200.49 69.7495 197.629 67.418C195.86 65.9746 195.212 63.9729 195.792 61.7627C194.052 61.3246 193.111 60.9257 192.201 60.5398C191.028 60.0406 189.917 59.5695 187.169 59.0603ZM196.661 116.166C188.341 116.166 175.865 114.12 168.005 108.188C160.196 102.295 167.242 90.8341 180.032 70.0311C182.223 66.4667 184.489 62.7821 186.911 58.7526L186.978 58.6403L187.107 58.6634C189.992 59.1896 191.137 59.6758 192.35 60.19C193.278 60.5849 194.238 60.9919 196.071 61.4409L196.265 61.488L196.209 61.6785C195.585 63.8085 196.176 65.742 197.869 67.1233C200.248 69.0649 204.96 69.8096 209.358 67.4791L209.473 67.418L209.572 67.5042C213.85 71.256 216.304 76.0463 216.304 80.6451C216.304 83.9289 215.112 87.3629 212.951 93.5976C211.492 97.8055 209.677 103.042 207.5 110.297C206.96 112.098 206.307 113.942 204.803 114.952C203.699 115.694 200.66 116.166 196.661 116.166Z" fill="#218A6B"/>
<path d="M190.805 65.5076C190.805 66.3295 190.484 66.9961 190.087 66.9961C189.689 66.9961 189.366 66.3295 189.366 65.5076C189.366 64.6866 189.689 64.0201 190.087 64.0201C190.484 64.0201 190.805 64.6866 190.805 65.5076Z" fill="white"/>
<path d="M176.776 89.7969C176.776 90.6189 176.454 91.2844 176.057 91.2844C175.659 91.2844 175.337 90.6189 175.337 89.7969C175.337 88.975 175.659 88.3094 176.057 88.3094C176.454 88.3094 176.776 88.975 176.776 89.7969Z" fill="white"/>
<path d="M168.118 103.044C168.118 103.866 167.795 104.531 167.398 104.531C167 104.531 166.679 103.866 166.679 103.044C166.679 102.222 167 101.556 167.398 101.556C167.795 101.556 168.118 102.222 168.118 103.044Z" fill="white"/>
<path d="M191.58 86.9249C191.58 87.7458 191.258 88.4114 190.86 88.4114C190.463 88.4114 190.141 87.7458 190.141 86.9249C190.141 86.1029 190.463 85.4364 190.86 85.4364C191.258 85.4364 191.58 86.1029 191.58 86.9249Z" fill="white"/>
<path d="M185.215 75.7237C185.215 76.5456 184.893 77.2112 184.495 77.2112C184.098 77.2112 183.777 76.5456 183.777 75.7237C183.777 74.9017 184.098 74.2352 184.495 74.2352C184.893 74.2352 185.215 74.9017 185.215 75.7237Z" fill="white"/>
<path d="M189.756 111.23C189.756 112.051 189.433 112.718 189.036 112.718C188.638 112.718 188.316 112.051 188.316 111.23C188.316 110.407 188.638 109.742 189.036 109.742C189.433 109.742 189.756 110.407 189.756 111.23Z" fill="white"/>
<path d="M181.139 101.507C181.139 102.329 180.817 102.996 180.419 102.996C180.021 102.996 179.698 102.329 179.698 101.507C179.698 100.685 180.021 100.02 180.419 100.02C180.817 100.02 181.139 100.685 181.139 101.507Z" fill="white"/>
<path d="M203.501 111.834C203.501 112.655 203.18 113.322 202.783 113.322C202.384 113.322 202.062 112.655 202.062 111.834C202.062 111.013 202.384 110.346 202.783 110.346C203.18 110.346 203.501 111.013 203.501 111.834Z" fill="white"/>
<path d="M200.639 99.74C200.639 100.561 200.317 101.228 199.919 101.228C199.522 101.228 199.199 100.561 199.199 99.74C199.199 98.9181 199.522 98.2515 199.919 98.2515C200.317 98.2515 200.639 98.9181 200.639 99.74Z" fill="white"/>
<path d="M199.863 75.4507C199.863 76.2727 199.54 76.9382 199.143 76.9382C198.745 76.9382 198.423 76.2727 198.423 75.4507C198.423 74.6288 198.745 73.9622 199.143 73.9622C199.54 73.9622 199.863 74.6288 199.863 75.4507Z" fill="white"/>
<path d="M211.171 87.7129C211.171 88.5349 210.849 89.2004 210.451 89.2004C210.054 89.2004 209.731 88.5349 209.731 87.7129C209.731 86.891 210.054 86.2254 210.451 86.2254C210.849 86.2254 211.171 86.891 211.171 87.7129Z" fill="white"/>
<path d="M210.516 72.5159C210.516 73.3379 210.195 74.0034 209.798 74.0034C209.399 74.0034 209.077 73.3379 209.077 72.5159C209.077 71.694 209.399 71.0284 209.798 71.0284C210.195 71.0284 210.516 71.694 210.516 72.5159Z" fill="white"/>
<path d="M144.184 61.2095L144.006 61.0842C143.971 60.9849 144.023 60.8767 144.121 60.8416C146.256 60.0788 148.188 58.7858 149.706 57.1028L149.975 57.0888L149.988 57.3564C148.427 59.0865 146.443 60.4146 144.248 61.1984L144.184 61.2095Z" fill="#467265"/>
<path d="M250.754 148.931L250.661 148.907C231.752 138.259 219.91 118.097 211.263 103.375C211.21 103.284 211.24 103.168 211.33 103.115C211.42 103.061 211.536 103.091 211.59 103.182C220.214 117.868 232.026 137.979 250.848 148.575C250.939 148.627 250.971 148.743 250.92 148.834L250.754 148.931Z" fill="#467265"/>
<path d="M181.046 112.29L180.952 112.264L180.432 111.97C172.262 107.346 163.813 102.563 170.848 89.1029C170.897 89.0097 171.012 88.9736 171.104 89.0218C171.197 89.0709 171.233 89.1851 171.184 89.2784C164.319 102.413 172.605 107.103 180.619 111.64L181.141 111.935C181.232 111.987 181.264 112.102 181.211 112.194L181.046 112.29Z" fill="#467265"/>
<path d="M181.739 60.4424L181.695 60.4374C176.439 59.1563 171.037 58.3204 165.639 57.9515C165.534 57.9445 165.455 57.8533 165.463 57.749C165.47 57.6448 165.561 57.5676 165.664 57.5726C171.084 57.9435 176.508 58.7825 181.784 60.0685C181.886 60.0936 181.949 60.1958 181.923 60.298L181.739 60.4424Z" fill="#467265"/>
<path d="M226.118 40.7393C226.029 40.7393 225.949 40.6761 225.932 40.5849C225.696 39.2969 225.161 38.3707 224.465 38.0429C224.13 37.8845 223.791 37.8835 223.51 38.0399L222.568 38.5651L223.276 37.7492C224.184 36.7027 224.257 36.2908 224.199 34.8364C224.195 34.7321 224.276 34.6439 224.381 34.6389C224.483 34.6329 224.574 34.7171 224.579 34.8213C224.631 36.1324 224.571 36.6958 223.93 37.5458C224.151 37.5407 224.396 37.5918 224.626 37.7001C225.101 37.9236 225.951 38.5872 226.305 40.5157C226.325 40.619 226.257 40.7172 226.153 40.7362L226.118 40.7393Z" fill="#353B49"/>
<path d="M211.55 54.9999C213.386 49.2764 221.221 40.6441 212.713 39.0223C210.04 38.5121 207.477 39.3611 202.699 37.7783C191.491 34.0666 199.263 23.9408 201.137 29.5931C201.518 30.7418 203.284 31.3763 203.946 30.3639C204.438 29.6101 203.638 26.6311 212.688 27.3648C218.944 25.1897 224.284 33.3128 223.704 37.3062C223.676 37.4917 223.743 37.6831 223.877 37.8134C227.87 41.7216 225.088 54.3885 215.79 55.9551C213.86 56.2799 214.944 63.0709 212.13 62.5627C209.737 62.1307 211.03 56.6227 211.55 54.9999Z" fill="#353B49"/>
<path d="M216.484 48.5307C215 47.0793 212.931 50.7018 211.954 52.5281C210.029 56.1256 218.82 50.8181 216.484 48.5307Z" fill="#FBA584"/>
<path d="M215.152 50.1325C215.189 49.936 214.894 49.8819 214.857 50.0744C214.628 51.2521 214.005 51.6821 213.467 51.6891L213.319 51.8415C213.326 52.3908 214.824 51.8154 215.152 50.1325Z" fill="#EA7957"/>
<path d="M206.16 48.9735C206.809 49.209 208.212 46.9287 206.639 46.3573C205.8 46.0526 205.1 48.5876 206.16 48.9735Z" fill="#382823"/>
<path d="M199.075 45.9605C199.724 46.1961 201.127 43.9157 199.554 43.3444C198.715 43.0386 198.015 45.5756 199.075 45.9605Z" fill="#382823"/>
<path d="M199.818 40.195C200.509 40.2491 201.262 40.4315 201.987 40.8225C202.965 41.3497 202.547 42.1335 201.715 41.9882C200.803 41.8278 200.604 41.2464 199.21 41.1071L199.818 40.195Z" fill="#353B49"/>
<path d="M206.799 43.1338C205.739 42.794 205.465 43.6379 206.146 44.1371C207.059 44.8057 207.688 44.2704 209.308 46.1278C211.089 48.1706 210.105 44.1963 206.799 43.1338Z" fill="#353B49"/>
<path d="M199.615 51.3953L199.575 51.3913C198.86 51.2409 198.272 50.7958 197.986 50.4591C197.899 50.3568 197.856 50.2215 197.868 50.0892C197.882 49.9589 197.946 49.8416 198.049 49.7594C198.61 49.3164 199.971 48.0724 200.497 46.0968C200.525 45.9955 200.627 45.9344 200.73 45.9625C200.831 45.9895 200.892 46.0928 200.865 46.194C200.307 48.2799 198.875 49.59 198.285 50.0571L198.246 50.1263L198.276 50.2135C198.541 50.5272 199.072 50.8981 199.654 51.0204C199.756 51.0414 199.822 51.1417 199.8 51.2439L199.615 51.3953Z" fill="#EA7957"/>
<path d="M200.352 55.515C196.145 58.0059 195.229 55.1692 195.918 53.0392C195.961 52.9078 196.135 52.8256 196.24 52.9129C198.056 54.4184 199.368 54.9918 200.345 55.1221C200.518 55.1441 200.5 55.4258 200.352 55.515Z" fill="white"/>
<path d="M203.807 35.6663C201.654 35.6663 201.145 35.159 199.471 33.4891C199.283 33.3027 199.082 33.1012 198.861 32.8837C196.964 31.0183 197.62 29.9207 197.866 29.628C198.274 29.1469 199 29.0176 199.454 29.3444C199.716 29.5328 199.853 29.8235 199.996 30.1312C200.232 30.6374 200.477 31.1606 201.319 31.4293C201.418 31.4614 201.474 31.5676 201.442 31.6668C201.41 31.7671 201.303 31.8222 201.204 31.7901C200.202 31.4714 199.898 30.8178 199.653 30.2926C199.525 30.019 199.415 29.7834 199.233 29.6521C198.938 29.4396 198.435 29.5428 198.156 29.8736C197.963 30.1022 197.462 30.9762 199.127 32.6141C199.348 32.8316 199.551 33.034 199.738 33.2205C201.563 35.0398 201.893 35.3665 204.458 35.2733C204.576 35.2693 204.651 35.3515 204.655 35.4568C204.659 35.561 204.577 35.6492 204.472 35.6532C204.234 35.6612 204.013 35.6663 203.807 35.6663Z" fill="#30323E"/>
<path d="M217.191 47.906L217.125 47.895C217.027 47.8579 216.977 47.7496 217.013 47.6504L217.008 47.6053C216.885 47.473 216.299 47.3988 215.664 47.5873C215.565 47.6173 215.457 47.5602 215.428 47.46C215.399 47.3587 215.455 47.2535 215.557 47.2234C216.178 47.04 216.993 47.0349 217.285 47.3457C217.397 47.465 217.427 47.6243 217.368 47.7827L217.191 47.906Z" fill="#30323E"/>
<path d="M213.132 54.2778L212.946 54.1305C212.922 54.0292 212.985 53.927 213.089 53.903C214.64 53.5411 216.7 52.8154 217.704 51.4061L217.969 51.362L218.013 51.6256C216.941 53.1311 214.79 53.8959 213.174 54.2728L213.132 54.2778Z" fill="#30323E"/>
<path d="M212.438 61.1204L212.229 61.0492C211.772 60.7194 211.552 59.0354 211.65 58.1103C211.661 58.006 211.757 57.9298 211.859 57.9429C211.963 57.9529 212.038 58.0471 212.027 58.1514C211.91 59.257 212.25 60.6442 212.455 60.7435C212.463 60.7244 212.821 60.4618 213.102 57.4216C213.111 57.3174 213.205 57.2422 213.308 57.2502C213.411 57.2603 213.489 57.3525 213.48 57.4567C213.169 60.8217 212.741 61.0161 212.579 61.0893L212.438 61.1204Z" fill="#30323E"/>
<path d="M218.108 40.1135C217.703 40.1135 217.299 40.0644 216.906 39.9622C216.804 39.9371 216.742 39.8339 216.768 39.7316C216.795 39.6304 216.898 39.5693 216.999 39.5953C218.888 40.0825 221.042 39.2585 222.123 37.6367L222.385 37.5836L222.438 37.8472C221.497 39.2605 219.799 40.1135 218.108 40.1135Z" fill="#30323E"/>
<path d="M222.014 47.3247C221.917 47.3247 221.834 47.2505 221.826 47.1523C221.241 40.649 220.469 40.1618 220.383 40.1278L220.321 40.1508C219.904 40.5217 219.622 42.8191 220.071 44.5181C220.098 44.6193 220.038 44.7236 219.937 44.7507C219.834 44.7777 219.731 44.7166 219.704 44.6153C219.262 42.9404 219.456 40.4104 220.069 39.8672C220.205 39.7459 220.368 39.7128 220.523 39.7749C221.225 40.0536 221.79 42.5244 222.204 47.1182C222.212 47.2225 222.136 47.3147 222.032 47.3247H222.014Z" fill="#30323E"/>
<path d="M223.613 44.0969L223.576 44.0939C223.473 44.0739 223.406 43.9746 223.426 43.8714C223.715 42.3669 223.309 40.7591 222.341 39.5713L222.369 39.3046L222.635 39.3317C223.673 40.6057 224.108 42.3298 223.798 43.9436C223.781 44.0348 223.702 44.0969 223.613 44.0969Z" fill="#30323E"/>
<path d="M219.312 38.3835C218.584 38.3835 216.832 35.8245 216.694 35.587L216.761 35.3273C216.85 35.2752 216.968 35.3053 217.022 35.3955C217.47 36.1613 218.83 37.8202 219.245 37.9916C219.324 36.4871 218.917 35.3685 218.559 34.3821C218.225 33.46 217.908 32.5899 218.033 31.5735C218.047 31.4703 218.145 31.3941 218.245 31.4091C218.35 31.4221 218.423 31.5164 218.41 31.6206C218.295 32.5458 218.583 33.3367 218.915 34.2528C219.286 35.2742 219.707 36.433 219.623 38.0157C219.609 38.2803 219.462 38.3545 219.375 38.3755L219.312 38.3835Z" fill="#30323E"/>
<path d="M207.988 33.7695C207.539 33.7695 206.489 33.4718 203.771 32.4544C203.673 32.4184 203.623 32.3081 203.66 32.2109C203.697 32.1116 203.805 32.0625 203.904 32.0996C206.2 32.9586 207.561 33.3926 207.96 33.3926C207.875 33.2192 207.541 32.8664 207.263 32.5757C206.296 31.5573 204.834 30.0177 205.718 28.9191L205.986 28.8911L206.014 29.1577C205.337 29.9976 206.663 31.3919 207.539 32.3141C208.189 32.9997 208.515 33.3425 208.334 33.6182C208.276 33.7044 208.197 33.7695 207.988 33.7695Z" fill="#30323E"/>
<path d="M211.527 38.0046C210.501 38.0046 209.325 37.7841 207.964 36.9993C207.872 36.9471 207.842 36.8309 207.893 36.7407C207.946 36.6485 208.061 36.6184 208.153 36.6705C210.352 37.9385 212.058 37.6528 213.426 37.4223C214.338 37.2689 215.123 37.1366 215.836 37.4804C215.931 37.5265 215.97 37.6398 215.925 37.734C215.879 37.8282 215.765 37.8683 215.672 37.8222C215.068 37.5315 214.372 37.6478 213.49 37.7962C212.899 37.8954 212.25 38.0046 211.527 38.0046Z" fill="#30323E"/>
<path d="M221.404 36.7749L221.338 36.7639C221.24 36.7278 221.19 36.6185 221.226 36.5203C221.793 34.9706 221.234 33.0461 219.923 32.0438L219.888 31.7771L220.153 31.7421C221.615 32.8597 222.215 34.9245 221.583 36.6506L221.404 36.7749Z" fill="#30323E"/>
<path d="M210.332 31.2898L210.307 31.2878C210.204 31.2748 210.131 31.1795 210.144 31.0753C210.239 30.3416 211.401 29.1738 212.117 29.0926C212.451 29.0545 212.832 29.237 213.314 29.4665C214.331 29.9516 215.726 30.6142 217.395 29.4314L217.658 29.4765L217.614 29.7401C215.763 31.0532 214.191 30.3045 213.152 29.8093C212.741 29.6138 212.387 29.4435 212.16 29.4695C211.605 29.5327 210.595 30.5531 210.519 31.1244C210.507 31.2196 210.426 31.2898 210.332 31.2898Z" fill="#30323E"/>
<path d="M223.05 38.135L222.887 38.0418L222.954 37.7822C223.889 37.2269 224.452 36.9653 225.563 36.9562C225.669 36.9562 225.754 37.0394 225.755 37.1437C225.755 37.2489 225.672 37.3341 225.567 37.3351C224.543 37.3441 224.043 37.5777 223.146 38.1079L223.05 38.135Z" fill="#353B49"/>
<path d="M66.079 130.255C64.7897 129.44 63.4058 129.191 61.9272 129.51C60.4486 129.829 59.3091 130.621 58.5087 131.886C57.7083 133.152 57.481 134.521 57.8269 135.994C58.1729 137.466 58.9905 138.61 60.2797 139.425L51.5808 153.18C50.7955 154.422 50.5781 155.789 50.9286 157.281C51.2792 158.773 52.0869 159.919 53.3519 160.719C68.7364 158.848 81.4823 160.557 91.5896 165.845C92.7136 167.191 93.322 168.679 93.415 170.309C93.508 171.94 93.1261 173.378 92.2695 174.625C91.4129 175.872 90.2279 176.668 88.7145 177.015C88.7026 178.111 88.4878 179.07 88.07 179.892C87.6521 180.714 87.1412 181.361 86.5371 181.831C85.9331 182.302 85.1103 182.701 84.0688 183.028C83.0273 183.356 82.0659 183.584 81.1846 183.712C80.3034 183.84 79.174 183.97 77.7965 184.101C77.6261 185.933 78.3555 187.781 79.9849 189.648C81.6142 191.514 83.5769 192.947 85.8728 193.948C88.1688 194.949 90.1934 195.301 91.9467 195.006C92.4643 194.564 93.4839 193.747 95.0053 192.552C96.5267 191.358 97.6296 190.476 98.3137 189.906C98.9979 189.336 99.9497 188.45 101.169 187.249C102.389 186.047 103.334 184.957 104.004 183.977C104.675 182.997 105.376 181.794 106.108 180.368C106.84 178.942 107.407 177.453 107.809 175.902L112.26 178.717C113.866 179.733 115.595 180.041 117.448 179.641C119.301 179.242 120.726 178.254 121.723 176.678L126.073 169.801C127.069 168.224 127.351 166.514 126.917 164.668C126.484 162.823 125.464 161.392 123.859 160.377L106.344 149.3C95.7619 142.608 87.7634 131.131 82.3482 114.869C81.0832 114.069 79.7016 113.83 78.2033 114.153C76.705 114.476 75.5632 115.258 74.7779 116.5L66.079 130.255ZM57.067 154.845L78.6783 120.672C83.702 133.945 90.4533 143.948 98.9321 150.681L92.8157 160.352C83.0104 155.556 71.0942 153.72 57.067 154.845Z" fill="#0075FF"/>
</svg>
