<svg width="246" height="253" viewBox="0 0 246 253" fill="none" xmlns="http://www.w3.org/2000/svg">
<path d="M115.923 146.313C73.8751 142.225 48.6174 143.977 10.0738 146.459C7.44587 146.605 5.10986 144.561 5.10986 141.787V93.4618C5.10986 90.6879 7.59183 88.4979 10.2198 88.9359C51.0993 93.8998 79.131 95.9438 115.485 89.3739C118.259 88.7899 120.887 90.9799 120.887 93.8998V141.641C121.033 144.415 118.551 146.605 115.923 146.313Z" fill="#9DC4F2"/>
<path d="M110.813 140.473C68.7652 136.385 43.5075 138.137 4.96398 140.619C2.33601 140.765 0 138.721 0 135.947V87.622C0 84.848 2.48197 82.658 5.10994 83.096C45.9895 88.06 74.0211 90.104 110.375 83.534C113.149 82.95 115.777 85.14 115.777 88.06V135.801C115.777 138.575 113.441 140.765 110.813 140.473Z" fill="#0075FF"/>
<path d="M26.1196 124.979H12.1044C10.9116 124.979 9.86792 118.935 9.86792 112.027C9.86792 105.12 10.9116 99.0754 12.1044 99.0754H26.1196C27.3124 99.0754 28.3561 105.12 28.3561 112.027C28.5052 118.935 27.4615 124.979 26.1196 124.979Z" fill="white"/>
<path d="M52.0354 124.979H38.0094C36.8157 124.979 35.7712 120.661 35.7712 115.728C35.7712 110.794 36.8157 106.476 38.0094 106.476H52.0354C53.2291 106.476 54.2736 110.794 54.2736 115.728C54.2736 120.661 53.2291 124.979 52.0354 124.979Z" fill="white"/>
<path d="M79.1599 124.979H65.1447C63.9519 124.979 62.9082 121.525 62.9082 117.578C62.9082 113.631 63.9519 110.177 65.1447 110.177H79.1599C80.3527 110.177 81.3964 113.631 81.3964 117.578C81.5455 121.525 80.5018 124.979 79.1599 124.979Z" fill="white"/>
<path d="M102.758 124.979H89.6669C88.5527 124.979 87.5779 119.222 87.5779 112.644C87.5779 106.065 88.5527 100.309 89.6669 100.309H102.758C103.872 100.309 104.847 106.065 104.847 112.644C104.847 119.222 103.872 124.979 102.758 124.979Z" fill="white"/>
<path d="M39.7317 47.2316C39.7317 52.3305 43.8651 56.4647 48.964 56.4647C54.0637 56.4647 58.1971 52.3305 58.1971 47.2316C58.1971 42.1327 54.0637 37.9993 48.964 37.9993C43.8651 37.9993 39.7317 42.1327 39.7317 47.2316ZM45.8671 31.3025L47.1364 28.7662H50.7924L52.0613 31.3025L55.8215 32.5248L58.339 31.218L61.2969 33.3672L60.8326 36.1652L63.1565 39.3643L65.961 39.7875L67.0906 43.2639L65.071 45.2547V49.2093L67.0906 51.1993L65.961 54.6765L63.1565 55.0998L60.8326 58.2989L61.2969 61.096L58.339 63.2452L55.8215 61.9393L52.0613 63.1607L50.7924 65.697H47.1364L45.8671 63.1607L42.1067 61.9393L39.5894 63.2452L36.6316 61.096L37.0959 58.2989L34.7716 55.0998L31.9672 54.6765L30.8374 51.1993L32.8577 49.2093V45.2547L30.8374 43.2639L31.9672 39.7875L34.7716 39.3643L37.0959 36.1652L36.6316 33.3672L39.5894 31.218L42.1067 32.5248L45.8671 31.3025Z" fill="#43C59E"/>
<path d="M133.612 129.822C133.612 131.743 135.169 133.299 137.09 133.299C139.011 133.299 140.568 131.743 140.568 129.822C140.568 127.901 139.011 126.344 137.09 126.344C135.169 126.344 133.612 127.901 133.612 129.822ZM135.274 120.478L136.022 119.041H138.157L138.907 120.478L141.112 121.195L142.563 120.474L144.29 121.728L144.051 123.331L145.414 125.207L147.013 125.476L147.673 127.506L146.537 128.662V130.981L147.673 132.138L147.013 134.168L145.414 134.436L144.051 136.313L144.29 137.916L142.563 139.171L141.112 138.448L138.907 139.165L138.157 140.603H136.022L135.274 139.165L133.067 138.448L131.617 139.171L129.889 137.916L130.128 136.313L128.765 134.436L127.167 134.168L126.506 132.138L127.642 130.981V128.662L126.506 127.506L127.167 125.476L128.765 125.207L130.128 123.331L129.889 121.728L131.617 120.474L133.067 121.195L135.274 120.478Z" fill="#43C59E"/>
<path d="M104.022 36.1797C104.022 45.3119 111.424 52.7142 120.555 52.7142C129.687 52.7142 137.09 45.3119 137.09 36.1797C137.09 27.0483 129.687 19.6461 120.555 19.6461C111.424 19.6461 104.022 27.0483 104.022 36.1797ZM114.855 6.8587L117 0.261139H124.111L126.256 6.8587L133.178 9.1079L138.792 5.0311L144.545 9.21044L142.402 15.8096L146.68 21.6976L153.618 21.6993L155.816 28.4617L150.203 32.5409V39.8193L155.816 43.8978L153.618 50.661L146.68 50.6627L142.402 56.5507L144.545 63.149L138.792 67.3292L133.178 63.2516L126.256 65.5008L124.111 72.0991H117L114.855 65.5008L107.933 63.2516L102.32 67.3292L96.5663 63.149L98.7097 56.5507L94.4311 50.6627L87.4931 50.661L85.2964 43.8978L90.9079 39.8193V32.5409L85.2964 28.4617L87.4931 21.6993L94.4311 21.6976L98.7097 15.8096L96.5663 9.21044L102.32 5.0311L107.933 9.1079L114.855 6.8587Z" fill="#FFFFF7"/>
<path d="M120.555 19.906C111.582 19.906 104.283 27.2065 104.283 36.1796C104.283 45.1527 111.582 52.4532 120.555 52.4532C129.529 52.4532 136.829 45.1527 136.829 36.1796C136.829 27.2065 129.529 19.906 120.555 19.906ZM120.555 52.9749C111.295 52.9749 103.761 45.4406 103.761 36.1796C103.761 26.9194 111.295 19.3851 120.555 19.3851C129.817 19.3851 137.351 26.9194 137.351 36.1796C137.351 45.4406 129.817 52.9749 120.555 52.9749ZM117.19 71.8382H123.922L126.05 65.2939L133.225 62.9627L138.792 67.0067L144.239 63.0496L142.113 56.5046L146.547 50.4017L153.429 50.4001L155.509 43.9977L149.943 39.9521V32.4079L155.509 28.3623L153.429 21.9592L146.547 21.9583L142.113 15.8546L144.239 9.31039L138.792 5.35334L133.225 9.39734L126.05 7.0661L123.922 0.521057H117.19L115.062 7.0661L107.888 9.39734L102.32 5.35334L96.8729 9.31039L98.9983 15.8546L94.5638 21.9583L87.6833 21.9592L85.6023 28.3623L91.1687 32.4079V39.9521L85.6023 43.9977L87.6833 50.4001L94.5638 50.4017L98.9983 56.5046L96.8729 63.0496L102.32 67.0067L107.888 62.9627L115.062 65.2939L117.19 71.8382ZM124.301 72.3599H116.811L114.648 65.7082L107.979 63.541L102.32 67.6514L96.2594 63.249L98.4208 56.5965L94.2989 50.9234L87.3035 50.9217L84.9895 43.7984L90.6478 39.6863V32.6737L84.9895 28.5616L87.3035 21.4383L94.2989 21.4366L98.4208 15.7636L96.2594 9.11106L102.32 4.70861L107.979 8.81904L114.648 6.65186L116.811 0.000167847H124.301L126.464 6.65186L133.133 8.81904L138.792 4.70861L144.852 9.11106L142.691 15.7636L146.813 21.4366L153.808 21.4383L156.122 28.5616L150.464 32.6737V39.6863L156.122 43.7984L153.808 50.9217L146.813 50.9234L142.691 56.5965L144.852 63.249L138.792 67.6514L133.133 63.541L126.464 65.7082L124.301 72.3599Z" fill="#637690"/>
<path d="M127.271 36.1796C127.271 39.8889 124.265 42.8953 120.555 42.8953C116.847 42.8953 113.841 39.8889 113.841 36.1796C113.841 32.4711 116.847 29.4648 120.555 29.4648C124.265 29.4648 127.271 32.4711 127.271 36.1796Z" fill="#FFFFF7"/>
<path d="M120.556 29.7255C116.997 29.7255 114.102 32.6203 114.102 36.1795C114.102 39.7387 116.997 42.6343 120.556 42.6343C124.115 42.6343 127.011 39.7387 127.011 36.1795C127.011 32.6203 124.115 29.7255 120.556 29.7255ZM120.556 43.156C116.709 43.156 113.58 40.0266 113.58 36.1795C113.58 32.3332 116.709 29.203 120.556 29.203C124.403 29.203 127.532 32.3332 127.532 36.1795C127.532 40.0266 124.403 43.156 120.556 43.156Z" fill="#637690"/>
<path d="M120.555 24.5192C114.127 24.5192 108.896 29.7502 108.896 36.1795C108.896 42.6089 114.127 47.8399 120.555 47.8399C126.985 47.8399 132.216 42.6089 132.216 36.1795C132.216 29.7502 126.985 24.5192 120.555 24.5192ZM120.555 48.3616C113.839 48.3616 108.374 42.8968 108.374 36.1795C108.374 29.4622 113.839 23.9983 120.555 23.9983C127.273 23.9983 132.737 29.4622 132.737 36.1795C132.737 42.8968 127.273 48.3616 120.555 48.3616Z" fill="#FFFFF7"/>
<path d="M177.179 62.3909C177.502 61.9266 177.933 61.4229 178.498 61.4426C179.498 63.6812 178.783 66.2741 178.044 68.611C176.171 74.5335 174.184 80.8046 175.638 86.8435C175.135 84.7633 172.732 83.0481 171.921 81.0564C171.172 79.219 171.655 76.9566 171.989 75.0437C172.776 70.5182 174.549 66.1601 177.179 62.3909Z" fill="#EE795C"/>
<path d="M181.433 70.0513C182.687 68.8914 184.189 67.6274 184.182 65.9204C184.181 65.7481 184.16 65.5627 184.045 65.4339C183.936 65.3117 183.766 65.2666 183.605 65.2428C182.008 65.0074 180.629 66.3026 179.583 67.5322C177.81 69.6166 176.185 71.8256 174.723 74.138C173.874 75.4816 173.066 76.89 172.733 78.4437C172.404 79.9735 172.171 84.9017 173.892 85.4727C174.708 83.1037 174.81 80.5895 175.76 78.2525C177.019 75.1535 178.98 72.3235 181.433 70.0513Z" fill="#EE795C"/>
<path d="M209.504 85.1094C203.764 88.2708 199.023 88.7482 174.799 93.1572C181.502 82.2991 184.03 68.9343 181.754 56.3782C181.128 52.9272 181.816 52.2062 183.734 51.1751C207.417 38.4443 202.387 38.3918 201.52 53.2086C200.407 72.1842 201.417 74.7878 209.504 85.1094Z" fill="#FF9A85"/>
<path d="M187.075 65.4276C184.158 67.8934 183.383 67.5095 182.514 68.1149C182.47 69.1369 182.45 70.8013 181.351 76.8427C180.923 79.1903 182.75 79.7858 185.134 76.2209C188.381 71.3656 193.264 72.4656 194.995 68.8211C195.611 67.5243 195.459 66.0026 195.795 64.6073C196.345 62.3253 198.153 60.5412 198.911 58.3198C199.467 56.694 199.43 54.9206 199.912 53.2718C200.27 52.0455 201.906 49.2861 201.068 48.109C201.068 48.109 190.32 62.6829 187.075 65.4276Z" fill="#EE795C"/>
<path d="M188.751 66.028C208.432 52.4318 212.832 16.3673 187.355 21.097C176.139 23.1797 175.78 22.3053 172.696 33.6884C166.868 55.2011 171.521 77.9295 188.751 66.028Z" fill="#FF9A85"/>
<path d="M186.02 47.4049C187.117 47.4312 188.074 43.2797 185.413 43.2165C183.992 43.1837 184.226 47.3631 186.02 47.4049Z" fill="#382823"/>
<path d="M173.807 46.4628C174.905 46.4882 175.861 42.3376 173.2 42.2752C171.78 42.2416 172.013 46.4201 173.807 46.4628Z" fill="#382823"/>
<path d="M171.787 37.4434C172.769 37.2358 173.869 37.1727 175.02 37.3695C176.763 37.6673 176.531 39.061 175.203 39.2644C173.857 39.4695 173.246 38.8239 171.45 39.1159L171.787 37.4434Z" fill="#BC664F"/>
<path d="M184.014 38.278C182.247 38.3026 182.261 39.7151 183.542 40.1212C185.258 40.665 185.934 39.5388 189.321 41.5165C193.043 43.6902 189.539 38.1984 184.014 38.278Z" fill="#BC664F"/>
<path d="M176.82 54.3843C175.86 54.3843 174.982 54.0701 174.472 53.7633C174.297 53.6583 174.172 53.4869 174.127 53.2917C174.082 53.0989 174.118 52.9004 174.226 52.7339C174.848 51.7774 176.272 49.2026 176.062 45.9427C176.053 45.7984 176.162 45.6745 176.306 45.6655C176.443 45.6556 176.574 45.7648 176.582 45.9091C176.803 49.3248 175.314 52.0186 174.663 53.0177C174.624 53.0784 174.626 53.1366 174.635 53.1744C174.648 53.2334 174.686 53.2835 174.741 53.3163C175.267 53.6321 176.24 53.9577 177.255 53.8372C177.399 53.8191 177.528 53.9225 177.545 54.0652C177.562 54.2079 177.46 54.3375 177.317 54.3556C177.15 54.3753 176.984 54.3843 176.82 54.3843Z" fill="#EE795C"/>
<path d="M179.882 60.0974C174.959 65.8525 172.909 60.9144 172.689 58.8128C172.664 58.5717 172.89 58.3838 173.126 58.4421C176.226 59.2066 178.572 59.4576 179.633 59.538C179.909 59.5585 180.06 59.8882 179.882 60.0974Z" fill="white"/>
<path d="M186.835 252.739L190.834 221.526C190.856 221.357 191.1 221.357 191.122 221.526L195.122 252.739H242.591C238.402 202.628 232.017 177.718 225.475 152.697C223.178 151.793 210.237 154.27 158.161 160.465C147.726 184.171 142.615 226.557 142.615 252.739H186.835Z" fill="#514342"/>
<path d="M195.351 252.478H242.308C238.067 201.947 231.558 176.992 225.258 152.899C223.745 152.464 218.125 153.191 203.778 155.046C193.959 156.315 179.131 158.232 158.34 160.706C148.327 183.568 142.911 224.946 142.876 252.478H186.606L190.576 221.493C190.602 221.287 190.771 221.138 190.978 221.138C191.184 221.138 191.354 221.287 191.38 221.493L195.351 252.478ZM242.875 253H194.892L190.978 222.456L187.065 253H142.354V252.739C142.354 225.1 147.811 183.331 157.923 160.361L157.983 160.224L158.13 160.206C178.997 157.724 193.869 155.801 203.712 154.528C218.987 152.554 224.131 151.888 225.571 152.454L225.693 152.503L225.726 152.632C232.055 176.833 238.599 201.858 242.851 252.717L242.875 253Z" fill="#463C3A"/>
<path d="M190.293 217.751C190.175 217.751 190.069 217.671 190.04 217.551C185.708 199.188 184.833 175.454 187.638 152.433C187.655 152.291 187.782 152.188 187.928 152.207C188.071 152.224 188.173 152.354 188.156 152.497C185.358 175.458 186.229 199.125 190.548 217.431C190.58 217.571 190.493 217.711 190.353 217.745C190.333 217.749 190.314 217.751 190.293 217.751Z" fill="#463C3A"/>
<path d="M191.178 220.378L190.749 219.935C188.769 217.892 182.657 213.672 176.403 213.672C176.258 213.672 176.142 213.555 176.142 213.411C176.142 213.268 176.258 213.15 176.403 213.15C182.842 213.15 188.619 217.248 190.708 219.169C190.925 216.239 192.119 211.832 194.35 210.107C194.465 210.019 194.628 210.041 194.716 210.155C194.804 210.268 194.784 210.432 194.67 210.521C192.445 212.239 191.283 217.051 191.198 219.763L191.178 220.378Z" fill="#463C3A"/>
<path d="M181.309 250.933C181.297 250.933 181.286 250.933 181.274 250.931C181.131 250.911 181.031 250.78 181.051 250.637C182.217 241.945 184.36 231.545 187.083 221.349C187.12 221.211 187.263 221.127 187.402 221.164C187.541 221.202 187.624 221.344 187.587 221.484C184.87 231.658 182.731 242.037 181.567 250.706C181.549 250.838 181.438 250.933 181.309 250.933Z" fill="#463C3A"/>
<path d="M237.718 249.55C237.586 249.55 237.474 249.451 237.459 249.318C235.415 230.548 232.765 211.592 229.585 192.974C229.561 192.832 229.656 192.697 229.799 192.674C229.939 192.647 230.075 192.744 230.099 192.887C233.281 211.514 235.932 230.48 237.977 249.26C237.993 249.404 237.89 249.533 237.747 249.548C237.737 249.55 237.727 249.55 237.718 249.55Z" fill="#463C3A"/>
<path d="M187.833 204.191C187.765 204.191 187.698 204.165 187.647 204.114C178.552 194.875 179.371 183.69 180.855 163.383C181.087 160.214 181.327 156.937 181.557 153.353C181.565 153.207 181.689 153.089 181.833 153.109C181.977 153.117 182.086 153.242 182.077 153.385C181.848 156.973 181.608 160.251 181.376 163.422C179.854 184.232 179.089 194.678 188.019 203.748C188.12 203.85 188.118 204.015 188.016 204.116C187.965 204.167 187.899 204.191 187.833 204.191Z" fill="#463C3A"/>
<path d="M161.874 86.2897C167.662 83.6189 175.92 80.1589 180.744 79.3354C179.952 91.0244 194.431 91.1778 203.934 77.1222C213.854 78.7488 220.709 81.4976 225.526 84.6549C225.526 84.6549 226.472 126.057 230.701 162.519C212.562 166.179 167.052 165.103 158.161 160.466C158.343 160.118 157.832 96.9157 161.874 86.2897Z" fill="#FFFFF7"/>
<path d="M158.434 160.311C167.358 164.713 211.915 165.957 230.413 162.31C226.375 127.353 225.335 87.46 225.269 84.7974C219.952 81.3456 212.818 78.8593 204.056 77.4066C197.948 86.3493 189.922 89.3663 185.123 87.7176C181.974 86.6348 180.288 83.7047 180.466 79.6501C175.053 80.6721 165.916 84.7145 162.081 86.4814C158.799 95.4381 158.562 140.327 158.482 155.115C158.463 158.687 158.454 159.881 158.434 160.311ZM199.395 164.977C196.63 164.977 193.806 164.941 190.957 164.865C174.76 164.435 162.147 162.838 158.041 160.697L157.81 160.576L157.91 160.384C157.934 160.064 157.946 157.97 157.96 155.113C158.048 138.673 158.28 95.005 161.629 86.1968L161.668 86.0967L161.764 86.0524C165.636 84.2666 175.229 80.0118 180.7 79.0783L181.026 79.0226L181.004 79.3531C180.735 83.3258 182.298 86.1943 185.293 87.2238C189.929 88.8176 197.746 85.8088 203.718 76.976L203.812 76.8373L203.977 76.8644C212.949 78.336 220.248 80.883 225.67 84.4356L225.785 84.5111L225.788 84.6481C225.797 85.0623 226.781 126.456 230.959 162.49L230.987 162.728L230.751 162.775C223.763 164.185 212.207 164.977 199.395 164.977Z" fill="#EEE4D9"/>
<path d="M167.342 98.9326C167.299 98.9326 167.257 98.922 167.216 98.8998C167.091 98.8309 167.044 98.6718 167.113 98.5454C168.048 96.8417 169.877 95.8525 171.368 95.1806C178.764 91.8445 183.531 92.2038 188.14 92.5508C194.159 93.0028 199.845 93.4318 210.673 84.6096C210.785 84.5194 210.951 84.535 211.04 84.6474C211.131 84.7589 211.115 84.923 211.003 85.014C200.013 93.9666 194.228 93.5311 188.101 93.0701C183.557 92.7288 178.859 92.3753 171.583 95.6564C170.166 96.2938 168.431 97.2281 167.571 98.7964C167.523 98.8826 167.435 98.9326 167.342 98.9326Z" fill="#463C3A"/>
<path d="M166.307 113.935C166.233 113.935 166.159 113.904 166.108 113.844C166.014 113.734 166.028 113.569 166.138 113.476C177.448 103.86 187.086 105.341 195.589 106.648C203.079 107.799 210.157 108.887 217.356 102.395C217.462 102.299 217.627 102.307 217.724 102.414C217.821 102.522 217.812 102.687 217.705 102.782C210.322 109.439 203.128 108.334 195.509 107.164C186.706 105.811 177.605 104.412 166.475 113.874C166.426 113.915 166.366 113.935 166.307 113.935Z" fill="#463C3A"/>
<path d="M163.239 130.392C163.219 130.392 163.199 130.39 163.178 130.386C163.039 130.353 162.952 130.212 162.984 130.072C163.362 128.456 164.924 127.46 166.243 126.772C177.568 120.865 187.851 122.367 196.921 123.692C205.95 125.011 213.749 126.15 220.575 119.984C220.682 119.888 220.846 119.896 220.943 120.003C221.04 120.11 221.033 120.275 220.925 120.372C213.915 126.702 206.005 125.546 196.846 124.208C187.853 122.896 177.66 121.406 166.485 127.235C165.264 127.871 163.822 128.782 163.492 130.19C163.464 130.311 163.357 130.392 163.239 130.392Z" fill="#463C3A"/>
<path d="M160.77 144.829C160.688 144.829 160.608 144.791 160.557 144.718C160.474 144.602 160.501 144.438 160.62 144.356C173.743 135.075 183.146 136.915 195.051 139.246C202.473 140.7 210.886 142.346 221.621 141.358C221.76 141.345 221.891 141.45 221.904 141.594C221.917 141.737 221.812 141.865 221.667 141.877C210.859 142.873 202.406 141.218 194.951 139.758C183.17 137.452 173.864 135.629 160.92 144.781C160.875 144.813 160.822 144.829 160.77 144.829Z" fill="#463C3A"/>
<path d="M211.243 156.988C210.182 156.988 209.123 156.952 208.08 156.899C198.792 156.421 190.842 154.929 184.454 153.731C173.496 151.676 166.254 150.316 161.679 155.351C161.583 155.458 161.419 155.466 161.311 155.369C161.205 155.272 161.196 155.107 161.295 155C166.065 149.751 173.419 151.131 184.55 153.218C190.923 154.413 198.855 155.901 208.107 156.377C214.539 156.706 221.633 156.343 225.507 151.12C225.592 151.004 225.756 150.981 225.871 151.066C225.987 151.152 226.011 151.315 225.926 151.431C222.544 155.991 216.871 156.988 211.243 156.988Z" fill="#463C3A"/>
<path d="M210.59 157.981C210.888 171.838 203.132 203.525 215.058 211.007C217.827 212.744 221.448 217.206 241.886 221.365C243.531 221.7 245.046 220.374 244.926 218.699C241.567 172.259 227.066 85.0937 226.726 84.8853C217.868 79.4485 211.824 77.9531 203.194 75.6219C200.485 121.267 210.257 142.531 210.59 157.981Z" fill="#0075FF"/>
<path d="M203.435 75.957C201.654 106.562 205.486 126.114 208.286 140.403C209.659 147.405 210.742 152.935 210.85 157.975C210.93 161.686 210.428 166.744 209.896 172.098C208.422 186.928 206.587 205.385 215.195 210.786C215.598 211.038 216.012 211.341 216.491 211.694C219.276 213.742 224.461 217.553 241.938 221.109C242.644 221.254 243.358 221.062 243.9 220.586C244.438 220.113 244.718 219.432 244.665 218.718C241.336 172.693 227.299 88.1104 226.51 85.0581C218.097 79.9067 212.26 78.3342 204.191 76.1613L203.435 75.957ZM242.402 221.677C242.213 221.677 242.024 221.658 241.834 221.62C224.246 218.042 219 214.186 216.182 212.113C215.711 211.767 215.305 211.47 214.919 211.228C206.037 205.655 207.888 187.02 209.376 172.047C209.907 166.708 210.408 161.665 210.329 157.986C210.221 152.992 209.142 147.48 207.774 140.504C204.958 126.137 201.103 106.462 202.933 75.606L202.952 75.2861L204.327 75.6568C212.463 77.8495 218.341 79.4326 226.862 84.6627C226.976 84.7316 227.13 84.8268 229.498 99.3089C230.513 105.512 232.571 118.323 234.951 134.417C238.645 159.378 243.42 194.26 245.186 218.68C245.249 219.558 244.906 220.396 244.244 220.978C243.725 221.435 243.074 221.677 242.402 221.677Z" fill="#001936"/>
<path d="M239.65 214.823C239.542 214.823 239.44 214.755 239.403 214.647C235.555 203.513 235.925 191.433 236.283 179.751C236.377 176.667 236.475 173.478 236.492 170.366C236.614 148.228 232.453 125.616 224.458 104.975C224.406 104.841 224.472 104.689 224.607 104.638C224.741 104.584 224.892 104.652 224.944 104.787C232.963 125.488 237.137 148.166 237.014 170.369C236.996 173.487 236.899 176.68 236.804 179.767C236.448 191.401 236.079 203.433 239.896 214.477C239.943 214.613 239.872 214.761 239.735 214.808C239.707 214.818 239.678 214.823 239.65 214.823Z" fill="#001936"/>
<path d="M145.697 106.969C141.372 126.477 142.902 147.164 142.463 167.141C148.902 167.449 155.622 166.197 161.945 167.44C162.611 159.93 169.477 82.9858 161.874 86.2899C159.546 87.3013 148.759 93.1573 145.697 106.969Z" fill="#0075FF"/>
<path d="M155.231 166.617C157.412 166.617 159.589 166.738 161.712 167.129C164.986 130.16 166.98 89.6337 162.77 86.5987C162.525 86.4223 162.274 86.3993 161.977 86.529C161.459 86.7537 149.234 92.2184 145.952 107.025C142.721 121.601 142.765 137.039 142.807 151.968C142.821 156.875 142.835 161.946 142.731 166.89C145.115 166.991 147.579 166.881 149.964 166.774C151.703 166.696 153.469 166.617 155.231 166.617ZM162.181 167.751L161.896 167.696C158.034 166.936 153.944 167.119 149.987 167.295C147.506 167.405 144.94 167.52 142.452 167.401L142.198 167.388L142.204 167.134C142.314 162.116 142.299 156.958 142.285 151.97C142.242 137.012 142.199 121.544 145.442 106.911C148.783 91.8493 161.241 86.2796 161.77 86.0499C162.231 85.8498 162.683 85.8932 163.075 86.1754C165.599 87.9948 166.296 101.223 165.151 125.492C164.581 137.568 163.539 152.425 162.219 167.324L162.181 167.751Z" fill="#001936"/>
<path d="M173.316 212.872C170.133 217.361 164.008 221.681 145.465 224.149C143.895 224.358 142.518 223.09 142.598 221.508C144.929 175.045 161.538 86.5072 161.874 86.2899C170.592 80.6315 172.501 79.8129 181.2 77.5153C184.182 91.7833 168.868 123.612 166.722 154.287C164.775 182.112 175.17 210.259 173.316 212.872Z" fill="#0075FF"/>
<path d="M162.089 86.4603C161.7 87.8916 157.551 109.665 153.14 137.233C149.118 162.373 144.069 197.403 142.858 221.521C142.825 222.197 143.09 222.85 143.59 223.309C144.089 223.767 144.758 223.979 145.431 223.89C164.649 221.333 170.205 216.809 173.104 212.721C173.697 211.884 172.725 207.345 171.494 201.599C169.143 190.613 165.205 172.227 166.461 154.269C167.511 139.269 171.685 124.064 175.366 110.65C179.125 96.9558 182.378 85.106 180.999 77.8383C172.415 80.1121 170.551 80.9709 162.089 86.4603ZM145.128 224.433C144.431 224.433 143.757 224.173 143.236 223.693C142.624 223.128 142.295 222.327 142.337 221.495C143.557 197.2 148.66 161.873 152.726 136.516C155.29 120.528 157.627 107.357 158.791 100.928C161.45 86.2535 161.647 86.1256 161.732 86.0706C170.318 80.4984 172.312 79.5928 181.133 77.2632L181.398 77.1935L181.456 77.4617C182.995 84.8271 179.692 96.8582 175.87 110.787C172.194 124.179 168.028 139.357 166.982 154.306C165.731 172.19 169.658 190.531 172.004 201.489C173.524 208.587 174.223 212.042 173.529 213.023C170.565 217.202 164.917 221.823 145.5 224.408C145.375 224.424 145.251 224.433 145.128 224.433Z" fill="#001936"/>
<path d="M148.287 217.135C148.148 217.135 148.033 217.025 148.028 216.884C147.118 192.578 149.276 168.203 154.441 144.435C154.471 144.295 154.61 144.206 154.751 144.236C154.892 144.266 154.98 144.405 154.95 144.546C149.795 168.271 147.641 192.602 148.548 216.864C148.553 217.007 148.442 217.13 148.298 217.134C148.294 217.135 148.291 217.135 148.287 217.135Z" fill="#001936"/>
<path d="M171.003 85.0853C171.37 89.382 171.73 93.7582 170.783 97.9646C170.181 100.636 169.066 103.161 167.959 105.666C166.407 109.174 164.855 112.682 163.304 116.189C166.844 118.889 170.836 120.997 175.062 122.397C178.549 106.633 182.034 90.8708 185.52 75.1066C185.704 74.2707 185.884 73.3708 185.55 72.5826C185.216 71.7951 184.134 71.2791 183.473 71.8221C183.052 72.1675 182.969 72.7655 182.886 73.3036C182.558 75.4232 181.751 77.4673 180.542 79.2383C180.024 79.9987 179.213 80.7895 178.322 80.5598C177.64 80.3843 177.252 79.6829 176.956 79.0431C175.732 76.3944 174.747 73.635 174.015 70.8099C173.136 67.4148 172.626 63.9121 171.464 60.5933C171.106 59.572 170.801 57.541 169.425 58.4253C168.245 59.184 169.025 61.8754 169.119 62.9664C169.747 70.3399 170.375 77.7126 171.003 85.0853Z" fill="#FF9A85"/>
<path d="M181.031 105.644C180.981 106.012 165.998 167.999 156.459 172.93C151.863 175.304 138.62 175.189 143.796 158.017C152.157 130.285 163.513 109.333 167.746 102.142C173.856 101.331 182.139 106.519 181.031 105.644Z" fill="#0075FF"/>
<path d="M167.906 102.385C164.411 108.335 152.694 129.405 144.046 158.092C142.075 164.633 142.617 169.406 145.615 171.896C148.826 174.565 153.914 173.952 156.34 172.699C165.356 168.038 179.681 110.194 180.715 105.854C180.614 105.806 180.494 105.746 180.349 105.676C178.407 104.722 172.528 101.837 167.906 102.385ZM151.418 174.282C149.287 174.282 147.025 173.746 145.282 172.297C143.07 170.46 140.973 166.477 143.547 157.942C152.266 129.02 164.101 107.819 167.521 102.01L167.585 101.9L167.712 101.883C172.51 101.248 178.584 104.228 180.579 105.208C180.665 105.25 180.749 105.291 180.826 105.329L180.854 105.178L181.192 105.44C181.28 105.509 181.484 105.671 181.351 105.881C181.309 105.949 181.271 105.992 181.216 106.008C180.665 108.361 177.075 122.869 172.552 137.652C165.98 159.133 160.606 171.08 156.58 173.161C155.339 173.802 153.436 174.282 151.418 174.282Z" fill="#001936"/>
<path d="M177.36 165.246C170.07 166.352 169.973 164.036 165.882 163.711C163.837 163.55 161.833 164.31 159.785 164.44C156.177 164.669 152.608 162.943 149.049 163.05C148.267 163.074 147.845 163.958 148.311 164.587C150.143 167.058 154.8 167.69 155.826 170.577C156.005 171.082 155.632 171.523 155.125 171.693C145.982 174.763 140.359 159.87 138.08 162.869C137.333 163.851 138.127 164.406 145.982 174.763C153.788 185.056 156.783 174.569 177.629 174.203C182.914 174.112 188.199 174.02 193.484 173.928C193.545 171.295 193.411 168.659 193.086 166.046C192.791 163.682 193.161 161.423 190.576 162.009C186.258 162.988 181.91 164.554 177.36 165.246Z" fill="#FF9A85"/>
<path d="M245.119 163.655C245.819 174.881 234.98 178.693 177.398 177.514C176.81 177.502 176.273 177.155 176.029 176.62C174.311 172.857 173.86 168.721 174.13 164.697C174.172 164.061 174.602 163.514 175.21 163.325C191.109 158.39 204.217 155.99 219.635 154.713C221.148 154.588 222.251 153.22 222.044 151.716C217.296 117.091 218.602 85.6674 225.526 84.6552C233.955 83.4231 243.933 144.639 245.119 163.655Z" fill="#0075FF"/>
<path d="M225.775 84.8966C225.704 84.8966 225.634 84.9024 225.564 84.9122C222.435 85.3699 220.286 92.9075 219.669 105.593C219.055 118.204 220.015 135.002 222.303 151.68C222.412 152.477 222.195 153.262 221.691 153.891C221.185 154.521 220.462 154.905 219.656 154.972C203.519 156.309 190.664 158.801 175.288 163.574C174.786 163.73 174.424 164.188 174.389 164.713C174.091 169.16 174.723 173.13 176.267 176.511C176.468 176.951 176.914 177.242 177.404 177.251C219.513 178.114 237.213 176.306 242.707 170.579C244.362 168.853 245.045 166.658 244.859 163.671C243.813 146.912 235.205 92.0142 227.146 85.4757C226.672 85.091 226.211 84.8966 225.775 84.8966ZM195.798 177.984C190.263 177.984 184.149 177.912 177.393 177.773C176.704 177.759 176.075 177.348 175.792 176.728C174.213 173.267 173.566 169.214 173.87 164.678C173.918 163.939 174.427 163.295 175.133 163.076C190.549 158.29 203.435 155.792 219.613 154.453C220.276 154.398 220.869 154.082 221.284 153.564C221.697 153.048 221.875 152.404 221.786 151.751C216.833 115.634 218.494 85.4191 225.489 84.3962C226.137 84.3011 226.807 84.5283 227.475 85.0705C235.639 91.696 244.33 146.822 245.379 163.638C245.576 166.782 244.846 169.102 243.084 170.939C238.299 175.928 225.347 177.984 195.798 177.984Z" fill="#001936"/>
<path d="M171.511 25.4273C172.072 28.249 174.579 30.5729 177.435 30.9182C181.207 31.3743 183.832 28.8396 190.86 32.5006C197.582 35.9999 195.116 39.5517 195.372 49.5616C195.684 61.8109 204.977 64.8173 207.041 57.1714C207.511 55.4291 207.54 53.5901 208.022 51.8502C208.925 48.5954 211.323 45.9696 212.631 42.855C216.618 33.3586 209.054 26.8496 208.259 25.424C206.722 22.6678 207.335 14.944 201.079 14.1426C200.18 14.027 199.268 14.1369 198.361 14.1393C194.283 14.1525 189.269 11.6891 185.446 14.1311C184.43 14.7808 183.622 15.7422 182.538 16.2713C179.69 17.66 170.039 18.0078 171.511 25.4273Z" fill="#BC664F"/>
<path d="M196.376 41.6829C196.365 41.6829 196.356 41.682 196.345 41.6804C196.202 41.664 196.099 41.5352 196.117 41.3917C196.328 39.5641 198.486 39.1252 199.524 38.9136C199.662 38.8849 199.803 38.9759 199.832 39.117C199.86 39.2581 199.769 39.3959 199.628 39.4246C198.161 39.7232 196.782 40.176 196.635 41.4515C196.619 41.5844 196.506 41.6829 196.376 41.6829Z" fill="#92422F"/>
<path d="M179.35 29.4426C176.991 29.4426 175.006 28.1466 174.02 25.9515C173.087 23.8705 173.339 21.5302 174.648 20.1267C174.747 20.0217 174.911 20.0159 175.016 20.1135C175.122 20.2128 175.128 20.3777 175.029 20.4827C173.862 21.7344 173.647 23.8467 174.497 25.7374C175.415 27.784 177.295 28.9775 179.493 28.9193C179.642 28.9193 179.757 29.0317 179.761 29.1736C179.764 29.318 179.65 29.4377 179.506 29.441C179.454 29.4418 179.402 29.4426 179.35 29.4426Z" fill="#92422F"/>
<path d="M203.612 59.0818C203.58 59.0818 203.548 59.076 203.517 59.0637C200.67 57.9523 198.322 55.5816 197.24 52.7221C197.189 52.5876 197.257 52.4375 197.391 52.3866C197.525 52.335 197.677 52.403 197.729 52.5376C198.759 55.2617 200.994 57.5192 203.707 58.5781C203.841 58.6298 203.908 58.7807 203.854 58.9153C203.814 59.0186 203.716 59.0818 203.612 59.0818Z" fill="#92422F"/>
<path d="M204.443 34.0779C204.373 34.0779 204.302 34.0492 204.251 33.9934C204.154 33.8868 204.161 33.7219 204.267 33.6251C206.495 31.5883 207.712 28.4565 207.445 25.4501C207.432 25.3066 207.539 25.1803 207.682 25.1671C207.822 25.1548 207.952 25.2607 207.965 25.4034C208.246 28.5689 206.964 31.8664 204.62 34.0098C204.569 34.0549 204.506 34.0779 204.443 34.0779Z" fill="#92422F"/>
<path d="M207.984 45.6218C207.929 45.6218 207.872 45.6046 207.824 45.5669C207.71 45.4774 207.691 45.3134 207.78 45.2002C211.275 40.76 211.416 38.8307 210.083 34.5021C210.04 34.3642 210.117 34.2191 210.255 34.1764C210.392 34.1346 210.539 34.2117 210.581 34.3495C211.977 38.8799 211.832 40.8953 208.19 45.5226C208.139 45.5882 208.062 45.6218 207.984 45.6218Z" fill="#92422F"/>
<path d="M207.434 53.9741C207.414 53.9741 207.396 53.9725 207.376 53.9676C207.236 53.9364 207.147 53.797 207.179 53.6567C207.675 51.4534 207.039 49.0467 205.521 47.3758C205.424 47.2691 205.432 47.1051 205.538 47.0075C205.646 46.9107 205.811 46.9189 205.907 47.0255C207.538 48.8203 208.22 51.405 207.688 53.7707C207.66 53.8921 207.553 53.9741 207.434 53.9741Z" fill="#92422F"/>
<path d="M183.813 19.1013C183.764 19.1013 183.716 19.0882 183.672 19.0595C183.551 18.9807 183.515 18.8199 183.594 18.6985C186.39 14.3757 191.001 16.3255 192.516 16.9669C192.672 17.0326 192.79 17.0826 192.864 17.1064C195.584 17.989 198.62 17.4886 201.231 16.8833C201.371 16.8505 201.512 16.9374 201.544 17.0777C201.576 17.2188 201.489 17.359 201.349 17.391C198.668 18.0128 195.544 18.5247 192.703 17.6027C192.62 17.5756 192.488 17.5206 192.313 17.4468C190.897 16.848 186.588 15.0278 184.032 18.9824C183.982 19.0595 183.898 19.1013 183.813 19.1013Z" fill="#92422F"/>
<path d="M198.739 32.3645C198.583 32.3571 198.472 32.2357 198.478 32.0922C198.577 29.9094 197.73 27.7783 196.158 26.2468C194.584 24.7145 192.434 23.9262 190.251 24.0829C190.108 24.0969 189.983 23.9853 189.972 23.8418C189.962 23.6974 190.07 23.5727 190.214 23.5629C192.541 23.3947 194.84 24.2371 196.521 25.8728C198.201 27.5084 199.104 29.7839 198.998 32.1151C198.993 32.2546 198.878 32.3645 198.739 32.3645Z" fill="#92422F"/>
<path d="M198.146 42.4582C195.12 41.1351 194.087 47.6916 193.663 50.9571C192.83 57.3964 202.912 44.5425 198.146 42.4582Z" fill="#FF9A85"/>
<path d="M197.067 45.5907C197.013 45.2782 196.543 45.3626 196.597 45.6719C196.921 47.5528 196.236 48.5429 195.441 48.8579C195.318 48.9063 195.258 49.0449 195.306 49.1671C195.627 49.9808 197.53 48.2796 197.067 45.5907Z" fill="#EE795C"/>
<path d="M232.374 159.055C228.879 159.055 225.372 157.259 223.352 154.408C223.268 154.29 223.296 154.128 223.413 154.044C223.531 153.961 223.694 153.989 223.776 154.106C225.771 156.921 229.283 158.652 232.733 158.527C232.877 158.518 232.999 158.634 233.004 158.778C233.009 158.922 232.897 159.043 232.754 159.048C232.626 159.053 232.5 159.055 232.374 159.055Z" fill="#001936"/>
<path d="M231.348 106.494C231.219 106.494 231.106 106.397 231.089 106.265C230.405 100.806 229.553 94.0122 225.726 89.111C225.638 88.997 225.657 88.8329 225.771 88.7444C225.885 88.6549 226.049 88.6763 226.137 88.7903C230.052 93.8047 230.915 100.678 231.607 106.2C231.626 106.343 231.524 106.473 231.381 106.492C231.37 106.493 231.359 106.494 231.348 106.494Z" fill="#001936"/>
<path d="M147.062 115.024C146.903 115.015 146.793 114.893 146.801 114.748C147.245 106.855 150.351 99.2253 155.547 93.2659C155.642 93.1568 155.806 93.1461 155.915 93.2405C156.024 93.3356 156.035 93.5005 155.94 93.6088C150.82 99.4812 147.759 106.999 147.322 114.777C147.315 114.916 147.199 115.024 147.062 115.024Z" fill="#001936"/>
</svg>
