<svg width="237" height="253" viewBox="0 0 237 253" fill="none" xmlns="http://www.w3.org/2000/svg">
<path d="M196.159 17.539V204.192C196.159 213.877 191.48 221.729 185.707 221.731L10.4748 221.793C4.70165 221.795 0.0205584 213.943 0.0193585 204.256L2.62419e-07 17.542C-0.0012796 7.85416 4.67917 1.52588e-05 10.4529 1.52588e-05H185.705C191.478 1.52588e-05 196.159 7.8519 196.159 17.539Z" fill="#D3E8E2"/>
<path d="M11.381 1.82335C8.96836 1.82335 6.65596 3.47641 4.86934 6.47775C2.98324 9.64716 1.94465 13.8803 1.94528 18.398L1.96456 204.516C1.9652 209.033 3.00467 213.265 4.89085 216.433C6.67715 219.433 8.98955 221.084 11.4006 221.084L185.894 221.023C191.008 221.021 195.329 213.433 195.329 204.451V18.395C195.329 9.41187 191.007 1.82335 185.892 1.82335H11.381ZM11.4006 222.907C8.25276 222.907 5.33826 220.924 3.19297 217.323C1.14652 213.887 0.0199135 209.339 0.0195949 204.516L6.75794e-08 18.398C-0.000318544 13.574 1.12597 9.02568 3.17114 5.58885C5.31683 1.98471 8.23221 0 11.381 0H185.892C192.274 0 197.273 8.08002 197.273 18.395V204.451C197.273 214.765 192.276 222.845 185.895 222.846L11.4031 222.907H11.4006Z" fill="#43C59E"/>
<path d="M113.884 71.3303H14.2881C11.9368 71.3303 10.0308 69.9573 10.0308 68.263V16.4417C10.0308 14.7474 11.9368 13.3744 14.2881 13.3744H113.884C116.235 13.3744 118.141 14.7474 118.141 16.4417V68.263C118.141 69.9573 116.235 71.3303 113.884 71.3303Z" fill="white"/>
<path d="M14.7363 14.0738C12.6787 14.0738 11.0043 15.2762 11.0043 16.7547V67.9506C11.0043 69.4291 12.6787 70.6309 14.7363 70.6309H113.435C115.493 70.6309 117.168 69.4291 117.168 67.9506V16.7547C117.168 15.2762 115.493 14.0738 113.435 14.0738H14.7363ZM113.435 71.3303H14.7363C12.1416 71.3303 10.0308 69.8146 10.0308 67.9506V16.7547C10.0308 14.8907 12.1416 13.3744 14.7363 13.3744H113.435C116.03 13.3744 118.141 14.8907 118.141 16.7547V67.9506C118.141 69.8146 116.03 71.3303 113.435 71.3303Z" fill="#43C59E"/>
<path d="M41.2379 37.8942C44.6247 37.8942 47.3679 35.151 47.3679 31.7642C47.3679 28.3774 44.6247 25.6343 41.2379 25.6343C37.8511 25.6343 35.108 28.3774 35.108 31.7642C35.108 35.151 37.8511 37.8942 41.2379 37.8942ZM41.2379 40.9592C37.1462 40.9592 28.978 43.0127 28.978 47.0891V48.6216C28.978 49.4645 29.6676 50.1541 30.5105 50.1541H51.9654C52.8082 50.1541 53.4979 49.4645 53.4979 48.6216V47.0891C53.4979 43.0127 45.3297 40.9592 41.2379 40.9592Z" fill="#DCDCDC"/>
<path d="M71.3305 37.8942C74.7173 37.8942 77.4604 35.151 77.4604 31.7642C77.4604 28.3774 74.7173 25.6343 71.3305 25.6343C67.9437 25.6343 65.2005 28.3774 65.2005 31.7642C65.2005 35.151 67.9437 37.8942 71.3305 37.8942ZM71.3305 40.9592C67.2387 40.9592 59.0706 43.0127 59.0706 47.0891V48.6216C59.0706 49.4645 59.7602 50.1541 60.603 50.1541H82.0579C82.9008 50.1541 83.5904 49.4645 83.5904 48.6216V47.0891C83.5904 43.0127 75.4222 40.9592 71.3305 40.9592Z" fill="#DCDCDC"/>
<path d="M42.5998 58.6554C40.5423 58.6554 38.8678 59.8577 38.8678 61.3362V112.532C38.8678 114.011 40.5423 115.212 42.5998 115.212H141.298C143.357 115.212 145.031 114.011 145.031 112.532V61.3362C145.031 59.8577 143.357 58.6554 141.298 58.6554H42.5998ZM141.298 115.912H42.5998C40.0051 115.912 37.8943 114.396 37.8943 112.532V61.3362C37.8943 59.4722 40.0051 57.9559 42.5998 57.9559H141.298C143.893 57.9559 146.004 59.4722 146.004 61.3362V112.532C146.004 114.396 143.893 115.912 141.298 115.912Z" fill="white"/>
<path d="M105.014 112.153C102.956 112.153 101.282 113.356 101.282 114.834V166.03C101.282 167.508 102.956 168.71 105.014 168.71H203.712C205.771 168.71 207.446 167.508 207.446 166.03V114.834C207.446 113.356 205.771 112.153 203.712 112.153H105.014ZM203.712 169.41H105.014C102.419 169.41 100.308 167.894 100.308 166.03V114.834C100.308 112.97 102.419 111.454 105.014 111.454H203.712C206.307 111.454 208.418 112.97 208.418 114.834V166.03C208.418 167.894 206.307 169.41 203.712 169.41Z" fill="white"/>
<path d="M165.678 132.664H79.6099C77.7688 132.664 76.2764 131.171 76.2764 129.33V78.4961C76.2764 76.6542 77.7688 75.1617 79.6099 75.1617H165.678C167.519 75.1617 169.011 76.6542 169.011 78.4961V129.33C169.011 131.171 167.519 132.664 165.678 132.664Z" fill="white"/>
<path d="M79.61 75.6498C78.0408 75.6498 76.7643 76.9271 76.7643 78.4963V129.329C76.7643 130.899 78.0408 132.175 79.61 132.175H165.678C167.247 132.175 168.523 130.899 168.523 129.329V78.4963C168.523 76.9271 167.247 75.6498 165.678 75.6498H79.61ZM165.678 133.152H79.61C77.5025 133.152 75.7886 131.438 75.7886 129.329V78.4963C75.7886 76.388 77.5025 74.674 79.61 74.674H165.678C167.785 74.674 169.499 76.388 169.499 78.4963V129.329C169.499 131.438 167.785 133.152 165.678 133.152Z" fill="#43C59E"/>
<path d="M176.949 79.186H178.164C178.339 79.186 178.481 79.0445 178.481 78.8701V77.9615C178.481 77.7872 178.339 77.6448 178.164 77.6448H176.949C176.773 77.6448 176.632 77.7872 176.632 77.9615V78.8701C176.632 79.0445 176.773 79.186 176.949 79.186Z" fill="#BEC0C2"/>
<path d="M177.017 79.1084L176.829 79.0212C176.744 78.9172 176.757 78.7637 176.861 78.6773L177.939 77.7783C178.043 77.6927 178.195 77.7055 178.283 77.8095C178.369 77.9135 178.355 78.0678 178.252 78.1542L177.173 79.0524L177.017 79.1084Z" fill="white"/>
<path d="M178.095 79.1084L177.939 79.0524L176.861 78.1542C176.757 78.0678 176.744 77.9135 176.829 77.8095C176.917 77.7055 177.071 77.6927 177.173 77.7783L178.252 78.6773C178.355 78.7637 178.369 78.9172 178.283 79.0212L178.095 79.1084Z" fill="white"/>
<path d="M172.996 93.2361H162.062C161.589 93.2361 161.204 92.8522 161.204 92.3787V91.2286C161.204 90.7543 161.589 90.3704 162.062 90.3704H172.996C173.469 90.3704 173.854 90.7543 173.854 91.2286V92.3787C173.854 92.8522 173.469 93.2361 172.996 93.2361Z" fill="#9EBFD8"/>
<path d="M114.331 205.461H14.3904C12.2525 205.461 10.5195 203.728 10.5195 201.59V142.563C10.5195 140.424 12.2525 138.691 14.3904 138.691H114.331C116.469 138.691 118.202 140.424 118.202 142.563V201.59C118.202 203.728 116.469 205.461 114.331 205.461Z" fill="white"/>
<path d="M14.3906 139.179C12.5245 139.179 11.0071 140.697 11.0071 142.563V201.59C11.0071 203.455 12.5245 204.973 14.3906 204.973H114.331C116.196 204.973 117.714 203.455 117.714 201.59V142.563C117.714 140.697 116.196 139.179 114.331 139.179H14.3906ZM114.331 205.95H14.3906C11.9865 205.95 10.0308 203.994 10.0308 201.59V142.563C10.0308 140.159 11.9865 138.203 14.3906 138.203H114.331C116.734 138.203 118.69 140.159 118.69 142.563V201.59C118.69 203.994 116.734 205.95 114.331 205.95Z" fill="#43C59E"/>
<path d="M196.542 58.3037C195.32 58.3037 194.33 57.3136 194.33 56.0915C194.33 54.8702 195.32 53.8792 196.542 53.8792C197.764 53.8792 198.754 54.8702 198.754 56.0915C198.754 57.3136 197.764 58.3037 196.542 58.3037Z" fill="#9EBFD8"/>
<path d="M201.773 65.3118H196.542C195.32 65.3118 194.33 64.3216 194.33 63.0995C194.33 61.8774 195.32 60.8873 196.542 60.8873H201.773C202.995 60.8873 203.985 61.8774 203.985 63.0995C203.985 64.3216 202.995 65.3118 201.773 65.3118Z" fill="#E8F4F7"/>
<path d="M196.542 71.7166C195.32 71.7166 194.33 70.7256 194.33 69.5043C194.33 68.2822 195.32 67.2921 196.542 67.2921C197.764 67.2921 198.754 68.2822 198.754 69.5043C198.754 70.7256 197.764 71.7166 196.542 71.7166Z" fill="#9EBFD8"/>
<path d="M201.773 78.7246H196.542C195.32 78.7246 194.33 77.7345 194.33 76.5124C194.33 75.2903 195.32 74.3001 196.542 74.3001H201.773C202.995 74.3001 203.985 75.2903 203.985 76.5124C203.985 77.7345 202.995 78.7246 201.773 78.7246Z" fill="#E8F4F7"/>
<path d="M196.542 85.1294C195.32 85.1294 194.33 84.1384 194.33 82.9171C194.33 81.695 195.32 80.7049 196.542 80.7049C197.764 80.7049 198.754 81.695 198.754 82.9171C198.754 84.1384 197.764 85.1294 196.542 85.1294Z" fill="#9EBFD8"/>
<path d="M201.773 92.1372H196.542C195.32 92.1372 194.33 91.1471 194.33 89.925C194.33 88.7029 195.32 87.7127 196.542 87.7127H201.773C202.995 87.7127 203.985 88.7029 203.985 89.925C203.985 91.1471 202.995 92.1372 201.773 92.1372Z" fill="#E8F4F7"/>
<path d="M203.79 53.3042C205.482 54.5039 208.541 59.0572 203.346 62.3316C202.132 63.097 200.51 62.6843 199.085 62.526C195.107 62.0845 191.157 61.3902 187.268 60.4481C185.498 60.0194 182.529 56.8082 185.766 54.7623C190.212 51.9518 190.856 39.1813 190.856 39.1813L204.823 36.3268C202.217 41.4791 200.243 50.7881 203.79 53.3042Z" fill="#FDA98B"/>
<path d="M186.515 34.9399C186.92 32.6013 187.25 30.0931 187.655 27.7545C187.839 26.6908 188.225 24.5329 188.202 22.7669C188.19 21.9055 186.945 21.8008 186.78 22.6478C185.911 27.1123 183.3 31.7423 182.821 32.6677C182.246 33.7762 186.515 34.9399 186.515 34.9399Z" fill="#FDA98B"/>
<path d="M186.178 23.5933C185.433 34.1403 183.625 46.706 190.219 45.7839C195.395 45.06 203.373 42.8646 207.773 33.091C212.048 23.5933 208.677 16.1088 202.284 14.2524C195.891 12.3953 186.932 12.9024 186.178 23.5933Z" fill="#FDA98B"/>
<path d="M190 45.8095C195.79 45.216 199.557 42.6022 200.046 42.3647C197.723 45.1904 191.239 47.9225 189.07 49.4478C189.53 47.9969 189.713 47.1635 190 45.8095Z" fill="#EE795C"/>
<path d="M189.948 28.4866C190.603 28.4866 191.116 25.992 189.525 25.992C188.676 25.992 188.874 28.4866 189.948 28.4866Z" fill="#382823"/>
<path d="M187.232 24.0884L192.478 24.8738C193.697 24.4603 189.526 22.5152 187.352 23.3182C187.043 23.4325 187.004 23.8756 187.232 24.0884Z" fill="#30323E"/>
<path d="M185.378 36.4972C186.24 36.6572 187.387 36.8691 188.897 37.1267C189.802 37.2802 187.485 38.8486 185.422 38.5655C185.368 37.7577 185.374 37.2354 185.378 36.4972Z" fill="#FFF5ED"/>
<path d="M167.297 244.479C163.684 248.327 159.994 244.886 159.994 244.886L160.779 230.568L171.504 231.528C171.504 231.528 167.36 242.038 167.297 244.479Z" fill="#F99889"/>
<path d="M168.329 251.149C168.335 251.688 167.909 252.132 167.37 252.147C163.091 252.27 146.071 252.756 146.04 252.755C145.411 252.739 144.907 252.236 144.882 251.607C144.828 250.248 145.823 248.813 147.065 248.08C149.83 246.448 155.463 246.941 158.579 239.741C158.781 239.275 159.372 239.119 159.766 239.438C160.888 240.345 161.756 241.592 162.938 242.442C164.898 243.849 166.544 242.266 167.872 244.248C168.211 244.754 168.304 249.158 168.329 251.149Z" fill="#514342"/>
<path d="M159.294 239.515L159.167 239.53C159.003 239.571 158.871 239.682 158.803 239.838C156.459 245.255 152.767 246.385 149.802 247.292C148.775 247.606 147.889 247.877 147.19 248.29C145.947 249.024 145.078 250.415 145.126 251.597C145.146 252.097 145.55 252.499 146.046 252.512C146.19 252.509 163.287 252.02 167.363 251.903C167.766 251.892 168.09 251.555 168.085 251.152C168.027 246.538 167.826 244.622 167.67 244.385C167.016 243.409 166.308 243.391 165.411 243.367C164.632 243.347 163.749 243.324 162.795 242.64C162.132 242.164 161.564 241.564 161.016 240.985C160.571 240.515 160.111 240.029 159.613 239.627C159.522 239.553 159.41 239.515 159.294 239.515ZM146.035 253C145.281 252.979 144.668 252.373 144.637 251.616C144.583 250.245 145.531 248.704 146.941 247.87C147.691 247.428 148.647 247.135 149.66 246.825C152.529 245.947 156.1 244.855 158.355 239.644C158.483 239.348 158.736 239.133 159.05 239.055C159.36 238.979 159.675 239.049 159.92 239.248C160.443 239.67 160.915 240.168 161.371 240.649C161.903 241.213 162.455 241.794 163.081 242.243C163.911 242.84 164.68 242.86 165.424 242.879C166.337 242.903 167.28 242.927 168.075 244.113C168.353 244.527 168.521 246.893 168.573 251.146C168.582 251.814 168.045 252.373 167.377 252.391C167.164 252.398 146.108 253 146.035 253Z" fill="#463C3A"/>
<path d="M145.946 252.249C145.815 252.249 145.707 252.146 145.702 252.012C145.699 251.879 145.803 251.766 145.938 251.76L167.405 251.042C167.544 251.042 167.653 251.146 167.658 251.278C167.661 251.412 167.556 251.525 167.422 251.53L145.954 252.249H145.946Z" fill="white"/>
<path d="M159.158 245.465L159.102 245.459C157.998 245.204 156.862 244.887 156.147 244.074C156.059 243.972 156.068 243.818 156.169 243.729C156.27 243.641 156.425 243.65 156.514 243.751C157.132 244.456 158.186 244.747 159.212 244.983C159.343 245.014 159.426 245.145 159.395 245.276C159.369 245.389 159.268 245.465 159.158 245.465Z" fill="white"/>
<path d="M156.552 247.371L156.469 247.357C155.35 246.961 154.313 246.53 153.938 245.622C153.887 245.499 153.946 245.355 154.071 245.305C154.196 245.252 154.339 245.312 154.39 245.437C154.687 246.158 155.621 246.538 156.633 246.896C156.76 246.942 156.827 247.081 156.782 247.208C156.746 247.309 156.652 247.371 156.552 247.371Z" fill="white"/>
<path d="M153.774 248.447L153.682 248.429C153.226 248.242 151.719 247.574 151.537 246.817C151.506 246.686 151.588 246.555 151.719 246.523C151.851 246.489 151.981 246.573 152.012 246.705C152.091 247.03 152.887 247.577 153.867 247.977C153.992 248.028 154.052 248.171 154.001 248.296C153.962 248.39 153.871 248.447 153.774 248.447Z" fill="white"/>
<path d="M215.026 244.171C211.413 248.019 207.722 244.579 207.722 244.579L206.488 230.081L216.058 230.936C216.058 230.936 215.089 241.73 215.026 244.171Z" fill="#F99889"/>
<path d="M216.058 250.842C216.064 251.38 215.638 251.824 215.099 251.84C210.819 251.963 193.8 252.448 193.769 252.447C193.139 252.431 192.636 251.928 192.611 251.299C192.556 249.941 193.552 248.506 194.794 247.772C197.558 246.141 203.191 246.633 206.308 239.433C206.51 238.967 207.101 238.812 207.495 239.13C208.616 240.037 209.484 241.284 210.666 242.134C212.627 243.542 214.273 241.959 215.601 243.941C215.94 244.447 216.033 248.85 216.058 250.842Z" fill="#514342"/>
<path d="M207.023 239.207L206.896 239.222C206.732 239.262 206.599 239.375 206.532 239.53C204.187 244.948 200.496 246.078 197.531 246.984C196.504 247.298 195.618 247.57 194.919 247.982C193.675 248.716 192.807 250.107 192.854 251.289C192.875 251.789 193.28 252.19 193.775 252.204C193.938 252.201 211.069 251.712 215.092 251.596C215.495 251.584 215.819 251.248 215.814 250.845C215.756 246.229 215.554 244.314 215.399 244.077C214.746 243.101 214.037 243.082 213.14 243.06C212.361 243.039 211.478 243.016 210.524 242.332C209.861 241.855 209.294 241.256 208.745 240.678C208.3 240.208 207.84 239.722 207.342 239.319C207.25 239.246 207.138 239.207 207.023 239.207ZM193.761 252.692C193.01 252.673 192.397 252.065 192.366 251.309C192.311 249.936 193.258 248.395 194.671 247.562C195.419 247.12 196.376 246.827 197.388 246.517C200.258 245.64 203.828 244.548 206.084 239.336C206.212 239.039 206.466 238.825 206.78 238.748C207.086 238.672 207.403 238.742 207.649 238.94C208.172 239.362 208.644 239.861 209.1 240.341C209.633 240.905 210.184 241.485 210.81 241.935C211.641 242.532 212.409 242.551 213.153 242.571C214.067 242.594 215.01 242.619 215.805 243.805C216.081 244.219 216.248 246.585 216.302 250.839C216.311 251.507 215.774 252.065 215.106 252.083C214.894 252.09 193.861 252.692 193.761 252.692Z" fill="#463C3A"/>
<path d="M193.675 251.941C193.544 251.941 193.436 251.837 193.431 251.705C193.427 251.571 193.532 251.457 193.667 251.452L215.134 250.734C215.285 250.742 215.381 250.836 215.386 250.97C215.39 251.105 215.285 251.217 215.15 251.222L193.684 251.941H193.675Z" fill="white"/>
<path d="M206.886 245.157L206.831 245.152C205.728 244.897 204.59 244.58 203.876 243.766C203.786 243.665 203.797 243.51 203.898 243.421C203.999 243.333 204.154 243.343 204.243 243.444C204.861 244.148 205.915 244.44 206.941 244.675C207.073 244.706 207.154 244.837 207.124 244.968C207.098 245.081 206.997 245.157 206.886 245.157Z" fill="white"/>
<path d="M204.281 247.063L204.199 247.049C203.079 246.653 202.042 246.222 201.668 245.315C201.617 245.191 201.675 245.048 201.8 244.997C201.925 244.945 202.068 245.005 202.118 245.13C202.417 245.85 203.35 246.231 204.362 246.588C204.489 246.633 204.555 246.773 204.511 246.901C204.475 247.001 204.382 247.063 204.281 247.063Z" fill="white"/>
<path d="M201.504 248.14L201.411 248.12C200.954 247.934 199.448 247.266 199.266 246.51C199.235 246.379 199.317 246.247 199.448 246.216C199.579 246.183 199.711 246.266 199.741 246.397C199.819 246.722 200.617 247.27 201.596 247.669C201.72 247.72 201.781 247.863 201.73 247.987C201.691 248.081 201.6 248.14 201.504 248.14Z" fill="white"/>
<path d="M217.346 130.037C218.647 166.016 218.001 202.137 217.326 236.594C217.317 237.101 216.917 237.514 216.411 237.544L204.941 238.201C204.439 238.229 203.999 237.873 203.923 237.377C198.56 201.733 183.38 117.49 185.581 111.992C187.396 107.453 194.373 103.149 199.092 102.245C204.897 101.134 216.483 106.198 217.346 130.037Z" fill="#514342"/>
<path d="M200.66 102.344C200.14 102.344 199.631 102.391 199.137 102.485C194.286 103.414 187.555 107.715 185.807 112.082C184.271 115.92 191.702 160.93 197.673 197.095C200.21 212.467 202.607 226.985 204.165 237.341C204.221 237.713 204.55 237.981 204.926 237.956L216.396 237.3C216.774 237.278 217.076 236.966 217.082 236.589C217.689 205.652 218.444 167.15 217.102 130.046C216.559 115.043 211.839 108.222 207.974 105.144C205.708 103.338 203.071 102.344 200.66 102.344ZM204.883 238.446C204.282 238.446 203.773 238.013 203.683 237.413C202.125 227.061 199.728 212.544 197.191 197.175C190.899 159.063 183.767 115.866 185.354 111.901C187.158 107.392 194.071 102.958 199.046 102.005C201.959 101.447 205.413 102.478 208.279 104.761C212.223 107.905 217.041 114.84 217.59 130.029C218.932 167.146 218.177 205.656 217.571 236.598C217.558 237.229 217.054 237.75 216.424 237.787L204.953 238.444L204.883 238.446Z" fill="#463C3A"/>
<path d="M209.801 237.154C209.676 237.154 209.569 237.058 209.558 236.93C208.114 219.526 206.132 201.083 204.214 183.247C202.296 165.406 200.314 146.96 198.869 129.549C198.857 129.415 198.957 129.297 199.092 129.285C199.213 129.271 199.344 129.374 199.355 129.509C200.8 146.913 202.783 165.358 204.699 183.195C206.617 201.033 208.6 219.48 210.045 236.89C210.056 237.024 209.956 237.143 209.821 237.153L209.801 237.154Z" fill="#463C3A"/>
<path d="M169.968 239.478C170.451 239.582 170.933 239.311 171.093 238.844C180.625 211.117 204.086 145.53 206.287 117.105C207.122 106.31 202.424 102.715 193.279 103.216C174.934 104.219 176.85 115.973 158.237 236.002C158.159 236.51 158.49 236.996 158.993 237.105L169.968 239.478Z" fill="#514342"/>
<path d="M194.856 103.415C194.353 103.415 193.833 103.43 193.293 103.46C178.223 104.284 177.094 111.86 166.302 184.339C164.097 199.139 161.599 215.915 158.48 236.038C158.42 236.421 158.668 236.784 159.044 236.866L170.022 239.239C170.381 239.315 170.743 239.114 170.863 238.764C171.707 236.309 172.659 233.557 173.697 230.561C184.303 199.947 204.041 142.963 206.046 117.085C206.442 111.948 205.593 108.385 203.449 106.191C201.627 104.329 198.807 103.415 194.856 103.415ZM170.175 239.745C170.09 239.745 170.004 239.735 169.918 239.716L158.941 237.343C158.312 237.207 157.897 236.601 157.997 235.963C161.117 215.842 163.615 199.066 165.819 184.267C171.202 148.114 174.168 128.2 177.73 117.011C181.364 105.597 185.635 103.389 193.266 102.973C198.195 102.702 201.64 103.645 203.797 105.85C206.046 108.15 206.94 111.838 206.531 117.123C204.523 143.063 184.771 200.086 174.159 230.721C173.122 233.716 172.168 236.469 171.325 238.922C171.153 239.422 170.685 239.745 170.175 239.745Z" fill="#463C3A"/>
<path d="M164.998 235.756L164.938 235.748C164.807 235.716 164.728 235.582 164.761 235.451C174.669 196.438 186.301 153.669 197.513 115.024C197.551 114.894 197.685 114.819 197.816 114.857C197.945 114.895 198.019 115.03 197.982 115.16C186.771 153.801 175.141 196.563 165.235 235.572C165.207 235.683 165.107 235.756 164.998 235.756Z" fill="#463C3A"/>
<path d="M227.579 87.2106C230.735 95.331 231.711 99.0076 224.072 103.079C213.57 108.675 195.9 110.063 188.629 110.068C188.175 110.068 187.78 109.767 187.655 109.33L185.913 103.251C185.769 102.751 186.024 102.224 186.507 102.028C189.261 100.916 198.514 97.3496 210.8 94.4264C211.515 94.2568 211.818 93.4106 211.376 92.826C208.679 89.258 200.988 78.9214 198.395 73.6795C196.319 69.4853 193.018 58.5192 198.438 55.5647C206.139 51.3658 225.207 81.1081 227.579 87.2106Z" fill="#0075FF"/>
<path d="M200.09 55.3766C199.518 55.3766 199 55.5014 198.54 55.7525C193.367 58.5726 196.406 69.1788 198.585 73.5841C201.205 78.8764 209.169 89.5506 211.548 92.6962C211.798 93.0289 211.864 93.4616 211.723 93.8535C211.582 94.2471 211.255 94.5382 210.849 94.6349C198.51 97.5702 189.159 101.188 186.587 102.227C186.206 102.382 186.004 102.796 186.119 103.192L187.861 109.271C187.958 109.614 188.274 109.853 188.628 109.853C196.343 109.847 213.658 108.384 223.971 102.888C231.5 98.8771 230.455 95.2068 227.378 87.288C225.272 81.8685 210.76 58.9685 201.927 55.7389C201.265 55.4974 200.651 55.3766 200.09 55.3766ZM188.628 110.281C188.084 110.281 187.598 109.914 187.448 109.388L185.705 103.311C185.532 102.703 185.841 102.066 186.426 101.829C189.005 100.788 198.381 97.1599 210.75 94.2175C211.018 94.1535 211.226 93.9679 211.319 93.7088C211.413 93.4496 211.371 93.1745 211.205 92.9546C208.149 88.914 200.766 78.9548 198.201 73.7745C195.964 69.2532 192.891 58.3431 198.334 55.3766C199.359 54.8168 200.618 54.8032 202.074 55.3358C211.013 58.6038 225.656 81.6749 227.778 87.1328C230.951 95.298 232.023 99.0835 224.173 103.267C213.786 108.802 196.381 110.276 188.629 110.281H188.628Z" fill="#08284F"/>
<path d="M181.007 57.6906C182.767 53.5844 195.809 48.1937 199.225 48.8479C209.083 50.7347 210.553 65.5158 213.067 109.375C203.491 111.628 177.767 110.488 177.188 110.058C175.182 108.566 176.997 67.0395 181.007 57.6906Z" fill="#FFFFF7"/>
<path d="M181.23 57.7865C179.171 62.5893 177.739 75.9412 177.086 86.8353C176.275 100.342 176.584 109.304 177.334 109.862C178.39 110.284 203.367 111.309 212.811 109.182C210.335 66.0013 208.966 50.9618 199.179 49.0878C195.818 48.4448 182.949 53.7803 181.23 57.7865ZM193.395 110.997C184.994 110.997 177.448 110.555 177.043 110.254C174.747 108.547 176.971 66.4819 180.782 57.5937C182.612 53.326 195.719 47.9289 199.27 48.6079C209.429 50.5531 210.811 65.7381 213.31 109.36L213.322 109.565L213.122 109.612C208.658 110.663 200.702 110.997 193.395 110.997Z" fill="#EEE4D9"/>
<path d="M132.216 68.5504C127.456 64.4626 126.875 66.3422 127.72 67.2259C135.573 75.4407 139.082 74.2434 138.524 73.5996C136.717 71.5161 134.283 70.3244 132.216 68.5504Z" fill="#444244"/>
<path d="M127.963 66.5115L127.861 66.5227C127.873 66.5363 127.908 66.7155 128.073 66.889C133.563 72.6316 136.793 73.5786 137.844 73.5786C136.842 72.5164 135.673 71.6966 134.442 70.8329C133.594 70.2386 132.715 69.6227 131.899 68.9205C129.335 66.7195 128.27 66.5115 127.963 66.5115ZM137.808 74.5615C136.018 74.5615 132.429 72.8579 127.368 67.5632C126.842 67.0138 126.754 66.2732 127.164 65.8413C127.941 65.0207 129.798 65.8301 132.535 68.1799C133.315 68.8509 134.173 69.4524 135.003 70.0338C136.351 70.9792 137.746 71.9566 138.893 73.2794C139.15 73.5762 139.125 73.9841 138.833 74.2496C138.616 74.4464 138.273 74.5615 137.808 74.5615Z" fill="#444244"/>
<path d="M151.157 80.7511L147.617 86.6584C141.935 82.3267 142.24 82.3531 140.167 81.5373C138.585 80.9159 136.86 80.7135 135.287 80.0689C133.714 79.4234 132.216 78.1446 132.058 76.4522C132.038 76.249 132.038 76.0387 131.957 75.8507C131.713 75.2909 130.798 74.8789 131.126 74.3631C131.316 74.0624 131.837 74.068 131.955 73.732C132.117 73.269 131.297 72.7971 131.578 72.3956C131.64 72.3084 131.74 72.2588 131.839 72.2196C133.543 71.5422 135.421 72.9562 137.238 72.7123C137.213 72.1036 136.443 71.8909 135.862 71.7077C135.045 71.451 133.043 70.1689 133.368 69.0772C133.793 67.6471 135.988 69.0692 136.731 69.3011C137.492 69.5379 138.297 69.6906 138.962 70.1289C139.526 70.5016 139.945 71.0511 140.353 71.5902C141.701 73.3737 143.054 75.1629 144.167 77.1016C144.756 78.1245 145.303 78.1789 151.157 80.7511Z" fill="#FDA98B"/>
<path d="M202.554 45.2743C203.729 44.6657 205.169 45.2511 205.638 46.4876C209.067 55.5278 215.837 63.3027 218.224 72.7244C221.072 83.9632 217.335 96.1722 220.659 107.278C223.706 117.45 230.213 115.195 235.703 133.538C236.355 135.718 234.615 137.89 232.347 137.703C220.208 136.698 202.268 143.425 193.011 141.815C191.516 141.555 190.498 140.161 190.698 138.657C191.83 130.121 194.558 99.8089 180.535 75.6396C175.745 67.3857 180.935 52.5709 191.016 48.9326C192.121 48.5335 199.059 47.0843 202.554 45.2743Z" fill="#0075FF"/>
<path d="M203.545 45.2456C203.238 45.2456 202.935 45.3184 202.652 45.4647C200.052 46.8116 195.622 47.9449 192.976 48.6223C192.078 48.8519 191.369 49.0335 191.089 49.1342C186.4 50.8266 182.369 55.2191 180.305 60.8857C178.353 66.2436 178.508 71.7199 180.72 75.5325C194.742 99.697 192.065 129.979 190.911 138.685C190.725 140.081 191.664 141.363 193.048 141.603C197.659 142.406 204.458 141.119 211.656 139.756C218.852 138.395 226.293 136.982 232.365 137.488C233.373 137.571 234.309 137.169 234.945 136.383C235.578 135.603 235.784 134.562 235.497 133.6C232.365 123.133 228.955 119.463 225.945 116.224C223.705 113.813 221.769 111.729 220.454 107.34C218.723 101.56 218.897 95.3948 219.065 89.4331C219.221 83.8969 219.383 78.1719 218.016 72.7772C216.67 67.4625 213.867 62.5805 211.157 57.8601C209.078 54.2386 206.928 50.4939 205.437 46.5645C205.23 46.0182 204.8 45.5863 204.255 45.3784C204.023 45.2896 203.783 45.2456 203.545 45.2456ZM196.291 142.279C195.097 142.279 193.986 142.203 192.974 142.026C191.362 141.746 190.269 140.254 190.485 138.629C191.635 129.958 194.303 99.7946 180.349 75.7477C178.074 71.8262 177.907 66.2156 179.901 60.7386C182.01 54.9544 186.137 50.4651 190.943 48.7303C191.243 48.6224 191.925 48.448 192.869 48.2065C195.498 47.5338 199.899 46.4077 202.456 45.0832C203.057 44.7713 203.769 44.7329 204.409 44.9777C205.067 45.2296 205.588 45.7519 205.839 46.4125C207.317 50.3091 209.458 54.0394 211.529 57.6457C214.253 62.3918 217.071 67.3002 218.432 72.6724C219.813 78.1239 219.651 83.8793 219.494 89.4451C219.327 95.3732 219.154 101.503 220.865 107.217C222.15 111.511 224.054 113.559 226.26 115.933C229.301 119.205 232.747 122.914 235.908 133.476C236.237 134.574 236.001 135.763 235.278 136.653C234.551 137.551 233.478 138.016 232.329 137.916C226.316 137.419 218.904 138.821 211.737 140.178C206.06 141.252 200.631 142.279 196.291 142.279Z" fill="#08284F"/>
<path d="M187.864 96.1283C184.422 104.131 182.541 107.438 174.239 104.984C162.59 101.541 148.69 89.7355 143.754 84.8087C143.616 84.6712 143.589 84.4608 143.681 84.2897L147.156 77.8976C147.263 77.7009 147.5 77.6153 147.707 77.7001C149.697 78.5079 159.572 82.6468 171.38 89.8363C171.753 90.0634 172.237 89.8387 172.292 89.4052C172.765 85.7133 174.619 71.8703 176.542 66.0181C178.002 61.5728 183.337 51.4385 189.273 53.1317C197.709 55.5375 190.452 90.1138 187.864 96.1283Z" fill="#0075FF"/>
<path d="M147.542 77.8825C147.462 77.8825 147.385 77.9257 147.344 78.0009L143.869 84.3921C143.822 84.4816 143.835 84.5872 143.906 84.6576C148.316 89.0581 162.374 101.253 174.3 104.778C182.48 107.197 184.309 103.848 187.668 96.0436C189.965 90.7017 195.674 64.1986 191.639 55.7031C191.029 54.4187 190.213 53.6229 189.215 53.3381C183.543 51.7233 178.28 61.4161 176.746 66.0854C174.845 71.8712 173.02 85.419 172.506 89.4332C172.47 89.706 172.301 89.9403 172.053 90.0595C171.8 90.1803 171.507 90.1643 171.268 90.0195C159.438 82.8157 149.499 78.6591 147.627 77.8993L147.542 77.8825ZM178.869 106.002C177.56 106.002 176.025 105.736 174.178 105.189C162.166 101.64 148.034 89.3836 143.602 84.9607C143.398 84.756 143.353 84.4449 143.493 84.1873L146.967 77.7953C147.126 77.5018 147.481 77.3754 147.789 77.501C149.666 78.264 159.632 82.4326 171.492 89.6524C171.606 89.7228 171.747 89.7308 171.867 89.6724C171.986 89.6164 172.063 89.5084 172.08 89.378C172.595 85.3542 174.425 71.7736 176.338 65.951C177.912 61.1586 183.378 51.2258 189.332 52.9254C190.455 53.2453 191.361 54.1179 192.026 55.5192C196.109 64.1155 190.376 90.8345 188.061 96.2132C185.349 102.517 183.601 106.002 178.869 106.002Z" fill="#08284F"/>
<path d="M207.36 43.8315C207.168 43.8315 206.973 43.8276 206.773 43.8188C206.638 43.8132 206.533 43.6988 206.539 43.5644C206.545 43.43 206.642 43.3149 206.794 43.3317C213.226 43.6076 215.076 39.2543 216.177 36.6533C216.309 36.3422 216.428 36.0583 216.543 35.8151C216.588 35.7183 216.69 35.5704 216.858 35.324C218.022 33.6204 221.565 28.4345 218.109 23.6581C217.471 22.7759 216.954 22.352 216.539 22.0113C215.589 21.2331 215.205 20.7948 215.206 17.7164C215.211 8.80177 210.129 7.77802 206.047 6.95582C205.329 6.81105 204.653 6.67509 204.036 6.50314C203.907 6.46714 203.831 6.33278 203.867 6.20241C203.903 6.07284 204.036 5.99685 204.167 6.03284C204.767 6.2 205.435 6.33437 206.144 6.47674C210.176 7.28934 215.699 8.40187 215.694 17.7164C215.692 20.686 216.031 20.9636 216.847 21.6338C217.285 21.9921 217.829 22.4384 218.505 23.3726C220.931 26.7254 220.513 30.8395 217.262 35.5992C217.128 35.7935 217.014 35.9623 216.985 36.0231C216.873 36.2614 216.755 36.5389 216.627 36.8429C215.584 39.3079 213.668 43.8315 207.36 43.8315Z" fill="#30323E"/>
<path d="M206.783 43.8196C203.874 43.5069 202.061 40.8155 201.444 39.2751C200.899 37.9146 200.888 36.3198 200.879 34.7778C200.876 34.4411 200.874 34.1092 200.866 33.7876C200.773 30.1597 199.513 29.2919 198.294 28.453C197.752 28.0794 197.24 27.7275 196.856 27.1533C195.991 25.8576 196.155 24.2892 196.313 22.7728C196.424 21.7042 196.54 20.5989 196.295 19.6007C195.916 18.0571 194.541 18.2547 192.323 18.7066C190.679 19.0417 188.978 19.388 187.733 18.5938C187.619 18.521 187.586 18.3706 187.658 18.2563C187.731 18.1427 187.883 18.1099 187.995 18.1819C189.075 18.8705 190.677 18.5434 192.225 18.2275C194.209 17.8244 196.258 17.4053 196.769 19.4848C197.035 20.5645 196.915 21.713 196.799 22.8232C196.643 24.3196 196.495 25.7328 197.263 26.883C197.594 27.3788 198.068 27.7051 198.571 28.0515C199.829 28.9168 201.254 29.8982 201.354 33.7756C201.362 34.0996 201.364 34.4347 201.366 34.7754C201.377 36.2718 201.386 37.8187 201.897 39.0927C202.473 40.5332 204.156 43.0462 206.81 43.3325C206.943 43.3469 207.04 43.4677 207.026 43.6012C207.013 43.7268 206.907 43.8196 206.783 43.8196Z" fill="#30323E"/>
<path d="M197.337 22.6022C196.223 28.6231 200.855 26.3813 201.4 30.1683C201.976 34.1705 200.456 38.847 203.076 41.9254C206.124 45.5062 213.789 44.4904 215.82 36.4252C216.057 35.487 216.54 34.6392 217.19 33.9226C220.341 30.4563 219.285 24.5641 214.638 22.6566C213.128 22.0383 218.538 8.55287 206.209 6.3902C205.214 6.21585 204.297 5.75355 203.525 5.10091C195.602 -1.59584 182.593 13.3245 186.92 18.2025C189.801 21.4529 199.158 12.7494 197.337 22.6022Z" fill="#30323E"/>
<path d="M188.862 17.0381C188.196 17.0381 187.855 16.7446 187.683 16.4422C186.745 14.8074 189.311 10.1646 191.91 7.89153C192.011 7.80355 192.166 7.81315 192.254 7.91473C192.344 8.0163 192.333 8.17067 192.231 8.25945C189.638 10.5261 187.364 14.9042 188.106 16.1991C188.403 16.715 189.232 16.5678 189.874 16.3526L193.959 14.9842C194.087 14.9426 194.225 15.0106 194.268 15.1386C194.312 15.2665 194.243 15.4049 194.115 15.4473L190.029 16.8149C189.558 16.9733 189.174 17.0381 188.862 17.0381Z" fill="#353B4A"/>
<path d="M213.64 34.0261L213.545 34.0061C213.42 33.9525 213.363 33.8094 213.417 33.6854C213.612 33.2327 213.91 32.7217 214.225 32.1794C215.207 30.4966 216.428 28.4027 215.33 26.6855C214.803 25.8633 213.813 25.4019 212.855 24.9548C211.667 24.3997 210.437 23.8262 210.039 22.5497C209.777 21.7132 209.988 20.8646 210.192 20.044C210.27 19.7305 210.35 19.4065 210.4 19.0938C211.088 14.8173 207.212 13.4504 205.556 12.8665C205.142 12.7202 204.937 12.6458 204.822 12.5554C203.917 11.8428 203.831 10.7615 203.748 9.71531C203.625 8.19089 203.511 6.75044 201.042 6.19217C199.725 5.89465 198.329 5.87947 197.005 6.149C196.876 6.17539 196.745 6.0906 196.717 5.95864C196.69 5.82667 196.776 5.69791 196.908 5.67072C198.299 5.38759 199.766 5.40277 201.15 5.7163C203.968 6.35374 204.11 8.1189 204.234 9.67612C204.313 10.6607 204.387 11.5908 205.124 12.1723C205.183 12.2171 205.468 12.3179 205.718 12.4067C207.337 12.9769 211.635 14.4925 210.883 19.1706C210.83 19.5033 210.747 19.8384 210.666 20.1615C210.469 20.9518 210.283 21.6972 210.505 22.4042C210.84 23.4751 211.919 23.979 213.061 24.5125C214.082 24.9884 215.139 25.481 215.741 26.4224C217 28.3907 215.695 30.6278 214.647 32.4257C214.34 32.9544 214.048 33.4535 213.864 33.8782C213.825 33.9709 213.735 34.0261 213.64 34.0261Z" fill="#353B4A"/>
<path d="M207.884 41.261C207.532 41.261 207.192 41.1954 206.864 41.0642C205.314 40.4444 204.569 38.5329 204.447 37.3987C204.318 36.2094 204.507 35.0201 204.69 33.87C204.798 33.183 204.912 32.4735 204.954 31.7785C205.178 28.0738 203.293 27.3412 202.048 26.8565C201.705 26.723 201.433 26.6174 201.248 26.4662C200.208 25.616 200.322 24.0476 200.443 22.3864C200.511 21.4611 200.58 20.5029 200.431 19.6975C200.267 18.8089 199.673 17.9235 198.953 17.494C198.622 17.2949 198.1 17.0989 197.509 17.2885C197.381 17.3293 197.243 17.2597 197.202 17.1309C197.16 17.0021 197.231 16.8654 197.359 16.8238C197.966 16.6294 198.603 16.7158 199.204 17.0749C200.05 17.5804 200.719 18.5746 200.911 19.6095C201.071 20.4757 200.999 21.4651 200.93 22.4224C200.818 23.9524 200.714 25.3985 201.557 26.0879C201.683 26.1903 201.934 26.2887 202.224 26.4014C203.434 26.8717 205.686 27.7475 205.441 31.8073C205.397 32.5271 205.283 33.2485 205.172 33.9468C204.986 35.1169 204.81 36.2222 204.931 37.3459C205.037 38.3241 205.705 40.0749 207.046 40.6107C208.064 41.0186 209.264 40.6459 210.612 39.5046C210.715 39.4174 210.868 39.4294 210.956 39.5326C211.043 39.6358 211.03 39.7893 210.927 39.8765C209.84 40.7979 208.82 41.261 207.884 41.261Z" fill="#353B4A"/>
<path d="M209.807 34.8906L209.666 34.845C207.548 33.3382 207.921 30.5949 208.25 28.1755C208.401 27.0798 208.541 26.0448 208.452 25.197C208.153 22.3465 205.984 20.1407 203.594 17.9476C203.495 17.8564 203.488 17.7013 203.58 17.6021C203.671 17.5037 203.826 17.4973 203.924 17.5877C206.385 19.8471 208.621 22.1258 208.938 25.1458C209.033 26.052 208.888 27.1157 208.735 28.2411C208.409 30.6357 208.071 33.1111 209.949 34.4483C210.059 34.5259 210.084 34.6787 210.007 34.7882C209.959 34.8554 209.883 34.8906 209.807 34.8906Z" fill="#353B4A"/>
<path d="M196.819 15.8401C196.717 15.8401 196.621 15.7753 196.587 15.6729C196.546 15.545 196.615 15.4074 196.743 15.3642C197.835 15.0027 202.102 12.732 201.428 8.99857C201.405 8.8658 201.493 8.73863 201.625 8.71463C201.754 8.69064 201.885 8.77862 201.909 8.91218C202.644 12.988 198.068 15.4402 196.896 15.8281L196.819 15.8401Z" fill="#353B4A"/>
<path d="M192.655 113.18L192.221 110.713C192.13 110.194 207.079 107.386 207.221 108.307L207.515 110.198C207.59 110.687 192.816 114.099 192.655 113.18Z" fill="#08284F"/>
<path d="M192.856 113.088C193.984 113.579 206.184 110.719 207.286 110.123L207.017 108.394C206.057 107.976 193.763 109.997 192.453 110.782L192.856 113.088ZM193.27 113.55C192.502 113.55 192.47 113.368 192.444 113.217L192.011 110.749C192.001 110.695 192.002 110.589 192.117 110.494C192.899 109.848 205.688 107.43 207.175 107.998C207.364 108.069 207.42 108.187 207.434 108.274L207.727 110.166C207.762 110.386 207.797 110.615 203.495 111.672C200.953 112.297 198.108 112.894 196.068 113.232C194.647 113.467 193.79 113.55 193.27 113.55Z" fill="#08284F"/>
<path d="M232.751 138.043C232.632 138.043 232.527 137.956 232.51 137.834C231.163 128.497 225.905 124.127 221.681 120.616C220.242 119.42 218.999 118.386 218.077 117.292C211.881 109.932 212.284 101.703 212.795 91.2846C213.352 79.9338 214.046 65.8077 205.903 47.8121C205.848 47.6898 205.901 47.545 206.024 47.489C206.146 47.433 206.291 47.4882 206.347 47.6114C214.54 65.7141 213.843 79.905 213.283 91.3078C212.778 101.62 212.378 109.764 218.45 116.978C219.344 118.039 220.571 119.059 221.993 120.242C226.055 123.617 231.619 128.242 232.993 137.764C233.012 137.898 232.919 138.021 232.786 138.04L232.751 138.043Z" fill="#08284F"/>
<path d="M228.937 137.852C228.828 137.852 228.728 137.778 228.7 137.668C228.601 137.279 228.51 136.905 228.42 136.543C227.625 133.308 227.101 131.171 224.401 128.903L224.244 128.774C223.406 128.089 221.18 126.271 220.948 123.916C220.837 122.774 221.215 121.668 222.075 120.627C222.16 120.523 222.315 120.509 222.418 120.594C222.522 120.68 222.537 120.834 222.451 120.938C221.678 121.875 221.336 122.86 221.434 123.869C221.646 126.021 223.757 127.746 224.553 128.395L224.714 128.529C227.537 130.899 228.107 133.217 228.896 136.427C228.983 136.787 229.076 137.161 229.173 137.548C229.207 137.678 229.128 137.811 228.996 137.844L228.937 137.852Z" fill="#08284F"/>
<path d="M220.439 113.312L220.337 113.289C220.214 113.233 220.16 113.088 220.216 112.966C220.95 111.359 221.026 109.486 220.423 107.826C220.378 107.7 220.443 107.56 220.57 107.514C220.697 107.469 220.837 107.533 220.882 107.66C221.529 109.439 221.447 111.447 220.661 113.169C220.619 113.258 220.531 113.312 220.439 113.312Z" fill="#08284F"/>
<path d="M175.774 95.3901L175.696 95.3781C173.865 94.7695 172.423 93.1571 172.02 91.2704C171.992 91.1384 172.076 91.0088 172.207 90.9808C172.337 90.952 172.469 91.036 172.497 91.168C172.864 92.8891 174.181 94.3592 175.851 94.9142C175.979 94.9566 176.048 95.095 176.005 95.223C175.971 95.3254 175.876 95.3901 175.774 95.3901Z" fill="#08284F"/>
<path d="M28.9779 179.441C32.3647 179.441 35.1079 176.697 35.1079 173.311C35.1079 169.924 32.3647 167.181 28.9779 167.181C25.5911 167.181 22.848 169.924 22.848 173.311C22.848 176.697 25.5911 179.441 28.9779 179.441ZM28.9779 182.506C24.8862 182.506 16.718 184.559 16.718 188.636V190.168C16.718 191.011 17.4076 191.7 18.2505 191.7H39.7054C40.5482 191.7 41.2378 191.011 41.2378 190.168V188.636C41.2378 184.559 33.0697 182.506 28.9779 182.506Z" fill="#DCDCDC"/>
<path d="M99.1937 163.837C102.273 163.837 104.766 161.343 104.766 158.264C104.766 155.185 102.273 152.692 99.1937 152.692C96.1148 152.692 93.621 155.185 93.621 158.264C93.621 161.343 96.1148 163.837 99.1937 163.837ZM99.1937 166.623C95.4739 166.623 88.0483 168.49 88.0483 172.196V173.589C88.0483 174.355 88.6753 174.982 89.4415 174.982H108.946C109.712 174.982 110.339 174.355 110.339 173.589V172.196C110.339 168.49 102.913 166.623 99.1937 166.623Z" fill="#DCDCDC"/>
<path d="M91.3921 111.454C93.5473 111.454 95.293 109.708 95.293 107.553C95.293 105.398 93.5473 103.652 91.3921 103.652C89.2369 103.652 87.4912 105.398 87.4912 107.553C87.4912 109.708 89.2369 111.454 91.3921 111.454ZM91.3921 113.404C88.7883 113.404 83.5903 114.711 83.5903 117.305V118.28C83.5903 118.817 84.0292 119.256 84.5656 119.256H98.2186C98.755 119.256 99.1939 118.817 99.1939 118.28V117.305C99.1939 114.711 93.9959 113.404 91.3921 113.404Z" fill="#DCDCDC"/>
<path d="M111.454 111.454C113.609 111.454 115.355 109.708 115.355 107.553C115.355 105.398 113.609 103.652 111.454 103.652C109.299 103.652 107.553 105.398 107.553 107.553C107.553 109.708 109.299 111.454 111.454 111.454ZM111.454 113.404C108.85 113.404 103.652 114.711 103.652 117.305V118.28C103.652 118.817 104.091 119.256 104.627 119.256H118.28C118.817 119.256 119.256 118.817 119.256 118.28V117.305C119.256 114.711 114.058 113.404 111.454 113.404Z" fill="#DCDCDC"/>
<path d="M130.401 111.454C132.556 111.454 134.302 109.708 134.302 107.553C134.302 105.398 132.556 103.652 130.401 103.652C128.246 103.652 126.5 105.398 126.5 107.553C126.5 109.708 128.246 111.454 130.401 111.454ZM130.401 113.404C127.797 113.404 122.599 114.711 122.599 117.305V118.28C122.599 118.817 123.038 119.256 123.574 119.256H137.227C137.764 119.256 138.203 118.817 138.203 118.28V117.305C138.203 114.711 133.005 113.404 130.401 113.404Z" fill="#DCDCDC"/>
<path d="M150.463 111.454C152.618 111.454 154.364 109.708 154.364 107.553C154.364 105.398 152.618 103.652 150.463 103.652C148.307 103.652 146.562 105.398 146.562 107.553C146.562 109.708 148.307 111.454 150.463 111.454ZM150.463 113.404C147.859 113.404 142.661 114.711 142.661 117.305V118.28C142.661 118.817 143.1 119.256 143.636 119.256H157.289C157.826 119.256 158.264 118.817 158.264 118.28V117.305C158.264 114.711 153.066 113.404 150.463 113.404Z" fill="#DCDCDC"/>
<path d="M65.2004 173.311C70.2806 173.311 74.3953 169.196 74.3953 164.116C74.3953 159.035 70.2806 154.921 65.2004 154.921C60.1202 154.921 56.0055 159.035 56.0055 164.116C56.0055 169.196 60.1202 173.311 65.2004 173.311ZM65.2004 177.908C59.0628 177.908 46.8105 180.988 46.8105 187.103V189.402C46.8105 190.666 47.845 191.7 49.1093 191.7H81.2915C82.5559 191.7 83.5903 190.666 83.5903 189.402V187.103C83.5903 180.988 71.338 177.908 65.2004 177.908Z" fill="#DCDCDC"/>
</svg>
