<svg width="58" height="7" viewBox="0 0 58 7" fill="none" xmlns="http://www.w3.org/2000/svg">
<path d="M9.91357 0.690186H11.1818V2.6612H13.3532V0.690186H14.6214V5.78597H13.3532V3.71882H11.1818V5.78597H9.91357V0.690186Z" fill="black"/>
<path d="M18.0837 5.90247C17.7378 5.90247 17.408 5.85118 17.0941 5.74863C16.7866 5.63966 16.5176 5.47942 16.287 5.2679C16.0564 5.04996 15.8738 4.77755 15.7393 4.45064C15.6048 4.11734 15.5376 3.72954 15.5376 3.28727V3.09497C15.5376 2.67193 15.6017 2.30336 15.7297 1.98929C15.8579 1.67521 16.034 1.4156 16.2582 1.2105C16.4824 0.998973 16.7418 0.841929 17.0364 0.739379C17.3311 0.630406 17.6481 0.575928 17.9876 0.575928C18.7883 0.575928 19.3967 0.78745 19.8131 1.2105C20.2295 1.63354 20.4376 2.24568 20.4376 3.0469V3.58533H16.8347C16.841 3.80967 16.8795 4.00517 16.9499 4.17182C17.0204 4.33206 17.1133 4.46347 17.2286 4.56602C17.3439 4.66858 17.4752 4.7455 17.6225 4.79677C17.7762 4.84164 17.93 4.86408 18.0837 4.86408C18.4104 4.86408 18.657 4.816 18.8235 4.71986C18.99 4.62371 19.1085 4.48269 19.179 4.29681H20.3415C20.2391 4.82882 19.9861 5.22944 19.5825 5.49865C19.179 5.76786 18.6794 5.90247 18.0837 5.90247ZM18.0357 1.61431C17.8883 1.61431 17.741 1.63354 17.5937 1.672C17.4528 1.71046 17.3278 1.77135 17.2189 1.85468C17.1101 1.93801 17.0204 2.05018 16.9499 2.19119C16.8795 2.33221 16.841 2.50207 16.8347 2.70077H19.2078C19.2014 2.48925 19.1662 2.31298 19.1021 2.17197C19.0445 2.03095 18.9612 1.91878 18.8523 1.83545C18.7498 1.75212 18.6281 1.69443 18.4872 1.66239C18.3463 1.63034 18.1958 1.61431 18.0357 1.61431Z" fill="black"/>
<path d="M22.4966 1.74781H20.8729V0.690186H25.3885V1.74781H23.7648V5.78597H22.4966V1.74781Z" fill="black"/>
<path d="M28.3666 5.90247C28.0207 5.90247 27.6908 5.85118 27.377 5.74863C27.0696 5.63966 26.8006 5.47621 26.57 5.25828C26.3394 5.04034 26.1568 4.76793 26.0223 4.44103C25.8878 4.11413 25.8206 3.72954 25.8206 3.28727V3.09497C25.8206 2.67833 25.8878 2.31298 26.0223 1.9989C26.1568 1.68482 26.3394 1.42202 26.57 1.2105C26.8006 0.998973 27.0696 0.841929 27.377 0.739379C27.6908 0.630406 28.0207 0.575928 28.3666 0.575928C28.7125 0.575928 29.0392 0.630406 29.3467 0.739379C29.6541 0.841929 29.9231 0.998973 30.1537 1.2105C30.3907 1.42202 30.5764 1.68482 30.711 1.9989C30.8455 2.31298 30.9127 2.67833 30.9127 3.09497V3.28727C30.9127 3.72314 30.8455 4.10452 30.711 4.43142C30.5764 4.75832 30.3907 5.03073 30.1537 5.24866C29.9231 5.4666 29.6541 5.63005 29.3467 5.73902C29.0392 5.84798 28.7125 5.90247 28.3666 5.90247ZM28.3666 4.82562C28.7253 4.82562 29.0231 4.69743 29.2602 4.44103C29.5036 4.18464 29.6253 3.80005 29.6253 3.28727V3.09497C29.6253 2.62706 29.5036 2.27131 29.2602 2.02774C29.0231 1.77777 28.7253 1.65277 28.3666 1.65277C28.0016 1.65277 27.7005 1.77777 27.4635 2.02774C27.2265 2.27131 27.108 2.62706 27.108 3.09497V3.28727C27.108 3.80646 27.2265 4.19425 27.4635 4.45064C27.7005 4.70063 28.0016 4.82562 28.3666 4.82562Z" fill="black"/>
<path d="M31.776 5.90135C31.7247 5.90135 31.6607 5.89814 31.5839 5.89173C31.507 5.89173 31.4429 5.88533 31.3917 5.87251V4.72836C31.4237 4.73476 31.4718 4.73797 31.5358 4.73797C31.6575 4.73797 31.7632 4.70272 31.8529 4.63221C31.9425 4.55529 32.0162 4.4271 32.0738 4.24762C32.1379 4.06815 32.1827 3.83098 32.2083 3.53614C32.2404 3.23487 32.2564 2.86311 32.2564 2.42083V0.690186H36.2917V5.78597H35.0235V1.74781H33.4285V2.61312C33.4285 3.27333 33.3933 3.81816 33.3229 4.24762C33.2588 4.67067 33.1563 5.00398 33.0154 5.24755C32.8809 5.49112 32.708 5.66098 32.4966 5.75713C32.2916 5.85327 32.0514 5.90135 31.776 5.90135Z" fill="black"/>
<path d="M39.7479 5.90247C39.402 5.90247 39.0721 5.85118 38.7583 5.74863C38.4508 5.63966 38.1817 5.47621 37.9511 5.25828C37.7205 5.04034 37.538 4.76793 37.4035 4.44103C37.269 4.11413 37.2017 3.72954 37.2017 3.28727V3.09497C37.2017 2.67833 37.269 2.31298 37.4035 1.9989C37.538 1.68482 37.7205 1.42202 37.9511 1.2105C38.1817 0.998973 38.4508 0.841929 38.7583 0.739379C39.0721 0.630406 39.402 0.575928 39.7479 0.575928C40.0937 0.575928 40.4204 0.630406 40.7278 0.739379C41.0353 0.841929 41.3043 0.998973 41.5349 1.2105C41.7719 1.42202 41.9577 1.68482 42.0921 1.9989C42.2266 2.31298 42.294 2.67833 42.294 3.09497V3.28727C42.294 3.72314 42.2266 4.10452 42.0921 4.43142C41.9577 4.75832 41.7719 5.03073 41.5349 5.24866C41.3043 5.4666 41.0353 5.63005 40.7278 5.73902C40.4204 5.84798 40.0937 5.90247 39.7479 5.90247ZM39.7479 4.82562C40.1065 4.82562 40.4044 4.69743 40.6414 4.44103C40.8848 4.18464 41.0065 3.80005 41.0065 3.28727V3.09497C41.0065 2.62706 40.8848 2.27131 40.6414 2.02774C40.4044 1.77777 40.1065 1.65277 39.7479 1.65277C39.3827 1.65277 39.0817 1.77777 38.8447 2.02774C38.6077 2.27131 38.4892 2.62706 38.4892 3.09497V3.28727C38.4892 3.80646 38.6077 4.19425 38.8447 4.45064C39.0817 4.70063 39.3827 4.82562 39.7479 4.82562Z" fill="black"/>
<path d="M43.2991 0.690186H46.9502V1.74781H44.5674V5.78597H43.2991V0.690186Z" fill="black"/>
<path d="M47.7162 0.690186H48.9845V3.95919L51.252 0.690186H52.4241V5.78597H51.1559V2.51698L48.8885 5.78597H47.7162V0.690186Z" fill="black"/>
<path d="M54.6084 3.87265C54.2177 3.74445 53.9327 3.55216 53.7534 3.29577C53.574 3.03937 53.4843 2.73811 53.4843 2.39198C53.4843 2.14201 53.526 1.91446 53.6092 1.70934C53.6989 1.49782 53.8302 1.31835 54.0031 1.17092C54.1761 1.01709 54.3939 0.898505 54.6565 0.815182C54.9255 0.731851 55.2393 0.690186 55.598 0.690186H58V5.78597H56.7318V4.02648H55.819L54.7141 5.78597H53.2922L54.6084 3.87265ZM54.7525 2.39198C54.7525 2.60992 54.823 2.77017 54.9639 2.87272C55.1113 2.97528 55.3066 3.02656 55.55 3.02656H56.7318V1.74781H55.55C55.3066 1.74781 55.1113 1.80229 54.9639 1.91125C54.823 2.01381 54.7525 2.17406 54.7525 2.39198Z" fill="black"/>
<path fill-rule="evenodd" clip-rule="evenodd" d="M1.63932 3.33546C1.59883 3.33222 1.5579 3.33057 1.51658 3.33057C0.678997 3.33057 0 4.00957 0 4.84715C0 5.68473 0.678997 6.36373 1.51658 6.36373C2.35416 6.36373 3.03316 5.68473 3.03316 4.84715C3.03316 4.78285 3.02916 4.7195 3.02139 4.6573C2.30421 4.59986 1.72773 4.04348 1.63932 3.33546Z" fill="#5D00F5"/>
<path fill-rule="evenodd" clip-rule="evenodd" d="M3.03316 1.51658C3.03316 0.679 2.35416 0 1.51658 0C0.678997 0 8.32123e-08 0.679 0 1.51658C-1.50669e-07 2.35416 0.678997 3.03316 1.51658 3.03316C1.55537 3.03316 1.59382 3.03171 1.63186 3.02885C1.68792 2.28317 2.28317 1.68792 3.02885 1.63186C3.03171 1.59382 3.03316 1.55537 3.03316 1.51658Z" fill="#EB236B"/>
<path fill-rule="evenodd" clip-rule="evenodd" d="M4.65614 3.02139C4.71834 3.02916 4.78169 3.03316 4.84599 3.03316C5.68357 3.03316 6.36257 2.35416 6.36257 1.51658C6.36257 0.679 5.68357 0 4.84599 0C4.00841 0 3.32941 0.679 3.32941 1.51658C3.32941 1.5579 3.33106 1.59883 3.3343 1.63932C4.04232 1.72773 4.5987 2.30421 4.65614 3.02139Z" fill="#4BD0A0"/>
<path fill-rule="evenodd" clip-rule="evenodd" d="M3.34218 4.64943C3.33375 4.71414 3.32941 4.78014 3.32941 4.84715C3.32941 5.68473 4.00841 6.36373 4.84599 6.36373C5.68357 6.36373 6.36257 5.68473 6.36257 4.84715C6.36257 4.00957 5.68357 3.33057 4.84599 3.33057C4.77898 3.33057 4.71298 3.33491 4.64827 3.34334C4.55981 4.02279 4.02163 4.56097 3.34218 4.64943Z" fill="#0066FF"/>
</svg>
