<svg width="413" height="346" viewBox="0 0 413 346" fill="none" xmlns="http://www.w3.org/2000/svg">
<path d="M348.436 196.66C348.436 273.983 285.779 339.523 205.851 343.173C122.828 346.968 53.1355 283.028 53.1355 200.217C53.1355 117.406 122.815 51.8002 205.837 53.5855C285.779 55.3046 348.436 119.337 348.436 196.66Z" fill="url(#paint0_linear_2_462)"/>
<path opacity="0.3" d="M357.719 196.66C357.719 273.983 295.062 339.523 215.134 343.173C132.111 346.968 62.4189 283.028 62.4189 200.217C62.4189 117.406 132.111 51.7868 215.134 53.5853C295.062 55.3045 357.719 119.337 357.719 196.66Z" fill="url(#paint1_linear_2_462)"/>
<path opacity="0.3" d="M348.886 196.766C348.886 269.619 289.786 331.257 214.539 334.55C136.555 337.962 71.2397 277.818 71.2397 200.125C71.2397 122.431 136.555 60.6999 214.539 62.234C289.786 63.7019 348.886 123.912 348.886 196.766Z" fill="url(#paint2_linear_2_462)"/>
<path d="M184.202 203.748C190.259 195.893 193.287 184.15 193.287 168.505C193.287 153.548 190.206 142.03 184.057 133.976C177.908 125.923 169.074 121.889 157.582 121.889C134.122 121.889 122.392 137.428 122.392 168.505C122.392 183.74 125.446 195.39 131.569 203.444C137.692 211.498 146.367 215.531 157.582 215.531C169.272 215.531 178.146 211.603 184.202 203.748ZM157.78 194.412C154.381 194.412 151.908 192.283 150.388 188.038C148.854 183.792 148.087 177.339 148.087 168.703C148.087 160.068 148.854 153.654 150.388 149.475C151.922 145.296 154.381 143.207 157.78 143.207C164.313 143.207 167.579 151.71 167.579 168.703C167.579 185.842 164.313 194.412 157.78 194.412Z" fill="white"/>
<path d="M288.516 193.539C282.367 185.485 273.533 181.452 262.041 181.452C238.581 181.452 226.851 196.99 226.851 228.068C226.851 243.236 229.906 254.847 236.029 262.901C242.152 270.954 250.827 274.988 262.041 274.988C273.732 274.988 282.618 271.06 288.662 263.205C294.719 255.35 297.747 243.633 297.747 228.068C297.747 213.111 294.666 201.606 288.516 193.539ZM262.24 253.987C258.841 253.987 256.368 251.858 254.847 247.613C253.313 243.368 252.546 236.915 252.546 228.279C252.546 219.644 253.313 213.23 254.847 209.051C256.381 204.872 258.841 202.783 262.24 202.783C268.772 202.783 272.039 211.286 272.039 228.279C272.039 245.418 268.772 253.987 262.24 253.987Z" fill="white"/>
<path d="M260.758 125.579C260.176 124.587 259.105 123.939 257.968 123.939H242.839C240.459 123.939 238.277 125.275 237.126 127.351L158.931 268.336C158.375 269.341 158.388 270.597 158.97 271.589C159.552 272.581 160.623 273.216 161.761 273.216H178.82C179.997 273.216 181.081 272.554 181.663 271.523L260.798 128.832C261.353 127.827 261.34 126.571 260.758 125.579Z" fill="white"/>
<g opacity="0.3">
<path opacity="0.3" d="M150.784 136.224C145.878 120.223 146.103 95.9164 170.039 60.0123C108.281 77.799 62.4189 133.804 62.4189 200.799C62.4189 283.597 132.111 347.55 215.134 343.755C245.749 342.353 273.771 331.906 296.676 315.322C295.961 293.237 291.161 269.063 277.646 246.767C240.485 185.459 166.191 186.424 150.784 136.224Z" fill="url(#paint3_linear_2_462)"/>
</g>
<path d="M313.894 118.411V118.861C309.741 113.465 302.309 105.967 297.853 101.629C297.773 101.431 297.628 101.246 297.549 101.047C295.062 95.3742 291.717 89.2381 287.339 83.102C282.988 76.9527 277.474 70.9091 271.034 65.3284C270.267 64.6011 269.367 63.9663 268.547 63.2787C268.124 62.948 267.701 62.6042 267.278 62.2736L266.656 61.7711C266.432 61.5992 266.207 61.4537 265.995 61.2818C265.109 60.647 264.223 59.999 263.337 59.351L262.676 58.8617L261.975 58.4121C261.512 58.1079 261.049 57.8038 260.586 57.4996C258.761 56.2433 256.791 55.1457 254.873 53.9951C253.895 53.4397 252.863 52.924 251.872 52.395C251.382 52.1305 250.88 51.8528 250.377 51.6015C249.861 51.3635 249.346 51.1122 248.83 50.8742C240.604 46.9201 231.625 44.0504 222.421 42.4767C221.27 42.2916 220.12 42.1197 218.956 41.9345C217.806 41.7758 216.629 41.6832 215.478 41.551L213.732 41.3659L211.987 41.2733L210.241 41.1675C209.659 41.141 209.091 41.0881 208.496 41.0881C207.332 41.0881 206.168 41.0749 205.004 41.0617C204.713 41.0617 204.409 41.0485 204.145 41.0617L203.365 41.1014L201.817 41.1807L200.27 41.2601C200.138 41.2601 200.045 41.2601 199.86 41.2733L198.273 41.3923L196.157 41.5378L194.57 41.6568L194.306 41.67H194.213C194.213 41.67 193.658 41.67 194.584 41.6832L191.158 42.1593C190.59 42.2387 190.021 42.2916 189.466 42.4106L187.786 42.728L186.107 43.0454L185.274 43.204C184.996 43.2569 184.718 43.3363 184.454 43.4024C183.356 43.6669 182.258 43.9314 181.174 44.1959C180.619 44.3149 180.09 44.4868 179.561 44.6455L177.96 45.1216L176.36 45.5844L174.8 46.1266C173.755 46.4969 172.71 46.8275 171.705 47.2243C170.7 47.6342 169.682 48.0309 168.677 48.4541C160.703 51.8263 153.535 56.1904 147.439 61.176L146.288 62.0885L145.204 63.0671C144.476 63.7151 143.736 64.3234 143.048 64.9846C143.022 65.011 142.995 65.0375 142.969 65.0639C141.633 66.3864 140.271 67.6295 139.068 68.9916C138.75 69.3222 138.433 69.666 138.129 69.9967L137.653 70.4992L137.216 71.0281C136.634 71.7158 136.052 72.4167 135.471 73.0911C135.325 73.2631 135.18 73.4218 135.034 73.5937L134.637 74.1227C134.36 74.4797 134.095 74.8368 133.831 75.1806C133.315 75.8947 132.746 76.5427 132.27 77.2833C128.316 82.9301 125.288 88.5769 123.238 93.9592C121.175 99.3283 119.945 104.367 119.231 108.823C119.152 109.379 119.072 109.934 119.006 110.476C118.94 111.019 118.834 111.534 118.808 112.063C118.715 113.108 118.636 114.113 118.543 115.065C118.49 116.031 118.49 116.97 118.438 117.842C118.424 118.279 118.385 118.715 118.385 119.125C118.398 119.548 118.411 119.958 118.424 120.355C118.438 121.149 118.451 121.902 118.464 122.603C118.464 122.802 118.49 122.907 118.504 123.04C118.517 123.172 118.543 123.304 118.557 123.423C118.583 123.674 118.609 123.635 118.636 123.86C118.649 124.058 118.676 124.137 118.689 124.137H157.714L134.003 149.171L78.8438 206.618L0 124.177H41.4584C41.5113 124.177 41.5775 123.502 41.6436 122.974C41.8023 121.823 41.9742 120.712 42.1593 119.35C42.2651 118.676 42.3577 118.041 42.4767 117.313C42.5296 116.956 42.5957 116.626 42.6486 116.242C42.7015 115.872 42.7544 115.475 42.8338 115.158C43.1247 113.796 43.4289 112.354 43.7462 110.82C43.9182 110.053 44.0901 109.273 44.262 108.48C44.4471 107.673 44.672 106.866 44.8968 106.033C45.3464 104.367 45.7828 102.621 46.325 100.823C46.9069 99.0374 47.5152 97.1728 48.1367 95.242C48.4409 94.2766 48.8376 93.3112 49.2079 92.3326C49.5782 91.3672 49.9617 90.3622 50.3584 89.3439C53.572 81.3035 57.9757 72.5357 63.8473 63.7415C69.6925 54.9341 77.151 46.1531 85.9981 38.0201C87.0693 36.9754 88.2595 36.0232 89.3968 35.0182C89.9787 34.5289 90.5473 34.0263 91.1292 33.537L92.0152 32.7965L92.9145 32.0823C94.1311 31.1434 95.361 30.1913 96.5777 29.2259L97.5034 28.5118L98.4687 27.8373C99.1167 27.3745 99.7515 26.9248 100.399 26.4752C102.925 24.6238 105.65 22.9707 108.361 21.2516C109.723 20.4184 111.138 19.6382 112.539 18.8315C113.227 18.4348 113.941 18.0381 114.642 17.6413C115.369 17.271 116.084 16.9008 116.811 16.5173C128.343 10.5002 141.091 5.93774 154.329 3.2003C155.982 2.89614 157.648 2.57875 159.314 2.26137C160.98 1.97043 162.66 1.75884 164.339 1.5208L166.852 1.17697L169.378 0.938932L171.904 0.714116C172.75 0.634769 173.583 0.555423 174.43 0.51575C176.109 0.436404 177.802 0.251262 179.495 0.171915C179.904 0.158691 180.341 0 180.751 0H182.02L184.546 0.132244L187.072 0.211591C187.918 0.211591 188.752 0.317383 189.598 0.357056L194.61 0.647994C195.747 0.661218 195.007 0.674441 195.298 0.687665L195.43 0.70089L195.694 0.727341L196.21 0.793463L197.268 0.912481L199.371 1.16374L200.429 1.28276L200.944 1.34888L201.592 1.42823L204.251 1.79852L206.909 2.18202L208.231 2.38039C208.667 2.44651 209.051 2.53908 209.461 2.61843C211.074 2.94904 212.701 3.27964 214.314 3.59703C215.121 3.75572 215.914 3.96731 216.708 4.16568L219.102 4.774L221.469 5.38232L223.809 6.08321C225.357 6.55929 226.917 7.00892 228.451 7.5379C229.972 8.0801 231.493 8.6223 233 9.1645C244.995 13.7005 255.931 19.7572 265.347 26.8058C265.942 27.2422 266.524 27.6786 267.119 28.115C267.688 28.5647 268.257 29.0275 268.825 29.4904C269.949 30.4028 271.087 31.2889 272.171 32.2278C274.313 34.1453 276.442 35.9703 278.4 37.9672C278.902 38.4565 279.378 38.9458 279.881 39.4219L280.608 40.1492L281.309 40.903C282.235 41.9081 283.16 42.9131 284.06 43.8917L284.747 44.6323L285.395 45.3993C285.819 45.9151 286.255 46.4176 286.665 46.9333C287.511 47.9516 288.384 48.9302 289.151 49.9749C293.449 55.5027 297.086 61.0966 300.101 66.6244C301.569 69.309 302.878 71.9803 304.042 74.6119C307.612 82.6656 309.913 90.3225 311.355 97.1463C311.513 98.0059 311.685 98.839 311.844 99.6722C312.003 100.492 312.188 101.299 312.28 102.105C312.505 103.719 312.73 105.253 312.942 106.734C313.114 108.228 313.219 109.657 313.338 111.019C313.391 111.693 313.457 112.354 313.51 113.016C313.537 113.664 313.682 114.285 313.709 114.907C313.682 116.15 313.894 117.327 313.894 118.411Z" fill="url(#paint4_linear_2_462)"/>
<path opacity="0.4" d="M313.894 118.411V118.861C309.741 113.465 302.309 105.967 297.853 101.629C297.773 101.431 297.628 101.246 297.549 101.048C295.062 95.3743 291.717 89.2382 287.339 83.1021C282.988 76.9527 277.474 70.9092 271.034 65.3285C270.267 64.6011 269.367 63.9664 268.547 63.2787C268.124 62.9481 267.701 62.6043 267.278 62.2737L266.656 61.7711C266.432 61.5992 266.207 61.4537 265.995 61.2818C265.109 60.6471 264.223 59.9991 263.337 59.3511L262.676 58.8618L261.975 58.4121C261.512 58.108 261.049 57.8038 260.586 57.4997C258.761 56.2433 256.791 55.1457 254.873 53.9952C253.895 53.4398 252.863 52.924 251.872 52.395C251.382 52.1306 250.88 51.8528 250.377 51.6016C249.861 51.3635 249.346 51.1123 248.83 50.8742C240.604 46.9201 231.625 44.0505 222.421 42.4768C221.27 42.2916 220.12 42.1197 218.956 41.9346C217.806 41.7759 216.629 41.6833 215.478 41.551L213.732 41.3659L211.987 41.2733L210.241 41.1675C209.659 41.1411 209.091 41.0882 208.496 41.0882C207.332 41.0882 206.168 41.075 205.004 41.0617C204.713 41.0617 204.409 41.0485 204.145 41.0617L203.365 41.1014L201.817 41.1808L200.27 41.2601C200.138 41.2601 200.045 41.2601 199.86 41.2733L198.273 41.3924L196.157 41.5378L194.57 41.6568L194.306 41.6701H194.213C194.213 41.6701 193.658 41.6701 194.584 41.6833L191.158 42.1594C190.59 42.2387 190.021 42.2916 189.466 42.4106L187.786 42.728L186.107 43.0454L185.274 43.2041C184.996 43.257 184.718 43.3363 184.454 43.4025C183.356 43.6669 182.258 43.9314 181.174 44.1959C180.619 44.3149 180.09 44.4869 179.561 44.6456L177.96 45.1216L176.36 45.5845L174.8 46.1267C173.755 46.497 172.71 46.8276 171.705 47.2243C170.7 47.6343 169.682 48.031 168.677 48.4542C160.703 51.8264 153.535 56.1904 147.439 61.176L146.288 62.0885L145.204 63.0671C144.476 63.7151 143.736 64.3234 143.048 64.9846C143.022 65.0111 142.995 65.0375 142.969 65.064C160.491 44.4075 188.857 30.998 220.887 30.998C253.696 30.998 282.684 45.082 300.074 66.5848C301.542 69.2693 302.851 71.9407 304.015 74.5723C307.586 82.626 309.887 90.2829 311.328 97.1067C311.487 97.9663 311.659 98.7994 311.818 99.6325C311.976 100.452 312.161 101.259 312.254 102.066C312.479 103.679 312.704 105.213 312.915 106.694C313.087 108.189 313.193 109.617 313.312 110.979C313.365 111.653 313.431 112.315 313.484 112.976C313.51 113.624 313.656 114.245 313.682 114.867C313.682 116.15 313.894 117.327 313.894 118.411Z" fill="url(#paint5_linear_2_462)"/>
<path d="M321.263 158.415C321.95 157.859 322.863 156.96 323.379 155.625C323.934 154.183 323.551 153.548 324.251 152.649C325.137 151.512 326.962 151.022 328.219 151.578C328.483 151.697 328.801 151.856 328.999 152.199C329.554 153.138 328.325 154.765 327.333 155.625C326.592 156.273 326.288 156.233 325.494 156.775C324.727 157.317 323.762 158.243 322.982 159.962L321.263 158.415Z" fill="url(#paint6_linear_2_462)"/>
<path d="M362.47 150.546C361.624 150.308 360.433 149.832 359.428 148.801C358.357 147.69 358.463 146.949 357.471 146.394C356.202 145.693 354.337 145.958 353.411 146.949C353.213 147.161 352.988 147.439 352.935 147.835C352.79 148.92 354.562 149.925 355.805 150.348C356.744 150.652 357.008 150.493 357.947 150.705C358.86 150.903 360.116 151.38 361.491 152.662L362.47 150.546Z" fill="url(#paint7_linear_2_462)"/>
<path d="M358.529 151.882C357.987 154.487 360.803 156.801 362.827 159.076C366.9 163.638 371.171 171.785 369.598 178.78C368.738 182.602 366.001 186.728 362.126 188.685C357.96 190.788 355.461 188.871 351.123 191.383C350.806 191.568 345.318 194.822 345.159 199.199C344.961 204.608 352.922 210.373 359.732 210.81C372.19 211.616 387.199 195.046 386.498 178.608C385.731 160.716 366.503 146.513 360.975 148.92C360.129 149.303 358.846 150.414 358.529 151.882Z" fill="url(#paint8_linear_2_462)"/>
<path d="M352.988 337.182L352.538 341.718L354.654 341.335L356.069 337.076L352.988 337.182Z" fill="url(#paint9_linear_2_462)"/>
<path d="M365.855 253.419C365.63 261.472 364.625 268.362 363.448 273.983C362.165 280.039 361.425 281.084 361.028 285.263C360.155 294.361 363.091 295.671 363.633 305.959C364.229 317.319 361.213 326.351 360.023 329.803C358.978 332.818 357.894 335.251 357.074 336.931C356.029 337.843 354.442 337.486 352.763 337.142C352.141 326.841 351.374 317.134 350.753 306.832C348.756 291.333 346.759 275.821 344.762 260.322C351.784 258.021 358.82 255.72 365.855 253.419Z" fill="url(#paint10_linear_2_462)"/>
<path opacity="0.3" d="M352.75 337.156C352.128 326.854 351.361 317.147 350.74 306.845C348.743 291.346 346.746 275.834 344.749 260.335C351.784 258.034 358.82 255.733 365.855 253.432C365.842 253.961 365.815 254.477 365.789 255.006C355.924 263.575 353.993 270.359 354.085 274.988C354.204 280.608 357.273 283.385 356.677 291.531C356.254 297.35 354.495 298.382 354.495 303.632C354.495 310.403 357.405 314.198 358.82 318.112C360.182 321.895 360.671 327.237 358.026 334.854C357.682 335.635 357.352 336.349 357.061 336.944C356.029 337.843 354.429 337.486 352.75 337.156Z" fill="url(#paint11_linear_2_462)"/>
<path d="M353.782 343.265C354.787 342.022 355.699 342.115 355.871 341.281C356.003 340.62 355.58 339.827 354.972 339.536C354.112 339.126 353.094 339.814 352.856 339.972C351.295 341.043 351.758 342.644 350.277 343.371C349.973 343.516 349.51 343.675 349.008 344.164C348.796 344.363 348.28 344.879 348.413 345.209C348.558 345.606 349.51 345.566 350.409 345.54C351.481 345.5 352.023 345.487 352.539 345.143C353.239 344.68 353.015 344.217 353.782 343.265Z" fill="url(#paint12_linear_2_462)"/>
<path d="M351.666 304.478L355.606 306.025L356.757 304.214L353.676 302.137L351.666 304.478Z" fill="url(#paint13_linear_2_462)"/>
<path d="M357.682 306.991C357.444 305.417 358.145 304.809 357.629 304.108C357.233 303.566 356.36 303.328 355.725 303.579C354.839 303.936 354.654 305.153 354.614 305.43C354.337 307.308 355.831 308.049 355.368 309.636C355.276 309.953 355.064 310.416 355.09 311.104C355.104 311.395 355.117 312.122 355.461 312.254C355.857 312.413 356.466 311.699 357.048 311.011C357.748 310.191 358.106 309.781 358.198 309.186C358.357 308.34 357.868 308.194 357.682 306.991Z" fill="url(#paint14_linear_2_462)"/>
<path d="M334.58 246.251C327.227 261.248 324.728 273.758 323.775 281.931C323.167 287.181 323.233 290.434 324.741 293.7C330.163 305.377 349.06 306.158 351.93 306.237C352.869 304.306 353.821 302.362 354.76 300.431C353.028 297.205 349.986 292.722 344.789 289.455C340.795 286.943 339.235 287.485 338.23 285.792C334.223 279.021 355.831 264.342 352.605 254.569C351.494 251.197 347.196 247.759 334.58 246.251Z" fill="url(#paint15_linear_2_462)"/>
<path d="M350.515 192.335C342.567 193.698 336.511 195.126 333.813 199.291C330.956 203.695 335.492 207.001 336.735 216.642C338.626 231.413 330.136 236.928 332.57 251.805C332.966 254.239 333.575 256.394 334.223 258.233C335.373 261.472 337.595 264.21 340.504 266.035C342.686 267.41 345.344 268.786 348.465 269.883C356.532 272.7 360.499 271.06 371.343 271.682C389.077 272.7 391.735 277.844 399.749 274.67C407.843 271.47 413.714 262.835 411.995 259.145C410.964 256.937 407.724 258.312 403.069 255.601C397.065 252.096 398.083 247.322 393.217 243.236C386.221 237.351 379.503 243.289 373.526 238.184C367.482 233.014 366.755 220.424 369.32 212.926C371 208.033 371.026 202.717 372.282 197.691C372.388 197.268 372.468 196.607 372.203 195.853C371.211 192.97 365.935 192.415 361.941 192.031C355.845 191.449 351.163 192.216 350.515 192.335Z" fill="url(#paint16_linear_2_462)"/>
<path d="M398.823 269.076C396.364 267.437 397.699 262.795 394.063 260.335C390.691 258.047 388.059 261.036 383.073 259.515C376.686 257.558 377.03 251.409 370.907 249.451C366.503 248.036 365.181 250.853 358.833 250.972C352.499 251.091 344.194 248.486 338.943 241.768C336.709 238.912 335.465 235.87 334.778 233.053C333.085 238.528 331.247 243.818 332.556 251.792C333.085 255.019 333.984 257.783 334.87 259.952C335.69 261.975 337.092 263.721 338.877 264.964C341.324 266.67 344.511 268.495 348.439 269.87C356.505 272.687 360.473 271.047 371.317 271.668C389.051 272.687 391.709 277.831 399.723 274.657C404.893 272.607 409.152 268.349 411.109 264.567C404.126 269.698 400.609 270.267 398.823 269.076Z" fill="url(#paint17_linear_2_462)"/>
<path d="M345.926 178.582C345.926 178.582 343.731 182.695 343.599 185.578C343.467 188.461 346.72 188.249 346.72 188.249L346.601 190.074C346.495 191.634 345.49 192.97 344.022 193.512L342.739 193.988C342.739 193.988 351.123 195.787 355.712 192.547L354.39 192.415C352.525 192.23 351.044 190.762 350.846 188.884L350.766 188.104C350.753 188.104 352.208 179.111 345.926 178.582Z" fill="url(#paint18_linear_2_462)"/>
<path d="M325.27 159.235C326.513 161.589 324.45 164.591 323.127 167.341C320.469 172.856 318.618 181.862 322.043 188.143C323.921 191.582 327.69 194.795 331.961 195.602C336.55 196.475 338.415 193.949 343.281 195.152C343.638 195.245 349.801 196.858 351.163 201.024C352.842 206.168 346.786 213.904 340.359 216.205C328.602 220.411 309.612 208.628 305.75 192.64C301.545 175.223 316.118 156.273 322.096 157.066C323.035 157.198 324.569 157.912 325.27 159.235Z" fill="url(#paint19_linear_2_462)"/>
<path d="M347.235 182.668C347.672 182.629 348.029 182.087 348.32 182.245C348.637 182.417 348.598 183.224 348.32 183.779C348.095 184.242 347.738 184.507 347.54 184.626C347.87 185.088 348.307 185.803 348.479 186.755C348.875 188.844 347.764 190.51 347.302 191.502C345.225 195.919 348.452 202.915 351.996 206.446C354.879 209.316 356.228 208.165 357.947 210.506C361.293 215.068 356.678 220.08 358.41 226.23C361.042 235.566 375.787 238.343 376.395 238.449C376.633 238.489 376.792 238.515 377.043 238.555C383.655 239.599 393.679 241.199 400.741 235.764C406.018 231.704 408.451 224.629 408.041 218.401C407.935 216.761 407.446 210.545 402.368 205.467C401.561 204.661 396.8 199.9 390.373 199.847C386.962 199.82 386.274 201.011 383.669 200.27C380.098 199.252 377.903 196.012 376.541 194.002C374.028 190.299 375.046 189.505 373.248 187.694C369.717 184.123 365.564 186.927 361.782 183.779C358.066 180.672 360.301 176.466 356.717 173.782C353.015 171.018 345.926 171.983 344.405 175.276C343.136 178.119 345.9 182.774 347.235 182.668Z" fill="url(#paint20_linear_2_462)"/>
<defs>
<linearGradient id="paint0_linear_2_462" x1="96.8049" y1="396.996" x2="319.507" y2="-28.7314" gradientUnits="userSpaceOnUse">
<stop stop-color="#444B8C"/>
<stop offset="0.9964" stop-color="#26264F"/>
</linearGradient>
<linearGradient id="paint1_linear_2_462" x1="62.4126" y1="198.434" x2="357.705" y2="198.434" gradientUnits="userSpaceOnUse">
<stop stop-color="#AA80F9"/>
<stop offset="0.0001" stop-color="#2D78D0"/>
<stop offset="0.9964" stop-color="#064895"/>
</linearGradient>
<linearGradient id="paint2_linear_2_462" x1="71.2338" y1="198.44" x2="348.872" y2="198.44" gradientUnits="userSpaceOnUse">
<stop stop-color="#AA80F9"/>
<stop offset="0.0001" stop-color="#2D78D0"/>
<stop offset="0.9964" stop-color="#064895"/>
</linearGradient>
<linearGradient id="paint3_linear_2_462" x1="62.4139" y1="201.956" x2="296.664" y2="201.956" gradientUnits="userSpaceOnUse">
<stop stop-color="#AA80F9"/>
<stop offset="0.0001" stop-color="#2D78D0"/>
<stop offset="0.9964" stop-color="#064895"/>
</linearGradient>
<linearGradient id="paint4_linear_2_462" x1="89.2978" y1="214.236" x2="239.693" y2="8.11905" gradientUnits="userSpaceOnUse">
<stop stop-color="#FCB148"/>
<stop offset="0.0520724" stop-color="#FDBA46"/>
<stop offset="0.1424" stop-color="#FFC244"/>
<stop offset="0.3183" stop-color="#FFC444"/>
<stop offset="0.4849" stop-color="#FDB946"/>
<stop offset="0.7754" stop-color="#F99C4D"/>
<stop offset="0.8658" stop-color="#F8924F"/>
<stop offset="1" stop-color="#F8924F"/>
</linearGradient>
<linearGradient id="paint5_linear_2_462" x1="211.521" y1="115.136" x2="267.117" y2="38.942" gradientUnits="userSpaceOnUse">
<stop stop-color="#FCB148"/>
<stop offset="0.0520724" stop-color="#FDBA46"/>
<stop offset="0.1424" stop-color="#FFC244"/>
<stop offset="0.3183" stop-color="#FFC444"/>
<stop offset="0.4849" stop-color="#FDB946"/>
<stop offset="0.7754" stop-color="#F99C4D"/>
<stop offset="0.8658" stop-color="#F8924F"/>
<stop offset="1" stop-color="#F8924F"/>
</linearGradient>
<linearGradient id="paint6_linear_2_462" x1="324.885" y1="153.653" x2="326.942" y2="165.648" gradientUnits="userSpaceOnUse">
<stop stop-color="#FFC444"/>
<stop offset="0.9964" stop-color="#F36F56"/>
</linearGradient>
<linearGradient id="paint7_linear_2_462" x1="357.283" y1="147.572" x2="360.07" y2="159.418" gradientUnits="userSpaceOnUse">
<stop stop-color="#FFC444"/>
<stop offset="0.9964" stop-color="#F36F56"/>
</linearGradient>
<linearGradient id="paint8_linear_2_462" x1="356.923" y1="213.131" x2="398.866" y2="187.961" gradientUnits="userSpaceOnUse">
<stop stop-color="#FCB148"/>
<stop offset="0.0520724" stop-color="#FDBA46"/>
<stop offset="0.1424" stop-color="#FFC244"/>
<stop offset="0.3183" stop-color="#FFC444"/>
<stop offset="0.4849" stop-color="#FDB946"/>
<stop offset="0.7754" stop-color="#F99C4D"/>
<stop offset="0.8658" stop-color="#F8924F"/>
<stop offset="1" stop-color="#F8924F"/>
</linearGradient>
<linearGradient id="paint9_linear_2_462" x1="354.588" y1="347.303" x2="353.029" y2="303.034" gradientUnits="userSpaceOnUse">
<stop stop-color="#FFC444"/>
<stop offset="0.9964" stop-color="#F36F56"/>
</linearGradient>
<linearGradient id="paint10_linear_2_462" x1="355.724" y1="262.103" x2="362.183" y2="343.044" gradientUnits="userSpaceOnUse">
<stop stop-color="#311944"/>
<stop offset="1" stop-color="#893976"/>
</linearGradient>
<linearGradient id="paint11_linear_2_462" x1="355.724" y1="262.103" x2="362.183" y2="343.044" gradientUnits="userSpaceOnUse">
<stop stop-color="#311944"/>
<stop offset="1" stop-color="#893976"/>
</linearGradient>
<linearGradient id="paint12_linear_2_462" x1="350.937" y1="347.66" x2="357.483" y2="322.978" gradientUnits="userSpaceOnUse">
<stop stop-color="#FF9085"/>
<stop offset="1" stop-color="#FB6FBB"/>
</linearGradient>
<linearGradient id="paint13_linear_2_462" x1="359.64" y1="309.019" x2="329.878" y2="283.418" gradientUnits="userSpaceOnUse">
<stop stop-color="#FFC444"/>
<stop offset="0.9964" stop-color="#F36F56"/>
</linearGradient>
<linearGradient id="paint14_linear_2_462" x1="358.985" y1="312.056" x2="345.292" y2="290.502" gradientUnits="userSpaceOnUse">
<stop stop-color="#FF9085"/>
<stop offset="1" stop-color="#FB6FBB"/>
</linearGradient>
<linearGradient id="paint15_linear_2_462" x1="385.891" y1="278.186" x2="310.283" y2="274.749" gradientUnits="userSpaceOnUse">
<stop stop-color="#311944"/>
<stop offset="1" stop-color="#893976"/>
</linearGradient>
<linearGradient id="paint16_linear_2_462" x1="354.934" y1="278.784" x2="418.346" y2="224.108" gradientUnits="userSpaceOnUse">
<stop stop-color="#FCB148"/>
<stop offset="0.0520724" stop-color="#FDBA46"/>
<stop offset="0.1424" stop-color="#FFC244"/>
<stop offset="0.3183" stop-color="#FFC444"/>
<stop offset="0.4849" stop-color="#FDB946"/>
<stop offset="0.7754" stop-color="#F99C4D"/>
<stop offset="0.8658" stop-color="#F8924F"/>
<stop offset="1" stop-color="#F8924F"/>
</linearGradient>
<linearGradient id="paint17_linear_2_462" x1="354.585" y1="277.25" x2="383.29" y2="229.258" gradientUnits="userSpaceOnUse">
<stop stop-color="#FCB148"/>
<stop offset="0.0520724" stop-color="#FDBA46"/>
<stop offset="0.1424" stop-color="#FFC244"/>
<stop offset="0.3183" stop-color="#FFC444"/>
<stop offset="0.4849" stop-color="#FDB946"/>
<stop offset="0.7754" stop-color="#F99C4D"/>
<stop offset="0.8658" stop-color="#F8924F"/>
<stop offset="1" stop-color="#F8924F"/>
</linearGradient>
<linearGradient id="paint18_linear_2_462" x1="344.195" y1="184.369" x2="353.126" y2="197.739" gradientUnits="userSpaceOnUse">
<stop stop-color="#FFC444"/>
<stop offset="0.9964" stop-color="#F36F56"/>
</linearGradient>
<linearGradient id="paint19_linear_2_462" x1="318.213" y1="219.277" x2="361.279" y2="189.213" gradientUnits="userSpaceOnUse">
<stop stop-color="#FCB148"/>
<stop offset="0.0520724" stop-color="#FDBA46"/>
<stop offset="0.1424" stop-color="#FFC244"/>
<stop offset="0.3183" stop-color="#FFC444"/>
<stop offset="0.4849" stop-color="#FDB946"/>
<stop offset="0.7754" stop-color="#F99C4D"/>
<stop offset="0.8658" stop-color="#F8924F"/>
<stop offset="1" stop-color="#F8924F"/>
</linearGradient>
<linearGradient id="paint20_linear_2_462" x1="393.14" y1="239.966" x2="356.409" y2="168.179" gradientUnits="userSpaceOnUse">
<stop stop-color="#444B8C"/>
<stop offset="0.9964" stop-color="#26264F"/>
</linearGradient>
</defs>
</svg>
