<svg width="335" height="504" viewBox="0 0 335 504" fill="none" xmlns="http://www.w3.org/2000/svg">
<mask id="mask0_2_2561" style="mask-type:alpha" maskUnits="userSpaceOnUse" x="0" y="0" width="335" height="504">
<rect width="335" height="504" rx="31" fill="#C4C4C4"/>
</mask>
<g mask="url(#mask0_2_2561)">
<mask id="mask1_2_2561" style="mask-type:alpha" maskUnits="userSpaceOnUse" x="0" y="0" width="335" height="504">
<rect width="335" height="504" rx="31" fill="white"/>
</mask>
<g mask="url(#mask1_2_2561)">
<circle cx="165.5" cy="407.5" r="244.5" fill="white"/>
<path d="M260.18 305.493C260.18 356.13 219.148 399.05 166.805 401.44C112.436 403.926 66.7969 362.053 66.7969 307.823C66.7969 253.592 112.428 210.629 166.797 211.798C219.148 212.924 260.18 254.857 260.18 305.493Z" fill="url(#paint0_linear_2_2561)"/>
<path opacity="0.3" d="M266.26 305.493C266.26 356.129 225.228 399.05 172.885 401.44C118.516 403.925 72.8765 362.053 72.8765 307.822C72.8765 253.592 118.516 210.62 172.885 211.798C225.228 212.923 266.26 254.856 266.26 305.493Z" fill="url(#paint1_linear_2_2561)"/>
<path opacity="0.3" d="M260.475 305.562C260.475 353.271 221.772 393.637 172.495 395.793C121.426 398.028 78.6528 358.641 78.6528 307.762C78.6528 256.883 121.426 216.457 172.495 217.461C221.772 218.423 260.475 257.853 260.475 305.562Z" fill="url(#paint2_linear_2_2561)"/>
<path d="M152.628 310.135C156.595 304.991 158.578 297.3 158.578 287.055C158.578 277.26 156.56 269.717 152.533 264.443C148.506 259.169 142.721 256.528 135.195 256.528C119.832 256.528 112.15 266.704 112.15 287.055C112.15 297.032 114.151 304.662 118.161 309.936C122.17 315.21 127.851 317.851 135.195 317.851C142.851 317.851 148.662 315.279 152.628 310.135ZM135.325 304.021C133.1 304.021 131.48 302.626 130.484 299.846C129.48 297.066 128.977 292.84 128.977 287.185C128.977 281.53 129.48 277.33 130.484 274.593C131.489 271.856 133.1 270.488 135.325 270.488C139.603 270.488 141.742 276.057 141.742 287.185C141.742 298.409 139.603 304.021 135.325 304.021Z" fill="white"/>
<path d="M220.94 303.449C216.913 298.175 211.128 295.533 203.603 295.533C188.239 295.533 180.558 305.709 180.558 326.061C180.558 335.994 182.558 343.598 186.568 348.872C190.578 354.146 196.259 356.787 203.603 356.787C211.258 356.787 217.078 354.215 221.036 349.071C225.002 343.927 226.985 336.254 226.985 326.061C226.985 316.266 224.967 308.732 220.94 303.449ZM203.732 343.035C201.507 343.035 199.887 341.641 198.891 338.861C197.887 336.081 197.384 331.854 197.384 326.199C197.384 320.544 197.887 316.344 198.891 313.607C199.896 310.871 201.507 309.502 203.732 309.502C208.011 309.502 210.15 315.071 210.15 326.199C210.15 337.423 208.011 343.035 203.732 343.035Z" fill="white"/>
<path d="M202.762 258.944C202.381 258.295 201.68 257.87 200.935 257.87H191.028C189.469 257.87 188.04 258.745 187.287 260.105L136.078 352.432C135.715 353.09 135.723 353.912 136.104 354.562C136.485 355.211 137.187 355.627 137.932 355.627H149.103C149.874 355.627 150.584 355.194 150.965 354.519L202.788 261.075C203.152 260.416 203.143 259.594 202.762 258.944Z" fill="white"/>
<g opacity="0.3">
<path opacity="0.3" d="M130.744 265.915C127.531 255.436 127.679 239.519 143.354 216.006C102.91 227.654 72.8765 264.331 72.8765 308.203C72.8765 362.425 118.516 404.306 172.885 401.821C192.934 400.903 211.285 394.061 226.284 383.201C225.817 368.739 222.673 352.908 213.822 338.306C189.487 298.158 140.833 298.79 130.744 265.915Z" fill="url(#paint3_linear_2_2561)"/>
</g>
<path d="M237.56 254.25V254.544C234.84 251.011 229.973 246.101 227.055 243.26C227.003 243.13 226.908 243.009 226.856 242.879C225.228 239.164 223.037 235.145 220.17 231.127C217.321 227.1 213.709 223.142 209.492 219.488C208.99 219.011 208.401 218.596 207.864 218.145C207.587 217.929 207.31 217.704 207.032 217.487L206.625 217.158C206.478 217.046 206.331 216.95 206.192 216.838C205.612 216.422 205.032 215.998 204.452 215.573L204.019 215.253L203.56 214.958C203.257 214.759 202.953 214.56 202.65 214.361C201.455 213.538 200.165 212.819 198.909 212.066C198.268 211.702 197.593 211.364 196.943 211.018C196.623 210.845 196.294 210.663 195.965 210.498C195.627 210.342 195.289 210.178 194.951 210.022C189.565 207.433 183.684 205.553 177.657 204.523C176.903 204.402 176.15 204.289 175.388 204.168C174.634 204.064 173.864 204.003 173.11 203.917L171.967 203.795L170.824 203.735L169.681 203.665C169.3 203.648 168.927 203.613 168.538 203.613C167.775 203.613 167.013 203.605 166.251 203.596C166.061 203.596 165.862 203.587 165.688 203.596L165.177 203.622L164.164 203.674L163.151 203.726C163.064 203.726 163.004 203.726 162.882 203.735L161.843 203.813L160.458 203.908L159.418 203.986L159.245 203.995H159.184C159.184 203.995 158.821 203.995 159.427 204.003L157.184 204.315C156.812 204.367 156.439 204.402 156.075 204.479L154.976 204.687L153.876 204.895L153.33 204.999C153.148 205.034 152.966 205.086 152.793 205.129C152.074 205.302 151.356 205.475 150.645 205.649C150.282 205.727 149.935 205.839 149.589 205.943L148.541 206.255L147.493 206.558L146.471 206.913C145.787 207.156 145.103 207.372 144.445 207.632C143.787 207.9 143.12 208.16 142.462 208.437C137.239 210.646 132.546 213.503 128.553 216.768L127.8 217.366L127.09 218.007C126.613 218.431 126.128 218.83 125.678 219.263C125.661 219.28 125.643 219.297 125.626 219.314C124.751 220.181 123.859 220.995 123.071 221.887C122.863 222.103 122.656 222.328 122.456 222.545L122.145 222.874L121.859 223.22C121.478 223.671 121.097 224.13 120.716 224.571C120.62 224.684 120.525 224.788 120.43 224.9L120.17 225.247C119.988 225.481 119.815 225.714 119.642 225.94C119.304 226.407 118.932 226.832 118.62 227.317C116.03 231.014 114.047 234.712 112.705 238.237C111.354 241.753 110.548 245.053 110.081 247.971C110.029 248.335 109.977 248.699 109.934 249.054C109.89 249.409 109.821 249.747 109.804 250.093C109.743 250.777 109.691 251.435 109.631 252.059C109.596 252.691 109.596 253.306 109.561 253.878C109.553 254.163 109.527 254.449 109.527 254.718C109.535 254.995 109.544 255.263 109.553 255.523C109.561 256.043 109.57 256.536 109.579 256.995C109.579 257.125 109.596 257.194 109.605 257.281C109.613 257.368 109.631 257.454 109.639 257.532C109.656 257.697 109.674 257.671 109.691 257.818C109.7 257.948 109.717 258 109.726 258H135.282L119.754 274.394L83.6324 312.014L32 258.026H59.1499C59.1845 258.026 59.2278 257.584 59.2711 257.238C59.3751 256.484 59.4876 255.757 59.6089 254.865C59.6782 254.423 59.7388 254.007 59.8167 253.531C59.8514 253.297 59.8947 253.081 59.9293 252.83C59.964 252.587 59.9986 252.327 60.0506 252.12C60.2411 251.228 60.4403 250.284 60.6481 249.279C60.7607 248.777 60.8733 248.266 60.9859 247.746C61.1071 247.218 61.2543 246.69 61.4016 246.144C61.696 245.053 61.9818 243.91 62.3369 242.732C62.7179 241.563 63.1163 240.342 63.5233 239.077C63.7225 238.445 63.9823 237.813 64.2248 237.172C64.4673 236.54 64.7184 235.882 64.9782 235.215C67.0827 229.949 69.9665 224.208 73.8117 218.448C77.6395 212.681 82.5239 206.93 88.3176 201.604C89.0191 200.92 89.7985 200.297 90.5433 199.638C90.9244 199.318 91.2968 198.989 91.6778 198.668L92.258 198.183L92.8469 197.716C93.6437 197.101 94.4491 196.477 95.2458 195.845L95.8521 195.378L96.4842 194.936C96.9086 194.633 97.3243 194.338 97.7486 194.044C99.4027 192.831 101.187 191.749 102.962 190.623C103.854 190.077 104.781 189.567 105.699 189.038C106.149 188.778 106.617 188.519 107.076 188.259C107.552 188.016 108.02 187.774 108.496 187.523C116.048 183.582 124.396 180.595 133.065 178.802C134.148 178.603 135.239 178.395 136.33 178.187C137.421 177.996 138.521 177.858 139.621 177.702L141.266 177.477L142.921 177.321L144.575 177.174C145.129 177.122 145.674 177.07 146.229 177.044C147.329 176.992 148.437 176.871 149.546 176.819C149.814 176.81 150.1 176.706 150.368 176.706H151.2L152.854 176.793L154.508 176.845C155.062 176.845 155.608 176.914 156.162 176.94L159.444 177.13C160.189 177.139 159.704 177.148 159.895 177.156L159.981 177.165L160.154 177.182L160.492 177.226L161.185 177.304L162.562 177.468L163.255 177.546L163.593 177.589L164.017 177.641L165.758 177.884L167.498 178.135L168.364 178.265C168.65 178.308 168.901 178.369 169.17 178.421C170.226 178.637 171.292 178.854 172.348 179.062C172.876 179.166 173.396 179.304 173.916 179.434L175.483 179.832L177.033 180.231L178.566 180.69C179.579 181.002 180.601 181.296 181.606 181.642C182.602 181.997 183.598 182.353 184.585 182.708C192.44 185.678 199.602 189.644 205.768 194.26C206.158 194.546 206.539 194.832 206.928 195.118C207.301 195.412 207.673 195.715 208.046 196.018C208.782 196.616 209.527 197.196 210.237 197.811C211.64 199.067 213.034 200.262 214.316 201.57C214.645 201.89 214.956 202.21 215.286 202.522L215.762 202.999L216.221 203.492C216.827 204.15 217.433 204.809 218.022 205.449L218.473 205.934L218.897 206.437C219.174 206.774 219.46 207.104 219.728 207.441C220.283 208.108 220.854 208.749 221.356 209.433C224.171 213.053 226.553 216.716 228.527 220.336C229.488 222.094 230.346 223.844 231.108 225.567C233.446 230.841 234.953 235.856 235.897 240.324C236.001 240.887 236.114 241.433 236.217 241.978C236.321 242.515 236.443 243.044 236.503 243.572C236.65 244.628 236.798 245.633 236.936 246.603C237.049 247.582 237.118 248.517 237.196 249.409C237.231 249.851 237.274 250.284 237.309 250.717C237.326 251.141 237.421 251.548 237.439 251.955C237.421 252.769 237.56 253.54 237.56 254.25Z" fill="url(#paint4_linear_2_2561)"/>
<path opacity="0.4" d="M237.56 254.25V254.544C234.84 251.011 229.973 246.101 227.055 243.26C227.003 243.13 226.908 243.009 226.856 242.879C225.228 239.164 223.036 235.145 220.17 231.127C217.321 227.1 213.709 223.142 209.492 219.488C208.99 219.011 208.401 218.596 207.864 218.145C207.587 217.929 207.309 217.704 207.032 217.487L206.625 217.158C206.478 217.046 206.331 216.95 206.192 216.838C205.612 216.422 205.032 215.998 204.452 215.573L204.019 215.253L203.56 214.958C203.256 214.759 202.953 214.56 202.65 214.361C201.455 213.538 200.165 212.819 198.909 212.066C198.268 211.702 197.593 211.364 196.943 211.018C196.623 210.845 196.294 210.663 195.965 210.498C195.627 210.343 195.289 210.178 194.951 210.022C189.565 207.433 183.684 205.553 177.657 204.523C176.903 204.402 176.15 204.289 175.388 204.168C174.634 204.064 173.864 204.003 173.11 203.917L171.967 203.795L170.824 203.735L169.681 203.665C169.3 203.648 168.927 203.614 168.538 203.614C167.775 203.614 167.013 203.605 166.251 203.596C166.061 203.596 165.862 203.588 165.688 203.596L165.177 203.622L164.164 203.674L163.151 203.726C163.064 203.726 163.004 203.726 162.882 203.735L161.843 203.813L160.458 203.908L159.418 203.986L159.245 203.995H159.184C159.184 203.995 158.821 203.995 159.427 204.003L157.184 204.315C156.812 204.367 156.439 204.402 156.075 204.48L154.976 204.687L153.876 204.895L153.33 204.999C153.148 205.034 152.966 205.086 152.793 205.129C152.074 205.302 151.356 205.475 150.645 205.649C150.282 205.727 149.935 205.839 149.589 205.943L148.541 206.255L147.493 206.558L146.471 206.913C145.787 207.156 145.103 207.372 144.445 207.632C143.787 207.9 143.12 208.16 142.462 208.437C137.239 210.646 132.546 213.504 128.553 216.768L127.8 217.366L127.09 218.007C126.613 218.431 126.128 218.83 125.678 219.263C125.661 219.28 125.643 219.297 125.626 219.315C137.101 205.787 155.677 197.006 176.652 197.006C198.138 197.006 217.122 206.229 228.51 220.31C229.471 222.069 230.328 223.818 231.091 225.541C233.429 230.815 234.936 235.83 235.88 240.298C235.984 240.861 236.096 241.407 236.2 241.952C236.304 242.489 236.425 243.018 236.486 243.546C236.633 244.602 236.78 245.607 236.919 246.577C237.031 247.556 237.101 248.491 237.179 249.383C237.213 249.825 237.257 250.258 237.291 250.691C237.309 251.115 237.404 251.522 237.421 251.929C237.421 252.769 237.56 253.54 237.56 254.25Z" fill="url(#paint5_linear_2_2561)"/>
<path d="M242.385 280.447C242.836 280.083 243.433 279.495 243.771 278.62C244.135 277.676 243.883 277.26 244.342 276.671C244.923 275.926 246.118 275.606 246.941 275.97C247.114 276.048 247.322 276.152 247.452 276.377C247.815 276.992 247.01 278.057 246.36 278.62C245.875 279.044 245.676 279.018 245.157 279.373C244.654 279.728 244.022 280.335 243.511 281.46L242.385 280.447Z" fill="url(#paint6_linear_2_2561)"/>
<path d="M269.371 275.294C268.816 275.138 268.037 274.827 267.379 274.151C266.677 273.424 266.747 272.939 266.097 272.575C265.266 272.116 264.045 272.289 263.438 272.939C263.308 273.077 263.161 273.259 263.127 273.519C263.031 274.229 264.192 274.887 265.006 275.164C265.621 275.364 265.794 275.26 266.409 275.398C267.006 275.528 267.829 275.84 268.73 276.68L269.371 275.294Z" fill="url(#paint7_linear_2_2561)"/>
<path d="M266.79 276.169C266.435 277.875 268.279 279.39 269.604 280.88C272.272 283.868 275.069 289.203 274.038 293.784C273.475 296.287 271.683 298.989 269.145 300.27C266.417 301.647 264.78 300.392 261.94 302.037C261.732 302.158 258.138 304.289 258.034 307.155C257.904 310.697 263.118 314.473 267.578 314.759C275.736 315.287 285.565 304.436 285.106 293.671C284.604 281.954 272.012 272.653 268.392 274.229C267.838 274.48 266.997 275.208 266.79 276.169Z" fill="url(#paint8_linear_2_2561)"/>
<path d="M263.161 397.516L262.867 400.487L264.252 400.236L265.179 397.447L263.161 397.516Z" fill="url(#paint9_linear_2_2561)"/>
<path d="M271.588 342.662C271.44 347.936 270.782 352.448 270.011 356.129C269.171 360.095 268.686 360.779 268.427 363.516C267.855 369.474 269.778 370.332 270.133 377.069C270.522 384.508 268.548 390.423 267.768 392.684C267.084 394.658 266.374 396.252 265.837 397.352C265.153 397.949 264.114 397.715 263.014 397.49C262.607 390.744 262.105 384.387 261.698 377.641C260.39 367.491 259.082 357.333 257.774 347.183C262.373 345.676 266.98 344.169 271.588 342.662Z" fill="url(#paint10_linear_2_2561)"/>
<path opacity="0.3" d="M263.006 397.499C262.599 390.753 262.096 384.396 261.689 377.65C260.382 367.5 259.074 357.341 257.766 347.192C262.373 345.685 266.981 344.178 271.588 342.671C271.579 343.017 271.562 343.355 271.545 343.701C265.084 349.313 263.82 353.756 263.88 356.787C263.958 360.468 265.967 362.286 265.578 367.621C265.301 371.432 264.149 372.107 264.149 375.545C264.149 379.979 266.054 382.465 266.981 385.028C267.873 387.505 268.193 391.004 266.461 395.992C266.236 396.503 266.019 396.971 265.829 397.36C265.153 397.949 264.105 397.715 263.006 397.499Z" fill="url(#paint11_linear_2_2561)"/>
<path d="M263.681 401.5C264.339 400.686 264.937 400.747 265.049 400.201C265.136 399.768 264.859 399.248 264.46 399.058C263.897 398.789 263.231 399.24 263.075 399.344C262.053 400.045 262.356 401.093 261.386 401.569C261.187 401.665 260.884 401.768 260.555 402.089C260.416 402.219 260.078 402.557 260.165 402.773C260.26 403.033 260.884 403.007 261.473 402.99C262.174 402.964 262.529 402.955 262.867 402.73C263.326 402.427 263.179 402.124 263.681 401.5Z" fill="url(#paint12_linear_2_2561)"/>
<path d="M262.295 376.1L264.876 377.113L265.63 375.927L263.612 374.567L262.295 376.1Z" fill="url(#paint13_linear_2_2561)"/>
<path d="M266.236 377.745C266.08 376.714 266.539 376.316 266.201 375.857C265.941 375.502 265.37 375.346 264.954 375.511C264.374 375.744 264.252 376.541 264.226 376.723C264.044 377.953 265.023 378.438 264.72 379.477C264.659 379.685 264.521 379.988 264.538 380.438C264.547 380.629 264.555 381.105 264.781 381.192C265.04 381.296 265.439 380.828 265.82 380.378C266.279 379.841 266.513 379.572 266.573 379.183C266.677 378.628 266.357 378.533 266.236 377.745Z" fill="url(#paint14_linear_2_2561)"/>
<path d="M251.106 337.969C246.291 347.789 244.654 355.982 244.031 361.334C243.632 364.772 243.676 366.902 244.663 369.041C248.214 376.688 260.589 377.199 262.468 377.251C263.083 375.987 263.707 374.714 264.322 373.45C263.187 371.336 261.195 368.401 257.792 366.262C255.177 364.616 254.155 364.971 253.496 363.863C250.872 359.429 265.023 349.816 262.91 343.416C262.183 341.207 259.368 338.956 251.106 337.969Z" fill="url(#paint15_linear_2_2561)"/>
<path d="M261.542 302.66C256.337 303.552 252.37 304.488 250.604 307.216C248.733 310.1 251.703 312.265 252.518 318.578C253.756 328.252 248.196 331.863 249.79 341.606C250.049 343.199 250.448 344.611 250.872 345.815C251.626 347.936 253.08 349.729 254.986 350.924C256.415 351.825 258.155 352.725 260.199 353.444C265.482 355.289 268.08 354.215 275.181 354.622C286.795 355.289 288.536 358.658 293.784 356.579C299.084 354.483 302.929 348.828 301.803 346.412C301.128 344.966 299.006 345.866 295.957 344.091C292.026 341.796 292.692 338.67 289.505 335.994C284.924 332.14 280.525 336.028 276.61 332.686C272.653 329.299 272.176 321.055 273.856 316.144C274.956 312.94 274.974 309.459 275.796 306.168C275.866 305.891 275.918 305.458 275.744 304.964C275.095 303.076 271.639 302.712 269.024 302.461C265.032 302.08 261.966 302.583 261.542 302.66Z" fill="url(#paint16_linear_2_2561)"/>
<path d="M293.178 352.916C291.567 351.842 292.442 348.802 290.06 347.192C287.852 345.693 286.128 347.651 282.863 346.655C278.68 345.373 278.906 341.346 274.896 340.064C272.012 339.138 271.146 340.982 266.989 341.06C262.841 341.138 257.402 339.432 253.964 335.033C252.501 333.162 251.686 331.17 251.236 329.325C250.128 332.911 248.924 336.375 249.781 341.597C250.128 343.71 250.717 345.52 251.297 346.94C251.834 348.265 252.752 349.409 253.921 350.223C255.523 351.34 257.61 352.535 260.182 353.436C265.465 355.28 268.063 354.206 275.164 354.613C286.778 355.28 288.519 358.649 293.767 356.571C297.153 355.228 299.941 352.44 301.223 349.963C296.651 353.323 294.347 353.695 293.178 352.916Z" fill="url(#paint17_linear_2_2561)"/>
<path d="M258.537 293.654C258.537 293.654 257.099 296.347 257.013 298.235C256.926 300.123 259.056 299.985 259.056 299.985L258.978 301.18C258.909 302.202 258.251 303.076 257.29 303.431L256.45 303.743C256.45 303.743 261.94 304.921 264.945 302.799L264.079 302.713C262.858 302.591 261.888 301.63 261.758 300.4L261.706 299.889C261.698 299.889 262.65 294 258.537 293.654Z" fill="url(#paint18_linear_2_2561)"/>
<path d="M245.009 280.984C245.823 282.525 244.472 284.491 243.606 286.293C241.866 289.904 240.653 295.802 242.896 299.915C244.126 302.167 246.594 304.271 249.391 304.8C252.397 305.371 253.618 303.717 256.805 304.505C257.038 304.566 261.074 305.622 261.966 308.35C263.066 311.719 259.1 316.785 254.891 318.292C247.192 321.046 234.756 313.33 232.227 302.86C229.473 291.454 239.016 279.044 242.931 279.564C243.546 279.65 244.55 280.118 245.009 280.984Z" fill="url(#paint19_linear_2_2561)"/>
<path d="M259.394 296.33C259.68 296.304 259.914 295.949 260.104 296.053C260.312 296.166 260.286 296.694 260.104 297.058C259.957 297.361 259.723 297.534 259.593 297.612C259.81 297.915 260.095 298.383 260.208 299.006C260.468 300.375 259.74 301.466 259.437 302.115C258.078 305.008 260.191 309.589 262.512 311.901C264.4 313.781 265.283 313.027 266.409 314.56C268.6 317.548 265.577 320.83 266.712 324.857C268.435 330.971 278.091 332.79 278.49 332.859C278.646 332.885 278.75 332.902 278.914 332.928C283.244 333.613 289.809 334.66 294.433 331.101C297.889 328.442 299.482 323.809 299.214 319.73C299.145 318.656 298.824 314.586 295.499 311.26C294.97 310.732 291.853 307.615 287.644 307.58C285.409 307.563 284.959 308.342 283.253 307.857C280.915 307.19 279.477 305.068 278.585 303.752C276.94 301.327 277.607 300.808 276.429 299.621C274.116 297.283 271.397 299.119 268.92 297.058C266.487 295.023 267.95 292.269 265.603 290.511C263.179 288.701 258.537 289.333 257.541 291.489C256.709 293.351 258.519 296.399 259.394 296.33Z" fill="url(#paint20_linear_2_2561)"/>
</g>
</g>
<defs>
<linearGradient id="paint0_linear_2_2561" x1="95.3947" y1="436.688" x2="241.236" y2="157.891" gradientUnits="userSpaceOnUse">
<stop stop-color="#444B8C"/>
<stop offset="0.9964" stop-color="#26264F"/>
</linearGradient>
<linearGradient id="paint1_linear_2_2561" x1="72.8723" y1="306.655" x2="266.25" y2="306.655" gradientUnits="userSpaceOnUse">
<stop stop-color="#AA80F9"/>
<stop offset="0.0001" stop-color="#2D78D0"/>
<stop offset="0.9964" stop-color="#064895"/>
</linearGradient>
<linearGradient id="paint2_linear_2_2561" x1="78.6489" y1="306.659" x2="260.466" y2="306.659" gradientUnits="userSpaceOnUse">
<stop stop-color="#AA80F9"/>
<stop offset="0.0001" stop-color="#2D78D0"/>
<stop offset="0.9964" stop-color="#064895"/>
</linearGradient>
<linearGradient id="paint3_linear_2_2561" x1="72.8732" y1="308.961" x2="226.276" y2="308.961" gradientUnits="userSpaceOnUse">
<stop stop-color="#AA80F9"/>
<stop offset="0.0001" stop-color="#2D78D0"/>
<stop offset="0.9964" stop-color="#064895"/>
</linearGradient>
<linearGradient id="paint4_linear_2_2561" x1="90.4785" y1="317.003" x2="188.968" y2="182.023" gradientUnits="userSpaceOnUse">
<stop stop-color="#FCB148"/>
<stop offset="0.0520724" stop-color="#FDBA46"/>
<stop offset="0.1424" stop-color="#FFC244"/>
<stop offset="0.3183" stop-color="#FFC444"/>
<stop offset="0.4849" stop-color="#FDB946"/>
<stop offset="0.7754" stop-color="#F99C4D"/>
<stop offset="0.8658" stop-color="#F8924F"/>
<stop offset="1" stop-color="#F8924F"/>
</linearGradient>
<linearGradient id="paint5_linear_2_2561" x1="170.519" y1="252.105" x2="206.927" y2="202.208" gradientUnits="userSpaceOnUse">
<stop stop-color="#FCB148"/>
<stop offset="0.0520724" stop-color="#FDBA46"/>
<stop offset="0.1424" stop-color="#FFC244"/>
<stop offset="0.3183" stop-color="#FFC444"/>
<stop offset="0.4849" stop-color="#FDB946"/>
<stop offset="0.7754" stop-color="#F99C4D"/>
<stop offset="0.8658" stop-color="#F8924F"/>
<stop offset="1" stop-color="#F8924F"/>
</linearGradient>
<linearGradient id="paint6_linear_2_2561" x1="244.757" y1="277.329" x2="246.105" y2="285.184" gradientUnits="userSpaceOnUse">
<stop stop-color="#FFC444"/>
<stop offset="0.9964" stop-color="#F36F56"/>
</linearGradient>
<linearGradient id="paint7_linear_2_2561" x1="265.974" y1="273.346" x2="267.799" y2="281.104" gradientUnits="userSpaceOnUse">
<stop stop-color="#FFC444"/>
<stop offset="0.9964" stop-color="#F36F56"/>
</linearGradient>
<linearGradient id="paint8_linear_2_2561" x1="265.738" y1="316.279" x2="293.205" y2="299.796" gradientUnits="userSpaceOnUse">
<stop stop-color="#FCB148"/>
<stop offset="0.0520724" stop-color="#FDBA46"/>
<stop offset="0.1424" stop-color="#FFC244"/>
<stop offset="0.3183" stop-color="#FFC444"/>
<stop offset="0.4849" stop-color="#FDB946"/>
<stop offset="0.7754" stop-color="#F99C4D"/>
<stop offset="0.8658" stop-color="#F8924F"/>
<stop offset="1" stop-color="#F8924F"/>
</linearGradient>
<linearGradient id="paint9_linear_2_2561" x1="264.209" y1="404.144" x2="263.188" y2="375.154" gradientUnits="userSpaceOnUse">
<stop stop-color="#FFC444"/>
<stop offset="0.9964" stop-color="#F36F56"/>
</linearGradient>
<linearGradient id="paint10_linear_2_2561" x1="264.953" y1="348.349" x2="269.183" y2="401.355" gradientUnits="userSpaceOnUse">
<stop stop-color="#311944"/>
<stop offset="1" stop-color="#893976"/>
</linearGradient>
<linearGradient id="paint11_linear_2_2561" x1="264.954" y1="348.349" x2="269.183" y2="401.355" gradientUnits="userSpaceOnUse">
<stop stop-color="#311944"/>
<stop offset="1" stop-color="#893976"/>
</linearGradient>
<linearGradient id="paint12_linear_2_2561" x1="261.818" y1="404.378" x2="266.105" y2="388.215" gradientUnits="userSpaceOnUse">
<stop stop-color="#FF9085"/>
<stop offset="1" stop-color="#FB6FBB"/>
</linearGradient>
<linearGradient id="paint13_linear_2_2561" x1="267.517" y1="379.073" x2="248.027" y2="362.308" gradientUnits="userSpaceOnUse">
<stop stop-color="#FFC444"/>
<stop offset="0.9964" stop-color="#F36F56"/>
</linearGradient>
<linearGradient id="paint14_linear_2_2561" x1="267.088" y1="381.062" x2="258.121" y2="366.947" gradientUnits="userSpaceOnUse">
<stop stop-color="#FF9085"/>
<stop offset="1" stop-color="#FB6FBB"/>
</linearGradient>
<linearGradient id="paint15_linear_2_2561" x1="284.708" y1="358.881" x2="235.195" y2="356.631" gradientUnits="userSpaceOnUse">
<stop stop-color="#311944"/>
<stop offset="1" stop-color="#893976"/>
</linearGradient>
<linearGradient id="paint16_linear_2_2561" x1="264.435" y1="359.273" x2="305.962" y2="323.467" gradientUnits="userSpaceOnUse">
<stop stop-color="#FCB148"/>
<stop offset="0.0520724" stop-color="#FDBA46"/>
<stop offset="0.1424" stop-color="#FFC244"/>
<stop offset="0.3183" stop-color="#FFC444"/>
<stop offset="0.4849" stop-color="#FDB946"/>
<stop offset="0.7754" stop-color="#F99C4D"/>
<stop offset="0.8658" stop-color="#F8924F"/>
<stop offset="1" stop-color="#F8924F"/>
</linearGradient>
<linearGradient id="paint17_linear_2_2561" x1="264.207" y1="358.269" x2="283.005" y2="326.84" gradientUnits="userSpaceOnUse">
<stop stop-color="#FCB148"/>
<stop offset="0.0520724" stop-color="#FDBA46"/>
<stop offset="0.1424" stop-color="#FFC244"/>
<stop offset="0.3183" stop-color="#FFC444"/>
<stop offset="0.4849" stop-color="#FDB946"/>
<stop offset="0.7754" stop-color="#F99C4D"/>
<stop offset="0.8658" stop-color="#F8924F"/>
<stop offset="1" stop-color="#F8924F"/>
</linearGradient>
<linearGradient id="paint18_linear_2_2561" x1="257.403" y1="297.443" x2="263.252" y2="306.2" gradientUnits="userSpaceOnUse">
<stop stop-color="#FFC444"/>
<stop offset="0.9964" stop-color="#F36F56"/>
</linearGradient>
<linearGradient id="paint19_linear_2_2561" x1="240.388" y1="320.304" x2="268.591" y2="300.616" gradientUnits="userSpaceOnUse">
<stop stop-color="#FCB148"/>
<stop offset="0.0520724" stop-color="#FDBA46"/>
<stop offset="0.1424" stop-color="#FFC244"/>
<stop offset="0.3183" stop-color="#FFC444"/>
<stop offset="0.4849" stop-color="#FDB946"/>
<stop offset="0.7754" stop-color="#F99C4D"/>
<stop offset="0.8658" stop-color="#F8924F"/>
<stop offset="1" stop-color="#F8924F"/>
</linearGradient>
<linearGradient id="paint20_linear_2_2561" x1="289.455" y1="333.852" x2="265.402" y2="286.841" gradientUnits="userSpaceOnUse">
<stop stop-color="#444B8C"/>
<stop offset="0.9964" stop-color="#26264F"/>
</linearGradient>
</defs>
</svg>
