<svg width="180" height="18" viewBox="0 0 180 18" fill="none" xmlns="http://www.w3.org/2000/svg">
<path d="M7.084 17.132C5.896 17.132 4.83267 16.8753 3.894 16.362C2.97 15.8487 2.244 15.1447 1.716 14.25C1.188 13.3407 0.924 12.314 0.924 11.17C0.924 10.026 1.188 9.00667 1.716 8.112C2.244 7.20267 2.97 6.49867 3.894 6C4.83267 5.48667 5.896 5.23 7.084 5.23C8.14 5.23 9.07867 5.44267 9.9 5.868C10.736 6.29333 11.3813 6.90933 11.836 7.716L10.23 8.75C9.86333 8.19267 9.40867 7.77467 8.866 7.496C8.32333 7.21733 7.722 7.078 7.062 7.078C6.29933 7.078 5.61 7.24667 4.994 7.584C4.39267 7.92133 3.916 8.40533 3.564 9.036C3.22667 9.652 3.058 10.3633 3.058 11.17C3.058 11.9913 3.22667 12.7173 3.564 13.348C3.916 13.964 4.39267 14.4407 4.994 14.778C5.61 15.1153 6.29933 15.284 7.062 15.284C7.722 15.284 8.32333 15.1447 8.866 14.866C9.40867 14.5873 9.86333 14.1693 10.23 13.612L11.836 14.624C11.3813 15.4307 10.736 16.054 9.9 16.494C9.07867 16.9193 8.14 17.132 7.084 17.132ZM19.3925 17.132C18.2338 17.132 17.1925 16.8753 16.2685 16.362C15.3445 15.8487 14.6185 15.1447 14.0905 14.25C13.5772 13.3407 13.3205 12.314 13.3205 11.17C13.3205 10.026 13.5772 9.00667 14.0905 8.112C14.6185 7.20267 15.3445 6.49867 16.2685 6C17.1925 5.48667 18.2338 5.23 19.3925 5.23C20.5512 5.23 21.5852 5.48667 22.4945 6C23.4185 6.49867 24.1372 7.20267 24.6505 8.112C25.1785 9.00667 25.4425 10.026 25.4425 11.17C25.4425 12.314 25.1785 13.3407 24.6505 14.25C24.1372 15.1447 23.4185 15.8487 22.4945 16.362C21.5852 16.8753 20.5512 17.132 19.3925 17.132ZM19.3925 15.284C20.1405 15.284 20.8078 15.1153 21.3945 14.778C21.9958 14.426 22.4652 13.942 22.8025 13.326C23.1398 12.6953 23.3085 11.9767 23.3085 11.17C23.3085 10.3633 23.1398 9.652 22.8025 9.036C22.4652 8.40533 21.9958 7.92133 21.3945 7.584C20.8078 7.24667 20.1405 7.078 19.3925 7.078C18.6445 7.078 17.9698 7.24667 17.3685 7.584C16.7818 7.92133 16.3125 8.40533 15.9605 9.036C15.6232 9.652 15.4545 10.3633 15.4545 11.17C15.4545 11.9767 15.6232 12.6953 15.9605 13.326C16.3125 13.942 16.7818 14.426 17.3685 14.778C17.9698 15.1153 18.6445 15.284 19.3925 15.284ZM39.2313 5.34V17H37.2293V15.24C36.804 15.8413 36.2393 16.3107 35.5353 16.648C34.846 16.9707 34.0907 17.132 33.2693 17.132C31.7147 17.132 30.49 16.7067 29.5953 15.856C28.7007 14.9907 28.2533 13.722 28.2533 12.05V5.34H30.3653V11.808C30.3653 12.9373 30.6367 13.7953 31.1793 14.382C31.722 14.954 32.4993 15.24 33.5113 15.24C34.626 15.24 35.506 14.9027 36.1513 14.228C36.7967 13.5533 37.1193 12.6 37.1193 11.368V5.34H39.2313ZM45.276 7.298C45.6427 6.62333 46.1853 6.11 46.904 5.758C47.6227 5.406 48.4953 5.23 49.522 5.23V7.276C49.4047 7.26133 49.2433 7.254 49.038 7.254C47.894 7.254 46.992 7.59867 46.332 8.288C45.6867 8.96267 45.364 9.93067 45.364 11.192V17H43.252V5.34H45.276V7.298ZM55.555 17.132C54.6017 17.132 53.685 17.0073 52.805 16.758C51.925 16.494 51.2357 16.164 50.737 15.768L51.617 14.096C52.1303 14.4627 52.7537 14.756 53.487 14.976C54.2203 15.196 54.961 15.306 55.709 15.306C57.557 15.306 58.481 14.778 58.481 13.722C58.481 13.37 58.3563 13.0913 58.107 12.886C57.8577 12.6807 57.5423 12.534 57.161 12.446C56.7943 12.3433 56.2663 12.2333 55.577 12.116C54.6383 11.9693 53.8683 11.8007 53.267 11.61C52.6803 11.4193 52.1743 11.0967 51.749 10.642C51.3237 10.1873 51.111 9.54933 51.111 8.728C51.111 7.672 51.551 6.82867 52.431 6.198C53.311 5.55267 54.4917 5.23 55.973 5.23C56.7503 5.23 57.5277 5.32533 58.305 5.516C59.0823 5.70667 59.7203 5.96333 60.219 6.286L59.317 7.958C58.3637 7.342 57.2417 7.034 55.951 7.034C55.0563 7.034 54.3743 7.18067 53.905 7.474C53.4357 7.76733 53.201 8.156 53.201 8.64C53.201 9.02133 53.333 9.322 53.597 9.542C53.861 9.762 54.1837 9.92333 54.565 10.026C54.961 10.1287 55.511 10.246 56.215 10.378C57.1537 10.5393 57.909 10.7153 58.481 10.906C59.0677 11.082 59.5663 11.39 59.977 11.83C60.3877 12.27 60.593 12.886 60.593 13.678C60.593 14.734 60.1383 15.5773 59.229 16.208C58.3343 16.824 57.1097 17.132 55.555 17.132ZM67.4785 5.23C69.0918 5.23 70.3238 5.626 71.1745 6.418C72.0398 7.21 72.4725 8.39067 72.4725 9.96V17H70.4705V15.46C70.1185 16.0027 69.6125 16.4207 68.9525 16.714C68.3071 16.9927 67.5371 17.132 66.6425 17.132C65.3371 17.132 64.2885 16.8167 63.4965 16.186C62.7191 15.5553 62.3305 14.7267 62.3305 13.7C62.3305 12.6733 62.7045 11.852 63.4525 11.236C64.2005 10.6053 65.3885 10.29 67.0165 10.29H70.3605V9.872C70.3605 8.96267 70.0965 8.266 69.5685 7.782C69.0405 7.298 68.2631 7.056 67.2365 7.056C66.5471 7.056 65.8725 7.17333 65.2125 7.408C64.5525 7.628 63.9951 7.92867 63.5405 8.31L62.6605 6.726C63.2618 6.242 63.9805 5.87533 64.8165 5.626C65.6525 5.362 66.5398 5.23 67.4785 5.23ZM66.9945 15.504C67.8011 15.504 68.4978 15.328 69.0845 14.976C69.6711 14.6093 70.0965 14.096 70.3605 13.436V11.808H67.1045C65.3151 11.808 64.4205 12.4093 64.4205 13.612C64.4205 14.1987 64.6478 14.6607 65.1025 14.998C65.5571 15.3353 66.1878 15.504 66.9945 15.504ZM82.9369 16.318C82.6289 16.582 82.2476 16.7873 81.7929 16.934C81.3382 17.066 80.8689 17.132 80.3849 17.132C79.2116 17.132 78.3022 16.8167 77.6569 16.186C77.0116 15.5553 76.6889 14.6533 76.6889 13.48V7.078H74.7089V5.34H76.6889V2.788H78.8009V5.34H82.1449V7.078H78.8009V13.392C78.8009 14.0227 78.9549 14.5067 79.2629 14.844C79.5856 15.1813 80.0402 15.35 80.6269 15.35C81.2722 15.35 81.8222 15.1667 82.2769 14.8L82.9369 16.318ZM90.0976 17.132C88.9389 17.132 87.8976 16.8753 86.9736 16.362C86.0496 15.8487 85.3236 15.1447 84.7956 14.25C84.2822 13.3407 84.0256 12.314 84.0256 11.17C84.0256 10.026 84.2822 9.00667 84.7956 8.112C85.3236 7.20267 86.0496 6.49867 86.9736 6C87.8976 5.48667 88.9389 5.23 90.0976 5.23C91.2562 5.23 92.2902 5.48667 93.1996 6C94.1236 6.49867 94.8422 7.20267 95.3556 8.112C95.8836 9.00667 96.1476 10.026 96.1476 11.17C96.1476 12.314 95.8836 13.3407 95.3556 14.25C94.8422 15.1447 94.1236 15.8487 93.1996 16.362C92.2902 16.8753 91.2562 17.132 90.0976 17.132ZM90.0976 15.284C90.8456 15.284 91.5129 15.1153 92.0996 14.778C92.7009 14.426 93.1702 13.942 93.5076 13.326C93.8449 12.6953 94.0136 11.9767 94.0136 11.17C94.0136 10.3633 93.8449 9.652 93.5076 9.036C93.1702 8.40533 92.7009 7.92133 92.0996 7.584C91.5129 7.24667 90.8456 7.078 90.0976 7.078C89.3496 7.078 88.6749 7.24667 88.0736 7.584C87.4869 7.92133 87.0176 8.40533 86.6656 9.036C86.3282 9.652 86.1596 10.3633 86.1596 11.17C86.1596 11.9767 86.3282 12.6953 86.6656 13.326C87.0176 13.942 87.4869 14.426 88.0736 14.778C88.6749 15.1153 89.3496 15.284 90.0976 15.284ZM101.092 7.298C101.459 6.62333 102.002 6.11 102.72 5.758C103.439 5.406 104.312 5.23 105.338 5.23V7.276C105.221 7.26133 105.06 7.254 104.854 7.254C103.71 7.254 102.808 7.59867 102.148 8.288C101.503 8.96267 101.18 9.93067 101.18 11.192V17H99.0684V5.34H101.092V7.298ZM108.383 17.132C107.972 17.132 107.62 16.9927 107.327 16.714C107.034 16.4207 106.887 16.054 106.887 15.614C106.887 15.1887 107.034 14.8367 107.327 14.558C107.62 14.2647 107.972 14.118 108.383 14.118C108.794 14.118 109.138 14.2573 109.417 14.536C109.696 14.8147 109.835 15.174 109.835 15.614C109.835 16.054 109.688 16.4207 109.395 16.714C109.116 16.9927 108.779 17.132 108.383 17.132ZM117.598 17.132C116.439 17.132 115.398 16.8753 114.474 16.362C113.55 15.8487 112.824 15.1447 112.296 14.25C111.782 13.3407 111.526 12.314 111.526 11.17C111.526 10.026 111.782 9.00667 112.296 8.112C112.824 7.20267 113.55 6.49867 114.474 6C115.398 5.48667 116.439 5.23 117.598 5.23C118.756 5.23 119.79 5.48667 120.7 6C121.624 6.49867 122.342 7.20267 122.856 8.112C123.384 9.00667 123.648 10.026 123.648 11.17C123.648 12.314 123.384 13.3407 122.856 14.25C122.342 15.1447 121.624 15.8487 120.7 16.362C119.79 16.8753 118.756 17.132 117.598 17.132ZM117.598 15.284C118.346 15.284 119.013 15.1153 119.6 14.778C120.201 14.426 120.67 13.942 121.008 13.326C121.345 12.6953 121.514 11.9767 121.514 11.17C121.514 10.3633 121.345 9.652 121.008 9.036C120.67 8.40533 120.201 7.92133 119.6 7.584C119.013 7.24667 118.346 7.078 117.598 7.078C116.85 7.078 116.175 7.24667 115.574 7.584C114.987 7.92133 114.518 8.40533 114.166 9.036C113.828 9.652 113.66 10.3633 113.66 11.17C113.66 11.9767 113.828 12.6953 114.166 13.326C114.518 13.942 114.987 14.426 115.574 14.778C116.175 15.1153 116.85 15.284 117.598 15.284ZM132.794 5.23C134.276 5.23 135.449 5.66267 136.314 6.528C137.194 7.37867 137.634 8.63267 137.634 10.29V17H135.522V10.532C135.522 9.40267 135.251 8.552 134.708 7.98C134.166 7.408 133.388 7.122 132.376 7.122C131.232 7.122 130.33 7.45933 129.67 8.134C129.01 8.794 128.68 9.74733 128.68 10.994V17H126.568V5.34H128.592V7.1C129.018 6.49867 129.59 6.03667 130.308 5.714C131.042 5.39133 131.87 5.23 132.794 5.23ZM141.543 0.675999H143.655V17H141.543V0.675999ZM147.688 5.34H149.8V17H147.688V5.34ZM148.744 3.096C148.333 3.096 147.988 2.964 147.71 2.7C147.446 2.436 147.314 2.11333 147.314 1.732C147.314 1.35067 147.446 1.028 147.71 0.763999C147.988 0.485333 148.333 0.345999 148.744 0.345999C149.154 0.345999 149.492 0.477999 149.756 0.742C150.034 0.991332 150.174 1.30667 150.174 1.688C150.174 2.084 150.034 2.42133 149.756 2.7C149.492 2.964 149.154 3.096 148.744 3.096ZM160.058 5.23C161.539 5.23 162.713 5.66267 163.578 6.528C164.458 7.37867 164.898 8.63267 164.898 10.29V17H162.786V10.532C162.786 9.40267 162.515 8.552 161.972 7.98C161.429 7.408 160.652 7.122 159.64 7.122C158.496 7.122 157.594 7.45933 156.934 8.134C156.274 8.794 155.944 9.74733 155.944 10.994V17H153.832V5.34H155.856V7.1C156.281 6.49867 156.853 6.03667 157.572 5.714C158.305 5.39133 159.134 5.23 160.058 5.23ZM179.409 11.236C179.409 11.3973 179.394 11.61 179.365 11.874H169.905C170.037 12.9007 170.484 13.7293 171.247 14.36C172.024 14.976 172.985 15.284 174.129 15.284C175.522 15.284 176.644 14.8147 177.495 13.876L178.661 15.24C178.133 15.856 177.473 16.3253 176.681 16.648C175.904 16.9707 175.031 17.132 174.063 17.132C172.831 17.132 171.738 16.8827 170.785 16.384C169.832 15.8707 169.091 15.1593 168.563 14.25C168.05 13.3407 167.793 12.314 167.793 11.17C167.793 10.0407 168.042 9.02133 168.541 8.112C169.054 7.20267 169.751 6.49867 170.631 6C171.526 5.48667 172.53 5.23 173.645 5.23C174.76 5.23 175.75 5.48667 176.615 6C177.495 6.49867 178.177 7.20267 178.661 8.112C179.16 9.02133 179.409 10.0627 179.409 11.236ZM173.645 7.012C172.633 7.012 171.782 7.32 171.093 7.936C170.418 8.552 170.022 9.35867 169.905 10.356H177.385C177.268 9.37333 176.864 8.574 176.175 7.958C175.5 7.32733 174.657 7.012 173.645 7.012Z" fill="black"/>
</svg>
