<svg width="38" height="38" viewBox="0 0 38 38" fill="none" xmlns="http://www.w3.org/2000/svg">
<rect x="3.1665" y="11.0833" width="31.6667" height="7.91667" rx="2" stroke="#0075FF" stroke-width="2" stroke-linecap="round" stroke-linejoin="round"/>
<path d="M6.3335 19H31.6668V31.25C31.6668 32.3546 30.7714 33.25 29.6668 33.25H8.3335C7.22893 33.25 6.3335 32.3546 6.3335 31.25V19Z" stroke="#0075FF" stroke-width="2" stroke-linecap="round" stroke-linejoin="round"/>
<path d="M19 11.0833V33.25" stroke="#0075FF" stroke-width="2" stroke-linecap="round" stroke-linejoin="round"/>
<path d="M7.9165 8.28777C7.9165 6.34013 9.49538 4.75 11.443 4.75H12.8708C16.2558 4.75 18.9998 7.49406 18.9998 10.879V10.879C18.9998 10.9919 18.9084 11.0833 18.7955 11.0833H10.7032C9.16413 11.0833 7.9165 9.82681 7.9165 8.28777V8.28777Z" stroke="#0075FF" stroke-width="2" stroke-linecap="round" stroke-linejoin="round"/>
<path d="M30.0833 8.28777C30.0833 6.34013 28.5044 4.75 26.5567 4.75H25.1289C21.744 4.75 18.9999 7.49406 18.9999 10.879V10.879C18.9999 10.9919 19.0914 11.0833 19.2042 11.0833H27.2966C28.8356 11.0833 30.0833 9.82681 30.0833 8.28777V8.28777Z" stroke="#0075FF" stroke-width="2" stroke-linecap="round" stroke-linejoin="round"/>
</svg>
