<svg width="39" height="38" viewBox="0 0 39 38" fill="none" xmlns="http://www.w3.org/2000/svg">
<path d="M5.25 14.6667C5.25 13.5621 6.14543 12.6667 7.25 12.6667H31.75C32.8546 12.6667 33.75 13.5621 33.75 14.6667V19.5833C33.75 20.1356 33.3023 20.5833 32.75 20.5833H6.25C5.69771 20.5833 5.25 20.1356 5.25 19.5833V14.6667Z" stroke="#0075FF" stroke-width="2" stroke-linecap="round" stroke-linejoin="round"/>
<path d="M14.75 8.33334C14.75 7.22877 15.6454 6.33333 16.75 6.33333H22.25C23.3546 6.33333 24.25 7.22876 24.25 8.33333V12.6667H14.75V8.33334Z" stroke="#0075FF" stroke-width="2" stroke-linecap="round" stroke-linejoin="round"/>
<path d="M6.83325 20.5833H32.1666V29.6667C32.1666 30.7712 31.2712 31.6667 30.1666 31.6667H8.83325C7.72868 31.6667 6.83325 30.7712 6.83325 29.6667V20.5833Z" stroke="#0075FF" stroke-width="2" stroke-linecap="round" stroke-linejoin="round"/>
<path d="M19.5 19V22.1667" stroke="#0075FF" stroke-width="2" stroke-linecap="round" stroke-linejoin="round"/>
</svg>
