<svg width="18" height="10" viewBox="0 0 18 10" fill="none" xmlns="http://www.w3.org/2000/svg">
<path d="M17.1428 4.99785C17.1414 4.81251 17.0681 4.63498 16.9385 4.5027L16.9343 4.49411L12.6485 0.200861C12.5138 0.0705194 12.3334 -0.00160313 12.1461 2.67029e-05C11.9588 0.00165749 11.7797 0.076911 11.6472 0.209578C11.5148 0.342245 11.4397 0.521712 11.4381 0.709325C11.4364 0.896937 11.5084 1.07768 11.6385 1.21264L14.7043 4.28517L0.714252 4.28517C0.524811 4.28517 0.34313 4.36056 0.209175 4.49475C0.0752201 4.62894 -3.43323e-05 4.81094 -3.43323e-05 5.00072C-3.43323e-05 5.19049 0.0752201 5.37249 0.209175 5.50668C0.34313 5.64087 0.524811 5.71626 0.714252 5.71626L14.7043 5.71626L11.6385 8.78736C11.5084 8.92232 11.4364 9.10306 11.4381 9.29068C11.4397 9.47829 11.5148 9.65776 11.6472 9.79042C11.7797 9.92309 11.9588 9.99834 12.1461 9.99997C12.3334 10.0016 12.5138 9.92948 12.6485 9.79914L16.9343 5.50589L16.9385 5.49873C17.0021 5.43419 17.0526 5.35788 17.0871 5.27405C17.1239 5.18763 17.1428 5.09466 17.1428 5.00072V4.99785Z" fill="black"/>
</svg>
