<svg width="24" height="24" viewBox="0 0 24 24" fill="none" xmlns="http://www.w3.org/2000/svg">
<path fill-rule="evenodd" clip-rule="evenodd" d="M5.18088 4.0577H6.95993H16.7468H18.5253L18.6167 4.06267C20.3505 4.15693 21.7287 5.59475 21.7287 7.35314V18.7256C21.7287 20.5456 20.2532 22.021 18.4332 22.021H5.2727C3.45268 22.021 1.97727 20.5456 1.97727 18.7256V7.35314C1.97727 5.59458 3.3557 4.15665 5.0897 4.06264L5.18088 4.0577ZM0 7.35314C0 4.53842 2.20552 2.23883 4.98267 2.08828V2.08043V0.988633C4.98267 0.442626 5.42529 0 5.9713 0C6.51731 0 6.95993 0.442626 6.95993 0.988633V2.08043H8.9372H14.7695H16.7468V0.988999C16.7468 0.442993 17.1894 0.000366867 17.7354 0.000366867C18.2814 0.000366867 18.7241 0.442993 18.7241 0.988999V2.08043V2.08832C21.5008 2.23928 23.7059 4.5387 23.7059 7.35314V18.7256C23.7059 21.6376 21.3453 23.9983 18.4332 23.9983H5.2727C2.36067 23.9983 0 21.6376 0 18.7256V7.35314ZM6.23681 7.41232C5.6908 7.41232 5.24818 7.85495 5.24818 8.40096C5.24818 8.94696 5.6908 9.38959 6.23681 9.38959H17.4722C18.0182 9.38959 18.4608 8.94696 18.4608 8.40096C18.4608 7.85495 18.0182 7.41232 17.4722 7.41232H6.23681ZM18.5783 12.8819C18.5783 13.5448 18.0409 14.0821 17.378 14.0821C16.7151 14.0821 16.1778 13.5448 16.1778 12.8819C16.1778 12.219 16.7151 11.6816 17.378 11.6816C18.0409 11.6816 18.5783 12.219 18.5783 12.8819ZM6.32851 14.0831C6.9914 14.0831 7.52877 13.5457 7.52877 12.8828C7.52877 12.22 6.9914 11.6826 6.32851 11.6826C5.66563 11.6826 5.12825 12.22 5.12825 12.8828C5.12825 13.5457 5.66563 14.0831 6.32851 14.0831ZM11.854 14.0834C12.5169 14.0834 13.0542 13.546 13.0542 12.8831C13.0542 12.2202 12.5169 11.6828 11.854 11.6828C11.1911 11.6828 10.6537 12.2202 10.6537 12.8831C10.6537 13.546 11.1911 14.0834 11.854 14.0834ZM13.0543 17.6497C13.0543 18.3126 12.517 18.85 11.8541 18.85C11.1912 18.85 10.6538 18.3126 10.6538 17.6497C10.6538 16.9868 11.1912 16.4494 11.8541 16.4494C12.517 16.4494 13.0543 16.9868 13.0543 17.6497ZM7.52841 17.6497C7.52841 18.3126 6.99103 18.85 6.32815 18.85C5.66526 18.85 5.12789 18.3126 5.12789 17.6497C5.12789 16.9869 5.66526 16.4495 6.32815 16.4495C6.99103 16.4495 7.52841 16.9869 7.52841 17.6497ZM17.3791 18.85C18.042 18.85 18.5794 18.3126 18.5794 17.6497C18.5794 16.9868 18.042 16.4494 17.3791 16.4494C16.7162 16.4494 16.1789 16.9868 16.1789 17.6497C16.1789 18.3126 16.7162 18.85 17.3791 18.85Z" fill="black" fill-opacity="0.33"/>
</svg>
