<svg width="17" height="17" viewBox="0 0 17 17" fill="none" xmlns="http://www.w3.org/2000/svg">
<path d="M4.93917 9.70744C5.41692 9.70744 5.8787 9.67658 6.31568 9.61913V4.82947C5.87874 4.77207 5.41692 4.74121 4.93917 4.74121C2.21135 4.74121 0 5.74415 0 6.98139V7.46722C0 8.70441 2.21135 9.70744 4.93917 9.70744Z" fill="#EF476F"/>
<path d="M4.93917 12.2083C5.41692 12.2083 5.8787 12.1774 6.31568 12.12V10.7161C5.87861 10.7735 5.41704 10.8048 4.93917 10.8048C2.55808 10.8048 0.570701 10.0406 0.103879 9.02344C0.0358963 9.17159 0 9.325 0 9.48226V9.96809C0 11.2053 2.21135 12.2083 4.93917 12.2083Z" fill="#EF476F"/>
<path d="M6.31568 13.3262V13.2171C5.87862 13.2745 5.41704 13.3058 4.93917 13.3058C2.55808 13.3058 0.570701 12.5415 0.103879 11.5244C0.0358963 11.6725 0 11.8259 0 11.9832V12.469C0 13.7063 2.21135 14.7093 4.93917 14.7093C5.48469 14.7093 6.00938 14.669 6.50003 14.595C6.37841 14.3462 6.31568 14.0838 6.31568 13.812V13.3262Z" fill="#EF476F"/>
<path d="M12.0609 0.947266C9.33305 0.947266 7.1217 1.9502 7.1217 3.18744V3.67327C7.1217 4.9105 9.33305 5.91344 12.0609 5.91344C14.7887 5.91344 17.0001 4.9105 17.0001 3.67327V3.18744C17.0001 1.9502 14.7887 0.947266 12.0609 0.947266Z" fill="#EF476F"/>
<path d="M12.0609 7.01085C9.67978 7.01085 7.6924 6.24665 7.22558 5.22949C7.1576 5.37761 7.1217 5.53101 7.1217 5.68831V6.17414C7.1217 7.41138 9.33305 8.41432 12.0609 8.41432C14.7887 8.41432 17.0001 7.41138 17.0001 6.17414V5.68831C17.0001 5.53101 16.9642 5.37761 16.8962 5.22949C16.4294 6.24665 14.442 7.01085 12.0609 7.01085Z" fill="#EF476F"/>
<path d="M12.0609 9.51182C9.67978 9.51182 7.6924 8.74759 7.22558 7.73047C7.1576 7.87858 7.1217 8.03199 7.1217 8.18929V8.67512C7.1217 9.9124 9.33305 10.9153 12.0609 10.9153C14.7887 10.9153 17.0001 9.9124 17.0001 8.67512V8.18929C17.0001 8.03199 16.9642 7.87858 16.8962 7.73047C16.4294 8.74763 14.442 9.51182 12.0609 9.51182Z" fill="#EF476F"/>
<path d="M12.0609 12.1485C9.67978 12.1485 7.6924 11.3843 7.22558 10.3672C7.1576 10.5153 7.1217 10.6687 7.1217 10.826V11.3118C7.1217 12.5491 9.33305 13.552 12.0609 13.552C14.7887 13.552 17.0001 12.5491 17.0001 11.3118V10.826C17.0001 10.6687 16.9642 10.5153 16.8962 10.3672C16.4294 11.3843 14.442 12.1485 12.0609 12.1485Z" fill="#EF476F"/>
<path d="M12.0609 14.6485C9.67978 14.6485 7.6924 13.8843 7.22558 12.8672C7.1576 13.0154 7.1217 13.1688 7.1217 13.326V13.8118C7.1217 15.0491 9.33305 16.052 12.0609 16.052C14.7887 16.052 17.0001 15.0491 17.0001 13.8118V13.326C17.0001 13.1687 16.9642 13.0153 16.8962 12.8672C16.4294 13.8843 14.442 14.6485 12.0609 14.6485Z" fill="#EF476F"/>
</svg>
