<svg width="24" height="24" viewBox="0 0 24 24" fill="none" xmlns="http://www.w3.org/2000/svg">
<path fill-rule="evenodd" clip-rule="evenodd" d="M9.83435 20.8831C10.4742 21.5094 11.2314 21.8128 11.744 21.9575C12.3728 22.1629 12.9307 21.9731 13.3118 21.7221C13.6814 21.4787 13.9462 21.1457 14.1056 20.8924C14.2701 20.6311 14.3229 20.3548 14.3257 20.1258L14.3615 17.2158L17.3281 13.4665C17.6768 13.0257 17.9107 12.5091 18.0135 11.963L18.0287 11.8823L18.0297 11.8002L18.0731 8.26931L18.0732 8.26931V8.25774L18.0732 4.24464C18.0732 3.04152 17.1057 2.06209 15.9027 2.0473L8.46995 1.95595C5.35374 1.91765 3.84735 3.78592 3.48018 4.98079C2.80241 6.80608 2.32945 9.25772 2.03756 11.2225C1.73384 13.2669 3.34273 14.9974 5.33844 15.0219L8.80053 15.0645C8.80516 15.0697 8.81003 15.0756 8.81501 15.0822C8.826 15.0967 8.83601 15.1125 8.84436 15.1285C8.85275 15.1445 8.85826 15.1583 8.86158 15.1688L8.8623 15.1711C8.768 15.86 8.69775 16.7842 8.68396 17.9065C8.66748 19.2473 9.15669 20.2198 9.83435 20.8831ZM12.4794 17.0857L12.4437 19.985C12.4283 20.0046 12.4119 20.0241 12.3947 20.0429C12.3486 20.0936 12.3072 20.1283 12.2759 20.149L12.2744 20.15L12.2714 20.1491C11.9308 20.055 11.492 19.8699 11.1519 19.537C10.8388 19.2306 10.5573 18.7515 10.5674 17.9296C10.5806 16.8528 10.6487 15.9991 10.732 15.4013C10.8103 14.8385 10.5911 14.3076 10.3167 13.9452C10.0464 13.5882 9.56263 13.1901 8.91619 13.1822L5.36159 13.1385C4.43547 13.1271 3.775 12.3453 3.90068 11.4993C4.19004 9.55155 4.64415 7.24568 5.25552 5.61074L5.26783 5.57782L5.27766 5.54407C5.40096 5.12044 6.18851 3.81163 8.4468 3.83938L15.8796 3.93073C16.0514 3.93284 16.1896 4.07276 16.1896 4.24464V8.25195L16.1474 11.6853C16.0949 11.9073 15.9943 12.1166 15.8509 12.2977L12.8179 16.131C12.6027 16.4031 12.4836 16.7388 12.4794 17.0857ZM20.8705 12.3767C21.4932 12.3767 21.998 11.8718 21.998 11.2491V4.18971C21.998 3.56697 21.4932 3.06215 20.8705 3.06215C20.2478 3.06215 19.7429 3.56697 19.7429 4.18971V11.2491C19.7429 11.8718 20.2478 12.3767 20.8705 12.3767Z" fill="#200E32" fill-opacity="0.26"/>
</svg>
