<svg width="24" height="24" viewBox="0 0 24 24" fill="none" xmlns="http://www.w3.org/2000/svg">
<path fill-rule="evenodd" clip-rule="evenodd" d="M14.1655 3.11638C13.5256 2.49 12.7683 2.18658 12.2557 2.04194C11.6269 1.83645 11.069 2.02631 10.6878 2.27728C10.3181 2.5207 10.0534 2.85371 9.89397 3.10702C9.72945 3.36841 9.67665 3.64474 9.67384 3.87367L9.63807 6.78386L6.6713 10.5335C6.32215 10.9747 6.08818 11.4919 5.98547 12.0387L5.97035 12.1192L5.96935 12.201L5.92618 15.7135L5.92611 15.7135V15.7251L5.92611 19.7558C5.92611 20.959 6.89364 21.9385 8.09673 21.9533L15.5299 22.0447C18.6463 22.083 20.1528 20.2146 20.52 19.0197C21.1978 17.1943 21.6708 14.7425 21.9627 12.7775C22.2665 10.7331 20.6575 9.00243 18.6617 8.9779L15.1993 8.93534C15.1947 8.93012 15.1899 8.92422 15.1849 8.91763C15.1739 8.90311 15.1639 8.88733 15.1555 8.87136C15.1471 8.85535 15.1416 8.84147 15.1383 8.83105L15.1376 8.8287C15.2319 8.13978 15.3021 7.21549 15.3159 6.09315C15.3324 4.75226 14.8432 3.77974 14.1655 3.11638ZM11.5203 6.91402L11.5559 4.01452C11.5714 3.9949 11.5878 3.97542 11.6049 3.9566C11.6511 3.90592 11.6924 3.87116 11.7237 3.85053L11.7252 3.84955L11.7283 3.8504C12.0689 3.94453 12.5077 4.1296 12.8478 4.46251C13.1609 4.76898 13.4425 5.24806 13.4324 6.07C13.4192 7.14691 13.3511 8.00067 13.2678 8.5985C13.1894 9.16133 13.4087 9.69227 13.6831 10.0547C13.9534 10.4117 14.4372 10.8098 15.0837 10.8178L18.6385 10.8614C19.5647 10.8728 20.2252 11.6547 20.0995 12.5007C19.8101 14.4486 19.356 16.7546 18.7446 18.3897L18.7323 18.4226L18.7224 18.4563C18.5991 18.88 17.8115 20.1889 15.5531 20.1611L8.11988 20.0698C7.94802 20.0677 7.80979 19.9277 7.80979 19.7558V15.7309L7.85177 12.3157C7.90425 12.0933 8.00498 11.8837 8.14852 11.7023L11.1817 7.86873C11.397 7.59666 11.516 7.26093 11.5203 6.91402ZM3.12763 11.6227C2.50486 11.6227 2 12.1275 2 12.7503V19.8101C2 20.4329 2.50486 20.9378 3.12763 20.9378C3.7504 20.9378 4.25526 20.4329 4.25526 19.8101V12.7503C4.25526 12.1275 3.7504 11.6227 3.12763 11.6227Z" fill="#200E32" fill-opacity="0.26"/>
</svg>
