<svg width="20" height="21" viewBox="0 0 20 21" fill="none" xmlns="http://www.w3.org/2000/svg">
<path fill-rule="evenodd" clip-rule="evenodd" d="M8.66467 0C3.86879 0 0 3.92658 0 8.74665C0 13.5667 3.86879 17.4933 8.66467 17.4933C13.4605 17.4933 17.3293 13.5667 17.3293 8.74665C17.3293 6.43048 16.4191 4.20695 14.7955 2.5658C13.1714 0.924267 10.9663 0 8.66467 0ZM2.09024 8.74665C2.09024 5.05984 5.04423 2.09024 8.66467 2.09024C10.4047 2.09024 12.0757 2.78879 13.3095 4.03589C14.5437 5.28337 15.2391 6.97767 15.2391 8.74665C15.2391 12.4335 12.2851 15.4031 8.66467 15.4031C5.04423 15.4031 2.09024 12.4335 2.09024 8.74665ZM17.1111 15.6448C16.7029 15.2366 16.0412 15.2366 15.633 15.6448C15.2249 16.0529 15.2249 16.7146 15.633 17.1228L18.2164 19.7061C18.6245 20.1143 19.2863 20.1143 19.6944 19.7061C20.1026 19.298 20.1026 18.6363 19.6944 18.2281L17.1111 15.6448Z" fill="white"/>
</svg>
