<svg width="14" height="18" viewBox="0 0 14 18" fill="none" xmlns="http://www.w3.org/2000/svg">
<path fill-rule="evenodd" clip-rule="evenodd" d="M6.86214 4.03817C6.86214 5.7161 8.22237 7.07634 9.90031 7.07634C11.5782 7.07634 12.9385 5.7161 12.9385 4.03817C12.9385 2.36023 11.5782 1 9.90031 1C8.22237 1 6.86214 2.36023 6.86214 4.03817ZM9.90031 8.07634C7.82626 8.07634 6.11742 6.51273 5.88826 4.5L0.999963 4.5C0.72382 4.5 0.499963 4.27614 0.499964 4C0.499964 3.72386 0.723821 3.5 0.999964 3.5L5.89769 3.5C6.16081 1.52421 7.85256 -2.66024e-07 9.90031 -1.76514e-07C12.1305 -7.9028e-08 13.9385 1.80795 13.9385 4.03817C13.9385 6.26839 12.1305 8.07634 9.90031 8.07634ZM7.07633 13.9605C7.07633 15.6384 5.7161 16.9987 4.03817 16.9987C2.36023 16.9987 0.999996 15.6384 0.999997 13.9605C0.999997 12.2826 2.36023 10.9223 4.03817 10.9223C5.7161 10.9223 7.07633 12.2826 7.07633 13.9605ZM4.03817 17.9987C6.08544 17.9987 7.77689 16.4751 8.0406 14.5L13.1863 14.5C13.4625 14.5 13.6863 14.2762 13.6863 14C13.6863 13.7239 13.4625 13.5 13.1863 13.5L8.05037 13.5C7.82183 11.4866 6.11268 9.92232 4.03817 9.92232C1.80795 9.92232 -3.37377e-06 11.7303 -3.47126e-06 13.9605C-3.56874e-06 16.1907 1.80795 17.9987 4.03817 17.9987Z" fill="black"/>
</svg>
