<svg width="220" height="50" viewBox="0 0 220 50" fill="none" xmlns="http://www.w3.org/2000/svg">
<path fill-rule="evenodd" clip-rule="evenodd" d="M18.6347 49.5C17.1008 49.5 17.191 49.4105 15.0256 48.1577C12.8601 46.9048 9.97283 44.936 8.79988 43.6832C7.62692 42.4303 6.09305 40.2826 5.73214 39.2982C5.281 38.1349 4.64941 36.6135 4.92009 35.8081C5.10055 35.3607 5.46146 34.9132 5.82237 33.5709C6.18328 32.4075 5.82237 30.2598 5.82237 29.5439C5.82237 29.0069 5.37123 27.7541 4.92009 26.7697C4.46895 25.8748 2.84486 24.5325 2.21327 23.6376C1.58167 22.7427 0.408715 19.9685 0.22826 18.8946C0.0478046 17.8208 -0.132651 14.5992 0.138032 13.5253C0.58917 11.288 1.13053 10.0352 1.6719 8.96132C2.30349 7.52949 4.92009 4.84481 5.82237 4.21839C7.80737 2.87605 9.88261 1.71269 12.409 0.996772C14.1233 0.459835 15.3865 0.280857 16.8301 0.191367C18.6347 -0.0771006 23.4167 -0.0771005 25.2213 0.280857C27.9281 0.907282 30.6349 1.98115 32.4395 3.32349C34.1538 4.66584 35.2365 5.73971 36.59 7.97694C37.4922 9.40877 37.8531 11.1986 38.3043 12.5409C38.7554 13.9727 38.8456 17.6418 38.8456 18.6262C38.8456 19.6106 38.4847 20.7739 38.3945 20.9529C38.3043 21.0424 37.402 21.7583 37.402 22.2952C37.402 22.8322 37.402 23.0112 37.6727 23.4586C37.9434 23.906 38.6652 25.5169 39.0261 25.9643C39.387 26.4117 40.4697 28.2015 40.7404 28.828C41.0111 29.4544 41.4622 30.0808 41.1013 30.7967C40.7404 31.5126 39.6577 31.3337 38.9359 31.4232C38.3043 31.5126 37.402 31.4232 37.2216 32.0496C37.1313 32.4075 37.402 32.855 37.402 32.855C37.9434 33.3024 37.6727 34.1973 37.1313 34.4658C36.6802 34.7343 36.59 34.7343 36.1388 34.9132C35.6877 35.0922 35.7779 35.0922 36.0486 35.5397C36.3193 35.9871 36.3193 36.524 36.229 36.882C36.1388 37.24 35.5072 37.1505 34.9659 37.3294C34.5147 37.5084 34.0636 37.6874 34.0636 38.3138C34.0636 38.6718 34.3343 39.4772 34.0636 40.2826C33.7929 40.9985 32.8906 41.9829 32.0786 42.3409C31.2665 42.6988 29.6424 42.6988 28.7402 42.5198C27.8379 42.3409 26.304 41.8039 25.6724 41.6249C25.1311 41.446 24.5897 41.7144 23.8679 42.4303C23.1461 43.1463 22.334 44.4886 21.7926 45.3835C21.2513 46.2784 20.2588 47.8892 19.7174 48.4261C19.537 49.2315 18.6347 49.5 18.6347 49.5Z" fill="#35B34A"/>
<path fill-rule="evenodd" clip-rule="evenodd" d="M9.07049 11.9146H12.9503V24.3536H14.033V27.5752H16.018C16.1985 27.3067 16.3789 27.1278 16.4691 26.9488L16.5594 26.8593H14.7548V23.3692H13.6721V11.2882H11.9578V3.50258C11.2359 3.77105 10.6044 4.03952 9.97276 4.39748H11.4164V5.9188H9.88253V4.39748C9.4314 4.66594 9.07049 4.93441 8.70958 5.20288C6.09298 7.26114 5.64184 8.24552 4.92002 9.94582C4.82979 10.1248 4.82979 10.2143 4.73956 10.3933C4.46888 10.9302 4.10797 11.6461 3.74706 12.2725C3.29592 13.0779 2.84479 13.8833 2.75456 14.3308C2.30342 15.8521 2.21319 18.6263 2.93501 19.7896C3.11547 20.0581 3.38615 20.3266 3.74706 20.595C3.56661 20.3266 3.38615 19.9686 3.38615 19.5212C3.38615 18.7158 4.10797 17.9999 4.92002 17.9999C5.73207 17.9999 6.36366 18.5368 6.45389 19.3422H11.2359V18.6263H10.4239V16.8365H11.2359V16.0311H6.45389C6.27343 16.747 5.73207 17.1945 4.92002 17.1945C4.10797 17.1945 3.38615 16.4785 3.38615 15.6731C3.38615 14.8677 4.10797 14.1518 4.92002 14.1518C5.64184 14.1518 6.27343 14.6888 6.45389 15.3152H11.8675V17.4629H11.0555V17.9999H11.8675V20.0581H6.36366C6.1832 20.6845 5.55161 21.132 4.92002 21.132C4.82979 21.132 4.73956 21.132 4.55911 21.132C4.82979 21.311 5.1907 21.4005 5.46138 21.5794C6.00275 21.8479 6.45389 22.3848 6.72457 22.9218H10.5141V25.4275H13.1307V29.365C13.4916 29.723 13.8525 29.9914 14.3037 29.9914C14.3939 29.9914 14.4841 29.9914 14.5744 29.9914C14.7548 29.723 15.206 28.9176 15.7473 28.2016H13.6721V24.801H12.5894V12.362H9.07049C8.98026 13.0779 8.34867 13.6149 7.53662 13.6149C6.72457 13.6149 6.00275 12.899 6.00275 12.0936C6.00275 11.2882 6.72457 10.5722 7.53662 10.5722C8.34867 10.5722 8.98026 11.1092 9.07049 11.9146ZM32.6199 14.2413V10.0353L33.7928 9.94582C34.244 10.6617 34.6049 11.1987 34.6951 11.4671V11.7356C34.8756 12.8095 35.1462 15.3152 34.6951 16.2101C34.5147 16.4785 34.3342 16.8365 34.1537 17.105H30.9958V19.6107C30.9056 19.6107 30.8153 19.6107 30.8153 19.6107C30.4544 19.5212 30.0033 19.5212 29.6424 19.5212C29.0108 19.5212 28.6499 19.6107 28.3792 19.7896H20.8001V15.4047H26.2137V6.81369H22.3339V3.14463C23.8678 3.3236 25.7626 3.77105 26.9355 4.2185V17.2839H24.0483C23.958 16.6575 23.4167 16.2101 22.6948 16.2101C21.973 16.2101 21.3414 16.8365 21.3414 17.5524C21.3414 18.2683 21.973 18.8948 22.6948 18.8948C23.3264 18.8948 23.8678 18.4473 24.0483 17.8209H27.3867V4.39748C27.6574 4.48697 27.928 4.66594 28.1987 4.75543C29.1912 5.20288 30.1837 5.73982 30.8153 6.27675C31.1762 6.63471 31.8981 7.44011 32.6199 8.33501H30.9056V14.1518H30.0935V17.0155C29.8228 16.8365 29.5521 16.6575 29.1912 16.6575C28.4694 16.6575 27.8378 17.2839 27.8378 17.9999C27.8378 18.7158 28.4694 19.3422 29.1912 19.3422C29.7326 19.3422 30.1837 19.0737 30.3642 18.6263H30.4544V18.2683C30.4544 18.1788 30.4544 18.0893 30.4544 17.9999C30.4544 17.9104 30.4544 17.8209 30.4544 17.7314V14.5098H31.2665V8.69297H32.8906C33.071 8.96143 33.3417 9.2299 33.5222 9.49837L32.1687 9.58786V14.2413C31.5371 14.3308 31.086 14.8677 31.086 15.5836C31.086 16.2996 31.7176 16.926 32.4394 16.926C33.1612 16.926 33.7928 16.2996 33.7928 15.5836C33.7026 14.8677 33.2515 14.3308 32.6199 14.2413ZM33.7026 17.8209C33.5222 17.9999 33.3417 18.1788 33.1612 18.3578C32.6199 18.8948 32.0785 19.2527 31.6274 19.4317V17.7314H33.7026V17.8209ZM34.3342 17.7314C34.6049 17.3734 34.8756 16.926 35.1462 16.4785C35.6876 15.4942 35.4169 12.9885 35.2365 11.7356V11.4671C35.056 10.3038 31.8078 6.7242 31.086 6.00828C30.4544 5.38186 29.3717 4.84492 28.3792 4.39748C28.1085 4.30799 27.8378 4.12901 27.5671 4.03952C26.0333 3.3236 22.7851 2.69718 20.9805 2.60769C20.1685 2.42871 19.176 2.42871 18.1835 2.42871C16.2887 2.42871 14.5744 2.5182 13.6721 2.69718C11.9578 2.96565 9.88253 3.86054 8.52912 4.84492C5.82229 6.99267 5.37116 8.06654 4.55911 9.76684C4.46888 9.94582 4.46888 10.1248 4.37865 10.2143C4.10797 10.7512 3.74706 11.4671 3.38615 12.0936C2.93501 12.9885 2.48388 13.7939 2.30342 14.2413C1.85228 15.7626 1.67183 18.7158 2.5741 20.0581C3.11547 20.8635 4.28843 21.4005 5.28093 21.8479C6.09298 22.2059 6.72457 23.5482 6.72457 23.8167C6.72457 24.3536 8.43889 26.3224 9.52162 26.7698C9.79231 26.8593 10.2434 26.9488 10.6044 27.0383C10.9653 27.1278 11.5066 27.2173 11.5969 27.3067V27.3962C11.5969 27.7542 11.5969 28.2911 12.2285 28.8281C12.3187 28.9176 12.4089 29.007 12.4991 29.0965V29.186H12.5894L12.6796 29.2755C13.1307 29.723 13.6721 30.2599 14.3939 30.2599C14.5744 30.2599 14.6646 30.2599 14.845 30.1704H14.9353V30.0809C14.9353 30.0809 16.3789 27.8437 16.8301 27.2173C16.9203 27.0383 17.1007 26.9488 17.191 26.7698H17.3714V26.6803C17.4616 26.5908 17.4616 26.5908 17.5519 26.5013C18.003 26.1434 18.4542 25.7854 18.5444 25.338C18.6346 24.801 20.0782 23.7272 20.5294 23.6377C20.9805 23.5482 21.973 23.5482 22.9655 23.6377C23.6873 23.7272 24.0483 23.2797 24.4092 22.9218C24.5896 22.6533 24.8603 22.4743 25.131 22.3848H25.2212H25.3114C25.8528 22.2953 26.6649 21.8479 27.2964 21.4005H27.3867V21.311C27.5671 21.132 27.8378 20.953 27.928 20.774C28.1987 20.4161 28.3792 20.2371 28.3792 20.2371C28.4694 20.2371 28.4694 20.2371 28.5596 20.1476C28.6499 20.0581 29.0108 19.9686 29.5521 19.9686C29.913 19.9686 30.274 19.9686 30.6349 20.0581C30.7251 20.0581 30.8153 20.0581 30.9056 20.0581C31.8981 20.0581 33.071 19.0737 33.4319 18.6263C33.7928 18.3578 34.0635 18.0893 34.3342 17.7314ZM27.928 20.1476C27.8378 20.2371 27.7476 20.3266 27.6574 20.4161C27.5671 20.5056 27.4769 20.595 27.3867 20.6845H19.8076V14.2413H25.2212V7.97705H21.161V2.96565C21.3414 2.96565 21.6121 2.96565 21.7926 3.05514V7.26114H25.6724V14.9572H20.2587V20.1476H27.928ZM26.5746 21.4005C26.1235 21.6689 25.5821 21.9374 25.2212 21.9374C25.131 21.9374 25.131 21.9374 25.0408 22.0269H18.5444L18.6346 18.5368H18.2737V12.9885H24.0483V9.31939H20.0782V2.87616C20.2587 2.87616 20.4392 2.87616 20.6196 2.87616V8.51399H24.6799V13.5254H19.2662V21.311H26.5746V21.4005ZM24.3189 22.4743C24.2287 22.5638 24.1385 22.6533 24.0483 22.7428C23.6873 23.1008 23.4167 23.3692 22.9655 23.2797C22.4242 23.1902 21.973 23.1902 21.5219 23.1902C21.161 23.1902 20.8001 23.1902 20.5294 23.2797V23.1902H17.3714V20.3266H16.5594V12.0041H18.2737V2.87616C18.7248 2.87616 19.176 2.87616 19.6271 2.87616V9.67735H23.5971V12.4515H17.8226V18.8948H18.1835L18.0932 22.3848H24.3189V22.4743ZM7.08548 23.3692C7.17571 23.5482 7.17571 23.7272 7.17571 23.8167C7.17571 24.0851 8.70958 25.8749 9.70208 26.3224C9.88253 26.4119 10.3337 26.5013 10.6946 26.5013C11.4164 26.5908 12.048 26.6803 12.048 27.1278C12.048 27.2173 12.048 27.2173 12.048 27.3067C12.048 27.6647 12.048 28.0227 12.4991 28.3806V25.6959H9.88253V23.1902H7.08548V23.3692ZM19.7173 23.6377C19.4467 23.8167 19.0857 24.0851 18.8151 24.3536H16.6496V21.6689H15.3864V10.9302H16.6496V2.87616C17.0105 2.87616 17.4616 2.87616 17.8226 2.87616V11.5566H16.1082V20.6845H16.9203V23.5482H19.7173V23.6377ZM18.3639 24.801C18.1835 24.98 18.0932 25.159 18.0932 25.338C18.003 25.6065 17.7323 25.9644 17.3714 26.2329H15.4766V22.7428H14.3939V10.5722H12.6796V3.3236C12.9503 3.23412 13.221 3.23412 13.4014 3.14463V4.39748H14.9353V2.96565C15.2962 2.96565 15.6571 2.96565 16.018 2.87616V10.4828H14.7548V22.1164H16.018V24.801H18.3639ZM9.79231 9.2299C9.79231 9.58786 9.52162 9.85633 9.16071 9.85633H8.25844C7.89753 9.85633 7.62685 9.58786 7.62685 9.2299C7.62685 8.87194 7.89753 8.60348 8.25844 8.60348H9.16071C9.4314 8.51399 9.79231 8.87194 9.79231 9.2299ZM9.79231 7.17165C9.79231 7.5296 9.52162 7.79807 9.16071 7.79807H8.25844C7.8073 7.79807 7.53662 7.5296 7.53662 7.17165C7.53662 6.81369 7.8073 6.54522 8.16821 6.54522H9.07049C9.4314 6.54522 9.79231 6.81369 9.79231 7.17165ZM20.8903 11.1092C20.8903 11.4671 20.6196 11.7356 20.2587 11.7356H19.3564C18.9955 11.7356 18.7248 11.4671 18.7248 11.1092C18.7248 10.7512 18.9955 10.4828 19.3564 10.4828H20.2587C20.6196 10.4828 20.8903 10.7512 20.8903 11.1092ZM25.4919 4.93441C25.4919 5.29237 25.2212 5.56084 24.8603 5.56084H23.958C23.5971 5.56084 23.3264 5.29237 23.3264 4.93441C23.3264 4.57646 23.5971 4.30799 23.958 4.30799H24.8603C25.2212 4.30799 25.4919 4.57646 25.4919 4.93441ZM13.3112 9.67735H15.1157V7.97705H13.3112V9.67735ZM13.3112 7.17165H15.1157V5.47135H13.3112V7.17165ZM21.2512 11.9146H23.0558V10.3933H21.2512V11.9146ZM27.8378 14.8677H29.3717V13.3464H27.8378V14.8677V14.8677ZM27.8378 11.7356H29.3717V10.2143H27.8378V11.7356V11.7356ZM27.8378 8.78245H29.3717V7.17165H27.8378V8.78245V8.78245ZM7.53662 10.9302C6.90503 10.9302 6.45389 11.3776 6.45389 12.0041C6.45389 12.6305 6.90503 13.0779 7.53662 13.0779C8.16821 13.0779 8.61935 12.6305 8.61935 12.0041C8.61935 11.4671 8.16821 10.9302 7.53662 10.9302ZM4.92002 14.5098C4.28843 14.5098 3.83729 14.9572 3.83729 15.5836C3.83729 16.2101 4.28843 16.6575 4.92002 16.6575C5.55161 16.6575 6.00275 16.2101 6.00275 15.5836C6.00275 15.0467 5.46138 14.5098 4.92002 14.5098ZM4.92002 18.4473C4.28843 18.4473 3.83729 18.8948 3.83729 19.5212C3.83729 20.1476 4.28843 20.595 4.92002 20.595C5.55161 20.595 6.00275 20.1476 6.00275 19.5212C6.00275 18.9842 5.46138 18.4473 4.92002 18.4473ZM32.3492 14.6888C31.8981 14.6888 31.4469 15.0467 31.4469 15.5836C31.4469 16.0311 31.8078 16.4785 32.3492 16.4785C32.8003 16.4785 33.2515 16.1206 33.2515 15.5836C33.2515 15.0467 32.8906 14.6888 32.3492 14.6888ZM29.0108 17.105C28.5596 17.105 28.1085 17.4629 28.1085 17.9999C28.1085 18.4473 28.4694 18.8948 29.0108 18.8948C29.4619 18.8948 29.913 18.5368 29.913 17.9999C29.913 17.4629 29.5521 17.105 29.0108 17.105ZM22.6948 16.568C22.2437 16.568 21.7926 16.926 21.7926 17.4629C21.7926 17.9104 22.1535 18.3578 22.6948 18.3578C23.146 18.3578 23.5971 17.9999 23.5971 17.4629C23.5971 16.926 23.146 16.568 22.6948 16.568Z" fill="white"/>
<path fill-rule="evenodd" clip-rule="evenodd" d="M65.5531 11.8251C66.1847 12.0936 66.7261 12.4516 67.1772 12.899C67.6283 13.3465 67.9892 13.8834 68.2599 14.5098C68.5306 15.1362 68.7111 15.7627 68.7111 16.4786V17.9999C68.7111 18.3579 68.5306 18.6263 68.1697 18.7158L64.4704 19.7002C64.1095 19.7897 63.929 19.7002 63.929 19.2527V16.5681C63.929 16.2996 63.8388 16.0311 63.6583 15.8522C63.4779 15.6732 63.2072 15.5837 62.9365 15.5837H62.5756C62.3049 15.5837 62.0342 15.6732 61.8538 15.8522C61.6733 16.0311 61.5831 16.2996 61.5831 16.5681V20.2371C61.5831 20.5056 61.6733 20.7741 61.7635 21.0425C61.8538 21.2215 62.0342 21.49 62.2147 21.669L67.5381 25.696C67.9892 26.0539 68.2599 26.5014 68.3502 26.8593C68.4404 27.2173 68.5306 27.6647 68.6208 28.2017V35.1819C68.6208 35.8978 68.4404 36.5242 68.1697 37.1506C67.899 37.777 67.5381 38.314 67.087 38.7614C66.6358 39.2089 66.0945 39.5668 65.4629 39.8353C64.8313 40.1038 64.1997 40.2827 63.4779 40.2827H61.944C61.2222 40.2827 60.5906 40.1038 59.959 39.8353C59.3274 39.5668 58.786 39.2089 58.3349 38.7614C57.8838 38.314 57.5228 37.777 57.2522 37.1506C56.9815 36.5242 56.801 35.8978 56.801 35.1819V31.2443C56.801 30.8864 56.9815 30.6179 57.3424 30.5284L61.0417 29.544C61.4026 29.4545 61.5831 29.544 61.5831 29.9915V35.0029C61.5831 35.2713 61.6733 35.5398 61.8538 35.7188C62.0342 35.8978 62.3049 35.9873 62.5756 35.9873H62.9365C63.2072 35.9873 63.4779 35.8978 63.6583 35.7188C63.8388 35.5398 63.929 35.2713 63.929 35.0029V29.6335C63.929 29.2756 63.8388 29.0071 63.7485 28.7386C63.6583 28.4702 63.4779 28.2017 63.2974 28.0227L57.974 23.9957C57.5228 23.6377 57.2522 23.2798 57.0717 22.8323C56.8913 22.4744 56.801 21.9374 56.801 21.311V16.4786C56.801 15.7627 56.9815 15.1362 57.2522 14.5098C57.5228 13.8834 57.8838 13.3465 58.3349 12.899C58.786 12.4516 59.3274 12.0936 59.959 11.8251C60.5906 11.5567 61.2222 11.3777 61.944 11.3777H63.4779C64.1997 11.3777 64.9215 11.5567 65.5531 11.8251ZM85.4934 15.9416C85.5836 16.0311 85.5836 16.2101 85.4934 16.2996L79.8993 26.6804L85.4032 39.5668C85.4934 39.7458 85.4032 39.8353 85.4032 39.9248C85.3129 40.0143 85.2227 40.1038 85.0422 40.1038H80.982C80.8016 40.1038 80.7113 40.0143 80.5309 39.9248C80.3504 39.8353 80.2602 39.7458 80.2602 39.5668L77.2827 32.8551L76.5609 34.1975V39.5668C76.5609 39.9248 76.3804 40.1038 76.0195 40.1038H72.4104C72.0495 40.1038 71.869 39.9248 71.869 39.5668V16.2996C71.869 15.9416 72.0495 15.7627 72.4104 15.7627H76.0195C76.3804 15.7627 76.5609 15.9416 76.5609 16.2996V23.3693L80.3504 16.2101C80.5309 15.8522 80.7113 15.7627 81.1625 15.7627H85.2227C85.4032 15.7627 85.4934 15.7627 85.4934 15.9416ZM93.0725 39.5668C93.0725 39.9248 92.892 40.1038 92.5311 40.1038H88.922C88.5611 40.1038 88.3807 39.9248 88.3807 39.5668V16.2996C88.3807 15.9416 88.5611 15.7627 88.922 15.7627H92.5311C92.892 15.7627 93.0725 15.9416 93.0725 16.2996V39.5668ZM107.419 35.8978V39.4773C107.419 39.8353 107.238 40.0143 106.877 40.0143H97.5839C97.223 40.0143 97.0425 39.8353 97.0425 39.4773V16.2101C97.0425 15.8522 97.223 15.6732 97.5839 15.6732H101.193C101.554 15.6732 101.734 15.8522 101.734 16.2101V35.2713H106.787C107.238 35.3608 107.419 35.5398 107.419 35.8978ZM120.953 35.8978V39.4773C120.953 39.8353 120.772 40.0143 120.411 40.0143H111.118C110.757 40.0143 110.577 39.8353 110.577 39.4773V16.2101C110.577 15.8522 110.757 15.6732 111.118 15.6732H114.727C115.088 15.6732 115.268 15.8522 115.268 16.2101V35.2713H120.321C120.772 35.3608 120.953 35.5398 120.953 35.8978ZM133.855 12.2726V15.8522C133.855 16.2101 133.675 16.3891 133.314 16.3891H128.622V22.2059H132.682C133.043 22.2059 133.224 22.3849 133.224 22.7428V26.3224C133.224 26.6804 133.043 26.8593 132.682 26.8593H128.622V39.3879C128.622 39.7458 128.442 39.9248 128.081 39.9248H124.472C124.111 39.9248 123.93 39.7458 123.93 39.3879V12.2726C123.93 11.9146 124.111 11.7356 124.472 11.7356H133.404C133.675 11.6462 133.855 11.8251 133.855 12.2726ZM147.75 39.5668C147.841 39.9248 147.66 40.1038 147.299 40.1038H143.6C143.239 40.1038 143.059 39.9248 142.968 39.5668L142.607 35.5398H140.081L139.72 39.5668C139.63 39.9248 139.449 40.1038 139.089 40.1038H135.389C135.028 40.1038 134.848 39.9248 134.938 39.5668L138.006 16.2996C138.096 15.9416 138.276 15.7627 138.637 15.7627H144.051C144.412 15.7627 144.683 15.9416 144.683 16.2996L147.75 39.5668ZM158.758 15.8522C159.39 16.1206 159.931 16.4786 160.382 16.926C160.833 17.3735 161.194 17.9104 161.465 18.5368C161.736 19.1633 161.916 19.7897 161.916 20.5056V23.0113C161.916 23.3693 161.736 23.6377 161.375 23.7272L157.675 24.2642C157.315 24.3536 157.134 24.2642 157.134 23.8167V20.6846C157.134 20.4161 157.044 20.1476 156.863 19.9687C156.683 19.7897 156.412 19.7002 156.142 19.7002H155.781C155.51 19.7002 155.239 19.7897 155.059 19.9687C154.878 20.1476 154.788 20.4161 154.788 20.6846V35.0029C154.788 35.2713 154.878 35.5398 155.059 35.7188C155.239 35.8978 155.51 35.9873 155.781 35.9873H156.142C156.412 35.9873 156.683 35.8978 156.863 35.7188C157.044 35.5398 157.134 35.2713 157.134 35.0029V30.1704C157.134 29.8125 157.315 29.6335 157.675 29.723L161.375 30.1704C161.736 30.2599 161.916 30.5284 161.916 30.8864V35.1819C161.916 35.8978 161.736 36.5242 161.465 37.1506C161.194 37.777 160.833 38.314 160.382 38.7614C159.931 39.2089 159.39 39.5668 158.758 39.8353C158.127 40.1038 157.495 40.2827 156.773 40.2827H155.239C154.517 40.2827 153.886 40.1038 153.254 39.8353C152.623 39.5668 152.081 39.2089 151.63 38.7614C151.179 38.314 150.818 37.777 150.547 37.1506C150.277 36.5242 150.096 35.8978 150.096 35.1819V20.5951C150.096 19.8792 150.277 19.2527 150.547 18.6263C150.818 17.9999 151.179 17.463 151.63 17.0155C152.081 16.5681 152.623 16.2101 153.254 15.9416C153.886 15.6732 154.517 15.4942 155.239 15.4942H156.773C157.495 15.4047 158.127 15.5837 158.758 15.8522ZM175.089 16.2996V19.8792C175.089 20.2371 174.909 20.4161 174.548 20.4161H171.661V39.4773C171.661 39.8353 171.48 40.0143 171.119 40.0143H167.51C167.33 40.0143 167.24 39.9248 167.149 39.8353C167.059 39.7458 166.969 39.5668 166.969 39.3879V20.5056H164.082C163.721 20.5056 163.54 20.3266 163.54 19.9687V16.3891C163.54 16.0311 163.721 15.8522 164.082 15.8522H174.638C174.909 15.7627 175.089 15.9416 175.089 16.2996ZM189.075 35.2713C189.075 35.9873 188.894 36.6137 188.623 37.2401C188.353 37.8665 187.992 38.4035 187.541 38.8509C187.09 39.2984 186.548 39.6563 185.917 39.9248C185.285 40.1933 184.653 40.3722 183.932 40.3722H182.398C181.676 40.3722 181.044 40.1933 180.413 39.9248C179.781 39.6563 179.24 39.2984 178.789 38.8509C178.338 38.4035 177.977 37.8665 177.706 37.2401C177.435 36.6137 177.255 35.9873 177.255 35.2713V20.5951C177.255 19.8792 177.435 19.2527 177.706 18.6263C177.977 17.9999 178.338 17.463 178.789 17.0155C179.24 16.5681 179.781 16.2101 180.413 15.9416C181.044 15.6732 181.676 15.4942 182.398 15.4942H183.932C184.653 15.4942 185.285 15.6732 185.917 15.9416C186.548 16.2101 187.09 16.5681 187.541 17.0155C187.992 17.463 188.353 17.9999 188.623 18.6263C188.894 19.2527 189.075 19.8792 189.075 20.5951V35.2713ZM197.105 39.5668C197.105 39.9248 196.924 40.1038 196.473 40.1038H192.864C192.503 40.1038 192.323 39.9248 192.323 39.5668V16.2996C192.323 15.9416 192.503 15.7627 192.864 15.7627H199C199.721 15.7627 200.353 15.9416 200.985 16.2101C201.616 16.4786 202.158 16.8365 202.609 17.284C203.06 17.7314 203.421 18.2684 203.691 18.8948C203.962 19.5212 204.143 20.1476 204.143 20.8636V25.875C204.143 26.8593 203.872 27.7542 203.24 28.5596C202.609 29.365 201.887 29.9915 201.075 30.4389L204.955 39.5668C205.045 39.9248 204.864 40.1038 204.504 40.1038H200.804C200.624 40.1038 200.443 40.0143 200.353 39.9248C200.173 39.8353 200.082 39.6563 200.082 39.4773L197.105 31.9602V39.5668ZM219.932 15.9416C220.023 16.0311 220.023 16.2101 219.932 16.2996L215.241 30.7074V39.5668C215.241 39.9248 215.06 40.1038 214.699 40.1038H211C210.639 40.1038 210.459 39.9248 210.459 39.5668V30.7074L205.676 16.2996C205.586 16.1206 205.676 16.0311 205.676 15.9416C205.767 15.8522 205.857 15.7627 206.037 15.7627H210.368C210.729 15.7627 211 15.9416 211 16.2996L212.624 24.0852H212.804L214.429 16.2996C214.519 15.9416 214.699 15.7627 215.06 15.7627H219.391C219.752 15.7627 219.842 15.7627 219.932 15.9416ZM142.247 30.9759L141.434 22.0269H141.074L140.262 30.9759H142.247ZM184.202 20.7741C184.202 20.5056 184.112 20.2371 183.932 20.0582C183.751 19.8792 183.481 19.7897 183.21 19.7897H182.849C182.578 19.7897 182.308 19.8792 182.127 20.0582C181.947 20.2371 181.856 20.5056 181.856 20.7741V35.0924C181.856 35.3608 181.947 35.6293 182.127 35.8083C182.308 35.9873 182.578 36.0767 182.849 36.0767H183.21C183.481 36.0767 183.751 35.9873 183.932 35.8083C184.112 35.6293 184.202 35.3608 184.202 35.0924V20.7741ZM197.105 26.5909H198.458C198.729 26.5909 199 26.5014 199.18 26.3224C199.361 26.1434 199.451 25.875 199.451 25.6065V21.0425C199.451 20.7741 199.361 20.5056 199.18 20.3266C199 20.1476 198.729 20.0582 198.458 20.0582H197.105V26.5909Z" fill="black"/>
</svg>
