<svg width="30" height="30" fill="none" xmlns="http://www.w3.org/2000/svg"><circle cx="15" cy="16.5" r="2" fill="#0075FF"/><circle cx="8" cy="16.5" r="2" fill="#0075FF"/><circle cx="22" cy="16.5" r="2" fill="#0075FF"/><circle cx="15" cy="23" r="2" fill="#0075FF"/><circle cx="8" cy="23" r="2" fill="#0075FF"/><circle cx="22" cy="23" r="2" fill="#0075FF"/><path opacity=".35" d="M25.5 3H24V1.5c0-.9-.6-1.5-1.5-1.5S21 .6 21 1.5V3H9V1.5C9 .6 8.4 0 7.5 0S6 .6 6 1.5V3H4.5C1.95 3 0 4.95 0 7.5V9h30V7.5C30 4.95 28.05 3 25.5 3zM0 25.5C0 28.05 1.95 30 4.5 30h21c2.55 0 4.5-1.95 4.5-4.5V12H0v13.5z" fill="#0075FF"/></svg>