<svg width="30" height="30" fill="none" xmlns="http://www.w3.org/2000/svg"><path opacity=".35" d="M15 0c3.973 0 7.797 1.575 10.602 4.395a14.998 14.998 0 01-2.865 23.459 14.938 14.938 0 01-14.742.39h-.047c-.448-.18-.81-.495-1.23-.705a2.143 2.143 0 00-1.468-.074 32.982 32.982 0 01-3.392.974c-.6.015-.78-.345-.78-.93.27-1.185.63-2.357 1.052-3.495a1.85 1.85 0 00-.135-1.487l-.3-.583A14.744 14.744 0 010 15.09v-.092c0-3.975 1.573-7.8 4.393-10.604A14.986 14.986 0 0115 0z" fill="#0075FF"/><circle cx="8" cy="15" r="2" fill="#0075FF"/><circle cx="15" cy="15" r="2" fill="#0075FF"/><circle cx="22" cy="15" r="2" fill="#0075FF"/></svg>