<svg width="30" height="30" fill="none" xmlns="http://www.w3.org/2000/svg"><rect width="30" height="30" rx="15" fill="#DADADA"/><path d="M8.923 14.82a.812.812 0 00-1.179 0 .889.889 0 000 1.225l4.167 4.326a.812.812 0 001.178 0l9.167-9.519a.889.889 0 000-1.224.812.812 0 00-1.179 0L12.5 18.536 8.923 14.82z" fill="#fff"/><rect width="30" height="30" rx="15" fill="#0075FF"/><path d="M8.923 14.82a.812.812 0 00-1.179 0 .889.889 0 000 1.225l4.167 4.326a.812.812 0 001.178 0l9.167-9.519a.889.889 0 000-1.224.812.812 0 00-1.179 0L12.5 18.536 8.923 14.82z" fill="#fff"/></svg>