<svg width="203" height="45" fill="none" xmlns="http://www.w3.org/2000/svg"><g clip-path="url(#clip0_47:14774)"><path fill-rule="evenodd" clip-rule="evenodd" d="M28.219 32.076c0 7.068-5.629 12.193-14.569 12.193A19.48 19.48 0 010 38.143l2.99-3.307c2.799 2.665 6.091 5.254 10.6 5.254 5.01 0 10.41-2.809 10.41-7.852 0-4.19-3.33-6.922-10.326-9.077-7.972-2.436-12.022-5.743-12.022-11.96C1.652 5.05 6.859 0 14.278 0c5.542 0 9.009 2.362 12.383 5.38l-2.94 3.263c-2.958-2.621-5.777-4.398-9.237-4.398-4.292 0-8.528 2.767-8.528 6.75 0 3.61 2.074 5.91 9.398 8.151 6.707 2.066 12.865 5.267 12.865 12.928v.002zm36.188-28a3.51 3.51 0 107.019.001 3.51 3.51 0 00-7.019 0zm33.954-2.79h-4.23v42.29h4.23V1.286zm9.87 40.882s2.604 2.115 11.278 2.115l-.005-.002c8.563 0 15.512-6.262 15.512-14.818 0-8.556-6.944-14.793-15.507-14.793a15.887 15.887 0 00-7.049 1.44V1.287h-4.229v40.882zM139.954 29.5c-.001 8.56 6.938 15.5 15.498 15.5 8.561 0 15.501-6.939 15.502-15.499 0-8.56-6.939-15.498-15.5-15.498-8.56 0-15.5 6.938-15.5 15.497zm56.645 14.089h5.52L189.914 29.05l11.382-13.634h-5.489l-8.645 10.355-8.688-10.355h-5.52l11.464 13.653-12.12 14.519h5.487l9.383-11.24 9.431 11.24zm-41.12-25.402a11.286 11.286 0 1011.284 11.285c-.001-6.232-5.052-11.284-11.284-11.285zm-35.97.72a12.569 12.569 0 00-7.049 2.284v17.455a14.247 14.247 0 007.049 1.41c6.227 0 11.277-4.351 11.277-10.574s-5.055-10.576-11.283-10.576l.006.002zM80.036 1.288h4.23v42.29h-4.23V1.286zm-26.083 42.29L39.159 28.786l13.393-13.401h5.98l-13.393 13.4L59.933 43.58h-5.98zM34.917 1.286v42.29h4.229V1.286h-4.23zM65.95 43.579h4.23V15.385h-4.23v28.194z" fill="#000"/></g><defs><clipPath id="clip0_47:14774"><path fill="#000" d="M0 0h202.5v45H0z"/></clipPath></defs></svg>