<svg width="144" height="32" fill="none" xmlns="http://www.w3.org/2000/svg"><path fill-rule="evenodd" clip-rule="evenodd" d="M20.067 22.81c0 5.025-4.003 8.67-10.36 8.67A13.853 13.853 0 010 27.124l2.126-2.352c1.99 1.895 4.332 3.737 7.539 3.737 3.562 0 7.402-1.998 7.402-5.585 0-2.978-2.368-4.921-7.343-6.454-5.67-1.732-8.55-4.084-8.55-8.505C1.175 3.59 4.877 0 10.155 0c3.94 0 6.405 1.68 8.805 3.825l-2.09 2.321c-2.104-1.864-4.11-3.127-6.57-3.127-3.051 0-6.064 1.967-6.064 4.8 0 2.567 1.475 4.202 6.683 5.796 4.77 1.47 9.149 3.745 9.149 9.193v.002zM45.8 2.898a2.495 2.495 0 104.99 0 2.495 2.495 0 00-4.99 0zM69.946.914h-3.008v30.073h3.008V.914zm7.019 29.072s1.851 1.504 8.02 1.504l-.004-.001c6.089 0 11.03-4.453 11.03-10.537 0-6.085-4.938-10.52-11.027-10.52a11.295 11.295 0 00-5.012 1.024V.915h-3.007v29.072zm22.558-9.008c0 6.087 4.933 11.021 11.021 11.022 6.087 0 11.023-4.934 11.023-11.021 0-6.087-4.934-11.021-11.022-11.022-6.087 0-11.022 4.934-11.022 11.02zm40.281 10.018h3.925L135.05 20.66l8.094-9.696h-3.903l-6.148 7.364-6.178-7.364h-3.926l8.153 9.71-8.619 10.324h3.902l6.672-7.993 6.707 7.992zm-29.241-18.063a8.025 8.025 0 00-5.677 13.701 8.026 8.026 0 105.677-13.701zm-25.58.512a8.937 8.937 0 00-5.011 1.624v12.413a10.133 10.133 0 005.012 1.002c4.428 0 8.02-3.094 8.02-7.52 0-4.424-3.596-7.52-8.024-7.52l.004.001zM56.916.915h3.007v30.073h-3.007V.915zM38.366 30.99l-10.52-10.52 9.524-9.53h4.253l-9.524 9.53 10.52 10.52h-4.253zM24.83.914v30.073h3.007V.914H24.83zM46.898 30.99h3.007V10.94h-3.007v20.05z" fill="#000"/></svg>