<svg width="313" height="253" fill="none" xmlns="http://www.w3.org/2000/svg"><path d="M198.441 94.46c-52.368 6.583-85.824 3.974-135.478-.145-2.153-.18-3.792-1.65-3.792-3.407V3.423c0-2.074 2.256-3.669 4.789-3.392 51.371 5.631 87.214 5.542 133.216.056 2.55-.304 4.839 1.295 4.839 3.386v87.602c0 1.688-1.518 3.125-3.574 3.384z" fill="#0075FF"/><path d="M152.447 19.403H72.66a2.625 2.625 0 01-2.625-2.625v-.398a2.625 2.625 0 012.625-2.625h79.787a2.625 2.625 0 012.625 2.625v.398a2.625 2.625 0 01-2.625 2.625zm36.088-.199h-24.107a2.626 2.626 0 110-5.251h24.107a2.626 2.626 0 010 5.251zm-36.088 10.223H72.66a2.625 2.625 0 01-2.625-2.625v-.397a2.625 2.625 0 012.625-2.625h79.787a2.625 2.625 0 012.625 2.625v.397a2.625 2.625 0 01-2.625 2.625zm36.088-.197h-24.107a2.626 2.626 0 010-5.251h24.107a2.625 2.625 0 110 5.251zm-36.088 10.7H72.66a2.625 2.625 0 01-2.625-2.625v-.398a2.625 2.625 0 012.625-2.625h79.787a2.625 2.625 0 012.625 2.625v.398a2.625 2.625 0 01-2.625 2.625zm36.088-.198h-24.107a2.626 2.626 0 010-5.252h24.107a2.626 2.626 0 010 5.252zm-36.088 12.132H72.66a2.625 2.625 0 01-2.625-2.625v-.398a2.625 2.625 0 012.625-2.625h79.787a2.625 2.625 0 012.625 2.625v.398a2.625 2.625 0 01-2.625 2.626zm36.088-.198h-24.107a2.626 2.626 0 010-5.251h24.107a2.626 2.626 0 010 5.251zm-36.088 10.94H72.66a2.625 2.625 0 01-2.625-2.627v-.396a2.625 2.625 0 012.625-2.626h79.787a2.625 2.625 0 012.625 2.626v.397a2.625 2.625 0 01-2.625 2.626zm36.088-.199h-24.107a2.626 2.626 0 010-5.251h24.107a2.626 2.626 0 010 5.251zm-36.088 10.7H72.66a2.625 2.625 0 01-2.625-2.625v-.397a2.625 2.625 0 012.625-2.626h79.787a2.625 2.625 0 012.625 2.626v.397a2.625 2.625 0 01-2.625 2.625zm36.088-.197h-24.107a2.626 2.626 0 010-5.252h24.107a2.626 2.626 0 010 5.251zm-36.088 10.622H72.66a2.624 2.624 0 01-2.625-2.625v-.397a2.625 2.625 0 012.625-2.626h79.787a2.625 2.625 0 012.625 2.626v.397a2.625 2.625 0 01-2.625 2.625zm36.088-.197h-24.107a2.626 2.626 0 010-5.252h24.107a2.625 2.625 0 110 5.252z" fill="#fff"/><path d="M274.974 174.337c-51.824-12.98-85.318 2.651-132.88-.408-2.666-.171-5.063-1.488-5.063-4.16V48.32c0-2.149 1.613-4.493 3.743-4.214 47.96 6.296 83.59-14.253 135.267-.01 2.066.568 3.729 2.067 3.729 4.21V170.13c0 2.562-2.309 4.829-4.796 4.207z" fill="#BABABA"/><path d="M269.549 179.2c-51.825-12.978-85.318 2.652-132.881-.406-2.667-.172-5.064-1.489-5.064-4.161V53.184c0-2.149 1.614-4.493 3.745-4.214 47.959 6.296 83.588-14.253 135.265-.012 2.067.57 3.73 2.07 3.73 4.212v121.824c0 2.563-2.31 4.828-4.795 4.206z" fill="#DCDCDC"/><path d="M174.142 74.879h-29.247a4.695 4.695 0 010-9.388h29.247a4.694 4.694 0 110 9.388zm44.235.024H189.13a4.694 4.694 0 110-9.389h29.247a4.695 4.695 0 110 9.389zm43.522 0h-29.247a4.694 4.694 0 110-9.389h29.247a4.695 4.695 0 110 9.389zm-87.757 17.845h-29.247a4.695 4.695 0 010-9.39h29.247a4.695 4.695 0 110 9.39zm44.235.025H189.13a4.695 4.695 0 010-9.39h29.247a4.695 4.695 0 110 9.39zm43.522 0h-29.247a4.695 4.695 0 010-9.39h29.247a4.695 4.695 0 110 9.39zm-87.757 16.146h-29.247a4.695 4.695 0 010-9.388h29.247a4.694 4.694 0 110 9.388zm44.235.024H189.13a4.693 4.693 0 110-9.387h29.247a4.693 4.693 0 110 9.387zm43.522 0h-29.247a4.693 4.693 0 110-9.387h29.247a4.693 4.693 0 110 9.387zm-87.757 17.845h-29.247a4.695 4.695 0 010-9.388h29.247a4.695 4.695 0 110 9.388zm44.235.025H189.13a4.695 4.695 0 010-9.388h29.247a4.695 4.695 0 110 9.388zm43.522 0h-29.247a4.695 4.695 0 010-9.388h29.247a4.695 4.695 0 110 9.388zm-87.757 16.354h-29.247a4.695 4.695 0 010-9.389h29.247a4.694 4.694 0 110 9.389zm44.235.023H189.13a4.694 4.694 0 110-9.388h29.247a4.695 4.695 0 110 9.388zm43.522 0h-29.247a4.694 4.694 0 110-9.388h29.247a4.695 4.695 0 110 9.388zm-87.757 17.845h-29.247a4.695 4.695 0 010-9.388h29.247a4.695 4.695 0 110 9.388zm44.235.026H189.13a4.695 4.695 0 010-9.389h29.247a4.694 4.694 0 110 9.389zm43.522 0h-29.247a4.695 4.695 0 010-9.389h29.247a4.694 4.694 0 110 9.389z" fill="#fff"/><path d="M40.139 10.254a5.803 5.803 0 11-11.606 0 5.803 5.803 0 0111.605 0z" fill="#ECF9FF"/><path d="M34.336 2.99c-4.005 0-7.264 3.259-7.264 7.264 0 4.006 3.259 7.265 7.264 7.265 4.006 0 7.265-3.26 7.265-7.265s-3.26-7.264-7.265-7.264zm0 14.908c-4.214 0-7.643-3.429-7.643-7.644 0-4.214 3.429-7.643 7.643-7.643 4.215 0 7.644 3.43 7.644 7.643 0 4.215-3.429 7.644-7.644 7.644z" fill="#ECF9FF"/><path d="M34.336 1.996c-4.553 0-8.258 3.705-8.258 8.258 0 4.554 3.705 8.259 8.258 8.259 4.554 0 8.259-3.705 8.259-8.259 0-4.553-3.705-8.258-8.259-8.258zm0 16.896c-4.762 0-8.637-3.874-8.637-8.637s3.874-8.638 8.637-8.638c4.764 0 8.638 3.875 8.638 8.637 0 4.764-3.874 8.638-8.638 8.638z" fill="#ECF9FF"/><path d="M102.658 117.311c-35.206-4.216-57.736-3.82-92.006.043a4.245 4.245 0 01-4.719-4.215V26.596a4.245 4.245 0 014.829-4.202c35.509 4.924 57.786 6.596 91.618.3 2.613-.485 5.028 1.511 5.028 4.169V113.1a4.243 4.243 0 01-4.75 4.21z" fill="#BABABA"/><path d="M96.725 122.849c-35.206-4.217-57.736-3.818-92.007.042A4.242 4.242 0 010 118.677V32.134a4.245 4.245 0 014.829-4.202c35.509 4.924 57.786 6.596 91.618.3 2.612-.485 5.028 1.511 5.028 4.169v86.237a4.244 4.244 0 01-4.75 4.211z" fill="#DCDCDC"/><path d="M40.903 55.416H13.484a2.975 2.975 0 110-5.95h27.419a2.976 2.976 0 110 5.95zm36.133 0H49.618a2.975 2.975 0 110-5.95h27.418a2.976 2.976 0 110 5.95zm11.396 0h-2.81a2.975 2.975 0 110-5.95h2.81a2.975 2.975 0 010 5.95zm-47.736 9.122h-27.42a2.976 2.976 0 010-5.952h27.42a2.976 2.976 0 110 5.952zm36.134 0H49.41a2.976 2.976 0 010-5.952h27.42a2.976 2.976 0 110 5.952zm11.395 0h-2.81a2.976 2.976 0 010-5.952h2.81a2.975 2.975 0 010 5.952zm-47.529 9.535h-27.42a2.975 2.975 0 110-5.951h27.42a2.976 2.976 0 110 5.95zm36.134 0H49.41a2.975 2.975 0 110-5.951h27.42a2.976 2.976 0 110 5.95zm11.395 0h-2.81a2.975 2.975 0 110-5.951h2.81a2.975 2.975 0 010 5.95zM40.67 82.689H13.25a2.975 2.975 0 010-5.952h27.42a2.976 2.976 0 010 5.952zm36.134 0h-27.42a2.976 2.976 0 110-5.952h27.42a2.976 2.976 0 010 5.952zm11.395 0h-2.812a2.976 2.976 0 010-5.952H88.2a2.976 2.976 0 010 5.952zM40.462 91.81h-27.42a2.976 2.976 0 010-5.951h27.42a2.976 2.976 0 010 5.95zm36.135 0h-27.42a2.976 2.976 0 010-5.951h27.42a2.975 2.975 0 110 5.95zm11.394 0h-2.81a2.976 2.976 0 110-5.951h2.81a2.975 2.975 0 010 5.95zm-47.529 9.534h-27.42a2.975 2.975 0 110-5.951h27.42a2.976 2.976 0 010 5.951zm36.135 0h-27.42a2.975 2.975 0 110-5.951h27.42a2.976 2.976 0 110 5.951zm11.394 0h-2.81a2.975 2.975 0 110-5.951h2.81a2.975 2.975 0 010 5.951z" fill="#fff"/><path d="M220.057 253c-40.242 0-72.866-3.106-72.866-6.939 0-1.819 7.345-3.475 19.363-4.712 19.457 4.502 41.403 6.86 64.239 6.86 4.225 0 8.485-.081 12.761-.244 15.564-.593 30.353-2.255 43.074-4.73 4.045.863 6.294 1.819 6.294 2.826 0 3.833-32.622 6.939-72.865 6.939zm10.725-5.928c-21.427-.001-42.065-2.084-60.577-6.073 13.033-1.165 30.569-1.879 49.852-1.879 27.254 0 51.012 1.426 63.51 3.536-11.996 2.166-25.69 3.625-40.057 4.172-4.268.163-8.511.244-12.728.244z" fill="#DCDCDC"/><path d="M196.026 61.625c-1.584 1.803-3.825 2.867-6 3.882 4.264 5.63 11.203 9.138 18.265 9.234 1.078.014 1.245-.433 1.029-1.338-2.008-8.377 5.956-15.619 8.701-22.745-11.091 4.481-13.002-.37-15.37-.827-4.316-.835-2.285 6.858-6.625 11.794z" fill="#FBA584"/><path d="M201.853 59.913c3.339-.091 5.009.084 12.349-2.827-4.685 6.079-4.079 2.792-8.405 5.787-4.444 3.076-7.468 2.661-11.491 3.71-2.626.683-.514-3.056-.413-3.13 2.186-1.577 2.478-2.119 3.504-3.83 1.069.08.595.396 4.456.29z" fill="#EA7957"/><path d="M194.101 53.339c-1.228 11.44 17.847 11.68 26.844-4.174 7.586-13.369-2.371-24.462-14.76-16.978-4.251 2.567-11.573 16.382-12.084 21.152zm101.021 139.337c-.224-5.111-3.183-6.641-3.183-6.641l-17.182-1 2.502 10.331s14.205-1.775 17.863-2.69z" fill="#FBA584"/><path d="M295.442 179.971a.955.955 0 011.342.001l14.73 14.506a1.158 1.158 0 01-.027 1.581c-.913.949-2.585 1.215-3.931.837-2.994-.837-6.428-5.107-13.552-2.457a.747.747 0 01-1.008-.628c-.119-1.391.172-2.836-.027-4.232-.33-2.314-2.541-2.404-2.046-4.663.126-.575 3.143-3.593 4.519-4.945z" fill="#514342"/><path d="M298.416 193.386c2.853 0 4.942 1.167 6.731 2.168.911.507 1.697.947 2.46 1.16 1.362.382 2.937.052 3.743-.786a.97.97 0 00.024-1.321c-.102-.103-11.841-11.662-14.724-14.501a.77.77 0 00-1.075-.001c-3.199 3.146-4.405 4.57-4.467 4.853-.248 1.136.221 1.65.814 2.303.504.554 1.077 1.181 1.234 2.292.111.78.073 1.575.036 2.345-.03.628-.061 1.277-.008 1.898a.56.56 0 00.753.466c1.686-.627 3.163-.876 4.479-.876zm10.375 3.869c-.428 0-.864-.057-1.286-.176-.806-.225-1.65-.696-2.543-1.194-2.547-1.424-5.716-3.194-10.893-1.269a.934.934 0 01-1.263-.787c-.055-.647-.023-1.309.007-1.949.036-.752.074-1.531-.032-2.273-.142-.996-.649-1.553-1.139-2.091-.614-.675-1.195-1.313-.904-2.639.101-.462 1.638-2.158 4.57-5.042a1.15 1.15 0 011.608.002c.146.143 14.71 14.482 14.739 14.514a1.35 1.35 0 01-.03 1.839c-.659.684-1.723 1.065-2.834 1.065z" fill="#463C3A"/><path d="M311.051 195.617a.564.564 0 01-.396-.162l-14.9-14.529a.57.57 0 01.794-.815l14.9 14.528a.57.57 0 01-.398.978zm-12.621-2.214c-.122-.009-.199-.101-.19-.206.078-.919-.429-1.857-.955-2.74l.065-.26a.19.19 0 01.261.065c.558.936 1.095 1.936 1.007 2.967a.19.19 0 01-.188.174zm2.583.431l-.076-.018a.188.188 0 01-.098-.249c.312-.71-.051-1.628-.485-2.585a.187.187 0 01.096-.25.188.188 0 01.25.094c.471 1.038.862 2.041.487 2.895l-.174.113zm2.463.845l-.102-.031-.056-.262c.209-.328-.018-1.351-.351-2.192a.19.19 0 11.352-.141c.125.314.722 1.908.316 2.538l-.159.088z" fill="#fff"/><path d="M236.443 226.181c1.334-4.938-1.023-7.291-1.023-7.291l-16.07-6.159-.745 10.604s14.076 2.611 17.838 2.846z" fill="#FBA584"/><path d="M240.597 214.171a.955.955 0 011.279.407c1.934 3.669 9.63 18.26 9.643 18.288a1.156 1.156 0 01-.504 1.498c-1.158.628-2.832.375-4-.392-2.6-1.706-4.579-6.815-12.172-6.448a.749.749 0 01-.772-.902c.31-1.364 1.025-2.651 1.258-4.042.387-2.306-1.694-3.061-.537-5.062.295-.512 4.083-2.474 5.805-3.347z" fill="#514342"/><path d="M235.62 227.316c5.146 0 7.554 2.565 9.506 4.645.714.761 1.33 1.418 1.993 1.853 1.184.776 2.783.938 3.805.384a.972.972 0 00.423-1.253l-8.881-16.84-.759-1.438a.77.77 0 00-1.024-.327c-4.001 2.027-5.581 3.02-5.728 3.271-.581 1.007-.289 1.64.078 2.442.314.681.668 1.451.484 2.558-.132.776-.408 1.523-.677 2.246-.22.589-.445 1.197-.583 1.806a.543.543 0 00.115.469.59.59 0 00.462.204 14.1 14.1 0 01.786-.02zm13.862 7.592a4.757 4.757 0 01-2.572-.778c-.699-.458-1.361-1.163-2.061-1.909-1.996-2.127-4.476-4.776-9.997-4.508a.933.933 0 01-.77-.336.916.916 0 01-.194-.797c.142-.633.374-1.254.597-1.855.262-.706.533-1.435.657-2.177.166-.991-.149-1.676-.452-2.337-.381-.829-.742-1.612-.063-2.789.295-.511 3.363-2.142 5.884-3.42a1.151 1.151 0 011.532.487l.758 1.438 8.891 16.859a1.352 1.352 0 01-.587 1.745c-.469.254-1.032.377-1.623.377z" fill="#463C3A"/><path d="M250.906 233.837a.567.567 0 01-.502-.301l-9.798-18.359a.569.569 0 111.003-.535l9.798 18.359a.57.57 0 01-.234.77l-.267.066zm-11.474-5.952l-.072-.014a.188.188 0 01-.103-.247c.353-.853.155-1.901-.081-2.902a.19.19 0 01.37-.086c.248 1.062.457 2.176.061 3.133l-.175.116zm2.331 1.194l-.125-.047-.016-.268c.512-.583.444-1.566.322-2.611a.19.19 0 01.165-.211c.103-.017.198.063.21.167.135 1.132.203 2.206-.414 2.906l-.142.064zm2.092 1.551l-.146-.069.025-.266c.301-.249.394-1.293.331-2.197a.191.191 0 01.176-.202c.112-.012.195.071.203.176.023.337.111 2.036-.468 2.515l-.121.043z" fill="#fff"/><path d="M204.857 129.068c4.036 10.488 25.892 41.885 28.777 44.257 10.49 8.623 34.441 6.327 49.888 8.006a2.597 2.597 0 011.903 1.157c1.656 2.553 1.84 4.55 1.984 10.333a2.613 2.613 0 01-2.24 2.649c-58.587 8.466-60.578 10.295-70.293-2.08l-25.235-32.152c-.637-.812-1.936-.349-1.921.683a148.337 148.337 0 01-3.196 32.843c-.2.944.333 1.89 1.247 2.199 31.813 10.748 37.167 12.866 45.008 17.431a2.639 2.639 0 011.299 2.122c.179 3.038-.572 6.235-1.542 8.834a2.59 2.59 0 01-2.181 1.664c-7.181.685-14.86-.256-21.937-1.358-33.399-5.208-36.311-6.985-38.445-8.216-9.031-5.209-7.488-26.858-7.548-32.032-.323-27.377-2.889-35.811-1.344-45.843 1.39-9.025 10.294-35.268 10.843-35.662 1.516-1.083 11.693 2.251 16.857 3.366 5.672 1.224 10.758.971 16.166-1.027.845 5.299-3.276 9.349 1.91 22.826z" fill="#514342"/><path d="M170.981 103.873c-.441 0-.768.057-.946.184-.652.806-9.406 26.705-10.767 35.536-.829 5.38-.463 10.392.089 17.978.468 6.412 1.108 15.192 1.257 27.834.007.591-.007 1.412-.024 2.362-.128 7.466-.429 24.949 7.478 29.509l.043.025c2.069 1.194 5.197 2.999 38.336 8.166 7.119 1.111 14.701 2.042 21.891 1.358a2.405 2.405 0 002.019-1.542c.807-2.159 1.727-5.431 1.532-8.757a2.434 2.434 0 00-1.205-1.968c-7.908-4.604-13.792-6.883-44.974-17.415a2.096 2.096 0 01-1.372-2.421 148.137 148.137 0 003.193-32.798 1.248 1.248 0 01.845-1.215 1.244 1.244 0 011.414.411l25.236 32.152c8.673 11.05 11.241 10.672 54.157 4.345 4.795-.706 10.094-1.487 15.959-2.335a2.423 2.423 0 002.077-2.456c-.148-5.992-.36-7.779-1.952-10.235a2.397 2.397 0 00-1.766-1.071c-4.202-.457-8.994-.618-14.065-.789-13.238-.442-28.242-.946-35.922-7.26-2.64-2.172-24.748-33.718-28.834-44.336-3.524-9.16-2.778-13.953-2.177-17.805.269-1.727.503-3.229.29-4.829-5.222 1.885-10.329 2.187-16.052.953-1.53-.33-3.479-.85-5.544-1.398-3.719-.993-8.187-2.183-10.216-2.183zm52.195 123.565c-5.618 0-11.336-.746-16.788-1.597-33.209-5.178-36.248-6.932-38.468-8.213l-.043-.024c-8.099-4.673-7.795-22.311-7.666-29.844.017-.946.03-1.765.023-2.35-.148-12.631-.788-21.405-1.255-27.812-.555-7.611-.921-12.64-.086-18.063 1.378-8.939 10.26-35.314 10.922-35.787 1.142-.815 6.397.587 11.479 1.94 2.061.549 4.006 1.067 5.527 1.396 5.73 1.235 10.832.911 16.06-1.02l.216-.08.036.228c.28 1.746.031 3.336-.256 5.177-.593 3.807-1.331 8.545 2.157 17.61 4.072 10.586 26.093 42.018 28.72 44.179 7.582 6.232 22.517 6.733 35.694 7.176 5.079.169 9.877.33 14.094.789a2.77 2.77 0 012.042 1.242c1.683 2.594 1.871 4.673 2.015 10.431a2.806 2.806 0 01-2.403 2.842c-5.865.846-11.163 1.628-15.958 2.334-43.121 6.357-45.702 6.738-54.51-4.486l-25.237-32.152a.864.864 0 00-.989-.289.87.87 0 00-.593.853 148.426 148.426 0 01-3.2 32.884 1.715 1.715 0 001.124 1.981c31.211 10.544 37.104 12.827 45.042 17.447a2.817 2.817 0 011.393 2.273c.198 3.394-.736 6.721-1.555 8.914a2.79 2.79 0 01-2.339 1.786 54.966 54.966 0 01-5.198.235z" fill="#463C3A"/><path d="M186.599 155.878l-.182-.138c-4.76-16.606-4.419-34.793.959-51.21a.19.19 0 01.361.118c-5.356 16.346-5.695 34.453-.955 50.987a.19.19 0 01-.131.235l-.052.008zm77.562 27.858c-10.848 0-18.79-.9-24.445-2.732-7.532-2.44-10.335-6.321-13.302-10.428-.407-.566-.821-1.136-1.25-1.71-7.389-9.886-9.572-14.053-11.327-17.401-1.042-1.99-1.942-3.708-3.704-6.181-1.037-1.453-2.074-2.718-3.078-3.94-5.19-6.33-9.289-11.33-7.923-34.412.007-.104.1-.19.2-.178a.19.19 0 01.179.2c-1.358 22.934 2.7 27.883 7.838 34.149 1.008 1.228 2.048 2.497 3.091 3.962 1.78 2.494 2.685 4.222 3.734 6.223 1.747 3.337 3.923 7.488 11.294 17.349.431.578.844 1.151 1.253 1.716 2.93 4.057 5.696 7.888 13.114 10.291 8.258 2.675 21.462 3.349 41.55 2.123.09-.011.194.072.201.177a.192.192 0 01-.178.202c-6.43.392-12.159.59-17.247.59zM228.06 214.78l-.071-.014c-8.374-3.404-16.613-5.526-24.579-7.579-5.483-1.412-10.662-2.746-15.847-4.459-8.759-2.896-8.346-5.391-6.055-19.236.857-5.178 1.925-11.621 2.935-20.315a.19.19 0 01.378.045c-1.013 8.701-2.08 15.15-2.938 20.332-2.298 13.885-2.651 16.019 5.8 18.813 5.171 1.711 10.344 3.043 15.821 4.453 7.979 2.056 16.23 4.181 24.628 7.595a.19.19 0 01.104.247l-.176.118z" fill="#463C3A"/><path d="M183.606 139.977l-.158-.086a68.955 68.955 0 00-1.457-2.091c-1.921-2.686-3.906-5.465-4.091-8.712-.204-3.592 2.516-17.99 4.694-24.849a.189.189 0 01.238-.123c.1.031.155.138.123.238-2.169 6.831-4.879 21.15-4.676 24.713.178 3.136 2.132 5.87 4.021 8.514.491.688 1.001 1.399 1.465 2.101l-.054.262-.105.033zm-18.94-20.712a.189.189 0 01-.032-.376c5.987-1.046 8.146-12.085 9.436-18.681l.161-.823a.189.189 0 01.223-.149c.102.02.17.12.149.221l-.161.823c-1.308 6.692-3.499 17.892-9.743 18.982l-.033.003zm34.755 6.508c-.59 0-1.122-.233-1.584-.694-2.562-2.563-2.441-11.852-2.27-15.727.005-.104.081-.183.199-.182a.191.191 0 01.18.198c-.169 3.826-.297 12.986 2.16 15.441.415.417.871.605 1.398.585.114-.017.193.076.197.179a.187.187 0 01-.18.197l-.1.003zm31.642 74.272c-4.044 0-8.097-1.305-11.311-3.756l-.035-.265.266-.037c4.471 3.412 10.605 4.556 16.006 2.989a.189.189 0 01.235.13.19.19 0 01-.13.235 18.096 18.096 0 01-5.031.704zm-43.296-40.381l-.249-.08c-1.239-.882-2.133-1.366-3.569-1.571a.19.19 0 01-.162-.213.194.194 0 01.215-.162c1.515.215 2.447.719 3.737 1.636l.048.007.025-.036c.27-2.012 2.134-4.022 3.751-4.891a.19.19 0 11.179.335c-1.556.835-3.31 2.787-3.554 4.608a.418.418 0 01-.251.332l-.17.035z" fill="#463C3A"/><path d="M263.778 157.029c-11.706-8.599-14.764-12.946-18.712-15.334l5.59-5.245c8.63 11.751 12.67 11.59 22.306 9.453 1.619-.359 1.908 1.361-.276 1.883-1.169.281-2.341.55-3.513.812 2.195 2.044 12.744 1.24 12.677 3.406-.049 1.55-5.265.577-6.511.311-1.449-.311-3.088-.72-4.313.114 7.958 3.187 11.191 3.953 9.981 5.43-2.679.453-9.594-3.373-10.825-2.505 7.755 4.725 9.009 5.197 8.437 6.107-1.005 1.235-4.242-1.765-10.247-4.291-.113.566.406 1.04.857 1.4 1.53 1.221 5.296 4.526 3.322 5.192-4.714-3.584-6.562-5.109-8.773-6.733z" fill="#FBA584"/><path d="M201.947 95.858c11.819 22.752 29.17 43.018 51.748 55.589a1.99 1.99 0 002.232-.214c2.413-1.996 3.737-3.791 4.817-5.822a1.983 1.983 0 00-.452-2.41c-31.618-28.037-40.857-57.993-45.181-67.477-5.055-11.085-20.612 6-13.164 20.334z" fill="#43C59E"/><path d="M210.5 72.157c-2.372 0-5.096 1.91-7.192 5.072-2.933 4.428-4.787 11.624-1.193 18.542 12.786 24.612 30.654 43.807 51.671 55.51a1.811 1.811 0 002.019-.194c2.135-1.765 3.561-3.49 4.771-5.766a1.785 1.785 0 00-.411-2.178c-27.549-24.429-38.162-50.392-43.261-62.87-.754-1.848-1.407-3.443-1.966-4.67-.962-2.11-2.38-3.296-4.1-3.433a4.669 4.669 0 00-.338-.013zm44.147 79.724a2.14 2.14 0 01-1.045-.269c-21.083-11.738-39.003-30.988-51.824-55.667-3.67-7.063-1.779-14.407 1.215-18.925 2.271-3.428 5.292-5.435 7.875-5.228 1.865.148 3.392 1.41 4.414 3.653.563 1.234 1.217 2.834 1.973 4.684 5.089 12.451 15.68 38.36 43.162 62.73.76.673.963 1.759.494 2.641-1.235 2.321-2.689 4.079-4.864 5.879a2.196 2.196 0 01-1.4.502z" fill="#467265"/><path d="M218.298 87.595c0 .822-.322 1.488-.72 1.488-.397 0-.718-.666-.718-1.488s.321-1.487.718-1.487c.398 0 .72.665.72 1.487zm5.014 33.356c0 .821-.323 1.488-.721 1.488-.397 0-.719-.667-.719-1.488 0-.822.322-1.488.719-1.488.398 0 .721.666.721 1.488zm17.65 16.516c0 .823-.323 1.489-.72 1.489-.398 0-.72-.666-.72-1.489 0-.821.322-1.487.72-1.487.397 0 .72.666.72 1.487zM255 147.79c0 .823-.321 1.489-.718 1.489-.398 0-.721-.666-.721-1.489 0-.821.323-1.486.721-1.486.397 0 .718.665.718 1.486zm-29.936-39.847c0 .822-.323 1.489-.721 1.489-.397 0-.718-.667-.718-1.489 0-.822.321-1.487.718-1.487.398 0 .721.665.721 1.487zm11.148 13.214c0 .821-.322 1.487-.72 1.487-.397 0-.718-.666-.718-1.487 0-.822.321-1.487.718-1.487.398 0 .72.665.72 1.487zm15.385 16.724c0 .822-.322 1.487-.72 1.487-.397 0-.72-.665-.72-1.487 0-.822.323-1.489.72-1.489.398 0 .72.667.72 1.489zm-37.269-35.925c0 .821-.323 1.488-.721 1.488-.397 0-.719-.667-.719-1.488 0-.822.322-1.488.719-1.488.398 0 .721.666.721 1.488z" fill="#fff"/><path d="M128.098 9.653c-1.336-5.583-5.139-9.316.081 10.995.468 1.82 1.593 1.496 1.859.693.264-.792-2.134-12.497-1.94-11.688z" fill="#373535"/><path d="M128.877 13.738c-.519 2.402.891 5.085.572 5.11-.299.024-2.156-4.417-2.64-3.883-1.587 1.75 1.63 5.992 3.148 5.144 1.791-.999-.313-5.118-.495-5.824-.119-.457-.447-1.187-.585-.547z" fill="#EA7957"/><path d="M132.364 29.618l4.84 8.552-6.52 3.45c-2.648-6.25-3.492-8.217-5.335-13.51-.131-.377-2.833-3.999-3.834-6.55-1.15-2.938 1.35-1.05 1.282-4.136-.011-.536.253-1.21.789-1.195.265.008.503.196.768.187.867-.028.861-2.636 2.376-1.513.455.337.651.791 2.53 4.051.114.197.423.096.386-.128-.259-1.577-1.525-5.167-.224-6.703.219-.26.64-.21.804.087 4.894 8.936 1.21 9.236 1.781 16.276.032.398.159.783.357 1.132z" fill="#FBA584"/><path d="M129.306 21.875l-.14-.062.012-.268c.633-.577.816-.979.612-1.343a.19.19 0 01.076-.259.188.188 0 01.256.074c.435.784-.381 1.529-.688 1.808l-.128.05zm-1.661 1.005l-.149-.072.03-.267c.754-.606.193-1.533-1.543-4.125-.312-.465-.655-.979-1.025-1.545l.055-.263.262.055c.37.566.712 1.078 1.024 1.542 1.736 2.593 2.529 3.776 1.464 4.631l-.118.043zm-1.962 1.155c-.867 0-2.3-1.326-3.386-2.486l.009-.269.268.01c2.288 2.441 3.062 2.39 3.196 2.356.054-.015.121-.05.154-.186.152-.63-.655-2.42-2.312-3.9l-.015-.267.268-.015c1.701 1.52 2.628 3.435 2.428 4.27-.058.241-.209.407-.426.464l-.184.023z" fill="#EA7957"/><path d="M134.353 29.175c5.034 7.564 11.287 18.754 14.468 24.562a5.354 5.354 0 004.953 2.77c21.936-1.024 28.658 1.253 33.299 2.343 4.329 1.017 6.45 15.419 1.763 18.54-4.128 2.75-11.75 5.05-15.537 4.073-14.05-3.625-29.17-7.412-33.229-11.214-5.474-5.127-12.375-29-14.269-36.903a2 2 0 01.652-1.983c1.616-1.392 3.595-2.418 5.723-3.001.825-.226 1.703.1 2.177.813z" fill="#43C59E"/><path d="M132.704 28.48c-.159 0-.319.021-.478.065-2.122.582-4.074 1.605-5.65 2.961a1.808 1.808 0 00-.59 1.795c2.275 9.493 9.014 31.939 14.214 36.81 3.869 3.624 17.938 7.25 31.544 10.755l1.601.413c3.778.975 11.373-1.375 15.385-4.046 2.601-1.732 2.974-7.024 2.221-11.207-.695-3.85-2.235-6.595-3.921-6.992-.405-.094-.824-.198-1.269-.308-4.769-1.18-11.976-2.965-31.979-2.03a5.489 5.489 0 01-5.127-2.868c-3.265-5.96-9.484-17.072-14.459-24.548a1.792 1.792 0 00-1.492-.8zm42.658 53.399c-.781 0-1.495-.073-2.111-.232l-1.602-.413c-13.652-3.518-27.768-7.155-31.709-10.846-5.781-5.417-12.877-30.964-14.323-36.997a2.188 2.188 0 01.711-2.172c1.618-1.393 3.623-2.444 5.798-3.04a2.173 2.173 0 012.386.89c4.982 7.488 11.208 18.612 14.476 24.576a5.138 5.138 0 004.777 2.673c20.059-.938 27.298.855 32.089 2.04.442.109.86.213 1.263.307 2.225.523 3.633 4.11 4.206 7.294.775 4.301.361 9.762-2.382 11.59-3.429 2.282-9.448 4.33-13.579 4.33z" fill="#467265"/><path d="M180.543 62.263c0 .821-.322 1.487-.72 1.487-.398 0-.719-.666-.719-1.487 0-.822.321-1.488.719-1.488.398 0 .72.666.72 1.488zM156.438 72.78c0 .822-.322 1.488-.72 1.488-.396 0-.719-.666-.719-1.488 0-.821.323-1.488.719-1.488.398 0 .72.667.72 1.488zm-17.786-12.393c0 .821-.323 1.488-.721 1.488-.397 0-.72-.667-.72-1.488 0-.822.323-1.487.72-1.487.398 0 .721.665.721 1.487zm23.889.783c0 .821-.321 1.487-.719 1.487-.398 0-.72-.666-.72-1.488s.322-1.487.72-1.487c.398 0 .719.665.719 1.487zm-19.697-12.473c0 .822-.322 1.488-.719 1.488-.397 0-.72-.666-.72-1.488 0-.82.323-1.488.72-1.488.397 0 .719.667.719 1.488zm-9.106-16.471c0 .822-.322 1.489-.72 1.489-.398 0-.719-.667-.719-1.489 0-.822.321-1.487.719-1.487.398 0 .72.665.72 1.487zm.508 14.438c0 .822-.323 1.488-.72 1.488-.398 0-.72-.666-.72-1.488s.322-1.487.72-1.487c.397 0 .72.665.72 1.487zm13.301 15.484c0 .822-.322 1.488-.719 1.488-.398 0-.72-.666-.72-1.488s.322-1.487.72-1.487c.397 0 .719.666.719 1.487zm22.62 10.166c0 .822-.323 1.488-.72 1.488-.398 0-.721-.666-.721-1.488 0-.821.323-1.487.721-1.487.397 0 .72.666.72 1.487z" fill="#fff"/><path d="M204.698 114.795c1.483-.998 2.107-2.84 2.621-4.553 5.428-18.092 8.795-24.167 8.795-29.597 0-4.305-2.184-9.066-6.667-12.998-6.826 3.616-15.235.18-13.421-6.022-4.21-1.031-3.849-1.845-8.953-2.775-16.662 27.72-27.93 42.412-18.952 49.188 11.414 8.615 33.248 8.994 36.577 6.757z" fill="#43C59E"/><path d="M187.169 59.06a1278.176 1278.176 0 01-6.814 11.17c-12.674 20.614-19.655 31.97-12.121 37.656 11.268 8.504 33.109 8.933 36.357 6.751l.106.158-.106-.158c1.402-.94 2.003-2.642 2.546-4.448 2.179-7.263 3.996-12.505 5.456-16.716 2.147-6.195 3.331-9.608 3.331-12.828 0-4.454-2.368-9.102-6.504-12.77-3.992 2.06-8.93 1.874-11.791-.457-1.769-1.443-2.417-3.445-1.837-5.655-1.74-.438-2.681-.837-3.591-1.223-1.173-.5-2.284-.97-5.032-1.48zm9.492 57.106c-8.32 0-20.796-2.046-28.656-7.978-7.809-5.893-.763-17.354 12.027-38.157 2.191-3.564 4.457-7.249 6.879-11.278l.067-.113.129.023c2.885.527 4.03 1.013 5.243 1.527.928.395 1.888.802 3.721 1.25l.194.048-.056.19c-.624 2.13-.033 4.064 1.66 5.445 2.379 1.942 7.091 2.687 11.489.356l.115-.061.099.086c4.278 3.752 6.732 8.542 6.732 13.141 0 3.284-1.192 6.718-3.353 12.953-1.459 4.207-3.274 9.444-5.451 16.699-.54 1.801-1.193 3.645-2.697 4.655-1.104.742-4.143 1.214-8.142 1.214z" fill="#218A6B"/><path d="M190.805 65.508c0 .822-.321 1.488-.718 1.488-.398 0-.721-.666-.721-1.488 0-.821.323-1.488.721-1.488.397 0 .718.667.718 1.488zm-14.029 24.289c0 .822-.322 1.487-.719 1.487-.398 0-.72-.665-.72-1.487 0-.822.322-1.488.72-1.488.397 0 .719.666.719 1.488zm-8.658 13.247c0 .822-.323 1.487-.72 1.487-.398 0-.719-.665-.719-1.487 0-.822.321-1.488.719-1.488.397 0 .72.666.72 1.488zm23.462-16.119c0 .82-.322 1.486-.72 1.486-.397 0-.719-.665-.719-1.486 0-.822.322-1.489.719-1.489.398 0 .72.667.72 1.489zm-6.365-11.201c0 .822-.322 1.487-.72 1.487-.397 0-.718-.665-.718-1.487 0-.822.321-1.489.718-1.489.398 0 .72.667.72 1.489zm4.541 35.506c0 .821-.323 1.488-.72 1.488-.398 0-.72-.667-.72-1.488 0-.823.322-1.488.72-1.488.397 0 .72.665.72 1.488zm-8.617-9.723c0 .822-.322 1.489-.72 1.489-.398 0-.721-.667-.721-1.489 0-.822.323-1.487.721-1.487.398 0 .72.665.72 1.487zm22.362 10.327c0 .821-.321 1.488-.718 1.488-.399 0-.721-.667-.721-1.488s.322-1.488.721-1.488c.397 0 .718.667.718 1.488zm-2.862-12.094c0 .821-.322 1.488-.72 1.488-.397 0-.72-.667-.72-1.488 0-.822.323-1.489.72-1.489.398 0 .72.667.72 1.489zm-.776-24.29c0 .823-.323 1.488-.72 1.488-.398 0-.72-.665-.72-1.487 0-.822.322-1.489.72-1.489.397 0 .72.667.72 1.489zm11.308 12.263c0 .822-.322 1.487-.72 1.487-.397 0-.72-.665-.72-1.487 0-.822.323-1.488.72-1.488.398 0 .72.666.72 1.488zm-.655-15.197c0 .822-.321 1.487-.718 1.487-.399 0-.721-.665-.721-1.487 0-.822.322-1.488.721-1.488.397 0 .718.666.718 1.488z" fill="#fff"/><path d="M144.184 61.21l-.178-.126a.19.19 0 01.115-.242 13.798 13.798 0 005.585-3.74l.269-.013.013.267a14.175 14.175 0 01-5.74 3.842l-.064.011zm106.57 87.721l-.093-.024c-18.909-10.648-30.751-30.81-39.398-45.532a.19.19 0 01.327-.193c8.624 14.686 20.436 34.797 39.258 45.393a.191.191 0 01.072.259l-.166.097zm-69.708-36.641l-.094-.026-.52-.294c-8.17-4.624-16.619-9.407-9.584-22.867a.19.19 0 11.336.175c-6.865 13.135 1.421 17.825 9.435 22.362l.522.295a.189.189 0 01.07.259l-.165.096zm.693-51.848l-.044-.005a95.486 95.486 0 00-16.056-2.485.189.189 0 01-.176-.203.191.191 0 01.201-.176 95.92 95.92 0 0116.12 2.495.189.189 0 01.139.23l-.184.144z" fill="#467265"/><path d="M226.118 40.74a.19.19 0 01-.186-.155c-.236-1.288-.771-2.214-1.467-2.542-.335-.158-.674-.16-.955-.003l-.942.525.708-.816c.908-1.046.981-1.458.923-2.913a.19.19 0 01.182-.197.192.192 0 01.198.182c.052 1.311-.008 1.875-.649 2.725.221-.005.466.046.696.154.475.224 1.325.887 1.679 2.816a.188.188 0 01-.152.22l-.035.003z" fill="#353B49"/><path d="M211.55 55c1.836-5.724 9.671-14.356 1.163-15.978-2.673-.51-5.236.34-10.014-1.244-11.208-3.711-3.436-13.837-1.562-8.185.381 1.149 2.147 1.783 2.809.77.492-.753-.308-3.732 8.742-2.998 6.256-2.175 11.596 5.948 11.016 9.941a.591.591 0 00.173.507c3.993 3.909 1.211 16.575-8.087 18.142-1.93.325-.846 7.116-3.66 6.608-2.393-.432-1.1-5.94-.58-7.563z" fill="#353B49"/><path d="M216.484 48.53c-1.484-1.45-3.553 2.172-4.53 3.998-1.925 3.598 6.866-1.71 4.53-3.997z" fill="#FBA584"/><path d="M215.152 50.133c.037-.197-.258-.251-.295-.059-.229 1.178-.852 1.608-1.39 1.615l-.148.153c.007.549 1.505-.027 1.833-1.71z" fill="#EA7957"/><path d="M206.16 48.974c.649.235 2.052-2.045.479-2.617-.839-.304-1.539 2.23-.479 2.617zm-7.085-3.014c.649.236 2.052-2.044.479-2.616-.839-.305-1.539 2.232-.479 2.617z" fill="#382823"/><path d="M199.818 40.195a5.459 5.459 0 012.169.627c.978.528.56 1.311-.272 1.166-.912-.16-1.111-.742-2.505-.88l.608-.913zm6.981 2.939c-1.06-.34-1.334.504-.653 1.003.913.669 1.542.133 3.162 1.99 1.781 2.044.797-1.93-2.509-2.993z" fill="#353B49"/><path d="M199.615 51.395l-.04-.004a3.03 3.03 0 01-1.589-.932.485.485 0 01.063-.7c.561-.443 1.922-1.687 2.448-3.662a.19.19 0 01.233-.135.19.19 0 01.135.232c-.558 2.086-1.99 3.396-2.58 3.863l-.039.07.03.087c.265.313.796.684 1.378.806a.188.188 0 01.146.224l-.185.151z" fill="#EA7957"/><path d="M200.352 55.515c-4.207 2.49-5.123-.346-4.434-2.476.043-.131.217-.213.322-.126 1.816 1.505 3.128 2.079 4.105 2.21.173.021.155.303.007.392z" fill="#fff"/><path d="M203.807 35.666c-2.153 0-2.662-.507-4.336-2.177-.188-.186-.389-.388-.61-.605-1.897-1.866-1.241-2.963-.995-3.256.408-.481 1.134-.61 1.588-.284.262.189.399.48.542.787.236.506.481 1.03 1.323 1.298a.19.19 0 01-.115.361c-1.002-.319-1.306-.972-1.551-1.497-.128-.274-.238-.51-.42-.64-.295-.213-.798-.11-1.077.22-.193.23-.694 1.103.971 2.741.221.218.424.42.611.607 1.825 1.819 2.155 2.146 4.72 2.052a.183.183 0 01.197.184.19.19 0 01-.183.196c-.238.008-.459.013-.665.013zm13.384 12.24l-.066-.011a.191.191 0 01-.112-.245l-.005-.045c-.123-.132-.709-.206-1.344-.018a.19.19 0 11-.107-.364c.621-.183 1.436-.188 1.728.123a.41.41 0 01.083.437l-.177.123zm-4.059 6.372l-.186-.148a.189.189 0 01.143-.227c1.551-.362 3.611-1.088 4.615-2.497l.265-.044.044.264c-1.072 1.505-3.223 2.27-4.839 2.647l-.042.005zm-.694 6.842l-.209-.07c-.457-.33-.677-2.015-.579-2.94a.189.189 0 01.209-.167c.104.01.179.104.168.208-.117 1.106.223 2.493.428 2.592.008-.019.366-.281.647-3.321a.191.191 0 01.206-.172c.103.01.181.102.172.207-.311 3.365-.739 3.56-.901 3.632l-.141.031zm5.67-21.006c-.405 0-.809-.05-1.202-.152a.19.19 0 11.093-.367c1.889.488 4.043-.337 5.124-1.958l.262-.053.053.263c-.941 1.413-2.639 2.267-4.33 2.267z" fill="#30323E"/><path d="M222.014 47.325a.189.189 0 01-.188-.173c-.585-6.503-1.357-6.99-1.443-7.024l-.062.023c-.417.37-.699 2.668-.25 4.367a.19.19 0 11-.367.097c-.442-1.675-.248-4.205.365-4.748a.424.424 0 01.454-.092c.702.279 1.267 2.75 1.681 7.343a.192.192 0 01-.172.207h-.018zm1.599-3.228l-.037-.003a.19.19 0 01-.15-.223 5.3 5.3 0 00-1.085-4.3l.028-.266.266.027a5.685 5.685 0 011.163 4.612.187.187 0 01-.185.153zm-4.301-5.714c-.728 0-2.48-2.559-2.618-2.796l.067-.26a.193.193 0 01.261.069c.448.765 1.808 2.424 2.223 2.596.079-1.505-.328-2.623-.686-3.61-.334-.922-.651-1.792-.526-2.808a.192.192 0 01.212-.165.189.189 0 01.165.212c-.115.925.173 1.716.505 2.632.371 1.021.792 2.18.708 3.763-.014.264-.161.339-.248.36l-.063.008zm-11.324-4.613c-.449 0-1.499-.298-4.217-1.316a.189.189 0 01-.111-.243.188.188 0 01.244-.111c2.296.859 3.657 1.293 4.056 1.293-.085-.174-.419-.527-.697-.817-.967-1.019-2.429-2.558-1.545-3.657l.268-.028.028.267c-.677.84.649 2.234 1.525 3.156.65.686.976 1.029.795 1.304-.058.086-.137.151-.346.151zm3.539 4.235c-1.026 0-2.202-.22-3.563-1.006a.19.19 0 11.189-.329c2.199 1.268 3.905.983 5.273.752.912-.153 1.697-.285 2.41.058a.19.19 0 11-.164.342c-.604-.29-1.3-.174-2.182-.026-.591.1-1.24.209-1.963.209zm9.877-1.23l-.066-.011a.19.19 0 01-.112-.244c.567-1.55.008-3.474-1.303-4.476l-.035-.267.265-.035c1.462 1.118 2.062 3.183 1.43 4.909l-.179.124zm-11.072-5.485l-.025-.002a.19.19 0 01-.163-.213c.095-.733 1.257-1.901 1.973-1.982.334-.038.715.144 1.197.373 1.017.486 2.412 1.148 4.081-.035l.263.046-.044.263c-1.851 1.313-3.423.565-4.462.07-.411-.196-.765-.366-.992-.34-.555.063-1.565 1.083-1.641 1.654a.189.189 0 01-.187.166z" fill="#30323E"/><path d="M223.05 38.135l-.163-.093.067-.26c.935-.555 1.498-.817 2.609-.826a.19.19 0 01.192.188.19.19 0 01-.188.191c-1.024.01-1.524.243-2.421.773l-.096.027z" fill="#353B49"/><path d="M66.079 130.255c-1.29-.815-2.673-1.064-4.152-.745-1.478.319-2.618 1.111-3.418 2.376-.8 1.266-1.028 2.635-.682 4.108.346 1.472 1.163 2.616 2.453 3.431l-8.7 13.755c-.785 1.242-1.002 2.609-.651 4.101.35 1.492 1.158 2.638 2.423 3.438 15.384-1.871 28.13-.162 38.238 5.126 1.124 1.346 1.732 2.834 1.825 4.464.093 1.631-.289 3.069-1.146 4.316-.856 1.247-2.041 2.043-3.555 2.39-.011 1.096-.226 2.055-.644 2.877-.418.822-.929 1.469-1.533 1.939-.604.471-1.427.87-2.468 1.197a18.56 18.56 0 01-2.884.684c-.882.128-2.011.258-3.389.389-.17 1.832.56 3.68 2.189 5.547a16.435 16.435 0 005.888 4.3c2.296 1.001 4.32 1.353 6.074 1.058.517-.442 1.537-1.259 3.058-2.454a162.055 162.055 0 003.309-2.646c.684-.57 1.636-1.456 2.855-2.657 1.22-1.202 2.165-2.292 2.835-3.272.671-.98 1.372-2.183 2.104-3.609a21.64 21.64 0 001.701-4.466l4.451 2.815c1.606 1.016 3.335 1.324 5.188.924 1.853-.399 3.278-1.387 4.275-2.963l4.35-6.877c.996-1.577 1.278-3.287.844-5.133-.433-1.845-1.453-3.276-3.058-4.291L106.344 149.3c-10.582-6.692-18.58-18.169-23.996-34.431-1.265-.8-2.646-1.039-4.145-.716-1.498.323-2.64 1.105-3.425 2.347l-8.699 13.755zm-9.012 24.59l21.611-34.173c5.024 13.273 11.775 23.276 20.254 30.009l-6.116 9.671c-9.806-4.796-21.722-6.632-35.749-5.507z" fill="#0075FF"/></svg>