<svg width="218" height="234" fill="none" xmlns="http://www.w3.org/2000/svg"><path d="M90.241 18.127L.001 18.1v64.07c30.212 1.613 60.411 2.858 90.24.472V18.127z" fill="#C9DCF3"/><path d="M0 91.507c33.891-.06 65.475-.73 90.241-1.532V61.26c-2.675-.03-5.35-.367-8.033-1.132-15.032-4.287-27.972-24.362-40.46-24.282-8.18.053-13.108 8.63-18.28 14.97C17.488 58.145 9.114 63.405 0 65.91v25.597z" fill="#43C59E"/><path d="M90.241 61.715C56.631 63.129 20.414 70.674 0 75.527v28.328a3010.93 3010.93 0 0090.241-1.531v-40.61z" fill="#43C59E"/><path d="M0 108.044h90.241V86.429a25.166 25.166 0 01-6.181-1.61C29.056 62.684 40.85 91.48 0 92.649v15.395z" fill="#43C59E"/><path d="M46.11 22.662c.013 1.134 1.303.397 1.308-.124.006-.742-1.319-.922-1.308.124z" fill="#FFFFF8"/><path d="M46.747 22.171a.405.405 0 00-.205.053c-.159.093-.191.288-.19.435.004.358.135.366.197.358.28 0 .625-.323.626-.481a.332.332 0 00-.18-.298.5.5 0 00-.248-.067zm-.198 1.33c-.325 0-.674-.22-.681-.836-.006-.527.267-.765.43-.86a.951.951 0 01.94.014.81.81 0 01.422.721c-.004.486-.64.961-1.11.961h-.001zM16.724 66.656c-.212 1.147 1.234.658 1.342.134.153-.746-1.148-1.19-1.342-.134z" fill="#FFFFF8"/><path d="M17.373 66.273a.407.407 0 00-.13.02c-.183.064-.253.257-.282.407-.067.37.079.397.134.408.284.056.7-.205.733-.366a.354.354 0 00-.125-.342.51.51 0 00-.33-.127zm-.21 1.325a.834.834 0 01-.16-.015c-.158-.03-.662-.19-.518-.97.098-.528.417-.713.598-.776a.97.97 0 01.94.198c.24.21.341.503.28.804-.088.433-.679.759-1.14.759zM67.605 55.58c-.442 1.135 1.137.918 1.35.401.304-.736-.943-1.446-1.35-.4z" fill="#FFFFF8"/><path d="M67.605 55.58l.226.088c-.146.374.005.435.062.458.268.108.765-.06.838-.237a.38.38 0 00-.062-.387.512.512 0 00-.461-.202c-.205.03-.318.217-.377.368l-.226-.087zm.49 1.062c-.138 0-.27-.021-.382-.067-.153-.06-.631-.32-.334-1.083.202-.517.561-.643.758-.672.336-.048.694.102.914.385a.85.85 0 01.128.868c-.148.36-.649.569-1.083.569zm6.258-26.445c-.494 1.27 1.272 1.026 1.511.448.34-.822-1.055-1.616-1.51-.448z" fill="#FFFFF8"/><path d="M74.579 30.285c-.173.446.015.521.086.55.318.127.887-.068.975-.282a.452.452 0 00-.074-.46.608.608 0 00-.543-.238c-.192.028-.345.177-.444.43zm.33 1.074a1.14 1.14 0 01-.424-.075c-.166-.066-.68-.347-.358-1.175.221-.565.612-.702.826-.733.366-.054.756.111.995.419.22.282.271.626.14.943-.152.365-.688.621-1.18.621zm8.851-10.894c-.64 1.644 1.648 1.33 1.956.58.44-1.066-1.367-2.094-1.956-.58z" fill="#FFFFF8"/><path d="M83.986 20.553c-.25.643.052.764.151.804.451.182 1.228-.094 1.356-.403a.656.656 0 00-.106-.67c-.187-.238-.496-.374-.77-.333-.276.04-.493.248-.631.602zm.485 1.345c-.184 0-.36-.03-.514-.092-.199-.08-.816-.417-.423-1.429.202-.517.561-.84 1.012-.905.447-.066.928.136 1.224.515.268.344.33.764.17 1.151-.182.443-.86.76-1.469.76zm3.653 15.994c.866 1.344-1.222 1.48-1.633.87-.584-.867.835-2.108 1.633-.87z" fill="#FFFFF8"/><path d="M87.302 37.612l-.03.001c-.243.014-.487.184-.606.424a.573.573 0 00.026.59c.165.244.888.343 1.246.106.077-.05.31-.203-.018-.71-.173-.27-.386-.411-.618-.411zm.09 1.742c-.451 0-.903-.163-1.102-.457a1.046 1.046 0 01-.057-1.076c.197-.397.593-.669 1.012-.692.243-.015.709.05 1.083.631.544.844.043 1.268-.124 1.377-.223.148-.517.218-.812.218zM24.915 21.743c.66 1.023-.93 1.126-1.243.663-.445-.66.636-1.605 1.243-.663z" fill="#FFFFF8"/><path d="M24.29 21.587l-.021.001a.52.52 0 00-.411.291.381.381 0 00.015.391c.108.16.628.224.869.066.05-.035.188-.125-.03-.462-.085-.132-.226-.287-.422-.287zm.061 1.324c-.352 0-.71-.12-.88-.37a.853.853 0 01-.048-.877c.16-.321.481-.54.82-.56.197-.01.575.04.876.508.443.687.027 1.037-.11 1.127-.171.113-.413.172-.658.172zm60.621 32.552c.66 1.023-.93 1.126-1.243.663-.445-.66.635-1.605 1.243-.663z" fill="#FFFFF8"/><path d="M84.347 55.308h-.02a.515.515 0 00-.413.291.377.377 0 00.016.391c.108.16.628.224.868.065.052-.033.188-.123-.03-.46-.085-.133-.226-.287-.421-.287zm.06 1.322c-.351 0-.71-.12-.88-.37a.853.853 0 01-.047-.876c.16-.32.481-.54.82-.56.196-.01.575.041.876.508.443.686.028 1.037-.11 1.127-.172.113-.413.171-.658.171zM67.413 21.32c-.09-1.09-1.28-.295-1.249.207.044.713 1.33.796 1.249-.207z" fill="#FFFFF8"/><path d="M66.987 21.015l-.02.002c-.259.017-.57.349-.561.494.009.15.107.228.188.268.14.069.312.062.428-.016.144-.099.16-.285.15-.424-.025-.296-.128-.324-.185-.324zM66.8 22.31a.952.952 0 01-.419-.096.79.79 0 01-.458-.673c-.03-.47.553-.975 1.01-1.008.317-.024.672.167.72.767.042.51-.206.759-.358.863a.887.887 0 01-.495.147zm7.701 22.861c-.186 1.015 1.093.582 1.188.119.136-.661-1.016-1.053-1.188-.119z" fill="#FFFFF8"/><path d="M74.74 45.215c-.056.299.05.32.096.329.231.045.589-.172.616-.303a.28.28 0 00-.102-.276.403.403 0 00-.38-.088c-.148.051-.207.212-.23.338zm.148.817a.819.819 0 01-.145-.013c-.3-.059-.584-.324-.48-.891.09-.482.382-.65.548-.709a.886.886 0 01.858.182c.22.192.315.461.258.738-.082.395-.619.693-1.039.693zM57.383 34.24c-.22 1.198 1.29.688 1.402.14.16-.78-1.198-1.241-1.402-.14z" fill="#FFFFF8"/><path d="M57.622 34.284c-.073.396.087.427.147.438.282.056.74-.202.778-.39a.381.381 0 00-.133-.368.52.52 0 00-.491-.112c-.196.067-.272.272-.301.432zm.22.929a.834.834 0 01-.165-.015c-.163-.032-.68-.197-.532-1.001.1-.547.43-.738.618-.803.321-.11.7-.03.97.206a.854.854 0 01.289.83c-.092.446-.702.783-1.18.783zm-20.847-5.85c-.284 1.541 1.661.885 1.806.18.206-1.005-1.544-1.601-1.806-.18z" fill="#FFFFF8"/><path d="M37.233 29.406c-.106.578.16.63.246.646.414.08 1.027-.277 1.085-.558a.558.558 0 00-.195-.54.74.74 0 00-.703-.158c-.224.078-.373.289-.433.61zm.37 1.141a1.13 1.13 0 01-.216-.02c-.194-.037-.81-.236-.63-1.208.124-.668.523-.9.75-.98.388-.136.852-.037 1.18.25.3.263.428.628.351 1.002-.103.505-.816.956-1.434.956zm.038 32.096c1.104 1.157-.922 1.684-1.44 1.163-.736-.742.424-2.228 1.44-1.163z" fill="#FFFFF8"/><path d="M36.887 62.514a.55.55 0 00-.136.017c-.236.058-.443.272-.514.53a.571.571 0 00.136.574c.207.209.936.17 1.244-.13.065-.063.265-.258-.151-.694-.187-.197-.385-.297-.579-.297zm-.04 1.737c-.326 0-.633-.09-.818-.275a1.046 1.046 0 01-.26-1.045c.12-.428.46-.769.864-.87.237-.06.706-.086 1.183.416.694.726.281 1.237.14 1.375-.27.262-.705.4-1.109.4zm19.27-4.628c.84.88-.702 1.281-1.096.885-.56-.566.322-1.696 1.096-.885z" fill="#FFFFF8"/><path d="M55.543 59.582a.38.38 0 00-.089.01.52.52 0 00-.35.363.381.381 0 00.09.381c.135.137.658.102.864-.099.044-.043.161-.156-.117-.447-.095-.1-.236-.208-.398-.208zm-.043 1.32c-.254 0-.495-.068-.65-.224a.853.853 0 01-.213-.852 1 1 0 01.7-.703c.192-.048.572-.069.956.333.564.591.221 1.013.104 1.128-.203.198-.56.319-.897.319zm-9.447-14.544c-.475 1.22 1.224.987 1.454.431.326-.791-1.015-1.555-1.454-.43z" fill="#FFFFF8"/><path d="M46.28 46.446c-.164.42.011.49.077.516.303.123.843-.062.926-.265a.425.425 0 00-.07-.434.572.572 0 00-.514-.226c-.228.034-.354.241-.42.409zm.307 1.039c-.145 0-.286-.023-.41-.073-.161-.065-.662-.338-.35-1.142.215-.549.595-.681.802-.711.356-.053.734.107.967.406a.899.899 0 01.135.916c-.147.355-.668.604-1.144.604zm-26.993-11.77c-.565 1.451 1.455 1.174 1.728.513.389-.942-1.207-1.85-1.728-.513z" fill="#FFFFF8"/><path d="M19.82 35.803c-.211.541.036.64.117.673.387.155 1.052-.078 1.16-.341a.55.55 0 00-.088-.562c-.16-.204-.422-.318-.654-.284-.233.034-.418.211-.535.514zm.413 1.207c-.168 0-.332-.026-.475-.084-.182-.073-.747-.382-.39-1.3.246-.63.68-.782.917-.817.404-.058.84.124 1.107.467.242.312.299.693.153 1.044-.167.406-.764.69-1.312.69zM5.904 21.531c-.375.96.963.777 1.144.34.257-.624-.8-1.225-1.144-.34z" fill="#FFFFF8"/><path d="M6.461 21.326a.405.405 0 00-.042.003c-.156.023-.243.17-.29.29-.11.282-.01.323.032.34.224.09.612-.058.662-.181a.28.28 0 00-.047-.29.417.417 0 00-.315-.162zm-.146 1.14a.914.914 0 01-.334-.057c-.284-.115-.513-.428-.303-.966.177-.456.496-.568.67-.593a.885.885 0 01.81.34.76.76 0 01.114.773c-.132.317-.574.503-.957.503zM5.493 62.38c-.494 1.268 1.272 1.026 1.51.448.34-.824-1.055-1.617-1.51-.449z" fill="#FFFFF8"/><path d="M6.231 62.032a.4.4 0 00-.068.005c-.192.028-.346.177-.444.43-.174.445.015.52.086.55.317.127.887-.067.975-.282a.452.452 0 00-.074-.461.623.623 0 00-.475-.242zm-.183 1.51a1.14 1.14 0 01-.423-.076c-.166-.066-.68-.347-.358-1.175.22-.565.612-.702.825-.733.366-.053.756.11.996.418a.93.93 0 01.14.944c-.152.366-.688.621-1.18.621zm21.497-12.695c-.543 1.394 1.397 1.127 1.658.493.374-.904-1.158-1.777-1.658-.493z" fill="#FFFFF8"/><path d="M27.77 50.935c-.198.511.033.604.109.634.36.145 1-.078 1.101-.322a.52.52 0 00-.084-.53c-.151-.193-.403-.302-.619-.27-.22.033-.394.201-.506.488zm.387 1.166c-.162 0-.32-.026-.459-.082-.177-.07-.725-.37-.38-1.26.239-.61.659-.757.888-.79.393-.057.813.118 1.072.45.236.303.29.672.15 1.013-.163.393-.741.669-1.271.669zM7.813 34.846c-.475 1.222 1.224.988 1.453.432.327-.793-1.015-1.556-1.453-.432z" fill="#FFFFF8"/><path d="M8.039 34.934c-.164.42.011.49.078.517.304.122.841-.063.926-.266a.427.427 0 00-.07-.434.573.573 0 00-.514-.224c-.229.033-.355.24-.42.407zm.308 1.04c-.145 0-.286-.024-.41-.073-.162-.065-.663-.338-.35-1.142.214-.549.594-.682.801-.712a1.06 1.06 0 01.967.406.9.9 0 01.135.918c-.146.354-.667.603-1.143.603zm3.531 12.738c.699 1.084-.986 1.193-1.316.702-.472-.699.673-1.7 1.316-.702z" fill="#FFFFF8"/><path d="M11.216 48.533l-.024.001a.563.563 0 00-.448.316.417.417 0 00.018.428c.117.174.68.244.94.074.058-.039.21-.14-.027-.509-.093-.143-.246-.31-.46-.31zm.075 1.404c-.38 0-.763-.14-.93-.388a.888.888 0 01-.05-.914c.166-.335.501-.565.854-.584.203-.012.601.04.916.53.463.716.031 1.08-.112 1.174a1.243 1.243 0 01-.678.181z" fill="#FFFFF8"/><path d="M158.594 71.609c-5.859 1.642-10.247 1.07-33.082-.075 8.36-8.397 13.477-19.947 14.078-31.781.166-3.252.94-3.76 2.893-4.285 24.11-6.493 19.573-7.606 15.65 5.606-5.025 16.922-4.664 19.49.461 30.535z" fill="#FF9A85"/><path d="M142.484 49.062c-3.159 1.612-3.778 1.1-4.692 1.464-.256.914-.628 2.415-2.902 7.644-.883 2.033.642 2.958 3.552.24 3.966-3.702 8.147-1.673 10.484-4.601.832-1.043 1.017-2.451 1.617-3.642.981-1.946 2.993-3.176 4.149-5.023.846-1.353 1.189-2.964 1.975-4.353.584-1.033 2.647-3.181 2.138-4.423 0 0-12.804 10.9-16.321 12.694z" fill="#EE795C"/><path d="M143.873 49.96c20.675-8.123 32.293-39.8 8.256-40.92-10.582-.493-10.722-1.359-15.921 8.279-9.828 18.217-10.436 39.752 7.665 32.64z" fill="#FF9A85"/><path d="M145.349 32.544c.986.256 2.73-3.295.338-3.915-1.278-.331-1.953 3.497-.338 3.915zm-10.843-3.439c.987.255 2.731-3.295.338-3.915-1.276-.332-1.952 3.496-.338 3.915z" fill="#382823"/><path d="M134.59 20.522a8 8 0 012.939.618c1.512.639 1.007 1.85-.238 1.752-1.259-.1-1.675-.812-3.36-.929l.659-1.441zm10.879 3.344c-1.604-.351-1.891.928-.818 1.567 1.436.855 2.286-.02 4.929 2.485 2.905 2.755.901-2.953-4.111-4.052z" fill="#92563A"/><path d="M136.035 36.985l-.028-.001c-1.064-.119-1.983-.687-2.446-1.138a.696.696 0 01-.212-.5c0-.183.074-.355.208-.483.764-.733 2.597-2.76 3.098-5.751a.242.242 0 11.477.08c-.524 3.135-2.441 5.254-3.24 6.02a.184.184 0 00-.06.136c0 .056.024.11.066.151a3.92 3.92 0 002.162 1.003.242.242 0 01-.025.483z" fill="#EE795C"/><path d="M132.117 40.953c-.131-.158-.332-.069-.399.127-1.735 5.137 2.546 5.644 4.871 2.227.071-.107-.026-.253-.149-.288-.777-.219-3.472-1.038-4.323-2.066z" fill="#fff"/><path d="M189.566 185.432c-2.599-20.524-2.772-27.177-18.637-49.118-3.152-4.358-4.73-4.853-9.382-4.236-40.456 5.36-38.178 3.983-39.334 8.378-2.69 10.224-10.972 60.98-13.073 92.413h38.07c2.428-7.833 2.119-19.412 4.192-27.734.09-.362.613-.326.657.044 1.588 13.535 4.985 19.317 7.205 27.69h35.328c.15-13.785-1.523-19.788-5.026-47.437z" fill="#637690"/><path d="M159.45 232.628h34.902c.091-9.642-.71-15.407-2.449-27.915-.697-5.019-1.565-11.264-2.577-19.25l-.358-2.848c-2.302-18.422-3.165-25.315-18.236-46.158-3.115-4.309-4.659-4.733-9.153-4.139a2692.36 2692.36 0 01-19.831 2.547c-18.493 2.323-18.493 2.323-19.154 5.061-.044.185-.092.381-.147.591-2.597 9.873-10.891 60.233-13.048 92.111h37.632c1.253-4.141 1.769-9.402 2.268-14.493.442-4.508.899-9.17 1.868-13.059a.568.568 0 01.595-.436.572.572 0 01.538.511c1.082 9.229 2.987 14.779 4.829 20.146.837 2.44 1.628 4.747 2.321 7.331zm35.381.484h-35.753l-.048-.18c-.699-2.64-1.506-4.99-2.359-7.478-1.85-5.39-3.764-10.967-4.852-20.246-.008-.065-.053-.082-.088-.084-.049.002-.082.021-.094.07-.959 3.854-1.416 8.497-1.855 12.989-.509 5.184-1.035 10.546-2.34 14.759l-.054.17h-38.507l.018-.258c2.13-31.89 10.472-82.549 13.08-92.46.054-.206.1-.4.144-.581.739-3.065.739-3.065 19.565-5.428 5.153-.648 11.568-1.453 19.827-2.548 4.651-.615 6.37-.145 9.609 4.335 15.145 20.945 16.011 27.872 18.326 46.383.114.92.234 1.867.357 2.847a1527.54 1527.54 0 002.576 19.244c1.756 12.636 2.558 18.404 2.45 28.226l-.002.24z" fill="#3B3348"/><path d="M151.87 199.987a.242.242 0 01-.229-.164c-8.438-24.619-10.47-51.962-10.69-70.564a.243.243 0 01.24-.245c.145-.007.243.105.245.24.219 18.567 2.246 45.854 10.664 70.412a.244.244 0 01-.23.321z" fill="#3B3348"/><path d="M151.916 203.738l-.028-.001a.492.492 0 01-.42-.291c-2.819-6.23-12.797-17.133-21.809-15.761a.238.238 0 01-.276-.203.241.241 0 01.202-.276c9.259-1.409 19.452 9.694 22.324 16.04 2.178-3.619 6.115-7.585 9.578-9.639a.244.244 0 01.332.085.242.242 0 01-.085.332c-3.401 2.017-7.268 5.914-9.403 9.477a.483.483 0 01-.415.237zm-8.705 26.177a.25.25 0 01-.089-.016.243.243 0 01-.136-.314c1.397-3.53 1.824-7.443 2.237-11.229.516-4.722 1.048-9.604 3.477-13.751a.242.242 0 11.419.244c-2.377 4.058-2.905 8.889-3.415 13.561-.416 3.815-.847 7.763-2.267 11.353a.245.245 0 01-.226.152zm47.07-.097a.245.245 0 01-.242-.246c-.012-.763-3.667-70.474-29.066-98.442a.242.242 0 01.359-.326c13.272 14.614 20.501 40.624 24.227 59.869 4.124 21.292 4.968 38.8 4.964 38.912a.242.242 0 01-.242.233z" fill="#3B3348"/><path d="M174.358 150.161c-.011 0-.021 0-.032-.002a23.053 23.053 0 00-1.696-.152c-3.16-.198-3.16-.198-13.022-12.966-.809-1.048-1.687-2.183-2.638-3.412a.242.242 0 11.384-.296l2.637 3.412c9.728 12.594 9.728 12.594 12.668 12.778.489.03 1.042.065 1.73.156.132.018.226.14.208.272a.24.24 0 01-.239.21zm-29.065 24.11a.261.261 0 01-.099-.02l-.52-.232c-5.727-2.536-5.727-2.536-7.62-29.127-.356-4.986-.758-10.638-1.28-17.484a.244.244 0 01.223-.261.25.25 0 01.26.224c.522 6.847.925 12.5 1.28 17.487 1.873 26.3 1.873 26.3 7.333 28.718l.522.233a.241.241 0 01-.099.462z" fill="#3B3348"/><path d="M64.043 44.88c4.262 8.804 10.104 17.373 12.52 27.342.131.537-.49.87-.854.454-7.093-8.104-10.081-17.029-15.197-25.517-.327-.543 3.622-1.87 3.53-2.28zm-9.137-8.022c.353 7.552 8.33 5.716 6.474 1.526-.876-1.978-3.037-1.599-4.546-10.611-.03-.18-.274-.22-.355-.057-1.209 2.438-1.69 6.647-1.573 9.142z" fill="#373535"/><path d="M58.738 34.638c-.657-1.358-1.316-3.437-1.89-6.868-.03-.18-.275-.22-.356-.056-1.018 2.052-1.532 5.364-1.596 7.849.348-.467.274-1.59.604-1.67.372-.09.273.647.742.954.473.31.635-.543 1.007-.67.325-.113 1.058.865 1.489.46z" fill="#EEE4D9"/><path d="M59.355 46.308c.22.562.497 1.169 1.048 1.415 1.092.488 3.218-.86 4.128-1.623.585-.49.63-.851.151-1.659-2.091-3.523-2.124-4.616-4.693-3.5-2.884 1.254-1.653 2.764-.634 5.367z" fill="#fff"/><path d="M73.337 58.796c-.375-1.689-.98-2.579-4.717-9.03a.824.824 0 00-1.127-.3c-1.356.801-1.85 2.862-1.452 4.497.47 1.918 1.724 3.555 2.33 5.435-1.819-1.364-2.776-5.064-5.093-5.758-.632-.188-1.301.156-1.549.767a8.308 8.308 0 00-.334 1.004c-.277-.517-1.784-1.114-2.45 1.574-3.186 12.873 4.634 6.469 6.397 20.776a99.135 99.135 0 003.342 16.04c.045.152 8.416-2.534 9.119-2.998 1.712-1.133.975-.837-1.307-7.92-5.187-16.105-2.24-19.939-3.16-24.087z" fill="#FF9A85"/><path d="M63.824 68.3a.24.24 0 01-.164-.065 4.797 4.797 0 01-.506-.571c-.125-.156-.243-.304-.374-.438-.3-.305-.665-.532-1.052-.772-.39-.243-.793-.494-1.13-.834-.727-.733-.987-1.712-1.076-2.405-.112-.866-.035-1.734.04-2.573a.243.243 0 01.483.043c-.073.813-.148 1.654-.043 2.468.08.619.307 1.49.94 2.126.297.3.66.525 1.042.763.394.245.802.498 1.142.844.149.153.28.317.406.476.15.189.291.366.456.518.098.09.104.243.014.342a.246.246 0 01-.178.078zm9.077 3.84a.243.243 0 01-.234-.18 24.392 24.392 0 01-.4-10.508.243.243 0 01.281-.195c.132.024.219.15.195.282a23.899 23.899 0 00.393 10.298.242.242 0 01-.235.304zm-6.968-11.482c-.462 0-1.565-.47-4.367-4.46a13.86 13.86 0 00-.104-.146.243.243 0 01.389-.29l.112.158c2.995 4.266 3.9 4.28 4.049 4.24.128-.035.22-.256.253-.607a2.668 2.668 0 00-.543-1.859.243.243 0 01.383-.297c.479.619.713 1.42.642 2.2-.053.59-.258.936-.61 1.03a.712.712 0 01-.204.031zm-2.827 1.353c-.66 0-1.453-.495-1.551-.578-.248-.207-.411-.47-.57-.727-.056-.088-.111-.177-.17-.262-.231-.338-.522-.631-.829-.942-.444-.45-.904-.916-1.166-1.523a.241.241 0 01.127-.318.241.241 0 01.317.126c.226.524.635.937 1.067 1.374.308.313.628.636.884 1.01.063.09.121.185.18.28.146.233.282.453.471.612.202.169 1.188.637 1.49.399.184-.145.159-.746-.463-1.994a.242.242 0 11.433-.216c.696 1.396.8 2.22.329 2.59a.866.866 0 01-.549.17z" fill="#EE795C"/><path d="M132.796 84.486c-1.599 10.497-23.512 36.93-30.111 44.544-4.288 4.946-9.774 10.189-16.283 9.483-15.181-1.644-22.07-49.883-22.96-59.985a2.482 2.482 0 01.897-2.141c2.223-1.816 6.403-3.028 9.497-3.296a2.477 2.477 0 012.484 1.516l12.378 29.277c.199.469.853.5 1.092.05 4.682-8.842 19.489-30.675 26.501-34.902 9.405-5.67 18.299 3.667 16.505 15.454z" fill="#0075FF"/><path d="M74.047 73.324a2 2 0 00-.19.008c-3 .259-7.18 1.457-9.365 3.242a2.24 2.24 0 00-.809 1.933c.395 4.48 2.265 19.164 6.113 33.12 4.62 16.753 10.373 25.967 16.633 26.645 6.38.695 11.706-4.364 16.073-9.402 1.154-1.331 28.276-32.733 30.055-44.421l.239.037-.239-.037c.96-6.307-1.252-12.456-5.505-15.303-3.204-2.143-6.981-2.11-10.636.093-6.773 4.084-21.385 25.312-26.412 34.808a.83.83 0 01-.783.449.845.845 0 01-.746-.518L76.098 74.701a2.232 2.232 0 00-2.05-1.377zm13.52 65.495c-.393 0-.79-.022-1.19-.065-14.974-1.623-22.09-47.901-23.177-60.205a2.72 2.72 0 01.986-2.35c2.366-1.933 6.65-3.092 9.629-3.35a2.714 2.714 0 012.729 1.664l12.377 29.276a.36.36 0 00.32.223.349.349 0 00.335-.191c4.378-8.27 19.346-30.63 26.589-34.996 3.826-2.307 7.788-2.335 11.157-.081 4.475 2.995 6.717 9.188 5.713 15.778-1.8 11.825-29.01 43.331-30.168 44.666-3.934 4.541-9.17 9.631-15.3 9.631z" fill="#113763"/><path d="M169.253 70.952c-4.417-2.897-5.705-5.173-14.342-9.197-9.926 6.686-25.891 12.71-22.908 1.637-6.698 1.991-15.118 5.033-15.712 5.64-10.313 39.563-4.698 62.829 3.73 81.952 21.247 6.59 38.342 2.2 56.715-6.247-.43-29.815-6.266-67.262-7.483-73.785z" fill="#FFFFF7"/><path d="M120.198 150.784c22.435 6.925 40.317 1.13 56.293-6.2-.45-29.959-6.272-67.07-7.458-73.486-1.351-.893-2.434-1.745-3.482-2.569-2.361-1.857-4.803-3.776-10.618-6.497-6.29 4.217-14.105 7.737-18.955 7.737-1.304 0-2.393-.254-3.181-.818-1.341-.959-1.722-2.708-1.133-5.205-6.554 1.97-14.35 4.808-15.158 5.42-10.541 40.495-4.064 63.989 3.692 81.618zm20.037 3.625c-6.702 0-13.404-1.06-20.286-3.194l-.106-.033-.044-.101c-5.151-11.687-7.9-21.983-8.913-33.386-1.287-14.501.404-30.438 5.17-48.724l.016-.062.046-.047c.698-.713 9.647-3.868 15.816-5.702l.416-.124-.112.419c-.676 2.504-.392 4.22.841 5.102 3.431 2.453 13.727-1.635 21.697-7.003l.113-.076.124.057c5.956 2.775 8.437 4.726 10.838 6.613 1.11.874 2.16 1.7 3.534 2.602l.086.056.02.102c1.145 6.135 7.052 43.644 7.487 73.825l.003.158-.144.067c-10.607 4.876-19.042 7.585-27.346 8.781-3.095.446-6.177.67-9.256.67z" fill="#EEE4D9"/><path d="M88.517 133.733c-1.75 0-3.348-.574-4.668-1.686a.242.242 0 11.312-.371c1.44 1.214 3.24 1.74 5.205 1.526 3.35-.365 6.88-2.77 9.94-6.77a132.56 132.56 0 011.995-2.527c3.261-4.062 6.957-8.666 15.381-23.414a.241.241 0 11.42.239c-8.442 14.782-12.151 19.402-15.423 23.478-.682.85-1.327 1.653-1.988 2.518-3.142 4.106-6.79 6.578-10.271 6.958a8.389 8.389 0 01-.903.049z" fill="#113763"/><path d="M123.39 129.257c2.708 23.186-6.203 44.773.038 65.483-5.751 1.406-12.539 1.022-19.701-1.306-.841-17.148 2.695-34.171 4.265-51.268 3.194-34.79 1.148-56.305 8.299-73.134 3.223-2.686 8.677-6.008 16.434-6.81-6.791 31.006-12.576 39.279-9.335 67.035z" fill="#0075FF"/><path d="M103.962 193.256c6.833 2.194 13.448 2.646 19.161 1.309-3.424-11.584-2.179-23.278-.861-35.655 1.02-9.573 2.074-19.471.888-29.625-2.41-20.639.162-30.537 4.422-46.937 1.463-5.632 3.118-12.004 4.844-19.85-7.524.856-12.799 4.087-15.925 6.682-4.769 11.261-5.411 24.478-6.297 42.76-.428 8.83-.914 18.838-1.961 30.247-.488 5.309-1.175 10.696-1.84 15.907-1.47 11.509-2.988 23.408-2.431 35.162zm12.377 2.545c-4.03 0-8.316-.716-12.686-2.136l-.16-.051-.007-.168c-.581-11.849.948-23.828 2.427-35.414.664-5.206 1.351-10.588 1.838-15.888 1.046-11.4 1.532-21.402 1.959-30.227.89-18.362 1.534-31.628 6.358-42.98l.022-.054.045-.037c3.219-2.684 8.706-6.053 16.564-6.865l.334-.035-.071.328c-1.754 8.006-3.437 14.482-4.921 20.197-4.246 16.344-6.81 26.209-4.409 46.757 1.191 10.208.134 20.134-.888 29.734-1.322 12.414-2.571 24.138.916 35.709l.074.244-.249.06c-2.256.552-4.651.826-7.146.826z" fill="#113763"/><path d="M118.223 188.279a.241.241 0 01-.239-.209c-1.184-8.414-.19-17.012.771-25.326.619-5.353 1.259-10.888 1.315-16.331.059-5.859-.54-11.506-1.175-17.482-1.565-14.743-3.184-29.987 5.018-50.153a.242.242 0 11.448.182c-8.155 20.054-6.543 35.237-4.984 49.919.636 5.992 1.237 11.651 1.177 17.539-.056 5.469-.697 11.016-1.318 16.382-.958 8.284-1.947 16.85-.772 25.203a.244.244 0 01-.206.274l-.035.002z" fill="#113763"/><path d="M136.213 72.957c-1.886 0-3.711-.31-5.44-.938a.243.243 0 01-.146-.31.245.245 0 01.312-.146c5.414 1.966 11.826.719 18.052-3.514a.24.24 0 01.336.064.241.241 0 01-.064.337c-4.383 2.978-8.865 4.507-13.05 4.507z" fill="#D0AB9E"/><path d="M122.384 156.839c-20.755 6.082-21.424-1.278-24.902-7.251-.268-.459-.034-1.065.482-1.192 1.026-.25 2.261.197 3.116.909 2.75 2.285 3.382 6.541 12.545 4.535 8.506-1.863 4.69-6.823-2.003-6.754-.761.008-1.568-.616-2.161-1.248a.893.893 0 01-.104-1.072c.298-.505.796-.181 5.24-1.128 4.85-1.032 3.552 4.038 14.352 2.954 9.656-.969 19.299-2.065 28.927-3.287-.561.071.38 9.025.487 9.879.241 1.922.448 2.218-1.585 2.353-3.17.21-27.25-.79-34.394 1.302z" fill="#FF9A85"/><path d="M167.076 183.214c.743 2.547 1.756 2.654 3.789 1.792 13.082-5.549 27.602 4.873 41.787 4.01 17.818-1.084-19.813-36.495-30.189-62.515-6.776-16.991-9.411-51.118-13.21-55.549-2.317-2.702-9.211-8.73-14.342-9.197-2.901 8.73-3.177 13.18-3.651 17.241-4.147 35.513 5.723 69.656 15.816 104.218z" fill="#0075FF"/><path d="M179.374 183.116c5.013 0 10.165 1.386 15.505 2.824 5.835 1.569 11.871 3.191 17.758 2.833 2.216-.134 3.577-.795 4.161-2.02 2.047-4.293-5.548-14.932-14.343-27.249-7.53-10.547-16.066-22.501-20.218-32.913-3.587-8.998-5.966-22.499-8.066-34.41-1.798-10.212-3.353-19.032-5.102-21.07-2.504-2.921-9.126-8.523-13.989-9.095-2.547 7.706-3.02 11.981-3.439 15.757-.046.424-.093.84-.14 1.251-4.171 35.706 5.985 70.487 15.807 104.122.328 1.123.709 1.754 1.199 1.987.482.228 1.137.127 2.263-.35 2.827-1.199 5.691-1.667 8.604-1.667zm31.578 6.193c-5.414 0-10.887-1.473-16.198-2.903-8.362-2.249-16.258-4.373-23.795-1.177-.926.393-1.89.707-2.659.342-.633-.299-1.082-1.006-1.457-2.29-9.835-33.681-20.005-68.509-15.823-104.313l.14-1.248c.424-3.83.905-8.171 3.521-16.042l.061-.182.191.018c5.018.457 11.922 6.27 14.504 9.28 1.836 2.141 3.326 10.597 5.212 21.302 2.095 11.89 4.469 25.364 8.039 34.315 4.13 10.358 12.647 22.287 20.162 32.811 8.883 12.443 16.555 23.189 14.385 27.74-.666 1.398-2.161 2.15-4.568 2.296-.571.034-1.143.051-1.715.051z" fill="#113763"/><path d="M210.78 183.615a.24.24 0 01-.22-.141c-4.781-10.482-11.243-20.709-17.49-30.6-5.916-9.364-12.034-19.046-16.852-29.098-5.741-11.977-11.334-24.969-13.365-38.814a.242.242 0 01.48-.071c2.021 13.781 7.597 26.733 13.322 38.675 4.807 10.027 10.916 19.697 16.824 29.05 6.257 9.905 12.726 20.145 17.521 30.657a.242.242 0 01-.22.342z" fill="#113763"/><path d="M129.04 157.367a1.9 1.9 0 001.479 1.192c14.815 2.32 29.94 1.454 44.92.582 28.448-1.658 19.248-17.35 7.329-67.783-1.442-6.103-9.041-16.013-13.515-20.405-3.69-3.624-10.013.656-9.722 19.881.083 5.49 1.685 17.382 10.304 43.711a1.06 1.06 0 01-.911 1.385c-13.212 1.258-25.333 4.076-39.704 8.53a1.922 1.922 0 00-1.338 1.599c-.446 3.577-.036 8.197 1.158 11.308z" fill="#0075FF"/><path d="M166.67 70.023c-.401 0-.804.084-1.202.255-2.885 1.237-5.896 7.284-5.695 20.552.088 5.835 1.946 18.143 10.293 43.639a1.306 1.306 0 01-1.119 1.703c-12.304 1.17-24.165 3.718-39.656 8.518a1.689 1.689 0 00-1.169 1.399c-.454 3.647.016 8.249 1.144 11.191.211.549.706.948 1.291 1.039 14.862 2.328 30.117 1.44 44.868.579 8.67-.505 13.693-2.312 16.286-5.857 4.738-6.476 1.621-18.699-4.035-40.886-1.558-6.113-3.324-13.043-5.144-20.742-1.404-5.94-8.843-15.766-13.448-20.288-.743-.73-1.572-1.102-2.414-1.102zm-14.711 90.269c-7.18 0-14.37-.38-21.477-1.494a2.144 2.144 0 01-1.668-1.345c-1.173-3.057-1.644-7.647-1.172-11.424a2.167 2.167 0 011.506-1.801c15.525-4.811 27.414-7.365 39.753-8.539a.819.819 0 00.704-1.068c-8.365-25.555-10.228-37.915-10.317-43.783-.173-11.472 2.065-19.324 5.989-21.005 1.429-.613 2.9-.277 4.146.946 4.646 4.562 12.156 14.494 13.58 20.521 1.819 7.697 3.585 14.623 5.143 20.735 5.692 22.331 8.827 34.631 3.956 41.292-2.687 3.673-7.821 5.541-16.649 6.055-7.734.451-15.608.91-23.494.91zm-63.201-43.146a.243.243 0 01-.225-.333c1.455-3.614 1.606-7.814.416-11.522a.243.243 0 01.157-.305.241.241 0 01.304.157c1.225 3.814 1.068 8.134-.428 11.851a.241.241 0 01-.224.152z" fill="#113763"/><path d="M179.632 141.461c-3.722 0-7.371-2.114-9.151-5.41a.241.241 0 01.099-.327.24.24 0 01.327.097c1.867 3.46 5.898 5.556 9.803 5.092a.248.248 0 01.27.213.243.243 0 01-.213.269 9.587 9.587 0 01-1.135.066zm-.853-46.037a.24.24 0 01-.234-.186c-2.629-10.862-6.365-18.138-11.113-21.64a.236.236 0 01-.109-.08c-.139-.1-.28-.199-.423-.293l-.655-.438.789-.006c.201 0 .465.074.658.406 4.856 3.567 8.664 10.941 11.323 21.937a.241.241 0 01-.236.3z" fill="#113763"/><path d="M154.967 19.26c.11-2.366.306-7.82 4.538-8.844 1.558-.376 2.996.132 4.416.902 3.782 2.046 5.512 6.545 4.116 10.612-1.64 4.776-4.992 11.663-11.696 25.456-1.19-9.486-1.769-18.533-1.374-28.126z" fill="#92563A"/><path d="M158.064 29.015c-2.706-1.443-4.134 4.553-4.76 7.547-1.233 5.901 9.024-5.276 4.76-7.547z" fill="#FF9A85"/><path d="M156.84 31.837c-.028-.293-.468-.249-.441.042.165 1.764-.54 2.632-1.3 2.866a.221.221 0 00-.145.277c.238.777 2.122-.662 1.886-3.184z" fill="#EE795C"/><path d="M139.06 12.817c2.802.941 6.575-.858 8.475 1.407 1.023 1.223 1.783 6.577 7.853 8.262 1.864.517 2.266-.256 3.059-1.279 2.18-2.813 6.293-3.992 7.646-7.285 1.529-3.722-1.913-8.409-6.039-8.33-1.014.02-2.03-.149-2.928-.621-20.727-10.9-19.009-.58-18.664.113 1.455 2.914-3.22 6.45.598 7.733z" fill="#92563A"/><path d="M156.287 20.575a.243.243 0 01-.224-.15.243.243 0 01.13-.316c2.9-1.213 6.871-2.874 8.707-6.356a.242.242 0 11.428.226c-1.917 3.636-5.981 5.335-8.948 6.577a.248.248 0 01-.093.018zm-.433 7.99a.243.243 0 01-.218-.35c.397-.803 1.329-1.314 2.221-1.21a.242.242 0 11-.056.482 1.767 1.767 0 00-1.73.943.243.243 0 01-.217.135zm.621 9.769a.243.243 0 01-.183-.4c.188-.219.374-.431.554-.64 1.624-1.863 2.907-3.336 3.113-5.142a.239.239 0 01.268-.213.242.242 0 01.213.268c-.223 1.955-1.548 3.478-3.227 5.405-.182.208-.367.42-.554.638a.242.242 0 01-.184.084zm.33 6.062a.241.241 0 01-.237-.296c.319-1.373 1.059-2.592 1.776-3.77l.209-.346a60.556 60.556 0 006.289-14.326.243.243 0 01.466.135 61.06 61.06 0 01-6.34 14.44l-.211.348c-.696 1.146-1.416 2.33-1.717 3.627a.24.24 0 01-.235.188zm10.22-23.802a.241.241 0 01-.233-.31 4.25 4.25 0 00-.611-3.551.243.243 0 01.396-.281 4.684 4.684 0 01.681 3.966.243.243 0 01-.233.176zm-5.74-9.87a.241.241 0 01-.235-.3c.134-.538.329-2.4-2.746-3.845a.245.245 0 01-.116-.323.244.244 0 01.323-.116c3.408 1.604 3.165 3.773 3.008 4.4a.24.24 0 01-.234.184zm-2.292 5.666a.667.667 0 01-.303-.072c-2.114-1.087-2.496-1.63-2.943-2.426a.242.242 0 11.422-.237c.415.738.746 1.206 2.743 2.232a.179.179 0 00.133.012.139.139 0 00.081-.067c.681-1.331-.648-2.907-2.852-5.518-.401-.475-.83-.983-1.277-1.528a.24.24 0 01.032-.34.243.243 0 01.342.033c.447.543.873 1.049 1.274 1.523 2.332 2.764 3.74 4.432 2.913 6.05a.622.622 0 01-.565.339zm-18.011-5.503c-.857 0-1.327-.142-1.548-.458-.275-.39-.074-.894.16-1.477.313-.781.667-1.666.083-2.548a.242.242 0 11.404-.267c.724 1.094.284 2.193-.037 2.995-.174.434-.338.843-.214 1.02.092.13.412.277 1.437.245l3.066-.1a.24.24 0 01.25.234.242.242 0 01-.235.25l-3.065.1a8.333 8.333 0 01-.301.006zm7.083-6.586a.242.242 0 01-.204-.112c-1.57-2.451-4.159-2.741-5.514-2.338-.702.208-1.136.593-1.132 1.004a.242.242 0 01-.485.004c-.005-.646.548-1.196 1.478-1.473 1.851-.55 4.526.147 6.062 2.542a.245.245 0 01-.074.335.244.244 0 01-.131.038zm3.368 11.713a.243.243 0 01-.242-.243l.001-.325c.011-2.383.03-5.983-4.424-7.155a.242.242 0 01.123-.468c4.816 1.267 4.797 5.247 4.785 7.625v.323a.243.243 0 01-.243.243zm11.289 8.424a.242.242 0 01-.234-.306 7.056 7.056 0 00-.69-5.328.241.241 0 01.088-.331.242.242 0 01.331.087 7.448 7.448 0 01.738 5.7.243.243 0 01-.233.178z" fill="#7D3B1A"/><path d="M112.773 158.411c-16.095 6.516-39.288-3.19-31.323-12.749 3.7-4.44 12.721-5.416 21.41-2.992 4.128 1.152 8.053 2.904 11.917 4.736 6.398 3.034 4.645 8.314-2.004 11.005z" fill="#514342"/><path d="M93.723 141.61c-5.32 0-9.803 1.465-12.086 4.206-1.955 2.345-2.074 4.836-.346 7.204 4.532 6.211 19.907 9.816 31.391 5.166 3.539-1.432 5.778-3.698 5.842-5.914.053-1.794-1.316-3.445-3.852-4.647-3.489-1.655-7.572-3.52-11.878-4.722-3.123-.872-6.218-1.293-9.07-1.293zm7.43 19.162c-8.71 0-17.076-3.111-20.254-7.467-1.873-2.567-1.746-5.264.365-7.799 3.628-4.353 12.535-5.615 21.66-3.07 4.342 1.212 8.448 3.088 11.956 4.751 2.72 1.29 4.187 3.101 4.128 5.1-.07 2.446-2.368 4.82-6.144 6.349-3.665 1.483-7.725 2.136-11.711 2.136z" fill="#463C3A"/><path d="M94.138 145.593a2.208 2.208 0 11-4.417-.001 2.208 2.208 0 014.417.001z" fill="#43C59E"/><path d="M104.884 146.697a2.208 2.208 0 11-4.417 0 2.208 2.208 0 114.417 0z" fill="#C9DCF3"/><path d="M93.48 155.048a2.209 2.209 0 11-4.418 0 2.209 2.209 0 014.418 0zm-7.004-5.618a2.208 2.208 0 11-4.417.002 2.208 2.208 0 014.417-.002z" fill="#43C59E"/><path d="M104.238 156.379a2.208 2.208 0 11-4.416 0 2.208 2.208 0 014.416 0z" fill="#FFFFF8"/><path d="M114.222 153.162a2.209 2.209 0 11-4.418 0 2.209 2.209 0 014.418 0z" fill="#EEE4D9"/><path d="M118.418 149.962c-.518-1.541-3.92-3.21-7.088-2.835-.755.091-1.568-.615-2.161-1.247a.893.893 0 01-.103-1.072c.297-.506.796-.182 5.24-1.128 4.185-.891 3.791 2.762 10.542 3.084l-6.43 3.198z" fill="#FF9A85"/></svg>