<svg width="237" height="253" fill="none" xmlns="http://www.w3.org/2000/svg"><path d="M196.159 17.539v186.653c0 9.685-4.679 17.537-10.452 17.539l-175.232.062c-5.773.002-10.454-7.85-10.456-17.537L0 17.542C-.001 7.854 4.68 0 10.453 0h175.252c5.773 0 10.454 7.852 10.454 17.539z" fill="#D3E8E2"/><path d="M11.381 1.823c-2.413 0-4.725 1.653-6.512 4.655-1.886 3.17-2.924 7.402-2.924 11.92l.02 186.118c0 4.517 1.04 8.749 2.926 11.917 1.786 3 4.099 4.651 6.51 4.651l174.493-.061c5.114-.002 9.435-7.59 9.435-16.572V18.395c0-8.983-4.322-16.572-9.437-16.572H11.381zm.02 221.084c-3.148 0-6.063-1.983-8.208-5.584C1.147 213.887.02 209.339.02 204.516L0 18.398c0-4.824 1.126-9.372 3.171-12.81C5.317 1.986 8.232 0 11.381 0h174.511c6.382 0 11.381 8.08 11.381 18.395v186.056c0 10.314-4.997 18.394-11.378 18.395l-174.492.061h-.002z" fill="#43C59E"/><path d="M113.884 71.33H14.288c-2.351 0-4.257-1.373-4.257-3.067V16.442c0-1.695 1.906-3.068 4.257-3.068h99.596c2.351 0 4.257 1.373 4.257 3.068v51.821c0 1.694-1.906 3.067-4.257 3.067z" fill="#fff"/><path d="M14.736 14.074c-2.057 0-3.732 1.202-3.732 2.68v51.197c0 1.478 1.675 2.68 3.732 2.68h98.699c2.058 0 3.733-1.202 3.733-2.68V16.755c0-1.479-1.675-2.681-3.733-2.681H14.736zm98.699 57.256H14.736c-2.594 0-4.705-1.515-4.705-3.38V16.756c0-1.864 2.11-3.38 4.705-3.38h98.699c2.595 0 4.706 1.516 4.706 3.38V67.95c0 1.864-2.111 3.38-4.706 3.38z" fill="#43C59E"/><path d="M41.238 37.894a6.128 6.128 0 006.13-6.13 6.128 6.128 0 00-6.13-6.13 6.128 6.128 0 00-6.13 6.13 6.128 6.128 0 006.13 6.13zm0 3.065c-4.092 0-12.26 2.054-12.26 6.13v1.533c0 .843.69 1.532 1.532 1.532h21.455c.843 0 1.533-.69 1.533-1.532v-1.533c0-4.076-8.168-6.13-12.26-6.13zm30.092-3.065a6.128 6.128 0 006.13-6.13 6.128 6.128 0 00-6.13-6.13 6.128 6.128 0 00-6.13 6.13 6.128 6.128 0 006.13 6.13zm0 3.065c-4.091 0-12.26 2.054-12.26 6.13v1.533c0 .843.69 1.532 1.533 1.532h21.455c.843 0 1.532-.69 1.532-1.532v-1.533c0-4.076-8.168-6.13-12.26-6.13z" fill="#DCDCDC"/><path d="M42.6 58.655c-2.058 0-3.732 1.203-3.732 2.681v51.196c0 1.479 1.674 2.68 3.732 2.68h98.698c2.059 0 3.733-1.201 3.733-2.68V61.336c0-1.478-1.674-2.68-3.733-2.68H42.6zm98.698 57.257H42.6c-2.595 0-4.706-1.516-4.706-3.38V61.336c0-1.864 2.111-3.38 4.706-3.38h98.698c2.595 0 4.706 1.516 4.706 3.38v51.196c0 1.864-2.111 3.38-4.706 3.38z" fill="#fff"/><path d="M105.014 112.153c-2.058 0-3.732 1.203-3.732 2.681v51.196c0 1.478 1.674 2.68 3.732 2.68h98.698c2.059 0 3.734-1.202 3.734-2.68v-51.196c0-1.478-1.675-2.681-3.734-2.681h-98.698zm98.698 57.257h-98.698c-2.595 0-4.706-1.516-4.706-3.38v-51.196c0-1.864 2.111-3.38 4.706-3.38h98.698c2.595 0 4.706 1.516 4.706 3.38v51.196c0 1.864-2.111 3.38-4.706 3.38z" fill="#fff"/><path d="M165.678 132.664H79.61a3.334 3.334 0 01-3.334-3.334V78.496a3.334 3.334 0 013.334-3.334h86.068a3.333 3.333 0 013.333 3.334v50.834a3.334 3.334 0 01-3.333 3.334z" fill="#fff"/><path d="M79.61 75.65a2.85 2.85 0 00-2.846 2.846v50.833a2.849 2.849 0 002.846 2.846h86.068a2.848 2.848 0 002.845-2.846V78.496a2.849 2.849 0 00-2.845-2.846H79.61zm86.068 57.502H79.61a3.826 3.826 0 01-3.821-3.823V78.496a3.826 3.826 0 013.821-3.822h86.068a3.825 3.825 0 013.821 3.822v50.833a3.826 3.826 0 01-3.821 3.823z" fill="#43C59E"/><path d="M176.949 79.186h1.215a.317.317 0 00.317-.316v-.909a.317.317 0 00-.317-.316h-1.215a.317.317 0 00-.317.317v.908c0 .174.141.316.317.316z" fill="#BEC0C2"/><path d="M177.017 79.108l-.188-.087a.245.245 0 01.032-.344l1.078-.899a.245.245 0 01.313.376l-1.079.898-.156.056z" fill="#fff"/><path d="M178.095 79.108l-.156-.056-1.078-.898a.246.246 0 01-.032-.344.245.245 0 01.344-.032l1.079.9c.103.086.117.24.031.343l-.188.087z" fill="#fff"/><path d="M172.996 93.236h-10.934a.858.858 0 01-.858-.857v-1.15c0-.475.385-.859.858-.859h10.934c.473 0 .858.384.858.859v1.15a.858.858 0 01-.858.857z" fill="#9EBFD8"/><path d="M114.331 205.461h-99.94a3.87 3.87 0 01-3.871-3.871v-59.027a3.871 3.871 0 013.87-3.872h99.941a3.871 3.871 0 013.871 3.872v59.027a3.87 3.87 0 01-3.871 3.871z" fill="#fff"/><path d="M14.39 139.179a3.387 3.387 0 00-3.383 3.384v59.027a3.387 3.387 0 003.384 3.383h99.94a3.387 3.387 0 003.383-3.383v-59.027a3.388 3.388 0 00-3.383-3.384h-99.94zm99.941 66.771h-99.94a4.365 4.365 0 01-4.36-4.36v-59.027a4.365 4.365 0 014.36-4.36h99.94a4.365 4.365 0 014.359 4.36v59.027a4.365 4.365 0 01-4.359 4.36z" fill="#43C59E"/><path d="M196.542 58.304a2.212 2.212 0 110-4.424 2.212 2.212 0 010 4.424z" fill="#9EBFD8"/><path d="M201.773 65.312h-5.231a2.212 2.212 0 110-4.425h5.231a2.212 2.212 0 110 4.425z" fill="#E8F4F7"/><path d="M196.542 71.717a2.212 2.212 0 110-4.425 2.212 2.212 0 010 4.425z" fill="#9EBFD8"/><path d="M201.773 78.725h-5.231a2.212 2.212 0 110-4.425h5.231a2.212 2.212 0 110 4.425z" fill="#E8F4F7"/><path d="M196.542 85.13a2.212 2.212 0 110-4.425 2.212 2.212 0 010 4.424z" fill="#9EBFD8"/><path d="M201.773 92.137h-5.231a2.212 2.212 0 110-4.424h5.231a2.212 2.212 0 110 4.424z" fill="#E8F4F7"/><path d="M203.79 53.304c1.692 1.2 4.751 5.753-.444 9.028-1.214.765-2.836.352-4.261.194a94.473 94.473 0 01-11.817-2.078c-1.77-.429-4.739-3.64-1.502-5.686 4.446-2.81 5.09-15.58 5.09-15.58l13.967-2.855c-2.606 5.152-4.58 14.461-1.033 16.977zM186.515 34.94c.405-2.339.735-4.847 1.14-7.185.184-1.064.57-3.222.547-4.988-.012-.861-1.257-.966-1.422-.12-.869 4.465-3.48 9.095-3.959 10.02-.575 1.11 3.694 2.273 3.694 2.273z" fill="#FDA98B"/><path d="M186.178 23.593c-.745 10.547-2.553 23.113 4.041 22.19 5.176-.723 13.154-2.918 17.554-12.692 4.275-9.498.904-16.982-5.489-18.839-6.393-1.857-15.352-1.35-16.106 9.341z" fill="#FDA98B"/><path d="M190 45.81c5.79-.594 9.557-3.208 10.046-3.445-2.323 2.825-8.807 5.557-10.976 7.083.46-1.451.643-2.285.93-3.639z" fill="#EE795C"/><path d="M189.948 28.487c.655 0 1.168-2.495-.423-2.495-.849 0-.651 2.495.423 2.495z" fill="#382823"/><path d="M187.232 24.088l5.246.786c1.219-.414-2.952-2.359-5.126-1.556-.309.114-.348.558-.12.77z" fill="#30323E"/><path d="M185.378 36.497c.862.16 2.009.372 3.519.63.905.153-1.412 1.722-3.475 1.438-.054-.807-.048-1.33-.044-2.068z" fill="#FFF5ED"/><path d="M167.297 244.479c-3.613 3.848-7.303.407-7.303.407l.785-14.318 10.725.96s-4.144 10.51-4.207 12.951z" fill="#F99889"/><path d="M168.329 251.149a.986.986 0 01-.959.998c-4.279.123-21.299.609-21.33.608a1.191 1.191 0 01-1.158-1.148c-.054-1.359.941-2.794 2.183-3.527 2.765-1.632 8.398-1.139 11.514-8.339a.77.77 0 011.187-.303c1.122.907 1.99 2.154 3.172 3.004 1.96 1.407 3.606-.176 4.934 1.806.339.506.432 4.91.457 6.901z" fill="#514342"/><path d="M159.294 239.515l-.127.015a.534.534 0 00-.364.308c-2.344 5.417-6.036 6.547-9.001 7.454-1.027.314-1.913.585-2.612.998-1.243.734-2.112 2.125-2.064 3.307.02.5.424.902.92.915.144-.003 17.241-.492 21.317-.609a.745.745 0 00.722-.751c-.058-4.614-.259-6.53-.415-6.767-.654-.976-1.362-.994-2.259-1.018-.779-.02-1.662-.043-2.616-.727-.663-.476-1.231-1.076-1.779-1.655-.445-.47-.905-.956-1.403-1.358a.502.502 0 00-.319-.112zM146.035 253a1.444 1.444 0 01-1.398-1.384c-.054-1.371.894-2.912 2.304-3.746.75-.442 1.706-.735 2.719-1.045 2.869-.878 6.44-1.97 8.695-7.181a1.02 1.02 0 01.695-.589.99.99 0 01.87.193c.523.422.995.92 1.451 1.401.532.564 1.084 1.145 1.71 1.594.83.597 1.599.617 2.343.636.913.024 1.856.048 2.651 1.234.278.414.446 2.78.498 7.033a1.235 1.235 0 01-1.196 1.245c-.213.007-21.269.609-21.342.609z" fill="#463C3A"/><path d="M145.946 252.249a.244.244 0 01-.008-.489l21.467-.718c.139 0 .248.104.253.236a.246.246 0 01-.236.252l-21.468.719h-.008zm13.212-6.784l-.056-.006c-1.104-.255-2.24-.572-2.955-1.385a.246.246 0 01.022-.345.246.246 0 01.345.022c.618.705 1.672.996 2.698 1.232a.245.245 0 01-.054.482zm-2.606 1.906l-.083-.014c-1.119-.396-2.156-.827-2.531-1.735a.242.242 0 01.133-.317.242.242 0 01.319.132c.297.721 1.231 1.101 2.243 1.459a.245.245 0 01-.081.475zm-2.778 1.076l-.092-.018c-.456-.187-1.963-.855-2.145-1.612a.246.246 0 01.182-.294.24.24 0 01.293.182c.079.325.875.872 1.855 1.272a.245.245 0 01.134.319.245.245 0 01-.227.151z" fill="#fff"/><path d="M215.026 244.171c-3.613 3.848-7.304.408-7.304.408l-1.234-14.498 9.57.855s-.969 10.794-1.032 13.235z" fill="#F99889"/><path d="M216.058 250.842a.988.988 0 01-.959.998c-4.28.123-21.299.608-21.33.607a1.19 1.19 0 01-1.158-1.148c-.055-1.358.941-2.793 2.183-3.527 2.764-1.631 8.397-1.139 11.514-8.339a.771.771 0 011.187-.303c1.121.907 1.989 2.154 3.171 3.004 1.961 1.408 3.607-.175 4.935 1.807.339.506.432 4.909.457 6.901z" fill="#514342"/><path d="M207.023 239.207l-.127.015a.532.532 0 00-.364.308c-2.345 5.418-6.036 6.548-9.001 7.454-1.027.314-1.913.586-2.612.998-1.244.734-2.112 2.125-2.065 3.307.021.5.426.901.921.915.163-.003 17.294-.492 21.317-.608a.746.746 0 00.722-.751c-.058-4.616-.26-6.531-.415-6.768-.653-.976-1.362-.995-2.259-1.017-.779-.021-1.662-.044-2.616-.728-.663-.477-1.23-1.076-1.779-1.654-.445-.47-.905-.956-1.403-1.359a.512.512 0 00-.319-.112zm-13.262 13.485a1.442 1.442 0 01-1.395-1.383c-.055-1.373.892-2.914 2.305-3.747.748-.442 1.705-.735 2.717-1.045 2.87-.877 6.44-1.969 8.696-7.181.128-.297.382-.511.696-.588a.994.994 0 01.869.192c.523.422.995.921 1.451 1.401.533.564 1.084 1.144 1.71 1.594.831.597 1.599.616 2.343.636.914.023 1.857.048 2.652 1.234.276.414.443 2.78.497 7.034a1.234 1.234 0 01-1.196 1.244c-.212.007-21.245.609-21.345.609z" fill="#463C3A"/><path d="M193.675 251.941a.245.245 0 01-.008-.489l21.467-.718c.151.008.247.102.252.236a.244.244 0 01-.236.252l-21.466.719h-.009zm13.211-6.784l-.055-.005c-1.103-.255-2.241-.572-2.955-1.386a.244.244 0 11.367-.322c.618.704 1.672.996 2.698 1.231a.245.245 0 01-.055.482zm-2.605 1.906l-.082-.014c-1.12-.396-2.157-.827-2.531-1.734a.243.243 0 11.45-.185c.299.72 1.232 1.101 2.244 1.458a.246.246 0 01.149.313.244.244 0 01-.23.162zm-2.777 1.077l-.093-.02c-.457-.186-1.963-.854-2.145-1.61a.245.245 0 01.182-.294.241.241 0 01.293.181c.078.325.876.873 1.855 1.272a.245.245 0 01-.092.471z" fill="#fff"/><path d="M217.346 130.037c1.301 35.979.655 72.1-.02 106.557a.971.971 0 01-.915.95l-11.47.657a.973.973 0 01-1.018-.824c-5.363-35.644-20.543-119.887-18.342-125.385 1.815-4.539 8.792-8.843 13.511-9.747 5.805-1.111 17.391 3.953 18.254 27.792z" fill="#514342"/><path d="M200.66 102.344a8.14 8.14 0 00-1.523.141c-4.851.929-11.582 5.23-13.33 9.597-1.536 3.838 5.895 48.848 11.866 85.013 2.537 15.372 4.934 29.89 6.492 40.246.056.372.385.64.761.615l11.47-.656a.73.73 0 00.686-.711c.607-30.937 1.362-69.439.02-106.543-.543-15.003-5.263-21.824-9.128-24.902-2.266-1.806-4.903-2.8-7.314-2.8zm4.223 136.102c-.601 0-1.11-.433-1.2-1.033-1.558-10.352-3.955-24.869-6.492-40.238-6.292-38.112-13.424-81.309-11.837-85.274 1.804-4.509 8.717-8.943 13.692-9.896 2.913-.558 6.367.473 9.233 2.756 3.944 3.144 8.762 10.079 9.311 25.268 1.342 37.117.587 75.627-.019 106.569a1.223 1.223 0 01-1.147 1.189l-11.471.657-.07.002z" fill="#463C3A"/><path d="M209.801 237.154a.245.245 0 01-.243-.224c-1.444-17.404-3.426-35.847-5.344-53.683-1.918-17.841-3.9-36.287-5.345-53.698a.244.244 0 01.223-.264c.121-.014.252.089.263.224 1.445 17.404 3.428 35.849 5.344 53.686 1.918 17.838 3.901 36.285 5.346 53.695a.244.244 0 01-.224.263l-.02.001z" fill="#463C3A"/><path d="M169.968 239.478a.97.97 0 001.125-.634c9.532-27.727 32.993-93.314 35.194-121.739.835-10.795-3.863-14.39-13.008-13.889-18.345 1.003-16.429 12.757-35.042 132.786a.978.978 0 00.756 1.103l10.975 2.373z" fill="#514342"/><path d="M194.856 103.415c-.503 0-1.023.015-1.563.045-15.07.824-16.199 8.4-26.991 80.879-2.205 14.8-4.703 31.576-7.822 51.699a.73.73 0 00.564.828l10.978 2.373a.728.728 0 00.841-.475c.844-2.455 1.796-5.207 2.834-8.203 10.606-30.614 30.344-87.598 32.349-113.476.396-5.137-.453-8.7-2.597-10.894-1.822-1.862-4.642-2.776-8.593-2.776zm-24.681 136.33c-.085 0-.171-.01-.257-.029l-10.977-2.373a1.219 1.219 0 01-.944-1.38c3.12-20.121 5.618-36.897 7.822-51.696 5.383-36.153 8.349-56.067 11.911-67.256 3.634-11.414 7.905-13.622 15.536-14.038 4.929-.271 8.374.672 10.531 2.877 2.249 2.3 3.143 5.988 2.734 11.273-2.008 25.94-21.76 82.963-32.372 113.598-1.037 2.995-1.991 5.748-2.834 8.201-.172.5-.64.823-1.15.823z" fill="#463C3A"/><path d="M164.998 235.756l-.06-.008a.244.244 0 01-.177-.297c9.908-39.013 21.54-81.782 32.752-120.427a.244.244 0 11.469.136c-11.211 38.641-22.841 81.403-32.747 120.412a.244.244 0 01-.237.184z" fill="#463C3A"/><path d="M227.579 87.21c3.156 8.121 4.132 11.798-3.507 15.869-10.502 5.596-28.172 6.984-35.443 6.989-.454 0-.849-.301-.974-.738l-1.742-6.079c-.144-.5.111-1.027.594-1.223 2.754-1.112 12.007-4.678 24.293-7.602a1.015 1.015 0 00.576-1.6c-2.697-3.568-10.388-13.905-12.981-19.146-2.076-4.195-5.377-15.16.043-18.115 7.701-4.2 26.769 25.543 29.141 31.646z" fill="#0075FF"/><path d="M200.09 55.377c-.572 0-1.09.124-1.55.375-5.173 2.82-2.134 13.427.045 17.832 2.62 5.292 10.584 15.967 12.963 19.112a1.229 1.229 0 01-.699 1.939c-12.339 2.935-21.69 6.553-24.262 7.592a.799.799 0 00-.468.965l1.742 6.079a.801.801 0 00.767.582c7.715-.006 25.03-1.469 35.343-6.965 7.529-4.01 6.484-7.681 3.407-15.6-2.106-5.42-16.618-28.32-25.451-31.55-.662-.24-1.276-.361-1.837-.361zm-11.462 54.904c-.544 0-1.03-.367-1.18-.893l-1.743-6.077a1.231 1.231 0 01.721-1.482c2.579-1.041 11.955-4.67 24.324-7.611a.79.79 0 00.569-.51.787.787 0 00-.114-.753c-3.056-4.041-10.439-14-13.004-19.18-2.237-4.522-5.31-15.432.133-18.398 1.025-.56 2.284-.574 3.74-.041 8.939 3.268 23.582 26.339 25.704 31.797 3.173 8.165 4.245 11.95-3.605 16.134-10.387 5.535-27.792 7.009-35.544 7.014h-.001z" fill="#08284F"/><path d="M181.007 57.69c1.76-4.106 14.802-9.496 18.218-8.842 9.858 1.887 11.328 16.668 13.842 60.527-9.576 2.253-35.3 1.113-35.879.683-2.006-1.492-.191-43.019 3.819-52.367z" fill="#FFFFF7"/><path d="M181.23 57.786c-2.059 4.803-3.491 18.155-4.144 29.05-.811 13.506-.502 22.468.248 23.026 1.056.422 26.033 1.447 35.477-.68-2.476-43.18-3.845-58.22-13.632-60.094-3.361-.643-16.23 4.692-17.949 8.698zm12.165 53.211c-8.401 0-15.947-.442-16.352-.743-2.296-1.707-.072-43.772 3.739-52.66 1.83-4.268 14.937-9.665 18.488-8.986 10.159 1.945 11.541 17.13 14.04 60.752l.012.205-.2.047c-4.464 1.051-12.42 1.385-19.727 1.385z" fill="#EEE4D9"/><path d="M132.216 68.55c-4.76-4.087-5.341-2.208-4.496-1.324 7.853 8.215 11.362 7.017 10.804 6.374-1.807-2.084-4.241-3.276-6.308-5.05z" fill="#444244"/><path d="M127.963 66.511l-.102.012c.012.013.047.193.212.366 5.49 5.743 8.72 6.69 9.771 6.69-1.002-1.063-2.171-1.882-3.402-2.746-.848-.594-1.727-1.21-2.543-1.912-2.564-2.202-3.629-2.41-3.936-2.41zm9.845 8.05c-1.79 0-5.379-1.703-10.44-6.998-.526-.55-.614-1.29-.204-1.722.777-.82 2.634-.01 5.371 2.339.78.67 1.638 1.272 2.468 1.854 1.348.945 2.743 1.923 3.89 3.245a.676.676 0 01-.06.97c-.217.197-.56.313-1.025.313z" fill="#444244"/><path d="M151.157 80.751l-3.54 5.907c-5.682-4.331-5.377-4.305-7.45-5.12-1.582-.622-3.307-.825-4.88-1.47s-3.071-1.923-3.229-3.616c-.02-.203-.02-.413-.101-.601-.244-.56-1.159-.972-.831-1.488.19-.3.711-.295.829-.631.162-.463-.658-.935-.377-1.336a.557.557 0 01.261-.176c1.704-.678 3.582.736 5.399.492-.025-.608-.795-.821-1.376-1.004-.817-.257-2.819-1.54-2.494-2.63.425-1.43 2.62-.009 3.363.223.761.237 1.566.39 2.231.828.564.373.983.922 1.391 1.461 1.348 1.784 2.701 3.573 3.814 5.512.589 1.022 1.136 1.077 6.99 3.65z" fill="#FDA98B"/><path d="M202.554 45.274c1.175-.608 2.615-.023 3.084 1.214 3.429 9.04 10.199 16.815 12.586 26.236 2.848 11.24-.889 23.448 2.435 34.554 3.047 10.172 9.554 7.917 15.044 26.26.652 2.18-1.088 4.352-3.356 4.165-12.139-1.005-30.079 5.722-39.336 4.112a2.824 2.824 0 01-2.313-3.158c1.132-8.536 3.86-38.848-10.163-63.017-4.79-8.254.4-23.07 10.481-26.707 1.105-.4 8.043-1.849 11.538-3.659z" fill="#0075FF"/><path d="M203.545 45.246c-.307 0-.61.072-.893.219-2.6 1.347-7.03 2.48-9.676 3.157-.898.23-1.607.411-1.887.512-4.689 1.693-8.72 6.085-10.784 11.752-1.952 5.358-1.797 10.834.415 14.646 14.022 24.165 11.345 54.447 10.191 63.153a2.602 2.602 0 002.137 2.918c4.611.803 11.41-.484 18.608-1.847 7.196-1.361 14.637-2.774 20.709-2.268a2.955 2.955 0 002.58-1.105c.633-.78.839-1.821.552-2.783-3.132-10.467-6.542-14.137-9.552-17.376-2.24-2.411-4.176-4.495-5.491-8.884-1.731-5.78-1.557-11.945-1.389-17.907.156-5.536.318-11.261-1.049-16.656-1.346-5.314-4.149-10.197-6.859-14.917-2.079-3.621-4.229-7.366-5.72-11.295a2.044 2.044 0 00-1.892-1.32zm-7.254 97.033c-1.194 0-2.305-.076-3.317-.253a3.03 3.03 0 01-2.489-3.397c1.15-8.671 3.818-38.834-10.136-62.881-2.275-3.922-2.442-9.532-.448-15.01 2.109-5.784 6.236-10.273 11.042-12.008.3-.108.982-.282 1.926-.523 2.629-.673 7.03-1.8 9.587-3.124a2.39 2.39 0 011.953-.105 2.48 2.48 0 011.43 1.434c1.478 3.897 3.619 7.627 5.69 11.234 2.724 4.746 5.542 9.654 6.903 15.026 1.381 5.452 1.219 11.207 1.062 16.773-.167 5.928-.34 12.058 1.371 17.772 1.285 4.294 3.189 6.342 5.395 8.716 3.041 3.272 6.487 6.981 9.648 17.543a3.462 3.462 0 01-.63 3.177 3.37 3.37 0 01-2.949 1.263c-6.013-.497-13.425.905-20.592 2.262-5.677 1.074-11.106 2.101-15.446 2.101z" fill="#08284F"/><path d="M187.864 96.128c-3.442 8.003-5.323 11.31-13.625 8.856-11.649-3.443-25.549-15.248-30.485-20.175a.438.438 0 01-.073-.52l3.475-6.391a.438.438 0 01.551-.198c1.99.808 11.865 4.947 23.673 12.136a.6.6 0 00.912-.43c.473-3.693 2.327-17.536 4.25-23.388 1.46-4.445 6.795-14.58 12.731-12.886 8.436 2.406 1.179 36.982-1.409 42.996z" fill="#0075FF"/><path d="M147.542 77.882a.226.226 0 00-.198.119l-3.475 6.391a.223.223 0 00.037.266c4.41 4.4 18.468 16.595 30.394 20.12 8.18 2.419 10.009-.93 13.368-8.734 2.297-5.342 8.006-31.845 3.971-40.34-.61-1.285-1.426-2.081-2.424-2.366-5.672-1.615-10.935 8.078-12.469 12.747-1.901 5.786-3.726 19.334-4.24 23.348a.81.81 0 01-.453.626.824.824 0 01-.785-.04c-11.83-7.203-21.769-11.36-23.641-12.12l-.085-.017zm31.327 28.12c-1.309 0-2.844-.266-4.691-.813-12.012-3.549-26.144-15.805-30.576-20.228a.65.65 0 01-.109-.774l3.474-6.392a.655.655 0 01.822-.294c1.877.763 11.843 4.932 23.703 12.151.114.07.255.079.375.02a.372.372 0 00.213-.294c.515-4.024 2.345-17.604 4.258-23.427 1.574-4.792 7.04-14.725 12.994-13.026 1.123.32 2.029 1.193 2.694 2.594 4.083 8.596-1.65 35.316-3.965 40.694-2.712 6.304-4.46 9.789-9.192 9.789z" fill="#08284F"/><path d="M207.36 43.831c-.192 0-.387-.003-.587-.012a.244.244 0 01-.234-.255c.006-.134.103-.25.255-.232 6.432.276 8.282-4.078 9.383-6.679.132-.31.251-.595.366-.838.045-.097.147-.245.315-.491 1.164-1.704 4.707-6.89 1.251-11.666-.638-.882-1.155-1.306-1.57-1.647-.95-.778-1.334-1.216-1.333-4.295.005-8.914-5.077-9.938-9.159-10.76-.718-.145-1.394-.28-2.011-.453a.244.244 0 01.131-.47c.6.167 1.268.301 1.977.444 4.032.812 9.555 1.925 9.55 11.24-.002 2.969.337 3.247 1.153 3.917.438.358.982.804 1.658 1.739 2.426 3.352 2.008 7.466-1.243 12.226a5.39 5.39 0 00-.277.424c-.112.238-.23.516-.358.82-1.043 2.465-2.959 6.988-9.267 6.988z" fill="#30323E"/><path d="M206.783 43.82c-2.909-.313-4.722-3.005-5.339-4.545-.545-1.36-.556-2.955-.565-4.497-.003-.337-.005-.669-.013-.99-.093-3.628-1.353-4.496-2.572-5.335-.542-.374-1.054-.726-1.438-1.3-.865-1.295-.701-2.864-.543-4.38.111-1.069.227-2.174-.018-3.172-.379-1.544-1.754-1.346-3.972-.894-1.644.335-3.345.681-4.59-.113a.245.245 0 01-.075-.338.245.245 0 01.337-.074c1.08.689 2.682.361 4.23.046 1.984-.404 4.033-.823 4.544 1.257.266 1.08.146 2.228.03 3.338-.156 1.497-.304 2.91.464 4.06.331.496.805.822 1.308 1.169 1.258.865 2.683 1.846 2.783 5.724.008.324.01.659.012 1 .011 1.496.02 3.043.531 4.317.576 1.44 2.259 3.953 4.913 4.24a.245.245 0 01-.027.487z" fill="#30323E"/><path d="M197.337 22.602c-1.114 6.021 3.518 3.78 4.063 7.566.576 4.002-.944 8.679 1.676 11.757 3.048 3.581 10.713 2.565 12.744-5.5a5.873 5.873 0 011.37-2.502c3.151-3.467 2.095-9.359-2.552-11.266-1.51-.619 3.9-14.104-8.429-16.267-.995-.174-1.912-.636-2.684-1.29-7.923-6.696-20.932 8.225-16.605 13.103 2.881 3.25 12.238-5.454 10.417 4.4z" fill="#30323E"/><path d="M188.862 17.038c-.666 0-1.007-.293-1.179-.596-.938-1.635 1.628-6.277 4.227-8.55a.244.244 0 01.321.367c-2.593 2.267-4.867 6.645-4.125 7.94.297.516 1.126.369 1.768.154l4.085-1.369a.245.245 0 01.309.155.242.242 0 01-.153.308l-4.086 1.368c-.471.158-.855.223-1.167.223zm24.778 16.988l-.095-.02a.243.243 0 01-.128-.32c.195-.453.493-.964.808-1.507.982-1.682 2.203-3.776 1.105-5.494-.527-.822-1.517-1.283-2.475-1.73-1.188-.555-2.418-1.129-2.816-2.405-.262-.837-.051-1.685.153-2.506.078-.314.158-.637.208-.95.688-4.277-3.188-5.644-4.844-6.228-.414-.146-.619-.22-.734-.31-.905-.713-.991-1.794-1.074-2.84-.123-1.525-.237-2.966-2.706-3.524a9.687 9.687 0 00-4.037-.043.247.247 0 01-.288-.19.245.245 0 01.191-.288 10.165 10.165 0 014.242.045c2.818.638 2.96 2.403 3.084 3.96.079.985.153 1.915.89 2.496.059.045.344.146.594.235 1.619.57 5.917 2.085 5.165 6.764a11.67 11.67 0 01-.217.99c-.197.79-.383 1.536-.161 2.243.335 1.071 1.414 1.575 2.556 2.108 1.021.476 2.078.969 2.68 1.91 1.259 1.969-.046 4.206-1.094 6.004-.307.528-.599 1.027-.783 1.452a.242.242 0 01-.224.148zm-5.756 7.235c-.352 0-.692-.066-1.02-.197-1.55-.62-2.295-2.531-2.417-3.665-.129-1.19.06-2.379.243-3.529.108-.687.222-1.396.264-2.091.224-3.705-1.661-4.438-2.906-4.922-.343-.134-.615-.24-.8-.39-1.04-.851-.926-2.42-.805-4.08.068-.926.137-1.884-.012-2.69-.164-.888-.758-1.773-1.478-2.203-.331-.2-.853-.395-1.444-.206a.244.244 0 01-.15-.464c.607-.195 1.244-.108 1.845.25.846.506 1.515 1.5 1.707 2.535.16.867.088 1.856.019 2.813-.112 1.53-.216 2.976.627 3.666.126.102.377.2.667.313 1.21.47 3.462 1.346 3.217 5.406-.044.72-.158 1.442-.269 2.14-.186 1.17-.362 2.275-.241 3.399.106.978.774 2.729 2.115 3.265 1.018.408 2.218.035 3.566-1.106a.244.244 0 11.315.371c-1.087.922-2.107 1.385-3.043 1.385z" fill="#353B4A"/><path d="M209.807 34.89l-.141-.045c-2.118-1.507-1.745-4.25-1.416-6.67.151-1.095.291-2.13.202-2.978-.299-2.85-2.468-5.056-4.858-7.25a.244.244 0 01.33-.36c2.461 2.26 4.697 4.539 5.014 7.559.095.906-.05 1.97-.203 3.095-.326 2.395-.664 4.87 1.214 6.207.11.078.135.23.058.34a.245.245 0 01-.2.103zm-12.988-19.05a.245.245 0 01-.232-.167.246.246 0 01.156-.309c1.092-.361 5.359-2.632 4.685-6.365a.246.246 0 01.197-.284.246.246 0 01.284.197c.735 4.076-3.841 6.528-5.013 6.916l-.077.012z" fill="#353B4A"/><path d="M192.655 113.18l-.434-2.467c-.091-.519 14.858-3.327 15-2.406l.294 1.891c.075.489-14.699 3.901-14.86 2.982z" fill="#08284F"/><path d="M192.856 113.088c1.128.491 13.328-2.369 14.43-2.965l-.269-1.729c-.96-.418-13.254 1.603-14.564 2.388l.403 2.306zm.414.462c-.768 0-.8-.182-.826-.333l-.433-2.468c-.01-.054-.009-.16.106-.255.782-.646 13.571-3.064 15.058-2.496.189.071.245.189.259.276l.293 1.892c.035.22.07.449-4.232 1.506-2.542.625-5.387 1.222-7.427 1.56-1.421.235-2.278.318-2.798.318zm39.481 24.493a.243.243 0 01-.241-.209c-1.347-9.337-6.605-13.707-10.829-17.218-1.439-1.196-2.682-2.23-3.604-3.324-6.196-7.36-5.793-15.589-5.282-26.007.557-11.351 1.251-25.477-6.892-43.473a.244.244 0 11.444-.2c8.193 18.102 7.496 32.293 6.936 43.696-.505 10.312-.905 18.456 5.167 25.67.894 1.061 2.121 2.081 3.543 3.264 4.062 3.375 9.626 8 11 17.522a.244.244 0 01-.207.276l-.035.003z" fill="#08284F"/><path d="M228.937 137.852a.245.245 0 01-.237-.184c-.099-.389-.19-.763-.28-1.125-.795-3.235-1.319-5.372-4.019-7.64l-.157-.129c-.838-.685-3.064-2.503-3.296-4.858-.111-1.142.267-2.248 1.127-3.289a.244.244 0 01.376.311c-.773.937-1.115 1.922-1.017 2.931.212 2.152 2.323 3.877 3.119 4.526l.161.134c2.823 2.37 3.393 4.688 4.182 7.898.087.36.18.734.277 1.121a.242.242 0 01-.177.296l-.059.008zm-8.498-24.54l-.102-.023a.244.244 0 01-.121-.323c.734-1.607.81-3.48.207-5.14a.245.245 0 01.459-.166 7.334 7.334 0 01-.221 5.509.247.247 0 01-.222.143zM175.774 95.39l-.078-.012c-1.831-.609-3.273-2.22-3.676-4.108a.244.244 0 01.477-.102c.367 1.721 1.684 3.191 3.354 3.746a.244.244 0 01.154.309.244.244 0 01-.231.167z" fill="#08284F"/><path d="M28.978 179.441a6.129 6.129 0 006.13-6.13 6.128 6.128 0 00-6.13-6.13 6.128 6.128 0 00-6.13 6.13 6.129 6.129 0 006.13 6.13zm0 3.065c-4.092 0-12.26 2.053-12.26 6.13v1.532c0 .843.69 1.532 1.532 1.532h21.455c.843 0 1.533-.689 1.533-1.532v-1.532c0-4.077-8.168-6.13-12.26-6.13zm70.216-18.669a5.57 5.57 0 005.572-5.573 5.57 5.57 0 00-5.572-5.572 5.57 5.57 0 00-5.573 5.572 5.571 5.571 0 005.573 5.573zm0 2.786c-3.72 0-11.146 1.867-11.146 5.573v1.393c0 .766.627 1.393 1.394 1.393h19.504c.766 0 1.393-.627 1.393-1.393v-1.393c0-3.706-7.426-5.573-11.145-5.573zm-7.802-55.169a3.9 3.9 0 003.901-3.901 3.9 3.9 0 10-7.802 0 3.9 3.9 0 003.901 3.901zm0 1.95c-2.604 0-7.802 1.307-7.802 3.901v.975c0 .537.44.976.976.976h13.653a.978.978 0 00.975-.976v-.975c0-2.594-5.198-3.901-7.802-3.901zm20.062-1.95a3.9 3.9 0 100-7.802 3.9 3.9 0 100 7.802zm0 1.95c-2.604 0-7.802 1.307-7.802 3.901v.975c0 .537.439.976.975.976h13.653a.979.979 0 00.976-.976v-.975c0-2.594-5.198-3.901-7.802-3.901zm18.947-1.95a3.9 3.9 0 100-7.802 3.9 3.9 0 100 7.802zm0 1.95c-2.604 0-7.802 1.307-7.802 3.901v.975c0 .537.439.976.975.976h13.653a.979.979 0 00.976-.976v-.975c0-2.594-5.198-3.901-7.802-3.901zm20.062-1.95a3.9 3.9 0 100-7.802 3.9 3.9 0 00-3.901 3.901 3.9 3.9 0 003.901 3.901zm0 1.95c-2.604 0-7.802 1.307-7.802 3.901v.975c0 .537.439.976.975.976h13.653a.978.978 0 00.975-.976v-.975c0-2.594-5.198-3.901-7.801-3.901zM65.2 173.311a9.193 9.193 0 009.195-9.195 9.192 9.192 0 00-9.195-9.195 9.192 9.192 0 00-9.195 9.195 9.193 9.193 0 009.195 9.195zm0 4.597c-6.137 0-18.39 3.08-18.39 9.195v2.299a2.305 2.305 0 002.3 2.298h32.18a2.305 2.305 0 002.3-2.298v-2.299c0-6.115-12.253-9.195-18.39-9.195z" fill="#DCDCDC"/></svg>