<svg width="246" height="253" fill="none" xmlns="http://www.w3.org/2000/svg"><path d="M115.923 146.313c-42.048-4.088-67.306-2.336-105.85.146-2.627.146-4.963-1.898-4.963-4.672V93.462c0-2.774 2.482-4.964 5.11-4.526 40.88 4.964 68.911 7.008 105.265.438 2.774-.584 5.402 1.606 5.402 4.526v47.741c.146 2.774-2.336 4.964-4.964 4.672z" fill="#9DC4F2"/><path d="M110.813 140.473c-42.048-4.088-67.305-2.336-105.849.146-2.628.146-4.964-1.898-4.964-4.672V87.622c0-2.774 2.482-4.964 5.11-4.526 40.88 4.964 68.911 7.008 105.265.438 2.774-.584 5.402 1.606 5.402 4.526v47.741c0 2.774-2.336 4.964-4.964 4.672z" fill="#0075FF"/><path d="M26.12 124.979H12.104c-1.192 0-2.236-6.044-2.236-12.952 0-6.907 1.044-12.952 2.236-12.952H26.12c1.192 0 2.236 6.045 2.236 12.952.15 6.908-.895 12.952-2.236 12.952zm25.915 0H38.01c-1.193 0-2.238-4.318-2.238-9.251 0-4.934 1.045-9.252 2.238-9.252h14.026c1.194 0 2.239 4.318 2.239 9.252 0 4.933-1.045 9.251-2.239 9.251zm27.125 0H65.145c-1.193 0-2.237-3.454-2.237-7.401 0-3.947 1.044-7.401 2.237-7.401H79.16c1.193 0 2.236 3.454 2.236 7.401.15 3.947-.894 7.401-2.236 7.401zm23.598 0H89.667c-1.114 0-2.09-5.757-2.09-12.335 0-6.579.976-12.335 2.09-12.335h13.091c1.114 0 2.089 5.756 2.089 12.335 0 6.578-.975 12.335-2.089 12.335z" fill="#fff"/><path d="M39.732 47.232a9.233 9.233 0 1018.466 0 9.233 9.233 0 00-18.466 0zm6.135-15.93l1.27-2.536h3.655l1.27 2.537 3.76 1.222 2.517-1.307 2.958 2.15-.464 2.797 2.324 3.2 2.804.422 1.13 3.477-2.02 1.99v3.955l2.02 1.99-1.13 3.477-2.804.424-2.324 3.199.464 2.797-2.958 2.15-2.517-1.307-3.76 1.222-1.27 2.536h-3.656l-1.269-2.536-3.76-1.222-2.518 1.306-2.957-2.149.464-2.797-2.324-3.2-2.805-.422-1.13-3.478 2.02-1.99v-3.954l-2.02-1.991 1.13-3.477 2.805-.423 2.324-3.199-.464-2.798 2.957-2.149 2.518 1.307 3.76-1.223zm87.745 98.52a3.477 3.477 0 003.478 3.477 3.477 3.477 0 100-6.955 3.478 3.478 0 00-3.478 3.478zm1.662-9.344l.748-1.437h2.135l.75 1.437 2.205.717 1.451-.721 1.727 1.254-.239 1.603 1.363 1.876 1.599.269.66 2.03-1.136 1.156v2.319l1.136 1.157-.66 2.03-1.599.268-1.363 1.877.239 1.603-1.727 1.255-1.451-.723-2.205.717-.75 1.438h-2.135l-.748-1.438-2.207-.717-1.45.723-1.728-1.255.239-1.603-1.363-1.877-1.598-.268-.661-2.03 1.136-1.157v-2.319l-1.136-1.156.661-2.03 1.598-.269 1.363-1.876-.239-1.603 1.728-1.254 1.45.721 2.207-.717z" fill="#43C59E"/><path d="M104.022 36.18c0 9.132 7.402 16.534 16.533 16.534 9.132 0 16.535-7.402 16.535-16.534 0-9.132-7.403-16.534-16.535-16.534-9.131 0-16.533 7.402-16.533 16.534zm10.833-29.321L117 .26h7.111l2.145 6.598 6.922 2.249 5.614-4.077 5.753 4.18-2.143 6.599 4.278 5.888 6.938.001 2.198 6.763-5.613 4.079v7.278l5.613 4.079-2.198 6.763-6.938.002-4.278 5.888 2.143 6.598-5.753 4.18-5.614-4.077-6.922 2.249-2.145 6.598H117l-2.145-6.598-6.922-2.25-5.613 4.078-5.754-4.18 2.144-6.598-4.279-5.888-6.938-.002-2.197-6.763 5.612-4.079V32.54l-5.612-4.08 2.197-6.762 6.938-.001 4.279-5.888-2.144-6.6 5.754-4.179 5.613 4.077 6.922-2.25z" fill="#FFFFF7"/><path d="M120.555 19.906c-8.973 0-16.272 7.3-16.272 16.274 0 8.973 7.299 16.273 16.272 16.273 8.974 0 16.274-7.3 16.274-16.273 0-8.974-7.3-16.274-16.274-16.274zm0 33.069c-9.26 0-16.794-7.534-16.794-16.795 0-9.26 7.534-16.795 16.794-16.795 9.262 0 16.796 7.534 16.796 16.795 0 9.26-7.534 16.795-16.796 16.795zm-3.365 18.863h6.732l2.128-6.544 7.175-2.331 5.567 4.044 5.447-3.957-2.126-6.545 4.434-6.103 6.882-.002 2.08-6.402-5.566-4.046v-7.544l5.566-4.046-2.08-6.403h-6.882l-4.434-6.104 2.126-6.545-5.447-3.957-5.567 4.044-7.175-2.33L123.922.52h-6.732l-2.128 6.545-7.174 2.331-5.568-4.044-5.447 3.957 2.125 6.545-4.434 6.103-6.88.001-2.082 6.403 5.567 4.046v7.544l-5.567 4.046 2.081 6.402 6.88.002 4.435 6.103-2.125 6.545 5.447 3.957 5.568-4.044 7.174 2.33 2.128 6.545zm7.111.522h-7.49l-2.163-6.652-6.669-2.167-5.659 4.11-6.06-4.402 2.16-6.653-4.121-5.673-6.996-.001-2.313-7.124 5.658-4.112v-7.012l-5.658-4.112 2.314-7.124 6.995-.001 4.122-5.673-2.162-6.653 6.061-4.402 5.659 4.11 6.669-2.167L116.811 0h7.49l2.163 6.652 6.669 2.167 5.659-4.11 6.06 4.402-2.161 6.653 4.122 5.673 6.995.001 2.314 7.124-5.658 4.112v7.012l5.658 4.112-2.314 7.124-6.995.001-4.122 5.673 2.161 6.653-6.06 4.402-5.659-4.11-6.669 2.167-2.163 6.652z" fill="#637690"/><path d="M127.271 36.18a6.715 6.715 0 11-13.43 0 6.715 6.715 0 0113.43 0z" fill="#FFFFF7"/><path d="M120.556 29.726a6.46 6.46 0 00-6.454 6.453 6.462 6.462 0 006.454 6.455 6.462 6.462 0 006.455-6.455 6.462 6.462 0 00-6.455-6.454zm0 13.43a6.984 6.984 0 01-6.976-6.977c0-3.846 3.129-6.976 6.976-6.976s6.976 3.13 6.976 6.976a6.984 6.984 0 01-6.976 6.977z" fill="#637690"/><path d="M120.555 24.52c-6.428 0-11.659 5.23-11.659 11.66 0 6.429 5.231 11.66 11.659 11.66 6.43 0 11.661-5.231 11.661-11.66 0-6.43-5.231-11.66-11.661-11.66zm0 23.842c-6.716 0-12.181-5.465-12.181-12.183 0-6.717 5.465-12.18 12.181-12.18 6.718 0 12.182 5.463 12.182 12.18 0 6.718-5.464 12.183-12.182 12.183z" fill="#FFFFF7"/><path d="M177.179 62.39c.323-.463.754-.967 1.319-.947 1 2.238.285 4.831-.454 7.168-1.873 5.922-3.86 12.194-2.406 18.233-.503-2.08-2.906-3.796-3.717-5.788-.749-1.837-.266-4.1.068-6.012a31.668 31.668 0 015.19-12.653z" fill="#EE795C"/><path d="M181.433 70.051c1.254-1.16 2.756-2.424 2.749-4.13-.001-.173-.022-.358-.137-.487-.109-.122-.279-.167-.44-.191-1.597-.236-2.976 1.06-4.022 2.29a58.209 58.209 0 00-4.86 6.605c-.849 1.344-1.657 2.752-1.99 4.306-.329 1.53-.562 6.458 1.159 7.029.816-2.37.918-4.883 1.868-7.22a23.096 23.096 0 015.673-8.202z" fill="#EE795C"/><path d="M209.504 85.11c-5.74 3.16-10.481 3.638-34.705 8.047 6.703-10.858 9.231-24.223 6.955-36.779-.626-3.45.062-4.172 1.98-5.203 23.683-12.73 18.653-12.783 17.786 2.034-1.113 18.975-.103 21.579 7.984 31.9z" fill="#FF9A85"/><path d="M187.075 65.428c-2.917 2.465-3.692 2.082-4.561 2.687-.044 1.022-.064 2.686-1.163 8.728-.428 2.347 1.399 2.943 3.783-.622 3.247-4.855 8.13-3.755 9.861-7.4.616-1.297.464-2.818.8-4.214.55-2.282 2.358-4.066 3.116-6.287.556-1.626.519-3.4 1.001-5.048.358-1.227 1.994-3.986 1.156-5.163 0 0-10.748 14.574-13.993 17.319z" fill="#EE795C"/><path d="M188.751 66.028c19.681-13.596 24.081-49.66-1.396-44.931-11.216 2.083-11.575 1.208-14.659 12.591-5.828 21.513-1.175 44.242 16.055 32.34z" fill="#FF9A85"/><path d="M186.02 47.405c1.097.026 2.054-4.125-.607-4.188-1.421-.033-1.187 4.146.607 4.188zm-12.213-.942c1.098.025 2.054-4.125-.607-4.188-1.42-.033-1.187 4.145.607 4.188z" fill="#382823"/><path d="M171.787 37.443a8.606 8.606 0 013.233-.073c1.743.297 1.511 1.691.183 1.894-1.346.205-1.957-.44-3.753-.148l.337-1.673zm12.227.835c-1.767.025-1.753 1.437-.472 1.843 1.716.544 2.392-.582 5.779 1.395 3.722 2.174.218-3.318-5.307-3.238z" fill="#BC664F"/><path d="M176.82 54.384c-.96 0-1.838-.314-2.348-.62a.75.75 0 01-.345-.472.718.718 0 01.099-.558c.622-.957 2.046-3.531 1.836-6.791a.26.26 0 11.52-.034c.221 3.416-1.268 6.11-1.919 7.109a.2.2 0 00-.028.156c.013.06.051.11.106.142.526.316 1.499.642 2.514.521a.26.26 0 01.29.228.262.262 0 01-.228.29 4.18 4.18 0 01-.497.03z" fill="#EE795C"/><path d="M179.882 60.097c-4.923 5.756-6.973.817-7.193-1.284a.35.35 0 01.437-.37c3.1.764 5.446 1.015 6.507 1.095.276.02.427.35.249.56z" fill="#fff"/><path d="M186.835 252.739l3.999-31.213c.022-.169.266-.169.288 0l4 31.213h47.469c-4.189-50.111-10.574-75.021-17.116-100.042-2.297-.904-15.238 1.573-67.314 7.768-10.435 23.706-15.546 66.092-15.546 92.274h44.22z" fill="#514342"/><path d="M195.351 252.478h46.957c-4.241-50.531-10.75-75.486-17.05-99.579-1.513-.435-7.133.292-21.48 2.147-9.819 1.269-24.647 3.186-45.438 5.66-10.013 22.862-15.429 64.24-15.464 91.772h43.73l3.97-30.985a.401.401 0 01.402-.355c.206 0 .376.149.402.355l3.971 30.985zm47.524.522h-47.983l-3.914-30.544L187.065 253h-44.711v-.261c0-27.639 5.457-69.408 15.569-92.378l.06-.137.147-.018a4174.352 4174.352 0 0045.582-5.678c15.275-1.974 20.419-2.64 21.859-2.074l.122.049.033.129c6.329 24.201 12.873 49.226 17.125 100.085l.024.283z" fill="#463C3A"/><path d="M190.293 217.751a.26.26 0 01-.253-.2c-4.332-18.363-5.207-42.097-2.402-65.118a.257.257 0 01.29-.226.26.26 0 01.228.29c-2.798 22.961-1.927 46.628 2.392 64.934a.263.263 0 01-.195.314.298.298 0 01-.06.006z" fill="#463C3A"/><path d="M191.178 220.378l-.429-.443c-1.98-2.043-8.092-6.263-14.346-6.263a.26.26 0 110-.522c6.439 0 12.216 4.098 14.305 6.019.217-2.93 1.411-7.337 3.642-9.062a.261.261 0 01.32.414c-2.225 1.718-3.387 6.53-3.472 9.242l-.02.615zm-9.869 30.555c-.012 0-.023 0-.035-.002a.26.26 0 01-.223-.294c1.166-8.692 3.309-19.092 6.032-29.288a.262.262 0 01.319-.185c.139.038.222.18.185.32-2.717 10.174-4.856 20.553-6.02 29.222a.26.26 0 01-.258.227zm56.409-1.383a.26.26 0 01-.259-.232 941.562 941.562 0 00-7.874-56.344.26.26 0 01.214-.3c.14-.027.276.07.3.213a941.604 941.604 0 017.878 56.373.26.26 0 01-.23.288c-.01.002-.02.002-.029.002zm-49.885-45.359a.262.262 0 01-.186-.077c-9.095-9.239-8.276-20.424-6.792-40.731.232-3.169.472-6.446.702-10.03.008-.146.132-.264.276-.244a.26.26 0 01.244.276c-.229 3.588-.469 6.866-.701 10.037-1.522 20.81-2.287 31.256 6.643 40.326a.26.26 0 01-.186.443z" fill="#463C3A"/><path d="M161.874 86.29c5.788-2.671 14.046-6.131 18.87-6.955-.792 11.69 13.687 11.843 23.19-2.213 9.92 1.627 16.775 4.376 21.592 7.533 0 0 .946 41.402 5.175 77.864-18.139 3.66-63.649 2.584-72.54-2.053.182-.348-.329-63.55 3.713-74.176z" fill="#FFFFF7"/><path d="M158.434 160.311c8.924 4.402 53.481 5.646 71.979 1.999-4.038-34.957-5.078-74.85-5.144-77.513-5.317-3.451-12.451-5.938-21.213-7.39-6.108 8.942-14.134 11.96-18.933 10.31-3.149-1.082-4.835-4.012-4.657-8.067-5.413 1.022-14.55 5.064-18.385 6.831-3.282 8.957-3.519 53.846-3.599 68.634-.019 3.572-.028 4.766-.048 5.196zm40.961 4.666c-2.765 0-5.589-.036-8.438-.112-16.197-.43-28.81-2.027-32.916-4.168l-.231-.121.1-.192c.024-.32.036-2.414.05-5.271.088-16.44.32-60.108 3.669-68.916l.039-.1.096-.045c3.872-1.785 13.465-6.04 18.936-6.974l.326-.055-.022.33c-.269 3.973 1.294 6.841 4.289 7.87 4.636 1.595 12.453-1.414 18.425-10.247l.094-.139.165.027c8.972 1.472 16.271 4.019 21.693 7.572l.115.075.003.137c.009.414.993 41.808 5.171 77.842l.028.238-.236.047c-6.988 1.41-18.544 2.202-31.356 2.202z" fill="#EEE4D9"/><path d="M167.342 98.933a.261.261 0 01-.229-.388c.935-1.703 2.764-2.692 4.255-3.364 7.396-3.337 12.163-2.977 16.772-2.63 6.019.452 11.705.88 22.533-7.941a.26.26 0 01.33.404c-10.99 8.953-16.775 8.517-22.902 8.056-4.544-.341-9.242-.695-16.518 2.586-1.417.638-3.152 1.572-4.012 3.14a.262.262 0 01-.229.137zm-1.035 15.002a.26.26 0 01-.169-.459c11.31-9.616 20.948-8.135 29.451-6.828 7.49 1.151 14.568 2.239 21.767-4.253a.26.26 0 01.349.387c-7.383 6.657-14.577 5.552-22.196 4.382-8.803-1.353-17.904-2.752-29.034 6.71a.262.262 0 01-.168.061zm-3.068 16.457a.323.323 0 01-.061-.006.263.263 0 01-.194-.314c.378-1.616 1.94-2.612 3.259-3.3 11.325-5.907 21.608-4.405 30.678-3.08 9.029 1.319 16.828 2.458 23.654-3.708a.26.26 0 01.35.388c-7.01 6.33-14.92 5.174-24.079 3.836-8.993-1.312-19.186-2.802-30.361 3.027-1.221.636-2.663 1.547-2.993 2.955a.26.26 0 01-.253.202zm-2.469 14.437a.258.258 0 01-.213-.111.258.258 0 01.063-.362c13.123-9.281 22.526-7.441 34.431-5.11 7.422 1.454 15.835 3.1 26.57 2.112a.263.263 0 01.283.236.26.26 0 01-.237.283c-10.808.996-19.261-.659-26.716-2.119-11.781-2.306-21.087-4.129-34.031 5.023a.26.26 0 01-.15.048zm50.473 12.159a62.41 62.41 0 01-3.163-.089c-9.288-.478-17.238-1.97-23.626-3.168-10.958-2.055-18.2-3.415-22.775 1.62a.26.26 0 11-.384-.351c4.77-5.249 12.124-3.869 23.255-1.782 6.373 1.195 14.305 2.683 23.557 3.159 6.432.329 13.526-.034 17.4-5.257a.26.26 0 01.364-.054c.116.086.14.249.055.365-3.382 4.56-9.055 5.557-14.683 5.557z" fill="#463C3A"/><path d="M210.59 157.981c.298 13.857-7.458 45.544 4.468 53.026 2.769 1.737 6.39 6.199 26.828 10.358a2.539 2.539 0 003.04-2.666c-3.359-46.44-17.86-133.605-18.2-133.814-8.858-5.437-14.902-6.932-23.532-9.263-2.709 45.645 7.063 66.909 7.396 82.359z" fill="#0075FF"/><path d="M203.435 75.957c-1.781 30.605 2.051 50.157 4.851 64.446 1.373 7.002 2.456 12.532 2.564 17.572.08 3.711-.422 8.769-.954 14.123-1.474 14.83-3.309 33.287 5.299 38.688.403.252.817.555 1.296.908 2.785 2.048 7.97 5.859 25.447 9.415a2.26 2.26 0 001.962-.523 2.248 2.248 0 00.765-1.868c-3.329-46.025-17.366-130.608-18.155-133.66-8.413-5.151-14.25-6.724-22.319-8.897l-.756-.204zm38.967 145.72c-.189 0-.378-.019-.568-.057-17.588-3.578-22.834-7.434-25.652-9.507a21.705 21.705 0 00-1.263-.885c-8.882-5.573-7.031-24.208-5.543-39.181.531-5.339 1.032-10.382.953-14.061-.108-4.994-1.187-10.506-2.555-17.482-2.816-14.367-6.671-34.042-4.841-64.898l.019-.32 1.375.37c8.136 2.194 14.014 3.777 22.535 9.007.114.069.268.164 2.636 14.646a2376.022 2376.022 0 015.453 35.108c3.694 24.961 8.469 59.843 10.235 84.263a2.772 2.772 0 01-.942 2.298 2.777 2.777 0 01-1.842.699z" fill="#001936"/><path d="M239.65 214.823a.262.262 0 01-.247-.176c-3.848-11.134-3.478-23.214-3.12-34.896.094-3.084.192-6.273.209-9.385.122-22.138-4.039-44.75-12.034-65.391a.26.26 0 01.149-.337.258.258 0 01.337.149c8.019 20.701 12.193 43.379 12.07 65.582-.018 3.118-.115 6.311-.21 9.398-.356 11.634-.725 23.666 3.092 34.71a.26.26 0 01-.246.346z" fill="#001936"/><path d="M145.697 106.969c-4.325 19.508-2.795 40.195-3.234 60.172 6.439.308 13.159-.944 19.482.299.666-7.51 7.532-84.454-.071-81.15-2.328 1.011-13.115 6.867-16.177 20.679z" fill="#0075FF"/><path d="M155.231 166.617c2.181 0 4.358.121 6.481.512 3.274-36.969 5.268-77.495 1.058-80.53-.245-.177-.496-.2-.793-.07-.518.225-12.743 5.69-16.025 20.496-3.231 14.576-3.187 30.014-3.145 44.943.014 4.907.028 9.978-.076 14.922 2.384.101 4.848-.009 7.233-.116 1.739-.078 3.505-.157 5.267-.157zm6.95 1.134l-.285-.055c-3.862-.76-7.952-.577-11.909-.401-2.481.11-5.047.225-7.535.106l-.254-.013.006-.254c.11-5.018.095-10.176.081-15.164-.043-14.958-.086-30.426 3.157-45.059 3.341-15.062 15.799-20.631 16.328-20.861.461-.2.913-.157 1.305.125 2.524 1.82 3.221 15.048 2.076 39.317-.57 12.076-1.612 26.933-2.932 41.832l-.038.427z" fill="#001936"/><path d="M173.316 212.872c-3.183 4.489-9.308 8.809-27.851 11.277a2.536 2.536 0 01-2.867-2.641c2.331-46.463 18.94-135 19.276-135.218 8.718-5.659 10.627-6.477 19.326-8.775 2.982 14.268-12.332 46.097-14.478 76.772-1.947 27.825 8.448 55.972 6.594 58.585z" fill="#0075FF"/><path d="M162.089 86.46c-.389 1.432-4.538 23.205-8.949 50.773-4.022 25.14-9.071 60.17-10.282 84.288a2.27 2.27 0 00.732 1.788c.499.458 1.168.67 1.841.581 19.218-2.557 24.774-7.081 27.673-11.169.593-.837-.379-5.376-1.61-11.122-2.351-10.986-6.289-29.372-5.033-47.33 1.05-15 5.224-30.205 8.905-43.619 3.759-13.694 7.012-25.544 5.633-32.812-8.584 2.274-10.448 3.133-18.91 8.622zm-16.961 137.973c-.697 0-1.371-.26-1.892-.74a2.794 2.794 0 01-.899-2.198c1.22-24.295 6.323-59.622 10.389-84.979a1846.43 1846.43 0 016.065-35.588c2.659-14.674 2.856-14.802 2.941-14.857 8.586-5.573 10.58-6.478 19.401-8.808l.265-.07.058.269c1.539 7.365-1.764 19.396-5.586 33.325-3.676 13.392-7.842 28.57-8.888 43.519-1.251 17.884 2.676 36.225 5.022 47.183 1.52 7.098 2.219 10.553 1.525 11.534-2.964 4.179-8.612 8.8-28.029 11.385a2.93 2.93 0 01-.372.025z" fill="#001936"/><path d="M148.287 217.135a.26.26 0 01-.259-.251 290.272 290.272 0 016.413-72.449.26.26 0 01.509.111 289.842 289.842 0 00-6.402 72.318.26.26 0 01-.25.27l-.011.001z" fill="#001936"/><path d="M171.003 85.085c.367 4.297.727 8.673-.22 12.88-.602 2.671-1.717 5.196-2.824 7.701l-4.655 10.523a40.367 40.367 0 0011.758 6.208l10.458-47.29c.184-.836.364-1.736.03-2.524-.334-.788-1.416-1.304-2.077-.76-.421.345-.504.943-.587 1.48a14.502 14.502 0 01-2.344 5.935c-.518.76-1.329 1.552-2.22 1.322-.682-.176-1.07-.877-1.366-1.517a48.845 48.845 0 01-2.941-8.233c-.879-3.395-1.389-6.898-2.551-10.217-.358-1.021-.663-3.052-2.039-2.168-1.18.759-.4 3.45-.306 4.541l1.884 22.12z" fill="#FF9A85"/><path d="M181.031 105.644c-.05.368-15.033 62.355-24.572 67.286-4.596 2.374-17.839 2.259-12.663-14.913 8.361-27.732 19.717-48.684 23.95-55.875 6.11-.811 14.393 4.377 13.285 3.502z" fill="#0075FF"/><path d="M167.906 102.385c-3.495 5.95-15.212 27.02-23.86 55.707-1.971 6.541-1.429 11.314 1.569 13.804 3.211 2.669 8.299 2.056 10.725.803 9.016-4.661 23.341-62.505 24.375-66.845-.101-.048-.221-.108-.366-.178-1.942-.954-7.821-3.839-12.443-3.291zm-16.488 71.897c-2.131 0-4.393-.536-6.136-1.985-2.212-1.837-4.309-5.82-1.735-14.355 8.719-28.922 20.554-50.123 23.974-55.932l.064-.11.127-.017c4.798-.635 10.872 2.345 12.867 3.325l.247.121.028-.151.338.262c.088.069.292.231.159.441-.042.068-.08.111-.135.127-.551 2.353-4.141 16.861-8.664 31.644-6.572 21.481-11.946 33.428-15.972 35.509-1.241.641-3.144 1.121-5.162 1.121z" fill="#001936"/><path d="M177.36 165.246c-7.29 1.106-7.387-1.21-11.478-1.535-2.045-.161-4.049.599-6.097.729-3.608.229-7.177-1.497-10.736-1.39a.959.959 0 00-.738 1.537c1.832 2.471 6.489 3.103 7.515 5.99.179.505-.194.946-.701 1.116-9.143 3.07-14.766-11.823-17.045-8.824-.747.982.047 1.537 7.902 11.894 7.806 10.293 10.801-.194 31.647-.56l15.855-.275a53.787 53.787 0 00-.398-7.882c-.295-2.364.075-4.623-2.51-4.037-4.318.979-8.666 2.545-13.216 3.237z" fill="#FF9A85"/><path d="M245.119 163.655c.7 11.226-10.139 15.038-67.721 13.859a1.54 1.54 0 01-1.369-.894c-1.718-3.763-2.169-7.899-1.899-11.923a1.544 1.544 0 011.08-1.372c15.899-4.935 29.007-7.335 44.425-8.612a2.649 2.649 0 002.409-2.997c-4.748-34.625-3.442-66.049 3.482-67.06 8.429-1.233 18.407 59.983 19.593 78.999z" fill="#0075FF"/><path d="M225.775 84.897c-.071 0-.141.005-.211.015-3.129.458-5.278 7.995-5.895 20.681-.614 12.611.346 29.409 2.634 46.087a2.88 2.88 0 01-.612 2.211 2.894 2.894 0 01-2.035 1.081c-16.137 1.337-28.992 3.829-44.368 8.602a1.29 1.29 0 00-.899 1.139c-.298 4.447.334 8.417 1.878 11.798.201.44.647.731 1.137.74 42.109.863 59.809-.945 65.303-6.672 1.655-1.726 2.338-3.921 2.152-6.908-1.046-16.759-9.654-71.657-17.713-78.195-.474-.385-.935-.58-1.371-.58zm-29.977 93.087c-5.535 0-11.649-.072-18.405-.211a1.807 1.807 0 01-1.601-1.045c-1.579-3.461-2.226-7.514-1.922-12.05a1.811 1.811 0 011.263-1.602c15.416-4.786 28.302-7.284 44.48-8.623a2.372 2.372 0 001.671-.889c.413-.516.591-1.16.502-1.813-4.953-36.117-3.292-66.332 3.703-67.355.648-.095 1.318.132 1.986.674 8.164 6.626 16.855 61.752 17.904 78.568.197 3.144-.533 5.464-2.295 7.301-4.785 4.989-17.737 7.045-47.286 7.045z" fill="#001936"/><path d="M171.511 25.427c.561 2.822 3.068 5.146 5.924 5.491 3.772.456 6.397-2.078 13.425 1.583 6.722 3.499 4.256 7.05 4.512 17.06.312 12.25 9.605 15.256 11.669 7.61.47-1.742.499-3.58.981-5.32.903-3.256 3.301-5.881 4.609-8.996 3.987-9.496-3.577-16.005-4.372-17.431-1.537-2.756-.924-10.48-7.18-11.281-.899-.116-1.811-.006-2.718-.004-4.078.014-9.092-2.45-12.915-.008-1.016.65-1.824 1.611-2.908 2.14-2.848 1.389-12.499 1.737-11.027 9.156z" fill="#BC664F"/><path d="M196.376 41.683a.163.163 0 01-.031-.003.258.258 0 01-.228-.288c.211-1.828 2.369-2.267 3.407-2.478a.263.263 0 01.308.203.262.262 0 01-.204.308c-1.467.298-2.846.751-2.993 2.027a.263.263 0 01-.259.23zm-17.026-12.24c-2.359 0-4.344-1.296-5.33-3.492-.933-2.08-.681-4.42.628-5.824a.261.261 0 01.381.356c-1.167 1.251-1.382 3.364-.532 5.254.918 2.047 2.798 3.24 4.996 3.182.149 0 .264.113.268.255a.262.262 0 01-.255.267l-.156.002zm24.262 29.639a.256.256 0 01-.095-.018c-2.847-1.112-5.195-3.482-6.277-6.342a.26.26 0 01.151-.335.263.263 0 01.338.15c1.03 2.725 3.265 4.982 5.978 6.041a.258.258 0 01.147.337.26.26 0 01-.242.167zm.831-25.004a.26.26 0 01-.176-.453c2.228-2.037 3.445-5.169 3.178-8.175a.262.262 0 01.237-.283c.14-.012.27.094.283.236.281 3.166-1.001 6.463-3.345 8.607a.267.267 0 01-.177.068zm3.541 11.544a.26.26 0 01-.204-.422c3.495-4.44 3.636-6.37 2.303-10.698a.26.26 0 01.172-.326.262.262 0 01.326.173c1.396 4.53 1.251 6.546-2.391 11.174a.26.26 0 01-.206.099zm-.55 8.352a.26.26 0 01-.255-.317 7.143 7.143 0 00-1.658-6.281.261.261 0 11.386-.35c1.631 1.794 2.313 4.379 1.781 6.745a.261.261 0 01-.254.203zm-23.621-34.873a.26.26 0 01-.219-.403c2.796-4.322 7.407-2.372 8.922-1.731.156.066.274.116.348.14 2.72.882 5.756.382 8.367-.224a.26.26 0 11.118.508c-2.681.622-5.805 1.134-8.646.212a6.168 6.168 0 01-.39-.156c-1.416-.599-5.725-2.42-8.281 1.535a.26.26 0 01-.219.12zm14.926 13.263a.264.264 0 01-.261-.272 7.687 7.687 0 00-2.32-5.845 7.684 7.684 0 00-5.907-2.164.26.26 0 01-.279-.241.26.26 0 01.242-.28 8.208 8.208 0 016.307 2.31 8.203 8.203 0 012.477 6.243.26.26 0 01-.259.25z" fill="#92422F"/><path d="M198.146 42.458c-3.026-1.323-4.059 5.234-4.483 8.5-.833 6.438 9.249-6.416 4.483-8.5z" fill="#FF9A85"/><path d="M197.067 45.59c-.054-.312-.524-.227-.47.082.324 1.88-.361 2.87-1.156 3.186a.239.239 0 00-.135.31c.321.813 2.224-.888 1.761-3.577z" fill="#EE795C"/><path d="M232.374 159.055c-3.495 0-7.002-1.796-9.022-4.647a.26.26 0 11.424-.302c1.995 2.815 5.507 4.546 8.957 4.421a.259.259 0 01.271.251.26.26 0 01-.25.27 9.704 9.704 0 01-.38.007zm-1.026-52.561a.263.263 0 01-.259-.229c-.684-5.459-1.536-12.253-5.363-17.154a.262.262 0 01.045-.367.26.26 0 01.366.046c3.915 5.015 4.778 11.888 5.47 17.41a.261.261 0 01-.226.292l-.033.002zm-84.286 8.53c-.159-.009-.269-.131-.261-.276a35.916 35.916 0 018.746-21.482.26.26 0 11.393.343 35.387 35.387 0 00-8.618 21.168.26.26 0 01-.26.247z" fill="#001936"/></svg>