<svg width="393" height="254" fill="none" xmlns="http://www.w3.org/2000/svg"><path d="M307.24 83.254c-42.018 4.142-67.111 4.38-109.011 0-1.894-.237-3.314-1.776-3.314-3.67V8.332c0-2.25 2.012-4.024 4.261-3.67 39.415 5.209 66.519 5.209 107.236 0 2.249-.236 4.261 1.42 4.261 3.67v71.254c0 1.893-1.539 3.55-3.433 3.669z" fill="#BABABA"/><path d="M313.159 78.638c-42.019 4.142-67.112 4.379-109.012 0-1.893-.237-3.314-1.776-3.314-3.67V3.715c0-2.25 2.012-4.025 4.261-3.67 39.415 5.208 66.52 5.208 107.236 0 2.249-.236 4.261 1.42 4.261 3.67v71.253c-.118 1.776-1.539 3.433-3.432 3.67z" fill="#DCDCDC"/><path d="M224.979 15.67h-12.428c-.829 0-1.42-.711-1.42-1.421 0-.71.71-1.42 1.42-1.42h12.428c.828 0 1.42.71 1.42 1.42s-.592 1.42-1.42 1.42zm25.329 0H237.88c-.828 0-1.42-.711-1.42-1.421 0-.71.71-1.42 1.42-1.42h12.428c.829 0 1.421.71 1.421 1.42s-.592 1.42-1.421 1.42zm25.33 0H263.21c-.829 0-1.42-.711-1.42-1.421 0-.71.71-1.42 1.42-1.42h12.428c.828 0 1.42.71 1.42 1.42s-.592 1.42-1.42 1.42zm25.329 0h-12.428c-.828 0-1.42-.711-1.42-1.421 0-.71.71-1.42 1.42-1.42h12.428c.829 0 1.421.71 1.421 1.42s-.592 1.42-1.421 1.42zm-75.988 13.137h-12.428c-.829 0-1.42-.71-1.42-1.42 0-.829.71-1.42 1.42-1.42h12.428c.828 0 1.42.71 1.42 1.42.119.71-.592 1.42-1.42 1.42zm25.329 0H237.88c-.828 0-1.42-.71-1.42-1.42 0-.829.71-1.42 1.42-1.42h12.428c.829 0 1.421.71 1.421 1.42.118.71-.592 1.42-1.421 1.42zm25.33 0H263.21c-.829 0-1.42-.71-1.42-1.42 0-.829.71-1.42 1.42-1.42h12.428c.828 0 1.42.71 1.42 1.42s-.592 1.42-1.42 1.42zm25.329 0h-12.428c-.828 0-1.42-.71-1.42-1.42 0-.829.71-1.42 1.42-1.42h12.428c.829 0 1.421.71 1.421 1.42s-.592 1.42-1.421 1.42zM224.979 42.3h-12.428c-.829 0-1.42-.71-1.42-1.42 0-.829.71-1.42 1.42-1.42h12.428c.828 0 1.42.71 1.42 1.42.119.71-.592 1.42-1.42 1.42zm25.329 0H237.88c-.828 0-1.42-.71-1.42-1.42 0-.829.71-1.42 1.42-1.42h12.428c.829 0 1.421.71 1.421 1.42.118.71-.592 1.42-1.421 1.42zm25.33 0H263.21c-.829 0-1.42-.71-1.42-1.42 0-.829.71-1.42 1.42-1.42h12.428c.828 0 1.42.71 1.42 1.42s-.592 1.42-1.42 1.42zm25.329 0h-12.428c-.828 0-1.42-.71-1.42-1.42 0-.829.71-1.42 1.42-1.42h12.428c.829 0 1.421.71 1.421 1.42s-.592 1.42-1.421 1.42zm-75.988 12.902h-12.428c-.829 0-1.42-.71-1.42-1.42 0-.83.71-1.42 1.42-1.42h12.428c.828 0 1.42.71 1.42 1.42.119.71-.592 1.42-1.42 1.42zm25.329 0H237.88c-.828 0-1.42-.71-1.42-1.42 0-.83.71-1.42 1.42-1.42h12.428c.829 0 1.421.71 1.421 1.42.118.71-.592 1.42-1.421 1.42zm25.33 0H263.21c-.829 0-1.42-.71-1.42-1.42 0-.83.71-1.42 1.42-1.42h12.428c.828 0 1.42.71 1.42 1.42s-.592 1.42-1.42 1.42zm25.329 0h-12.428c-.828 0-1.42-.71-1.42-1.42 0-.83.71-1.42 1.42-1.42h12.428c.829 0 1.421.71 1.421 1.42s-.592 1.42-1.421 1.42zm-75.988 11.363h-12.428c-.829 0-1.42-.71-1.42-1.42 0-.83.71-1.421 1.42-1.421h12.428c.828 0 1.42.71 1.42 1.42.119.71-.592 1.42-1.42 1.42zm25.329 0H237.88c-.828 0-1.42-.71-1.42-1.42 0-.83.71-1.421 1.42-1.421h12.428c.829 0 1.421.71 1.421 1.42.118.71-.592 1.42-1.421 1.42zm25.33 0H263.21c-.829 0-1.42-.71-1.42-1.42 0-.83.71-1.421 1.42-1.421h12.428c.828 0 1.42.71 1.42 1.42s-.592 1.42-1.42 1.42zm25.329 0h-12.428c-.828 0-1.42-.71-1.42-1.42 0-.83.71-1.421 1.42-1.421h12.428c.829 0 1.421.71 1.421 1.42s-.592 1.42-1.421 1.42z" fill="#fff"/><path d="M264.54 156.555c-31.958 3.669-52.434 4.024-81.906.118-1.894-.236-3.196-1.893-3.196-3.669v-51.369c0-2.249 1.894-3.906 4.024-3.67 31.011 2.605 50.896 3.552 80.249.12 2.249-.237 4.143 1.42 4.143 3.668v51.133c0 1.894-1.539 3.432-3.314 3.669z" fill="#BABABA"/><path d="M259.687 160.698c-31.958 3.669-52.434 4.024-81.906.118-1.894-.237-3.196-1.894-3.196-3.669v-51.369c0-2.249 1.894-3.906 4.024-3.67 31.011 2.604 50.896 3.551 80.25.119 2.248-.237 4.142 1.42 4.142 3.669v51.132c0 1.776-1.42 3.433-3.314 3.67z" fill="#DCDCDC"/><path d="M202.163 125.189H183.58a2.93 2.93 0 01-2.959-2.959 2.93 2.93 0 012.959-2.959h18.583a2.93 2.93 0 012.959 2.959c-.118 1.657-1.42 2.959-2.959 2.959zm25.921 0h-18.582a2.93 2.93 0 01-2.96-2.959 2.93 2.93 0 012.96-2.959h18.582a2.93 2.93 0 012.959 2.959c-.118 1.657-1.42 2.959-2.959 2.959zm25.922 0h-18.583a2.93 2.93 0 01-2.959-2.959 2.93 2.93 0 012.959-2.959h18.583a2.93 2.93 0 012.959 2.959c-.119 1.657-1.421 2.959-2.959 2.959zm-51.843 10.534H183.58a2.93 2.93 0 01-2.959-2.959 2.93 2.93 0 012.959-2.959h18.583a2.93 2.93 0 012.959 2.959c-.118 1.657-1.42 2.959-2.959 2.959zm25.921 0h-18.582a2.93 2.93 0 01-2.96-2.959 2.93 2.93 0 012.96-2.959h18.582a2.93 2.93 0 012.959 2.959c-.118 1.657-1.42 2.959-2.959 2.959zm25.922 0h-18.583a2.93 2.93 0 01-2.959-2.959 2.93 2.93 0 012.959-2.959h18.583a2.93 2.93 0 012.959 2.959c-.119 1.657-1.421 2.959-2.959 2.959zm-51.843 10.416H183.58a2.93 2.93 0 01-2.959-2.959 2.93 2.93 0 012.959-2.959h18.583a2.93 2.93 0 012.959 2.959c-.118 1.657-1.42 2.959-2.959 2.959zm25.921 0h-18.582a2.93 2.93 0 01-2.96-2.959 2.93 2.93 0 012.96-2.959h18.582a2.93 2.93 0 012.959 2.959c-.118 1.657-1.42 2.959-2.959 2.959zm25.922 0h-18.583a2.93 2.93 0 01-2.959-2.959 2.93 2.93 0 012.959-2.959h18.583a2.93 2.93 0 012.959 2.959c-.119 1.657-1.421 2.959-2.959 2.959z" fill="#fff"/><path d="M132.017 91.036c-33.26 14.44-50.422-3.314-81.906.118-1.894.237-3.196-1.894-3.196-3.669V36.116c0-2.249 2.012-4.498 4.024-3.67 31.011 11.364 51.843-3.432 80.25.12 2.248.236 4.142 1.42 4.142 3.668v51.133c.119 1.893-1.538 2.959-3.314 3.669z" fill="#9BD6C4"/><path d="M135.805 97.782c-33.26 14.441-50.422-3.314-81.907.119-1.893.237-3.195-1.894-3.195-3.67V42.864c0-2.25 2.012-4.498 4.024-3.67 31.01 11.363 51.842-3.432 80.249.119 2.249.236 4.143 1.42 4.143 3.669v51.132c.118 1.894-1.539 2.96-3.314 3.67z" fill="#43C59E"/><path d="M96.745 54.58H58.632c-.71 0-1.301-.591-1.301-1.301s.591-1.302 1.301-1.302h38.231c.71 0 1.302.591 1.302 1.302 0 .71-.71 1.301-1.42 1.301zm34.562 0h-24.975c-.71 0-1.301-.591-1.301-1.301s.591-1.302 1.301-1.302h24.975c.71 0 1.302.591 1.302 1.302 0 .71-.592 1.301-1.302 1.301zm-38.231 5.09h38.231c.71 0 1.302-.592 1.302-1.302 0-.71-.592-1.302-1.302-1.302h-38.23c-.711 0-1.303.592-1.303 1.302 0 .71.592 1.302 1.302 1.302zm-34.443 0h24.974c.71 0 1.302-.592 1.302-1.302 0-.71-.592-1.302-1.302-1.302H58.633c-.71 0-1.302.592-1.302 1.302-.119.71.592 1.302 1.302 1.302zm38.112 5.09H58.633c-.71 0-1.302-.592-1.302-1.303 0-.71.592-1.301 1.302-1.301h38.23c.71 0 1.303.591 1.303 1.302 0 .71-.71 1.302-1.42 1.302zm34.562 0h-24.975c-.71 0-1.301-.592-1.301-1.303 0-.71.591-1.301 1.301-1.301h24.975c.71 0 1.302.591 1.302 1.302 0 .71-.592 1.302-1.302 1.302zm-38.231 5.09h38.231c.71 0 1.302-.593 1.302-1.303s-.592-1.302-1.302-1.302h-38.23c-.711 0-1.303.592-1.303 1.302 0 .71.592 1.302 1.302 1.302zm-34.443 0h24.974c.71 0 1.302-.593 1.302-1.303s-.592-1.302-1.302-1.302H58.633c-.71 0-1.302.592-1.302 1.302-.119.71.592 1.302 1.302 1.302zm38.112 5.207H58.633c-.71 0-1.302-.592-1.302-1.302 0-.71.592-1.302 1.302-1.302h38.23c.71 0 1.303.592 1.303 1.302 0 .592-.71 1.302-1.42 1.302zm34.562 0h-24.975c-.71 0-1.301-.592-1.301-1.302 0-.71.591-1.302 1.301-1.302h24.975c.71 0 1.302.592 1.302 1.302 0 .592-.592 1.302-1.302 1.302zm-38.231 5.09h38.231c.71 0 1.302-.592 1.302-1.302 0-.71-.592-1.302-1.302-1.302h-38.23c-.711 0-1.303.591-1.303 1.302 0 .71.592 1.302 1.302 1.302zm-34.443 0h24.974c.71 0 1.302-.592 1.302-1.302 0-.71-.592-1.302-1.302-1.302H58.633c-.71 0-1.302.591-1.302 1.302-.119.71.592 1.302 1.302 1.302zm38.112 5.089H58.633c-.71 0-1.302-.592-1.302-1.302 0-.71.592-1.302 1.302-1.302h38.23c.71 0 1.303.592 1.303 1.302 0 .71-.71 1.302-1.42 1.302zm34.562 0h-24.975c-.71 0-1.301-.592-1.301-1.302 0-.71.591-1.302 1.301-1.302h24.975c.71 0 1.302.592 1.302 1.302 0 .71-.592 1.302-1.302 1.302zm-38.231 5.09h38.231c.71 0 1.302-.592 1.302-1.302 0-.71-.592-1.302-1.302-1.302h-38.23c-.711 0-1.303.592-1.303 1.302 0 .71.592 1.302 1.302 1.302zm-34.443 0h24.974c.71 0 1.302-.592 1.302-1.302 0-.71-.592-1.302-1.302-1.302H58.633c-.71 0-1.302.592-1.302 1.302-.119.71.592 1.302 1.302 1.302z" fill="#fff"/><path d="M364.764 98.629c-32.313 4.853-53.855-7.339-88.653 0-1.776.355-3.196-1.894-3.196-3.67v-42.49c0-2.25 2.012-4.025 4.261-3.67 33.496 4.853 48.528-5.918 86.286.119 2.249.355 4.379 1.42 4.379 3.67V94.84c.119 1.894-1.302 3.433-3.077 3.788z" fill="#9BD6C4"/><path d="M368.906 94.604c-32.312 4.853-53.854-7.338-88.653 0-1.775.356-3.195-1.893-3.195-3.669V48.443c0-2.249 2.012-4.024 4.261-3.669 33.496 4.853 48.528-5.918 86.285.118 2.249.355 4.38 1.42 4.38 3.67v42.255c.118 1.894-1.184 3.55-3.078 3.787z" fill="#43C59E"/><path d="M289.722 58.267a2.012 2.012 0 100-4.023 2.012 2.012 0 000 4.023zm16.334 0h-7.93c-1.065 0-2.012-.946-2.012-2.012 0-1.065.947-2.012 2.012-2.012h7.93c1.066 0 2.013.947 2.013 2.012 0 1.066-.947 2.012-2.013 2.012zm53.5 0h-7.93c-1.066 0-2.012-.946-2.012-2.012 0-1.065.946-2.012 2.012-2.012h7.93c1.065 0 2.012.947 2.012 2.012 0 1.066-.947 2.012-2.012 2.012zm-16.808 0h-27.459c-1.066 0-2.013-.946-2.013-2.012 0-1.065.947-2.012 2.013-2.012h27.459c1.066 0 2.013.947 2.013 2.012 0 1.066-.829 2.012-2.013 2.012zm-53.026 6.511a2.012 2.012 0 100-4.024 2.012 2.012 0 000 4.024zm16.334 0h-7.93c-1.065 0-2.012-.947-2.012-2.013 0-1.065.947-2.012 2.012-2.012h7.93c1.066 0 2.013.947 2.013 2.012-.119 1.184-.947 2.013-2.013 2.013zm53.5 0h-7.93c-1.066 0-2.012-.947-2.012-2.013 0-1.065.946-2.012 2.012-2.012h7.93c1.065 0 2.012.947 2.012 2.012-.118 1.184-.947 2.013-2.012 2.013zm-16.808 0h-27.459c-1.066 0-2.013-.947-2.013-2.013 0-1.065.947-2.012 2.013-2.012h27.459c1.066 0 2.013.947 2.013 2.012 0 1.184-.829 2.013-2.013 2.013zm-53.026 6.628a2.012 2.012 0 10.001-4.023 2.012 2.012 0 00-.001 4.023zm16.334 0h-7.93c-1.065 0-2.012-.947-2.012-2.013 0-1.065.947-2.012 2.012-2.012h7.93c1.066 0 2.013.947 2.013 2.013-.119 1.065-.947 2.012-2.013 2.012zm53.5 0h-7.93c-1.066 0-2.012-.947-2.012-2.013 0-1.065.946-2.012 2.012-2.012h7.93c1.065 0 2.012.947 2.012 2.013-.118 1.065-.947 2.012-2.012 2.012zm-16.808 0h-27.459c-1.066 0-2.013-.947-2.013-2.013 0-1.065.947-2.012 2.013-2.012h27.459c1.066 0 2.013.947 2.013 2.013 0 1.065-.829 2.012-2.013 2.012zm-53.026 6.509a2.012 2.012 0 100-4.023 2.012 2.012 0 000 4.023zm16.334 0h-7.93c-1.065 0-2.012-.947-2.012-2.012s.947-2.012 2.012-2.012h7.93c1.066 0 2.013.947 2.013 2.012-.119 1.066-.947 2.012-2.013 2.012zm53.5 0h-7.93c-1.066 0-2.012-.947-2.012-2.012s.946-2.012 2.012-2.012h7.93c1.065 0 2.012.947 2.012 2.012-.118 1.066-.947 2.012-2.012 2.012zm-16.808 0h-27.459c-1.066 0-2.013-.947-2.013-2.012s.947-2.012 2.013-2.012h27.459c1.066 0 2.013.947 2.013 2.012 0 1.066-.829 2.012-2.013 2.012zm-53.026 6.51a2.012 2.012 0 100-4.023 2.012 2.012 0 000 4.023zm16.334 0h-7.93c-1.065 0-2.012-.947-2.012-2.012s.947-2.012 2.012-2.012h7.93c1.066 0 2.013.947 2.013 2.012-.119 1.184-.947 2.012-2.013 2.012zm53.5 0h-7.93c-1.066 0-2.012-.947-2.012-2.012s.946-2.012 2.012-2.012h7.93c1.065 0 2.012.947 2.012 2.012-.118 1.184-.947 2.012-2.012 2.012zm-16.808 0h-27.459c-1.066 0-2.013-.947-2.013-2.012s.947-2.012 2.013-2.012h27.459c1.066 0 2.013.947 2.013 2.012 0 1.184-.829 2.012-2.013 2.012z" fill="#fff"/><path d="M388.894 177.296c-34.088-3.314-54.565-1.894-85.812.118-2.131.119-4.024-1.538-4.024-3.787v-39.178c0-2.249 2.012-4.024 4.142-3.669 33.142 4.024 55.867 5.681 85.339.355 2.249-.474 4.38 1.302 4.38 3.669v38.704c.118 2.249-1.894 4.025-4.025 3.788z" fill="#9DC4F2"/><path d="M384.752 172.562c-34.089-3.315-54.565-1.894-85.813.118-2.13.118-4.024-1.539-4.024-3.788v-39.177c0-2.249 2.012-4.025 4.143-3.67 33.141 4.025 55.866 5.682 85.339.355 2.248-.473 4.379 1.302 4.379 3.67v38.704c0 2.249-1.894 4.024-4.024 3.788z" fill="#0075FF"/><path d="M316.22 142.616h-11.126c-.947 0-1.775-.828-1.775-1.775s.828-1.776 1.775-1.776h11.126c.947 0 1.776.829 1.776 1.776.118.947-.71 1.775-1.776 1.775zm20.832 0h-11.126c-.947 0-1.775-.828-1.775-1.775s.828-1.776 1.775-1.776h11.126c.947 0 1.775.829 1.775 1.776 0 .947-.828 1.775-1.775 1.775zm20.713 0h-11.126c-.947 0-1.775-.828-1.775-1.775s.828-1.776 1.775-1.776h11.126c.947 0 1.776.829 1.776 1.776.118.947-.711 1.775-1.776 1.775zm20.832 0h-11.126c-.947 0-1.775-.828-1.775-1.775s.828-1.776 1.775-1.776h11.126c.947 0 1.775.829 1.775 1.776 0 .947-.828 1.775-1.775 1.775zm-62.377 8.64h-11.126c-.947 0-1.775-.828-1.775-1.775s.828-1.775 1.775-1.775h11.126c.947 0 1.776.828 1.776 1.775.118.947-.71 1.775-1.776 1.775zm20.832 0h-11.126c-.947 0-1.775-.828-1.775-1.775s.828-1.775 1.775-1.775h11.126c.947 0 1.775.828 1.775 1.775s-.828 1.775-1.775 1.775zm20.713 0h-11.126c-.947 0-1.775-.828-1.775-1.775s.828-1.775 1.775-1.775h11.126c.947 0 1.776.828 1.776 1.775.118.947-.711 1.775-1.776 1.775zm20.832 0h-11.126c-.947 0-1.775-.828-1.775-1.775s.828-1.775 1.775-1.775h11.126c.947 0 1.775.828 1.775 1.775s-.828 1.775-1.775 1.775zm-62.377 8.522h-11.126c-.947 0-1.775-.828-1.775-1.775s.828-1.775 1.775-1.775h11.126c.947 0 1.776.828 1.776 1.775.118.947-.71 1.775-1.776 1.775zm20.832 0h-11.126c-.947 0-1.775-.828-1.775-1.775s.828-1.775 1.775-1.775h11.126c.947 0 1.775.828 1.775 1.775s-.828 1.775-1.775 1.775zm20.713 0h-11.126c-.947 0-1.775-.828-1.775-1.775s.828-1.775 1.775-1.775h11.126c.947 0 1.776.828 1.776 1.775.118.947-.711 1.775-1.776 1.775zm20.832 0h-11.126c-.947 0-1.775-.828-1.775-1.775s.828-1.775 1.775-1.775h11.126c.947 0 1.775.828 1.775 1.775s-.828 1.775-1.775 1.775z" fill="#fff"/><path d="M89.837 138.562c-37.876 18.464-54.565-1.894-85.813.118-2.13.118-4.024-1.539-4.024-3.788V95.715c0-2.25 2.012-4.025 4.143-3.67 33.141 4.025 53.38 17.4 85.338.355 2.013-1.065 4.38 1.302 4.38 3.67v38.704c.118 2.249-2.012 2.841-4.024 3.788z" fill="#9DC4F2"/><path d="M93.624 144.125c-37.876 18.464-54.565-1.894-85.812.118-2.13.118-4.024-1.539-4.024-3.788v-39.177c0-2.25 2.012-4.025 4.142-3.67 33.142 4.025 53.381 17.4 85.34.355 2.011-1.065 4.379 1.302 4.379 3.67v38.704c.118 2.367-2.013 2.841-4.025 3.788z" fill="#0075FF"/><path d="M31.484 119.387H11.836a2.122 2.122 0 01-2.13-2.131c0-1.183.947-2.13 2.13-2.13h19.648a2.12 2.12 0 012.13 2.13 2.122 2.122 0 01-2.13 2.131zm44.267 0H40.243a2.122 2.122 0 01-2.13-2.131 2.12 2.12 0 012.13-2.13H75.75a2.12 2.12 0 012.13 2.13 2.122 2.122 0 01-2.13 2.131zm13.967 0H83.8a2.122 2.122 0 01-2.13-2.131 2.12 2.12 0 012.13-2.13h5.918a2.12 2.12 0 012.13 2.13 2.122 2.122 0 01-2.13 2.131zm-19.648 7.575h19.648a2.12 2.12 0 002.13-2.13 2.122 2.122 0 00-2.13-2.131H70.07c-1.183 0-2.13.947-2.13 2.131.118 1.183.947 2.13 2.13 2.13zm-44.267 0H61.31a2.12 2.12 0 002.13-2.13 2.122 2.122 0 00-2.13-2.131H25.803c-1.184 0-2.13.947-2.13 2.131.118 1.183 1.065 2.13 2.13 2.13zm-13.967 0h5.918a2.12 2.12 0 002.13-2.13 2.122 2.122 0 00-2.13-2.131h-5.918c-1.184 0-2.13.947-2.13 2.131 0 1.183.947 2.13 2.13 2.13zm19.648 7.575H11.836a2.121 2.121 0 01-2.13-2.13c0-1.184.947-2.131 2.13-2.131h19.648c1.184 0 2.13.947 2.13 2.131a2.12 2.12 0 01-2.13 2.13zm44.267 0H40.243a2.121 2.121 0 01-2.13-2.13c0-1.184.946-2.131 2.13-2.131H75.75c1.184 0 2.13.947 2.13 2.131a2.12 2.12 0 01-2.13 2.13zm13.967 0H83.8a2.121 2.121 0 01-2.13-2.13c0-1.184.946-2.131 2.13-2.131h5.918c1.184 0 2.13.947 2.13 2.131a2.12 2.12 0 01-2.13 2.13z" fill="#fff"/><path d="M167.01 253.138c-109.248 0-110.077-23.08 0-23.08 109.129 0 110.076 23.08 0 23.08z" fill="#DCDCDC"/><path d="M169.732 196.916c22.962 7.221 12.547 36.456-9.35 33.852-12.192-1.42-71.61-22.489-78-31.366-2.25-3.077-2.605-7.457-.593-10.653 2.96-4.852 7.812-3.905 12.428-3.195.71.236 57.051 5.444 75.515 11.362z" fill="#263238"/><path d="M163.104 231.123c-.829 0-1.775 0-2.722-.118-12.665-1.421-71.846-22.608-78.12-31.485-2.366-3.195-2.603-7.693-.59-10.889 2.958-4.734 7.574-4.024 12.19-3.314l.474.118s.592.119 1.42.119c21.424 2.13 59.536 6.51 74.213 11.126 11.599 3.669 14.085 12.664 12.783 19.293-1.775 7.693-9.114 15.15-19.648 15.15zM89.01 185.317c-2.723 0-5.208.71-6.865 3.669-1.894 3.078-1.657 7.339.591 10.416 6.273 8.759 65.218 29.709 77.882 31.247 11.718 1.421 19.885-6.509 21.661-14.676 1.42-6.747-1.066-15.151-12.428-18.702-14.677-4.616-52.79-8.877-74.095-11.126-.947-.118-1.302-.118-1.42-.118l-.474-.118c-1.775-.355-3.314-.592-4.852-.592z" fill="#463C3A"/><path d="M164.288 195.496c-22.963 7.22-12.547 36.456 9.35 33.852 12.191-1.421 71.609-22.489 78.001-31.366 2.248-3.078 2.604-7.457.591-10.653-2.959-4.853-7.811-3.906-12.428-3.195-.591.236-56.932 5.563-75.514 11.362z" fill="#263238"/><path d="M171.034 229.821c-10.534 0-17.872-7.457-19.53-15.269-1.42-6.628 1.066-15.623 12.784-19.293 14.795-4.616 52.789-8.995 74.212-11.126.829-.118 1.302-.118 1.421-.118l.473-.118c4.498-.71 9.232-1.421 12.191 3.314 1.894 3.196 1.657 7.693-.591 10.889-6.274 8.759-65.573 29.946-78.119 31.484-1.065.119-2.012.237-2.841.237zm-6.746-34.325l.118.237c-11.363 3.551-13.848 12.073-12.428 18.701 1.775 8.167 9.942 16.097 21.66 14.677 12.546-1.42 71.609-22.489 77.882-31.248 2.249-3.077 2.486-7.338.592-10.415-2.722-4.498-7.338-3.788-11.718-3.078l-.473.119c-.119 0-.474 0-1.421.118-21.423 2.13-59.417 6.51-74.094 11.126l-.118-.237z" fill="#463C3A"/><path d="M201.572 223.548c-27.46 7.102-43.558 7.22-70.189 0 2.012-21.897 1.894-35.745 7.457-56.103l54.683 2.485c6.392 20.595 6.51 33.141 8.049 53.618z" fill="#263238"/><path d="M166.063 229.111c-10.771 0-21.423-1.776-34.798-5.445h-.237v-.236c.474-5.09.829-9.706 1.184-14.085 1.183-14.796 2.012-26.395 6.273-42.019v-.237h.237l54.801 2.486v.118c5.563 17.873 6.392 29.591 7.575 45.806.237 2.486.355 5.208.592 7.931v.236h-.237c-13.73 3.669-24.619 5.445-35.39 5.445zm-34.443-5.8c26.395 7.102 42.137 7.102 69.715 0-.237-2.722-.355-5.326-.592-7.812-1.183-16.097-1.894-27.696-7.457-45.451l-54.328-2.485c-4.142 15.505-5.089 27.105-6.154 41.782-.356 4.379-.711 8.995-1.184 13.966z" fill="#463C3A"/><path d="M169.851 206.859a.255.255 0 01-.237-.237c-2.249-13.02-4.853-27.815-1.657-41.663 0-.119.118-.237.237-.237.118 0 .236.118.236.237-3.196 13.73-.592 28.406 1.657 41.426 0 .237-.118.355-.236.474z" fill="#323D4E"/><path d="M167.72 194.076h-.118c-8.049-6.747-7.812-8.996-5.682-30.419 0-.119.119-.237.237-.237s.237.118.237.237c-2.131 21.186-2.368 23.435 5.444 30.064.119.118.119.236 0 .355h-.118zm-32.668-9.233c-.118 0-.237-.118-.237-.118 0-.118 0-.237.119-.355 7.812-2.604 9.469-3.196 13.256-19.411 0-.119.119-.237.237-.237s.237.118.237.237c-3.788 16.57-5.445 17.162-13.612 19.884.119 0 0 0 0 0z" fill="#323D4E"/><path d="M135.052 184.843c-.118 0-.237-.118-.237-.118 0-.118 0-.237.119-.355 7.812-2.604 9.469-3.196 13.256-19.411 0-.119.119-.237.237-.237s.237.118.237.237c-3.788 16.57-5.445 17.162-13.612 19.884.119 0 0 0 0 0zm62.377.474l-.355-.118c-7.812-2.604-9.351-3.196-13.257-19.412 0-.118 0-.236.237-.236.118 0 .237 0 .237.236 3.787 15.979 5.208 16.453 12.901 19.057l.355.118c.118 0 .237.237.118.355 0-.118-.118 0-.236 0z" fill="#323D4E"/><path d="M178.373 227.572c-1.065 4.261-.829 8.759.473 13.02-16.57.947-54.091 8.995-55.156 2.486-.237-1.302-.474-.829 28.051-15.624 4.853-2.486 7.576-1.184 8.167 3.669.355 1.775 16.808-2.959 18.465-3.551z" fill="#FFFFF6"/><path d="M132.212 245.8c-4.972 0-8.286-.71-8.641-2.722-.237-1.184-.236-1.184 12.783-7.931 3.906-2.012 8.877-4.616 15.387-8.048 2.486-1.302 4.498-1.657 6.037-.829 1.302.71 2.249 2.249 2.604 4.735l.118.118c1.539.947 15.505-2.959 17.991-3.788l.355-.118-.118.474c-1.065 4.261-.829 8.64.473 12.901l.119.237h-.355c-5.09.236-12.073 1.302-19.412 2.249-10.179 1.302-20.358 2.722-27.341 2.722zm23.672-19.411c-1.065 0-2.486.355-4.024 1.183a1896.35 1896.35 0 01-15.387 8.049c-12.428 6.391-12.665 6.628-12.547 7.338.71 4.261 19.175 1.776 35.39-.473 7.221-.947 14.086-1.894 19.175-2.249-1.302-4.024-1.42-8.285-.592-12.428-2.722.828-16.215 4.734-17.991 3.669-.236-.118-.236-.237-.236-.355-.356-2.249-1.066-3.788-2.368-4.379-.236-.237-.828-.355-1.42-.355z" fill="#EDE3D7"/><path d="M135.763 243.432c-.119 0-.237-.118-.237-.236 0-.119.118-.237.237-.237 7.22 0 14.558-.829 21.66-2.367.118 0 .237 0 .237.236 0 .119 0 .237-.237.237a101.194 101.194 0 01-21.66 2.367z" fill="#EDE3D7"/><path d="M253.532 218.222c23.081-10.535 8.404-39.77-14.085-34.207-12.546 3.077-71.964 32.668-77.527 42.847-1.893 3.433-1.775 8.049.711 11.244 3.669 4.617 8.64 3.078 13.374 1.776.711-.355 58.945-13.138 77.527-21.66z" fill="#000"/><path d="M169.022 241.42c-2.367 0-4.616-.828-6.51-3.195-2.486-3.078-2.722-7.812-.71-11.481 5.445-10.061 64.625-39.77 77.645-42.966 12.31-2.959 22.134 4.38 25.093 12.902 2.367 6.746.947 16.452-10.771 21.778-14.795 6.747-54.091 16.216-76.107 21.187-.828.237-1.42.355-1.42.355l-.473.119c-2.368.591-4.617 1.301-6.747 1.301zm75.87-57.76c-1.776 0-3.551.237-5.445.71-12.901 3.196-71.845 32.786-77.29 42.729-1.894 3.551-1.657 8.048.71 10.889 3.433 4.379 8.167 3.077 12.665 1.775l.473-.118c.119 0 .474-.118 1.421-.355 22.015-4.971 61.311-14.44 76.106-21.187l.119.237-.119-.237c11.363-5.208 12.902-14.322 10.534-21.187-2.485-7.101-9.705-13.256-19.174-13.256z" fill="#DCDCDC"/><path d="M157.422 226.862c1.066 4.261.829 8.759-.473 13.02 16.571.829 54.21 8.759 55.157 2.249.236-1.302.473-.829-28.052-15.505-4.853-2.486-7.575-1.184-8.167 3.787-.355 1.776-16.689-2.959-18.465-3.551z" fill="#FFFFF6"/><path d="M203.465 244.853c-6.983 0-17.044-1.302-26.986-2.604-7.457-.947-14.44-1.894-19.53-2.13h-.355l.118-.356c1.302-4.142 1.539-8.64.474-12.901l-.119-.473.356.118c2.485.829 16.452 4.734 17.991 3.669l.118-.118c.355-2.486 1.183-4.024 2.604-4.735 1.42-.71 3.432-.473 6.036.829 6.51 3.432 11.6 5.918 15.387 7.93 13.02 6.628 13.02 6.628 12.783 7.812-.236 2.249-3.669 2.959-8.877 2.959zm-46.161-5.208c5.09.237 11.955 1.184 19.175 2.131 16.334 2.13 34.798 4.616 35.39.355.118-.829-.118-.947-12.546-7.339-3.906-2.012-8.878-4.497-15.387-7.93-2.368-1.184-4.261-1.539-5.563-.828-1.184.591-2.013 2.13-2.249 4.379 0 .118-.119.237-.237.355-1.775 1.065-15.269-2.722-17.991-3.551.829 4.143.592 8.404-.592 12.428z" fill="#EDE3D7"/><path d="M200.151 242.486c-7.338 0-14.677-.829-21.779-2.249-.118 0-.236-.118-.236-.237 0-.118.118-.237.236-.237 7.102 1.539 14.441 2.249 21.661 2.249.118 0 .236.119.236.237.119.118 0 .237-.118.237z" fill="#EDE3D7"/><path d="M82.381 219.879c-23.08-10.416-8.522-39.652 13.967-34.325 12.546 2.959 72.082 32.431 77.645 42.492 1.894 3.432 1.776 8.048-.71 11.244-3.669 4.616-8.64 3.077-13.375 1.775-.592-.118-58.944-12.783-77.527-21.186z" fill="#000"/><path d="M166.892 242.722c-2.131 0-4.38-.591-6.51-1.183l-.474-.119s-.592-.118-1.42-.355c-22.134-4.971-61.43-14.203-76.225-20.95-11.718-5.326-13.138-15.032-10.89-21.778 2.96-8.522 12.665-15.979 25.093-13.02 13.02 3.077 72.319 32.668 77.764 42.61 2.012 3.669 1.775 8.404-.71 11.481-2.012 2.486-4.261 3.314-6.628 3.314zm-75.989-57.523c-9.469 0-16.689 6.273-19.174 13.256-2.367 6.865-.829 15.979 10.652 21.187 14.796 6.628 54.092 15.979 76.107 20.832l1.42.355.474.118c4.497 1.302 9.114 2.604 12.664-1.775 2.368-2.959 2.604-7.457.711-10.89-5.445-9.942-64.508-39.296-77.527-42.373-1.776-.592-3.551-.71-5.327-.71z" fill="#DCDCDC"/><path d="M156.713 85.301c.118 8.167 2.84 14.204-12.192 21.305 8.996 12.31 17.755 16.808 17.755 16.808s18.819-8.522 25.329-14.085c-3.314-2.486-6.865-4.261-9.942-6.51-6.155-4.261-2.486-13.849-3.67-17.4l-17.28-.118z" fill="#F9A587"/><path d="M175.532 100.807c-1.657-2.486-1.775-5.208-1.657-9.114-7.93 5.563-11.718 2.959-16.689-.592 7.22 10.298 11.481 6.51 18.346 9.706z" fill="#EA795C"/><path d="M171.508 94.06c4.261-1.42 11.244-13.848 8.64-29.235-2.604-15.506-19.885-17.4-26.75-6.865-6.51 9.942-2.248 42.61 18.11 36.1z" fill="#F9A587"/><path d="M159.553 62.458c2.841-.592 6.155-4.38 9.232-2.486 5.208 3.314 10.771 5.8 11.008 20.358 3.077-12.31 2.367-9.469 4.971-11.718 4.143-3.55-1.775-9.942-2.722-13.138-.947-3.077-.119-7.102-6.628-9.232-2.013-.71-2.604-.237-4.025.118-7.575 2.13-15.86-8.64-21.66 3.314-1.302 2.604-.592 2.841-.237 4.853.947 4.261-3.195 8.049-3.787 12.31-.237 1.894 5.8 13.02 5.8 13.02s0-5.09.118-6.155c1.894-12.665 5.445-10.771 7.93-11.244z" fill="#30323E"/><path d="M182.278 71.572c-2.959-.71-2.959 5.444-2.84 8.522.237 6.154 7.457-7.339 2.84-8.522zm-33.022 1.301c2.959-.947 3.314 5.208 3.55 8.286.237 6.036-8.167-6.747-3.55-8.286z" fill="#F9A587"/><path d="M169.14 69.204c.237.119 7.694.71 7.812.592 1.776-.592-4.616-3.196-7.693-1.775-.474.236-.474.947-.119 1.183zm-7.22-1.42c-3.195-1.302-9.114 1.657-7.575 2.13 2.012 0 10.416-.947 7.575-2.13z" fill="#30323E"/><path d="M165.708 81.632c-.237 0-.474 0-.71-.118-1.065-.355-.71-1.775-.355-3.55.236-1.184.473-2.486.473-3.67 0-.118.118-.237.237-.237.118 0 .237.118.237.237.118 1.302-.237 2.604-.474 3.787-.355 1.54-.592 2.841 0 2.96.474.236.829.118 1.184 0 .236-.119.592-.237.947-.237.118 0 .236.118.236.236 0 .119-.118.237-.236.237-.355 0-.592.119-.829.119-.118.236-.355.236-.71.236z" fill="#EA795C"/><path d="M168.904 85.656c.236-.118.473 0 .473.237-.118 1.657-1.302 3.551-2.13 4.025-2.486 1.42-5.09-3.551-3.315-3.551.947-.119 3.078.355 4.972-.71z" fill="#fff"/><path d="M180.858 79.028h-.118c-.118-.118-.118-.237-.118-.355.828-1.302.946-2.959.473-4.261 0-.118 0-.237.118-.355.119 0 .237 0 .355.118.592 1.539.356 3.314-.591 4.735 0 0 0 .118-.119.118zm-29.59 1.065c-.118 0-.118 0-.237-.118-1.065-1.184-1.539-2.96-1.302-4.616 0-.119.119-.237.237-.237s.237.118.237.237c-.237 1.42.236 3.077 1.183 4.142.119.119.119.237 0 .355 0 .237-.118.237-.118.237z" fill="#EA795C"/><path d="M167.365 57.96c-.118 0-.118 0 0 0-.237-.119-.237-.237-.237-.355 1.184-2.486 1.657-5.682 1.184-9.47 0-.118.118-.236.237-.236.118 0 .236.118.236.237.474 3.906.119 7.101-1.183 9.705-.119 0-.237.119-.237.119zm9.35-8.877h-.118c-2.722-2.13-5.208-.947-6.391 0-.119.118-.237 0-.356 0-.118-.119 0-.237 0-.355 2.249-1.657 4.853-1.657 6.984 0 .118.118.118.236 0 .355h-.119zm-1.893 4.616c-.829 0-3.314-.119-4.735-1.54-.118-.117-.118-.236 0-.354.119-.118.237-.118.355 0 1.421 1.538 4.498 1.42 4.498 1.42.118 0 .237.118.237.237 0 .118-.119.237-.237.237h-.118zm.236 8.641h-.118c-1.894-1.303-2.486-2.605-3.077-3.67-.592-1.184-1.066-1.894-2.723-2.249a.254.254 0 01-.236-.236c0-.119.118-.237.236-.237 1.894.355 2.368 1.302 3.078 2.485.473.947 1.183 2.25 2.959 3.433.118.118.118.237 0 .355 0 .118 0 .118-.119.118zm-9.232-13.967c-1.42 0-2.959-.474-4.261-.947-2.012-.71-3.787-1.302-4.734-.119-.119.119-.237.119-.355 0-.119-.118-.119-.236 0-.355 1.302-1.42 3.196-.71 5.326 0 1.775.592 3.788 1.302 5.681.71.119 0 .237 0 .355.119 0 .118 0 .236-.118.355-.71.118-1.302.236-1.894.236zm-2.722 4.497h-.118c-.119-.118-.119-.237-.119-.355.947-1.42 2.723-.947 4.024-.473.119 0 .237.236.119.355 0 .118-.237.236-.355.118-1.776-.71-2.959-.592-3.551.237.118 0 .118.118 0 .118zm-4.143 7.22c-.118 0-.118 0-.236-.118-.119-.118 0-.237.118-.355 1.657-1.184 2.486-1.184 3.196-1.302.828-.118 1.657-.118 3.906-2.367.118-.119.236-.119.355 0 .118.118.118.236 0 .355-2.368 2.249-3.314 2.367-4.143 2.485-.71.119-1.42.119-2.959 1.184l-.237.118zm-7.693 12.547c-.119 0-.237-.119-.237-.119a3.105 3.105 0 00-2.13-1.893.254.254 0 01-.237-.237c0-.119.118-.237.237-.237 1.183.237 2.13 1.065 2.485 2.13.119.119.118.237-.118.356zm28.288-1.184c-.118 0-.236-.118-.236-.237.118-1.302 1.657-1.775 2.367-2.012.118 0 .237 0 .355.119 0 .118 0 .236-.118.355-.947.355-1.894.71-2.013 1.657-.118 0-.236.118-.355.118zm-30.419-6.747s-.118 0 0 0c-.236 0-.236-.118-.236-.236.355-1.657 1.183-2.723 1.775-3.551 1.065-1.539 2.012-2.604.947-6.865-.355-1.539-.592-3.078 1.065-4.498.119-.118.237-.118.355 0 .119.118.119.237 0 .355-1.302 1.065-1.302 2.249-.947 4.024 1.066 4.498.119 5.8-1.065 7.339-.592.828-1.302 1.775-1.657 3.314-.118.118-.118.118-.237.118zm34.917 1.066c-.118 0-.118 0 0 0-.237-.119-.237-.237-.237-.356.71-1.538.355-3.432-.71-4.616-.473-.591-.947-.947-1.539-1.301-1.302-.947-2.485-1.894-2.367-4.972 0-.118.118-.236.237-.236.118 0 .236.118.236.236-.118 2.84.829 3.551 2.131 4.498.473.355 1.065.828 1.539 1.302 1.183 1.42 1.538 3.433.71 5.09.118.236 0 .355 0 .355z" fill="#353B4A"/><path d="M158.133 76.306c-.947-.118-1.42-3.551.828-3.433 1.184 0 .592 3.433-.828 3.433zm14.203 0c-.947-.118-1.42-3.551.829-3.433 1.183 0 .71 3.433-.829 3.433z" fill="#382823"/><path d="M152.688 102.464c5.8 6.51 16.808 10.889 24.383.947.592-.829-.119-1.066 16.689 5.089 7.457 63.56 10.534 79.894 4.498 80.486-22.608 2.249-49.712 12.073-63.916 1.184-8.285-6.392-1.894-76.225.592-81.67 17.636-6.746 17.044-6.865 17.754-6.036z" fill="#0075FF"/><path d="M152.925 195.614c-7.338 0-13.848-1.302-18.701-5.089-4.853-3.669-4.498-27.46-3.788-41.308.829-19.057 3.078-37.876 4.38-40.598v-.119h.118c3.906-1.539 6.865-2.604 9.114-3.551 8.285-3.195 8.285-3.195 8.877-2.485 2.959 3.432 8.285 6.983 13.848 6.746 3.906-.118 7.339-2.012 10.061-5.681l.118-.118c.592-.829.592-.829 16.216 4.852l.828.356v.118c1.184 9.824 2.249 18.583 3.078 26.276 4.379 36.337 6.036 49.83 3.077 53.5-.473.592-1.183.947-2.012 1.065-6.155.592-12.665 1.775-18.938 2.959-8.995 1.42-18.109 3.077-26.276 3.077zm-17.873-86.877c-1.183 3.077-3.432 22.015-4.261 40.361-1.065 23.436.237 38.349 3.669 40.953 10.298 7.931 27.816 4.735 44.741 1.776 6.273-1.184 12.902-2.367 19.056-2.959.711-.119 1.184-.355 1.658-.829 2.84-3.432 1.065-17.991-3.196-53.144-.947-7.694-2.012-16.334-3.078-26.158l-.591-.237c-14.441-5.208-15.269-5.563-15.624-4.971l-.119.118c-2.84 3.788-6.391 5.8-10.415 5.918-5.8.237-11.126-3.432-14.204-6.865-.473-.473-.592-.473-8.403 2.604-2.486.829-5.445 2.013-9.233 3.433z" fill="#000"/><path d="M161.92 185.909c-.828-.947 1.066-2.131 1.658-.71.236.473.118 1.065-.237 1.539 1.183.236 1.538-2.013 2.722-1.894 2.249.236.474 11.126-6.036 9.942-1.421-.237-.592-1.42-.237-2.367 1.894-6.155-2.131-9.706 2.13-6.51z" fill="#EA795C"/><path d="M133.75 189.223l2.012-7.102 14.796 4.972c6.154-.592 9.587-3.315 13.848.118.355.237.355.828 0 .947-1.539.828-2.959.236-3.669.118-2.723-.355-6.51 3.906-1.539 5.563 7.102 2.249 7.338-6.273 9.469-7.102 1.894-.71 1.302 2.959-1.894 8.167-1.775 2.959-2.249 1.421-6.273 2.841-1.184.474-1.42.474-2.604 0-10.416-5.089-6.983-3.787-24.146-8.522z" fill="#F9A587"/><path d="M93.27 168.036c-7.338 11.245 1.184 15.742 8.049 17.754 8.996 2.723 46.753 11.955 48.173 7.931 2.723-7.22 3.078-8.404 1.539-9.351-37.165-20.713-42.137-7.812-20.358-29.59 2.486-2.486 4.024-5.682 4.616-9.114 2.012-13.138 3.551-38.823-.355-37.284-9.824 3.906-21.424 28.998-41.663 59.654z" fill="#0075FF"/><path d="M145.705 195.023c-10.653 0-38.823-7.22-44.504-8.877-5.8-1.776-9.35-4.261-10.534-7.576-1.066-2.959-.237-6.509 2.367-10.534 6.51-9.824 12.073-19.174 17.044-27.341 10.416-17.281 17.991-29.709 24.619-32.313.355-.118.71-.118 1.066.118 3.077 2.486 1.42 26.04-.356 37.403-.473 3.55-2.13 6.746-4.616 9.232A299.086 299.086 0 01123.69 162c-4.025 3.787-6.037 5.681-5.8 6.865.237 1.065 2.485 1.894 6.628 3.432 5.326 1.894 14.204 5.208 26.513 12.073 1.776.947 1.184 2.486-1.42 9.588-.119.71-1.657 1.065-3.906 1.065zm-52.198-26.868c-2.604 3.906-3.432 7.338-2.367 10.179 1.184 3.196 4.616 5.563 10.179 7.338 11.836 3.551 46.635 11.6 47.937 8.167 2.604-7.102 2.959-8.285 1.657-8.995-12.31-6.865-21.187-10.061-26.513-12.073-4.38-1.539-6.628-2.367-6.865-3.788-.355-1.539 1.657-3.314 5.918-7.338a300.866 300.866 0 007.102-6.865c2.485-2.486 4.024-5.563 4.497-8.877 2.012-13.139 3.078-34.917.474-36.929-.119-.119-.355-.119-.592-.119-6.51 2.486-14.085 14.914-24.383 32.076-4.971 8.167-10.534 17.4-17.044 27.224z" fill="#000"/><path d="M166.181 185.435c.829-.947-1.183-2.13-1.657-.592-.236.474 0 1.066.355 1.539-1.183.355-1.657-1.894-2.84-1.657-2.249.355.118 11.126 6.51 9.587 1.42-.355.473-1.42.118-2.367-2.249-6.273 1.539-9.942-2.486-6.51z" fill="#EA795C"/><path d="M194.47 187.329l-2.367-6.983-14.44 5.681c-6.155-.237-9.824-2.841-13.849.829-.355.236-.236.828.119.946 1.538.829 2.959 0 3.669-.118 2.722-.592 6.628 3.551 1.775 5.445-6.983 2.604-7.693-5.918-9.824-6.629-1.894-.591-1.183 2.96 2.249 8.049 1.894 2.841 2.249 1.302 6.392 2.604 1.183.355 1.538.473 2.604-.118 10.179-5.682 6.865-4.143 23.672-9.706z" fill="#F9A587"/><path d="M207.608 169.457c-17.872 6.865-27.46 11.718-30.774 13.493-2.012 1.065-.355 3.196 1.302 9.469.237.947 1.184 1.539 2.131 1.42 57.523-8.995 60.246-13.73 55.156-24.974-3.551-7.812-33.378-57.169-41.663-60.128-3.078-1.065-3.551 23.909-1.539 34.325 1.776 9.469 20.003 24.619 15.387 26.395z" fill="#0075FF"/><path d="M180.03 194.076c-.947 0-1.776-.592-2.012-1.539-.474-1.775-.947-3.196-1.421-4.379-1.065-3.078-1.538-4.498.119-5.327 3.314-1.775 12.901-6.628 30.774-13.493.355-.118.473-.236.592-.592.355-1.538-2.723-5.326-6.037-9.469-4.261-5.326-9.232-11.481-10.061-16.333-1.775-9.706-1.538-32.195 1.066-34.444.355-.236.591-.236.828-.118 8.522 3.077 38.586 53.026 41.782 60.246 1.657 3.669 2.485 6.628 1.065 9.232-3.196 5.8-17.873 10.061-56.34 16.098-.118.118-.237.118-.355.118zm27.696-24.383c-17.872 6.865-27.459 11.718-30.774 13.494-1.183.71-.946 1.657.119 4.734.355 1.184.828 2.604 1.42 4.379.237.829 1.065 1.302 1.894 1.184 38.349-6.036 52.908-10.179 55.985-15.86 1.302-2.486.592-5.208-1.065-8.878-4.025-8.877-33.497-57.05-41.545-60.009-.119 0-.237 0-.355.118-2.249 1.894-2.841 23.791-.947 33.97.947 4.735 5.918 11.008 10.061 16.097 3.669 4.498 6.509 8.167 6.036 9.824-.118.474-.473.829-.829.947z" fill="#000"/><path d="M216.13 170.404c-1.894 0-3.906-.474-5.563-1.539-.118-.119-.118-.237-.118-.355.118-.119.236-.119.355-.119a10.069 10.069 0 007.812 1.066c.118 0 .236 0 .236.118s0 .237-.118.237c-.828.473-1.775.592-2.604.592zm-100.134-.829c-2.841 0-5.445-1.539-6.865-4.024-.118-.119 0-.237.118-.355.119-.119.237 0 .356.118 1.301 2.249 3.787 3.787 6.509 3.787.119 0 .237.119.237.237-.118.119-.237.237-.355.237zm46.753 6.391c-.118 0-.237-.118-.237-.236 0-.119.119-.237.237-.237 12.901-2.012 19.648-15.505 24.146-24.501.118-.118.236-.118.355-.118.118.118.118.237.118.355-4.616 9.114-11.363 22.725-24.619 24.737zm1.065-62.495c-6.391 0-13.256-3.55-14.677-7.693 0-.118 0-.237.119-.355.118 0 .237 0 .355.118 1.42 4.025 8.167 7.457 14.558 7.339.119 0 .237.118.237.236a.254.254 0 01-.237.237c-.118.118-.236.118-.355.118zm-31.129 43.794c-.118 0-.118 0-.118-.118-.119-.118-.119-.237 0-.355 2.959-3.078 4.971-7.102 5.444-11.363 0-.118.119-.237.237-.237.119 0 .237.119.237.237-.474 4.379-2.486 8.522-5.563 11.6-.118.236-.237.236-.237.236z" fill="#000"/><path d="M199.204 206.504h-67.229a6.492 6.492 0 01-6.51-6.51v-48.292a6.491 6.491 0 016.51-6.51h67.229a6.49 6.49 0 016.51 6.51v48.292c0 3.55-2.84 6.51-6.51 6.51z" fill="#858789"/><path d="M199.204 206.74h-67.229c-3.788 0-6.747-3.077-6.747-6.746v-48.292c0-3.787 3.078-6.746 6.747-6.746h67.229c3.788 0 6.747 3.077 6.747 6.746v48.292c.118 3.669-2.959 6.746-6.747 6.746zm-67.229-61.429c-3.433 0-6.273 2.84-6.273 6.273v48.291c0 3.433 2.84 6.274 6.273 6.274h67.229c3.433 0 6.274-2.841 6.274-6.274v-48.291c0-3.433-2.841-6.273-6.274-6.273h-67.229z" fill="#D2D4D5"/><path d="M171.153 175.73a5.557 5.557 0 01-5.563 5.563 5.556 5.556 0 01-5.563-5.563 5.556 5.556 0 015.563-5.563 5.556 5.556 0 015.563 5.563z" fill="#D2D4D5"/><path d="M165.59 181.529a5.81 5.81 0 01-5.8-5.799 5.81 5.81 0 015.8-5.8 5.808 5.808 0 015.799 5.8 5.808 5.808 0 01-5.799 5.799zm0-11.126a5.305 5.305 0 00-5.327 5.327 5.305 5.305 0 005.327 5.326 5.304 5.304 0 005.326-5.326c0-2.841-2.367-5.327-5.326-5.327z" fill="#858789"/><path d="M145.705 167.799l-.474-.236v-.119l.474.237v.118z" fill="#fff"/></svg>