<svg width="269" height="253" fill="none" xmlns="http://www.w3.org/2000/svg"><path d="M185.314 43.46v142.349c0 7.387-4.399 13.375-9.826 13.377l-164.752.047c-5.428.001-9.83-5.986-9.83-13.374L.886 43.462c-.001-7.388 4.4-13.378 9.828-13.378h164.771c5.428 0 9.828 5.988 9.828 13.376z" fill="#D3E8E2"/><path d="M10.715 30.97c-2.336 0-4.55 1.264-6.235 3.558-1.745 2.375-2.706 5.549-2.705 8.935l.018 142.396c0 3.386.962 6.558 2.707 8.933 1.685 2.292 3.899 3.554 6.234 3.554l164.754-.047c4.928-.002 8.939-5.604 8.939-12.489V43.46c0-6.887-4.012-12.49-8.941-12.49H10.716zm.02 169.151c-2.915 0-5.637-1.52-7.664-4.278-1.968-2.677-3.052-6.223-3.052-9.984L0 43.463c0-3.761 1.083-7.307 3.05-9.985 2.028-2.76 4.75-4.281 7.665-4.281h164.771c5.908 0 10.714 6.398 10.714 14.263v142.35c0 7.863-4.805 14.262-10.711 14.264l-164.753.047h-.002z" fill="#43C59E"/><path d="M185.313 43.254H.908c0-7.274 4.332-13.17 9.677-13.17h165.051c5.344 0 9.677 5.896 9.677 13.17z" fill="#43C59E"/><path d="M1.817 42.367h182.586c-.327-6.36-4.134-11.397-8.768-11.397H10.585c-4.634 0-8.441 5.036-8.768 11.397zM186.2 44.141H.02v-.887c0-7.752 4.74-14.057 10.565-14.057h165.05c5.825 0 10.565 6.305 10.565 14.057v.887z" fill="#43C59E"/><path d="M13.355 36.824a1.63 1.63 0 11-3.26 0 1.63 1.63 0 013.26 0zm5.09 0a1.63 1.63 0 11-3.26 0 1.63 1.63 0 013.26 0zm5.09 0a1.63 1.63 0 11-3.26 0 1.63 1.63 0 013.26 0zm111.536 25.549H10.343a2.305 2.305 0 01-2.305-2.305v-.712a2.305 2.305 0 012.305-2.305H135.07a2.305 2.305 0 012.305 2.305v.712a2.305 2.305 0 01-2.305 2.305zm22.176 20.72H32.519a2.305 2.305 0 01-2.305-2.305v-.711a2.305 2.305 0 012.305-2.305h124.728a2.305 2.305 0 012.305 2.305v.711a2.305 2.305 0 01-2.305 2.305zm0 8.33H32.519a2.305 2.305 0 01-2.305-2.305v-.712a2.305 2.305 0 012.305-2.305h124.728a2.305 2.305 0 012.305 2.305v.712a2.305 2.305 0 01-2.305 2.305zm0 10.71H32.519a2.305 2.305 0 01-2.305-2.305v-.712a2.305 2.305 0 012.305-2.305h124.728a2.305 2.305 0 012.305 2.305v.712a2.305 2.305 0 01-2.305 2.305zm0 8.33H32.519a2.305 2.305 0 01-2.305-2.305v-.712a2.304 2.304 0 012.305-2.304h124.728a2.304 2.304 0 012.305 2.304v.712a2.305 2.305 0 01-2.305 2.305zm0 19.04H32.519a2.305 2.305 0 01-2.305-2.305v-.711a2.304 2.304 0 012.305-2.305h124.728a2.304 2.304 0 012.305 2.305v.711a2.305 2.305 0 01-2.305 2.305zm0 8.33H32.519a2.305 2.305 0 01-2.305-2.305v-.711a2.304 2.304 0 012.305-2.305h124.728a2.304 2.304 0 012.305 2.305v.711a2.305 2.305 0 01-2.305 2.305zm0 10.71H32.519a2.305 2.305 0 01-2.305-2.305v-.711a2.304 2.304 0 012.305-2.305h124.728a2.304 2.304 0 012.305 2.305v.711a2.305 2.305 0 01-2.305 2.305zm0 8.33H32.519a2.305 2.305 0 01-2.305-2.305v-.711a2.305 2.305 0 012.305-2.305h124.728a2.305 2.305 0 012.305 2.305v.711a2.305 2.305 0 01-2.305 2.305zm0 19.04H32.519a2.305 2.305 0 01-2.305-2.305v-.711a2.305 2.305 0 012.305-2.305h124.728a2.305 2.305 0 012.305 2.305v.711a2.305 2.305 0 01-2.305 2.305zm0 8.33H32.519a2.305 2.305 0 01-2.305-2.305v-.712a2.305 2.305 0 012.305-2.305h124.728a2.305 2.305 0 012.305 2.305v.712a2.305 2.305 0 01-2.305 2.305zm0 10.71H32.519a2.305 2.305 0 01-2.305-2.305v-.712a2.305 2.305 0 012.305-2.305h124.728a2.305 2.305 0 012.305 2.305v.712a2.305 2.305 0 01-2.305 2.305zm9.195-132.58H153.44a2.477 2.477 0 01-2.477-2.477v-.368a2.477 2.477 0 012.477-2.477h13.002a2.477 2.477 0 012.477 2.477v.368a2.477 2.477 0 01-2.477 2.477z" fill="#FEFFFF"/><path d="M146.741 101.802h-34.894a1.8 1.8 0 01-1.8-1.799V98.28a1.8 1.8 0 011.8-1.8h34.894a1.8 1.8 0 011.8 1.8v1.723a1.8 1.8 0 01-1.8 1.799zm15.662 0h-9.642a1.204 1.204 0 01-1.204-1.203v-2.915c0-.664.539-1.204 1.204-1.204h9.642v5.322zm5.163 37.207h-14.805a1.204 1.204 0 01-1.204-1.204v-2.914c0-.665.539-1.204 1.204-1.204h14.805c.664 0 1.203.539 1.203 1.204v2.914c0 .665-.539 1.204-1.203 1.204z" fill="#F7F1E9"/><path d="M23.688 83.198H10.343a2.304 2.304 0 01-2.305-2.304v-.711a2.305 2.305 0 012.305-2.306h13.345a2.306 2.306 0 012.306 2.306v.711a2.305 2.305 0 01-2.306 2.304zm0 18.604H10.343a2.305 2.305 0 01-2.305-2.305v-.711a2.305 2.305 0 012.305-2.306h13.345a2.306 2.306 0 012.306 2.306v.711a2.306 2.306 0 01-2.306 2.305zm0 27.905H10.343a2.305 2.305 0 01-2.305-2.305v-.711a2.305 2.305 0 012.305-2.305h13.345a2.306 2.306 0 012.306 2.305v.711a2.306 2.306 0 01-2.306 2.305zm0 18.604H10.343a2.305 2.305 0 01-2.305-2.305v-.712a2.306 2.306 0 012.305-2.306h13.345a2.306 2.306 0 012.306 2.306v.712a2.306 2.306 0 01-2.306 2.305zm0 28.044H10.343a2.305 2.305 0 01-2.305-2.305v-.711a2.304 2.304 0 012.305-2.305h13.345a2.305 2.305 0 012.306 2.305v.711a2.306 2.306 0 01-2.306 2.305z" fill="#fff"/><path d="M166.428 72.786h-12.529a2.491 2.491 0 01-2.492-2.492v-.338a2.491 2.491 0 012.492-2.492h12.529a2.491 2.491 0 012.491 2.492v.338a2.491 2.491 0 01-2.491 2.492z" fill="#71635F"/><path d="M254.366 0h-82.03c-9.853 0-17.84 7.987-17.84 17.84v9.694c0 9.006 7.3 16.306 16.306 16.306.726 0 1.21.74.923 1.406-1.307 3.042-2.573 6.137-4.033 8.98-.42.818.356 1.73 1.239 1.471 4.586-1.342 9.129-3.762 13.557-6.308 6.283-3.61 13.374-5.549 20.621-5.549h51.257c7.796 0 14.115-6.32 14.115-14.116V14.117C268.481 6.32 262.161 0 254.366 0z" fill="#9DC4F2"/><path d="M167.271 11.372h-1.621a.492.492 0 01-.492-.492V9.26c0-.272.22-.492.492-.492h1.621c.271 0 .491.22.491.491v1.621c0 .271-.22.492-.491.492zm19.192 0h-11.025a1.303 1.303 0 110-2.604h11.025a1.301 1.301 0 010 2.604zm40.336 0h-31.492a1.301 1.301 0 010-2.604h31.492a1.302 1.302 0 110 2.604zm10.163 0h-1.968a.316.316 0 01-.317-.318V9.086c0-.176.141-.318.317-.318h1.968c.176 0 .318.142.318.318v1.968a.317.317 0 01-.318.318zm17.359 0h-10.239a1.301 1.301 0 110-2.604h10.239a1.302 1.302 0 110 2.604zm-86.388 6.317h-1.621a.491.491 0 01-.491-.492v-1.62c0-.272.22-.492.491-.492h1.621c.272 0 .492.22.492.491v1.621c0 .271-.22.492-.492.492zm19.193 0h-11.025a1.302 1.302 0 010-2.604h11.025a1.301 1.301 0 010 2.604zm40.336 0H195.97a1.302 1.302 0 010-2.604h31.492a1.302 1.302 0 110 2.604zm10.163 0h-1.969a.318.318 0 01-.317-.318v-1.969c0-.175.142-.317.317-.317h1.969c.175 0 .318.142.318.317v1.969a.318.318 0 01-.318.318zm17.359 0h-10.24a1.302 1.302 0 010-2.604h10.24a1.302 1.302 0 010 2.604zm-86.388 6.316h-1.621a.491.491 0 01-.491-.491v-1.621c0-.271.22-.492.491-.492h1.621c.271 0 .491.22.491.492v1.62c0 .272-.22.492-.491.492zm19.192 0h-11.024a1.302 1.302 0 110-2.604h11.024a1.302 1.302 0 110 2.604zm40.337 0h-31.492a1.303 1.303 0 110-2.604h31.492a1.302 1.302 0 010 2.604zm10.163 0h-1.969a.317.317 0 01-.317-.317v-1.969c0-.175.141-.318.317-.318h1.969c.175 0 .317.143.317.318v1.969a.317.317 0 01-.317.317zm17.359 0h-10.241a1.302 1.302 0 010-2.604h10.241a1.302 1.302 0 010 2.604zm-86.389 6.317h-1.62a.492.492 0 01-.492-.491V28.21c0-.271.221-.491.492-.491h1.62c.272 0 .492.22.492.49v1.622c0 .271-.22.491-.492.491zm19.194 0h-11.025a1.301 1.301 0 110-2.603h11.025a1.302 1.302 0 010 2.603zm40.336 0h-31.493a1.303 1.303 0 010-2.603h31.493a1.302 1.302 0 110 2.603zm10.162 0h-1.968a.318.318 0 01-.318-.317v-1.969c0-.175.142-.317.318-.317h1.968c.176 0 .317.142.317.317v1.969a.317.317 0 01-.317.317zm17.359 0H246.07a1.301 1.301 0 110-2.603h10.239a1.301 1.301 0 010 2.603zm-86.387 6.318H168.3a.491.491 0 01-.491-.492v-1.621c0-.271.22-.492.491-.492h1.622c.271 0 .491.22.491.492v1.62c0 .272-.22.492-.491.492zm19.192 0h-11.025a1.303 1.303 0 010-2.605h11.025a1.302 1.302 0 010 2.604zm40.336 0h-31.492a1.302 1.302 0 110-2.605h31.492a1.302 1.302 0 010 2.604zm10.163 0h-1.968a.318.318 0 01-.318-.318v-1.969c0-.175.143-.318.318-.318h1.968c.176 0 .317.143.317.318v1.969a.317.317 0 01-.317.317zm17.359 0h-10.239a1.301 1.301 0 110-2.605h10.239a1.302 1.302 0 010 2.604z" fill="#fff"/><path d="M53.164.602h37.389c4.49 0 8.13 4.778 8.13 10.671v5.8c0 5.386-3.327 9.753-7.432 9.753-.33 0-.55.443-.42.84.596 1.82 1.173 3.672 1.839 5.372.19.49-.163 1.035-.566.88-2.09-.803-4.16-2.25-6.179-3.773-2.863-2.16-6.096-3.319-9.399-3.319H53.164c-3.554 0-6.435-3.78-6.435-8.444V9.047c0-4.664 2.881-8.445 6.435-8.445z" fill="#43C59E"/><path d="M56.355 9.222h-2.627a.521.521 0 01-.52-.521V6.074a.52.52 0 01.52-.52h2.627a.52.52 0 01.521.52v2.627a.521.521 0 01-.52.52zm17.843 0h-11.33a1.834 1.834 0 110-3.668h11.33a1.834 1.834 0 110 3.668zm15 0h-6.114a1.834 1.834 0 110-3.668h6.114a1.834 1.834 0 110 3.668zm-35.061 5.216H51.51a.52.52 0 01-.52-.52v-2.627a.52.52 0 01.52-.52h2.627a.52.52 0 01.52.52v2.627a.52.52 0 01-.52.52zm17.843 0H60.65a1.833 1.833 0 110-3.668h11.33a1.834 1.834 0 010 3.668zm15 0h-6.114a1.834 1.834 0 110-3.668h6.114a1.835 1.835 0 110 3.668zm-30.625 5.218h-2.627a.52.52 0 01-.52-.52v-2.628a.52.52 0 01.52-.52h2.627a.52.52 0 01.521.52v2.628a.52.52 0 01-.52.52zm17.843 0h-11.33a1.834 1.834 0 110-3.668h11.33a1.834 1.834 0 110 3.668zm15 0h-6.114a1.834 1.834 0 110-3.668h6.114a1.834 1.834 0 110 3.668z" fill="#fff"/><path d="M92.431 239.666c-3.284 3.497-6.636.371-6.636.371l-1.122-13.172 7.76.694s.055 9.89-.002 12.107z" fill="#F99889"/><path d="M93.368 245.727a.894.894 0 01-.871.907c-3.889.111-19.352.554-19.38.553a1.083 1.083 0 01-1.052-1.044c-.05-1.234.855-2.538 1.984-3.205 2.512-1.482 7.63-1.035 10.46-7.576a.7.7 0 011.08-.276c1.019.824 1.807 1.958 2.881 2.73 1.78 1.279 3.277-.159 4.484 1.641.307.461.391 4.461.414 6.27z" fill="#514342"/><path d="M85.16 235.157l-.116.014a.485.485 0 00-.33.278c-2.131 4.924-5.484 5.95-8.178 6.774-.933.285-1.739.532-2.374.907-1.13.667-1.918 1.931-1.875 3.004.018.455.385.82.836.831.143-.003 15.27-.434 19.367-.552a.678.678 0 00.657-.683c-.052-4.193-.236-5.933-.378-6.149-.593-.886-1.237-.903-2.052-.923-.708-.019-1.51-.04-2.376-.662-.602-.432-1.118-.976-1.617-1.502-.404-.427-.822-.869-1.275-1.234a.454.454 0 00-.29-.103zm-12.05 12.251a1.308 1.308 0 01-1.266-1.256c-.05-1.247.81-2.647 2.093-3.405.68-.4 1.55-.667 2.47-.948 2.606-.798 5.85-1.79 7.9-6.525a.925.925 0 01.631-.534.899.899 0 01.79.175c.476.383.904.836 1.319 1.274.484.51.985 1.039 1.553 1.447.755.542 1.453.56 2.129.578.83.021 1.687.044 2.409 1.12.252.377.405 2.527.453 6.391a1.125 1.125 0 01-1.087 1.132c-.194.006-19.3.551-19.393.551z" fill="#463C3A"/><path d="M73.032 246.727a.222.222 0 01-.008-.444l19.505-.653a.212.212 0 01.23.214.223.223 0 01-.215.23l-19.505.653h-.007zm12.003-6.163l-.05-.006c-1.002-.232-2.035-.519-2.685-1.259a.22.22 0 01.02-.312.22.22 0 01.313.019c.563.641 1.52.905 2.452 1.12.12.028.194.147.167.266a.223.223 0 01-.217.172zm-2.367 1.73l-.075-.012c-1.018-.359-1.96-.75-2.3-1.575a.221.221 0 11.41-.169c.27.655 1.119 1 2.038 1.326a.22.22 0 01-.073.43zm-2.524.978l-.084-.016c-.415-.17-1.784-.776-1.948-1.464a.222.222 0 01.432-.104c.07.298.795.794 1.684 1.157a.22.22 0 01.121.289.221.221 0 01-.205.138z" fill="#fff"/><path d="M132.403 244.592c-3.284 3.497-6.637.371-6.637.371l-1.122-13.172 7.761.693s.055 9.891-.002 12.108z" fill="#F99889"/><path d="M133.34 250.653a.896.896 0 01-.871.907c-3.889.112-19.352.553-19.38.553a1.084 1.084 0 01-1.053-1.044c-.049-1.234.856-2.538 1.985-3.204 2.512-1.483 7.63-1.034 10.46-7.577a.7.7 0 011.079-.275c1.02.824 1.807 1.957 2.882 2.729 1.78 1.279 3.276-.16 4.483 1.642.308.459.393 4.46.415 6.269z" fill="#514342"/><path d="M125.131 240.082l-.114.014a.487.487 0 00-.332.28c-2.13 4.922-5.483 5.949-8.177 6.773-.933.285-1.739.532-2.374.907-1.131.667-1.919 1.93-1.876 3.004a.865.865 0 00.837.831c.128-.002 15.367-.437 19.367-.552a.678.678 0 00.656-.683c-.052-4.193-.235-5.933-.376-6.149-.595-.886-1.239-.903-2.054-.924-.708-.019-1.511-.039-2.376-.661-.602-.432-1.116-.976-1.615-1.502-.404-.427-.824-.869-1.276-1.235a.465.465 0 00-.29-.103zm-12.046 12.253a1.31 1.31 0 01-1.27-1.257c-.051-1.247.81-2.647 2.094-3.404.68-.402 1.548-.668 2.469-.95 2.606-.798 5.851-1.789 7.899-6.524a.93.93 0 01.633-.535.903.903 0 01.79.175c.475.385.904.837 1.319 1.275.484.51.984 1.039 1.552 1.448.755.541 1.454.559 2.129.576.83.022 1.687.044 2.409 1.121.253.377.404 2.527.452 6.391a1.123 1.123 0 01-1.087 1.131c-.192.006-19.323.553-19.389.553z" fill="#463C3A"/><path d="M113.003 251.652a.222.222 0 01-.006-.443l19.503-.653c.127 0 .226.093.23.214a.222.222 0 01-.215.229l-19.504.653h-.008zm12.004-6.163l-.049-.005c-1.004-.231-2.037-.519-2.687-1.258a.223.223 0 01.334-.294c.563.641 1.519.904 2.452 1.119a.223.223 0 01.166.267.221.221 0 01-.216.171zm-2.367 1.732l-.074-.013c-1.019-.36-1.96-.751-2.3-1.576a.22.22 0 01.12-.288.218.218 0 01.289.12c.271.654 1.119 1 2.039 1.325a.223.223 0 01-.074.432zm-2.523.977l-.085-.016c-.415-.169-1.784-.777-1.948-1.464a.222.222 0 01.164-.267.219.219 0 01.267.164c.071.296.795.793 1.686 1.157a.222.222 0 01-.084.426z" fill="#fff"/><path d="M87.007 36.17c-1.824-.097-1.274-2.876 2.876-1.348a4.555 4.555 0 012.613 2.559c-2.1-2.692-4.625-1.165-5.489-1.21z" fill="#F99889"/><path d="M86.23 34.006c-2.8-.751.123-3.195 3.83-.287.901.707 1.78 2.139 2.198 3.214-1.74-1.994-3.814-2.332-6.029-2.927z" fill="#F99889"/><path d="M86.58 32.224c-.444-.19-2.122-.785-1.833-2.018.319-.124.675.001.994.126 4.047 1.584 5.071 1.59 6.647 4.384.787 1.394 1.517 3.836.946 5.469-1.077-2.483-1.059-5.523-6.754-7.961z" fill="#F99889"/><path d="M89.33 26.724c-.33-.257-.794.055-.666.453 3.689 11.503 3.645 11.121 3.546 11.831-.101.737-.592 1.176-2.45.044-.854-.52-1.378-1.594-2.291-1.895-.47-.155-.92.273-.809.755.568 2.457 3.076 4.208 4.56 5.803.182.195.797 1 1.626 1.77.216.2.37.458.453.74l1.934 6.552 6.253-1.927c-.978-1.821-3.558-6.524-5.097-9.902l-7.06-14.224z" fill="#F99889"/><path d="M139.408 83.172c1.541 6.895 4.435 19.193-12.605 11.133-14.489-6.853-21.351-11.117-24.118-13.018a6.513 6.513 0 01-2.309-2.858c-3.506-8.373-5.552-16.748-7.819-30.278a.639.639 0 01.365-.69c2.453-1.096 3.948-1.455 6.934-1.76.29-.03.563.14.662.415 2.205 6.126 5.984 15.758 8.926 22.577a6.488 6.488 0 003.783 3.54c2.586.922 6.423 2.31 8.428 3.134 7.807 3.21 17.753 7.805 17.753 7.805z" fill="#0075FF"/><path d="M99.922 45.92l-.043.002c-3.022.31-4.498.684-6.866 1.743a.416.416 0 00-.237.45c2.36 14.086 4.475 22.278 7.804 30.229a6.28 6.28 0 002.232 2.762c2.804 1.926 9.663 6.177 24.086 12.999 5.834 2.76 9.812 3.342 11.827 1.732 2.791-2.232 1.419-8.366.51-12.424l-.019-.085c-1.061-.489-10.347-4.754-17.646-7.755-1.965-.808-5.661-2.148-8.417-3.13a6.73 6.73 0 01-3.912-3.662c-2.756-6.388-6.596-16.1-8.932-22.589a.41.41 0 00-.387-.272zm35.783 51.26c-2.242 0-5.222-.889-8.997-2.674-14.451-6.835-21.333-11.1-24.148-13.035a6.722 6.722 0 01-2.389-2.956c-3.343-7.985-5.467-16.204-7.833-30.327a.859.859 0 01.494-.928c2.419-1.082 3.925-1.464 7.001-1.78.393-.04.76.191.894.561 2.333 6.483 6.168 16.184 8.921 22.564a6.293 6.293 0 003.654 3.42c2.759.983 6.464 2.326 8.437 3.137 7.723 3.176 17.663 7.763 17.763 7.809l.099.046.067.3c.988 4.414 2.34 10.462-.665 12.866-.832.664-1.927.997-3.298.997z" fill="#103560"/><path d="M136.167 74.059c1.587 1.016 4.316 5.227-.404 8.203-1.103.694-2.576.32-3.871.176a85.873 85.873 0 01-10.737-1.889c-1.607-.388-3.353-4.163-.412-6.021 4.038-2.553 4.959-12.01 3.157-12.73l11.703-1.055c-1.104 4.752-3.759 10.548.564 13.316zm-17.721-17.412c.422-2.114.782-4.384 1.204-6.498.192-.962.594-2.914.615-4.517.009-.784-1.119-.908-1.289-.143-.894 4.035-3.374 8.178-3.832 9.008-.549.993 3.302 2.15 3.302 2.15z" fill="#F99889"/><path d="M118.238 47.24c-2.717 9.35-.392 20.824 5.599 19.986 4.703-.658 13.233-2.181 15.948-11.532 2.717-9.351.827-16.626-4.982-18.313-5.808-1.687-13.849.507-16.565 9.858z" fill="#F99889"/><path d="M124.607 66.918c3.981-1.42 7.893-4.166 8.337-4.382-2.11 2.567-7.23 6.36-9.201 7.746.476-1.301.657-2.118.864-3.364z" fill="#B17A72"/><path d="M129.87 117.572c9.835.128 12.295 1.956 11.364 15.924-5.153 77.326-7.263 99.299-7.699 103.482a1.155 1.155 0 01-.913 1.01c-2.681.565-6.988.868-10.767-.384a1.159 1.159 0 01-.792-.959c-.761-6.255-6.385-53.264-10.171-105.494-.256-3.53-2.706-7.993.871-10.392 3.288-2.204 14.172-3.238 18.107-3.187z" fill="#637690"/><path d="M129.576 117.792c-4.118 0-14.5 1.014-17.689 3.151-2.511 1.685-1.915 4.381-1.285 7.235.218.99.444 2.012.512 2.958 3.803 52.462 9.529 100.21 10.169 105.481a.93.93 0 00.642.776c4.49 1.488 9.287.665 10.65.377a.933.933 0 00.741-.815c.373-3.59 2.497-25.445 7.697-103.474.505-7.582-.023-11.321-1.883-13.335-1.744-1.888-4.717-2.292-9.263-2.352a26.57 26.57 0 00-.291-.002zm-1.834 120.909c-1.824 0-3.919-.211-5.957-.886a1.39 1.39 0 01-.942-1.144c-.641-5.273-6.368-53.03-10.172-105.503-.065-.913-.278-1.875-.503-2.894-.635-2.875-1.29-5.847 1.472-7.699 3.342-2.24 14.296-3.285 18.233-3.224 4.667.061 7.731.488 9.582 2.494 1.954 2.115 2.515 5.947 2.001 13.666-5.201 78.037-7.326 99.899-7.7 103.49a1.372 1.372 0 01-1.088 1.203c-.775.164-2.636.497-4.926.497z" fill="#3B3348"/><path d="M129.986 236.256a.222.222 0 01-.223-.221c0-18.869.287-32.036.54-43.653.369-16.892.659-30.234-.06-53.02a.22.22 0 01.215-.228c.123.006.225.093.228.214.72 22.798.429 36.145.06 53.045-.252 11.614-.54 24.778-.54 43.642a.22.22 0 01-.22.221z" fill="#3B3348"/><path d="M104.148 194.672c1.421-6.091 4.287-11.742 8.32-16.522 15.054-17.843 34.369-36.22 30.547-50.784-2.576-9.82-23.328-11.861-33.481-11.935.603 4.427 3.429 10.383.661 15.618-7.045 13.329-15.153 30.216-19.876 40.707-5.712 12.689-5.33 25.506-7.53 60.703a1.16 1.16 0 001.082 1.231l10.043.615a1.156 1.156 0 001.197-.891l9.037-38.742z" fill="#637690"/><path d="M109.791 115.655c.16 1.046.434 2.176.723 3.368.928 3.822 1.979 8.154-.122 12.129-7.181 13.585-15.335 30.618-19.871 40.696-4.67 10.372-5.251 20.818-6.526 43.704-.276 4.969-.59 10.602-.985 16.922a.931.931 0 00.234.68.928.928 0 00.64.314l10.043.615a.922.922 0 00.967-.72l9.038-38.741c1.412-6.056 4.306-11.801 8.367-16.615 2.422-2.872 4.994-5.801 7.482-8.634 12.879-14.672 26.196-29.843 23.02-41.951-2.222-8.472-19.11-11.629-33.01-11.767zM93.987 234.529l-.086-.003-10.044-.616a1.363 1.363 0 01-.946-.462 1.372 1.372 0 01-.344-1.002c.395-6.318.708-11.95.985-16.919 1.278-22.943 1.861-33.413 6.564-43.861 4.539-10.084 12.698-27.128 19.884-40.721 2.022-3.827.993-8.072.083-11.818-.316-1.3-.613-2.527-.768-3.666l-.035-.253.256.002c5.106.036 30.728.794 33.694 12.1 3.236 12.336-10.161 27.597-23.116 42.356-2.486 2.832-5.056 5.759-7.476 8.627-4.017 4.76-6.877 10.441-8.274 16.429l-.216-.05.216.05-9.038 38.742a1.373 1.373 0 01-1.339 1.065z" fill="#3B3348"/><path d="M92.452 232.013c-.147-.015-.235-.124-.221-.246 1.449-13.223 7.283-39.826 11.496-49.959 2.239-5.387 7.746-11.494 13.576-17.96 11.116-12.326 23.715-26.296 19.521-40.878a.222.222 0 01.427-.123c4.262 14.819-8.425 28.887-19.618 41.298-5.805 6.437-11.287 12.516-13.497 17.833-4.199 10.104-10.019 36.642-11.465 49.838a.22.22 0 01-.22.197z" fill="#3B3348"/><path d="M136.775 135.683l-.093-.021c-4.162-1.911-4.431-7.439-4.56-10.095l-.016-.311a.222.222 0 01.211-.232c.131-.01.226.089.233.21l.015.311c.125 2.569.385 7.915 4.303 9.714a.223.223 0 01-.093.424z" fill="#3B3348"/><path d="M113.335 81.805c.595-1.646 7.239-7.186 8.713-7.177 5.526.033 13.964-1.87 13.964-1.87 5.952 5.954 8.096 29.743 8.298 56.526l-28.109.627c-4.43.098-8.101-3.414-8.193-7.844-.201-9.705.338-26.462 5.327-40.262z" fill="#FFFFF7"/><path d="M113.544 81.88c-5.058 13.991-5.5 31.181-5.314 40.182a7.743 7.743 0 002.4 5.464 7.738 7.738 0 005.566 2.163l27.891-.621c-.251-31.428-3.066-50.804-8.148-56.067-1.046.23-8.621 1.85-13.749 1.85l-.146-.002c-1.341 0-7.928 5.447-8.5 7.03zm2.473 48.254a8.18 8.18 0 01-5.694-2.289 8.17 8.17 0 01-2.536-5.773c-.188-9.033.257-26.284 5.34-40.343.576-1.595 7.234-7.323 8.918-7.323h.146c5.44 0 13.688-1.845 13.771-1.864l.119-.027.087.087c6.609 6.608 8.197 34.47 8.365 56.681l.001.218-28.328.632-.189.001z" fill="#0075FF"/><path d="M82.615 86.333l5.11 3.921-5.393 4.806c-7.701-10.803-7.666-10.32-8.679-12.847-2.944-7.34-4.191-9.798-3.882-11.473.106-.572.861-.721 1.205-.251 1.457 1.99 1.722 7.804 5.71 9.976.558.304 1.232-.16 1.16-.792-.177-1.552-1.125-3.222-.96-4.612.053-.445.628-.619.92-.283 1.57 1.798 3.076 6.9 3.73 9.867a2.92 2.92 0 001.079 1.688z" fill="#F99889"/><path d="M67.105 61.065c-.303-.425-.97-.145-.877.368.27 1.482 2.172 4.417 2.778 5.465 2.576 4.448 4.248 9.727 7.156 13.923.312.451 1.287-.027 1.133-.553-1.454-4.972-8.04-16.176-10.19-19.203z" fill="#514342"/><path d="M121.565 73.323c-1.892 1.04-5.578 7.957-4.945 11.148 4.124 20.802-3.842 36.524 1.76 56.977 2.416 8.824 4.519 9.492 6.937 23.157.646 3.655 4.295 5.868 7.88 4.911 8.563-2.283 21.099 4.151 25.065 2.556 5.102-2.053 11.42-29.313-4.442-58.182-6.333-11.527-10.625-18.16-12.979-37.987-1.582-13.316-11.012-7.128-19.276-2.58z" fill="#0075FF"/><path d="M137.363 168.803c3.978 0 8.308 1.063 11.982 1.965 3.853.946 7.179 1.764 8.833 1.098 1.127-.454 2.33-2.274 3.301-4.993 2.888-8.089 4.963-29.549-7.853-52.875-.426-.776-.843-1.53-1.25-2.266-5.754-10.398-9.554-17.267-11.757-35.802-.468-3.954-1.637-6.356-3.569-7.343-3.409-1.74-8.714 1.217-13.844 4.078-.514.287-1.026.572-1.534.852-1.879 1.034-5.437 7.874-4.835 10.912 1.956 9.863 1.194 18.672.458 27.191-.846 9.782-1.645 19.022 1.299 29.769.906 3.31 1.778 5.492 2.621 7.602 1.445 3.617 2.808 7.032 4.32 15.577a5.9 5.9 0 002.664 3.988 6.223 6.223 0 004.941.746c1.325-.353 2.75-.499 4.223-.499zm19.256 3.745c-1.884 0-4.486-.639-7.379-1.349-4.985-1.224-11.189-2.747-15.985-1.468a6.673 6.673 0 01-5.295-.802 6.33 6.33 0 01-2.861-4.284c-1.504-8.499-2.861-11.894-4.296-15.489-.848-2.121-1.724-4.316-2.637-7.65-2.965-10.823-2.125-20.534-1.314-29.924.735-8.488 1.494-17.266-.449-27.068-.646-3.249 3.039-10.276 5.054-11.386.508-.279 1.021-.564 1.534-.85 5.231-2.918 10.639-5.935 14.261-4.085 2.074 1.058 3.32 3.572 3.808 7.684 2.191 18.45 5.975 25.289 11.704 35.64.407.737.824 1.491 1.251 2.267 5.432 9.887 8.827 20.736 9.819 31.373.772 8.285.066 16.255-1.937 21.865-1.028 2.881-2.29 4.747-3.553 5.255-.471.189-1.052.271-1.725.271z" fill="#103560"/><path d="M133.277 164.485a.221.221 0 01-.197-.12c-11.666-22.813-11.668-29.142-11.67-39.626 0-1.162-.001-2.378-.017-3.676-.019-1.654-.215-4.589-.462-8.305-.88-13.218-2.212-33.195 1.256-36.515.589-.563 1.9-.927 3.561-1.388 3.597-.998 8.522-2.364 9.442-6.745a.221.221 0 01.262-.172c.12.026.197.143.172.263-.975 4.644-6.051 6.053-9.757 7.082-1.538.426-2.866.795-3.373 1.28-3.318 3.177-1.943 23.827-1.121 36.166.249 3.723.444 6.663.464 8.329.016 1.3.016 2.517.016 3.681.003 10.772.004 16.705 11.622 39.424a.222.222 0 01-.097.298l-.101.024z" fill="#103560"/><path d="M125.052 88.614c-.979 4.205-3.951 7.62-6.821 10.845-6.06 6.81-11.436 13.709-13.972 16.338a5.812 5.812 0 01-8.523-.168L78.106 91.62a.928.928 0 01-.08-.986c1.123-2.093 3.98-4.382 5.404-5.148a.937.937 0 011.134.192c1.294 1.404 5.595 6.086 13.39 14.711a1.424 1.424 0 002.288-.245c21.326-37.013 26.33-18.054 24.81-11.53z" fill="#0075FF"/><path d="M83.873 85.597a.716.716 0 00-.337.084c-1.494.802-4.246 3.065-5.315 5.058a.71.71 0 00.064.75l17.63 24.008a5.525 5.525 0 004.048 1.855 5.504 5.504 0 004.137-1.709c1.226-1.272 3.091-3.511 5.451-6.346 2.405-2.888 5.397-6.482 8.514-9.986 2.709-3.044 5.78-6.495 6.771-10.748.755-3.236-.154-8.938-3.243-10.157-2.607-1.03-8.824.44-21.158 21.849a1.632 1.632 0 01-1.253.814 1.633 1.633 0 01-1.394-.531c-7.656-8.474-11.912-13.109-13.386-14.71a.719.719 0 00-.53-.231zm16.2 32.199l-.12-.001a5.969 5.969 0 01-4.382-2.019L77.927 91.752a1.155 1.155 0 01-.097-1.223c1.11-2.069 3.954-4.41 5.496-5.238a1.16 1.16 0 011.402.237c1.474 1.6 5.732 6.238 13.39 14.712.26.289.632.429 1.017.388.388-.041.72-.258.914-.595 11.877-20.61 18.361-23.36 21.706-22.04 3.608 1.424 4.205 7.704 3.513 10.671-1.017 4.363-4.127 7.858-6.872 10.942-3.112 3.499-6.101 7.089-8.504 9.975-2.366 2.842-4.235 5.087-5.474 6.37a6.053 6.053 0 01-4.345 1.845z" fill="#103560"/><path d="M127.837 142.951c.203.722.469.813 1.059.662a215.979 215.979 0 0014.874-4.379c1.938-.646-.632-8.13-1.265-9.7-.317-.789-12.759 2.796-16.456 5.417 0 0 .315 2.774 1.788 8z" fill="#0075FF"/><path d="M128.05 142.891c.168.597.308.632.79.507a215.986 215.986 0 0014.861-4.374c.161-.054.284-.177.377-.376.752-1.63-1.01-7.107-1.761-8.987-.994-.347-12.266 2.821-16.031 5.395.082.607.49 3.312 1.764 7.835zm.447 1.003c-.452 0-.7-.267-.874-.883-1.46-5.182-1.79-8.006-1.794-8.034l-.015-.131.107-.075c3.509-2.488 15.078-5.955 16.53-5.531.164.049.232.142.26.211.028.071 2.78 7.193 1.769 9.382-.144.312-.359.518-.639.612a216.998 216.998 0 01-14.89 4.383 1.853 1.853 0 01-.454.066z" fill="#103560"/><path d="M125.924 134.554l-.682-2.172c-.144-.457 16.44-5.713 16.674-4.901l.48 1.672c.124.433-16.218 6.209-16.472 5.401z" fill="#FFFFF7"/><path d="M125.736 132.542l.525 1.671c1.862-.055 13.865-4.246 15.65-5.217l-.341-1.182c-1.827.012-14.015 3.83-15.834 4.728zm.403 2.516c-.456 0-.551-.162-.618-.377l-.758-2.407.186-.222c.702-.751 15.381-5.431 16.964-5.05.296.071.385.277.409.363l.48 1.672c.126.438.174.6-4.649 2.371-2.75 1.008-5.874 2.061-8.152 2.745-2.22.667-3.308.905-3.862.905z" fill="#FFFFF7"/><path d="M157.623 172.471l-.101-.025a.222.222 0 01-.097-.298c5.771-11.36 5.327-25.012-1.396-42.963-4.03-10.762-6.463-15.789-8.072-19.116-3.418-7.063-3.622-7.486-8.371-38.48a.22.22 0 01.185-.253.22.22 0 01.253.185c4.739 30.929 4.942 31.348 8.332 38.354 1.614 3.335 4.051 8.373 8.089 19.154 6.77 18.076 7.207 31.842 1.375 43.32a.222.222 0 01-.197.122zm-38.939-70.516c.148.148.454.321.583.097a1.368 1.368 0 00-.182-1.459.238.238 0 00-.276-.06c-.455.212-.414 1.134-.125 1.422zm-.468 8.529c.149.149.455.322.584.097a1.368 1.368 0 00-.182-1.459.236.236 0 00-.275-.059c-.455.212-.414 1.133-.127 1.421zm-.465 8.529c.149.149.455.322.582.097a1.366 1.366 0 00-.181-1.459.24.24 0 00-.276-.06c-.454.212-.413 1.134-.125 1.422zm-.024 8.529c.149.149.455.322.584.097a1.367 1.367 0 00-.182-1.458.237.237 0 00-.275-.06c-.455.212-.414 1.133-.127 1.421zm.422 8.53c.149.149.454.321.583.096a1.365 1.365 0 00-.182-1.458.235.235 0 00-.275-.059c-.455.212-.414 1.132-.126 1.421zm-16.636-30.327l-.11-.029c-1.616-.928-2.555-2.863-2.284-4.706a.221.221 0 11.44.065c-.246 1.666.603 3.417 2.065 4.255a.222.222 0 01-.111.415zm9.23-30.978l-.167-.077c-1.006-1.152-1.272-2.87-.664-4.273a.222.222 0 11.407.177 3.67 3.67 0 00.591 3.805.221.221 0 01-.021.313l-.146.055z" fill="#103560"/><path d="M119.718 52.394c-.63-.05-.934-2.483.593-2.363.816.065.438 2.444-.593 2.363z" fill="#382823"/><path d="M117.474 59.653c.856-.04 2.011-.064 3.483-.1.837-.021-.48 2.715-3.054 1.99-.227-.694-.305-1.175-.429-1.89z" fill="#fff"/><path d="M127.421 45.868c5.14 7.537-2.114 10.952-.217 17.119 2.867 9.314 9.643 2.28 9.691 22.82.026 11.026 4.487 16.524 16.591 17.683 14.556 1.394 24.119-19.293 19.074-21.002-9.5-3.219 3.173-13.888-8.914-21.893-6.148-4.071-9.343-7.666-14.283-20.383-1.818-4.678-8.743-11-19.095-8.662-3.372.762-8.762 2.607-10.108 5.831-1.708 4.091 5.222 5.496 7.261 8.487z" fill="#4D3930"/><path d="M118.932 48.653c-.277.041-.569-.007-.763-.162-.488-.387.013-.922.526-1.184 1.042-.53 2.503-.336 3.684.11.25.094.238.456-.017.536-.55.174-1.569.42-3.43.7z" fill="#4D3930"/><path d="M138.405 81.225c-.148-.016-.235-.127-.221-.248.634-5.427-2.868-8.572-6.254-11.614-3.913-3.515-7.961-7.15-4.805-14.184 2.775-6.189-.67-9.058-3.708-11.59-2.083-1.734-4.05-3.373-3.366-5.799a.22.22 0 01.274-.152.221.221 0 01.153.273c-.606 2.148 1.168 3.626 3.222 5.338 3.004 2.502 6.742 5.616 3.829 12.111-3.022 6.739.728 10.108 4.697 13.673 3.471 3.117 7.059 6.34 6.399 11.995a.222.222 0 01-.22.197zm16.287 22.276c-2.117 0-4.394-.351-6.795-1.216a.222.222 0 11.15-.418c7.238 2.609 13.341.436 17.188-1.847 5.851-3.472 9.916-9.219 10.465-12.77.581-3.75-1.265-5.09-3.05-6.385-.725-.526-1.41-1.024-1.881-1.664-1.552-2.106-.931-4.646-.33-7.101.39-1.591.792-3.236.575-4.707-.495-3.376-3.079-4.984-6.351-7.021-3.581-2.23-8.039-5.004-10.732-11.232-.263-.607-.524-1.249-.795-1.914-2.627-6.452-6.224-15.29-20.859-15.29a.222.222 0 110-.443c14.933 0 18.596 8.997 21.27 15.566.269.662.53 1.301.791 1.905 2.638 6.101 6.847 8.72 10.559 11.031 3.236 2.015 6.03 3.754 6.557 7.334.228 1.557-.184 3.244-.583 4.876-.604 2.465-1.175 4.794.255 6.733.431.584 1.088 1.063 1.785 1.568 1.804 1.31 3.85 2.793 3.227 6.812-.564 3.652-4.713 9.545-10.677 13.084-2.654 1.575-6.361 3.099-10.769 3.099z" fill="#4D3930"/><path d="M127.4 42.032l-.101-.024a32.157 32.157 0 01-4.887-3.09c-.504-.388-.714-.85-.623-1.374.349-1.999 5.256-4.197 6.543-4.608a.221.221 0 11.135.422c-1.741.557-5.964 2.678-6.24 4.261-.062.355.087.664.456.946a31.558 31.558 0 004.819 3.048.223.223 0 01-.102.42zm41.695 44.26l-.076-.013c-3.678-1.321-6.395-4.823-6.76-8.714-.128-1.356.011-2.76.145-4.118.228-2.315.444-4.501-.551-6.452-1.108-2.17-3.147-3.183-5.507-4.356-3.061-1.52-6.531-3.244-8.66-8.036-.975-2.194-1.367-4.492-1.747-6.715-.604-3.545-1.231-7.212-4.201-10.766-.948-1.134-3.489-3.717-6.571-3.213a.224.224 0 01-.254-.183.222.222 0 01.182-.255c3.313-.54 5.987 2.174 6.984 3.366 3.047 3.647 3.683 7.373 4.298 10.976.392 2.297.762 4.467 1.714 6.61 2.065 4.646 5.458 6.332 8.452 7.82 2.33 1.156 4.531 2.249 5.705 4.551 1.054 2.066.822 4.42.597 6.697-.131 1.336-.268 2.72-.144 4.032.349 3.723 2.949 7.074 6.468 8.339a.22.22 0 01.134.283.22.22 0 01-.208.147zm-19.527 10.571c-8.128-1.028-8.418-11.948-8.527-16.059a37.123 37.123 0 00-.037-1.063c-.472-8.514-3.504-11.034-6.18-13.259-1.742-1.448-3.386-2.816-3.989-5.628-.444-2.075.242-4.258.906-6.369 1.006-3.203 1.958-6.227-.803-8.825a.222.222 0 01.304-.323c2.962 2.788 1.925 6.089.922 9.281-.646 2.056-1.315 4.183-.895 6.143.57 2.663 2.084 3.922 3.839 5.38 2.745 2.282 5.856 4.87 6.339 13.575.015.283.025.647.037 1.077.116 4.383.39 14.65 8.112 15.628a.223.223 0 01.192.248.223.223 0 01-.22.194zm11.884-2.548a.223.223 0 01-.218-.178c-.514-2.61-2.924-3.718-5.477-4.891-1.627-.749-3.309-1.522-4.427-2.723-1.79-1.925-2.271-5.335-2.829-9.283-.765-5.421-1.717-12.17-6.557-17.43a.222.222 0 11.326-.3c4.933 5.362 5.897 12.185 6.67 17.668.547 3.874 1.019 7.22 2.715 9.042 1.058 1.138 2.7 1.892 4.288 2.622 2.541 1.169 5.17 2.378 5.727 5.209a.222.222 0 01-.175.26l-.043.004z" fill="#382823"/></svg>