<svg width="58" height="7" fill="none" xmlns="http://www.w3.org/2000/svg"><path d="M9.914.69h1.268v1.971h2.171V.691h1.268v5.095h-1.268V3.719h-2.171v2.067H9.914V.69zm8.17 5.212c-.346 0-.676-.05-.99-.153a2.332 2.332 0 01-.807-.481 2.32 2.32 0 01-.548-.817 3.094 3.094 0 01-.201-1.164v-.192c0-.423.064-.792.192-1.106A2.151 2.151 0 0117.036.74a2.72 2.72 0 01.952-.164c.8 0 1.409.211 1.825.634.417.424.625 1.036.625 1.837v.538h-3.603a1.6 1.6 0 00.115.587 1.124 1.124 0 00.672.625c.154.045.308.067.462.067.326 0 .573-.048.74-.144a.8.8 0 00.355-.423h1.163c-.103.532-.356.932-.76 1.202-.403.269-.903.403-1.498.403zm-.048-4.288c-.148 0-.295.02-.442.058-.141.038-.266.1-.375.183a.95.95 0 00-.27.336c-.07.141-.108.311-.114.51h2.373a1.381 1.381 0 00-.106-.529.788.788 0 00-.25-.337.878.878 0 00-.365-.173 2.032 2.032 0 00-.451-.048zm4.461.134h-1.624V.69h4.515v1.058h-1.623v4.038h-1.268V1.748zm5.87 4.154c-.346 0-.676-.05-.99-.153a2.26 2.26 0 01-.807-.49 2.321 2.321 0 01-.548-.818c-.134-.327-.201-.711-.201-1.154v-.192c0-.417.067-.782.201-1.096a2.26 2.26 0 01.548-.789c.23-.211.5-.368.807-.47.314-.11.644-.164.99-.164.345 0 .672.054.98.163a2.236 2.236 0 011.364 1.26c.135.314.202.68.202 1.096v.192c0 .436-.067.818-.202 1.144a2.267 2.267 0 01-1.364 1.308 2.913 2.913 0 01-.98.163zm0-1.076c.358 0 .656-.129.893-.385.244-.256.365-.64.365-1.154v-.192c0-.468-.121-.824-.365-1.067a1.18 1.18 0 00-.893-.375 1.19 1.19 0 00-.904.375c-.236.243-.355.6-.355 1.067v.192c0 .52.119.907.355 1.164.238.25.539.375.904.375zm3.409 1.075c-.051 0-.115-.003-.192-.01a.808.808 0 01-.192-.018V4.728c.032.007.08.01.144.01a.498.498 0 00.317-.106c.09-.077.163-.205.22-.384.065-.18.11-.417.135-.712.032-.301.048-.673.048-1.115V.69h4.036v5.095h-1.269V1.748h-1.595v.865c0 .66-.035 1.205-.105 1.635-.064.423-.167.756-.308 1a1.141 1.141 0 01-.518.51 1.682 1.682 0 01-.721.143zm7.972.001c-.346 0-.676-.05-.99-.153a2.26 2.26 0 01-.807-.49 2.32 2.32 0 01-.547-.818c-.135-.327-.202-.711-.202-1.154v-.192c0-.417.067-.782.202-1.096a2.26 2.26 0 01.547-.789c.23-.211.5-.368.807-.47.314-.11.644-.164.99-.164s.672.054.98.163a2.236 2.236 0 011.364 1.26c.135.314.202.68.202 1.096v.192c0 .436-.067.818-.202 1.144-.134.327-.32.6-.557.818-.23.218-.5.381-.807.49a2.912 2.912 0 01-.98.163zm0-1.076c.358 0 .656-.129.893-.385.244-.256.366-.64.366-1.154v-.192c0-.468-.122-.824-.366-1.067a1.18 1.18 0 00-.893-.375 1.19 1.19 0 00-.903.375c-.237.243-.356.6-.356 1.067v.192c0 .52.119.907.356 1.164.237.25.538.375.903.375zM43.3.69h3.65v1.058h-2.383v4.038H43.3V.69zm4.416 0h1.268v3.27L51.252.69h1.172v5.096h-1.268V2.517l-2.267 3.269h-1.173V.69zm6.892 3.183c-.39-.129-.675-.32-.855-.577a1.536 1.536 0 01-.269-.904c0-.25.042-.478.125-.683.09-.211.221-.39.394-.538.173-.154.39-.272.654-.356a3.19 3.19 0 01.941-.125H58v5.096h-1.268v-1.76h-.913l-1.105 1.76h-1.422l1.316-1.913zm.145-1.481c0 .218.07.378.21.48.148.103.344.155.587.155h1.182v-1.28H55.55c-.243 0-.439.055-.586.164-.141.103-.212.263-.212.481z" fill="#000"/><path fill-rule="evenodd" clip-rule="evenodd" d="M1.64 3.335a1.517 1.517 0 101.382 1.322 1.517 1.517 0 01-1.383-1.322z" fill="#5D00F5"/><path fill-rule="evenodd" clip-rule="evenodd" d="M3.033 1.517a1.517 1.517 0 10-1.401 1.512 1.517 1.517 0 011.397-1.397c.003-.038.004-.077.004-.115z" fill="#EB236B"/><path fill-rule="evenodd" clip-rule="evenodd" d="M4.656 3.021A1.517 1.517 0 103.334 1.64a1.517 1.517 0 011.322 1.382z" fill="#4BD0A0"/><path fill-rule="evenodd" clip-rule="evenodd" d="M3.342 4.65a1.517 1.517 0 101.306-1.306 1.517 1.517 0 01-1.306 1.305z" fill="#06F"/></svg>