<svg width="413" height="346" fill="none" xmlns="http://www.w3.org/2000/svg"><path d="M348.436 196.66c0 77.323-62.657 142.863-142.585 146.513-83.023 3.795-152.715-60.145-152.715-142.956 0-82.811 69.679-148.417 152.701-146.632 79.942 1.72 142.599 65.752 142.599 143.075z" fill="url(#paint0_linear_2_462)"/><path opacity=".3" d="M357.719 196.66c0 77.323-62.657 142.863-142.585 146.513-83.023 3.795-152.715-60.145-152.715-142.956 0-82.811 69.692-148.43 152.715-146.632 79.928 1.72 142.585 65.752 142.585 143.075z" fill="url(#paint1_linear_2_462)"/><path opacity=".3" d="M348.886 196.766c0 72.853-59.1 134.491-134.347 137.784-77.984 3.412-143.3-56.732-143.3-134.425 0-77.694 65.316-139.425 143.3-137.891 75.247 1.468 134.347 61.678 134.347 134.532z" fill="url(#paint2_linear_2_462)"/><path d="M184.202 203.748c6.057-7.855 9.085-19.598 9.085-35.243 0-14.957-3.081-26.475-9.23-34.529-6.149-8.053-14.983-12.087-26.475-12.087-23.46 0-35.19 15.539-35.19 46.616 0 15.235 3.054 26.885 9.177 34.939 6.123 8.054 14.798 12.087 26.013 12.087 11.69 0 20.564-3.928 26.62-11.783zm-26.422-9.336c-3.399 0-5.872-2.129-7.392-6.374-1.534-4.246-2.301-10.699-2.301-19.335 0-8.635.767-15.049 2.301-19.228 1.534-4.179 3.993-6.268 7.392-6.268 6.533 0 9.799 8.503 9.799 25.496 0 17.139-3.266 25.709-9.799 25.709zm130.736-.873c-6.149-8.054-14.983-12.087-26.475-12.087-23.46 0-35.19 15.538-35.19 46.616 0 15.168 3.055 26.779 9.178 34.833 6.123 8.053 14.798 12.087 26.012 12.087 11.691 0 20.577-3.928 26.621-11.783 6.057-7.855 9.085-19.572 9.085-35.137 0-14.957-3.081-26.462-9.231-34.529zm-26.276 60.448c-3.399 0-5.872-2.129-7.393-6.374-1.534-4.245-2.301-10.698-2.301-19.334 0-8.635.767-15.049 2.301-19.228 1.534-4.179 3.994-6.268 7.393-6.268 6.532 0 9.799 8.503 9.799 25.496 0 17.139-3.267 25.708-9.799 25.708zm-1.482-128.408c-.582-.992-1.653-1.64-2.79-1.64h-15.129c-2.38 0-4.562 1.336-5.713 3.412l-78.195 140.985a3.313 3.313 0 00.039 3.253c.582.992 1.653 1.627 2.791 1.627h17.059c1.177 0 2.261-.662 2.843-1.693l79.135-142.691a3.316 3.316 0 00-.04-3.253z" fill="#fff"/><path opacity=".3" d="M150.784 136.224c-4.906-16.001-4.681-40.308 19.255-76.212C108.281 77.8 62.419 133.804 62.419 200.8c0 82.798 69.692 146.751 152.715 142.956 30.615-1.402 58.637-11.849 81.542-28.433-.715-22.085-5.515-46.259-19.03-68.555-37.161-61.308-111.455-60.343-126.862-110.543z" fill="url(#paint3_linear_2_462)"/><path d="M313.894 118.411v.45c-4.153-5.396-11.585-12.894-16.041-17.232-.08-.198-.225-.383-.304-.582a100.482 100.482 0 00-10.21-17.945c-4.351-6.15-9.865-12.193-16.305-17.774-.767-.727-1.667-1.362-2.487-2.05-.423-.33-.846-.674-1.269-1.004l-.622-.503c-.224-.172-.449-.317-.661-.49-.886-.634-1.772-1.282-2.658-1.93l-.661-.49-.701-.449-1.389-.912c-1.825-1.257-3.795-2.354-5.713-3.505-.978-.555-2.01-1.071-3.001-1.6-.49-.265-.992-.542-1.495-.794-.516-.237-1.031-.489-1.547-.727-8.226-3.954-17.205-6.824-26.409-8.397-1.151-.185-2.301-.357-3.465-.542-1.15-.16-2.327-.252-3.478-.384l-1.746-.185-1.745-.093-1.746-.106c-.582-.026-1.15-.079-1.745-.079-1.164 0-2.328-.013-3.492-.026-.291 0-.595-.014-.859 0l-.78.04-1.548.079-1.547.08c-.132 0-.225 0-.41.012l-1.587.12-2.116.145-1.587.119-.264.013h-.093s-.555 0 .371.013l-3.426.476c-.568.08-1.137.133-1.692.252l-1.68.317-1.679.317-.833.159c-.278.053-.556.132-.82.198-1.098.265-2.196.53-3.28.794-.555.119-1.084.29-1.613.45l-1.601.476-1.6.462-1.56.543c-1.045.37-2.09.7-3.095 1.097-1.005.41-2.023.807-3.028 1.23-7.974 3.372-15.142 7.736-21.238 12.722l-1.151.913-1.084.978c-.728.648-1.468 1.256-2.156 1.918l-.079.079c-1.336 1.322-2.698 2.566-3.901 3.928-.318.33-.635.674-.939 1.005l-.476.502-.437.53c-.582.687-1.164 1.388-1.745 2.062-.146.172-.291.33-.437.503l-.397.529c-.277.357-.542.714-.806 1.058-.516.714-1.085 1.362-1.561 2.102-3.954 5.647-6.982 11.294-9.032 16.676a74.12 74.12 0 00-4.007 14.864c-.079.556-.159 1.111-.225 1.653-.066.543-.172 1.058-.198 1.587-.093 1.045-.172 2.05-.265 3.002-.053.966-.053 1.905-.105 2.777-.014.437-.053.873-.053 1.283l.039 1.23.04 2.248c0 .199.026.304.04.437.013.132.039.264.053.383.026.251.052.212.079.437.013.198.04.277.053.277h39.025l-23.711 25.034-55.16 57.447L0 124.177h41.458c.053 0 .12-.675.186-1.203.158-1.151.33-2.262.515-3.624.106-.674.199-1.309.318-2.037.053-.357.119-.687.172-1.071.053-.37.105-.767.185-1.084.29-1.362.595-2.804.912-4.338.172-.767.344-1.547.516-2.34.185-.807.41-1.614.635-2.447.45-1.666.886-3.412 1.428-5.21.582-1.786 1.19-3.65 1.812-5.581.304-.965.7-1.93 1.07-2.91.371-.965.755-1.97 1.151-2.988a139.593 139.593 0 0113.49-25.602c5.844-8.808 13.303-17.589 22.15-25.722 1.071-1.045 2.261-1.997 3.399-3.002.582-.49 1.15-.992 1.732-1.481l.886-.74.9-.715a345.201 345.201 0 003.663-2.856l.925-.714.966-.675a177.24 177.24 0 011.93-1.362c2.526-1.851 5.251-3.504 7.962-5.223 1.362-.834 2.777-1.614 4.178-2.42.688-.397 1.402-.794 2.103-1.19a172.45 172.45 0 002.169-1.125c11.532-6.017 24.28-10.58 37.518-13.317a755.6 755.6 0 004.985-.939c1.666-.29 3.346-.502 5.025-.74l2.513-.344 2.526-.238 2.526-.225c.846-.08 1.679-.159 2.526-.198 1.679-.08 3.372-.265 5.065-.344.409-.013.846-.172 1.256-.172h1.269l2.526.132 2.526.08c.846 0 1.68.105 2.526.145l5.012.291c1.137.013.397.026.688.04l.132.013.264.026.516.066 1.058.12 2.103.25 1.058.12.515.066.648.08 2.659.37 2.658.383 1.322.198c.436.067.82.16 1.23.238 1.613.331 3.24.662 4.853.979.807.159 1.6.37 2.394.569l2.394.608 2.367.608 2.34.701c1.548.476 3.108.926 4.642 1.455 1.521.542 3.042 1.084 4.549 1.627 11.995 4.536 22.931 10.592 32.347 17.64.595.437 1.177.874 1.772 1.31.569.45 1.138.913 1.706 1.375 1.124.913 2.262 1.799 3.346 2.738 2.142 1.917 4.271 3.742 6.229 5.74.502.488.978.978 1.481 1.454l.727.727.701.754 2.751 2.989.687.74.648.767c.424.516.86 1.019 1.27 1.534.846 1.019 1.719 1.997 2.486 3.042 4.298 5.528 7.935 11.122 10.95 16.65a106.15 106.15 0 013.941 7.987 113.703 113.703 0 017.313 22.534c.158.86.33 1.693.489 2.526.159.82.344 1.627.436 2.433.225 1.614.45 3.148.662 4.629.172 1.494.277 2.923.396 4.285.053.674.119 1.335.172 1.997.027.648.172 1.269.199 1.891-.027 1.243.185 2.42.185 3.504z" fill="url(#paint4_linear_2_462)"/><path opacity=".4" d="M313.894 118.411v.45c-4.153-5.396-11.585-12.894-16.041-17.232-.08-.198-.225-.383-.304-.581a100.457 100.457 0 00-10.21-17.946c-4.351-6.15-9.865-12.193-16.305-17.773-.767-.728-1.667-1.363-2.487-2.05-.423-.33-.846-.675-1.269-1.005l-.622-.503c-.224-.172-.449-.317-.661-.49-.886-.634-1.772-1.282-2.658-1.93l-.661-.49-.701-.449-1.389-.912c-1.825-1.257-3.795-2.354-5.713-3.505-.978-.555-2.01-1.071-3.001-1.6-.49-.264-.992-.542-1.495-.793-.516-.238-1.031-.49-1.547-.728-8.226-3.954-17.205-6.824-26.409-8.397-1.151-.185-2.301-.357-3.465-.542-1.15-.16-2.327-.252-3.478-.384l-1.746-.185-1.745-.093-1.746-.106c-.582-.026-1.15-.079-1.745-.079-1.164 0-2.328-.013-3.492-.026-.291 0-.595-.014-.859 0l-.78.04-1.548.079-1.547.08c-.132 0-.225 0-.41.012l-1.587.12-2.116.145-1.587.119-.264.013h-.093s-.555 0 .371.013l-3.426.476c-.568.08-1.137.133-1.692.252l-1.68.317-1.679.317-.833.16c-.278.052-.556.131-.82.198-1.098.264-2.196.528-3.28.793-.555.119-1.084.29-1.613.45l-1.601.476-1.6.462-1.56.543c-1.045.37-2.09.7-3.095 1.097-1.005.41-2.023.807-3.028 1.23-7.974 3.372-15.142 7.736-21.238 12.722l-1.151.913-1.084.978c-.728.648-1.468 1.256-2.156 1.918l-.079.079c17.522-20.656 45.888-34.066 77.918-34.066 32.809 0 61.797 14.084 79.187 35.587a106.13 106.13 0 013.941 7.987 113.572 113.572 0 017.313 22.535c.159.86.331 1.692.49 2.525.158.82.343 1.627.436 2.434.225 1.613.45 3.147.661 4.628.172 1.495.278 2.923.397 4.285.053.674.119 1.336.172 1.997.026.648.172 1.269.198 1.891 0 1.283.212 2.46.212 3.544z" fill="url(#paint5_linear_2_462)"/><path d="M321.263 158.415c.687-.556 1.6-1.455 2.116-2.79.555-1.442.172-2.077.872-2.976.886-1.137 2.711-1.627 3.968-1.071.264.119.582.278.78.621.555.939-.674 2.566-1.666 3.426-.741.648-1.045.608-1.839 1.15-.767.542-1.732 1.468-2.512 3.187l-1.719-1.547z" fill="url(#paint6_linear_2_462)"/><path d="M362.47 150.546c-.846-.238-2.037-.714-3.042-1.745-1.071-1.111-.965-1.852-1.957-2.407-1.269-.701-3.134-.436-4.06.555-.198.212-.423.49-.476.886-.145 1.085 1.627 2.09 2.87 2.513.939.304 1.203.145 2.142.357.913.198 2.169.675 3.544 1.957l.979-2.116z" fill="url(#paint7_linear_2_462)"/><path d="M358.529 151.882c-.542 2.605 2.274 4.919 4.298 7.194 4.073 4.562 8.344 12.709 6.771 19.704-.86 3.822-3.597 7.948-7.472 9.905-4.166 2.103-6.665.186-11.003 2.698-.317.185-5.805 3.439-5.964 7.816-.198 5.409 7.763 11.174 14.573 11.611 12.458.806 27.467-15.764 26.766-32.202-.767-17.892-19.995-32.095-25.523-29.688-.846.383-2.129 1.494-2.446 2.962z" fill="url(#paint8_linear_2_462)"/><path d="M352.988 337.182l-.45 4.536 2.116-.383 1.415-4.259-3.081.106z" fill="url(#paint9_linear_2_462)"/><path d="M365.855 253.419a115.757 115.757 0 01-2.407 20.564c-1.283 6.056-2.023 7.101-2.42 11.28-.873 9.098 2.063 10.408 2.605 20.696.596 11.36-2.42 20.392-3.61 23.844a64.56 64.56 0 01-2.949 7.128c-1.045.912-2.632.555-4.311.211-.622-10.301-1.389-20.008-2.01-30.31l-5.991-46.51c7.022-2.301 14.058-4.602 21.093-6.903z" fill="url(#paint10_linear_2_462)"/><path opacity=".3" d="M352.75 337.156c-.622-10.302-1.389-20.009-2.01-30.311l-5.991-46.51 21.106-6.903c-.013.529-.04 1.045-.066 1.574-9.865 8.569-11.796 15.353-11.704 19.982.119 5.62 3.188 8.397 2.592 16.543-.423 5.819-2.182 6.851-2.182 12.101 0 6.771 2.91 10.566 4.325 14.48 1.362 3.783 1.851 9.125-.794 16.742a58.95 58.95 0 01-.965 2.09c-1.032.899-2.632.542-4.311.212z" fill="url(#paint11_linear_2_462)"/><path d="M353.782 343.265c1.005-1.243 1.917-1.15 2.089-1.984.132-.661-.291-1.454-.899-1.745-.86-.41-1.878.278-2.116.436-1.561 1.071-1.098 2.672-2.579 3.399-.304.145-.767.304-1.269.793-.212.199-.728.715-.595 1.045.145.397 1.097.357 1.996.331 1.072-.04 1.614-.053 2.13-.397.7-.463.476-.926 1.243-1.878z" fill="url(#paint12_linear_2_462)"/><path d="M351.666 304.478l3.94 1.547 1.151-1.811-3.081-2.077-2.01 2.341z" fill="url(#paint13_linear_2_462)"/><path d="M357.682 306.991c-.238-1.574.463-2.182-.053-2.883-.396-.542-1.269-.78-1.904-.529-.886.357-1.071 1.574-1.111 1.851-.277 1.878 1.217 2.619.754 4.206-.092.317-.304.78-.278 1.468.014.291.027 1.018.371 1.15.396.159 1.005-.555 1.587-1.243.7-.82 1.058-1.23 1.15-1.825.159-.846-.33-.992-.516-2.195z" fill="url(#paint14_linear_2_462)"/><path d="M334.58 246.251c-7.353 14.997-9.852 27.507-10.805 35.68-.608 5.25-.542 8.503.966 11.769 5.422 11.677 24.319 12.458 27.189 12.537.939-1.931 1.891-3.875 2.83-5.806-1.732-3.226-4.774-7.709-9.971-10.976-3.994-2.512-5.554-1.97-6.559-3.663-4.007-6.771 17.601-21.45 14.375-31.223-1.111-3.372-5.409-6.81-18.025-8.318z" fill="url(#paint15_linear_2_462)"/><path d="M350.515 192.335c-7.948 1.363-14.004 2.791-16.702 6.956-2.857 4.404 1.679 7.71 2.922 17.351 1.891 14.771-6.599 20.286-4.165 35.163a37.383 37.383 0 001.653 6.428 15.24 15.24 0 006.281 7.802 39.526 39.526 0 007.961 3.848c8.067 2.817 12.034 1.177 22.878 1.799 17.734 1.018 20.392 6.162 28.406 2.988 8.094-3.2 13.965-11.835 12.246-15.525-1.031-2.208-4.271-.833-8.926-3.544-6.004-3.505-4.986-8.279-9.852-12.365-6.996-5.885-13.714.053-19.691-5.052-6.044-5.17-6.771-17.76-4.206-25.258 1.68-4.893 1.706-10.209 2.962-15.235a3.171 3.171 0 00-.079-1.838c-.992-2.883-6.268-3.438-10.262-3.822-6.096-.582-10.778.185-11.426.304z" fill="url(#paint16_linear_2_462)"/><path d="M398.823 269.076c-2.459-1.639-1.124-6.281-4.76-8.741-3.372-2.288-6.004.701-10.99-.82-6.387-1.957-6.043-8.106-12.166-10.064-4.404-1.415-5.726 1.402-12.074 1.521-6.334.119-14.639-2.486-19.89-9.204-2.234-2.856-3.478-5.898-4.165-8.715-1.693 5.475-3.531 10.765-2.222 18.739a37.806 37.806 0 002.314 8.16 11.294 11.294 0 004.007 5.012 39.59 39.59 0 009.562 4.906c8.066 2.817 12.034 1.177 22.878 1.798 17.734 1.019 20.392 6.163 28.406 2.989 5.17-2.05 9.429-6.308 11.386-10.09-6.983 5.131-10.5 5.7-12.286 4.509z" fill="url(#paint17_linear_2_462)"/><path d="M345.926 178.582s-2.195 4.113-2.327 6.996c-.132 2.883 3.121 2.671 3.121 2.671l-.119 1.825a3.94 3.94 0 01-2.579 3.438l-1.283.476s8.384 1.799 12.973-1.441l-1.322-.132a3.957 3.957 0 01-3.544-3.531l-.08-.78c-.013 0 1.442-8.993-4.84-9.522z" fill="url(#paint18_linear_2_462)"/><path d="M325.27 159.235c1.243 2.354-.82 5.356-2.143 8.106-2.658 5.515-4.509 14.521-1.084 20.802 1.878 3.439 5.647 6.652 9.918 7.459 4.589.873 6.454-1.653 11.32-.45.357.093 6.52 1.706 7.882 5.872 1.679 5.144-4.377 12.88-10.804 15.181-11.757 4.206-30.747-7.577-34.609-23.565-4.205-17.417 10.368-36.367 16.346-35.574.939.132 2.473.846 3.174 2.169z" fill="url(#paint19_linear_2_462)"/><path d="M347.235 182.668c.437-.039.794-.581 1.085-.423.317.172.278.979 0 1.534a2.05 2.05 0 01-.78.847c.33.462.767 1.177.939 2.129.396 2.089-.715 3.755-1.177 4.747-2.077 4.417 1.15 11.413 4.694 14.944 2.883 2.87 4.232 1.719 5.951 4.06 3.346 4.562-1.269 9.574.463 15.724 2.632 9.336 17.377 12.113 17.985 12.219.238.04.397.066.648.106 6.612 1.044 16.636 2.644 23.698-2.791 5.277-4.06 7.71-11.135 7.3-17.363-.106-1.64-.595-7.856-5.673-12.934-.807-.806-5.568-5.567-11.995-5.62-3.411-.027-4.099 1.164-6.704.423-3.571-1.018-5.766-4.258-7.128-6.268-2.513-3.703-1.495-4.497-3.293-6.308-3.531-3.571-7.684-.767-11.466-3.915-3.716-3.107-1.481-7.313-5.065-9.997-3.702-2.764-10.791-1.799-12.312 1.494-1.269 2.843 1.495 7.498 2.83 7.392z" fill="url(#paint20_linear_2_462)"/><defs><linearGradient id="paint0_linear_2_462" x1="96.805" y1="396.996" x2="319.507" y2="-28.731" gradientUnits="userSpaceOnUse"><stop stop-color="#444B8C"/><stop offset=".996" stop-color="#26264F"/></linearGradient><linearGradient id="paint1_linear_2_462" x1="62.413" y1="198.434" x2="357.705" y2="198.434" gradientUnits="userSpaceOnUse"><stop stop-color="#AA80F9"/><stop offset="0" stop-color="#2D78D0"/><stop offset=".996" stop-color="#064895"/></linearGradient><linearGradient id="paint2_linear_2_462" x1="71.234" y1="198.44" x2="348.872" y2="198.44" gradientUnits="userSpaceOnUse"><stop stop-color="#AA80F9"/><stop offset="0" stop-color="#2D78D0"/><stop offset=".996" stop-color="#064895"/></linearGradient><linearGradient id="paint3_linear_2_462" x1="62.414" y1="201.956" x2="296.664" y2="201.956" gradientUnits="userSpaceOnUse"><stop stop-color="#AA80F9"/><stop offset="0" stop-color="#2D78D0"/><stop offset=".996" stop-color="#064895"/></linearGradient><linearGradient id="paint4_linear_2_462" x1="89.298" y1="214.236" x2="239.693" y2="8.119" gradientUnits="userSpaceOnUse"><stop stop-color="#FCB148"/><stop offset=".052" stop-color="#FDBA46"/><stop offset=".142" stop-color="#FFC244"/><stop offset=".318" stop-color="#FFC444"/><stop offset=".485" stop-color="#FDB946"/><stop offset=".775" stop-color="#F99C4D"/><stop offset=".866" stop-color="#F8924F"/><stop offset="1" stop-color="#F8924F"/></linearGradient><linearGradient id="paint5_linear_2_462" x1="211.521" y1="115.136" x2="267.117" y2="38.942" gradientUnits="userSpaceOnUse"><stop stop-color="#FCB148"/><stop offset=".052" stop-color="#FDBA46"/><stop offset=".142" stop-color="#FFC244"/><stop offset=".318" stop-color="#FFC444"/><stop offset=".485" stop-color="#FDB946"/><stop offset=".775" stop-color="#F99C4D"/><stop offset=".866" stop-color="#F8924F"/><stop offset="1" stop-color="#F8924F"/></linearGradient><linearGradient id="paint6_linear_2_462" x1="324.885" y1="153.653" x2="326.942" y2="165.648" gradientUnits="userSpaceOnUse"><stop stop-color="#FFC444"/><stop offset=".996" stop-color="#F36F56"/></linearGradient><linearGradient id="paint7_linear_2_462" x1="357.283" y1="147.572" x2="360.07" y2="159.418" gradientUnits="userSpaceOnUse"><stop stop-color="#FFC444"/><stop offset=".996" stop-color="#F36F56"/></linearGradient><linearGradient id="paint8_linear_2_462" x1="356.923" y1="213.131" x2="398.866" y2="187.961" gradientUnits="userSpaceOnUse"><stop stop-color="#FCB148"/><stop offset=".052" stop-color="#FDBA46"/><stop offset=".142" stop-color="#FFC244"/><stop offset=".318" stop-color="#FFC444"/><stop offset=".485" stop-color="#FDB946"/><stop offset=".775" stop-color="#F99C4D"/><stop offset=".866" stop-color="#F8924F"/><stop offset="1" stop-color="#F8924F"/></linearGradient><linearGradient id="paint9_linear_2_462" x1="354.588" y1="347.303" x2="353.029" y2="303.034" gradientUnits="userSpaceOnUse"><stop stop-color="#FFC444"/><stop offset=".996" stop-color="#F36F56"/></linearGradient><linearGradient id="paint10_linear_2_462" x1="355.724" y1="262.103" x2="362.183" y2="343.044" gradientUnits="userSpaceOnUse"><stop stop-color="#311944"/><stop offset="1" stop-color="#893976"/></linearGradient><linearGradient id="paint11_linear_2_462" x1="355.724" y1="262.103" x2="362.183" y2="343.044" gradientUnits="userSpaceOnUse"><stop stop-color="#311944"/><stop offset="1" stop-color="#893976"/></linearGradient><linearGradient id="paint12_linear_2_462" x1="350.937" y1="347.66" x2="357.483" y2="322.978" gradientUnits="userSpaceOnUse"><stop stop-color="#FF9085"/><stop offset="1" stop-color="#FB6FBB"/></linearGradient><linearGradient id="paint13_linear_2_462" x1="359.64" y1="309.019" x2="329.878" y2="283.418" gradientUnits="userSpaceOnUse"><stop stop-color="#FFC444"/><stop offset=".996" stop-color="#F36F56"/></linearGradient><linearGradient id="paint14_linear_2_462" x1="358.985" y1="312.056" x2="345.292" y2="290.502" gradientUnits="userSpaceOnUse"><stop stop-color="#FF9085"/><stop offset="1" stop-color="#FB6FBB"/></linearGradient><linearGradient id="paint15_linear_2_462" x1="385.891" y1="278.186" x2="310.283" y2="274.749" gradientUnits="userSpaceOnUse"><stop stop-color="#311944"/><stop offset="1" stop-color="#893976"/></linearGradient><linearGradient id="paint16_linear_2_462" x1="354.934" y1="278.784" x2="418.346" y2="224.108" gradientUnits="userSpaceOnUse"><stop stop-color="#FCB148"/><stop offset=".052" stop-color="#FDBA46"/><stop offset=".142" stop-color="#FFC244"/><stop offset=".318" stop-color="#FFC444"/><stop offset=".485" stop-color="#FDB946"/><stop offset=".775" stop-color="#F99C4D"/><stop offset=".866" stop-color="#F8924F"/><stop offset="1" stop-color="#F8924F"/></linearGradient><linearGradient id="paint17_linear_2_462" x1="354.585" y1="277.25" x2="383.29" y2="229.258" gradientUnits="userSpaceOnUse"><stop stop-color="#FCB148"/><stop offset=".052" stop-color="#FDBA46"/><stop offset=".142" stop-color="#FFC244"/><stop offset=".318" stop-color="#FFC444"/><stop offset=".485" stop-color="#FDB946"/><stop offset=".775" stop-color="#F99C4D"/><stop offset=".866" stop-color="#F8924F"/><stop offset="1" stop-color="#F8924F"/></linearGradient><linearGradient id="paint18_linear_2_462" x1="344.195" y1="184.369" x2="353.126" y2="197.739" gradientUnits="userSpaceOnUse"><stop stop-color="#FFC444"/><stop offset=".996" stop-color="#F36F56"/></linearGradient><linearGradient id="paint19_linear_2_462" x1="318.213" y1="219.277" x2="361.279" y2="189.213" gradientUnits="userSpaceOnUse"><stop stop-color="#FCB148"/><stop offset=".052" stop-color="#FDBA46"/><stop offset=".142" stop-color="#FFC244"/><stop offset=".318" stop-color="#FFC444"/><stop offset=".485" stop-color="#FDB946"/><stop offset=".775" stop-color="#F99C4D"/><stop offset=".866" stop-color="#F8924F"/><stop offset="1" stop-color="#F8924F"/></linearGradient><linearGradient id="paint20_linear_2_462" x1="393.14" y1="239.966" x2="356.409" y2="168.179" gradientUnits="userSpaceOnUse"><stop stop-color="#444B8C"/><stop offset=".996" stop-color="#26264F"/></linearGradient></defs></svg>