<svg width="335" height="504" fill="none" xmlns="http://www.w3.org/2000/svg"><mask id="a" style="mask-type:alpha" maskUnits="userSpaceOnUse" x="0" y="0" width="335" height="504"><rect width="335" height="504" rx="31" fill="#C4C4C4"/></mask><g mask="url(#a)"><mask id="b" style="mask-type:alpha" maskUnits="userSpaceOnUse" x="0" y="0" width="335" height="504"><rect width="335" height="504" rx="31" fill="#fff"/></mask><g mask="url(#b)"><circle cx="165.5" cy="407.5" r="244.5" fill="#fff"/><path d="M260.18 305.493c0 50.637-41.032 93.557-93.375 95.947-54.369 2.486-100.008-39.387-100.008-93.617 0-54.231 45.631-97.194 100-96.025 52.351 1.126 93.383 43.059 93.383 93.695z" fill="url(#paint0_linear_2_2561)"/><path opacity=".3" d="M266.26 305.493c0 50.636-41.032 93.557-93.375 95.947-54.369 2.485-100.008-39.387-100.008-93.618 0-54.23 45.639-97.202 100.008-96.024 52.343 1.125 93.375 43.058 93.375 93.695z" fill="url(#paint1_linear_2_2561)"/><path opacity=".3" d="M260.475 305.562c0 47.709-38.703 88.075-87.98 90.231-51.069 2.235-93.842-37.152-93.842-88.031 0-50.879 42.773-91.305 93.842-90.301 49.277.962 87.98 40.392 87.98 88.101z" fill="url(#paint2_linear_2_2561)"/><path d="M152.628 310.135c3.967-5.144 5.95-12.835 5.95-23.08 0-9.795-2.018-17.338-6.045-22.612-4.027-5.274-9.812-7.915-17.338-7.915-15.363 0-23.045 10.176-23.045 30.527 0 9.977 2.001 17.607 6.011 22.881 4.009 5.274 9.69 7.915 17.034 7.915 7.656 0 13.467-2.572 17.433-7.716zm-17.303-6.114c-2.225 0-3.845-1.395-4.841-4.175-1.004-2.78-1.507-7.006-1.507-12.661 0-5.655.503-9.855 1.507-12.592 1.005-2.737 2.616-4.105 4.841-4.105 4.278 0 6.417 5.569 6.417 16.697 0 11.224-2.139 16.836-6.417 16.836zm85.615-.572c-4.027-5.274-9.812-7.916-17.337-7.916-15.364 0-23.045 10.176-23.045 30.528 0 9.933 2 17.537 6.01 22.811 4.01 5.274 9.691 7.915 17.035 7.915 7.655 0 13.475-2.572 17.433-7.716 3.966-5.144 5.949-12.817 5.949-23.01 0-9.795-2.018-17.329-6.045-22.612zm-17.208 39.586c-2.225 0-3.845-1.394-4.841-4.174-1.004-2.78-1.507-7.007-1.507-12.662 0-5.655.503-9.855 1.507-12.592 1.005-2.736 2.616-4.105 4.841-4.105 4.279 0 6.418 5.569 6.418 16.697 0 11.224-2.139 16.836-6.418 16.836zm-.97-84.091c-.381-.649-1.082-1.074-1.827-1.074h-9.907c-1.559 0-2.988.875-3.741 2.235l-51.209 92.327a2.172 2.172 0 00.026 2.13 2.145 2.145 0 001.828 1.065h11.171c.771 0 1.481-.433 1.862-1.108l51.823-93.444a2.172 2.172 0 00-.026-2.131z" fill="#fff"/><path opacity=".3" d="M130.744 265.915c-3.213-10.479-3.065-26.396 12.61-49.909-40.444 11.648-70.478 48.325-70.478 92.197 0 54.222 45.64 96.103 100.009 93.618 20.049-.918 38.4-7.76 53.399-18.62-.467-14.462-3.611-30.293-12.462-44.895-24.335-40.148-72.989-39.516-83.078-72.391z" fill="url(#paint3_linear_2_2561)"/><path d="M237.56 254.25v.294c-2.72-3.533-7.587-8.443-10.505-11.284-.052-.13-.147-.251-.199-.381a65.75 65.75 0 00-6.686-11.752c-2.849-4.027-6.461-7.985-10.678-11.639-.502-.477-1.091-.892-1.628-1.343-.277-.216-.554-.441-.832-.658l-.407-.329c-.147-.112-.294-.208-.433-.32-.58-.416-1.16-.84-1.74-1.265l-.433-.32-.459-.295-.91-.597c-1.195-.823-2.485-1.542-3.741-2.295-.641-.364-1.316-.702-1.966-1.048-.32-.173-.649-.355-.978-.52-.338-.156-.676-.32-1.014-.476a65.657 65.657 0 00-17.294-5.499c-.754-.121-1.507-.234-2.269-.355-.754-.104-1.524-.165-2.278-.251l-1.143-.122-1.143-.06-1.143-.07c-.381-.017-.754-.052-1.143-.052-.763 0-1.525-.008-2.287-.017-.19 0-.389-.009-.563 0l-.511.026-1.013.052-1.013.052c-.087 0-.147 0-.269.009l-1.039.078-1.385.095-1.04.078-.173.009h-.061s-.363 0 .243.008l-2.243.312c-.372.052-.745.087-1.109.164l-1.099.208-1.1.208-.546.104c-.182.035-.364.087-.537.13-.719.173-1.437.346-2.148.52-.363.078-.71.19-1.056.294l-1.048.312-1.048.303-1.022.355c-.684.243-1.368.459-2.026.719-.658.268-1.325.528-1.983.805-5.223 2.209-9.916 5.066-13.909 8.331l-.753.598-.71.641c-.477.424-.962.823-1.412 1.256l-.052.051c-.875.867-1.767 1.681-2.555 2.573-.208.216-.415.441-.615.658l-.311.329-.286.346c-.381.451-.762.91-1.143 1.351-.096.113-.191.217-.286.329l-.26.347c-.182.234-.355.467-.528.693-.338.467-.71.892-1.022 1.377-2.59 3.697-4.573 7.395-5.915 10.92a48.501 48.501 0 00-2.624 9.734c-.052.364-.104.728-.147 1.083-.044.355-.113.693-.13 1.039-.061.684-.113 1.342-.173 1.966-.035.632-.035 1.247-.07 1.819-.008.285-.034.571-.034.84l.026.805c.008.52.017 1.013.026 1.472 0 .13.017.199.026.286.008.087.026.173.034.251.017.165.035.139.052.286.009.13.026.182.035.182h25.556l-15.528 16.394-36.122 37.62L32 258.026h27.15c.035 0 .078-.442.121-.788.104-.754.217-1.481.338-2.373.07-.442.13-.858.208-1.334.034-.234.078-.45.112-.701.035-.243.07-.503.122-.71.19-.892.39-1.836.597-2.841.113-.502.225-1.013.338-1.533.121-.528.268-1.056.416-1.602.294-1.091.58-2.234.935-3.412.38-1.169.78-2.39 1.186-3.655.2-.632.46-1.264.702-1.905.242-.632.493-1.29.753-1.957a91.429 91.429 0 018.834-16.767c3.828-5.767 8.712-11.518 14.506-16.844.701-.684 1.48-1.307 2.225-1.966.381-.32.754-.649 1.135-.97l.58-.485.589-.467c.797-.615 1.602-1.239 2.399-1.871l.606-.467.632-.442c.425-.303.84-.598 1.265-.892 1.654-1.213 3.438-2.295 5.213-3.421.892-.546 1.819-1.056 2.737-1.585.45-.26.918-.519 1.377-.779.476-.243.944-.485 1.42-.736 7.552-3.941 15.9-6.928 24.569-8.721 1.083-.199 2.174-.407 3.265-.615 1.091-.191 2.191-.329 3.291-.485l1.645-.225 1.655-.156 1.654-.147c.554-.052 1.099-.104 1.654-.13 1.1-.052 2.208-.173 3.317-.225.268-.009.554-.113.822-.113h.832l1.654.087 1.654.052c.554 0 1.1.069 1.654.095l3.282.19c.745.009.26.018.451.026l.086.009.173.017.338.044.693.078 1.377.164.693.078.338.043.424.052 1.741.243 1.74.251.866.13c.286.043.537.104.806.156 1.056.216 2.122.433 3.178.641.528.104 1.048.242 1.568.372l1.567.398 1.55.399 1.533.459c1.013.312 2.035.606 3.04.952.996.355 1.992.711 2.979 1.066 7.855 2.97 15.017 6.936 21.183 11.552.39.286.771.572 1.16.858.373.294.745.597 1.118.9.736.598 1.481 1.178 2.191 1.793 1.403 1.256 2.797 2.451 4.079 3.759.329.32.64.64.97.952l.476.477.459.493 1.801 1.957.451.485.424.503c.277.337.563.667.831 1.004.555.667 1.126 1.308 1.628 1.992a80.864 80.864 0 017.171 10.903 69.606 69.606 0 012.581 5.231 74.443 74.443 0 014.789 14.757c.104.563.217 1.109.32 1.654.104.537.226 1.066.286 1.594.147 1.056.295 2.061.433 3.031.113.979.182 1.914.26 2.806.035.442.078.875.113 1.308.017.424.112.831.13 1.238-.018.814.121 1.585.121 2.295z" fill="url(#paint4_linear_2_2561)"/><path opacity=".4" d="M237.56 254.25v.294c-2.72-3.533-7.587-8.443-10.505-11.284-.052-.13-.147-.251-.199-.381a65.811 65.811 0 00-6.686-11.752c-2.849-4.027-6.461-7.985-10.678-11.639-.502-.477-1.091-.892-1.628-1.343-.277-.216-.555-.441-.832-.658l-.407-.329c-.147-.112-.294-.208-.433-.32-.58-.416-1.16-.84-1.74-1.265l-.433-.32-.459-.295a719.8 719.8 0 01-.91-.597c-1.195-.823-2.485-1.542-3.741-2.295-.641-.364-1.316-.702-1.966-1.048-.32-.173-.649-.355-.978-.52-.338-.155-.676-.32-1.014-.476a65.657 65.657 0 00-17.294-5.499c-.754-.121-1.507-.234-2.269-.355-.754-.104-1.524-.165-2.278-.251l-1.143-.122-1.143-.06-1.143-.07c-.381-.017-.754-.051-1.143-.051-.763 0-1.525-.009-2.287-.018-.19 0-.389-.008-.563 0l-.511.026-1.013.052-1.013.052c-.087 0-.147 0-.269.009l-1.039.078-1.385.095-1.04.078-.173.009h-.061s-.363 0 .243.008l-2.243.312c-.372.052-.745.087-1.109.165l-1.099.207-1.1.208-.546.104c-.182.035-.364.087-.537.13-.719.173-1.437.346-2.148.52-.363.078-.71.19-1.056.294l-1.048.312-1.048.303-1.022.355c-.684.243-1.368.459-2.026.719-.658.268-1.325.528-1.983.805-5.223 2.209-9.916 5.067-13.909 8.331l-.753.598-.71.641c-.477.424-.962.823-1.412 1.256l-.052.052c11.475-13.528 30.051-22.309 51.026-22.309 21.486 0 40.47 9.223 51.858 23.304a70.183 70.183 0 012.581 5.231 74.443 74.443 0 014.789 14.757c.104.563.216 1.109.32 1.654.104.537.225 1.066.286 1.594.147 1.056.294 2.061.433 3.031.112.979.182 1.914.26 2.806.034.442.078.875.112 1.308.018.424.113.831.13 1.238 0 .84.139 1.611.139 2.321z" fill="url(#paint5_linear_2_2561)"/><path d="M242.385 280.447c.451-.364 1.048-.952 1.386-1.827.364-.944.112-1.36.571-1.949.581-.745 1.776-1.065 2.599-.701.173.078.381.182.511.407.363.615-.442 1.68-1.092 2.243-.485.424-.684.398-1.203.753-.503.355-1.135.962-1.646 2.087l-1.126-1.013z" fill="url(#paint6_linear_2_2561)"/><path d="M269.371 275.294c-.555-.156-1.334-.467-1.992-1.143-.702-.727-.632-1.212-1.282-1.576-.831-.459-2.052-.286-2.659.364-.13.138-.277.32-.311.58-.096.71 1.065 1.368 1.879 1.645.615.2.788.096 1.403.234.597.13 1.42.442 2.321 1.282l.641-1.386z" fill="url(#paint7_linear_2_2561)"/><path d="M266.79 276.169c-.355 1.706 1.489 3.221 2.814 4.711 2.668 2.988 5.465 8.323 4.434 12.904-.563 2.503-2.355 5.205-4.893 6.486-2.728 1.377-4.365.122-7.205 1.767-.208.121-3.802 2.252-3.906 5.118-.13 3.542 5.084 7.318 9.544 7.604 8.158.528 17.987-10.323 17.528-21.088-.502-11.717-13.094-21.018-16.714-19.442-.554.251-1.395.979-1.602 1.94z" fill="url(#paint8_linear_2_2561)"/><path d="M263.161 397.516l-.294 2.971 1.385-.251.927-2.789-2.018.069z" fill="url(#paint9_linear_2_2561)"/><path d="M271.588 342.662a75.839 75.839 0 01-1.577 13.467c-.84 3.966-1.325 4.65-1.584 7.387-.572 5.958 1.351 6.816 1.706 13.553.389 7.439-1.585 13.354-2.365 15.615a42.24 42.24 0 01-1.931 4.668c-.684.597-1.723.363-2.823.138-.407-6.746-.909-13.103-1.316-19.849l-3.924-30.458c4.599-1.507 9.206-3.014 13.814-4.521z" fill="url(#paint10_linear_2_2561)"/><path opacity=".3" d="M263.006 397.499c-.407-6.746-.91-13.103-1.317-19.849l-3.923-30.458 13.822-4.521c-.009.346-.026.684-.043 1.03-6.461 5.612-7.725 10.055-7.665 13.086.078 3.681 2.087 5.499 1.698 10.834-.277 3.811-1.429 4.486-1.429 7.924 0 4.434 1.905 6.92 2.832 9.483.892 2.477 1.212 5.976-.52 10.964-.225.511-.442.979-.632 1.368-.676.589-1.724.355-2.823.139z" fill="url(#paint11_linear_2_2561)"/><path d="M263.681 401.5c.658-.814 1.256-.753 1.368-1.299.087-.433-.19-.953-.589-1.143-.563-.269-1.229.182-1.385.286-1.022.701-.719 1.749-1.689 2.225-.199.096-.502.199-.831.52-.139.13-.477.468-.39.684.095.26.719.234 1.308.217.701-.026 1.056-.035 1.394-.26.459-.303.312-.606.814-1.23z" fill="url(#paint12_linear_2_2561)"/><path d="M262.295 376.1l2.581 1.013.754-1.186-2.018-1.36-1.317 1.533z" fill="url(#paint13_linear_2_2561)"/><path d="M266.236 377.745c-.156-1.031.303-1.429-.035-1.888-.26-.355-.831-.511-1.247-.346-.58.233-.702 1.03-.728 1.212-.182 1.23.797 1.715.494 2.754-.061.208-.199.511-.182.961.009.191.017.667.243.754.259.104.658-.364 1.039-.814.459-.537.693-.806.753-1.195.104-.555-.216-.65-.337-1.438z" fill="url(#paint14_linear_2_2561)"/><path d="M251.106 337.969c-4.815 9.82-6.452 18.013-7.075 23.365-.399 3.438-.355 5.568.632 7.707 3.551 7.647 15.926 8.158 17.805 8.21.615-1.264 1.239-2.537 1.854-3.801-1.135-2.114-3.127-5.049-6.53-7.188-2.615-1.646-3.637-1.291-4.296-2.399-2.624-4.434 11.527-14.047 9.414-20.447-.727-2.209-3.542-4.46-11.804-5.447z" fill="url(#paint15_linear_2_2561)"/><path d="M261.542 302.66c-5.205.892-9.172 1.828-10.938 4.556-1.871 2.884 1.099 5.049 1.914 11.362 1.238 9.674-4.322 13.285-2.728 23.028a24.495 24.495 0 001.082 4.209 9.98 9.98 0 004.114 5.109 25.881 25.881 0 005.213 2.52c5.283 1.845 7.881.771 14.982 1.178 11.614.667 13.355 4.036 18.603 1.957 5.3-2.096 9.145-7.751 8.019-10.167-.675-1.446-2.797-.546-5.846-2.321-3.931-2.295-3.265-5.421-6.452-8.097-4.581-3.854-8.98.034-12.895-3.308-3.957-3.387-4.434-11.631-2.754-16.542 1.1-3.204 1.118-6.685 1.94-9.976a2.07 2.07 0 00-.052-1.204c-.649-1.888-4.105-2.252-6.72-2.503-3.992-.381-7.058.122-7.482.199z" fill="url(#paint16_linear_2_2561)"/><path d="M293.178 352.916c-1.611-1.074-.736-4.114-3.118-5.724-2.208-1.499-3.932.459-7.197-.537-4.183-1.282-3.957-5.309-7.967-6.591-2.884-.926-3.75.918-7.907.996-4.148.078-9.587-1.628-13.025-6.027-1.463-1.871-2.278-3.863-2.728-5.708-1.108 3.586-2.312 7.05-1.455 12.272a24.79 24.79 0 001.516 5.343 7.397 7.397 0 002.624 3.283 25.943 25.943 0 006.261 3.213c5.283 1.844 7.881.77 14.982 1.177 11.614.667 13.355 4.036 18.603 1.958 3.386-1.343 6.174-4.131 7.456-6.608-4.572 3.36-6.876 3.732-8.045 2.953z" fill="url(#paint17_linear_2_2561)"/><path d="M258.537 293.654s-1.438 2.693-1.524 4.581c-.087 1.888 2.043 1.75 2.043 1.75l-.078 1.195a2.578 2.578 0 01-1.688 2.251l-.84.312s5.49 1.178 8.495-.944l-.866-.086a2.593 2.593 0 01-2.321-2.313l-.052-.511c-.008 0 .944-5.889-3.169-6.235z" fill="url(#paint18_linear_2_2561)"/><path d="M245.009 280.984c.814 1.541-.537 3.507-1.403 5.309-1.74 3.611-2.953 9.509-.71 13.622 1.23 2.252 3.698 4.356 6.495 4.885 3.006.571 4.227-1.083 7.414-.295.233.061 4.269 1.117 5.161 3.845 1.1 3.369-2.866 8.435-7.075 9.942-7.699 2.754-20.135-4.962-22.664-15.432-2.754-11.406 6.789-23.816 10.704-23.296.615.086 1.619.554 2.078 1.42z" fill="url(#paint19_linear_2_2561)"/><path d="M259.394 296.33c.286-.026.52-.381.71-.277.208.113.182.641 0 1.005a1.338 1.338 0 01-.511.554c.217.303.502.771.615 1.394.26 1.369-.468 2.46-.771 3.109-1.359 2.893.754 7.474 3.075 9.786 1.888 1.88 2.771 1.126 3.897 2.659 2.191 2.988-.832 6.27.303 10.297 1.723 6.114 11.379 7.933 11.778 8.002l.424.069c4.33.685 10.895 1.732 15.519-1.827 3.456-2.659 5.049-7.292 4.781-11.371-.069-1.074-.39-5.144-3.715-8.47-.529-.528-3.646-3.645-7.855-3.68-2.235-.017-2.685.762-4.391.277-2.338-.667-3.776-2.789-4.668-4.105-1.645-2.425-.978-2.944-2.156-4.131-2.313-2.338-5.032-.502-7.509-2.563-2.433-2.035-.97-4.789-3.317-6.547-2.424-1.81-7.066-1.178-8.062.978-.832 1.862.978 4.91 1.853 4.841z" fill="url(#paint20_linear_2_2561)"/></g></g><defs><linearGradient id="paint0_linear_2_2561" x1="95.395" y1="436.688" x2="241.236" y2="157.891" gradientUnits="userSpaceOnUse"><stop stop-color="#444B8C"/><stop offset=".996" stop-color="#26264F"/></linearGradient><linearGradient id="paint1_linear_2_2561" x1="72.872" y1="306.655" x2="266.25" y2="306.655" gradientUnits="userSpaceOnUse"><stop stop-color="#AA80F9"/><stop offset="0" stop-color="#2D78D0"/><stop offset=".996" stop-color="#064895"/></linearGradient><linearGradient id="paint2_linear_2_2561" x1="78.649" y1="306.659" x2="260.466" y2="306.659" gradientUnits="userSpaceOnUse"><stop stop-color="#AA80F9"/><stop offset="0" stop-color="#2D78D0"/><stop offset=".996" stop-color="#064895"/></linearGradient><linearGradient id="paint3_linear_2_2561" x1="72.873" y1="308.961" x2="226.276" y2="308.961" gradientUnits="userSpaceOnUse"><stop stop-color="#AA80F9"/><stop offset="0" stop-color="#2D78D0"/><stop offset=".996" stop-color="#064895"/></linearGradient><linearGradient id="paint4_linear_2_2561" x1="90.478" y1="317.003" x2="188.968" y2="182.023" gradientUnits="userSpaceOnUse"><stop stop-color="#FCB148"/><stop offset=".052" stop-color="#FDBA46"/><stop offset=".142" stop-color="#FFC244"/><stop offset=".318" stop-color="#FFC444"/><stop offset=".485" stop-color="#FDB946"/><stop offset=".775" stop-color="#F99C4D"/><stop offset=".866" stop-color="#F8924F"/><stop offset="1" stop-color="#F8924F"/></linearGradient><linearGradient id="paint5_linear_2_2561" x1="170.519" y1="252.105" x2="206.927" y2="202.208" gradientUnits="userSpaceOnUse"><stop stop-color="#FCB148"/><stop offset=".052" stop-color="#FDBA46"/><stop offset=".142" stop-color="#FFC244"/><stop offset=".318" stop-color="#FFC444"/><stop offset=".485" stop-color="#FDB946"/><stop offset=".775" stop-color="#F99C4D"/><stop offset=".866" stop-color="#F8924F"/><stop offset="1" stop-color="#F8924F"/></linearGradient><linearGradient id="paint6_linear_2_2561" x1="244.757" y1="277.329" x2="246.105" y2="285.184" gradientUnits="userSpaceOnUse"><stop stop-color="#FFC444"/><stop offset=".996" stop-color="#F36F56"/></linearGradient><linearGradient id="paint7_linear_2_2561" x1="265.974" y1="273.346" x2="267.799" y2="281.104" gradientUnits="userSpaceOnUse"><stop stop-color="#FFC444"/><stop offset=".996" stop-color="#F36F56"/></linearGradient><linearGradient id="paint8_linear_2_2561" x1="265.738" y1="316.279" x2="293.205" y2="299.796" gradientUnits="userSpaceOnUse"><stop stop-color="#FCB148"/><stop offset=".052" stop-color="#FDBA46"/><stop offset=".142" stop-color="#FFC244"/><stop offset=".318" stop-color="#FFC444"/><stop offset=".485" stop-color="#FDB946"/><stop offset=".775" stop-color="#F99C4D"/><stop offset=".866" stop-color="#F8924F"/><stop offset="1" stop-color="#F8924F"/></linearGradient><linearGradient id="paint9_linear_2_2561" x1="264.209" y1="404.144" x2="263.188" y2="375.154" gradientUnits="userSpaceOnUse"><stop stop-color="#FFC444"/><stop offset=".996" stop-color="#F36F56"/></linearGradient><linearGradient id="paint10_linear_2_2561" x1="264.953" y1="348.349" x2="269.183" y2="401.355" gradientUnits="userSpaceOnUse"><stop stop-color="#311944"/><stop offset="1" stop-color="#893976"/></linearGradient><linearGradient id="paint11_linear_2_2561" x1="264.954" y1="348.349" x2="269.183" y2="401.355" gradientUnits="userSpaceOnUse"><stop stop-color="#311944"/><stop offset="1" stop-color="#893976"/></linearGradient><linearGradient id="paint12_linear_2_2561" x1="261.818" y1="404.378" x2="266.105" y2="388.215" gradientUnits="userSpaceOnUse"><stop stop-color="#FF9085"/><stop offset="1" stop-color="#FB6FBB"/></linearGradient><linearGradient id="paint13_linear_2_2561" x1="267.517" y1="379.073" x2="248.027" y2="362.308" gradientUnits="userSpaceOnUse"><stop stop-color="#FFC444"/><stop offset=".996" stop-color="#F36F56"/></linearGradient><linearGradient id="paint14_linear_2_2561" x1="267.088" y1="381.062" x2="258.121" y2="366.947" gradientUnits="userSpaceOnUse"><stop stop-color="#FF9085"/><stop offset="1" stop-color="#FB6FBB"/></linearGradient><linearGradient id="paint15_linear_2_2561" x1="284.708" y1="358.881" x2="235.195" y2="356.631" gradientUnits="userSpaceOnUse"><stop stop-color="#311944"/><stop offset="1" stop-color="#893976"/></linearGradient><linearGradient id="paint16_linear_2_2561" x1="264.435" y1="359.273" x2="305.962" y2="323.467" gradientUnits="userSpaceOnUse"><stop stop-color="#FCB148"/><stop offset=".052" stop-color="#FDBA46"/><stop offset=".142" stop-color="#FFC244"/><stop offset=".318" stop-color="#FFC444"/><stop offset=".485" stop-color="#FDB946"/><stop offset=".775" stop-color="#F99C4D"/><stop offset=".866" stop-color="#F8924F"/><stop offset="1" stop-color="#F8924F"/></linearGradient><linearGradient id="paint17_linear_2_2561" x1="264.207" y1="358.269" x2="283.005" y2="326.84" gradientUnits="userSpaceOnUse"><stop stop-color="#FCB148"/><stop offset=".052" stop-color="#FDBA46"/><stop offset=".142" stop-color="#FFC244"/><stop offset=".318" stop-color="#FFC444"/><stop offset=".485" stop-color="#FDB946"/><stop offset=".775" stop-color="#F99C4D"/><stop offset=".866" stop-color="#F8924F"/><stop offset="1" stop-color="#F8924F"/></linearGradient><linearGradient id="paint18_linear_2_2561" x1="257.403" y1="297.443" x2="263.252" y2="306.2" gradientUnits="userSpaceOnUse"><stop stop-color="#FFC444"/><stop offset=".996" stop-color="#F36F56"/></linearGradient><linearGradient id="paint19_linear_2_2561" x1="240.388" y1="320.304" x2="268.591" y2="300.616" gradientUnits="userSpaceOnUse"><stop stop-color="#FCB148"/><stop offset=".052" stop-color="#FDBA46"/><stop offset=".142" stop-color="#FFC244"/><stop offset=".318" stop-color="#FFC444"/><stop offset=".485" stop-color="#FDB946"/><stop offset=".775" stop-color="#F99C4D"/><stop offset=".866" stop-color="#F8924F"/><stop offset="1" stop-color="#F8924F"/></linearGradient><linearGradient id="paint20_linear_2_2561" x1="289.455" y1="333.852" x2="265.402" y2="286.841" gradientUnits="userSpaceOnUse"><stop stop-color="#444B8C"/><stop offset=".996" stop-color="#26264F"/></linearGradient></defs></svg>