<svg width="180" height="18" fill="none" xmlns="http://www.w3.org/2000/svg"><path d="M7.084 17.132c-1.188 0-2.251-.257-3.19-.77a5.687 5.687 0 01-2.178-2.112c-.528-.91-.792-1.936-.792-3.08 0-1.144.264-2.163.792-3.058A5.485 5.485 0 013.894 6c.939-.513 2.002-.77 3.19-.77 1.056 0 1.995.213 2.816.638a4.53 4.53 0 011.936 1.848L10.23 8.75c-.367-.557-.821-.975-1.364-1.254a3.89 3.89 0 00-1.804-.418c-.763 0-1.452.169-2.068.506a3.681 3.681 0 00-1.43 1.452c-.337.616-.506 1.327-.506 2.134 0 .821.169 1.547.506 2.178a3.721 3.721 0 001.43 1.43c.616.337 1.305.506 2.068.506a3.9 3.9 0 001.804-.418c.543-.279.997-.697 1.364-1.254l1.606 1.012a4.667 4.667 0 01-1.936 1.87c-.821.425-1.76.638-2.816.638zm12.308 0c-1.158 0-2.2-.257-3.123-.77a5.687 5.687 0 01-2.178-2.112c-.514-.91-.77-1.936-.77-3.08 0-1.144.256-2.163.77-3.058A5.485 5.485 0 0116.268 6c.924-.513 1.965-.77 3.123-.77 1.16 0 2.193.257 3.102.77a5.337 5.337 0 012.157 2.112c.527.895.791 1.914.791 3.058s-.264 2.17-.791 3.08a5.528 5.528 0 01-2.157 2.112c-.909.513-1.943.77-3.102.77zm0-1.848c.748 0 1.416-.169 2.003-.506a3.723 3.723 0 001.407-1.452c.338-.63.506-1.35.506-2.156 0-.807-.168-1.518-.506-2.134a3.537 3.537 0 00-1.407-1.452c-.587-.337-1.255-.506-2.003-.506-.747 0-1.422.169-2.023.506a3.727 3.727 0 00-1.409 1.452c-.337.616-.506 1.327-.506 2.134 0 .807.17 1.525.506 2.156.352.616.822 1.1 1.409 1.452.6.337 1.276.506 2.023.506zm19.84-9.944V17h-2.003v-1.76a4.314 4.314 0 01-1.694 1.408 5.277 5.277 0 01-2.266.484c-1.554 0-2.779-.425-3.674-1.276-.894-.865-1.342-2.134-1.342-3.806V5.34h2.112v6.468c0 1.13.272 1.987.814 2.574.543.572 1.32.858 2.332.858 1.115 0 1.995-.337 2.64-1.012.646-.675.968-1.628.968-2.86V5.34h2.112zm6.044 1.958a3.603 3.603 0 011.628-1.54c.719-.352 1.591-.528 2.618-.528v2.046a4.122 4.122 0 00-.484-.022c-1.144 0-2.046.345-2.706 1.034-.645.675-.968 1.643-.968 2.904V17h-2.112V5.34h2.024v1.958zm10.279 9.834c-.953 0-1.87-.125-2.75-.374-.88-.264-1.57-.594-2.068-.99l.88-1.672c.513.367 1.137.66 1.87.88.733.22 1.474.33 2.222.33 1.848 0 2.772-.528 2.772-1.584 0-.352-.125-.63-.374-.836a2.264 2.264 0 00-.946-.44 16.584 16.584 0 00-1.584-.33c-.939-.147-1.709-.315-2.31-.506a3.55 3.55 0 01-1.518-.968c-.425-.455-.638-1.093-.638-1.914 0-1.056.44-1.9 1.32-2.53.88-.645 2.06-.968 3.542-.968a9.74 9.74 0 012.332.286c.777.19 1.415.447 1.914.77l-.902 1.672c-.953-.616-2.075-.924-3.366-.924-.895 0-1.577.147-2.046.44-.47.293-.704.682-.704 1.166 0 .381.132.682.396.902.264.22.587.381.968.484.396.103.946.22 1.65.352.939.161 1.694.337 2.266.528a3.31 3.31 0 011.496.924c.41.44.616 1.056.616 1.848 0 1.056-.455 1.9-1.364 2.53-.895.616-2.12.924-3.674.924zM67.478 5.23c1.614 0 2.846.396 3.697 1.188.865.792 1.297 1.973 1.297 3.542V17h-2.001v-1.54c-.353.543-.859.96-1.519 1.254-.645.279-1.415.418-2.31.418-1.305 0-2.353-.315-3.145-.946-.778-.63-1.166-1.46-1.166-2.486 0-1.027.373-1.848 1.121-2.464.749-.63 1.936-.946 3.564-.946h3.344v-.418c0-.91-.263-1.606-.791-2.09-.529-.484-1.306-.726-2.332-.726a6 6 0 00-2.024.352c-.66.22-1.218.52-1.672.902l-.88-1.584c.6-.484 1.32-.85 2.156-1.1a8.79 8.79 0 012.662-.396zm-.483 10.274c.806 0 1.503-.176 2.09-.528a3.143 3.143 0 001.276-1.54v-1.628h-3.257c-1.789 0-2.683.601-2.683 1.804 0 .587.227 1.049.681 1.386.455.337 1.086.506 1.892.506zm15.942.814c-.308.264-.69.47-1.144.616a5.025 5.025 0 01-1.408.198c-1.173 0-2.083-.315-2.728-.946-.645-.63-.968-1.533-.968-2.706V7.078h-1.98V5.34h1.98V2.788H78.8V5.34h3.344v1.738H78.8v6.314c0 .63.154 1.115.462 1.452.323.337.777.506 1.364.506.645 0 1.195-.183 1.65-.55l.66 1.518zm7.16.814c-1.158 0-2.2-.257-3.123-.77a5.687 5.687 0 01-2.178-2.112c-.514-.91-.77-1.936-.77-3.08 0-1.144.256-2.163.77-3.058A5.485 5.485 0 0186.974 6c.924-.513 1.965-.77 3.124-.77 1.158 0 2.192.257 3.102.77a5.338 5.338 0 012.156 2.112c.528.895.792 1.914.792 3.058s-.264 2.17-.792 3.08a5.529 5.529 0 01-2.156 2.112c-.91.513-1.944.77-3.102.77zm0-1.848c.749 0 1.416-.169 2.003-.506a3.723 3.723 0 001.408-1.452c.337-.63.506-1.35.506-2.156 0-.807-.17-1.518-.506-2.134A3.537 3.537 0 0092.1 7.584c-.587-.337-1.254-.506-2.002-.506-.748 0-1.423.169-2.024.506a3.727 3.727 0 00-1.408 1.452c-.338.616-.506 1.327-.506 2.134 0 .807.168 1.525.506 2.156.352.616.82 1.1 1.408 1.452.6.337 1.276.506 2.024.506zm10.995-7.986a3.608 3.608 0 011.628-1.54c.719-.352 1.592-.528 2.618-.528v2.046a4.11 4.11 0 00-.484-.022c-1.144 0-2.046.345-2.706 1.034-.645.675-.968 1.643-.968 2.904V17h-2.112V5.34h2.024v1.958zm7.291 9.834a1.48 1.48 0 01-1.056-.418 1.494 1.494 0 01-.44-1.1c0-.425.147-.777.44-1.056a1.44 1.44 0 011.056-.44c.411 0 .755.14 1.034.418.279.279.418.638.418 1.078 0 .44-.147.807-.44 1.1a1.379 1.379 0 01-1.012.418zm9.215 0c-1.159 0-2.2-.257-3.124-.77a5.687 5.687 0 01-2.178-2.112c-.514-.91-.77-1.936-.77-3.08 0-1.144.256-2.163.77-3.058A5.485 5.485 0 01114.474 6c.924-.513 1.965-.77 3.124-.77 1.158 0 2.192.257 3.102.77a5.341 5.341 0 012.156 2.112c.528.895.792 1.914.792 3.058s-.264 2.17-.792 3.08a5.533 5.533 0 01-2.156 2.112c-.91.513-1.944.77-3.102.77zm0-1.848c.748 0 1.415-.169 2.002-.506a3.73 3.73 0 001.408-1.452c.337-.63.506-1.35.506-2.156 0-.807-.169-1.518-.506-2.134a3.543 3.543 0 00-1.408-1.452c-.587-.337-1.254-.506-2.002-.506-.748 0-1.423.169-2.024.506a3.725 3.725 0 00-1.408 1.452c-.338.616-.506 1.327-.506 2.134 0 .807.168 1.525.506 2.156.352.616.821 1.1 1.408 1.452.601.337 1.276.506 2.024.506zM132.794 5.23c1.482 0 2.655.433 3.52 1.298.88.85 1.32 2.105 1.32 3.762V17h-2.112v-6.468c0-1.13-.271-1.98-.814-2.552-.542-.572-1.32-.858-2.332-.858-1.144 0-2.046.337-2.706 1.012-.66.66-.99 1.613-.99 2.86V17h-2.112V5.34h2.024V7.1a4.126 4.126 0 011.716-1.386c.734-.323 1.562-.484 2.486-.484zm8.749-4.554h2.112V17h-2.112V.676zm6.145 4.664h2.112V17h-2.112V5.34zm1.056-2.244c-.411 0-.756-.132-1.034-.396a1.317 1.317 0 01-.396-.968c0-.381.132-.704.396-.968a1.403 1.403 0 011.034-.418c.41 0 .748.132 1.012.396.278.25.418.565.418.946 0 .396-.14.733-.418 1.012-.264.264-.602.396-1.012.396zm11.314 2.134c1.481 0 2.655.433 3.52 1.298.88.85 1.32 2.105 1.32 3.762V17h-2.112v-6.468c0-1.13-.271-1.98-.814-2.552-.543-.572-1.32-.858-2.332-.858-1.144 0-2.046.337-2.706 1.012-.66.66-.99 1.613-.99 2.86V17h-2.112V5.34h2.024V7.1c.425-.601.997-1.063 1.716-1.386.733-.323 1.562-.484 2.486-.484zm19.351 6.006c0 .161-.015.374-.044.638h-9.46c.132 1.027.579 1.855 1.342 2.486.777.616 1.738.924 2.882.924 1.393 0 2.515-.47 3.366-1.408l1.166 1.364a5.092 5.092 0 01-1.98 1.408c-.777.323-1.65.484-2.618.484-1.232 0-2.325-.25-3.278-.748a5.563 5.563 0 01-2.222-2.134c-.513-.91-.77-1.936-.77-3.08 0-1.13.249-2.149.748-3.058A5.456 5.456 0 01170.631 6c.895-.513 1.899-.77 3.014-.77 1.115 0 2.105.257 2.97.77a5.162 5.162 0 012.046 2.112c.499.91.748 1.95.748 3.124zm-5.764-4.224c-1.012 0-1.863.308-2.552.924-.675.616-1.071 1.423-1.188 2.42h7.48c-.117-.983-.521-1.782-1.21-2.398-.675-.63-1.518-.946-2.53-.946z" fill="#000"/></svg>