<svg width="37" height="36" fill="none" xmlns="http://www.w3.org/2000/svg"><circle cx="18.9" cy="18" r="18" fill="#F79A38"/><path d="M24.514 20.514c.472-.473.54-1.147.135-1.822-.338-.54-.945-.81-1.62-.675a2.28 2.28 0 00-.81.405c-2.09 1.417-4.924 1.35-7.015-.067l-.405-.203c-.742-.337-1.484-.202-1.89.473-.472.674-.404 1.416.203 2.024.135.134.27.202.338.337l.067.067c.944.742 2.091 1.215 3.576 1.417l-.878.877-2.293 2.294c-.203.202-.473.54-.473 1.012 0 .607.338 1.214.945 1.484.202.135.405.135.607.135.338 0 .742-.135 1.012-.472l2.631-2.631.068-.068s.067 0 .067.068c.54.607 1.147 1.147 1.687 1.754l.81.81c.337.337.607.472 1.011.472.608.067 1.282-.338 1.552-.945a1.35 1.35 0 00-.337-1.619c-.675-.675-1.35-1.417-2.092-2.091l-1.147-1.147c.608-.068 1.282-.203 1.89-.473 1.011-.337 1.754-.81 2.36-1.416z" fill="#fff"/><path d="M18.712 18.625c2.9 0 5.262-2.294 5.262-5.195 0-1.417-.54-2.766-1.552-3.778S20.128 8.1 18.78 8.1c-2.9 0-5.195 2.361-5.262 5.195 0 1.417.54 2.698 1.552 3.71.944 1.08 2.226 1.62 3.643 1.62zm-1.485-6.747a2.093 2.093 0 011.485-.607c1.214 0 2.091.944 2.091 2.091 0 1.215-.944 2.092-2.091 2.092-1.215 0-2.092-.945-2.092-2.092 0-.54.203-1.08.607-1.484z" fill="#fff"/><path d="M24.514 20.514c.472-.473.54-1.147.135-1.822-.338-.54-.945-.81-1.62-.675a2.28 2.28 0 00-.81.405c-2.09 1.417-4.924 1.35-7.015-.067l-.405-.203c-.742-.337-1.484-.202-1.89.473-.472.674-.404 1.416.203 2.024.135.134.27.202.338.337l.067.067c.944.742 2.091 1.215 3.576 1.417l-.878.877-2.293 2.294c-.203.202-.473.54-.473 1.012 0 .607.338 1.214.945 1.484.202.135.405.135.607.135.338 0 .742-.135 1.012-.472l2.631-2.631.068-.068s.067 0 .067.068c.54.607 1.147 1.147 1.687 1.754l.81.81c.337.337.607.472 1.011.472.608.067 1.282-.338 1.552-.945a1.35 1.35 0 00-.337-1.619c-.675-.675-1.35-1.417-2.092-2.091l-1.147-1.147c.608-.068 1.282-.203 1.89-.473 1.011-.337 1.754-.81 2.36-1.416z" fill="#fff"/></svg>