<svg width="38" height="38" fill="none" xmlns="http://www.w3.org/2000/svg"><rect x="3.167" y="11.083" width="31.667" height="7.917" rx="2" stroke="#0075FF" stroke-width="2" stroke-linecap="round" stroke-linejoin="round"/><path d="M6.333 19h25.334v12.25a2 2 0 01-2 2H8.333a2 2 0 01-2-2V19zM19 11.083V33.25M7.917 8.288a3.536 3.536 0 013.526-3.538h1.428A6.129 6.129 0 0119 10.879v0a.204.204 0 01-.204.204h-8.093a2.794 2.794 0 01-2.786-2.795v0z" stroke="#0075FF" stroke-width="2" stroke-linecap="round" stroke-linejoin="round"/><path d="M30.083 8.288a3.536 3.536 0 00-3.526-3.538h-1.428a6.129 6.129 0 00-6.13 6.129v0c0 .113.092.204.205.204h8.093a2.794 2.794 0 002.786-2.795v0z" stroke="#0075FF" stroke-width="2" stroke-linecap="round" stroke-linejoin="round"/></svg>