<svg width="37" height="36" fill="none" xmlns="http://www.w3.org/2000/svg"><circle cx="18.6" cy="18" r="18" fill="#00A9E7"/><path d="M27.887 18.962c.06-.491.122-.921.122-1.412 0-4.909-3.988-8.959-8.959-8.959-.49 0-.92.061-1.411.123a5.257 5.257 0 00-2.516-.614A5.5 5.5 0 009.6 13.623c0 .859.184 1.718.614 2.516-.062.49-.123.92-.123 1.411 0 4.91 3.989 8.96 8.96 8.96.49 0 .92-.062 1.41-.123.798.368 1.657.613 2.516.613a5.5 5.5 0 005.523-5.523c0-.859-.245-1.718-.613-2.515zm-5.094 1.84a2.29 2.29 0 01-.797.92c-.369.246-.737.43-1.228.553a6.845 6.845 0 01-1.657.184c-1.288 0-2.331-.307-3.068-.859-.43-.368-.797-.798-.981-1.35-.246-.49.184-1.104.797-1.104h.184c.369 0 .737.245.86.552.122.307.306.552.552.736.368.307.92.43 1.595.43.614 0 1.105-.123 1.473-.307.368-.184.552-.552.552-.92a.88.88 0 00-.123-.43c-.061-.123-.245-.245-.368-.307-.184-.123-.368-.184-.675-.245-.245-.062-.552-.184-.92-.246l-.368-.122c-.43-.123-.92-.246-1.29-.369a4.603 4.603 0 01-1.104-.49 1.865 1.865 0 01-.736-.798c-.184-.307-.245-.737-.245-1.228 0-.49.122-.92.306-1.288s.491-.675.798-.86c.368-.245.736-.429 1.227-.49a5.37 5.37 0 011.473-.184c.614 0 1.105.061 1.596.184a2.9 2.9 0 011.227.613c.368.246.613.553.798.982.306.553-.123 1.289-.798 1.289h-.184a.98.98 0 01-.86-.491 3.37 3.37 0 00-.429-.552c-.307-.246-.798-.369-1.35-.369s-.982.123-1.288.307c-.307.184-.43.491-.43.798 0 .184.061.307.123.43a.629.629 0 00.368.306c.184.062.368.184.613.246.246.061.553.123.92.245.37.062.676.184 1.044.246.307.061.614.184.92.245.307.123.553.246.798.368.246.123.43.307.614.491s.307.43.368.675c.123.246.123.614.123.982-.123.43-.246.86-.43 1.227z" fill="#fff"/></svg>