<svg width="36" height="36" fill="none" xmlns="http://www.w3.org/2000/svg"><circle cx="18" cy="18" r="18" fill="#2F89CE"/><path d="M8.416 18.337l4.138 1.543 1.613 5.19c.07.35.491.42.772.21l2.314-1.893c.21-.21.561-.21.842 0l4.138 3.016c.28.21.702.07.772-.281l3.086-14.73c.07-.35-.28-.7-.631-.56L8.416 17.425c-.421.14-.421.771 0 .912zm5.54.771l8.137-4.98c.14-.07.28.14.14.21l-6.663 6.243c-.21.21-.42.49-.42.842l-.211 1.683c0 .21-.35.28-.421 0l-.842-3.086c-.21-.35-.07-.772.28-.912z" fill="#fff"/></svg>