<svg width="174" height="19" fill="none" xmlns="http://www.w3.org/2000/svg"><path d="M29.605 2.065h3.787v5.887h6.484V2.065h3.788v15.218h-3.788V11.11h-6.484v6.173h-3.788V2.065zm24.398 15.563a9.455 9.455 0 01-2.955-.46 6.965 6.965 0 01-2.41-1.435c-.689-.651-1.234-1.465-1.636-2.441-.401-.995-.602-2.153-.602-3.474v-.575c0-1.263.191-2.364.574-3.302.382-.937.908-1.713 1.578-2.325a6.425 6.425 0 012.324-1.407 8.125 8.125 0 012.84-.488c2.392 0 4.209.631 5.452 1.895 1.243 1.263 1.865 3.091 1.865 5.484v1.608h-10.76c.02.67.134 1.254.345 1.751.21.479.487.871.832 1.178a3.48 3.48 0 001.176.689c.46.134.918.2 1.377.2.976 0 1.712-.143 2.21-.43a2.388 2.388 0 001.061-1.263h3.472c-.306 1.588-1.061 2.785-2.267 3.589-1.205.804-2.697 1.206-4.476 1.206zM53.86 4.822a5.2 5.2 0 00-1.32.172c-.42.115-.794.297-1.119.546a2.832 2.832 0 00-.803 1.004c-.21.422-.326.929-.345 1.522h7.087c-.019-.631-.124-1.158-.315-1.579a2.354 2.354 0 00-.746-1.005 2.624 2.624 0 00-1.09-.517 6.072 6.072 0 00-1.349-.143zm13.322.402h-4.849V2.065h13.485v3.159H70.97v12.06h-3.787V5.223zm17.531 12.404a9.453 9.453 0 01-2.955-.46 6.745 6.745 0 01-2.41-1.464c-.689-.651-1.234-1.465-1.636-2.44-.401-.977-.602-2.125-.602-3.446v-.575c0-1.244.2-2.335.602-3.273.402-.938.947-1.723 1.636-2.354a6.616 6.616 0 012.41-1.407 8.945 8.945 0 012.955-.488c1.033 0 2.009.162 2.927.488a6.616 6.616 0 012.41 1.407c.708.631 1.263 1.416 1.664 2.354.402.938.603 2.03.603 3.273v.575c0 1.301-.201 2.44-.603 3.417-.401.976-.956 1.79-1.664 2.44a6.745 6.745 0 01-2.41 1.465 8.697 8.697 0 01-2.927.488zm0-3.216c1.071 0 1.96-.383 2.669-1.149.727-.765 1.09-1.914 1.09-3.445v-.575c0-1.397-.363-2.46-1.09-3.187-.708-.746-1.598-1.12-2.669-1.12-1.09 0-1.99.374-2.697 1.12-.708.728-1.061 1.79-1.061 3.187v.575c0 1.55.353 2.708 1.061 3.474.708.747 1.607 1.12 2.697 1.12zm10.182 3.216c-.153 0-.344-.01-.574-.029-.23 0-.42-.02-.574-.057v-3.417c.096.019.24.028.43.028.364 0 .68-.105.947-.315.268-.23.488-.613.66-1.149.192-.536.325-1.244.402-2.125.096-.9.143-2.01.143-3.33V2.065h12.051v15.218h-3.787V5.223H99.83v2.585c0 1.972-.105 3.599-.316 4.881-.19 1.264-.497 2.259-.918 2.986-.402.728-.918 1.235-1.55 1.522-.611.287-1.329.43-2.151.43zm23.807 0a9.46 9.46 0 01-2.956-.46 6.75 6.75 0 01-2.41-1.464c-.688-.651-1.234-1.465-1.635-2.44-.402-.977-.603-2.125-.603-3.446v-.575c0-1.244.201-2.335.603-3.273.401-.938.947-1.723 1.635-2.354a6.62 6.62 0 012.41-1.407 8.953 8.953 0 012.956-.488c1.033 0 2.008.162 2.926.488a6.625 6.625 0 012.411 1.407c.707.631 1.262 1.416 1.664 2.354.401.938.602 2.03.602 3.273v.575c0 1.301-.201 2.44-.602 3.417-.402.976-.957 1.79-1.664 2.44a6.754 6.754 0 01-2.411 1.465 8.692 8.692 0 01-2.926.488zm0-3.216c1.071 0 1.96-.383 2.668-1.149.727-.765 1.091-1.914 1.091-3.445v-.575c0-1.397-.364-2.46-1.091-3.187-.708-.746-1.597-1.12-2.668-1.12-1.091 0-1.99.374-2.697 1.12-.708.728-1.062 1.79-1.062 3.187v.575c0 1.55.354 2.708 1.062 3.474.707.747 1.606 1.12 2.697 1.12zm10.605-12.347h10.903v3.159h-7.116v12.06h-3.787V2.064zm13.191 0h3.787v9.763l6.771-9.763h3.501v15.218h-3.788V7.521l-6.771 9.762h-3.5V2.065zm20.581 9.505c-1.167-.383-2.018-.958-2.553-1.723-.536-.766-.804-1.666-.804-2.7 0-.746.125-1.425.373-2.038a4.274 4.274 0 011.177-1.608c.516-.46 1.167-.813 1.951-1.062.803-.25 1.74-.374 2.812-.374h7.173v15.218h-3.788V12.03h-2.726l-3.299 5.254h-4.247l3.931-5.714zm.431-4.422c0 .65.21 1.129.631 1.435.44.307 1.023.46 1.75.46h3.529v-3.82h-3.529c-.727 0-1.31.164-1.75.489-.421.306-.631.785-.631 1.436z" fill="#000"/><path fill-rule="evenodd" clip-rule="evenodd" d="M4.896 9.957a4.529 4.529 0 104.127 3.947 4.53 4.53 0 01-4.127-3.947z" fill="#5D00F5"/><path fill-rule="evenodd" clip-rule="evenodd" d="M9.058 4.529a4.53 4.53 0 10-4.185 4.516 4.53 4.53 0 014.172-4.172 4.34 4.34 0 00.013-.344z" fill="#EB236B"/><path fill-rule="evenodd" clip-rule="evenodd" d="M13.904 9.023a4.529 4.529 0 10-3.947-4.127 4.53 4.53 0 013.947 4.127z" fill="#4BD0A0"/><path fill-rule="evenodd" clip-rule="evenodd" d="M9.98 13.88a4.529 4.529 0 103.9-3.9 4.532 4.532 0 01-3.9 3.9z" fill="#06F"/></svg>