<svg width="37" height="36" fill="none" xmlns="http://www.w3.org/2000/svg"><circle cx="18.3" cy="18" r="18" fill="#55ACE3"/><path d="M27.84 13.41c-.63.27-1.35.45-2.07.54.72-.45 1.35-1.17 1.62-1.98-.72.45-1.44.72-2.34.9-.63-.72-1.62-1.17-2.61-1.17a3.61 3.61 0 00-3.6 3.6c0 .27 0 .54.09.81-2.97-.18-5.67-1.62-7.47-3.78-.27.54-.45 1.17-.45 1.8 0 1.26.63 2.34 1.62 2.97-.63 0-1.17-.18-1.62-.45 0 1.71 1.26 3.24 2.88 3.51-.27.09-.63.09-.99.09-.27 0-.45 0-.72-.09.45 1.44 1.8 2.52 3.42 2.52-1.26.99-2.79 1.53-4.5 1.53-.27 0-.54 0-.9-.09 1.62.99 3.51 1.62 5.58 1.62 6.66 0 10.26-5.49 10.26-10.26v-.45c.72-.27 1.35-.9 1.8-1.62z" fill="#fff"/></svg>