<svg width="37" height="36" fill="none" xmlns="http://www.w3.org/2000/svg"><circle cx="18.1" cy="18" r="18" fill="#7C509A"/><path d="M23.729 9.491a27.885 27.885 0 00-10.423 0c-1.518.328-3.43 2.162-3.76 3.603a20.582 20.582 0 000 8.517c.395 1.44 2.308 3.275 3.76 3.603.066 0 .132.065.132.13v4.128c0 .196.263.327.395.13l1.98-2.03s1.583-1.638 1.847-1.9c0 0 .066-.065.131-.065 1.98.065 4.024-.131 6.004-.459 1.517-.327 3.43-2.162 3.76-3.603.593-2.817.593-5.7 0-8.516-.396-1.376-2.31-3.21-3.826-3.538zm.066 12.316c-.33.655-.726 1.18-1.386 1.507l-.593.196a7.967 7.967 0 01-.66-.196c-2.111-.852-4.09-2.03-5.673-3.734a15.752 15.752 0 01-2.177-3.276c-.264-.59-.528-1.113-.726-1.703-.198-.524.132-1.048.462-1.441s.725-.655 1.187-.852c.33-.196.66-.065.924.197.527.655 1.055 1.31 1.451 2.03.264.46.198.983-.264 1.31-.132.066-.198.132-.33.263-.066.065-.198.13-.264.262a.633.633 0 00-.066.59c.528 1.506 1.518 2.685 3.035 3.34.264.131.462.197.792.197.461-.066.66-.59.99-.852.329-.262.725-.262 1.12-.065.33.196.66.458 1.056.72.33.262.66.459.99.721.198.131.264.459.132.786zm-2.771-4.913c-.132 0-.066 0 0 0-.264 0-.33-.131-.396-.328 0-.13 0-.327-.066-.458a1.244 1.244 0 00-.462-.72l-.396-.197c-.197-.066-.33-.066-.527-.066-.198-.065-.264-.196-.264-.393 0-.13.198-.262.33-.262 1.055.066 1.847.655 1.979 1.9v.262c0 .13-.066.262-.198.262zm-.66-2.882c-.33-.132-.66-.263-1.055-.328-.132 0-.33-.066-.462-.066-.198 0-.33-.13-.264-.327 0-.197.132-.328.33-.262.66.065 1.253.196 1.847.458 1.188.59 1.847 1.573 2.045 2.883v.852c-.066.261-.528.327-.594 0 0-.066-.066-.197-.066-.263a3.8 3.8 0 00-.395-1.703c-.396-.59-.858-.982-1.386-1.245zm3.563 3.93c-.198 0-.33-.197-.33-.393 0-.393-.066-.786-.132-1.18-.264-2.095-1.98-3.799-4.024-4.126-.33-.066-.66-.066-.924-.131-.198 0-.462 0-.528-.262-.066-.197.132-.393.33-.393h.132c2.705.065.132 0 0 0 2.77.065 5.08 1.9 5.541 4.65.066.46.132.918.132 1.442.132.197 0 .393-.197.393z" fill="#fff"/></svg>