<svg width="37" height="36" fill="none" xmlns="http://www.w3.org/2000/svg"><circle cx="18.5" cy="18" r="18" fill="#7294C7"/><path d="M27.326 22.604c0-.075-.075-.075-.075-.15-.299-.597-.971-1.345-1.868-2.166-.448-.374-.673-.673-.822-.822-.224-.3-.224-.524-.15-.822.075-.224.374-.598.897-1.27.3-.374.448-.598.673-.822 1.12-1.495 1.643-2.466 1.494-2.915l-.075-.074c-.074-.075-.15-.15-.298-.15-.15-.075-.374-.075-.598 0H23.14l-.074.075c-.075.075-.075.075-.075.15-.299.821-.673 1.494-1.046 2.241-.224.374-.449.747-.673 1.046-.224.299-.373.523-.523.672-.15.15-.299.225-.373.374-.075.075-.224.15-.224.075-.075 0-.15 0-.15-.075l-.224-.224c-.075-.075-.075-.224-.15-.374v-3.736c0-.074-.074-.224-.074-.299l-.224-.224c-.075-.074-.225-.074-.3-.15a6.696 6.696 0 00-1.344-.149c-1.196 0-2.018.075-2.317.225-.15.074-.298.149-.373.299-.15.149-.15.224-.075.224.374.074.672.224.822.448l.075.15c.074.074.074.224.15.448.074.224.074.448.074.747v1.196c0 .373-.075.597-.075.821 0 .224-.075.374-.15.449-.074.15-.074.224-.149.224 0 0 0 .075-.075.075-.074 0-.149.074-.298.074-.075 0-.224-.074-.3-.15a.9.9 0 01-.373-.373c-.15-.15-.299-.373-.448-.672-.15-.3-.374-.598-.523-1.046l-.15-.3c-.074-.149-.224-.447-.373-.821-.15-.374-.3-.673-.449-1.046a1.032 1.032 0 00-.224-.3h-.074s-.075-.074-.15-.074-.15-.075-.224-.075h-2.69c-.299 0-.448.075-.523.15l-.075.075v.15c0 .074 0 .149.075.298.374.897.822 1.793 1.27 2.69.449.822.897 1.569 1.196 2.092.373.523.672 1.046 1.046 1.495.373.448.598.747.672.896l.3.299.223.224c.15.15.374.374.673.598.299.224.672.448 1.046.672.373.225.822.374 1.27.523.523.15.971.225 1.42.15h1.12a.678.678 0 00.524-.224l.074-.075c0-.075.075-.075.075-.15v-.298c0-.3 0-.523.075-.747.075-.225.075-.374.15-.523.074-.15.149-.225.224-.3l.149-.149h.075c.15-.075.373 0 .523.15.224.149.448.373.597.597.15.224.374.449.673.747.299.3.523.524.672.598l.225.15c.149.075.299.15.523.224.224.075.373.075.523.075l2.54-.075c.224 0 .449-.075.598-.15.15-.074.224-.149.224-.298v-.3c-.15-.149-.15-.224-.15-.298z" fill="#fff"/></svg>