<svg width="37" height="36" fill="none" xmlns="http://www.w3.org/2000/svg"><circle cx="18.8" cy="18" r="18" fill="#48C95F"/><path d="M25.934 10.856A9.386 9.386 0 0019.283 8.1c-5.203 0-9.417 4.2-9.417 9.385 0 1.64.46 3.28 1.251 4.659L9.8 27l5.005-1.312a9.628 9.628 0 004.478 1.115c5.202 0 9.417-4.2 9.417-9.384-.066-2.428-.988-4.79-2.766-6.563zm-2.107 9.975c-.198.525-1.12 1.05-1.58 1.116a3.693 3.693 0 01-1.45-.066c-.329-.13-.79-.262-1.317-.525-2.37-.984-3.885-3.347-4.017-3.543-.131-.132-.987-1.247-.987-2.428 0-1.182.592-1.707.79-1.97.197-.262.46-.262.658-.262h.461c.132 0 .33-.065.527.394.198.46.659 1.64.725 1.706a.417.417 0 010 .394 1.371 1.371 0 01-.264.394c-.132.131-.263.328-.33.393-.13.132-.262.263-.13.46.131.262.592.984 1.316 1.64.922.788 1.647 1.05 1.91 1.182.264.131.395.065.527-.066s.593-.656.724-.919c.132-.262.33-.197.527-.13.198.065 1.383.655 1.58.787.264.13.396.196.462.262.065.197.065.656-.132 1.181z" fill="#fff"/></svg>